<?xml version="1.0" encoding="utf-8"?>
<!-- Generator: Adobe Illustrator 19.2.0, SVG Export Plug-In . SVG Version: 6.00 Build 0)  -->
<svg version="1.1" id="Layer_1" xmlns="http://www.w3.org/2000/svg" xmlns:xlink="http://www.w3.org/1999/xlink" x="0px" y="0px"
	 viewBox="0 0 143.8 430.6" style="enable-background:new 0 0 143.8 430.6;" xml:space="preserve">
<style type="text/css">
	.st0{fill:#54893E;}
</style>
<g>
	<path class="st0" d="M1.4,0.6L0.3,0C-0.5,0,0.5,0.2,1.4,0.6z"/>
	<path class="st0" d="M1.4,0.6L2.2,1C2,0.9,1.7,0.7,1.4,0.6z"/>
	<path class="st0" d="M8.5,4.4c-1.8-0.6-3.6-2-4.8-2.1C5.3,3.4,7.9,4.6,8.5,4.4z"/>
	<polygon class="st0" points="7.5,3.4 6.2,2.9 5.8,3 	"/>
	<polygon class="st0" points="7.8,3.3 5.2,2.2 5.4,2.4 	"/>
	<path class="st0" d="M12.5,7.3c2.1,1.3,0.2-0.2,1.4,0.3l-1.7-0.8c-1.4-1.1,1.2,0.2,0.3-0.6c-2-1.1-1,0.2-3.5-1.3
		C9.1,5.3,13.1,7.1,12.5,7.3z"/>
	<path class="st0" d="M101.5,77.8c0-0.1-0.1-0.2-0.1-0.2C101.4,77.7,101.4,77.7,101.5,77.8z"/>
	<path class="st0" d="M119,103.1c0.2,0.4,0.4,0.8,0.6,1.1c0-0.1-0.1-0.3-0.1-0.5L119,103.1z"/>
	<path class="st0" d="M87.3,62.4c0.1,0.2,0.3,0.5,0.8,1C87.8,63,87.6,62.7,87.3,62.4z"/>
	<path class="st0" d="M132,245c0-0.1,0-0.2-0.1-0.2c0,0,0,0,0,0.1l0,0.4L132,245z"/>
	<path class="st0" d="M134.1,134.6c0.2,0.5,0.3,0.9,0.5,1.3C134.3,135.1,134.2,134.7,134.1,134.6z"/>
	<path class="st0" d="M114.3,94.1c0.2,0.4,0.4,0.7,0.6,1C114.6,94.7,114.4,94.4,114.3,94.1z"/>
	<path class="st0" d="M38.9,23.8c-0.2-0.2-0.6-0.5-1.1-0.7C38.2,23.4,38.6,23.6,38.9,23.8z"/>
	<path class="st0" d="M46.7,29.4L46.7,29.4C46.7,29.5,46.7,29.5,46.7,29.4z"/>
	<path class="st0" d="M52.3,33.7c0,0-0.1,0-0.1-0.1C52.2,33.7,52.3,33.7,52.3,33.7z"/>
	<path class="st0" d="M38.9,23.8c0.6,0.7,0.5,1.3,1.8,1.5l-0.1-0.2c0.5,0.5,1.5,0.9,2.2,1.4c0-0.1-0.1-0.2-0.1-0.3
		c-0.3-0.2-0.8-0.6-1.4-1.1C40.5,24.4,39.8,24.3,38.9,23.8z"/>
	<path class="st0" d="M101.2,77.5C101.2,77.4,100.7,76.8,101.2,77.5L101.2,77.5z"/>
	<path class="st0" d="M94.7,70.5c0.2,0.2,0.4,0.5,0.6,0.7C95.1,71,95,70.7,94.7,70.5z"/>
	<path class="st0" d="M69.7,44.7c0,0,0.1,0.1,0.1,0.1C69.9,44.8,69.8,44.8,69.7,44.7z"/>
	<path class="st0" d="M95.3,71.2c0.2,0.2,0.3,0.4,0.6,0.7L95.3,71.2z"/>
	<path class="st0" d="M57.6,369.7c0.4-0.6,0.8-0.8,1.3-1.3c0.6-1.4-2,2.4-0.9,0.5c-0.4,0.5-0.7,1-1,1.4l0.9-0.5
		C58.6,368.7,57.2,370.4,57.6,369.7z"/>
	<path class="st0" d="M128.6,253.3l0.1-0.3c-0.2,0.1-0.2-0.1-0.7,1c0,1,0.9-0.3,0.6,1.5c0.1-0.3,0.2-0.8,0.4-1.2
		C128.6,254.8,128.5,254.1,128.6,253.3z"/>
	<path class="st0" d="M129,254.2C129,254.2,129.1,254.2,129,254.2c0.1-0.1,0.2-0.2,0.2-0.3c0.1-0.2,0.2-0.5,0.3-0.6
		C129.4,253.5,129.2,253.8,129,254.2z"/>
	<path class="st0" d="M72.7,351.4c0.2-0.2,0.4-0.4,0.5-0.6C72.9,351.1,72.8,351.3,72.7,351.4z"/>
	<path class="st0" d="M128.5,134.2c-0.2-0.3-0.3-0.6-0.5-0.8C128.2,133.8,128.3,134.1,128.5,134.2z"/>
	<path class="st0" d="M133.7,237.2c0.1-0.3,0.2-0.5,0.3-0.8c0-0.2,0.1-0.3,0.1-0.5L133.7,237.2z"/>
	<path class="st0" d="M117.4,291.6c-0.2-0.8-0.2,0.4-1,1.4l-0.3,1.1C116.7,293.2,117,292.3,117.4,291.6z"/>
	<path class="st0" d="M56.9,370.3C56.9,370.3,56.9,370.4,56.9,370.3C57,370.4,57,370.3,56.9,370.3L56.9,370.3z"/>
	<path class="st0" d="M100.6,321.2c0.1-0.1,0.2-0.2,0.3-0.4C100.8,320.9,100.7,321.1,100.6,321.2z"/>
	<path class="st0" d="M132.4,243.9L132,245c0.1,0.6-0.8,2.3-0.7,2.9L132.4,243.9z"/>
	<path class="st0" d="M135.3,224.7C135.3,224.7,135.3,224.7,135.3,224.7C135.3,224.7,135.3,224.7,135.3,224.7z"/>
	<path class="st0" d="M74.5,49.3c-0.1-0.1-0.3-0.3-0.4-0.5L74.5,49.3z"/>
	<path class="st0" d="M135.6,138.5c-0.9-2-0.9-0.6-1.7-2.4c-0.2-0.8-0.9-2.6-0.6-2.6c0.6,1.5,0.6,0.5,0.8,1c-0.2-0.6-0.4-1.3-0.7-2
		c-0.2-0.7-0.5-1.4-0.7-2.1c-0.5-1.4-1-2.8-1.6-3.8l0.4,2c-0.5-0.8-0.9-2.2-1.2-3c0.3,0.3,0.1-1,0.5-0.4c-2.7-4.3-1.2-3.7-3.2-7.5
		c-0.5-0.2-1.4-1.5-2.5-3c-1.1-1.5-2.2-3.4-3.3-4.8l-0.7-1.7c1.1,2.1,0.4-0.3,1.8,2.4c-1-2.3-2.4-4.2-3.4-6.3
		c0.1,0.5-0.2,0.5-0.7-0.3c-0.7-1.3-0.4-1.6-1.2-3l1,1.3c-0.3-1.1-1.1-1.7-1.7-2.6c0.1-0.4-1.1-2.6-0.7-2.4
		c-1.5-1.7-1.8-2.5-3.3-4.4c1.1,2.3-0.7-0.3-0.7,0l1.6,2.3c-2-3.5,0.7,1.1,1,0.6c0.8,1.7-2-1.7-0.3,0.9c-1.1-1.5-1.7-2.5-2.4-3.4
		c-0.6-1-1.3-1.9-2.6-3.3c1.4,1.8-0.5-0.2,0.1,0.9c-1.7-2.4-0.3-0.7-0.5-1.6c-0.9-1.3-1-1.9-2.1-2.9c-1.4-2.2,0.5,0.1-0.1-1.1
		c0.8,0.6,3.8,6.1,4.2,5c0.8,1.1,2,2.3,3,3.9c-0.4-0.8-0.9-1.7-1.4-2.7c-0.5-1-1.2-1.9-1.9-2.7l-0.6,0.2c-0.9-1.3-1.4-1.3-2-2.3
		c0.5,0.4,0.1-0.7-0.7-1.7c0.2,0.3,0.4,0.8,0.3,0.7c-1.4-1.9-2-1.9-3.7-4.1c1.3,2,1.4,2.5,2.5,4.4c-0.7-0.2-1-1.2-1.8-2.2
		c0.2,0.1,0.3,0.3,0.2,0l-1-1c-1.6-2.4,0.7-0.1-0.6-2.1c-0.7-1.6-1.5-1.7-2.2-2.8c0,0.1,0,0.2,0.1,0.3c-0.2-0.2-0.3-0.4-0.4-0.5
		c0,0,0,0,0,0c-1-1.2-2-2.5-2.5-2.6c0-0.2-0.9-1-1.3-1.3c-0.7-0.6-2.2-1.9-2.7-3.2l0.1,0.1c-1.2-1.5-2.1-2.7-1.7-2.5l-2-2.4l0.5,0
		c-2-2-1.9-1.7-3.6-2.8c-1.2-1.6-3.8-4.1-4.8-4.9c-0.1-0.2-0.4-0.4-0.8-0.8l0.7,0.9c-1.5-1.6-1.5-1.2-2.5-2.2
		c0.2,0.2,0.2,0.3-0.3-0.3c0.1,0.1,0.2,0.2,0.3,0.3c-0.1-0.1-0.2-0.3-0.4-0.4l0,0.1c-0.2-0.2-0.3-0.4-0.5-0.6c0.1,0,0.3,0.3,0.5,0.5
		L80.2,55c-0.9-1.6-2.1-1.7-3.3-3.1c0.1,0.1,0.4,0.3,0.5,0.4c-0.7-0.8-1.4-2.3-1.9-2.3c-0.1-0.2-0.5-0.4-0.8-0.6l-0.1-0.1
		c0,0,0.1,0.1,0.1,0.1c-0.4-0.2-0.9-0.5-0.8-0.6L71.8,47c-0.3-0.4-0.9-0.8-1.3-1.1l-0.2-0.4c-0.7-0.6-0.7-0.7-0.6-0.7
		c-2.2-2.7-4.2-3.3-6.6-6c-0.7-0.2,0.4,0.8,0.4,1c-0.6-0.2-2.3-1.4-3.2-1.9c-1-1.4-4.7-4.7-3.8-4.7c-2.4-1.9,0.5,0.9-0.8,0.1
		l-0.3-0.2c0.8,0.7,1.3,1.4,1.6,1.9c0,0.4-2.2-1.2-2.7-1.8l0.7,0c-2.3-1.6-2.2-0.7-3.9-1.4c-1.7-1.5-0.4-1-0.6-1.6l-1.9-1.3l0.2-0.3
		c-1.3-0.8-1.7-0.8-3.4-2.1c1.4,0.6-2.4-2.1-0.4-1.2c-0.9-0.8-1.5-0.5-1.8-1.1c-0.9-0.2,0.8,0.7,1.2,1.2c0.1,0.7-2.2-1.3-3.4-2
		c0-0.3,0.9,0.3-0.3-0.8c-0.4,0-1.3-0.5-2-1.2c-0.2,0.3-1.6-1-2.3-1.5c0.8,0.6,2,1.7,1.2,1.5c-0.8-0.3-1.4-0.7-2.9-1.8l1,0.8
		c-1.6-0.5-2-1.8-4-2.9c0.9,0.4,1.4,0.7,2.2,0.9c-1-0.4-2.7-1.4-4.2-2.1l-1.3-1.4c-0.3,0.1-1.8-1.1-1.9-0.9
		c-1.9-1.4,1.8,0.6,2.1,0.6c-2.4-1.7-2.3-0.8-4.4-2.7l0.9,0.2c-0.8-0.5-2.5-1.3-2.5-1.5c-0.1,0.1,0.4,0.3,0.9,0.6
		c-0.8,0.3-3.9-1.8-4-1.1l1.1,0.7c-1.8-0.9-3.2-1.2-4.4-2.2c-0.9-0.8,0.9,0,1.6,0.2c-1.6-1-1.7-0.1-3.6-1.3c1,0.7,0.7,0.8,0,0.6
		c1.1,0.7,3.3,2.1,3.1,1.6l-0.4-0.3c0.2-0.1,0.8,0.2,1.2,0.3c1.5,0.9,0.6,0.7,0.8,1c2.4,1.6,0.5-0.5,2.8,0.9l0.2,0.3
		c1.2,0.5,2.9,1.5,3.4,1.4c0.8,1,2.7,1.4,3.6,2.4c-0.3,0.9-3.8-2.5-5.4-2.8c1.1,0.9-0.9,0-1.5-0.1c0,0,1,0.5,2,1c1,0.5,2,1,2,1
		c0.2,0.3,1.1,1.4,1.9,1.5l-0.3-0.2c1.5,0.8,1.3,0.3,2.5,1.2c0.2,0.2-0.3,0.1-0.5,0.1c1.1,0.8,1.1,0.4,1.9,0.9
		c1.1,0.8-0.8-0.1,0.1,0.7c1.5,0.6,2.1,1.5,3.3,2.2c-0.2-0.8,5,2.5,2.8,0.4l3,1.6c0.7,0.8-2.3-0.7-1.8,0.2l-2.2-1.5
		c0,0.4,1.2,1.1,2.6,1.9c1.3,0.8,2.8,1.8,3.3,2.6c1.1,0.8,0.9,0.6,2.9,2.4l0-0.8c1.1,0.9,1.2,1.5,1.2,1.6c0.7,0.5,1.3,0.9,1.9,1.4
		c-0.2-0.1-0.5-0.2-0.9-0.4c0.7,0.9,1,1,1.4,1.1c0.5,0.2,1.2,0.8,1.9,1.3l-0.8-0.3c0.5,0.3,1,0.6,1.1,0.6c0.3,0.2,0.6,0.4,0.9,0.6
		c-0.1-0.2-0.4-0.9-1.3-1.7c2.5,2.1,4.5,3.7,6.4,5.8c-0.2,0.1-1.2-0.5-1-0.3c1,0.9,2.4,1.7,2.5,1.4c0.3,0.2,0.4,0.3,0.6,0.5
		c0.1,0.3,0.3,0.6,0.8,1.1c0.1,0.1,0.2,0.3,0.6,0.7c0.7-0.1,2.6,1.8,3.1,2.1c-0.4-0.4-1-1-1.6-1.4c1.1,0.5,2,0.9,2.5,1.6
		c-1.8-1.1,1.4,1.8-1.1-0.1c1.3,1.9,1.1,0.4,2.8,2.1l1,1.2c-0.4,0.1-2-1.5-1.8-1.1l0.8,0.7c-1-0.5-3.8-3.2-5.9-4.5
		c0,0,0.9,0.8,1.8,1.6c0.9,0.8,1.8,1.7,1.8,1.7c2.5,1.8,5,4.2,7.5,6.4c2.4,2.3,4.8,4.4,6.9,6l-0.2-0.1c0.1,0,0.2,0,0.3,0l0.1,0.2
		l0.9,0.5c0.6,1.1,2.1,2.6,3.2,4.2c-0.7-1-0.7-1-0.5-1.3c0.4-0.1,0.6,0,1.7,1.3c-0.2,0.2-0.9-0.6-0.2,0.5c-0.4-0.6,0.2-0.3,0.7,0.3
		c0.6,0.8,1.7,2,1.5,2.2c-0.4-0.3-0.6-0.6-0.7-0.9c-0.4-0.3,1.1,1.5,0,0.6c0,0,0.3,0.3,0.6,0.6c0.3,0.3,0.6,0.6,0.6,0.6
		c0.5,0.9-0.7-0.3-0.5,0.1c2.1,2.1,3.5,2.8,5.4,4.7c-0.2,0-0.6,0.3-0.5,0.2c1.2,1.7,3.3,3,4.8,4.7c-0.3-0.2-0.9-0.9-1.4-1.4
		c1.1,1.4,2.1,2.7,3.1,4.1c1,1.3,2,2.6,2.9,3.9c1.8,2.6,3.6,5.2,5.3,8.1l1.4,1.1l0.7,1.6c3.5,6.1,6.7,10.4,10,16.2
		c1,1.8,0.2,1.3,0.6,2.2c1.1,2,1.8,3.2,2.5,4.4c0.7,1.2,1.5,2.3,2.5,4.3c-0.4-0.5-1.3-1.2-0.5,0.5c0.3,0.3,0.6,0.4,1,1.5l-0.4-0.5
		c0.2,1.1,0.8,1.9,1.6,4c0.8,1.8,1.5,3.6,2.4,5.2c0.8,1.7,1.7,3.2,2.5,4.6c1,3.3-0.7-0.1-0.6,0.5c-0.6-2.4-0.6-1.6-1-2
		c0.6,1.2,1.2,2.6,1,3.4c0.6,1.7,0.8,2.5,1.6,4.1c-0.4-0.8-0.4-1.6,0-0.9c0.4,1.4,1.5,5,0.9,5c2.4,8.2,4.3,17.6,5.2,26.8
		c0.5,1.5,0-1.2,0.2-0.4c0.6,2.2,0.1,1.8,0.5,3.6l-0.3-0.7c0.1,2.7,0.9,5.5,1.3,8.1c-0.3-0.4-0.2,2.1-0.4,0c0.1,1.3-1.3,2.9-1,3.8
		l1.3-1.5c0.1,0.1,0.1,1.9,0.2,1.7c-0.2,1.1-0.5,2.5-0.5,3.2c-0.3,0.4-0.3-1.6-0.3-2.6c-0.6-0.1-0.3,3.5-0.8,2
		c0.1,2.2,0.3-0.3,0.5,1c0,0,0,0.5-0.1,1c0,0.5-0.1,1-0.1,1l0.2-1.5c0.1,1.6,0.5,2.2,0.2,4.4l0.5,2.3c-0.4,0.2-0.1,1.7-0.3,2.8
		c0,0-0.1-0.2-0.1-0.4c-0.1-0.2-0.1-0.4-0.1-0.4c-0.1,1.6-0.2,2.2-0.4,3.1c-0.3-0.9,0.2-1.4-0.1-1.8l-0.3,1.7c0.2,0,0.4,1.1,0.6-0.1
		c0.3,1.6,0.6,2.5,0.3,6.5c-0.3,0.9-0.3,0.4-0.4-0.2c0-0.6-0.1-1.4-0.3-1c-0.1,1-0.2,1.9-0.2,2.6c0,0.7,0.1,1.3,0.1,1.8
		c0.2,1.1,0.3,2,0.2,3.2c-0.6,3.1-0.1,2.9-0.7,6c-0.1-1-0.7,2.1-1.1,2.6l-0.1-1.3c-0.1,0.8-0.3,1.6-0.4,1.6c0.2,0.5-0.4,4.2-0.7,6.2
		l0.4-0.3c-0.3,1.7-0.6,4-1.1,5.8c-0.5,2.6-0.1,2.1-0.3,4.2c-0.6,1-0.9,0.8-1.1,0.4c0.3-0.6,0.6-1.8,1-3c0.5-3.4,0.4-6.1,1.3-9.3
		c-0.5-1.6-0.4,2.2-1.1,3.8c0-0.1,0-0.2,0-0.3c0,0.1-0.1,0.3-0.1,0.4c0.2-1.2,0.5-3.1,0.2-3.5c-0.4,2,0.5,1.6-0.4,4
		c-0.2,1.9-1.1,3.2-1.4,4.3c0,1.3,0.6,1.5-0.3,4.4l-0.1-1.4c-0.9,3.3,0.2,1.7-0.7,4.8c0.4-1.1,0.1,1.2,0.7-0.9
		c-0.1,1.1-0.6,3.3-1.3,5c-0.1,0.5,0.1,0.1,0.2,0.3c0.9-1.7,0.5-3,1.4-4.4l-0.1-1.4c0.6-1.7,1.1-1.8,1-0.6c0.1-0.5,0.2-0.9,0.4-1.3
		c0.8-0.1-0.8,2-0.4,2.8l0.3-1.2c0.6-0.4-0.4,3-0.9,4.5c-0.7,1.7-1.4,3.3-1.7,3.3c0,0,0.2-0.6,0.3-1.2c0.2-0.6,0.3-1.2,0.3-1.2
		c-0.6,1.1-0.8,3.1-1.3,4.4c-0.1,0.1-0.2,0.2-0.2,0.3c0.1-0.1,0.1-0.1,0.1-0.1c-0.1,0.3-0.2,0.5-0.4,0.7c-0.4,1.2-0.8,3-1.3,4.1
		l0.3,0l-0.1-0.2c0.4-1.1,1-2.5,1-1.6c-0.6,2.6-1.3,2.9-1.8,3.4c-0.2-0.7,0.8-2.4,1.1-3.7c-0.7,0.6-0.8,2.5-2.1,4.9
		c0-0.6,0.2-1.3,0.5-2c0.2-0.7,0.5-1.3,0.3-1.7c-0.7,2-0.7,2.7-1.6,4.8c-0.1-0.4,0.7-2.4,0.3-2.4l-0.7,1.3c1.3-3.4-0.8,0.4,0.1-2.3
		c-0.7,1.2-0.3,1.9-1.2,3.5c0.4-0.4,1.3-1.7,0.8,0.1l-0.9,1.9c-0.5,0.7,0.3-2.2-0.4-1l-0.6,2c0.2,0,0.6-0.9,0.6-0.3
		c-0.6,1.1-0.2,2.1-0.5,3.5c-0.4,1.1-0.8,1.9-1.1,2.2c-0.7,2.8-2.2,6.2-2.9,8.9c0.4-1.8-0.5-0.1-1.1,0.8c0.8-2,0.4-2.2,0-2.2
		c-0.5,1.2-0.4,2.2,0.1,1.6c-1.1,1.9-0.3,1.5-1.4,3c-0.7,1-0.2-0.7-0.5-0.4c-1,2.1,0.2,0.8-0.9,3c0-0.2,0.1-0.4-0.1-0.2
		c-0.7,1.2-1.1,2.6-1,3c-1.2,1-1.7,3.7-2.1,3.2c-1.4,3,0.5-0.3,0.4,0.4c-0.4,1.3-1.8,3.4-2.2,4.1c0.4-0.7,0.6-1.5,1-2.1l-0.7,0.4
		c-2.2,3.5-0.4,2.7-2.6,6c0.8-1.9,0-0.7,0.3-1.8c-0.2,0.6-1.8,3.3-0.6,1.8c-0.7,1.3-1.3,2.2-1.9,3c-0.5,1.2-1.1,2.5-1.3,3.3
		c-1.1,1.8-2.1,3-2.8,3.7c-0.5,1-1,1.9-1.5,2.8c-0.5,0.9-1.2,1.8-1.7,2.7c-1.2,1.8-2.4,3.6-3.5,5.6l0.2-0.3c-2,3,1.3-1-0.7,2.1
		c-0.2-0.7-1.4,1.7-2.4,2.5c-2.8,3.6-4.1,6.7-6.8,10c-0.1-0.1,0-0.4,0.4-1.1c-1.9,2.6-3.4,4.7-5.1,7l0-0.1c-3.1,3.5-5.1,7.2-8,11
		c0.2-0.3,0.1-0.5,0.2-0.8c-1.6,1.8-4,4.8-4.7,6.4c-2.2,1.9-1,1.6-3.8,4.1c-0.2,0.1,0.2-0.3,0.3-0.5c-1.3,1.3-2.1,2.3-3.3,3.7
		c-2.3,3.3-2.5,4.5-5.7,8c-0.7-0.3,1.7-2.3,1.4-2.8c-0.5,0.8-0.9,1.5-1.9,2.4c0.3-0.8,0-0.2,0.1-0.8c-0.4,0.3-0.9,1.2-1.3,2
		c-0.4,0.8-0.8,1.5-0.8,1.4c0.1,0.1,0.3-0.1,0.9-0.8c-0.4,1.1-3,3.5-4.4,5.3c0.5-0.5,2.1-2.2,1.8-1.3c-2.1,2.2-2.3,3.4-3.5,5.2
		c-2.1,1.9,0.9-1.9,0.2-1.9c-0.4,0.2-1.5,0.8-0.8-0.2c-1.8,1.8-2.6,3.5-4.1,5.2l-0.1-0.1c-2.1,2.3-4,5.2-6,7l1.1-0.9
		c-0.3,0.4-1.4,1.6-1.8,2.4c-0.1-0.2-1.3,0.8-1.3,0.6c-0.3,0.8-1.4,2.1-2.5,3.4c-1.2,1.4-2.4,2.8-2.7,3.6c-0.7,0.5-0.5-0.2-0.4-0.5
		c1.4-1.4,2-1.8,2.5-2.7c-1.2,1.2-2.1,1.9-2.1,1.6c-0.8,1.5-3.5,4.4-3.7,5.4c-1,0.7-1.9,1.4-1.9,0.9c-3.4,3.8,2.6-1-1.4,3.1
		c-2.1,1.6,1.4-2.2-1.2,0.3l0.4-0.5c-2.5,1.2-0.8,1.8-2.9,3.9c-0.7-0.1,1.2-1.7-0.5-0.6c-1.9,2-2.2,3.4-4.2,5.1l0.1-0.5
		c-1.2,1.2-3.7,3.5-4.9,4.7c-0.1,0,0.1-0.2,0.3-0.4c-0.2,0.2-0.4,0.4-0.6,0.5c0,0,0.1-0.1,0.1-0.1l-0.2,0.1c-0.2,0.1,0-0.1,0.2-0.2
		c0,0-0.2,0.1-0.2,0.1c0,0,0.1,0,0.1,0l-0.1,0l0.2-0.1c0,0-0.1,0-0.3,0c0.1,0,0.1-0.1,0.2-0.1l0.1-0.2l-0.1,0
		c-0.1,0-0.2-0.1-0.1-0.2c0,0.2,0.2,0.1,0.3,0c0-0.2-0.1,0.1-0.2,0c0-0.2,0.1-0.7,0.2-0.7l0,0.1c0-0.3,0.3-0.3,0.4-0.6
		c0-0.3,0.1-0.4-0.1-0.4c0.1-0.4,0.2-0.1,0.2-0.2c0-0.2,0.2-0.6,0.3-0.7c-0.2-0.3,0.4-0.9,0.2-1l0.2-0.2c-0.1,0-0.2-0.1-0.2-0.4
		c0.1-0.2,0.2-0.1,0.3-0.2l-0.2-0.2c0.6-1.2,0.8-2.9,1.3-4.2c0.1-0.6,0.1-1.4,0.2-2.2l0,0.1l0.2-0.7l-0.2,0.5c0-0.2,0-0.3,0-0.4
		c0.2-0.8,0.5-1.8,0.5-2.8c-0.3-0.7,0.3-0.4,0.1-1c0,0.1,0.1,0.1,0.1,0.1c-0.1-0.7-0.1-1-0.2-1.7c0.3,0.1,0-0.4,0.2-0.4l-0.1-0.1
		c0.1-0.1,0.1-0.5,0.2-0.4l-0.1-0.3l0.1,0c0.1-0.4-0.1-1.2,0.2-1.4c-0.2-1-0.1-2.5-0.1-3.7c-0.1-0.2-0.2-0.5-0.2-0.8l0.1-0.3
		c-0.1-0.3-0.3-0.6-0.2-0.8c0,0,0,0,0,0c-0.1-0.3,0-0.6-0.2-0.8c0-0.3,0-0.6,0.2-0.5c-0.3,0,0-0.7,0-0.7s-0.1-1-0.3-2.5
		c-0.1-0.8-0.2-1.7-0.4-2.7c-0.2-1-0.4-2.1-0.7-3.1c-1-4.4-2.9-9-4.4-10.5c-0.2-0.1-0.4-0.4-0.5-0.2c-0.2-0.2,0-0.5-0.2-0.5
		c0.1,0.4-0.3,0-0.3,0.4l-0.1-0.2c-0.1,0,0.2,0.2,0.1,0.3l0.2,0c0,0.2,0,0.3,0,0.4c0.2,0.1,0.5,0.1,0.5,0.6L7,377.2
		c0.1,0.3-0.1,0.3-0.1,0.3l0-0.1l0,0.3c0-0.2-0.3-0.5-0.2-0.3c0.1,0.4,0-0.1,0.2,0.2c0.1,0.2-0.1,0.2-0.1,0.2l0.1,0.3
		c-0.1,0-0.1-0.2-0.1,0l0.3,0.4c-0.2,0.2,0.3,0.4,0.1,0.7c-0.2-0.3-0.1,0.1-0.2,0l0.3,0.7c0,0.1-0.1-0.2-0.1-0.1
		c0,0.2,0.1,0.2,0.2,0.3c0,0.1,0.2,0.5,0,0.6c0.1,0.5,0.3,0.1,0.3,0.6c-0.1,0.1-0.1-0.4-0.2-0.1l0.2,0.5c-0.1,0-0.2,0-0.2-0.2
		c0.3,1.3,0,2.2,0.4,3.3c-0.1,0.2-0.1-0.1-0.2-0.2c0.4,0.8,0.1,1.3,0.3,2l0.1,0c-0.1,1.1,0.4,2.2,0.5,3.4l0-0.2
		c0.1,0.1,0.2,0.4,0.3,0.6c0,0-0.3-0.1-0.1,0.2c0-0.1,0-0.2,0.1-0.2c0,0.5,0.1,1.3,0.2,2.1c0.1,0.9,0.2,1.8,0.2,2.6
		c0.2,1.1,0.2,2.3,0.3,3.4c0.1,1.1,0,2.3,0.1,3.4c0-0.3,0.3-0.2,0.2,0.1c-0.4,0.7,0.1,1.2-0.2,1.9c0.1,1.3-0.4,2.4-0.1,3.6l-0.1,0
		c-0.1,0.2,0,0.2,0,0.4l0,0c-0.1,0.4,0,1-0.1,1.2l0.1,0c0,0.3-0.1,0.1-0.1,0.4l-0.1,0l0.1,0.3c-0.2-0.1-0.1,0.7-0.3,0.9
		c0,0.3,0,1-0.1,1.5c-0.1,0.1-0.3,0.7-0.4,1.1c-0.1,0.8-0.3,1.8-0.6,2.8l0.2,0l0,0.3c0,0-0.1,0-0.1,0c-0.2,0.1-0.1,0.6-0.3,0.8
		c0.2-0.1,0.1-0.2,0.1-0.3c0.1-0.2,0.2,0.1,0.1,0.3l0,0l0,0.2c-0.1,0-0.2,0.1-0.4,0.1c-0.2,0.8-0.2,1.4-0.5,2.2
		c-0.1-0.1-0.2,0.6-0.3,0.4c-0.1,0.5,0.2,0,0.3,0.3c0,0.1,0,0.3-0.1,0.3c0-0.1-0.2,0.1-0.2-0.1l-0.1,0.3c0,0,0-0.1,0-0.1
		c0,0.2-0.1,0.3-0.1,0.5c0,0.1,0,0.1-0.1,0.3L6,421.7c-0.3,0.5-0.6,1.1-0.7,1.6c0.1,0.1,0.2-0.5,0.3-0.4c-0.3,1.1-0.6,1-0.9,2
		l-0.1-0.1c0,0.3,0,0.4-0.3,1c-0.3,0.2,0-0.4,0.1-0.6c-0.2,0.4-0.6,1.4-0.2,1c-0.1,0.4-0.4,0.7-0.6,1c0.1,0,0.3-0.5,0.3-0.3
		c-0.4,0.7-0.8,1.7-1.2,2.5c-0.1,0.1-0.2,0.2-0.2,0.2c0.1,0.2-0.3,0.6-0.6,1.1c0.1,0,0.2-0.1,0.5-0.2c1.3-0.6,2.8-1.3,4.4-2.1
		c1.4-0.7,2.8-1.3,4-1.7c0.1-0.1,0.2-0.2,0.4-0.3c0.1-0.1,0.2-0.1,0.3-0.2c0.2-0.1,0.4-0.2,0.5-0.3l0.1,0.2l0.3-0.2
		c0.2,0-0.2,0.1,0,0.1l0.1-0.2c0.1,0.1,0.9-0.3,0.4,0.1l1.3-0.5c0.3-0.1,0.1-0.3,0.4-0.3c0.1,0-0.1,0.1,0,0.2c1-0.2,0.9-0.8,1.8-1
		l-0.1,0.1c0.1-0.1,0.4-0.2,0.4-0.2c-0.2-0.2-0.1,0.2-0.4,0.1c0-0.2,0.3-0.2,0.2-0.4c0.2,0,0.3-0.2,0.5-0.2c0.3,0,0.8-0.2,1-0.1
		c0.1-0.1,0.2-0.4,0.5-0.5c0.3,0.1,0,0.2,0.3,0.1l0-0.1c0.3-0.1,0.2,0,0.2,0c0.3-0.1,0.2-0.2,0.5-0.3l-0.2,0.2
		c0.2-0.1,0.4-0.1,0.7-0.2c0,0.1-0.1,0.1-0.2,0.1c0.3,0.1,0.3-0.2,0.4-0.2c0,0-0.3,0-0.2-0.1c0.2,0,0.3-0.3,0.5-0.2l-0.2,0.2
		c0.3-0.2,0.2-0.2,0.6-0.3c0,0,0,0,0,0.1c0.2-0.2,0.6-0.2,1-0.3c0.1-0.1,0.2-0.2,0.2-0.2c-0.2,0-0.2-0.1-0.3-0.2
		c0.4,0.1,0.4-0.4,0.9-0.4c0,0.1-0.1,0.2-0.2,0.2c-0.1,0.3-0.1,0.4-0.3,0.6c0.2-0.1,0.4-0.2,0.4-0.1l0-0.2c0.1,0,0.2-0.1,0.3-0.1
		c0-0.1-0.3-0.1,0-0.3c0.3-0.2,0.2,0.1,0.2,0c0.4-0.2,0.1-0.3,0.5-0.3c0,0-0.1,0.1-0.1,0.1c0.3,0,0.7-0.2,0.8,0c0,0.1,0,0.1-0.1,0.1
		l0,0c-0.3,0.3,0.2-0.1,0.2,0.1c-0.1-0.1,0.3-0.2,0.5-0.2l-0.1-0.1c0.5-0.6,0,0.3,0.6,0.1c0.3-0.2-0.2,0,0-0.2
		c0.3,0,0.4,0.1,0.7-0.1c0.1,0,0.3,0,0.4,0.2c0.2-0.1,0.7-0.1,0.8-0.3c-0.4,0-0.3,0.3-0.8,0.2l0.1-0.2c0.3-0.1,0.7-0.3,0.9-0.3
		c-0.1,0-0.1-0.1-0.1-0.1c0.4-0.2,0.5-0.4,1-0.4c0.1,0.1-0.2,0.2-0.3,0.2c0.3,0,0.3-0.1,0.7-0.1c0.1,0.1-0.3,0.1-0.3,0.2l0.5-0.2
		c0,0,0,0,0,0c0-0.2,0.4-0.1,0.6-0.2c0.7-0.2,0.7-0.5,1.1-0.7c0.1,0,0.2,0.1,0.1,0.1c-0.2-0.1-0.1,0-0.2,0.1
		c0.2-0.1,0.6,0.1,0.4,0.2c0.4-0.1-0.2-0.1,0.1-0.2l0.5-0.1c-0.1-0.1-0.3-0.1,0-0.2c0.2-0.1,0.3-0.1,0.6-0.1c0,0.1,0.1,0.1-0.1,0.2
		c0.1,0,0.4,0,0.4-0.2c-0.3,0,0.5-0.2,0.2-0.3l0.3,0c-0.1,0-0.1,0.1-0.2,0.1c0.1,0.1,0.3-0.1,0.4-0.1c0.1,0,0.4,0,0.5,0
		c0.1-0.1,0.3-0.1,0.4,0c0.1-0.1,0-0.1,0-0.2l0.5-0.1c0,0.1,0.1,0.3,0.1,0.4c0.2-0.1,0-0.3,0.3-0.3c-0.1,0.2,0.4,0.1,0.2,0.3
		c0.2,0.1,0.7,0,0.9-0.1c0.1-0.2-0.3,0-0.3-0.2c0.7-0.2,0.7-0.6,1.3-0.6l-0.1,0c0.3-0.1,0.3-0.1,0.5-0.3c-0.1,0.2,0.5,0.4,1,0.3
		c0-0.1-0.3-0.1-0.3-0.3l0.4-0.1c0,0,0,0-0.1,0.1c0.3-0.1,0.7,0.1,0.7-0.1l0.4,0.2l-0.1-0.1c0-0.1,0.4-0.2,0.5-0.2
		c0.4-0.1,0.5-0.1,0.7,0c-0.1-0.1-0.3-0.2,0-0.3c0,0.3,0.6,0,0.7,0.2c0.1,0,0.3,0,0.3-0.1l0,0.2c0-0.3,0.5-0.3,0.8-0.4
		c0,0.3,0.4-0.1,0.5,0.2c0-0.2,0.6-0.1,0.6-0.3c0.3,0,0.2,0.2,0.3,0.3l0.1-0.1c0.1,0.1,0.6,0.1,0.9,0.2l0.3-0.2l0.1,0.1
		c0-0.1,0.3-0.1,0.1-0.2l0.1,0c0-0.2,0.2-0.1,0.5-0.2c0.1,0,0.1,0.1,0,0.1c0.1,0,0.1,0.1,0.2,0.2c-0.1-0.1,0.5-0.4,0.1-0.5
		c0-0.1,0.2-0.2,0.4-0.1l0.1,0.2l0.2-0.2c0.2,0,0.3,0.1,0.5,0.1c-0.2,0-0.4,0.4,0.1,0.4c-0.3,0-0.4,0.1-0.5,0.2c0.1,0,0.1,0,0,0.1
		c0.4-0.1,0.1-0.1,0.5-0.2c0,0.2,0.1,0.2,0.4,0.3l-0.2-0.1c0,0,0,0,0,0c-0.1,0-0.1,0-0.1-0.1c0.1,0,0.4-0.2,0.5-0.1
		c-0.4-0.3,0.7-0.2,0.4-0.4c0-0.1,0.3-0.1,0.3,0c-0.3,0.1,0.2,0.2,0.2,0.3c0.1,0-0.2-0.1-0.1-0.2c0.2,0,0.3,0.1,0.4,0.2l-0.1,0
		l0.3,0.1c0.1-0.1-0.3-0.2,0-0.2c0.1,0,0.3,0,0.3,0.1c-0.1,0.1-0.1,0.3-0.3,0.3c0.2,0,0.8,0,0.6-0.2l0.2,0c-0.1-0.1-0.5-0.3-0.1-0.2
		l0,0l0.3-0.1l0.1,0.1c0,0,0.1-0.1,0.2-0.1c0,0.1,0.1,0.1,0.1,0.2c0.3,0,0.3-0.1,0.4-0.1c0.2,0,0.3,0,0.2,0.1c0.3,0,0.7,0.1,0.9,0.2
		c0.3,0-0.1,0,0.2-0.1c0.2,0.4,1.1,0.3,1.7,0.4c-0.1-0.3,0.2,0,0.3-0.2c-0.1,0.1,0.5,0.3,0,0.3l0.3,0c0.2,0.2-0.5,0-0.2,0.3
		c0.3,0.1,0.6-0.2,1,0c-0.2,0.2,0.3,0,0.2,0.2c-0.1,0-0.2,0-0.3,0l0.1,0.1c0.7,0.3,0.3-0.2,0.7-0.2c0.4,0.1,0.3,0.2,0.3,0.3
		c0.1,0.1,0.3,0.1,0.4,0.1c-0.3,0-0.4-0.3-0.3-0.3c0.1,0.3,0.6,0.2,0.8,0.2c-0.5-0.4-0.4-0.1-0.9-0.5c-0.1,0-0.1,0.2-0.5,0.1
		c0.2,0,0-0.1,0-0.2c0,0.1-0.3,0-0.4,0c-0.1-0.1,0.3-0.2-0.1-0.3l-0.1,0.2c-0.1-0.1,0.1-0.2-0.2-0.2c0.2-0.1,0-0.2,0.4-0.2
		c-0.4-0.3-0.8,0-1.2,0c0,0,0.1,0,0.1-0.1c-0.1,0.1-0.2,0-0.4,0c-0.2-0.1,0.2-0.1,0.2-0.2l-0.4-0.1c0,0,0,0,0,0c-0.1,0-0.2,0-0.2,0
		c0.1-0.1,0.2-0.1,0.3-0.2l-0.5,0.1c0.1-0.1-0.3-0.2,0-0.2l-0.6-0.1l0-0.2c-0.2,0-0.2,0,0,0.1c-0.2-0.1-1,0.2-0.9-0.2
		c-0.5,0.1-0.7,0-1.3,0.1c0.5-0.1-0.5-0.3,0-0.3c-0.3-0.1-0.4,0.1-0.6,0.1c-0.2-0.1-0.1-0.3,0.1-0.3l-0.3,0.1l0,0L50,416
		c-0.3-0.1,0-0.2-0.3-0.2l-0.1,0.2l-0.2-0.1c0.1,0.1-0.1,0.1-0.3,0.1l0,0l-0.2,0c0.2-0.1-0.2,0-0.1-0.2c-0.2,0-0.2,0-0.6,0l0.1,0.1
		c-0.5,0.1,0-0.2-0.4-0.2l0,0.1c-0.5-0.2-0.9,0.1-1.3,0c0.2,0,0.2-0.2,0.2-0.1c-0.4,0-0.9,0-1.3,0.2c-0.1-0.2-0.2-0.2-0.5-0.3
		c-0.3,0-0.3,0-0.4,0.2c-0.3-0.1-0.7,0.1-0.8-0.1c-0.1,0.1-0.2,0-0.4,0.1l0-0.1l0,0.1c-0.5-0.2-0.8,0.2-1.3,0l0.1,0l-0.2,0.1
		c0-0.1,0-0.1,0-0.2l-0.9,0.1l0.2,0.1c-0.2,0-0.3,0.2-0.5,0.1c0.3-0.2-0.3,0-0.4-0.1l0.2-0.1c-0.3,0-0.3,0-0.2,0.2
		c-0.3,0.1-0.3-0.2-0.6,0l0.2,0c0.1,0.1-0.1,0.2-0.2,0.2c0,0-0.2-0.1,0-0.1c-0.3,0.1-0.7,0.1-0.8,0.1c-0.2,0-0.1-0.1,0-0.2
		c-0.6,0.2-0.3,0-0.8,0.2l0-0.1l-0.2,0.1l-0.3-0.1l0.1,0.1c-0.2,0-0.3,0.1-0.5,0.1l0.1-0.1c-0.5,0.1-0.7-0.1-1.1,0.2
		c0,0,0-0.1,0.1-0.1c-0.4,0.2-0.4-0.1-0.8,0.2c0,0,0-0.1,0-0.1l-0.2,0.1l0-0.1l-0.1,0.2l-0.2-0.1l-0.1,0.1c-0.3-0.2-0.6,0-0.9-0.1
		l0.1,0.2c-0.7,0.5-1.9,0.2-2.8,0.5l0-0.1l-0.4,0.3c-0.2-0.1,0.1-0.1,0-0.2c-0.4,0.2-0.1,0.2-0.6,0.4c-0.3,0,0.1-0.1,0.2-0.2
		c-0.4,0.2-1.1,0.4-1.4,0.4c0,0,0,0,0,0.1c-0.3,0.1-0.7,0.2-1,0.3c0-0.1,0.1-0.1,0.2-0.1c-0.1,0-0.3,0-0.4,0.1l0.1-0.2
		c-0.3,0-0.7,0.3-0.8,0.1c0,0,0.1,0.2-0.2,0.2c-0.2-0.2-0.6,0.3-1,0.2c0-0.1,0.3-0.1,0.2-0.1c-0.2,0-0.3,0.1-0.5,0.2l0-0.1l-0.8,0.3
		c-0.2-0.2-0.8,0.3-0.8,0.1c-0.3,0.1,0.3,0-0.1,0.2c-0.1-0.1-0.3,0.1-0.3,0l0,0l-0.3,0.1l0.1-0.2c-0.2,0.1-0.3,0.3-0.3,0.4
		c-0.2,0-0.5,0.1-0.6,0l0.1-0.1c-0.6,0.2-1.1-0.1-1.5,0.3c0,0,0,0,0-0.1l-0.4,0.1l0.1-0.1l-0.6,0.3l0-0.1c-0.4,0.1-1,0.3-1.5,0.5
		l0.1-0.1c-0.5,0.3-0.6,0.1-0.9,0.3c0,0,0,0,0,0l-0.4,0.1l0.1-0.1c-0.2,0.2-0.8,0.1-0.6,0.1c-0.1,0.1-0.4,0.3-0.4,0.4
		c-0.4,0.1-0.1-0.1-0.4,0c-0.3,0.1-0.3,0.2-0.7,0.3l0-0.1c-0.2,0.1-0.3,0.2-0.5,0.3l0.1-0.1c-0.4,0.3-0.6,0-0.8,0.4
		c-0.2,0-0.5,0.2-0.5,0c-0.5,0.3-0.9,0.5-1.4,0.7c-0.2-0.2-0.1,0.1-0.5,0l0.1,0.1c-0.4,0.1-0.8,0.2-1.2,0.3c-0.2,0-0.3,0.1-0.5,0.1
		c0.2-0.3,0.5-0.5,0.6-0.8c-1,1.4,2.3-1.3,2.1-0.4l0.1-0.4c1.8-1.2,3.8-2.8,5.8-4.5c1-0.9,2-1.8,3-2.7c1-0.9,2-1.9,3-2.8
		c2.1-2.9,4.3-4.1,6.7-7c0-0.8,0.4-0.6,2.6-3c-1.1,1.3,0.2,0.5,1-0.2c0.3-0.6,0.8-1.2,1.3-1.8c0.6-0.3,3.7-2.9,4.4-4.3
		c1.5-1.3-0.2,0.5-0.4,0.9c0.8-0.4,0.9-1.3,1.5-1.7c0,0,0,0.1-0.1,0.2c2-2.2,3.4-3.4,5.5-5.6c-0.3-0.6,1.9-2.4,2.6-3.6
		c-0.2,0.5,1.3-1.2,2-1.7l0.8-1.5c0.8-1.5,1.7-1.5,3-3.3l-0.4,0.3c0.9-1.3,3.9-4.1,5.1-5.1c2.1-3,4-5.5,6-7.8c2-2.3,3.8-4.4,5.6-6.6
		c1.9-2.1,3.8-4.3,5.8-6.7c0.5-0.6,1-1.2,1.5-1.8c0.5-0.6,1-1.3,1.5-2c1-1.4,2.1-2.8,3.2-4.4c0.4-0.9-0.7,0.4-0.4-0.4
		c0.9-1.3,1.1-1.6,1.9-2.7c-0.9,0.9-0.6,0.9-0.6,0.6l-1.1,1.8c-0.1,0.1,0-0.1-0.2,0c-0.4,0.6-0.8,1.4-1.4,2.1
		c0.7-1.2,0.5-1.7,1.7-3.1c0,0.1-0.2,0.4-0.4,0.8c0.9-1.2,0.8-1.4,1.6-2.2c0.9-1.1,0.6-0.9,0.8-0.9c0,0,0.7-0.8,1.4-1.7
		c0.3-0.4,0.7-0.8,0.9-1.2c0.2-0.3,0.4-0.5,0.4-0.5c0.8-2.1,2.7-4,3.1-4.5c0.1,0.6-1.5,2.4-1.8,3.5l1.1-1.1l-0.2-0.3l1.3-1.8l0,0.1
		c0-0.3,0.1-0.6,0.5-1c0.1-0.1,0.3-0.2,0.2,0l0.7-1.4c-0.2,0.9,0.9-1.1,1.1-0.7c1.5-2.1,2.4-3.5,3.1-4.9c0.8-1.4,1.5-2.6,2.9-4.4
		c-0.5,0.5,0.3-1.5,1.1-2.7c0.5-0.6,0.7-0.8,0.5-0.2l0.8-1.6c1.8-1.6,2.5-3.8,4.4-6.6l0.1,0.2c0.5-1.2,1-2.4,2-4l0.1,0.5
		c1.3-1.9,0.3-1.8,1.7-4c-0.3-0.2-1.2,1.1-1.7,1.2c0.6-0.3,1.9-2.7,1.4-2.3c1-2.3,0.8-1.5,1-1.7l0.5-1.4c0.8-1.5,0.7-0.3,0.6,0.4
		c0.4-1.6,1.5-3.1,2.4-4.7l-0.2,0.7l1.2-2.1c0.5-1.6,1.4-3.6,2.4-5.4l-0.2,1.5c0.9-1.2,0.2-0.7,0.3-1.1c0.8-2.2,1.3-2.5,2.1-3.5
		c0.3-0.9,0.7-1.7,1.1-2.5c0.4-0.8,0.8-1.6,1.3-2.4c0.9-1.6,1.7-3.1,2-4.7l0.4-0.2c0.3-1,0.7-2.1,1.1-3.1c0.4-1,0.8-2.1,1.2-3.1
		c0.8-2,1.6-4,1.8-5.8c1.4-2.3,1.5-3.2,1.5-4c0-0.8,0-1.6,1.2-3.8l-0.2,0.1c5.1-14.9,9.4-31.4,10.2-46.3l0.2,0
		C145.5,185,142.7,161.2,135.6,138.5z M49.3,31.5c0.1,0,0.2,0,0.3,0.1c0,0,0,0,0,0L49.3,31.5z M70.2,45.5l0.2,0.3
		C69.8,45.3,69.4,45.1,70.2,45.5z M84.6,59.5c-1.8-1.6-1.1-1.2-1.1-1.4c1.6,1.8,2.6,2.7,3.9,4.3c-0.2-0.3-0.1-0.4-0.1-0.6
		c0.6,0.6,1.1,1.3,1.1,1.7C87.2,63.1,84.1,58.6,84.6,59.5z M9.2,423.2C9.3,423.2,9.3,423.2,9.2,423.2C9.3,423.2,9.2,423.2,9.2,423.2
		C9.2,423.2,9.2,423.2,9.2,423.2z"/>
	<path class="st0" d="M35.1,395.8c0-0.1,0.1-0.1,0.1-0.2C35.1,395.7,35.1,395.8,35.1,395.8z"/>
	<path class="st0" d="M133.7,232.1c0-0.2,0.1-0.4,0.1-0.6C133.8,231.7,133.7,231.9,133.7,232.1z"/>
	<path class="st0" d="M18.1,8.2l0.6,0.3l-1.1-0.9c-2.1-1-2.4-0.8-3-0.8c2,0.8,3,1.5,5.4,2.8L18.1,8.2z"/>
	<path class="st0" d="M19.3,11.5l-1.2-0.9c0.2,0.2,0.6,0.7,0.8,0.9L19.3,11.5z"/>
	<path class="st0" d="M38.9,24.9c-0.7-0.3,1.2,1.5,1.7,1.4L38.9,24.9z"/>
	<path class="st0" d="M34.5,18l-1.1-0.5c0.8,0.7,2,1.5,2.3,1.4C34.4,18.3,35.4,18.6,34.5,18z"/>
	<path class="st0" d="M45.4,29.8c0.8,0.1,1.7,1.4,2.3,1.4C47.1,31,45.7,29.6,45.4,29.8z"/>
	<path class="st0" d="M43.7,23.9c1,0.7,2.1,1.9,2.6,2C46,25.2,44.8,24.8,43.7,23.9z"/>
	<path class="st0" d="M51.9,33.6c1,1,2.5,2.4,2.2,2.5c1,0.4,2.2,0.9,1.4-0.1c-0.3,0.1-1-0.4-1.8-1.1c0.3,0.2,0.6,0.2,1,0.4
		C53.2,34.5,53.1,34.4,51.9,33.6z"/>
	<path class="st0" d="M48.3,27.4l-0.7-0.1c1.1,1.1-0.2-0.7,1.5,0.6c-0.9-0.8-1.3-1.4-2.4-2.2C46.7,26,46.9,26.5,48.3,27.4z"/>
	<path class="st0" d="M59.9,40.7l-0.4-0.6c-1.4-0.8-2.9-2.3-3.9-2.5C57.1,38.8,59.1,40.3,59.9,40.7z"/>
	<path class="st0" d="M53.2,31.5c-0.3-0.3-0.9-0.8-1.2-0.9c1.5,1.1-0.1,0.4,1.3,1.2l0.5-0.2C52.5,30.6,53.7,31.8,53.2,31.5z"/>
	<path class="st0" d="M57.8,34.8l1.8,1.2l-1-1.4C56.6,33.1,58.3,34.7,57.8,34.8z"/>
	<path class="st0" d="M62.6,38.3c-1.6-1-1.7-1.1-3-1.7l0.1,0.2L62.6,38.3z"/>
	<path class="st0" d="M85.3,64.6c0.4,0.1-0.7-1.4-0.3-0.7C84.7,63.8,86.2,65.8,85.3,64.6z"/>
	<path class="st0" d="M86.5,60.2c-0.6-0.5-1.5-1.5-2.3-2.3c-0.8-0.8-1.5-1.4-1.5-1.2C83.3,57.4,85.5,59.4,86.5,60.2z"/>
	<path class="st0" d="M86.5,60.2c0.2,0.2,0.3,0.3,0.4,0.3C86.8,60.5,86.7,60.4,86.5,60.2z"/>
	<path class="st0" d="M119.5,102.5c-0.4-0.8-1.4-2.2-1.7-2.4c0.8,1.1,1.5,2.2,2.5,3.5C119.9,103,119.6,102.3,119.5,102.5z"/>
	<path class="st0" d="M125.2,113.6c-0.4-0.5-0.7-1.4-0.8-1.1C124.5,112.9,125.3,114,125.2,113.6z"/>
	<path class="st0" d="M138,196.8c0-1.3-0.2-0.6-0.2-1.6C137.6,196.5,137.7,197.1,138,196.8z"/>
	<polygon class="st0" points="138,198.3 137.9,198.5 137.6,199.3 	"/>
	<path class="st0" d="M137.1,206.4c0-0.1-0.1-0.3-0.1-0.5C137,206.3,137,206.7,137.1,206.4z"/>
	<path class="st0" d="M137,205c0,0.1,0,0.4,0,0.6c0-0.2,0-0.4,0.1-0.5L137,205z"/>
	<path class="st0" d="M136.7,207.5l0.1,1.3l0.5-1.5C137.3,205.7,137,209.1,136.7,207.5z"/>
	<path class="st0" d="M136.3,214.1c-0.3,1.4,0.1,3.6-0.5,4.4c-0.4,4.2,1-0.8,0.4,3.9c1-4.4-0.5-2.4,0.3-6.3
		C135.9,218,136.3,214.8,136.3,214.1z"/>
	<path class="st0" d="M136.8,215.7c0.1-0.5,0.6-1.4,0.4-2.2C137,213.3,136.7,215.1,136.8,215.7z"/>
	<polygon class="st0" points="134.9,223.4 135,223.8 135.3,222.2 	"/>
	<path class="st0" d="M134.4,227l-0.1-1.3C134.3,226.1,134,227.9,134.4,227z"/>
	<path class="st0" d="M133,233.3l-0.2,0.5c-0.1-0.2-0.6,1.1-0.3-0.4C132.2,234.6,132.6,235.8,133,233.3z"/>
	<path class="st0" d="M129.8,247.2c0,0-0.1,0.5-0.2,1.1c-0.1,0.5-0.3,1.1-0.3,1.1l0.3-0.6C129.9,248.1,130,247.1,129.8,247.2z"/>
	<path class="st0" d="M131.3,249c0.6-0.6,0.5-2,1.1-3.4C131.8,247.2,131.8,247,131.3,249z"/>
	<path class="st0" d="M128.2,251.1c0-0.6,0.4-1.5,0.6-2C128.5,249.3,128.1,250.7,128.2,251.1z"/>
	<path class="st0" d="M126.8,254.7c-0.7,1.4-1.1,3-1.2,3.9c0.3-0.3,0.9-0.7,0.9,0c0.6-2.4,0.3-3.9,1.2-4.8l0-2.2
		c-0.7,1.8,0,1.6-0.5,2.9C126.9,255.1,127.1,254.2,126.8,254.7z"/>
	<path class="st0" d="M130.1,250.1l-0.6,1.2c0.3-0.2,0,0.8-0.1,1.5C130,252.6,129.9,250.8,130.1,250.1z"/>
	<path class="st0" d="M122.6,268.4c0.1-0.5,0.3-0.9,0.3-0.9s-0.2,0.7-0.4,1.3c-0.2,0.7-0.5,1.3-0.5,1.3l0.4-0.8
		C122.3,269.3,122.4,268.8,122.6,268.4z"/>
	<polygon class="st0" points="121.3,271.2 122,269.1 121.9,269.1 	"/>
	<polygon class="st0" points="120.9,271.4 121.4,269.9 120.7,271.7 	"/>
	<path class="st0" d="M119.4,274.8c-0.2,0.6-0.8,2-1.1,2.3l0.4-0.4C118.9,276,119.7,274.8,119.4,274.8z"/>
	<path class="st0" d="M114.3,297.1l-0.1,0.9c0.1-0.2,0.3-0.7,0.5-0.8C114.9,296.7,114.6,296.9,114.3,297.1z"/>
	<path class="st0" d="M112.6,300L112,302c1.2-2.1,1.1-2.6,2-4.5c-0.5,0.7-0.9,2-1.5,2.9L112.6,300z"/>
	<path class="st0" d="M90,335.9c-0.1-0.3-0.4,0.1,0.4-1.3c-1.1,1.9-2.1,3.4-3.6,5.4c0.4-0.2-0.5,1.4,0,0.6c0,0,0.4-0.6,0.7-1.2
		c0.4-0.6,0.7-1.2,0.7-1.2l-0.1,0.5C89.5,337.3,88.7,337.5,90,335.9z"/>
	<path class="st0" d="M15,417.5c-1,1.1,0.4,0,0.6,0C15.6,417.2,15.3,417.3,15,417.5z"/>
	<path class="st0" d="M15.6,417.4C15.5,417.4,15.6,417.4,15.6,417.4C15.6,417.4,15.6,417.4,15.6,417.4z"/>
	<path class="st0" d="M35.3,416.3L35.3,416.3C35.4,416.2,35.3,416.3,35.3,416.3z"/>
	<path class="st0" d="M48.8,415.7C48.8,415.7,48.8,415.7,48.8,415.7c0.1,0,0.2,0,0.3,0L48.8,415.7z"/>
	<path class="st0" d="M28.1,417.7c0,0-0.1,0.1-0.1,0.1C28.1,417.7,28.1,417.7,28.1,417.7z"/>
	<path class="st0" d="M51.3,417.3l-0.1-0.1C51.2,417.2,51.3,417.3,51.3,417.3z"/>
	<path class="st0" d="M54.5,416.9c0,0-0.1,0-0.1,0C54.4,416.9,54.4,417,54.5,416.9z"/>
	<path class="st0" d="M7,376.2l0.3,0.3C7.3,376.3,7.1,376.3,7,376.2z"/>
	<path class="st0" d="M48.7,417.4c-0.1,0.1-0.4,0-0.4,0.1C48.4,417.4,48.6,417.5,48.7,417.4z"/>
	<path class="st0" d="M6.5,376.8C6.5,376.8,6.5,376.7,6.5,376.8c0-0.1,0-0.1,0-0.1L6.5,376.8z"/>
	<path class="st0" d="M12.9,408.1L12.9,408.1C13,408.1,13,408.1,12.9,408.1L12.9,408.1z"/>
	<path class="st0" d="M13.2,407.2c0,0.1,0,0.1,0,0.2C13.2,407.3,13.2,407.2,13.2,407.2z"/>
	<path class="st0" d="M28.8,417.5L28.8,417.5C28.9,417.5,28.9,417.5,28.8,417.5z"/>
	<polygon class="st0" points="23.1,421.7 23.1,421.7 23.1,421.7 	"/>
	<path class="st0" d="M23.1,421.7c0.1,0,0.2-0.1,0.3-0.2C23.3,421.5,23.1,421.6,23.1,421.7z"/>
	<polygon class="st0" points="29.2,420.2 29.2,420.1 29.2,420.2 	"/>
	<polygon class="st0" points="19.1,423.1 19.1,423.1 19.1,423.1 	"/>
	<path class="st0" d="M22.1,422C22.1,422,22.1,422,22.1,422C22.1,422,22.1,422.1,22.1,422L22.1,422z"/>
	<path class="st0" d="M29.4,420.1l-0.2,0c0,0,0,0.1-0.1,0.1L29.4,420.1z"/>
	<path class="st0" d="M19.2,423.2C19.3,423.1,19.2,423.1,19.2,423.2C19.1,423.2,19.1,423.2,19.2,423.2z"/>
	<path class="st0" d="M30.8,419.5c0,0-0.1,0-0.1,0.1C30.8,419.5,30.8,419.5,30.8,419.5z"/>
	<path class="st0" d="M46.2,417.2l-0.2,0c0,0,0,0,0,0L46.2,417.2z"/>
	<path class="st0" d="M47.5,417.4c-0.1,0-0.2,0-0.2,0C47.3,417.4,47.4,417.4,47.5,417.4z"/>
	<path class="st0" d="M38.8,417.7L38.8,417.7C38.7,417.8,38.8,417.8,38.8,417.7z"/>
	<polygon class="st0" points="45.4,417.5 45.4,417.5 45.3,417.5 	"/>
	<path class="st0" d="M48.3,417.4C48.2,417.4,48.2,417.4,48.3,417.4C48.2,417.5,48.2,417.5,48.3,417.4
		C48.3,417.5,48.3,417.4,48.3,417.4z"/>
	<path class="st0" d="M41.6,417.6c0-0.1,0.1-0.1,0.1-0.1C41.6,417.5,41.6,417.5,41.6,417.6z"/>
</g>
</svg>
