<?xml version="1.0" encoding="utf-8"?>
<!-- Generator: Adobe Illustrator 19.2.0, SVG Export Plug-In . SVG Version: 6.00 Build 0)  -->
<svg version="1.1" id="Layer_1" xmlns="http://www.w3.org/2000/svg" xmlns:xlink="http://www.w3.org/1999/xlink" x="0px" y="0px"
	 viewBox="0 0 237.4 100" style="enable-background:new 0 0 237.4 100;" xml:space="preserve">
<style type="text/css">
	.st0{fill:#FFFFFF;}
</style>
<g>
	<g>
		<polygon class="st0" points="217.6,58.6 217.6,79.6 196.7,79.6 		"/>
		<polygon class="st0" points="178.1,40.1 199.2,40.1 178.1,61.2 		"/>
		<polygon class="st0" points="178.1,20.3 237.4,20.3 237.4,79.6 222.6,79.6 222.6,46.6 189.7,79.6 178.1,79.6 178.1,68.1 
			211.1,35.2 178.1,35.2 		"/>
	</g>
	<path class="st0" d="M22.9,21c0.4-0.6,0.7-0.7,1.5-0.7h5.5V47H23V30.5l0,0l-5.6,7.1h-4c-0.6,0-0.9-0.1-1.2-0.5L7,30.5l0,0V47H0
		V20.3h5.8c0.8,0,1,0.1,1.5,0.7l7.8,9.7h0.1L22.9,21z M42.5,20.3h7.2c0.4,0,0.6,0,0.8,0.6L61.1,47h-6.8c-0.4,0-0.7-0.1-0.9-0.6
		L52,42.5H41.2L40,46.4c-0.2,0.5-0.4,0.6-0.8,0.6h-6.6L42.5,20.3z M46.3,27.1c-0.3,1.4-1.1,3.9-2.4,7.6L43.2,37h6.5l-0.8-2.2
		C47.4,30.8,46.7,28.6,46.3,27.1L46.3,27.1z M63.7,47V20.3h9.8c5.5,0,9.8,1.2,12.5,4c2.2,2.2,3.4,5.3,3.4,9.4s-1.3,7.2-3.4,9.3
		c-2.8,2.8-7.1,4-12.5,4L63.7,47L63.7,47z M73.3,40.9c3.1,0,5.3-0.4,6.7-1.6c1.3-1.1,2-2.8,2-5.6s-0.7-4.5-2-5.6
		c-1.4-1.3-3.6-1.6-6.7-1.6h-2.4v14.4H73.3z M114.1,20.3v5.9h-13.6v4.4h12.4v5.8h-12.4v4.7h14V47H93.4V20.3H114.1z M135.8,47h-7.2
		V20.3h7.2V47z M148.1,20.3c0.6,0,0.9,0.1,1.3,0.5l7.7,9.6c1.9,2.3,3.7,4.7,4.4,5.7l0,0V20.3h6.7V47h-5.1c-0.6,0-0.9-0.1-1.3-0.5
		l-7.8-9.7c-1.7-2.1-3.7-4.6-4.4-5.7l0,0V47h-6.7V20.3H148.1z M0,52.9h12.5c3.9,0,6.1,0.6,7.7,2.2c1.2,1.2,1.8,2.9,1.8,4.7
		c0,2.2-1.1,4.1-2.4,5.5c2.4,1.1,4.1,3.2,4.1,6.3c0,2.4-0.8,4.4-2.2,5.6c-1.8,1.7-4.7,2.5-8.6,2.5H0V52.9z M13.5,63.7
		c0.4,0,0.8-0.1,1.1-0.4c0.3-0.4,0.4-1.4,0.4-2.1c0-0.8-0.2-1.3-0.5-1.7c-0.4-0.4-1.2-0.5-2.2-0.5H7.2v4.8L13.5,63.7L13.5,63.7z
		 M7.2,73.8h6.3c1.2,0,2-0.2,2.4-0.6c0.4-0.4,0.6-1.1,0.6-2c0-0.8-0.2-1.3-0.5-1.7c-0.4-0.4-1.2-0.6-2.4-0.6H7.2V73.8z M36.7,79.7
		h-7.2V52.9h11.6c4.5,0,7.4,0.7,9.2,2.5c1.4,1.4,2.3,3.6,2.3,6.3c0,3.8-2,6.7-4.4,8.2l6,9.7h-7.2c-0.6,0-0.8-0.1-1.2-0.7L42,72
		c-0.4-0.7-0.5-0.8-1.3-0.8h-4V79.7z M43.5,65.5c0.7,0,1.1-0.1,1.4-0.7c0.4-0.7,0.6-2,0.6-2.8c0-1-0.4-2-0.8-2.4
		c-0.6-0.6-1.6-0.8-3.4-0.8h-4.6v6.6L43.5,65.5L43.5,65.5z M66.7,79.7h-7.2V52.9h7.2V79.7z M80.1,58.8h-9v-5.9h25.1v5.9h-9v20.8
		h-7.2V58.8z M105.6,52.9h7.2c0.4,0,0.6,0,0.8,0.6l10.7,26.1h-6.9c-0.4,0-0.7-0.1-0.9-0.6l-1.4-3.9h-10.7l-1.3,3.9
		c-0.2,0.5-0.4,0.6-0.8,0.6h-6.6L105.6,52.9z M109.5,59.7c-0.3,1.4-1.1,3.9-2.4,7.6l-0.7,2.2h6.5l-0.8-2.2
		C110.6,63.4,109.8,61.2,109.5,59.7L109.5,59.7z M135.8,79.7h-7.2V52.9h7.2V79.7z M148.1,52.9c0.6,0,0.9,0.1,1.3,0.5l7.7,9.6
		c1.9,2.3,3.7,4.7,4.4,5.7l0,0V52.9h6.7v26.7h-5.1c-0.6,0-0.9-0.1-1.3-0.5l-7.7-9.6c-1.7-2.1-3.7-4.6-4.4-5.7l0,0v15.9H143V52.9
		H148.1z"/>
</g>
</svg>
