<?xml version="1.0" encoding="utf-8"?>
<!-- Generator: Adobe Illustrator 19.2.0, SVG Export Plug-In . SVG Version: 6.00 Build 0)  -->
<svg version="1.1" id="Layer_1" xmlns="http://www.w3.org/2000/svg" xmlns:xlink="http://www.w3.org/1999/xlink" x="0px" y="0px"
	 viewBox="0 0 355.6 100" style="enable-background:new 0 0 355.6 100;" xml:space="preserve">
<style type="text/css">
	.st0{fill:#FFFFFF;}
</style>
<g>
	<g>
		<path class="st0" d="M82.3,32.3c0,0.4,0,0.7-0.1,1c0,0.3-0.1,0.5-0.2,0.7c-0.1,0.2-0.2,0.3-0.3,0.4c-0.1,0.1-0.3,0.1-0.5,0.1H70
			v34.6c0,0.2,0,0.3-0.1,0.4c-0.1,0.1-0.2,0.2-0.4,0.3c-0.2,0.1-0.5,0.1-0.8,0.2c-0.3,0-0.8,0.1-1.3,0.1s-0.9,0-1.3-0.1
			s-0.6-0.1-0.8-0.2c-0.2-0.1-0.3-0.2-0.4-0.3s-0.1-0.3-0.1-0.4V34.5H53.5c-0.2,0-0.3,0-0.4-0.1c-0.1-0.1-0.2-0.2-0.3-0.4
			s-0.2-0.4-0.2-0.7s-0.1-0.6-0.1-1c0-0.4,0-0.7,0.1-1c0.1-0.3,0.1-0.5,0.2-0.7c0.1-0.2,0.2-0.3,0.3-0.4c0.1-0.2,0.2-0.2,0.4-0.2
			h27.7c0.2,0,0.3,0,0.5,0.1c0.1,0.1,0.2,0.2,0.3,0.4c0.1,0.2,0.2,0.4,0.2,0.7S82.3,31.9,82.3,32.3z"/>
		<path class="st0" d="M116.3,69.1c0,0.2,0,0.3-0.1,0.4c-0.1,0.1-0.2,0.2-0.4,0.3c-0.2,0.1-0.5,0.1-0.9,0.2c-0.4,0-0.9,0.1-1.5,0.1
			c-0.5,0-1,0-1.3-0.1c-0.3,0-0.6-0.1-0.8-0.2c-0.2-0.1-0.4-0.2-0.5-0.4c-0.1-0.2-0.2-0.4-0.3-0.6l-3.7-9.4
			c-0.4-1.1-0.9-2.1-1.3-2.9c-0.5-0.9-1-1.7-1.7-2.3c-0.6-0.6-1.4-1.2-2.2-1.5c-0.9-0.4-1.9-0.5-3.1-0.5H95v17c0,0.2,0,0.3-0.1,0.4
			s-0.2,0.2-0.4,0.3C94.3,70,94,70,93.7,70.1c-0.3,0-0.8,0.1-1.3,0.1s-0.9,0-1.3-0.1c-0.3-0.1-0.6-0.1-0.8-0.2
			c-0.2-0.1-0.3-0.2-0.4-0.3s-0.1-0.3-0.1-0.4v-37c0-0.8,0.2-1.4,0.6-1.7c0.3-0.3,0.8-0.5,1.3-0.5h8.5c1,0,1.8,0,2.5,0.1
			c0.7,0,1.3,0.1,1.8,0.2c1.5,0.3,2.9,0.7,4.1,1.3c1.2,0.6,2.2,1.3,3,2.2c0.8,0.9,1.4,1.9,1.8,3c0.4,1.1,0.6,2.4,0.6,3.8
			c0,1.3-0.2,2.5-0.5,3.6c-0.4,1.1-0.9,2-1.6,2.8s-1.5,1.5-2.4,2.1c-0.9,0.6-2,1.1-3.2,1.5c0.7,0.3,1.3,0.7,1.8,1.1
			c0.5,0.4,1,1,1.5,1.6c0.5,0.6,0.9,1.3,1.3,2.1c0.4,0.8,0.8,1.7,1.2,2.7l3.6,8.8c0.3,0.7,0.5,1.3,0.6,1.6
			C116.2,68.7,116.3,68.9,116.3,69.1z M108.3,41.1c0-1.6-0.3-2.9-1-4c-0.7-1.1-1.9-1.9-3.5-2.3c-0.5-0.1-1.1-0.2-1.7-0.3
			c-0.6-0.1-1.5-0.1-2.5-0.1H95v13.4h5.2c1.4,0,2.6-0.2,3.6-0.5s1.9-0.8,2.5-1.4c0.7-0.6,1.2-1.3,1.5-2.1
			C108.1,42.9,108.3,42,108.3,41.1z"/>
		<path class="st0" d="M151.8,54.9c0,2.4-0.3,4.5-1,6.4s-1.7,3.5-3,4.8c-1.3,1.3-2.9,2.3-4.7,2.9c-1.9,0.7-4,1-6.3,1
			c-2.2,0-4.1-0.3-5.9-0.9c-1.8-0.6-3.3-1.6-4.6-2.8c-1.3-1.2-2.3-2.8-2.9-4.6c-0.7-1.8-1-4-1-6.4V31c0-0.2,0-0.3,0.1-0.4
			s0.2-0.2,0.4-0.3c0.2-0.1,0.5-0.1,0.8-0.2s0.7-0.1,1.3-0.1c0.5,0,0.9,0,1.2,0.1c0.3,0,0.6,0.1,0.8,0.2c0.2,0.1,0.3,0.2,0.4,0.3
			s0.1,0.3,0.1,0.4v23.7c0,1.8,0.2,3.4,0.7,4.8c0.4,1.4,1.1,2.5,1.9,3.4c0.8,0.9,1.9,1.6,3,2c1.2,0.5,2.5,0.7,4,0.7s2.9-0.2,4-0.7
			c1.2-0.4,2.2-1.1,3-2s1.4-2,1.9-3.3c0.4-1.3,0.7-2.8,0.7-4.6V31c0-0.2,0-0.3,0.1-0.4s0.2-0.2,0.4-0.3s0.5-0.1,0.8-0.2
			s0.8-0.1,1.3-0.1s0.9,0,1.2,0.1c0.3,0,0.6,0.1,0.8,0.2s0.3,0.2,0.4,0.3c0.1,0.1,0.1,0.3,0.1,0.4V54.9z"/>
		<path class="st0" d="M181.7,58.6c0,1.8-0.3,3.5-1,4.9s-1.6,2.6-2.8,3.6s-2.6,1.7-4.2,2.2c-1.6,0.5-3.4,0.8-5.2,0.8
			c-1.3,0-2.5-0.1-3.6-0.3c-1.1-0.2-2.1-0.5-3-0.8c-0.9-0.3-1.6-0.7-2.2-1c-0.6-0.3-1-0.6-1.2-0.9c-0.2-0.2-0.4-0.5-0.5-0.9
			s-0.2-0.9-0.2-1.5c0-0.4,0-0.8,0.1-1.1c0-0.3,0.1-0.5,0.2-0.7c0.1-0.2,0.2-0.3,0.3-0.4c0.1-0.1,0.3-0.1,0.4-0.1
			c0.3,0,0.7,0.2,1.2,0.5s1.2,0.7,2,1.1s1.8,0.8,2.9,1.1c1.1,0.4,2.4,0.5,3.9,0.5c1.1,0,2.2-0.1,3.1-0.5c0.9-0.3,1.7-0.7,2.4-1.3
			s1.2-1.2,1.5-2c0.4-0.8,0.5-1.7,0.5-2.7c0-1.1-0.3-2.1-0.7-2.8c-0.5-0.8-1.2-1.5-2-2.1c-0.8-0.6-1.8-1.1-2.8-1.6s-2.1-1-3.2-1.5
			c-1.1-0.5-2.2-1.1-3.2-1.7c-1-0.6-2-1.4-2.8-2.2s-1.5-1.8-2-3c-0.5-1.1-0.8-2.5-0.8-4.1c0-1.6,0.3-3.1,0.9-4.3
			c0.6-1.3,1.4-2.3,2.5-3.2c1.1-0.9,2.3-1.5,3.8-2c1.4-0.5,3-0.7,4.7-0.7c0.9,0,1.7,0.1,2.6,0.2c0.9,0.2,1.7,0.4,2.5,0.6
			c0.8,0.3,1.5,0.5,2.1,0.8c0.6,0.3,1,0.6,1.2,0.8s0.3,0.3,0.4,0.4c0.1,0.1,0.1,0.3,0.2,0.4c0,0.2,0.1,0.4,0.1,0.6
			c0,0.2,0,0.5,0,0.9c0,0.4,0,0.7,0,1s-0.1,0.5-0.1,0.7c-0.1,0.2-0.1,0.3-0.3,0.4c-0.1,0.1-0.2,0.1-0.4,0.1s-0.6-0.1-1-0.4
			c-0.5-0.3-1-0.6-1.7-0.9c-0.7-0.4-1.5-0.7-2.4-1c-0.9-0.3-2-0.4-3.1-0.4s-2,0.1-2.8,0.4c-0.8,0.3-1.5,0.7-2,1.2s-0.9,1.1-1.2,1.7
			c-0.7,0.9-0.8,1.6-0.8,2.3c0,1.1,0.3,2,0.8,2.8c0.5,0.8,1.2,1.5,2,2.1c0.8,0.6,1.8,1.2,2.8,1.7c1.1,0.5,2.1,1,3.2,1.5
			c1.1,0.5,2.2,1.1,3.2,1.7c1.1,0.6,2,1.3,2.8,2.2c0.8,0.8,1.5,1.8,2,3C181.5,55.7,181.7,57,181.7,58.6z"/>
		<path class="st0" d="M214.7,32.3c0,0.4,0,0.7-0.1,1c0,0.3-0.1,0.5-0.2,0.7c-0.1,0.2-0.2,0.3-0.3,0.4c-0.1,0.1-0.3,0.1-0.4,0.1
			h-11.2V69c0,0.2,0,0.3-0.1,0.4c-0.1,0.1-0.2,0.2-0.4,0.3s-0.5,0.1-0.8,0.2c-0.3,0.1-0.8,0.1-1.3,0.1s-0.9,0-1.3-0.1
			c-0.4,0-0.6-0.1-0.8-0.2c-0.2-0.1-0.3-0.2-0.4-0.3c-0.1-0.1-0.1-0.3-0.1-0.4V34.5h-11.2c-0.2,0-0.3,0-0.4-0.1
			c-0.1-0.1-0.2-0.2-0.3-0.4s-0.1-0.4-0.2-0.7c0-0.3-0.1-0.6-0.1-1c0-0.4,0-0.7,0.1-1c0.1-0.3,0.1-0.5,0.2-0.7
			c0.1-0.2,0.2-0.3,0.3-0.4s0.3-0.1,0.4-0.1h27.7c0.2,0,0.3,0,0.4,0.1c0.1,0.1,0.3,0.2,0.3,0.4c0.1,0.2,0.2,0.4,0.2,0.7
			C214.6,31.5,214.7,31.9,214.7,32.3z"/>
		<path class="st0" d="M245.5,41.7c0,2-0.3,3.8-1,5.4c-0.7,1.6-1.6,3-2.8,4.1c-1.2,1.1-2.7,2-4.5,2.6c-1.8,0.6-3.9,0.9-6.4,0.9h-4.5
			v14.4c0,0.2-0.1,0.3-0.1,0.4c-0.1,0.1-0.2,0.2-0.4,0.3s-0.5,0.1-0.8,0.2c-0.3,0-0.8,0.1-1.3,0.1s-0.9,0-1.3-0.1
			c-0.3-0.1-0.6-0.1-0.8-0.2c-0.2-0.1-0.3-0.2-0.4-0.3c-0.1-0.1-0.1-0.3-0.1-0.4V32.3c0-0.8,0.2-1.4,0.6-1.8
			c0.4-0.3,0.9-0.5,1.5-0.5h8.5c0.9,0,1.7,0,2.5,0.1s1.7,0.2,2.8,0.5c1.1,0.2,2.2,0.7,3.3,1.3s2.1,1.4,2.8,2.4
			c0.8,0.9,1.4,2,1.8,3.3C245.3,38.8,245.5,40.2,245.5,41.7z M239.9,42.1c0-1.6-0.3-3-0.9-4.1c-0.6-1.1-1.4-1.9-2.2-2.4
			c-0.9-0.5-1.8-0.9-2.8-1s-1.9-0.2-2.8-0.2h-4.9v16h4.8c1.6,0,2.9-0.2,4-0.6c1.1-0.4,1.9-1,2.7-1.7c0.7-0.7,1.3-1.6,1.6-2.6
			C239.7,44.4,239.9,43.3,239.9,42.1z"/>
		<path class="st0" d="M258,69.1c0,0.2,0,0.3-0.1,0.4c-0.1,0.1-0.2,0.2-0.4,0.3c-0.2,0.1-0.5,0.1-0.8,0.2c-0.3,0.1-0.8,0.1-1.3,0.1
			s-0.9,0-1.3-0.1c-0.3-0.1-0.6-0.1-0.8-0.2c-0.2-0.1-0.3-0.2-0.4-0.3c-0.1-0.1-0.1-0.3-0.1-0.4V31c0-0.2,0-0.3,0.1-0.4
			s0.2-0.2,0.5-0.3c0.2-0.1,0.5-0.1,0.8-0.2c0.3,0,0.7-0.1,1.2-0.1s0.9,0,1.3,0.1c0.3,0,0.6,0.1,0.8,0.2c0.2,0.1,0.3,0.2,0.4,0.3
			s0.1,0.2,0.1,0.4V69.1z"/>
		<path class="st0" d="M288.5,67.8c0,0.4,0,0.8-0.1,1c0,0.3-0.1,0.5-0.2,0.7c-0.1,0.2-0.2,0.3-0.3,0.4c-0.1,0.1-0.3,0.1-0.5,0.1
			h-17.6c-0.5,0-0.9-0.2-1.3-0.5c-0.4-0.3-0.6-0.9-0.6-1.7V31c0-0.2,0-0.3,0.1-0.4s0.2-0.2,0.4-0.3c0.2-0.1,0.5-0.1,0.8-0.2
			c0.3,0,0.8-0.1,1.3-0.1s0.9,0,1.3,0.1c0.3,0.1,0.6,0.1,0.8,0.2c0.2,0.1,0.3,0.2,0.4,0.3s0.1,0.3,0.1,0.4v34.5h14.3
			c0.2,0,0.3,0,0.5,0.1c0.1,0.1,0.2,0.2,0.3,0.4c0.1,0.2,0.2,0.4,0.2,0.7C288.5,67,288.5,67.4,288.5,67.8z"/>
		<path class="st0" d="M324.6,49.5c0,3.1-0.4,6-1.1,8.5s-1.8,4.7-3.3,6.4c-1.5,1.8-3.3,3.1-5.5,4.1s-4.8,1.4-7.8,1.4
			c-2.9,0-5.4-0.4-7.6-1.3c-2.1-0.9-3.9-2.1-5.3-3.8c-1.4-1.7-2.4-3.7-3.1-6.2s-1-5.3-1-8.5c0-3.1,0.4-5.8,1.1-8.3s1.9-4.6,3.3-6.4
			c1.5-1.8,3.3-3.1,5.6-4c2.2-0.9,4.8-1.4,7.8-1.4c2.9,0,5.4,0.4,7.5,1.3s3.9,2.1,5.3,3.8c1.4,1.7,2.5,3.7,3.1,6.1
			C324.3,43.6,324.6,46.4,324.6,49.5z M319.1,49.9c0-2.2-0.2-4.2-0.6-6.1c-0.4-1.9-1-3.5-2-4.9c-0.9-1.4-2.1-2.5-3.6-3.3
			s-3.4-1.2-5.6-1.2s-4.1,0.4-5.6,1.3c-1.5,0.8-2.8,2-3.7,3.4c-1,1.4-1.6,3-2,4.9c-0.4,1.9-0.6,3.8-0.6,5.9c0,2.3,0.2,4.4,0.6,6.3
			c0.4,1.9,1,3.6,1.9,5s2.1,2.5,3.6,3.2c1.5,0.8,3.4,1.2,5.7,1.2c2.3,0,4.2-0.4,5.7-1.3c1.5-0.8,2.8-2,3.7-3.4c0.9-1.4,1.6-3.1,2-5
			C318.9,54,319.1,52,319.1,49.9z"/>
		<path class="st0" d="M355.6,32.3c0,0.4,0,0.7-0.1,1c0,0.3-0.1,0.5-0.2,0.7c-0.1,0.2-0.2,0.3-0.3,0.4c-0.1,0.1-0.3,0.1-0.4,0.1
			h-11.2v34.6c0,0.2,0,0.3-0.1,0.4c-0.1,0.1-0.2,0.2-0.4,0.3c-0.2,0.1-0.5,0.1-0.8,0.2c-0.3,0-0.8,0.1-1.3,0.1s-0.9,0-1.3-0.1
			c-0.3-0.1-0.6-0.1-0.8-0.2c-0.2-0.1-0.3-0.2-0.4-0.3s-0.1-0.3-0.1-0.4V34.5H327c-0.2,0-0.3,0-0.4-0.1c-0.1-0.1-0.2-0.2-0.3-0.4
			c-0.1-0.2-0.1-0.4-0.2-0.7s-0.1-0.6-0.1-1c0-0.4,0-0.7,0.1-1c0.1-0.3,0.1-0.5,0.2-0.7c0.1-0.2,0.2-0.3,0.3-0.4
			c0.1-0.1,0.3-0.1,0.4-0.1h27.7c0.2,0,0.3,0,0.4,0.1s0.2,0.2,0.3,0.4c0.1,0.2,0.2,0.4,0.2,0.7C355.5,31.5,355.6,31.9,355.6,32.3z"
			/>
	</g>
	<g>
		<path class="st0" d="M0,30v17.7c0,0,13.4,6.4,20.2,17.8c0,0,3-25.2,19.8-35.4L0,30z"/>
		<path class="st0" d="M0,62.2V70h18C18,70.1,11.1,62.8,0,62.2z M22.8,70.1H40V47.2C30.3,49.9,22.8,70.1,22.8,70.1z"/>
	</g>
</g>
</svg>
