<?xml version="1.0" encoding="utf-8"?>
<!-- Generator: Adobe Illustrator 19.2.0, SVG Export Plug-In . SVG Version: 6.00 Build 0)  -->
<svg version="1.1" id="Check" xmlns="http://www.w3.org/2000/svg" xmlns:xlink="http://www.w3.org/1999/xlink" x="0px" y="0px"
	 viewBox="0 0 20 20" style="enable-background:new 0 0 20 20;" xml:space="preserve">
<style type="text/css">
	.st0{fill-rule:evenodd;clip-rule:evenodd;fill:#b3bcbc;}
</style>
<path class="st0" d="M20,13c0,0.5-0.3,0.7-0.9,0.7H18v-0.5h1.1c0.1,0,0.2,0,0.2-0.1c0,0,0.1-0.1,0.1-0.1c0-0.1,0-0.1-0.1-0.2
	c0,0-0.1-0.1-0.2-0.1c-0.5,0-1.2,0-1.2-0.7c0-0.3,0.2-0.7,0.8-0.7h1.1v0.5h-1c-0.1,0-0.2,0-0.2,0c-0.1,0.1-0.1,0.1-0.1,0.2
	c0,0.1,0.1,0.1,0.1,0.2c0.1,0,0.1,0,0.2,0h0.3c0.3,0,0.5,0.1,0.7,0.2C19.9,12.6,20,12.7,20,13 M17.7,12.5c-0.1-0.1-0.3-0.2-0.7-0.2
	h-0.3c-0.1,0-0.1,0-0.2,0c-0.1,0-0.1-0.1-0.1-0.2c0-0.1,0-0.1,0.1-0.2c0,0,0.1,0,0.2,0h1v-0.5h-1.1c-0.6,0-0.8,0.4-0.8,0.7
	c0,0.7,0.7,0.7,1.2,0.7c0.1,0,0.2,0,0.2,0.1c0,0,0.1,0.1,0.1,0.2c0,0.1,0,0.1-0.1,0.1c-0.1,0-0.1,0.1-0.2,0.1h-1.1v0.5h1.1
	c0.6,0,0.9-0.2,0.9-0.7C17.8,12.7,17.7,12.6,17.7,12.5 M15.5,13.2h-1.3v-0.5h1.3v-0.5h-1.3v-0.4h1.3v-0.5h-1.9v2.3h1.9V13.2z
	 M13.1,11.5c-0.2-0.1-0.4-0.1-0.7-0.1h-1.3v2.3h0.6v-0.9h0.6c0.2,0,0.3,0,0.4,0.1c0.1,0.1,0.1,0.3,0.1,0.5v0.3h0.6v-0.5
	c0-0.2,0-0.3-0.1-0.4c-0.1-0.1-0.1-0.2-0.3-0.2c0.2-0.1,0.4-0.3,0.4-0.6C13.3,11.7,13.2,11.6,13.1,11.5 M9.9,11.4H8.1l-0.7,0.8
	l-0.7-0.8H4.5v2.3h2.2l0.7-0.8l0.7,0.8h1.1v-0.8h0.7c0.5,0,1-0.1,1-0.8C10.8,11.5,10.3,11.4,9.9,11.4 M12.6,12.3c-0.1,0-0.2,0-0.3,0
	l-0.7,0v-0.5h0.7c0.1,0,0.2,0,0.3,0c0.1,0,0.1,0.1,0.1,0.2C12.7,12.2,12.7,12.3,12.6,12.3 M9.9,12.4H9.2v-0.6h0.7
	c0.2,0,0.3,0.1,0.3,0.3C10.2,12.3,10.1,12.4,9.9,12.4 M7.7,12.5l0.9-0.9v1.9L7.7,12.5z M6.4,13.2H5v-0.5h1.2v-0.5H5v-0.4h1.4L7,12.5
	L6.4,13.2z M18.5,9.7h-0.8l-1.1-1.8v1.8h-1.1l-0.2-0.5h-1.2l-0.2,0.5h-0.7c-0.3,0-0.6-0.1-0.8-0.3c-0.2-0.2-0.3-0.5-0.3-0.9
	c0-0.3,0.1-0.7,0.3-0.9c0.2-0.2,0.5-0.3,0.9-0.3h0.5v0.5h-0.5c-0.2,0-0.3,0-0.4,0.1c-0.1,0.1-0.1,0.3-0.1,0.5c0,0.3,0,0.4,0.1,0.6
	c0.1,0.1,0.2,0.1,0.4,0.1h0.3l0.8-1.8h0.8L16,9.5V7.3h0.9l1,1.6V7.3h0.6V9.7z M11.8,7.3h-0.6v2.3h0.6V7.3z M10.7,7.4
	c-0.2-0.1-0.4-0.1-0.7-0.1H8.7v2.3h0.5V8.8h0.6c0.2,0,0.3,0,0.4,0.1c0.1,0.1,0.1,0.3,0.1,0.5v0.3h0.6V9.2c0-0.2,0-0.3-0.1-0.4
	c-0.1-0.1-0.1-0.1-0.3-0.2C10.7,8.5,11,8.3,11,8C11,7.7,10.8,7.5,10.7,7.4 M8.3,9.2H7V8.7h1.3V8.2H7V7.8h1.3V7.3H6.4v2.3h1.9V9.2z
	 M6,7.3H5.1L4.4,8.9L3.7,7.3H2.8v2.2l-1-2.2H1L0,9.7h0.6l0.2-0.5H2l0.2,0.5h1.1V7.8l0.8,1.8h0.5l0.8-1.8v1.8H6V7.3z M15.1,8.7
	l-0.4-0.9l-0.4,0.9H15.1z M10.2,8.3c-0.1,0.1-0.2,0.1-0.3,0.1H9.3V7.8h0.7c0.1,0,0.2,0,0.3,0c0.1,0,0.1,0.1,0.1,0.2
	C10.3,8.2,10.3,8.3,10.2,8.3 M1,8.7l0.4-0.9l0.4,0.9H1z M19.9,0H0v8.4l0.7-1.6h1.5l0.2,0.4V6.9H4l0.4,0.8l0.4-0.8h5.4
	c0.3,0,0.5,0,0.6,0.2V6.9h1.5v0.2c0.2-0.1,0.6-0.2,0.9-0.2h2.1l0.2,0.4V6.9h1.6l0.2,0.4V6.9h1.5v3.3h-1.6l-0.3-0.5v0.5h-1.9
	l-0.2-0.5h-0.5l-0.2,0.5h-1c-0.4,0-0.7-0.1-0.9-0.2v0.2H9.9V9.4c0-0.1,0-0.1-0.1-0.1H9.7v0.9H5.1V9.7l-0.2,0.4h-1L3.7,9.7v0.4H1.9
	L1.7,9.6H1.2L1,10.1H0V20h19.9v-6c-0.2,0.1-0.5,0.1-0.8,0.1h-1.5V14c-0.2,0.1-0.5,0.2-0.7,0.2h-4.6v-0.7c0-0.1,0-0.1-0.1-0.1h-0.1
	v0.9h-1.5v-0.9c-0.3,0.1-0.5,0.1-0.8,0.1H9.7v0.8H7.8l-0.4-0.5l-0.5,0.5H4v-3.3h3l0.4,0.5l0.5-0.5h2c0.2,0,0.6,0,0.8,0.2v-0.2h1.8
	c0.2,0,0.5,0,0.8,0.2v-0.2h2.7v0.2c0.2-0.1,0.4-0.2,0.7-0.2h1.5v0.2c0.2-0.1,0.4-0.2,0.7-0.2h1V0z"/>
</svg>
