<?xml version="1.0" encoding="utf-8"?>
<!-- Generator: Adobe Illustrator 19.2.0, SVG Export Plug-In . SVG Version: 6.00 Build 0)  -->
<svg version="1.1" id="Layer_1" xmlns="http://www.w3.org/2000/svg" xmlns:xlink="http://www.w3.org/1999/xlink" x="0px" y="0px"
	 viewBox="0 0 180 68" style="enable-background:new 0 0 180 68;" xml:space="preserve">
<path d="M0,38.8h4.2c2.4,0,4.7,0.9,4.7,5.2v3.9c0,2-0.5,3.8-2,4.6C8.3,53,9,54.3,9,56.7v5.6c0,4.2-2.3,5.4-4.9,5.4H0V38.8z
	 M3.9,51.3c1.1,0,1.9-0.7,1.9-2.3v-5c0-1.7-0.6-2.6-1.8-2.6H3.1v9.9H3.9z M4.2,65.1c1.1,0,1.7-0.9,1.7-2.7v-6.4
	c0-1.6-0.8-2.4-1.9-2.4H3.1v11.4H4.2z M17,63.5l-0.1-6.7c0-1.7-0.9-2.4-2.1-2.4h-0.5v13.4h-3.1v-29h4.1c2.5,0,4.9,1,4.9,5.2v4.3
	c0,2.3-0.6,4.1-2.4,4.8c1.6,0.5,2.2,2,2.3,4.1l0.1,6.6c0,2.1,0.3,3.7,0.4,4h-3.1C17.1,67,17,65,17,63.5z M15.2,51.8
	c1,0,1.8-0.8,1.8-2.6v-5.3c0-1.7-0.6-2.5-1.8-2.5h-1v10.4H15.2z M22,67.8v-29h3.1v29H22z M29.4,67.8V41.4h-3v-2.7h9.1v2.7h-3v26.3
	H29.4z M37.4,67.8v-29h3.1v29H37.4z M48.5,48.5V43c0-1.1-0.4-1.9-1.3-1.9c-0.9,0-1.3,0.7-1.3,1.7v3.4c0,2.1,0.8,3.5,1.7,4.7l1.8,2.4
	c1.4,1.8,2.3,3.7,2.3,7.2v2.7c0,3.1-1.9,4.8-4.5,4.8s-4.4-1.6-4.4-4.6v-6h2.9v6.1c0,1.1,0.5,1.8,1.4,1.8c0.9,0,1.4-0.7,1.4-1.8v-3.5
	c0-1.7-0.5-3.4-1.6-4.7l-1.6-2c-1.7-2.1-2.6-4.1-2.6-7.2v-3c0-3.1,2-4.6,4.4-4.6c2.6,0,4.2,1.6,4.2,4.6v5.4H48.5z M57.2,67.8h-3.1
	v-29h3.1v12.4H60V38.8h3.1v29H60V53.9h-2.8V67.8z M71.2,67.8h-5.3V14.3h8.1l3.9,35.8l3.9-35.8h8.1v53.5h-5.3V52.1
	c0-7,0.1-12.1,0.4-21.9l-4.6,37.7h-5l-4.6-37.7c0.3,9.9,0.4,14.9,0.4,21.9V67.8z M92.7,14.3h15v4.9h-9.3v16.9h6.3v5h-6.3v21.9h9.4
	v4.9H92.7V14.3z M122.4,67.8l-0.9-10.6h-4.9l-1,10.6h-5.3l5.3-53.5h7.4l5.1,53.5H122.4z M117,52.7h4.1l-1.9-23.6L117,52.7z
	 M132.1,67.8V19.2h-5.5v-4.9h16.7v4.9h-5.5v48.6H132.1z M161.9,41.7v8.9c0,5.7-3.2,8.6-7.8,8.6c-4.7,0-8.1-2.9-8.1-8.6V23
	c0-5.7,3.4-8.6,8.1-8.6c4.6,0,7.8,2.9,7.8,8.6v7.8h-5.2v-8.3c0-1.9-0.7-3.4-2.5-3.4c-1.9,0-2.5,1.6-2.5,3.4v28.6
	c0,1.9,0.6,3.4,2.5,3.4c1.8,0,2.5-1.6,2.5-3.4v-9.4H161.9z M163.7,50.7V23c0-5.7,3.5-8.6,8.1-8.6c4.7,0,8.1,2.9,8.1,8.6v27.7
	c0,5.7-3.5,8.6-8.1,8.6C167.2,59.3,163.7,56.4,163.7,50.7z M174.3,51.1V22.5c0-1.9-0.6-3.4-2.5-3.4c-1.9,0-2.5,1.6-2.5,3.4v28.6
	c0,1.9,0.6,3.4,2.5,3.4C173.7,54.5,174.3,53,174.3,51.1z M146,61.3h34v6.5h-34V61.3z M33.8,12.4C33.8,12.4,33.8,12.4,33.8,12.4
	C33.8,12.4,33.8,12.4,33.8,12.4L33.8,12.4z M63.6,3.5C63.3,3.3,63,3,62.8,2.7c-0.1-0.1-0.2-0.3-0.2-0.4c0-0.4-0.3-0.7-0.8-1
	c0.1-0.1,0.1-0.2-0.1-0.3c0.7-0.4,0.9-0.7,0.8-1c-0.3,0.3-0.6,0.5-1.1,0.7c-0.1-0.1-0.3-0.1-0.4,0c0.1-0.2,0.2-0.3,0.2-0.5
	c-0.2,0.2-0.4,0.4-0.7,0.6c-0.2,0.1-0.4,0.2-0.2,0.5c-0.5,0.7-1.3,0.8-2.1,0.9c-0.3,0-0.6,0-0.9-0.1c-0.5,0-1,0-1.5,0.1
	c-0.7,0.1-1.4,0.2-2.2,0.2c-1.4,0-2.9,0-4.1-0.1C49,2.1,48.5,2,47.8,1.8c-0.2,0-0.4-0.1-0.6,0c-0.2,0-0.4,0-0.5,0
	c-0.4,0-0.6,0-1,0.1C45.3,2,45,2.2,44.8,2.6c-0.2,0.5-0.1,1-0.1,1.6c0.1,1.1,0.1,2.3,0,3.4c-0.1,0.3-0.1,0.7,0,1.1
	c-0.1,0.1-0.1,0.2-0.1,0.4c0,0.3,0.1,0.6,0.2,1c0.1,0.7,0.1,1.3,0.1,2c-0.1,0.1-0.1,0.2-0.2,0.3c0.1,0.1,0.1,0.2,0,0.3
	c0,0,0-0.1,0-0.1c0,0,0-0.1-0.1-0.1c0,0-0.1,0-0.1,0c0,0,0,0.1,0,0.1c0,0,0,0.1,0,0.1c-0.1-0.1-0.2-0.1-0.3-0.2
	c0.1,0,0.1-0.1,0.2-0.2c-0.1-0.1-0.1-0.2-0.2-0.2c0,0-0.1,0-0.2,0c-0.3,0.2-0.7,0.3-1,0.5c0,0,0,0-0.1,0c0-0.2,0-0.3,0-0.5
	c0,0,0,0,0,0c0,0.1,0,0.3-0.1,0.4c0,0,0,0,0,0c0-0.1-0.1-0.2-0.1-0.4c0,0,0,0,0,0c0,0.1,0,0.2,0,0.3c0,0.1,0,0.2-0.1,0.2
	c-0.1,0-0.1,0-0.2,0c0-0.1,0.1-0.1,0.1-0.2c0,0,0,0,0,0c-0.1,0.1-0.1,0.3-0.2,0.4c0,0,0,0-0.1,0c0-0.2,0-0.4,0.1-0.6
	c-0.1,0.1-0.1,0.2-0.2,0.4c0,0.1,0,0.1-0.1,0.1c-0.1,0-0.2,0.1-0.3,0.1c0.1-0.2,0.2-0.3,0.3-0.4c-0.1,0.1-0.2,0.3-0.4,0.3
	c0-0.1,0.1-0.3,0.1-0.4c0,0,0,0,0,0c-0.1,0.1-0.1,0.3-0.2,0.4c0-0.2,0-0.4,0-0.5c0,0,0,0,0,0c0,0-0.1,0.1-0.1,0.1c0,0,0,0,0,0
	c0,0,0,0,0,0c-0.1,0.1-0.3,0.2-0.5,0.1c0,0,0.1,0,0.1,0.1c0,0,0,0.1,0,0.1c0,0.1,0,0.2-0.1,0.3c0,0.1-0.1,0.2-0.2,0.2
	c0-0.2,0-0.4,0.1-0.6c0,0,0,0,0.1-0.1c0,0,0,0-0.1,0c0,0,0,0-0.1,0c0,0.1-0.1,0.3-0.1,0.4c-0.1,0-0.1-0.1-0.2-0.1c0,0,0-0.1,0-0.1
	c-0.2,0.1-0.1,0.3-0.3,0.4c0-0.1,0-0.1,0-0.2c0,0,0,0,0,0c0,0.1-0.1,0.2-0.1,0.3c-0.1,0-0.1-0.1-0.2-0.1c0.1-0.1,0.2-0.1,0.3-0.2
	c0,0,0,0,0,0c-0.1,0-0.1,0.1-0.2,0.1c0,0,0-0.1,0.1-0.1c-0.1,0-0.1,0-0.1,0c-0.1,0-0.1,0.1-0.2,0.1c-0.1,0-0.2,0-0.3,0.1
	c0,0,0,0-0.1,0c0-0.1,0-0.1,0-0.2c0,0,0,0,0,0c0,0.1-0.1,0.1-0.1,0.2c0-0.1-0.1-0.1-0.1-0.2c0.2-0.2,0.5-0.2,0.7-0.3
	c-0.5,0-0.8,0.2-1.2,0.5c0-0.1,0-0.1,0-0.2c0,0,0,0,0,0c0,0.1,0,0.2-0.1,0.2c0,0.1-0.1,0.1-0.2,0.1c-0.1-0.2,0.1-0.3,0.1-0.4
	c0,0-0.1,0.1-0.1,0.1c0,0-0.1,0-0.1-0.1c-0.1,0.1-0.1,0.3-0.2,0.4c0-0.1-0.1-0.1-0.1-0.1c-0.1,0-0.1,0.1-0.2,0.1c0-0.1,0-0.1,0-0.1
	c-0.1,0-0.1,0-0.2,0c0,0,0,0.1,0,0.1c0,0-0.1,0-0.1,0c-0.1,0-0.2-0.1-0.4-0.2c0,0-0.1-0.1-0.2-0.1c0.1,0.1,0.1,0.1,0.2,0.2
	c-0.2,0.1-0.3,0-0.4-0.1c-0.1,0.1-0.3,0.1-0.5-0.2c0.1,0,0.1,0,0.2,0c0-0.1-0.1-0.1-0.1-0.2c0-0.1,0-0.1,0-0.2
	c-0.1,0.1-0.1,0.2-0.2,0.3c0,0,0,0,0,0c0-0.1,0-0.2,0-0.3c-0.1,0.1-0.1,0.4-0.3,0.2c-0.1-0.1,0-0.2,0.1-0.2c0.1,0,0.2-0.1,0.3-0.1
	c0,0,0,0,0,0c-0.3,0.1-0.7,0.2-1,0.3c0,0,0,0,0,0c-0.2,0.2-0.3,0.2-0.5,0c0,0,0,0,0,0c0.1,0,0.1,0,0.2,0.1c-0.1-0.1-0.1-0.1-0.1-0.1
	c0,0-0.1,0-0.1-0.1c-0.1,0-0.2,0-0.3-0.1c0,0.1,0,0.1,0,0.2c0,0,0,0,0,0c-0.1-0.1-0.1-0.1-0.2-0.2c0,0,0,0-0.1,0.1
	c0,0,0.1,0.1,0.1,0.1c0,0,0,0,0,0c-0.1,0-0.3,0-0.4-0.1c0.1,0,0.2,0.1,0.3,0.1c-0.2,0.1-0.3,0.1-0.4,0.2c0,0,0,0,0,0
	c0,0,0.1-0.1,0.1-0.1c0,0,0,0,0,0c-0.1,0-0.2,0.1-0.2,0.1c-0.1,0.1-0.1,0.1-0.3,0c0,0,0,0,0.1-0.1c-0.2,0-0.5,0-0.7,0
	c0,0-0.1-0.1-0.1-0.1c0.1,0,0.2,0,0.3,0c0-0.1-0.1-0.1-0.1-0.2c-0.2,0.1-0.4,0.1-0.6,0.2c-0.1,0-0.3,0-0.4-0.2
	c0.3-0.2,0.6-0.3,0.9-0.4c-0.2,0-0.4,0-0.6,0.1c-0.1,0-0.1,0.1-0.2,0.1c-0.2,0.1-0.4,0.1-0.5,0.2c0,0-0.1,0-0.1,0c0,0,0,0.1,0,0.1
	c0,0,0,0,0,0c0-0.1,0-0.1,0-0.2c-0.1,0.1-0.2,0.1-0.3,0.2c0-0.1,0-0.2,0-0.2c-0.1,0.1-0.1,0.4-0.3,0.2c0,0,0.1,0.1,0.1,0.1
	c0,0,0,0,0,0c-0.1,0-0.1-0.1-0.2-0.1c0,0,0,0,0,0c-0.1,0-0.2,0-0.3,0c0,0,0,0,0,0.1c-0.1,0-0.2,0.1-0.3,0c0,0,0,0,0.1-0.2
	c-0.1,0.1-0.2,0.1-0.3,0.2c-0.1,0.1-0.3,0-0.3-0.2c0-0.1,0-0.1,0-0.2c0,0,0-0.1,0-0.1c0,0,0,0-0.1,0c0-0.1,0-0.1,0.1-0.2
	c0,0,0,0,0,0c-0.1,0.1-0.1,0.2-0.2,0.3c0,0,0,0-0.1,0c0.1-0.2,0.1-0.3,0.2-0.5c0,0-0.1,0.1-0.1,0.1c0,0-0.1,0.1-0.1,0
	c-0.2-0.1-0.3,0.1-0.5,0c0,0,0,0,0-0.1c0,0,0,0,0,0c0,0.1-0.1,0.1-0.1,0.2c0,0,0,0,0,0c0-0.1,0-0.1,0-0.2c-0.1,0.1-0.2,0.3-0.4,0.3
	c0,0,0-0.1,0-0.2c0,0,0,0.1,0,0.1c-0.1-0.1-0.2-0.2-0.3-0.4c0,0.2,0.2,0.4,0.1,0.6c0-0.1-0.1-0.3-0.1-0.4c0,0.1,0,0.1,0,0.1
	c0,0-0.1,0-0.1-0.1c0,0.1,0,0.1,0.1,0.2c-0.1-0.1-0.2-0.1-0.3-0.1c0,0.1,0,0.1,0,0.1c0,0,0.1,0,0.1,0c0,0.1,0,0.2,0,0.2
	c0,0-0.1,0-0.1,0.1c0,0-0.1,0-0.1,0c0-0.1,0.1-0.2,0.1-0.3c-0.1,0.1-0.1,0.1-0.2,0.2c0,0-0.1,0-0.1,0c0,0,0,0.1,0.1,0.1
	c-0.1,0-0.2,0-0.1-0.1c0-0.1,0.1-0.2,0.1-0.3c-0.1,0.1-0.1,0.3-0.2,0.4c-0.1,0-0.2-0.1-0.2-0.2c0-0.2,0-0.4,0.1-0.6
	c-0.1,0.2-0.1,0.4-0.2,0.7c-0.1-0.1-0.1-0.2-0.2-0.3c0,0,0,0,0,0c0,0.1,0,0.2,0,0.3c-0.2,0-0.1-0.1-0.1-0.2c0,0,0,0,0,0
	c0,0-0.1,0-0.1,0c0,0,0,0,0,0c-0.1,0-0.1-0.1-0.2-0.1c-0.1,0-0.1-0.1-0.2-0.1c0,0,0,0-0.1,0.1c0-0.1,0-0.2,0-0.2
	c0-0.1,0-0.1-0.1-0.2c0,0.1,0,0.2,0,0.3c0,0,0,0,0,0c-0.1-0.1-0.1-0.2-0.2-0.3c0,0,0,0,0,0c0,0.1,0.1,0.2,0.1,0.2
	c-0.2,0-0.4-0.1-0.6-0.1c0,0,0,0,0,0c0.1,0,0.1,0,0.2,0c0.3,0.1,0.4,0.1,0.3,0.5c-0.2-0.1-0.4-0.2-0.6-0.2c0.1,0,0.1,0,0.2,0.1
	c0,0,0,0-0.1,0c0.1,0,0.1,0.1,0.2,0.1c0,0,0,0,0,0.1c-0.2-0.2-0.4,0-0.6,0c0,0,0-0.1,0-0.1c-0.1,0.1-0.2,0.2-0.3,0.2
	c0.1-0.1,0.3-0.2,0.4-0.3c0,0,0,0,0,0c-0.1,0-0.2,0-0.3,0c0.1-0.1,0.1-0.2,0.1-0.2c0,0,0,0,0,0c-0.1,0.1-0.1,0.1-0.2,0.2
	c0-0.1,0-0.1-0.1-0.1c-0.1,0.1-0.1,0.2-0.2,0.3c0,0,0,0,0,0c0-0.2,0.1-0.3,0.1-0.5c-0.1,0.1-0.1,0.2-0.2,0.2c0-0.1,0-0.1,0-0.2
	c0,0.1-0.1,0.2-0.1,0.3c0,0,0,0,0,0c0-0.1,0-0.2,0-0.3c-0.1,0.1-0.2,0.1-0.4,0.2c0-0.1,0-0.2,0-0.2c-0.1,0.1,0,0.3-0.2,0.3
	c-0.1-0.4,0.2-0.5,0.5-0.5c0,0,0,0,0,0c-0.1,0-0.2,0.1-0.3,0.1c0,0,0,0,0-0.1c-0.1,0.1-0.3,0.2-0.5,0.2c0,0,0,0.1-0.1,0.1
	c-0.1,0.1-0.3,0.2-0.4,0.2c-0.1,0-0.1,0-0.1-0.1c0-0.1-0.1-0.1-0.1-0.2c0,0.1-0.1,0.2-0.1,0.3c-0.2,0-0.3,0-0.4,0
	c0-0.1,0-0.2-0.1-0.1c0,0-0.1-0.1-0.2-0.1c0,0-0.1,0-0.2,0.1c0,0,0-0.1,0-0.1c-0.1,0.1,0,0.3-0.2,0.2c0,0-0.1-0.1-0.1-0.2
	c-0.1,0.1-0.1,0.3-0.3,0.3c0-0.1,0.1-0.1,0.1-0.2c0,0,0,0,0,0c-0.1,0.1-0.1,0.1-0.2,0.2c0,0,0,0,0,0c0-0.1,0.1-0.3,0.1-0.4
	c0,0,0,0,0,0c-0.1,0.1-0.1,0.2-0.2,0.3c0,0,0,0,0,0c0-0.1,0-0.2,0.1-0.4c0,0,0,0,0,0c0,0.1-0.1,0.2-0.1,0.4
	c-0.1-0.1-0.1-0.2-0.1-0.3c0,0,0,0,0,0c0,0.1,0.1,0.2,0.1,0.3c0,0,0,0,0,0c-0.1-0.1-0.1-0.1-0.2-0.2c0,0,0,0,0,0
	c0,0.1,0,0.1,0.1,0.2c0,0,0,0,0,0c-0.1-0.1-0.2-0.1-0.2-0.2c0,0,0-0.1,0.1-0.2c-0.4,0.2-0.8,0.3-1.3,0.5c0.3-0.4,0.7-0.7,1.2-0.8
	c-0.3,0-0.6,0.1-0.8,0.2c-0.2,0.1-0.4,0.3-0.6,0.4c0-0.1,0-0.2,0-0.3c-0.1,0-0.1,0-0.2,0c0,0,0,0.1-0.1,0.1c0-0.1-0.1-0.1-0.1-0.2
	c0,0.1,0,0.1,0,0.2c-0.6-0.1-0.6-0.1-1.1,0.1c0,0,0,0,0,0c0.1,0,0.1-0.1,0.2-0.1c-0.1,0-0.1,0-0.5,0.1c0,0,0,0,0-0.1
	c0,0-0.1,0-0.1,0c0,0,0,0,0,0c0.1-0.1,0.1-0.1,0.2-0.2c0,0,0,0,0,0c-0.1,0.1-0.3,0.1-0.4,0.2c0-0.1,0-0.2,0-0.2c0,0,0,0,0,0
	c-0.1,0-0.1,0.1-0.2,0.1c0-0.1,0-0.1,0-0.2c0,0,0-0.1,0-0.1c-0.3,0.1-0.5,0.2-0.8,0.3c0,0,0-0.1,0-0.1c0,0-0.1,0.1-0.1,0.1
	c0,0,0,0.1-0.1,0.1c0-0.2,0-0.3,0.2-0.4c0.2-0.1,0.4-0.2,0.6-0.3c-0.2,0-1,0.4-1.3,0.6c0-0.1,0-0.1,0-0.2c0,0-0.1-0.1-0.1-0.1
	c-0.1,0.1-0.2,0.4-0.4,0.3c0.1,0,0.1-0.1,0.2-0.1c0,0,0,0,0,0c-0.2,0-0.4-0.1-0.5,0c-0.2,0-0.4,0.1-0.5,0.1c0.1,0,0.1-0.1,0.2-0.1
	c0,0,0,0,0,0c-0.2,0.1-0.5,0.2-0.7,0.2c0,0,0,0,0,0c0.1-0.1,0.2-0.2,0.4-0.3c-0.3,0.1-0.5,0.2-0.8,0.2c0,0,0,0,0,0
	c0.1,0,0.2,0,0.3-0.1c0,0,0,0,0,0c-0.2,0-0.5,0-0.7,0.1C11.9,11,12,11,12,11c0.1,0,0.2-0.1,0.3-0.1c0.1,0,0.1-0.1,0.1-0.2
	c-0.4,0.1-0.9,0.3-1.3,0.4c0.2-0.3,0.4-0.4,0.6-0.5c-0.3,0.1-0.6,0.3-0.9,0.4c0-0.1,0.1-0.2-0.1-0.3c-0.1,0.3-0.5,0.4-0.8,0.5
	c0,0,0.1-0.1,0.1-0.1c0,0,0,0,0,0c-0.1,0-0.2,0.1-0.3,0.2c0.1-0.1,0.1-0.1,0.7-0.3c-0.3-0.2-0.5,0-0.8,0c0,0-0.1,0-0.1-0.1
	C9.3,11,9,11.1,8.8,11.2c0,0,0,0,0,0C8.9,11.1,9,11,9.1,10.9c0,0,0,0,0,0c-0.3,0.3-0.7,0.3-1,0.4c0,0,0,0,0,0
	C8.2,11.1,8.5,11,8.7,11c0,0,0,0,0,0c-0.2,0-0.4,0.1-0.6,0.1c0.1-0.1,0.4-0.1,0.4-0.4c-0.4,0.2-0.7,0.3-1.1,0.5c0-0.2,0-0.2,0.1-0.3
	c0.2-0.1,0.3-0.2,0.5-0.3c0,0,0,0,0,0c-0.2,0.1-0.3,0.2-0.5,0.3c0-0.1,0-0.1,0-0.2c-0.1,0.2-0.3,0.3-0.5,0.4c0-0.1-0.1-0.2-0.1-0.3
	c-0.2,0.4-0.6,0.4-0.9,0.6c0-0.1,0.2,0,0.2-0.2c0.1,0,0.2-0.1,0.3-0.1c0,0,0,0,0,0c-0.1,0-0.1,0-0.2,0c0,0,0,0,0-0.1
	c-0.2,0-0.4,0.1-0.5,0.1c0,0-0.1,0-0.1,0c-0.1,0-0.1,0-0.2,0c0-0.1,0-0.1-0.1-0.2c0,0,0,0,0,0c0,0.1,0,0.1,0,0.2c0,0,0,0.1,0,0.1
	c0,0-0.1,0-0.1-0.1c0-0.1-0.1-0.1-0.1-0.2c0,0.1,0,0.2,0,0.3c0,0.1-0.2,0.1-0.3,0.1C4.9,11.3,5,11.2,5,11.2c0,0,0,0,0,0
	c-0.1,0.1-0.2,0.1-0.3,0.2c0,0,0,0,0,0c0-0.1,0.1-0.2,0.1-0.3c0,0,0,0,0,0c0,0.1-0.1,0.1-0.1,0.2c-0.1,0-0.1,0.1-0.2,0.1
	c0,0,0,0,0-0.1c0-0.1,0.1-0.1,0.2-0.2c-0.1,0.1-0.3,0.1-0.4,0.2c0,0,0-0.1,0-0.1c0,0.1-0.1,0.1-0.1,0.2C3.9,11,3.9,11,4.1,10.9
	c0.1,0,0.1,0,0.2-0.1c0,0,0,0,0,0c-0.1,0-0.2,0.1-0.4,0.1c0,0,0-0.1-0.1-0.1c0,0,0,0,0,0c-0.1,0.2-0.4,0.3-0.6,0.3
	C3.1,11.1,3,11,2.9,11C3,11,3,11.1,3.1,11.1c0,0.3,0,0.3-0.2,0.4c0-0.1,0-0.1,0-0.2c-0.2,0.2-0.5,0.3-0.8,0.4c0,0,0.1-0.1,0.1-0.2
	c-0.1,0-0.2,0-0.4,0c0,0,0-0.1,0-0.2c-0.1,0.1-0.1,0.2-0.1,0.3c-0.1-0.1-0.1-0.2-0.1-0.2c0,0,0,0,0,0c0,0.1,0,0.2,0.1,0.3
	c-0.2-0.2-0.3,0-0.5,0.1c0-0.1,0-0.3,0-0.4c0,0,0,0,0,0c0,0,0,0.1,0,0.1c0,0.1-0.1,0.1-0.1,0.2c-0.1,0.1-0.2,0.1-0.3,0.1
	c0,0,0,0-0.1,0l0,0c0,0-0.1,0-0.1-0.1l0,0c-0.1,0-0.1,0-0.2,0.1c0,0-0.1-0.1,0-0.1c0,0,0.1-0.1,0.1-0.1c-0.1,0-0.1,0-0.1,0
	c0,0,0-0.1,0-0.1c-0.1,0.1-0.1,0.2-0.1,0.2C0,11.5,0,11.5,0,11.5c0,0.6,0,1.1,0,1.7v0.7v0.3v22h63.1v-22v-0.3v-0.7h0
	c0-0.7,0-1.3,0-2c-0.1,0-0.1,0.1-0.3,0.2c0-0.1-0.1-0.2-0.1-0.3c-0.1,0.3-0.3,0.6-0.7,0.6c0.1,0,0.1-0.1,0.2-0.1c0,0,0,0,0,0
	c-0.1,0-0.1,0-0.2,0.1c-0.1,0-0.2,0-0.2-0.1c0-0.1,0-0.1,0-0.2c0,0,0,0-0.1,0c0,0.1,0,0.3-0.1,0.4c-0.4-0.3-0.8-0.6-1.3-0.6
	c0.1,0.1,0.3,0.1,0.4,0.2c0.2,0.1,0.4,0.2,0.6,0.4c0,0,0,0.1,0.1,0.1c0,0,0,0.1,0,0.1c0,0-0.1,0-0.1,0c-0.1,0-0.2-0.1-0.3-0.1
	c-0.2-0.1-0.5-0.2-0.8-0.3c0,0,0,0,0,0c0.1,0.1,0.3,0.1,0.4,0.2c-0.1,0-0.1,0.1-0.2,0.1c0,0-0.1,0-0.1,0c-0.1,0-0.2,0.1-0.3,0.1
	c-0.1,0-0.2-0.1-0.3-0.1c0.1,0.1,0.2,0.2,0.3,0.3c0,0,0,0,0,0c-0.2-0.1-0.5-0.1-0.7-0.2c0,0,0,0,0,0c0,0.1,0.1,0.1,0.1,0.2
	c0,0,0,0,0,0c-0.2-0.1-0.5-0.3-0.7-0.4c0,0.1,0,0.2,0,0.3c-0.1,0-0.2,0-0.2-0.1c-0.1,0-0.1-0.1-0.2-0.1c-0.2-0.1-0.4-0.3-0.6-0.4
	c-0.1,0-0.1,0-0.2,0c-0.1-0.4-0.1-0.7,0-1c0.2-0.4,0.1-0.9,0.1-1.4c1.1,0,1.4-0.8,1.6-1.6c0.2-0.3,0.4-0.6,0.4-0.9
	c0.1-0.6,0.8-1.3,1.2-1.7c0.1,0.1,0.2,0.1,0.4,0.1c0.2,0,0.5,0,0.7,0c0.2,0,0.4,0,0.6-0.1c0.1,0,0.1-0.1,0.4,0
	c0.3,0.1,0.5,0.1,0.6-0.1c0.4-0.2,0.5-0.4,0.6-0.6C64.1,3.8,63.8,3.7,63.6,3.5z M8.2,16.1h-2V34H4.1V16.1h-2v-1.8h6.2V16.1z
	 M15.7,34h-2.1v-9.4h-1.9V34H9.6V14.3h2.1v8.4h1.9v-8.4h2.1V34z M22.8,34h-5.6V14.3h5.5v1.8h-3.4v6.2h2.3v1.8h-2.3v8.1h3.5V34z
	 M32.9,34h-1.3l-0.4-0.7c-0.3,0.5-0.9,0.9-1.7,0.9c-1.4,0-2.6-0.9-2.6-3.1V17.4c0-2.2,1.3-3.3,3.1-3.3c1.7,0,2.9,1.1,2.9,3.3v3.5h-2
	v-3.7c0-0.7-0.3-1.3-0.9-1.3c-0.7,0-0.9,0.6-0.9,1.3v13.9c0,0.7,0.2,1.3,1,1.3c0.6,0,0.9-0.5,0.9-1.3v-5.4h-1.1V24h3.1V34z M38.5,34
	c-0.2-0.5-0.3-1.9-0.3-2.9l-0.1-4.6c0-1.2-0.6-1.7-1.4-1.7h-0.3V34h-2.1V14.3h2.8c1.7,0,3.3,0.6,3.3,3.5v2.9c0,1.5-0.4,2.8-1.7,3.3
	c1.1,0.4,1.5,1.4,1.6,2.8l0.1,4.5c0,1.4,0.2,2.5,0.3,2.7H38.5z M47.4,34h-5.6V14.3h5.5v1.8H44v6.2h2.3v1.8H44v8.1h3.5V34z M52.8,34
	l-0.3-3.9h-1.8L50.3,34h-1.9l1.9-19.7h2.7L55,34H52.8z M60.9,16.1h-2V34h-2.1V16.1h-2v-1.8h6.2V16.1z M56,10.6
	c0.2-0.4,0.3-0.9,0.5-1.5c0.1,0.3,0.1,0.6,0.2,0.9c0.1,0.6,0.2,1.2,0.1,1.9c0,0,0,0,0,0c0,0-0.1,0-0.1,0c0,0.1,0.1,0.1,0.1,0.2
	c0,0,0,0,0,0c-0.1-0.1-0.3-0.1-0.5-0.2c0,0.1,0.1,0.1,0.1,0.1c0,0,0,0,0,0c-0.1,0-0.2-0.1-0.3-0.2c-0.1,0-0.1-0.1,0-0.2
	c-0.1,0-0.1,0-0.2,0C55.9,11.4,55.9,10.9,56,10.6z M47.4,9.1c0,0,1.3,0,2-1c0.2,0.1,0.5,0.2,0.8,0.3c0.8,0.2,1.6,0.2,2.6,0
	c0.8-0.1,1.6-0.1,2.5-0.1c0,0.6-0.1,1.2,0,1.9c0.1,0.2,0.1,0.5,0,0.7c0,0.3-0.1,0.6-0.1,0.9c-0.3-0.2-0.6-0.3-0.9-0.3c0,0,0,0,0.1,0
	c0.3,0.1,0.5,0.2,0.8,0.4c0,0,0.1,0.1,0.1,0.1c0,0,0,0,0,0c0,0,0,0.1,0,0.1c0,0,0,0-0.1,0c-0.1,0-0.2,0-0.2-0.1
	c-0.2-0.1-0.4-0.2-0.7-0.3c0.1,0.1,0.1,0.2,0.2,0.3c-0.1,0-0.3,0.1-0.4,0.1c0-0.1,0-0.1,0.1-0.2c0,0-0.1,0.1-0.2,0.1
	c0-0.1,0-0.2,0-0.3c0,0,0,0,0,0c0,0.1,0,0.3-0.1,0.4c0,0-0.1-0.1-0.1-0.1c-0.1,0.1-0.1,0.1-0.2,0c0,0-0.1-0.1-0.1-0.1
	c0,0,0,0.1-0.1,0.1c0,0-0.1-0.1-0.1-0.1c0,0,0,0.1,0,0.2c0-0.1-0.1-0.1-0.1-0.2c0,0-0.1,0.1-0.1,0.2c0-0.1,0-0.1,0-0.2
	c0,0.1,0,0.1-0.1,0.1c-0.2,0-0.3-0.2-0.3-0.3c-0.2,0.3-0.2,0.2-0.5,0c0.1-0.1,0.3-0.1,0.4-0.2c0,0,0,0,0,0c-0.1,0-0.3,0.1-0.4,0.1
	c-0.1,0-0.2,0-0.3,0c-0.2-0.1-0.4-0.2-0.7-0.2c0.2,0.1,0.5,0.2,0.7,0.3c-0.2,0.2-0.4,0.3-0.8,0.1c0,0,0,0,0,0
	c0.1,0.1,0.1,0.2,0.2,0.3c-0.1,0-0.2,0.1-0.3,0.1c0-0.1-0.1-0.2-0.1-0.2c-0.1,0.1-0.1,0.2-0.2,0.2c-0.1,0-0.2,0-0.3,0c0,0,0,0,0,0
	c-0.2,0-0.5,0-0.7,0c0,0-0.1,0-0.1,0c-0.1,0-0.1,0.1-0.2,0c-0.1,0.1-0.1-0.1-0.2-0.1c-0.1,0-0.1,0-0.2,0c0,0-0.1,0.1-0.1,0.1
	c0,0-0.1-0.1-0.1-0.1c0,0,0,0,0,0.1c-0.1,0-0.2,0-0.2,0c0,0-0.1-0.1-0.1-0.1c0,0,0.1-0.1,0.1-0.2c-0.1,0-0.1,0.1-0.2,0.1
	c-0.1-0.1-0.1-0.2-0.2-0.2c0.1,0,0.2-0.1,0.3-0.1c-0.1,0-0.2,0.1-0.3,0.1C47.7,11.2,47.3,10.5,47.4,9.1z M48.7,12.3
	c-0.1,0-0.1,0-0.2,0c0,0,0,0,0,0c0,0,0,0,0,0c0,0,0,0,0,0c0.1,0,0.1-0.1,0.2-0.1c0,0,0,0,0,0C48.6,12.2,48.6,12.2,48.7,12.3z
	 M47.5,12.3C47.6,12.3,47.6,12.3,47.5,12.3c-0.1,0.1-0.3,0.2-0.5,0.2c0.1-0.1,0.1-0.2,0.2-0.2C47.4,12.3,47.4,12.3,47.5,12.3z
	 M46.1,9.2c0.4,0.9,0.8,1.8,1.1,2.8c0,0.1,0,0.1,0,0.1c-0.1,0.1-0.3,0.2-0.4,0.2c0-0.1-0.1-0.2-0.1-0.2c-0.1,0.1-0.2,0.2-0.3,0.3
	c-0.1,0.1-0.1,0.1-0.2,0c0,0,0.1,0,0.2,0c-0.2-0.1-0.4-0.1-0.6-0.1c0.1,0,0.1,0,0.1,0.1c0,0,0,0,0,0.1c0,0-0.1,0-0.1,0
	C45.6,11,45.6,9.9,46.1,9.2z M45.2,6.1c0.1,0.6,0.2,1.1,0,1.7C45,7.2,45.1,6.6,45.2,6.1z M45.1,12.4C45.1,12.4,45.1,12.4,45.1,12.4
	c0,0.1-0.1,0.1-0.2,0.2c0-0.1,0-0.1,0.1-0.2C45,12.4,45.1,12.4,45.1,12.4z M44.9,12.2c0,0.1,0,0.1,0,0.2c0,0,0,0-0.1,0
	C44.9,12.3,44.9,12.2,44.9,12.2z M41.3,12.1C41.4,12.1,41.4,12.1,41.3,12.1c0.1,0.3,0,0.4-0.1,0.5C41.1,12.4,41.1,12.2,41.3,12.1z
	 M40.4,12.4c0,0,0,0.1,0.1,0.1c0.1,0.1,0.1,0.2-0.1,0.2C40.3,12.7,40.4,12.5,40.4,12.4z M35.5,12.4C35.5,12.4,35.5,12.4,35.5,12.4
	c0.2,0.1,0.2,0,0.3,0c0,0.1,0.1,0.1,0.1,0.2c-0.1,0.1-0.2-0.1-0.4-0.1c0,0,0.1,0.1,0.1,0.1c-0.3,0-0.4,0.3-0.7,0.2c0,0,0,0,0,0
	C35.2,12.7,35.3,12.6,35.5,12.4z M32.5,12.5c0,0,0.1,0.1,0.1,0.1c-0.1,0-0.2,0.1-0.4,0.1c0,0,0,0,0,0C32.3,12.6,32.4,12.6,32.5,12.5
	z M58,11.6c-0.1,0.1-0.1,0.2-0.1,0.3c-0.1-0.1-0.1-0.1-0.2-0.2c0,0,0,0.1,0,0.1c0,0-0.1,0-0.1,0c-0.1-0.1-0.1-0.3-0.1-0.4
	C57.7,11.4,57.8,11.5,58,11.6z M50.9,28.5h1.5l-0.7-8.7L50.9,28.5z M37.1,16.1h-0.7v7.1H37c0.7,0,1.3-0.6,1.3-1.8v-3.6
	C38.3,16.6,37.8,16.1,37.1,16.1z"/>
</svg>
