<svg version="1.1" id="Layer_1" xmlns="http://www.w3.org/2000/svg" xmlns:xlink="http://www.w3.org/1999/xlink" x="0px" y="0px" viewBox="0 0 20 20" style="enable-background:new 0 0 20 20;" xml:space="preserve">
	<path fill="#ffffff" d="M4.3,3.2C5.2,3.2,6,3.8,6,4.7c0,0.9-0.6,1.6-1.5,1.7c-0.9,0-1.6-0.6-1.7-1.5S3.4,3.2,4.3,3.2z M15.4,3.2
	c0.9,0,1.6,0.6,1.7,1.5c0,0.9-0.6,1.6-1.5,1.7c-0.9,0-1.6-0.6-1.7-1.5S14.5,3.2,15.4,3.2z M19.3,3.7c-0.4,0-0.7,0.2-0.7,0.6
	c0,0.1-0.3,2.5-2.1,2.5h-2c-0.7,0-1.2,0.4-1.5,0.7c-0.1,0.1-0.2,0.2-0.3,0.3c-0.3,0-0.6-0.1-0.8-0.1L12,7.3c0-0.1,0-0.3,0-0.4
	l-0.1-0.1c0-0.1-0.1-0.2,0-0.3L12,6l0,0l0.1-0.2c0,0,0,0,0-0.1c0,0,0-0.1-0.1-0.1l-0.4-0.1c0,0-0.1,0-0.1,0.1l0,0l-0.1,0.2
	c0,0,0,0,0,0.1l-0.1,0.5c0,0.1-0.1,0.1-0.1,0.2H11c-0.1,0.1-0.2,0.2-0.3,0.3l-0.5,2c0,0.1,0,0.3,0.2,0.3l0.7,0.2
	c0.1,0,0.3,0,0.3-0.2l0.1-0.4C11.8,8.9,12.2,9,12.7,9h0.1c0.5,0,0.9-0.3,1.2-0.6c0,0,0-0.1,0.1-0.1v2.4l-1.2,2.5
	c-0.1,0.2-0.1,0.4,0,0.6c0.1,0.2,0.3,0.3,0.6,0.3h0.1c-0.1,0.5-0.1,1-0.1,1.5l0.2,2.3c0,0.4,0.4,0.7,0.8,0.7c0,0,0,0,0.1,0
	c0.4,0,0.7-0.4,0.7-0.8l-0.2-2.3c0-0.4,0-0.7,0.1-1.1l0.1-0.3h0.6l0.5,3.8c0,0.4,0.4,0.7,0.8,0.7h0.1c0.4-0.1,0.7-0.4,0.6-0.9
	L17.3,14h0.3c0.2,0,0.4-0.1,0.6-0.3c0.1-0.2,0.1-0.4,0-0.6L17,10.7V8.1l0,0c2-0.3,2.8-2.5,3-3.6C19.9,4.1,19.7,3.8,19.3,3.7z
	M9.1,6.9c0-0.1-0.1-0.3-0.3-0.3H8.7c-0.1,0-0.1-0.1-0.1-0.2L8.5,5.9c0,0,0,0,0-0.1L8.4,5.6c0,0,0,0-0.1,0L8.2,5.5L7.9,5.6L7.8,5.7
	v0.1L7.9,6l0,0L8,6.5c0,0.1,0,0.2,0,0.3v0.1C7.9,7,7.9,7.1,7.9,7.3L8,7.7c-0.2,0-0.5,0.1-0.8,0.1C7.1,7.7,7,7.6,6.9,7.5
	C6.6,7.2,6.1,6.8,5.4,6.8h-2c-1.7,0-2.1-2.4-2.1-2.5C1.2,3.9,0.9,3.7,0.6,3.7S0,4.1,0,4.4C0.1,5.6,0.9,7.8,3,8l0,0v3.8l-0.4,5.8
	c0,0.4,0.3,0.8,0.7,0.8c0,0,0,0,0.1,0c0.4,0,0.7-0.3,0.8-0.7l0.4-5.4l0.6,1.9c0.1,0.3,0.1,0.5,0.1,0.8l0.2,2.7
	c0,0.4,0.4,0.7,0.8,0.7c0,0,0,0,0.1,0c0.4,0,0.7-0.4,0.7-0.8l-0.2-2.7c0-0.4-0.1-0.8-0.2-1.1L6,11.7V8.4c-0.1,0,0,0.1,0,0.1
	c0.3,0.3,0.7,0.6,1.2,0.6c0,0,0,0,0.1,0c0.4,0,0.9-0.1,1.1-0.2l0.1,0.4c0,0.1,0.2,0.2,0.3,0.2l0.7-0.2c0.1,0,0.2-0.2,0.2-0.3
	L9.1,6.9z M9.9,10.2c-0.1,0-0.2,0.1-0.2,0.2V11c0,0.1,0.1,0.2,0.2,0.2c0.1,0,0.2-0.1,0.2-0.2v-0.6C10.1,10.3,10,10.2,9.9,10.2z
	M10.8,9.9c-0.1-0.1-0.2-0.1-0.3,0s-0.1,0.2,0,0.3l0.4,0.4l0.1,0.1c0,0,0.1,0,0.1-0.1c0.1-0.1,0.1-0.2,0-0.3L10.8,9.9z M9.1,9.9
	l-0.4,0.4c-0.1,0.1-0.1,0.2,0,0.3l0.1,0.1c0,0,0.1,0,0.1-0.1l0.4-0.4c0.1-0.1,0.1-0.2,0-0.3C9.3,9.9,9.2,9.9,9.1,9.9z M7.9,4.3
	c0.3,0,0.4-0.3,0.4-0.5V2.3l1.4-0.2v1.1c-0.1,0-0.2,0-0.3,0C9.1,3.2,9,3.4,9,3.7C9.1,3.9,9.3,4,9.6,4S10,3.7,10,3.5V1.7
	c0-0.1-0.1-0.2-0.2-0.2L8.2,1.7C8.1,1.7,8,1.8,8,1.9v1.5c-0.1,0-0.2,0-0.3,0c-0.2,0-0.4,0.3-0.4,0.5C7.3,4.2,7.6,4.3,7.9,4.3z
	M11.3,4.6c0.3,0,0.4-0.2,0.4-0.4l0,0V2.6c0.4,0,0.4,0.4,0.3,0.7v0.1h0.1h0.1c0.4-0.5,0.1-1.2-0.6-1.3c-0.1,0-0.1,0-0.1,0.1v1.5
	c-0.1,0-0.2,0-0.3,0c-0.3,0.1-0.5,0.3-0.4,0.5C10.8,4.5,11,4.6,11.3,4.6z" />
</svg>