<svg version="1.1" id="Layer_1" xmlns="http://www.w3.org/2000/svg" xmlns:xlink="http://www.w3.org/1999/xlink" x="0px" y="0px" viewBox="0 0 20 20" style="enable-background:new 0 0 20 20;" xml:space="preserve">
	<path fill="#ffffff" d="M9.9,1.3c1,0,1.8,0.8,1.8,1.7s-0.8,1.7-1.8,1.7S8.1,3.9,8.1,3S8.9,1.3,9.9,1.3z M0,12.2V20h20v-7.8H0z M3.7,18.3
	c-1.3,0-2.4-1-2.4-2.2s1.1-2.2,2.4-2.2s2.4,1,2.4,2.2C6.1,17.3,5,18.3,3.7,18.3z M10,18.3c-1.3,0-2.4-1-2.4-2.2s1.1-2.2,2.4-2.2
	s2.4,1,2.4,2.2S11.3,18.3,10,18.3z M16.3,18.3c-1.3,0-2.4-1-2.4-2.2s1.1-2.2,2.4-2.2s2.4,1,2.4,2.2C18.7,17.3,17.6,18.3,16.3,18.3z
	M16.3,15.1c0.6,0,1.1,0.4,1.1,1c0,0.6-0.5,1-1.1,1s-1.1-0.4-1.1-1C15.2,15.5,15.7,15.1,16.3,15.1z M10,15.1c0.6,0,1.1,0.4,1.1,1
	c0,0.6-0.5,1-1.1,1s-1.1-0.4-1.1-1C8.9,15.5,9.4,15.1,10,15.1z M3.7,15.1c0.6,0,1.1,0.4,1.1,1c0,0.6-0.5,1-1.1,1s-1.1-0.4-1.1-1
	C2.6,15.5,3.1,15.1,3.7,15.1z M5.6,9c1.7,0,3.1,0.5,3.1,1.1s-1.4,1.1-3.1,1.1s-3.1-0.5-3.1-1.1S3.9,9,5.6,9z M14.1,9
	c1.7,0,3.1,0.5,3.1,1.1s-1.4,1.1-3.1,1.1S11,10.7,11,10.1S12.4,9,14.1,9z M18.7,10.3h-1c-0.2,1-1.9,1.4-3.6,1.4
	c-1.2,0-2.4-0.2-3.1-0.7l-0.1-0.1c0,0,0,0-0.1-0.1l-0.1-0.1l-0.1-0.1v-0.1v-0.1c0-0.1,0-0.1,0-0.2c0-0.6,0.6-1,1.4-1.2V6.6h0.5
	c0.2,0,0.5-0.1,0.6-0.3l1.5-1.8c0.1-0.1,0.2-0.3,0.2-0.4V0.7C14.8,0.3,14.4,0,14,0s-0.8,0.3-0.8,0.7v3.1l-1.1,1.3H12H7.8H7.7
	c-0.1,0-0.3,0-0.4,0.1L6.1,5.8l0.5-1.6c0-0.4-0.2-0.8-0.6-0.9C5.5,3.2,5.1,3.4,5,3.8L4.1,7.1C4,7.4,4.1,7.7,4.4,7.9
	C4.5,8,4.7,8,4.8,8C5,8,5.1,8,5.2,7.9l2.6-1.3v2.3c0.8,0.2,1.3,0.6,1.3,1.2c0,0.1,0,0.1,0,0.2v0.1v0.1L9,10.6l-0.1,0.1
	c0,0,0,0-0.1,0.1l-0.1,0.1c-0.7,0.5-1.9,0.7-3.1,0.7c-1.6,0-3.4-0.4-3.6-1.4H1.2l-1,1.6h19.5L18.7,10.3z" />
</svg>
