<svg version="1.1" id="Layer_1" xmlns="http://www.w3.org/2000/svg" xmlns:xlink="http://www.w3.org/1999/xlink" x="0px" y="0px" viewBox="0 0 20 20" style="enable-background:new 0 0 20 20;" xml:space="preserve">
	<path fill="#ffffff" d="M18.6,11v3.1c0,0.1-0.1,0.2-0.2,0.2H1.7c-0.1,0-0.2-0.1-0.2-0.2V8.5c0-0.1-0.1-0.2-0.2-0.2H0.6c-0.1,0-0.2,0.1-0.2,0.2v10.2
	c0,0.1,0.1,0.2,0.2,0.2h0.6c0.1,0,0.2-0.1,0.2-0.2v-1.1c0-0.1,0.1-0.2,0.2-0.2h16.7c0.1,0,0.2,0.1,0.2,0.2v1.1
	c0,0.1,0.1,0.2,0.2,0.2h0.6c0.1,0,0.2-0.1,0.2-0.2V11c0-0.1-0.1-0.2-0.2-0.2h-0.6C18.7,10.8,18.6,10.9,18.6,11z M7,10.8H15
	c1.7,0,3,1.4,3,3l0,0H7c-0.1,0-0.3-0.1-0.3-0.3V11C6.8,10.9,6.9,10.8,7,10.8z M5.2,11.4v1.2H2.6c-0.3,0-0.6,0.3-0.6,0.6l0,0
	c0,0.3,0.3,0.6,0.6,0.6h2.6h0.2h0.8c0.2,0,0.3-0.1,0.3-0.3v-2.1c0-0.3-0.3-0.6-0.6-0.6l0,0C5.5,10.8,5.2,11.1,5.2,11.4z M3.7,9.8
	c0.7,0,1.3,0.6,1.3,1.3s-0.6,1.3-1.3,1.3s-1.3-0.6-1.3-1.3S3,9.8,3.7,9.8z M20,6.3c0.1-0.1,0-0.3-0.1-0.4L10,1l0,0l0,0L0.1,5.9
	C0,5.9,0,6.1,0,6.3l0.3,0.6C0.4,7,0.6,7.1,0.7,7L10,2.4L19.3,7c0.1,0.1,0.3,0,0.3-0.1L20,6.3z" />
</svg>