<svg version="1.1" id="Layer_1" xmlns="http://www.w3.org/2000/svg" xmlns:xlink="http://www.w3.org/1999/xlink" x="0px" y="0px" viewBox="0 0 20 20" style="enable-background:new 0 0 20 20;" xml:space="preserve">
	<path fill="#ffffff" d="M10,3C8.4,3,7,4.3,7,6s1.3,3,3,3s3-1.3,3-3S11.7,3,10,3z M16.1,5.5l-0.6-0.8c-0.2-0.2-0.3-0.7-0.3-1l0-1
	c0-0.3-0.2-0.6-0.5-0.7l-1-0.3c-0.3-0.1-0.7-0.4-0.9-0.6l-0.5-0.8c-0.2-0.3-0.6-0.4-0.9-0.3l-0.9,0.3c-0.3,0.1-0.8,0.1-1.1,0L8.6,0
	c-0.3-0.1-0.7,0-0.9,0.3L7.2,1.1C7,1.4,6.6,1.7,6.3,1.8L5.3,2C5,2.1,4.8,2.4,4.8,2.8l0,1c0,0.3-0.1,0.8-0.3,1L3.9,5.5
	c-0.2,0.2-0.2,0.7,0,0.9l0.6,0.8c0.2,0.2,0.3,0.7,0.3,1l0,1c0,0.3,0.2,0.6,0.5,0.7l1,0.3c0.3,0.1,0.7,0.4,0.9,0.6l0.5,0.8
	c0.2,0.3,0.6,0.4,0.9,0.3l0.9-0.4c0.3-0.1,0.8-0.1,1.1,0l0.9,0.4c0.3,0.1,0.7,0,0.9-0.3l0.5-0.8c0.2-0.3,0.6-0.6,0.9-0.6l1-0.3
	c0.3-0.1,0.5-0.4,0.5-0.7l0-1c0-0.3,0.1-0.8,0.3-1l0.6-0.8C16.3,6.2,16.3,5.8,16.1,5.5z M10,9.9C7.9,9.9,6.1,8.1,6.1,6
	S7.9,2.1,10,2.1s3.9,1.8,3.9,3.9S12.2,9.9,10,9.9z M13.2,11.4l-0.6,0.9l-0.1,5.4c0.1,0,0.2,0,0.4,0.1l1.3,0.6c0.4,0.2,0.6,0,0.5-0.4
	L13.2,11.4z M10.6,12.2c-0.3-0.1-0.9-0.1-1.2,0l-1,0.4c-0.3,0.1-0.8,0-1-0.3L7.2,12l-1.2,7.6l2-1.2c0.2-0.1,0.5-0.2,0.7-0.2
	c0.4,0,0.7,0.1,1,0.3l1.8,1.5l0.1-7.4h0L10.6,12.2z" />
</svg>