<svg version="1.1" id="Layer_1" xmlns="http://www.w3.org/2000/svg" xmlns:xlink="http://www.w3.org/1999/xlink" x="0px" y="0px" viewBox="0 0 20 20" style="enable-background:new 0 0 20 20;" xml:space="preserve">
	<path fill="#ffffff" d="M7.1,15.7l0.4,3.4c0,0.1,0,0.3-0.1,0.4L6.8,20l-2.7-4.1L0,13.2l0.5-0.5c0.1-0.1,0.2-0.2,0.4-0.1l3.4,0.4l3.8-3.8L0.5,4.1
	C0.3,3.9,0.2,3.6,0.4,3.4c0,0,0-0.1,0.1-0.1l0.3-0.3c0.4-0.4,1-0.6,1.6-0.4l9.9,2.5l3.9-3.9c0.6-0.6,1.3-0.9,2-1.1L18.6,0
	C19.3-0.1,19.9,0.3,20,1c0,0.1,0,0.3,0,0.4l-0.1,0.5c-0.1,0.8-0.5,1.5-1.1,2l-3.9,3.9l2.5,9.9c0.1,0.6,0,1.2-0.4,1.6l-0.3,0.3
	c0,0,0,0-0.1,0.1c-0.2,0.1-0.5,0.1-0.7-0.1l-5.1-7.6L7.1,15.7z M6.1,3.1l1.4-1.4c0.4-0.4,1-0.4,1.4,0l0.7,0.7c0.4,0.4,0.4,1,0,1.4
	L6.1,3.1z M17.2,13.7l-0.7-3.4c0.4-0.4,1-0.4,1.4,0l0.7,0.7c0.4,0.4,0.4,1,0,1.4L17.2,13.7z" />
</svg>