<svg version="1.1" id="Layer_1" xmlns="http://www.w3.org/2000/svg" xmlns:xlink="http://www.w3.org/1999/xlink" x="0px" y="0px" viewBox="0 0 20 20" style="enable-background:new 0 0 20 20;" xml:space="preserve">
	<path fill="#ffffff" d="M14.4,16.2v0.5c0,0.5,0.4,1,1,1h1.9c0.5,0,1-0.4,1-1v-1h-3.8V16.2z M19.2,7.8h-0.9c-0.1,0-0.3,0-0.4,0.1l-1.2-3.2
	c-0.2-0.5-0.7-0.8-1.2-0.8h-2.4L13,2.8c0-0.2-0.2-0.4-0.5-0.4l0,0h-5l0,0C7.3,2.4,7.1,2.5,7,2.8L6.9,3.8l0,0.1H4.7
	c-0.6,0-1,0.3-1.2,0.8L2.2,8.1C2,7.9,1.8,7.8,1.6,7.8H0.8C0.3,7.8,0,8.2,0,8.6V9c0,0.4,0.3,0.8,0.8,0.8h0.8
	c-0.1,0.2-0.2,0.4-0.2,0.6v3.8c0,0.4,0.2,0.8,0.6,1.1h16.2c0.3-0.2,0.6-0.6,0.6-1.1v-3.8c0-0.2-0.1-0.5-0.2-0.6h0.6
	C19.7,9.8,20,9.4,20,9V8.6C20,8.2,19.7,7.8,19.2,7.8z M7.3,3.3H8V2.7h0.7v0.6h0.7V2.7H10v0.6h0.7V2.7h0.7v0.6H12V2.7h0.5
	c0,0,0.1,0,0.1,0.1l0,0.2v0.3H12v0.6h-0.7V3.3h-0.7v0.6H10V3.3H9.3v0.6H8.7V3.3H8v0.6H7.3L7.3,3.3L7.3,3.3z M3.2,7.9l1-2.5
	C4.3,5,4.6,4.8,4.9,4.8h10.4c0.3,0,0.6,0.2,0.7,0.5l1,2.5c0.1,0.3-0.1,0.5-0.3,0.5h-13C3.3,8.4,3.1,8.1,3.2,7.9z M4.4,12.7
	c-0.7,0-1.2-0.6-1.2-1.2s0.6-1.2,1.2-1.2s1.2,0.6,1.2,1.2C5.6,12.2,5.1,12.7,4.4,12.7z M15.8,12.7c-0.7,0-1.2-0.6-1.2-1.2
	s0.6-1.2,1.2-1.2s1.2,0.6,1.2,1.2C17,12.2,16.5,12.7,15.8,12.7z M2,16.7c0,0.5,0.4,1,1,1h1.9c0.5,0,1-0.4,1-1v-0.5v-0.5H2V16.7z" />
</svg>