<svg version="1.1" id="Layer_1" xmlns="http://www.w3.org/2000/svg" xmlns:xlink="http://www.w3.org/1999/xlink" x="0px" y="0px" viewBox="0 0 20 20" style="enable-background:new 0 0 20 20;" xml:space="preserve">
	<path fill="#ffffff" d="M5.4,9.3C6,9.1,6.7,9,7.5,9c0.4,0,0.7,0,1,0.1l0.1-1.2l4.8-4.9l-2.8-1.1l-5,4.7L5.4,9.3z M16.7,5c-0.5,0.5-0.1,1.2,0.9,1.7
	l-2.3,2.7c-1-0.5-2.2-0.3-2.8,0.3L9.1,8L9,8.1L8.9,8.9l4.7,2.3c0.6,0.3,1.4,0.2,1.7-0.2l4.1-4.9c0.3-0.3,0-0.7-0.6-1l-5-2l-0.5,0.5
	L16.7,5z M0.4,4.7l4.9,2.3l0.1-0.8l0,0L2.5,4.8C3,4.3,2.9,3.7,2.1,3.3l2.6-2C5.5,1.6,6.5,1.5,7,1.1l2.6,1l0.5-0.5L6.3,0.1
	C5.8-0.1,5.2,0,4.9,0.2L0.3,3.8C-0.1,4.1-0.1,4.5,0.4,4.7z M6.8,4.9l1.6-1.5C7.9,3.5,7.5,3.7,7.2,3.9C6.9,4.2,6.8,4.6,6.8,4.9z
	M12.3,4.8l-1.8,1.8c0.6-0.1,1.1-0.3,1.4-0.7C12.3,5.6,12.3,5.2,12.3,4.8z M15.5,7.5c0.4-0.5,0.1-1-0.6-1.4
	c-0.8-0.3-1.7-0.2-2.1,0.2c-0.4,0.4-0.2,1,0.6,1.4S15.1,7.9,15.5,7.5z M6.2,2.4C5.5,2.2,4.7,2.3,4.3,2.6C3.8,3,3.9,3.5,4.5,3.8
	S6,4,6.5,3.6C6.9,3.2,6.8,2.7,6.2,2.4z M11,11.5l2.8,1.3c0.6,0.3,1.4,0.2,1.8-0.2l4-4.9c0.2-0.2,0.1-0.6-0.3-0.8l-3.6,4.3
	c-0.4,0.5-1.1,0.6-1.8,0.4c-0.1,0-3.3-1.5-3.3-1.5c0.3,0.3,0.4,0.7,0.4,1L11,11.5L11,11.5z M5.2,7.5L0.6,5.3L0.3,5.5
	C0,5.8,0,6.1,0.5,6.4L5,8.6L5.2,7.5z M5,9.6l0-0.5L0.7,7L0.4,7.1C0,7.4,0.1,7.8,0.5,8.1l3.9,1.9C4.6,9.8,4.8,9.7,5,9.6z M19.5,8.6
	l-3.6,4.3c-0.4,0.5-1.1,0.6-1.9,0.4c-0.1,0-3-1.4-3-1.4v1.2l2.8,1.4c0.6,0.3,1.4,0.2,1.7-0.2l4.1-4.9C19.9,9.2,19.8,8.8,19.5,8.6z
	M19.6,10.3l-3.6,4.3c-0.4,0.5-1.1,0.6-1.9,0.4c-0.1,0-3-1.4-3-1.4v1.2l3,1.4c0.6,0.3,1.4,0.2,1.7-0.2l4.1-4.9
	C20,10.8,19.9,10.5,19.6,10.3z M3.9,11.1c0-0.3,0.1-0.6,0.3-0.9L0.8,8.6L0.5,8.8C0.2,9.1,0.2,9.5,0.7,9.7l3.2,1.5V11.1z M0.8,11.4
	l2.3,1.1c0.2,0,0.3,0,0.5,0c0.1,0,0.2,0,0.3,0v-0.7l-3-1.5l-0.3,0.2C0.3,10.8,0.3,11.2,0.8,11.4z M19.7,12l-3.6,4.3
	c-0.4,0.5-1.1,0.6-1.9,0.4c-0.1,0-3.1-1.5-3.1-1.5v1.2l3,1.5c0.6,0.3,1.4,0.2,1.7-0.2l4.1-4.9C20.1,12.5,20,12.2,19.7,12z M3.1,15.8
	c0,0.1,0,0.2,0.1,0.2s0.2,0.1,0.3,0.2v-0.7c-0.1,0-0.2,0-0.3,0.1C3.1,15.6,3.1,15.7,3.1,15.8z M3.7,16.7v0.7c0.1,0,0.2,0,0.3-0.1
	c0.1,0,0.1-0.1,0.1-0.2c0-0.1,0-0.2-0.1-0.2C4,16.8,3.9,16.7,3.7,16.7z M3.5,14c-1.3,0-2.5,1.1-2.5,2.5c0,1.3,1.1,2.5,2.5,2.5
	S6,17.8,6,16.5S4.9,14,3.5,14z M4.4,17.5c-0.2,0.1-0.4,0.2-0.6,0.2v0.3H3.5v-0.3c-0.4,0-0.7-0.2-1-0.4L2.8,17
	c0.2,0.2,0.5,0.3,0.7,0.3v-0.7c-0.3-0.1-0.5-0.2-0.7-0.3c-0.1-0.1-0.2-0.3-0.2-0.5c0-0.2,0.1-0.4,0.3-0.5C3,15.2,3.2,15.1,3.5,15
	v-0.2h0.3V15c0.3,0,0.5,0.1,0.8,0.3l-0.3,0.4c-0.2-0.1-0.4-0.2-0.5-0.2v0.7l0,0c0.3,0.1,0.5,0.2,0.7,0.3c0.1,0.1,0.2,0.3,0.2,0.5
	C4.6,17.2,4.5,17.4,4.4,17.5z M7.5,9.4c-1.8,0-3.2,0.8-3.2,1.7l0,0l0,0v1.4c0,0.2,0,0.3,0.1,0.5c-0.3-0.1-0.6-0.1-0.9-0.1
	c-2,0-3.5,1.6-3.5,3.5c0,2,1.6,3.6,3.5,3.6c0.6,0,1.3-0.2,1.8-0.5C5.8,19.8,6.6,20,7.4,20c1.8,0,3.2-0.8,3.2-1.7v-0.9
	c-0.5,0.7-1.7,1.2-3.2,1.2c-0.3,0-0.7,0-1-0.1c0.1-0.1,0.2-0.3,0.3-0.4c0.3,0,0.5,0,0.8,0c1.8,0,3.2-0.8,3.2-1.7v-1
	c-0.5,0.7-1.7,1.2-3.2,1.2c-0.1,0-0.3,0-0.4,0c0-0.1,0-0.1,0-0.2c0-0.1,0-0.2,0-0.2c0.1,0,0.3,0,0.4,0c1.8,0,3.2-0.8,3.2-1.7v-0.9
	c-0.5,0.7-1.7,1.2-3.2,1.2c-0.3,0-0.5,0-0.8,0c-0.1-0.2-0.2-0.4-0.4-0.5c0.4,0.1,0.8,0.1,1.2,0.1c1.8,0,3.2-0.8,3.2-1.7v-1.4
	C10.6,10.2,9.2,9.4,7.5,9.4z M6.5,16.5c0,1.6-1.3,2.9-2.9,2.9S0.7,18,0.7,16.5s1.3-2.9,2.9-2.9S6.5,14.8,6.5,16.5z M7.5,12.5
	c-1.4,0-2.6-0.6-2.6-1.3S6,9.8,7.5,9.8s2.6,0.6,2.6,1.3C10,11.9,8.9,12.5,7.5,12.5z M7.5,10.1c-1.2,0-2.2,0.5-2.2,1.1
	c0,0.6,1,1.1,2.2,1.1s2.2-0.5,2.2-1.1C9.6,10.5,8.7,10.1,7.5,10.1z M8.2,11.7c-0.1,0.1-0.3,0.1-0.6,0.1V12H7.4v-0.1
	c-0.3,0-0.6-0.1-0.9-0.2l0.3-0.2c0.2,0.1,0.4,0.2,0.6,0.2v-0.4c-0.3,0-0.5-0.1-0.6-0.1c-0.1,0-0.2-0.1-0.2-0.2
	c0-0.1,0.1-0.2,0.2-0.3s0.3-0.1,0.5-0.1v-0.1h0.2v0.1c0.3,0,0.5,0,0.7,0.1L8,10.8c-0.2,0-0.3-0.1-0.5-0.1V11l0,0
	c0.3,0,0.5,0.1,0.6,0.1c0.1,0,0.2,0.1,0.2,0.2C8.4,11.5,8.3,11.6,8.2,11.7z M7,10.8C7,10.8,7.1,10.9,7,10.8c0.1,0.1,0.2,0.1,0.3,0.2
	v-0.3c-0.1,0-0.2,0-0.3,0C7.1,10.7,7,10.8,7,10.8z M7.9,11.3c0,0-0.2,0-0.3-0.1v0.3c0.1,0,0.2,0,0.3,0C7.9,11.5,7.9,11.5,7.9,11.3
	C8,11.4,8,11.3,7.9,11.3z" />
</svg>