<svg version="1.1" id="Layer_1" xmlns="http://www.w3.org/2000/svg" xmlns:xlink="http://www.w3.org/1999/xlink" x="0px" y="0px" viewBox="0 0 20 20" style="enable-background:new 0 0 20 20;" xml:space="preserve">
	<path fill="#ffffff" class="st0" d="M8.8,2.8c0.4,0,0.8,0,1.2,0.1c0.1-0.3,0.2-0.6,0.2-1c0,0-0.6-2-1.3-2h0C8.1,0,7.5,2,7.5,2c0,0.4,0.1,0.7,0.2,1
	C8.1,2.9,8.4,2.8,8.8,2.8z M8.9,16.6c0.7,0,1.3-2,1.3-2c0-0.4-0.1-0.7-0.2-1c-0.4,0.1-0.8,0.1-1.2,0.1c-0.4,0-0.8,0-1.2-0.1
	c-0.1,0.3-0.2,0.6-0.2,1C7.5,14.6,8.1,16.6,8.9,16.6C8.8,16.6,8.9,16.6,8.9,16.6z M5.6,13.9C5.8,13.6,6,13.3,6.1,13
	c-0.7-0.4-1.3-0.9-1.7-1.6c-0.3,0.1-0.6,0.3-0.8,0.6c0,0-0.9,1.9-0.3,2.4l0,0C3.8,14.9,5.6,13.9,5.6,13.9z M4.4,5.2
	c0.5-0.6,1-1.2,1.7-1.6C6,3.3,5.8,3,5.6,2.7c0,0-1.8-1.1-2.3-0.6l0,0C2.7,2.7,3.6,4.5,3.6,4.5C3.8,4.8,4.1,5,4.4,5.2z M12.4,3.6
	c0-0.5,0.1-0.9,0.3-1.2c-0.4,0.2-0.6,0.3-0.6,0.3c-0.2,0.3-0.4,0.6-0.5,0.9c0.3,0.2,0.6,0.4,0.9,0.6L12.4,3.6L12.4,3.6z M2.5,9.7
	c0.4,0,0.7-0.1,1-0.2C3.4,9.1,3.4,8.7,3.4,8.3c0-0.4,0-0.8,0.1-1.2C3.2,7,2.9,6.9,2.5,6.9c0,0-2,0.6-2,1.3v0
	C0.5,9.1,2.5,9.7,2.5,9.7z M5.1,5.3C4.6,6,4.3,6.7,4.1,7.5c0,0.3-0.1,0.5-0.1,0.8c0,0.3,0,0.5,0.1,0.8c0.1,0.8,0.5,1.6,1,2.2
	c0.3,0.4,0.7,0.8,1.2,1.1c0.5,0.4,1.2,0.6,1.8,0.7c0.3,0,0.5,0.1,0.8,0.1c0.3,0,0.5,0,0.8-0.1c0.7-0.1,1.3-0.4,1.8-0.7
	c0.4-0.2,0.7-0.5,1-0.9v-0.2V5.3V5.2c-0.3-0.3-0.6-0.6-1-0.9c-0.5-0.4-1.2-0.6-1.8-0.7c-0.3,0-0.5-0.1-0.8-0.1c-0.3,0-0.5,0-0.8,0.1
	C7.4,3.7,6.8,3.9,6.2,4.3C5.8,4.6,5.4,4.9,5.1,5.3z M16,7.3V4.7c0-1-0.4-1-0.6-1c-0.2,0-0.6,0-0.6,1V7v2.1H16L16,7.3L16,7.3z
	 M12,13.7c-0.4,0.6-0.7,1.4-0.7,2.2c0,2.2,1.8,4.1,4.1,4.1c0.3,0,0.6,0,0.8-0.1c1.8-0.4,3.2-2,3.2-4c0-1.5-0.8-2.8-2-3.5V3.9
	c0-1-0.7-1.8-1.6-2.1c-0.2,0-0.3-0.1-0.5-0.1c-0.4,0-0.7,0.1-1,0.3c-0.7,0.4-1.1,1.1-1.1,1.9v1.1v0.1v0.5v0.7v1.7v0.4v1.7v0.7v0.5
	v0.1v1C12.7,12.8,12.3,13.2,12,13.7z M15.4,3.4c0.7,0,1,0.6,1,1.3v2.7v1.7v0.1v4.5c1,0.3,1.5,1.1,1.6,2c0,0.1,0,0.1,0,0.2
	c0,1.4-1.1,2.6-2.6,2.6s-2.6-1.1-2.6-2.6c0-0.1,0-0.1,0-0.2c0-0.5,0.2-0.9,0.5-1.2c0.3-0.3,0.6-0.6,1.1-0.7v-1V9.6V9.1V7.1V4.7
	C14.4,4,14.6,3.4,15.4,3.4z M16.7,17.5c0.5-0.6,0.8-1.3,0.7-2c0-0.5-1-0.5-0.9,0c0.1,0.6-0.1,1.1-0.6,1.6
	C15.5,17.5,16.3,17.9,16.7,17.5z" />
</svg>