<?xml version="1.0" encoding="utf-8"?>
<!-- Generator: Adobe Illustrator 19.2.0, SVG Export Plug-In . SVG Version: 6.00 Build 0)  -->
<svg version="1.1" id="Layer_1" xmlns="http://www.w3.org/2000/svg" xmlns:xlink="http://www.w3.org/1999/xlink" x="0px" y="0px"
	 viewBox="0 0 109.6 100" style="enable-background:new 0 0 109.6 100;" xml:space="preserve">
<style type="text/css">
	.st0{fill:#FFFFFF;}
</style>
<g>
	<g>
		<path class="st0" d="M20.1,80.1l1.4,1.2c0.9,0.8,1.1,1.8,0.3,2.6c-0.5,0.6-1.1,0.7-1.9,0.4c0.1,0.3,0.1,0.6,0,0.9L19.5,88
			l-0.8-0.7l0.3-1.9c0.1-0.9,0.1-1.4-0.3-1.8l-0.2-0.2l-1.8,2.1l-0.7-0.6L20.1,80.1z M19.5,83.2c0.6,0.5,1.1,0.5,1.6,0.1
			c0.5-0.5,0.3-1-0.3-1.6l-0.5-0.5L19,82.6L19.5,83.2z"/>
		<path class="st0" d="M24.7,84.1l3,2.1l-0.5,0.7l-2.4-1.6l-1.1,1.6l2.3,1.6L25.7,89l-2.3-1.6L22.3,89l2.4,1.6l-0.5,0.7l-3.1-2.2
			L24.7,84.1z"/>
		<path class="st0" d="M30.8,88.7l-2-1l0.3-0.7l4.8,2.5l-0.3,0.7l-2-1L29.1,94l-0.8-0.4L30.8,88.7z"/>
		<path class="st0" d="M36.6,90.5l0.6,0.2l0.4,6.7L36.7,97l-0.1-2l-2.4-0.9l-1.4,1.4l-0.9-0.3L36.6,90.5z M36.6,94.3l-0.1-2.4
			l-1.7,1.8L36.6,94.3z"/>
		<path class="st0" d="M41.3,92l0.9,0.2l-1.6,5.9l-0.9-0.2L41.3,92z"/>
		<path class="st0" d="M44.5,92.8l0.9,0.1l-0.9,5.3l2.9,0.5l-0.1,0.8l-3.8-0.6L44.5,92.8z"/>
		<path class="st0" d="M53.3,93.7H54l2.3,2.5l2.1-2.7h0.7l0.3,6.1l-0.9,0.1l-0.2-4.8l-2,2.6l-2.2-2.4l0.2,4.8l-0.9,0.1L53.3,93.7z"
			/>
		<path class="st0" d="M61.5,93.1l3.6-0.7l0.1,0.7l-2.8,0.5l0.3,1.8l2.7-0.5l0.1,0.8L63,96.4l0.3,1.9l2.9-0.5l0.1,0.8l-3.7,0.7
			L61.5,93.1z"/>
		<path class="st0" d="M67.3,92l0.7-0.3l2.9,1.8l1.3-3.2l0.7-0.3l2,5.8l-0.8,0.3l-1.6-4.5l-1.2,3l-2.8-1.7l1.6,4.5l-0.8,0.3L67.3,92
			z"/>
		<path class="st0" d="M74.9,89.1l1.6-0.8c1.1-0.5,2-0.3,2.4,0.5c0.3,0.5,0.2,1.1-0.2,1.6c0.9-0.2,1.6,0.1,2,0.8
			c0.5,0.9,0.1,1.8-1.1,2.4l-1.9,0.9L74.9,89.1z M77.4,90.8c0.8-0.4,1-0.9,0.7-1.5c-0.3-0.5-0.7-0.6-1.4-0.3l-0.7,0.4l0.9,1.6
			L77.4,90.8z M78.1,93.5l1-0.5c0.7-0.4,0.9-0.8,0.7-1.4c-0.3-0.6-0.9-0.7-1.7-0.2l-0.9,0.5L78.1,93.5z"/>
		<path class="st0" d="M80.4,86.2l3-2.1l0.5,0.7l-2.4,1.6l1.1,1.6l2.3-1.6l0.5,0.7l-2.3,1.6l1.1,1.6l2.4-1.6l0.5,0.7l-3.2,2.2
			L80.4,86.2z"/>
		<path class="st0" d="M85.2,82.7l1.4-1.2c0.9-0.8,1.9-0.8,2.6,0c0.5,0.6,0.6,1.2,0.1,1.9c0.3-0.1,0.6,0,0.9,0.1l2.6,0.7L92,84.9
			l-1.8-0.5c-0.8-0.2-1.4-0.3-1.8,0.1l-0.2,0.2l1.8,2.1l-0.7,0.6L85.2,82.7z M88.2,83.7c0.6-0.5,0.7-1,0.3-1.6
			c-0.5-0.5-0.9-0.5-1.6,0.1l-0.5,0.5l1.3,1.4L88.2,83.7z"/>
	</g>
	<g>
		<polygon class="st0" points="40.6,38.5 31.9,38.5 31.9,53.9 40.8,53.9 40.8,51.9 34.1,51.9 34.1,47.1 40.4,47.1 40.4,45.1 
			34.1,45.1 34.1,40.5 40.6,40.5 		"/>
		<polygon class="st0" points="57.2,38.5 49,38.5 49,53.9 51.2,53.9 51.2,46.7 57.2,46.7 57.2,44.8 51.2,44.8 51.2,40.5 57.2,40.5 
					"/>
		<polygon class="st0" points="29.4,53.9 29.4,38.5 27.3,38.5 27.3,50.4 16.9,38.5 15.2,38.5 15.2,53.9 17.3,53.9 17.3,42.1 
			27.5,53.9 		"/>
		<path class="st0" d="M85.1,38.3c-5,0-8.2,3.6-8.2,7.9c0,4.2,3.2,7.9,8.2,7.9c5.2,0,8.3-3.7,8.3-7.9C93.4,41.9,90.2,38.3,85.1,38.3
			z M85.1,52.1c-3.4,0-5.9-2.5-5.9-5.9c0-3.4,2.6-5.9,5.9-5.9c3.4,0,6,2.5,6,5.9C91.1,49.6,88.6,52.1,85.1,52.1z"/>
		<path class="st0" d="M75.3,46.2c0-4.3-3.2-7.9-8.2-7.9c-5,0-8.2,3.6-8.2,7.9c0,4.2,3.2,7.9,8.2,7.9C72.2,54.1,75.3,50.3,75.3,46.2
			z M67,52.1c-3.4,0-5.9-2.5-5.9-5.9c0-3.4,2.6-5.9,5.9-5.9c3.4,0,6,2.5,6,5.9C73.1,49.6,70.5,52.1,67,52.1z"/>
		<path class="st0" d="M101.4,38.5h-5.9v15.3h6c5.1,0,8.2-3.7,8.2-7.7C109.5,42.5,107,38.5,101.4,38.5z M101.1,51.9h-3.5V40.5h3.4
			c4.3,0,6.3,2.6,6.3,5.7C107.3,48.1,106.1,51.9,101.1,51.9z"/>
		<polygon class="st0" points="8.2,44.8 2.2,44.8 2.2,40.5 8.2,40.5 8.2,38.5 0,38.5 0,53.9 2.2,53.9 2.2,46.7 8.2,46.7 		"/>
		<rect x="10.5" y="38.5" class="st0" width="2.2" height="15.3"/>
	</g>
	<g>
		<path class="st0" d="M87.2,28.6l0.7-0.3l-2-3.6l-6.9,3.8l0.4,0.7c0,0,3.1-1.7,3.3-1.8c0.1,0.2,1.5,2.6,1.5,2.6l0.7-0.3
			c0,0-1.4-2.4-1.5-2.6c0.2-0.1,2.2-1.2,2.3-1.3C85.6,25.9,87.2,28.6,87.2,28.6z"/>
		<path class="st0" d="M40,18.4l-0.4-0.6c0,0-2.8,1.9-3,2c-0.1-0.2-1.5-2.2-1.6-2.4c0.2-0.2,2.9-2,2.9-2l-0.4-0.7c0,0-2.7,1.8-2.9,2
			c-0.1-0.2-1.4-2.2-1.6-2.4c0.2-0.1,3-2,3-2l-0.4-0.6l-3.7,2.4l4.4,6.6L40,18.4z"/>
		<path class="st0" d="M29.4,28.5c0,0-5.9-3.6-6.1-3.8c0.1-0.2,1.5-2.4,1.5-2.4l-0.6-0.4l-3.4,5.6l0.6,0.4c0,0,1.4-2.2,1.5-2.4
			c0.2,0.1,6.1,3.8,6.1,3.8L29.4,28.5z"/>
		<path class="st0" d="M44.5,9c0.9-0.3,1.8-0.3,2.8,0L47.5,9l-0.3-0.9h-0.1C45.9,8,45.2,8,44.4,8.2c-1.1,0.3-2.1,1.1-2.6,2
			c-0.5,0.9-0.6,2-0.3,3c0.7,2.2,2.9,3.4,5.3,2.8c0.9-0.3,1.8-0.7,2.5-1.4l0.1-0.1l-0.9-3.1L46,12.2l0.2,0.7c0,0,1.4-0.4,1.6-0.5
			c0.1,0.2,0.5,1.6,0.5,1.8c-0.5,0.5-1,0.7-1.8,0.9c-2.3,0.7-3.7-0.6-4.2-2.2c-0.3-0.9-0.1-1.8,0.3-2.5C42.9,9.7,43.6,9.2,44.5,9z"
			/>
		<path class="st0" d="M53.3,14.2c-1.2,0-2.5-0.7-2.6-2.7L50.6,7h-0.9l0.1,4.5c0,1.1,0.4,2,1,2.6c0.6,0.6,1.4,0.9,2.4,0.9
			s1.8-0.3,2.3-0.9c0.6-0.7,0.9-1.6,0.9-2.8l-0.1-4.3h-0.9l0.1,4.3C55.8,13.4,54.6,14.2,53.3,14.2z"/>
		<path class="st0" d="M82,19.4c-0.7-0.9-1.8-1.4-2.9-1.4s-2.1,0.3-2.9,1c-0.8,0.7-1.3,1.7-1.4,2.8s0.3,2.2,1.1,3
			c1.6,1.8,4.1,2,5.8,0.4c0.8-0.7,1.3-1.7,1.4-2.8C83.1,21.3,82.7,20.3,82,19.4z M81.1,24.6c-1.4,1.2-3.4,1.1-4.6-0.3
			c-1.2-1.4-1.1-3.4,0.3-4.7c0.7-0.6,1.5-0.9,2.4-0.8c0.9,0.1,1.7,0.5,2.3,1.1c0.6,0.7,0.9,1.5,0.9,2.4C82.2,23.2,81.8,24,81.1,24.6
			z"/>
		<path class="st0" d="M34.7,22.1l0.6-0.6l-5.7-5.5L29,16.7c0,0,2.4,2.3,2.6,2.4c-0.1,0.2-3.2,3.3-3.4,3.5c-0.2-0.1-2.6-2.4-2.6-2.4
			l-0.6,0.6l5.7,5.5l0.6-0.6c0,0-2.4-2.4-2.6-2.5c0.1-0.2,3.2-3.3,3.4-3.5C32.3,19.8,34.7,22.1,34.7,22.1z"/>
		<path class="st0" d="M70.4,10.7l-2.5-1.3l-3.6,7.1l2.6,1.4c1.1,0.6,2.3,0.7,3.3,0.4c1.3-0.4,2-1.5,2.3-2c0.3-0.6,0.7-1.8,0.3-3
			C72.5,12.2,71.6,11.3,70.4,10.7z M71.6,15.8c-0.4,0.8-1,1.4-1.8,1.6c-0.8,0.3-1.8,0.2-2.6-0.3c0,0-1.6-0.8-1.8-0.9
			c0.1-0.2,2.8-5.5,2.9-5.7c0.2,0.1,1.8,0.9,1.8,0.9c1.2,0.6,2,1.7,2,2.9C72,14.8,71.9,15.3,71.6,15.8z"/>
		<rect x="54.3" y="10.8" transform="matrix(0.123 -0.9924 0.9924 0.123 40.0023 67.6521)" class="st0" width="7.9" height="0.9"/>
		<path class="st0" d="M61,7.6l-1.9,7.7l4.5,1.1l0.2-0.7c0,0-3.4-0.8-3.7-0.9c0.1-0.3,1.7-7,1.7-7L61,7.6z"/>
	</g>
	<path class="st0" d="M35.5,41.4h-0.3c-0.1,0-0.1,0-0.2,0v0.2l0.1,0.1c0.2-0.1,0.4-0.1,0.5-0.1L35.5,41.4z M35.5,48
		c-0.1,0.3-0.3,0.5-0.5,0.9v0.5c0.3-0.5,0.5-0.9,0.7-1.4H35.5z M39.8,41.4c-0.3,0.5-0.5,1.1-0.9,1.8l-0.3-0.5h-0.1
		c0.3-0.5,0.5-0.9,0.7-1.3l0.1-0.1H39c-0.2,0.3-0.4,0.8-0.7,1.3c-0.1-0.1-0.3-0.1-0.4-0.2l0.3,0.5l-0.1,0.1l0,0l0,0V43l-0.1-0.2
		c-0.1-0.1-0.2-0.1-0.3-0.1c0.1-0.1,0.1-0.3,0.2-0.4l0.4-0.7l-0.2-0.1l-0.4,0.7c-0.1,0.1-0.1,0.3-0.2,0.5c-0.1,0-0.2-0.1-0.3-0.1
		l0.1,0.3c-0.1,0.1-0.1,0.3-0.2,0.4c-0.1-0.1-0.3-0.1-0.5-0.2l0.5-1.1l-0.2-0.1l-0.7,1.2c-0.1,0.2-0.2,0.4-0.3,0.6l-0.2-0.3
		c-0.1,0.3-0.2,0.5-0.3,0.7h0.5c0.2-0.3,0.3-0.6,0.5-0.9l0,0l0.2,0.3c0.1,0.1,0.1,0.1,0.2,0.1c-0.1,0.2-0.2,0.3-0.3,0.5l-0.1-0.1
		l0.1,0.1c0,0,0,0,0,0.1h0.3c0.1-0.1,0.2-0.3,0.3-0.5c0.1,0.1,0.3,0.1,0.5,0.2c-0.1,0.1-0.1,0.2-0.2,0.3h0.2
		c0.1-0.3,0.3-0.5,0.4-0.8h0.1l-0.1-0.1V43l0.1,0.2c0.1,0.1,0.2,0.1,0.3,0.1c-0.1,0.2-0.2,0.4-0.3,0.5h0.3c0.1-0.2,0.2-0.3,0.3-0.5
		H39l0.2,0.3c0.1-0.1,0.1-0.2,0.2-0.2L39.1,43c0.4-0.8,0.7-1.5,1-1.9h-0.3V41.4z M37.7,43.8l-0.2-0.3c-0.1,0-0.1-0.1-0.2-0.1
		c0.1-0.1,0.1-0.2,0.1-0.3c0.1,0.1,0.3,0.1,0.5,0.2C37.9,43.5,37.9,43.6,37.7,43.8z M38.4,43.1L38.4,43.1c0.1,0,0.3,0,0.3,0.1
		C38.6,43.2,38.5,43.2,38.4,43.1z M38.8,43.3l-0.1-0.1C38.8,43.2,38.8,43.2,38.8,43.3C38.9,43.3,38.8,43.3,38.8,43.3z M35,43.2
		l0.2-0.3L35,42.7V43.2z M81.2,43c-0.1,0.1-0.1,0.1-0.1,0.2c0.1,0,0.1,0,0.3,0L81.2,43z M38.5,51c0.5-1,1.1-2,1.6-3h-0.3
		c-0.4,0.7-0.8,1.4-1.2,2.2c0.2-0.4,0.4-0.9,0.5-1.4L39,48.5c0.1-0.1,0.2-0.3,0.3-0.5H39c-0.5,1-1.1,2-1.7,3h0.3
		c0.3-0.5,0.7-1.1,0.9-1.7c-0.2,0.4-0.4,0.9-0.7,1.2l0.3,0.5l0,0c0-0.1,0.1-0.1,0.1-0.1c0,0.1-0.1,0.1-0.1,0.1H38.5z M94.5,49.2
		L94.3,49c0,0-0.3,0.5-0.3,0.7c-0.1,0-0.3,0.1-0.5,0.1c-0.1,0.1-0.1,0.3-0.2,0.5l0.9-0.3l0.1-0.1l0.3-0.5L94.5,49.2L94.5,49.2z
		 M35.4,44l0.9-1.6l-0.2-0.1l-0.9,1.6C35.1,44,35,44.1,35,44.2h0.3C35.3,44.2,35.3,44.1,35.4,44z M35,42.7l0.9-0.3
		c0.3-0.1,1.2-0.5,2.3-0.9h-0.9c-0.7,0.3-1.3,0.5-1.5,0.6L35,42.4V42.7z M50.4,37.5c-0.2,0.1-0.3,0.1-0.5,0.1h1
		c0.4-0.3,0.7-0.8,0.8-1.4c0.3-1.4-0.4-2.9-1.6-3.4c-0.5-0.3-1.1-0.3-1.6,0c-0.5,0.3-0.9,0.9-1.1,1.6c-0.2,1.2,0.3,2.6,1.3,3.3h1
		c-0.2,0-0.4-0.1-0.6-0.1c-0.9-0.5-1.6-1.8-1.4-3c0.1-0.6,0.4-1.1,0.9-1.4c0.3-0.2,0.8-0.2,1.2,0c0.9,0.5,1.6,1.8,1.4,3
		C51.2,36.8,50.8,37.3,50.4,37.5z M53.7,37.5C53.7,37.5,53.7,37.6,53.7,37.5l0.3,0.1l0,0l0.1-0.1C53.9,37.5,53.8,37.5,53.7,37.5z
		 M52.2,47.6L52.2,47.6L52.2,47.6C52.1,47.7,52.1,47.7,52.2,47.6z M55.8,42.4L55.8,42.4L55.8,42.4L55.8,42.4z M54.4,37.5
		C54.4,37.6,54.4,37.6,54.4,37.5L54.4,37.5C54.5,37.6,54.4,37.6,54.4,37.5z M55.6,43.8c0.3-0.9,0.8-1.8,1.4-2.4h-0.5
		c0,0,0,0.1-0.1,0.1l-0.3,0.1c-0.2,0.1-0.3,0.3-0.4,0.4c0.1,0.1,0.1,0.2,0.2,0.3c-0.2,0.3-0.4,0.7-0.6,1.1c-0.1,0-0.1,0.1-0.2,0.1
		v0.1c0,0.1,0,0.2-0.1,0.3c0,0.1,0,0.1,0.1,0.1L55.6,43.8L55.6,43.8z M81.3,44c0.2,0,0.5,0.1,0.7-0.1l-0.2-0.4
		c-0.2,0.1-0.5,0.1-0.7,0.1L81.3,44z M44,55.2c-0.1,0-0.1,0.1-0.2,0.1c0.2,0.9,0.7,3.9,0.1,6.2c0.3-0.1,0.7-0.2,1.1-0.3
		C45,60.2,45.1,57.5,44,55.2z M46,60.8c0.1-1,0.1-3.7-0.9-5.9c-0.1,0-0.1,0.1-0.2,0.1c0.1,0.9,0.7,3.8,0.1,6.2
		C45.3,61,45.6,60.9,46,60.8z M94.5,51.9L94.5,51.9l0.1-1V51c0,0.1,0,0.3-0.3,0.7L94.5,51.9z M10.4,57.3
		C10.5,57.3,10.5,57.3,10.4,57.3L10.4,57.3L10.4,57.3z M42.9,55.5c-0.1,0-0.2,0.1-0.3,0.1c0.1,0.7,0.7,3.8,0.1,6.2
		c0.3-0.1,0.7-0.3,1-0.3C43.9,60.6,44.1,57.8,42.9,55.5z M41.6,56c0.2,1,0.7,4.1,0,6.3c0.3-0.1,0.7-0.3,1.1-0.5
		c0.1-1,0.3-3.7-0.9-5.9C41.7,56,41.7,56,41.6,56z M38.1,48c-0.4,0.7-0.7,1.4-1.1,2.1V50c0,0,0,0,0.1,0L37,50
		c-0.1-0.1-0.1-0.1-0.2-0.2l-0.1-0.1l0,0l-0.1-0.1l-0.1,0.1c0.3-0.5,0.6-1.1,0.9-1.6h-0.3c-0.3,0.6-0.7,1.3-1.1,1.9
		c-0.1,0.1-0.2,0.1-0.3,0.2c0-0.2-0.1-0.3-0.3-0.2c0.3-0.7,0.7-1.3,1.1-2h-0.3c-0.3,0.7-0.7,1.3-1.1,2h-0.1c0,0.1,0,0.1,0,0.1
		c-0.1,0.1-0.1,0.3-0.2,0.3v0.5c0.1-0.2,0.2-0.4,0.3-0.6l0,0c0,0.1,0,0.1,0,0.1l0,0c0.1,0.1,0.1,0.3,0.3,0.4v0.1h0.3
		c0-0.1,0.1-0.1,0-0.3l0.1-0.1c0.2-0.1,0.3-0.2,0.5-0.3c-0.1,0.2-0.1,0.4-0.3,0.5c0,0.1,0.1,0.1,0.1,0.1H37c0.1-0.1,0.1-0.1,0.2-0.1
		L37,50.3c0.5-0.8,0.9-1.6,1.4-2.4h-0.2V48z M35.7,50.5L35.7,50.5l-0.1-0.1C35.7,50.4,35.7,50.4,35.7,50.5
		C35.7,50.4,35.7,50.5,35.7,50.5L35.7,50.5z M14.3,51.2c-0.1,0-0.3,0-0.5,0.1l-0.2,0.1v0.4l0.1,0.1h-0.1v0.4
		c0.1-0.1,0.5-0.3,0.7-0.4V51.2z M21.3,51.7l0.1,0.3c0.3,0.3,0.6,0.5,0.9,0.7c0.7,0.3,1.5,0.6,2.2,0.9c0.6,0.2,1.2,0.3,1.8,0.3
		c-0.1-0.1-0.3-0.3-0.5-0.5c-0.5-0.1-1.1-0.1-1.6-0.3c-0.1-0.1-0.3-0.1-0.3-0.1c0.3,0,0.5,0,0.7-0.1l0,0c0.3,0.1,0.6,0.1,0.9,0.2
		c-0.1-0.1-0.3-0.3-0.4-0.5c-0.3-0.1-0.5-0.1-0.8-0.2c-0.6-0.2-1.2-0.4-1.8-0.7c0.2,0.1,0.4,0.1,0.6,0L23,51.3
		c0.5,0.2,0.9,0.4,1.5,0.5c0.1,0,0.2,0.1,0.3,0.1c-0.1-0.2-0.3-0.4-0.5-0.5c-1.1-0.4-2.3-0.7-3.2-1.6l0.3,0.5
		c0.3,0.3,0.5,0.5,0.9,0.6c0.1,0.1,0.2,0.1,0.3,0.1c-0.2,0-0.3-0.1-0.5-0.1l0.3,0.4c-0.4-0.2-0.8-0.5-1.2-0.8l0.3,0.5
		c0.3,0.3,0.6,0.5,0.9,0.7c0.5,0.2,0.9,0.4,1.5,0.6c-0.1,0-0.1,0-0.2,0l0.3,0.4c-0.9-0.3-1.8-0.7-2.6-1.3L21.2,51h-0.3L21.3,51.7
		L21.3,51.7z M14.3,50.9c-0.1,0-0.3,0-0.4,0c-0.1,0-0.2,0-0.3,0V51c0.1,0,0.2,0.1,0.2,0.1h-0.2l0,0C13.8,51,14,51,14.3,50.9
		L14.3,50.9z M54.1,3.9c19.1,0,35.1,13.4,39.2,31.3h0.6C89.8,16.9,73.5,3.3,54.1,3.3S18.4,16.9,14.2,35.2h0.6
		C19,17.3,35,3.9,54.1,3.9z M21.2,48.8c0.3,0.3,0.5,0.4,0.9,0.6c0.2,0.1,0.4,0.2,0.6,0.3c-0.1-0.2-0.3-0.4-0.5-0.5
		c-0.4-0.2-0.9-0.4-1.2-0.7L21.2,48.8z M21.3,50c0.1,0.1,0.3,0.1,0.5,0.1c0.1,0.1,0.2,0.1,0.3,0.2c0.5,0.2,1.1,0.5,1.6,0.7
		c-0.1-0.2-0.3-0.4-0.5-0.5c-0.5-0.2-0.9-0.3-1.4-0.6l-0.1-0.2c-0.1,0-0.1,0-0.2,0c-0.2-0.1-0.4-0.3-0.6-0.4l0.2,0.3
		c-0.1,0-0.1,0-0.1,0L21.3,50z M20.9,47.7l0.2,0.3c0.1,0.1,0.2,0.2,0.3,0.3C21.3,48.1,21.1,47.9,20.9,47.7z M13.6,53
		c0.2,0,0.5-0.1,0.7-0.1v-0.3c-0.3-0.1-0.5-0.1-0.7-0.2V53z M75.8,48.8c0.1,0.1,0.1,0.3,0.2,0.4l0.2-0.1c0,0.1,0.1,0.1,0.1,0.1
		l0.2-0.1c-0.1-0.4-0.2-0.8-0.3-1.2H76C76,48.1,75.9,48.5,75.8,48.8z M76.8,42.4c-0.4,0.2-0.8,0.3-1.1,0.4c-0.1,0-0.1,0-0.1,0
		c0.1,0.1,0.1,0.2,0.1,0.3l0,0c0.3-0.1,0.6-0.1,0.9-0.3C76.7,42.7,76.8,42.5,76.8,42.4z M77.3,41.5c-0.5,0.3-1.1,0.7-2,0.8
		c0.1,0.1,0.1,0.1,0.1,0.3c0.6-0.1,1.1-0.3,1.6-0.5C77.1,41.9,77.2,41.7,77.3,41.5z M79.1,39.4c0.3-0.7,0.3-1.3,0.3-1.6h-0.1
		c0.1-0.4,0.1-0.8,0.1-1h-0.2c0.1-0.5,0.1-0.8,0.1-0.9h-0.3c0,0.3,0.1,3.3-2.4,3.9l0.1,0.3c1.8-0.4,2.4-1.9,2.6-3
		c-0.1,1-0.7,3.4-3.2,3.9l0.1,0.3c2-0.3,2.8-1.7,3.2-2.9c-0.1,0.4-0.2,0.9-0.5,1.4C78.8,39.8,78.9,39.6,79.1,39.4z M76.1,44.8
		C76.1,44.8,76.1,44.7,76.1,44.8L76.1,44.8C76.1,44.7,76.1,44.7,76.1,44.8L76.1,44.8z M76.1,47.6L76.1,47.6L76.1,47.6L76.1,47.6z
		 M31,44.5l-0.1-0.1c-0.1,0.1-0.3,0.4-0.5,0.8v0.4C30.6,45.1,30.9,44.8,31,44.5L31,44.5z M20.4,57.7l0.3,0.5
		c0.1,0.1,0.2,0.1,0.3,0.1l-0.3-0.5C20.5,57.8,20.5,57.7,20.4,57.7z M30.3,54.4c0.2-0.3,0.4-0.7,0.7-1.1v-0.4
		c-0.2,0.4-0.5,0.7-0.7,1.1V54.4z M67.4,61.6c0-2.2-0.1-4.5-0.1-6.6c-0.1,0-0.1,0-0.1,0c0,2.3,0,4.5,0.1,6.8c0,0.1,0.1,0.2,0.1,0.3
		l0,0l0,0c0.1,0.1,0.1,0.1,0.1,0.1l0.1,0.1c0-0.1-0.1-0.1-0.1-0.2l0,0c0-0.1-0.1-0.1-0.1-0.1C67.4,61.9,67.4,61.7,67.4,61.6z
		 M39.4,48L39.4,48c0.1,0.1,0.1,0,0.1,0H39.4z M31,48.3c-0.2,0.4-0.5,0.7-0.7,1.1V50c0.2-0.3,0.4-0.7,0.7-1.1V48.3z M41,48h-0.3
		c-0.5,1-1.1,2-1.6,3h0.3C39.9,50,40.5,49,41,48z M41.5,40.4c0.1-0.1,0.1-0.2,0.1-0.2l-0.1-0.1V40.4z M31,49.9
		c-0.2,0.4-0.5,0.7-0.7,1.1v0.4c0.1-0.1,0.2-0.3,0.3-0.5c0,0.2,0.1,0.5,0.2,0.7c-0.1,0.1-0.3,0.1-0.5,0.2v0.5c0,0,0,0,0.1,0
		c0,0,0,0.1-0.1,0.1v0.6c0.1,0,0.1,0,0.2-0.1c0.1-0.1,0.2-0.1,0.3-0.3l-0.2-0.3c0.1-0.1,0.1-0.1,0.1-0.2c0.1-0.1,0.2-0.1,0.3-0.1
		v-0.8c-0.1,0.1-0.1,0.1-0.1,0.3c0-0.1-0.1-0.2,0.1-0.3l-0.3-0.4c0.1-0.2,0.2-0.4,0.3-0.6L31,49.9L31,49.9z M31,38.4
		c-0.2,0-0.5,0.1-0.7,0.1v0.3c0.2,0,0.5-0.1,0.7-0.1V38.4z M25.1,54.8c-0.5-0.1-1.1-0.1-1.6-0.3c-0.9-0.3-1.8-0.5-2.4-1.1l0.2,0.4
		c0.6,0.5,1.2,0.9,2,1c0.6,0.3,1.1,0.4,1.7,0.6c0.1,0.1,0.4,0.1,0.7,0.2h-0.1l0.3,0.5c0.2,0,0.4-0.1,0.6-0.1l-0.3-0.4h0.1L25.1,54.8
		z M39,48h-0.5c-0.1,0.2-0.1,0.4-0.3,0.5l0.3,0.5C38.7,48.7,38.8,48.3,39,48z M20.3,51.9l0.3,0.5c0.2,0.3,0.5,0.4,0.7,0.6l-0.3-0.5
		C20.7,52.3,20.4,52.1,20.3,51.9z M31,43.9c-0.1,0-0.1,0-0.1,0.1c-0.2,0.1-0.3,0.1-0.5,0.1v0.4c0.2-0.1,0.4-0.1,0.6-0.1H31V43.9z
		 M54.1,2.2c20.1,0,36.9,14.2,41.1,33h2.2C93.2,15.1,75.4,0,54.1,0S15,15.1,10.9,35.2h2.2C17.2,16.3,34,2.2,54.1,2.2z M31,40L31,40
		c-0.2,0-0.5,0-0.7,0v0.3c0.2,0,0.5-0.1,0.7-0.1V40z M31,45.8v-0.7c-0.1,0.1-0.1,0.1-0.1,0.1l0.1,0.1c-0.1,0.3-0.3,0.5-0.5,0.8
		c-0.1,0.1-0.1,0.1-0.1,0.2l-0.1-0.1v1.2c0.1-0.1,0.1-0.1,0.1-0.1c0.1-0.1,0.1-0.1,0.3-0.1c-0.1,0.2-0.3,0.5-0.4,0.7v0.4
		c0.2-0.3,0.4-0.7,0.7-1.1v-0.6c-0.2,0.1-0.4,0.1-0.6,0.1c0,0,0-0.1,0.1-0.1c0.1,0,0.1,0,0.1,0l-0.1-0.1c0.1-0.1,0.1-0.2,0.2-0.3
		C30.8,46.2,30.9,46,31,45.8z M21.9,59.8c-0.1-0.1-0.1-0.1-0.2-0.1l0.3,0.5c0.1,0.1,0.1,0.1,0.2,0.1L21.9,59.8z M54.6,59.4
		c-0.1-1.2-0.4-3.8-0.9-5.7c-0.1,0-0.1,0-0.2,0c0.1,0.8,0.4,3.5,0.2,5.8C54,59.5,54.4,59.4,54.6,59.4z M42,50.1
		C42.1,50.2,42.1,50.2,42,50.1C42.1,50.2,42.1,50.2,42,50.1C42.1,50.2,42.1,50.2,42,50.1z M75.5,49.8C75.5,49.8,75.5,49.8,75.5,49.8
		c-0.1,0-0.1,0-0.1,0.1L75.5,49.8z M66,45.9c0,0.2-0.2,0.4-0.4,0.3l0.1,0.2c0.2,0,0.4-0.1,0.4-0.3c0.1-0.1,0-0.3-0.1-0.4
		C66,45.8,66,45.8,66,45.9L66,45.9L66,45.9z M55.7,59.4c-0.2-1.3-0.4-3.9-0.8-5.7h-0.3c0,0.6,0.3,3.4,0.1,5.7
		C55.1,59.4,55.4,59.4,55.7,59.4z M66,45.9L66,45.9C66,45.8,66,45.8,66,45.9C66,45.8,66,45.8,66,45.9z M91.9,52.2
		c-0.1,0.1-0.3,0.3-0.4,0.4c0.4-0.1,0.7-0.3,1-0.4c-0.1,0-0.1,0-0.1,0C92.2,52.1,92,52.1,91.9,52.2z M67.6,48.3
		c0.1,0,0.1-0.1,0.1-0.1c1.3-0.5,2.5-1.1,3-1.7l-0.2-0.2c-0.4,0.4-1.3,0.9-2.3,1.4c0-0.1,0.1-0.1,0.1-0.2h-0.1c0-0.1,0-0.2,0-0.3
		c0.7-0.3,1.4-0.7,1.8-1L69.8,46c-0.4,0.3-0.9,0.7-1.6,0.9c0-0.1,0-0.3,0-0.4l0,0c0-0.1,0.1-0.1,0.1-0.1c0.3-0.1,0.6-0.3,0.9-0.5
		l-0.1-0.2c-0.2,0.1-0.5,0.3-0.7,0.4c-0.1-1-3.1-1.5-6.1-1.6c-0.1,0.2-0.1,0.5-0.2,0.7c1.1,0,2,0.1,2.6,0.2l0.1,0.1
		c0.4,0.1,0.8,0.2,1.1,0.3c0-0.1,0-0.1-0.1-0.1l-0.1-0.1c0.4,0.1,0.6,0.3,0.6,0.4c0,0.1-0.1,0.2-0.5,0.3l0.1,0.3
		c0.5-0.2,0.7-0.4,0.7-0.7c0-0.7-1.8-1.1-3.5-1.2c2.9,0.1,4.7,0.7,4.7,1.2c0,0.5-2.2,1.2-5.9,1.2c0.1,0.3,0.2,0.7,0.3,0.9
		c1.4,0,2.8-0.1,3.9-0.5H65c0.4-0.1,0.8-0.1,1.2-0.3H66c0.1,0,0.1-0.1,0.2-0.1l0.1-0.2c0.8-0.2,1.4-0.4,1.8-0.7
		c0,0.3,0.1,0.6-0.1,0.9l0,0c0,0.5-2,1.1-5.3,1.2c0.1,0.1,0.1,0.3,0.2,0.3c1.3-0.1,2.5-0.1,3.5-0.4c-0.3,0.3-1.4,0.6-3.2,0.7
		c0.1,0.1,0.2,0.2,0.3,0.3c0.1,0,0.3,0,0.4,0c0,0.1,0.1,0.3,0.1,0.4c0.1,0.1,0.3,0.2,0.4,0.3c0-0.2,0-0.5-0.1-0.7
		c0.1,0,0.2,0,0.3-0.1v0.2l1.1-0.3c0,0,0.3-0.1,0.4-0.1c0,0,0,0.1,0.1,0.1l-1.7,0.4c0.3-0.1,1.6-0.3,1.7-0.4
		c0.1,0.2,0.2,0.5,0.3,0.8c0,0.1,0,0.1,0,0.2l-1.4,0.3h0.1c0.5-0.1,1.1-0.2,1.4-0.3c0,0.1,0,0.1,0,0.1c-0.1,0.1-0.6,0.1-1.1,0.2
		c0.5,0.1,1.1,0.3,1.7,0.3l0,0c0.1,0,0.1-0.1,0.1-0.1s0,0,0,0.1c0,0,0,0,0.1,0v-0.1c0.1-0.1,0.1-0.1,0.3-0.1c0,0.1,0,0.1,0,0.1
		c0.1,0,0.3,0,0.3-0.1c0-0.1,0-0.3,0-0.4c0.1-0.1,0.2-0.1,0.2-0.3c1.2-0.4,2.4-0.9,3.2-1.5c0.1-0.1,0.2-0.3,0.3-0.5
		c-0.8,0.5-2,1.1-3.4,1.6c0.1-0.2,0.1-0.4,0-0.5c1.6-0.6,2.9-1.4,3.7-2c0.1-0.1,0.1-0.3,0.1-0.4c-0.6,0.5-2.1,1.4-3.8,2.1
		c-0.1-0.1-0.1-0.3-0.2-0.4c1.6-0.6,3-1.5,3.6-2l-0.2-0.2c-0.5,0.5-2,1.4-3.5,2C67.8,48.5,67.7,48.3,67.6,48.3z M67.5,48.3
		L67.5,48.3L67.5,48.3C67.4,48.3,67.4,48.3,67.5,48.3z M67.7,49.9c-0.1,0.1-0.1,0.3-0.1,0.5c-0.2,0.1-0.4,0.2-0.7,0.3
		c0.1-0.1,0.1-0.3,0.1-0.5c0-0.5-0.1-0.9-0.3-1.4c0.2-0.1,0.3-0.3,0.3-0.5c0.1,0,0.1-0.1,0.2-0.1l0.1,0.2
		C67.6,49.2,67.9,49.6,67.7,49.9z M22.2,60.9c-0.1,0-0.2,0-0.3-0.1l0.3,0.5c0.1,0.1,0.1,0.1,0.3,0.1L22.2,60.9z M83.2,45.4L83,45
		h-0.2l0.2,0.4H83.2z M95.3,54.8c0.2,2,0.2,4.5-0.3,7.2c0,1.1-1.6,2.1-4.1,2.7c2.3-0.6,3.6-1.6,3.9-2.4c0.1-0.3,0.1-0.7-0.1-0.8
		c-0.2-0.2-0.3-0.1-0.4-0.6c-0.1-0.5-0.5-7.6-1-8.2c-0.4-0.5-0.5-0.4-0.7-0.4c-0.4,0.3-0.9,0.6-1.6,0.8c-0.6,0.5-1.3,0.9-2,1.2
		c1.8-0.3,3.5-0.8,4.1-1.4c-1.4,1.5-5.5,2.2-7,2.4C86,55.4,86,55.5,86,55.6c2.2-0.1,6.3-0.8,7.2-1.7c-1.5,1.6-5.8,2.2-7.4,2.4
		c0,0.1,0,0.2-0.1,0.3c2.2,0,6.5-0.8,7.5-1.7c-1.6,1.7-5.9,2.2-7.6,2.4c0,0.1,0,0.2-0.1,0.3c2.2,0,6.7-0.8,7.7-1.7
		c-1.7,1.8-6,2.2-7.8,2.4c0,0.1,0,0.2,0,0.3c2.3,0.1,6.8-0.8,7.9-1.7c-1.8,1.9-6.1,2.3-8,2.4c0,0.1,0,0.2-0.1,0.3
		c2.4,0.1,7-0.9,8.1-1.7c-1.9,2-6.2,2.3-8.2,2.4c0,0.1,0,0.2-0.1,0.3c2.4,0.1,7.2-0.9,8.3-1.7c-2,2-6.3,2.3-8.4,2.4
		c0,0.1,0,0.2-0.1,0.3c2.4,0.2,7.4-0.9,8.6-1.6c-2.2,2.2-6.5,2.3-8.7,2.4c0,0.1-0.1,0.2-0.1,0.3c2.4,0.3,7.6-0.9,8.8-1.6
		c-2.3,2.3-6.8,2.5-9.1,2.6c-0.1,0.3-0.2,0.4-0.3,0.4c-1,0.2-3.4-0.1-5.5-0.4c-0.8-0.3-1.6-0.5-2.3-0.9c-0.3-0.1-0.5-0.2-0.6-0.2
		c0-0.2,0-0.5-0.1-0.7c-0.2-1.1-0.8-2-1.6-2.6l0.1-0.1c0.2-0.1,0.4-0.3,0.4-0.6c0.1-0.7-0.6-1.5-0.8-1.7c-0.1-0.1-0.2-0.2-0.3-0.3
		c0.1-1.8,0.3-3.5,0.6-4.5c0.1,0,0.1,0.1,0.1,0.1l0.3,0.1l0.3,0.1h0.4c0.1-0.1,0.3-0.1,0.6,0.1l0.2-0.3c-0.5-0.3-0.7-0.1-0.9-0.1H75
		l-0.2-0.1l-0.3-0.1c-0.1,0-0.1-0.1-0.1-0.1c-0.2,0.3-0.4,0.5-0.6,0.7c0.1,0,0.1-0.1,0.1-0.1c-0.1,0.3-0.1,0.5-0.2,0.8
		c-0.5,0.3-1.2,0.6-2.1,0.9c-0.7,0.3-1.5,0.7-2.4,0.8c2-0.3,3.4-0.9,4.4-1.4c-0.1,0.2-0.1,0.5-0.1,0.7c-1.1,0.5-3.1,1.1-5.7,1.2
		c0-0.1,0-0.2,0-0.3c-0.1,0-0.3,0-0.4,0c0,2.8,0.1,6.1,0.1,7.1v0.1l0.1,0.1c0.4,0.5,0.3,2.1,0.3,2.6h0.1c-0.1,0.2-0.3,0.5-0.7,0.7
		c0-0.1,0-0.3,0-0.5c0-0.8-0.1-2-0.5-2.6c-0.1-2.2-0.1-5.2-0.1-7.6c-0.2,0-0.5,0-0.7-0.1c-0.1,0.1-0.3,0.1-0.4,0.1
		c-0.3,0-0.6,0.1-0.9,0c0.1-0.1,0.1-0.2,0.1-0.3c-0.3-0.1-0.7-0.2-1.1-0.3v7.8c-2.6,0.2-6.5-0.3-7.2-1.8c0-0.3,0-0.6,0-0.9
		c0.3,0.2,0.9,0.6,1.8,0.9c0.9,0.3,2.2,0.3,3.2,0.4l1.1,0.1v-0.2v-2.2h0.7v-0.2v-1.6h-0.7V54c-0.2-0.1-0.4-0.2-0.6-0.3h-1.6
		c-0.8,0.1-2.6-0.1-3.8-0.9l0,0c0-0.3,0-0.5,0-0.7c0.7,0.5,2.2,0.7,4.3,0.8c-0.3-0.3-0.6-0.5-0.9-0.9c0,0.2,0,0.4,0,0.4h0.1
		c0,0,0,0.1,0.1,0.1c-1.6-0.1-3-0.3-3.6-0.9c0-0.2,0-0.4-0.1-0.5c0.3,0.1,0.5,0.2,0.9,0.3c0,0.1,0.1,0.3,0.1,0.7h0.3
		c0-0.3,0-0.4-0.1-0.5c0.6,0.1,1.3,0.2,2,0.3c-0.1-0.1-0.2-0.3-0.3-0.4c-0.7-0.1-1.3-0.2-1.8-0.3l0,0c-0.1-0.1-0.1-0.1-0.1-0.2
		c0.1,0.1,0.1,0.2,0.3,0.2c0.3,0,0.7,0.1,1.1,0.1c0.1,0,0.3,0.1,0.5,0.1c-0.1-0.1-0.1-0.1-0.1-0.2C59.1,51,58.9,51,58.8,51
		c-0.3-0.1-0.7-0.1-1.1-0.1c-0.1,0-0.1,0-0.1-0.1v-0.2l-0.1-0.1c0-0.4,0.1-0.9,0.3-1.3c0.1,0.1,0.3,0.1,0.6,0.2
		c-0.1-0.1-0.1-0.3-0.1-0.4c-0.3-0.1-0.5-0.2-0.6-0.3c0.2,0.1,0.4,0.1,0.5,0.1c-0.1-0.1-0.1-0.3-0.1-0.4c-1.1-0.2-1.8-0.5-2-0.7
		h-0.4c0.1,0.3,0.3,0.5,0.8,0.7c-0.4,0.3-0.6,0.6-0.7,1c-0.1-0.5-0.3-1.1-0.4-1.7H55c0.1,0.2,0.1,0.4,0.1,0.5l-0.1-0.1
		c0,0-0.1-0.3-0.1-0.4c-0.1,0-0.3,0-0.3,0c-0.7,0.1-1,0.3-1,0.3l-0.1-0.2v-0.3l0,0l0,0l0,0h-0.3v2.1c-0.3,0-0.5,0-0.9,0
		c0.2-0.2,0.3-0.3,0.5-0.5c0,0.3,0,0.4,0,0.4h0.3v-2.1h-0.3v0.2c-0.1,0.1-0.3,0.4-0.8,0.8v0.3c0.3-0.3,0.6-0.7,0.8-0.8V49
		c-0.1,0.1-0.3,0.3-0.7,0.7h-0.1v0.4c1.4-0.1,2.6,0,3.6,0l0,0v0.1c0,0.1,0.1,0.3,0.2,0.4c0.1,0.2,0.2,0.4,0.3,0.5
		c0.1,0.5,0.1,1.5,0.1,2.6c0,0.2,0,0.4,0,0.6c-0.1-0.3-0.1-0.5-0.1-0.7c-0.1,0-0.3,0-0.4,0c0.1,0.7,0.3,3.5,0.1,5.7
		c0.1,0,0.2,0,0.3,0c0,0.5,0,0.9-0.1,1.4c-0.9,0-1.8,0-2.7,0c-0.1-0.3-0.3-0.7-0.5-1.1c0.2,0,0.5-0.1,0.7-0.1
		c-0.1-1.1-0.5-3.7-0.9-5.8c-0.1,0-0.1,0-0.2,0c0.1,0.5,0.4,3,0.3,5.4c-0.1-0.2-0.2-0.3-0.3-0.5c-0.1-1.1-0.3-2.5-0.6-3.8h-0.3
		c0.1,0.9,0.2,2.1,0.1,3.3l-0.4-0.1c-0.1-0.9-0.3-2.1-0.5-3.2h-0.3c0.1,0.8,0.2,1.9,0.2,3.1l-0.4-0.1c-0.1-0.9-0.3-2-0.5-3h-0.3
		c0.1,0.7,0.2,1.8,0.2,2.9l-0.4-0.1c-0.1-0.9-0.3-1.9-0.6-2.8h-0.3c0.1,0.7,0.2,1.8,0.3,3l-0.3,0.1c-0.1,0-0.1,0-0.1,0
		c-0.1-1.1-0.3-2.4-0.8-3.5c-0.1,0-0.1,0-0.2,0.1c0.1,0.5,0.3,2.1,0.3,3.8c-0.1,0.1-0.3,0.2-0.3,0.3c-0.1-1.2-0.3-2.6-0.9-3.9
		c-0.1,0-0.1,0-0.2,0.1c0.1,0.8,0.6,3.8,0.1,6.1c0.1-0.1,0.3-0.1,0.5-0.1c-0.1,0.3-0.1,0.6-0.1,0.9c-2.4,0.5-5,1.4-7.6,2.7
		c0.1-0.2,0.3-0.5,0.4-0.8c0.8-0.5,1.7-0.8,2.5-1.1c0.1-0.8,0.5-3.6-0.8-5.9c-0.1,0.1-0.1,0.1-0.2,0.1c0.3,1.3,0.7,4.2-0.1,6.3
		c0,0,0.9-3.2-0.6-5.9c-0.1,0.1-0.2,0.1-0.3,0.1c0.3,1.4,0.6,4.1-0.2,6c0,0,0.9-3-0.4-5.7c-0.1,0.1-0.2,0.1-0.3,0.1
		c-0.5-1.1-1.3-2.1-2.1-2.6c-0.1-0.1-0.1-0.1-0.2-0.1h-2.2l0,0l0,0h-0.1l0,0c-0.5,0.3-0.8,0.9-1.1,1.6v-0.1l0,0l0,0
		c0-0.1-0.1-0.1-0.1-0.2c0.3-0.4,0.5-0.8,0.7-1.2h-0.3c-0.2,0.3-0.4,0.7-0.6,1.1c-0.1-0.1-0.1-0.1-0.1-0.1c-0.1,0-0.3,0-0.5,0.1
		c0.2-0.3,0.4-0.7,0.6-1h-0.3c-0.2,0.4-0.5,0.7-0.7,1.1c-0.3,0.1-0.5,0.3-0.7,0.5c0-0.1-0.1-0.1-0.1-0.3c0.3-0.5,0.5-0.9,0.8-1.4
		h-0.3c-0.2,0.4-0.5,0.7-0.7,1.1c-0.1-0.2-0.2-0.4-0.3-0.5c0.1-0.2,0.2-0.3,0.3-0.5l0,0v-0.4c-0.1,0.3-0.3,0.5-0.5,0.7
		c-0.1,0-0.1-0.1-0.1-0.1c-0.2-0.1-0.5,0.1-0.6,0.3c0,0.3,0,0.6,0.1,0.9c-0.3,0.5-0.6,0.9-0.9,1.4c-0.2,0-0.5-0.1-0.7-0.1
		c0.2-0.2,0.4-0.5,0.6-0.8c0.2,0.1,0.5,0.1,0.7,0L29.3,56c0,0,0,0-0.1,0c0.3-0.4,0.6-0.9,0.9-1.4h-0.3c-0.3,0.5-0.6,1-0.9,1.4
		c-0.2,0-0.5-0.1-0.7-0.1c0.3-0.3,0.6-0.8,0.9-1.3h-0.3c-0.3,0.5-0.6,0.9-0.8,1.2c-0.1-0.1-0.1-0.1-0.2-0.1c0-0.3,0-0.5,0.1-0.7
		v-0.1c0.1-0.1,0.1-0.2,0.2-0.3h-0.5c0,0.1,0,0.2,0,0.3c-0.2,0.2-0.3,0.4-0.5,0.4l0.1,0.2c0.1-0.1,0.3-0.1,0.4-0.3
		c0,0.1,0,0.1,0,0.1c0,0.1,0,0.1,0.1,0.1l0,0c0,0,0,0.1,0.1,0.1c0.1,0.1,0.1,0.3,0.3,0.4c-0.3,0.4-0.6,0.7-0.8,0.8l0.1,0.2
		c0.2-0.1,0.5-0.4,0.9-0.9c0.1,0.1,0.1,0.1,0.1,0.1c0.1,0.1,0.3,0.1,0.4,0.2c-0.2,0.3-0.4,0.5-0.6,0.8c-0.1-0.1-0.2-0.1-0.3-0.1
		l-0.1,0.1c0,0,0,0.1,0.1,0.1l0,0l0.1,0.1c0.1,0.1,0.1,0.1,0.1,0.2c-0.3,0.4-0.6,0.7-0.8,0.7l0.1,0.2c0.2-0.1,0.5-0.4,0.9-0.8
		c0,0,0,0.1,0.1,0.1c0.1,0.1,0.3,0.1,0.5,0.2c-0.8,1.1-1.3,1.6-1.6,1.7l0.1,0.2c0.3-0.2,0.9-0.8,1.7-1.8c0.3,0.1,0.5,0.1,0.7-0.1
		c-1.1,1.7-2,2.8-2.6,3.1l0.1,0.2c0.1,0,0.1-0.1,0.3-0.1l0.1,0.3c-0.2,0.1-0.4,0.1-0.7,0.1l0.3,0.5c0.2,0,0.4,0,0.6-0.1
		c-0.3,0.3-0.5,0.5-0.7,0.5l0.1,0.2c0.3-0.1,0.7-0.5,1.1-1l0.1-0.1l0.1,0.1c-0.1,0-0.1,0.1-0.1,0.1l0.1,0.2c0.1,0,0.1-0.1,0.1-0.1
		l0,0c0.4-0.1,0.7-0.4,1-0.7l0.1,0.2c0.4-0.2,1-0.8,1.7-1.8c0.1,0.1,0.2,0.1,0.3,0.1l-0.2-0.3c0.4-0.5,0.8-1.1,1.2-1.8
		c0,0.2-0.1,0.5-0.1,0.7h-0.3l0.1,0.3c-0.1,0.1-0.1,0.2-0.2,0.3c-0.1,0-0.3,0-0.3,0.1l0.1,0.3c-0.5,0.7-1,1.2-1.4,1.4l0.1,0.2
		c0.3-0.1,0.8-0.7,1.4-1.4v0.1c0.1-0.1,0.3-0.1,0.4-0.1c0,0.1,0,0.1,0,0.1c-0.3,0.3-0.5,0.5-0.7,0.6l0.1,0.1c-0.7,0.3-1.4,0.7-2,1
		c-1.5,0.7-3,1.6-3.2,1.6c-0.1,0-0.1,0-0.1,0c-0.1-0.1-0.1-0.5,0-0.7v-0.5l0.1-7.2c-0.1-0.1-0.2-0.3-0.3-0.4v0.6l-0.9-0.6
		c-0.6-0.1-1.2-0.1-1.8-0.3c-1-0.4-2-0.6-2.8-1.4l0.3,0.4c0.3,0.3,0.6,0.5,1,0.7l0.2,0.4c0.1,0.1,0.1,0.1,0.2,0.2l-0.3-0.5
		c-0.1,0-0.1,0-0.1-0.1c0.1,0.1,0.3,0.1,0.4,0.1c0.7,0.3,1.3,0.5,2,0.7c0.3,0.2,1.4,0.3,1.8,0.3v1.8c-0.1,0-0.2-0.1-0.3-0.1
		c0.1,0.1,0.3,0.1,0.3,0.1v1.8h-0.1l-0.1-0.1c-0.1,0-0.3,0-0.4,0l0,0l0,0c-0.1,0-0.3-0.1-0.5-0.1c0.1,0,0.3,0.1,0.5,0.1
		c-0.1-0.1-0.1-0.1-0.3-0.3L23,56.9c-0.3-0.1-0.5,0-0.9-0.1c-0.5-0.2-0.9-0.1-1.4-0.5l0.1,0.2c1,0.7,2.2,1.4,3.5,1.6
		c0.1,0.1,0.4,0.1,0.7,0.1l0.3,0.5c0.3,0.1,0.6,0.1,0.9,0.1v0.5c-0.1,0-0.1,0-0.2,0v0.1c0.1,0,0.1,0,0.2,0V60l-0.1-0.3
		c-0.5,0-0.9-0.1-1.4-0.3l0.3,0.5c0.1,0.1,0.1,0.1,0.2,0.1c-0.1,0-0.1,0-0.3-0.1l-0.1-0.2c-0.1,0.1-0.1,0-0.2,0l0.1,0.1
		c-0.4-0.1-0.8-0.3-1.2-0.5c0.1,0,0.1,0,0.2,0l-0.1-0.5c-0.1,0-0.2,0-0.3,0.1l0.2,0.3c-0.5-0.3-1-0.6-1.5-0.9L22,58.1
		c-0.1-0.1-0.2,0.1-0.4,0C21.3,58,21.2,58.2,21,58l0.1,0.1c1.1,0.9,2.5,1.5,3.9,1.8l0.1,0.1c0.1,0,0.1,0,0.2,0V60
		c0.1,0,0.2,0.1,0.3,0.1c0.1,0.1,0.1-0.1,0.1-0.1c0.3,0.1,0.5,0.1,0.7,0.1v0.6l-0.1-0.3c-0.5,0-0.9-0.1-1.3-0.3l0.3,0.5
		c0.1,0.1,0.2,0.1,0.3,0.1c-1.6-0.3-3-0.9-4.2-1.9v-0.1c-0.1,0-0.1,0.1-0.1,0.1c-0.1-0.1-0.1,0.2-0.2,0.1l0.1,0.1
		c1.2,0.9,2.6,1.6,4,1.9l0.1,0.2c0.2,0.1,0.4,0.1,0.6,0.1L25.8,61c0.1,0,0.3,0.1,0.4,0.1c0.1,0,0-0.1,0-0.3c0.1,0,0.3,0.1,0.4,0.1
		v0.9v0.2l-0.2-0.3c-2-0.2-3.8-1.1-5.5-2.2l0.3,0.5c1.6,1.1,3.4,2,5.4,2.2v0.1c0,0.2,0,0.3,0,0.5c-4-0.9-6.5-2.2-6.5-3.6L20,55.2
		c-0.1-0.7-0.3-7.7-0.3-8.4v-0.5c0,0,0,0,0-0.1c-0.1-0.1-0.3-0.3-0.4-0.4c0,0.1,0,0.3,0,0.5v0.5c0,0.3,0.1,1.9,0.1,3.6
		c-0.4,0.1-0.8,0.1-1.1,0.2v0.1c0.4-0.1,0.8-0.1,1.1-0.1c0,0.1,0,0.1,0,0.2c-0.4,0.1-0.8,0.1-1.1,0.1v0.5l0.1,0.1l-0.1,0.1v0.2
		l0.1,0.1l-0.1,0.1v0.6c0.4-0.1,0.8-0.1,1.2-0.1c0,0.4,0,0.7,0.1,1.1c-0.3,0.1-0.8,0.2-1.3,0.3V54c0.5-0.1,0.9-0.2,1.3-0.3
		c0,0.1,0,0.1,0,0.2c-0.3,0.1-0.8,0.2-1.3,0.3v0.1c0.5-0.1,0.9-0.2,1.3-0.3c0,0.1,0,0.1,0,0.2c-0.3,0.1-0.8,0.2-1.3,0.3
		c0,0.2,0,0.3,0,0.3h-1.4c-0.7,0.1-1.5,0.3-2.3,0.5l-0.1,0.2l0.3,0.1L14.5,56l0.2,0.1l-0.3,0.2c0,0-0.7-0.2-0.9-0.3
		c-0.1-0.1,0.1-0.3,0.3-0.5c-0.7,0.1-1.3,0.3-1.9,0.4h0.1l-0.8,0.3h0.8c0,0-0.7,0.4-1.1,0.4c-0.3,0-1.1-0.1-1.1-0.3
		c-0.6,0.1-1,0.2-1.1,0.2v-0.2c0.1,0,0.6-0.1,1.4-0.3c0.1-0.1,0.3-0.2,0.4-0.3c-1.1,0.3-2,0.4-2.2,0.4v-0.1C8.6,56.4,8,56.8,8,56.8
		l-1.4-0.1h0.1c0.1-0.1,0.1-0.1,0.2-0.2c-0.2,0.1-0.4,0.1-0.5,0.1c-1.4,0.3-3,1.8-3,2.3c0.1,0.5,1.5,0.7,2.6,0.2
		c0.6-0.3,1.2-0.3,2-0.5c-0.6,0.5-0.9,0.9-0.9,1.2c0.1,0.5,1.5,0.7,2.6,0.2c0.7-0.3,1.6-0.4,2.7-0.7C18.4,76.3,34.8,88.6,54,88.6
		c17.2,0,32.1-9.9,39.4-24.3c-0.1,0-0.3,0.1-0.6,0.3c1.5-0.7,2.4-1.5,2.4-2.4c0.5-2.6,0.5-5.2,0.3-7.2h-0.2V54.8z M62.8,57.1
		L62.8,57.1c0.1,0,0.2,0,0.3,0v1c-0.1,0-0.2,0-0.3,0l0,0h-0.3l0,0c-0.2,0-0.3,0-0.3,0c-1.1,0-2.8-0.1-3.6-0.3
		c-1-0.3-1.6-0.8-1.8-0.9v-0.9c1.3,0.7,2.9,1.1,3.8,1.1c0,0,1.1,0,1.9,0L62.8,57.1L62.8,57.1z M59.6,58.3c-0.1,0.3-0.1,0.5-0.3,0.7
		c-0.1,0.3-0.3,0.4-0.6,0.4c-0.7,0.1-1.6-0.8-1.9-2.1c0.3,0.2,0.8,0.5,1.5,0.7C58.7,58.2,59.1,58.3,59.6,58.3z M60.5,54
		c0,0,1.6,0,1.8,0v2.6h-2c-0.1,0-0.3,0-0.4,0c0-0.1,0-0.1,0-0.2c-0.3-1.2-0.9-2.2-1.6-2.6C59.3,54,60,54.1,60.5,54z M59.6,56.4
		L59.6,56.4c-0.8-0.1-2-0.5-2.9-0.9c0.1-0.4,0.1-0.7,0.3-1c0.1-0.3,0.3-0.4,0.6-0.4C58.4,53.9,59.4,55,59.6,56.4z M56.7,53.2
		c0.3,0.2,0.7,0.3,1.1,0.5c-0.1,0-0.1,0-0.3,0c-0.3,0.1-0.6,0.3-0.8,0.6c-0.1,0.1-0.1,0.1-0.1,0.2C56.7,54,56.7,53.6,56.7,53.2z
		 M56.7,57.9c0.5,1.3,1.4,2.2,2.2,2c0.3-0.1,0.6-0.3,0.8-0.6c0.1-0.3,0.3-0.5,0.3-0.9c0.7,0.1,1.4,0.1,2,0.1h0.3v2
		c-0.3,0-0.7-0.1-0.7-0.1c-0.9-0.1-2.2-0.1-3.1-0.4c-1.1-0.3-1.8-0.9-1.8-0.9l-0.1,0.1C56.6,58.7,56.7,58.3,56.7,57.9z M54.2,49.4
		c-0.2,0.1-0.4,0.2-0.6,0.3v-0.3l0.7-0.3l0.2-0.5c0,0,0.8-0.1,0.6-0.1c-0.2,0.1-0.3,0.1-0.5,0.4C54.5,49.2,54.6,49.1,54.2,49.4z
		 M54.6,49.8c0.1-0.1,0.1-0.1,0.1-0.1h0.1l0.7,0.1c0,0,0.1,0,0.1-0.1c0,0.1,0,0.1,0.1,0.1C55.3,49.8,55,49.8,54.6,49.8z M5.9,56.7
		c0,0,0.5,0,0.7,0c0.1,0,0.2,0.3,0.1,0.5c-0.1,0.1-0.6,0.3-0.6,0.3l-0.8-0.1C5.3,57.3,5.5,56.9,5.9,56.7z M4.3,57.7l0.3-0.3
		c0.1,0.1,0.3,0.1,0.3,0.1l-0.2,0.3H4.3L4.3,57.7z M4.2,58.5H3.8v-0.2l0.3-0.3c0.1,0.1,0.3,0.1,0.3,0.1L4.2,58.5z M4.8,59.1
		l-0.3-0.3v-0.2h0.4l0.2,0.3C5.1,58.9,4.9,59.1,4.8,59.1z M4.6,58.5l0.1-0.4l0.7-0.5c0.3,0.1,0.5,0.3,0.5,0.3l-0.5,0.7H4.6z
		 M6.9,58.4c-0.1,0.1-0.6,0.3-0.6,0.3l-0.8-0.1c0,0,0.5-0.3,0.8-0.5c0,0,0.5,0.1,0.7,0.1C7.1,58.1,7,58.3,6.9,58.4z M7.7,57.7
		C7.6,57.8,7.1,58,7.1,58l-0.8-0.1c0,0,0.3-0.5,0.6-0.7c0,0,0.5,0,0.7,0C7.7,57.2,7.8,57.5,7.7,57.7z M75.9,63.3
		c0.2,0.2,0.5,0.4,0.6,0.5c0.8,0.5,3.2,1.1,8.1,1.4c1.6,0.1,3,0,4.2-0.2c-1.3,0.2-2.7,0.3-4.2,0.3c-3.6,0-7-0.7-8.8-1.6
		C75.8,63.6,75.8,63.5,75.9,63.3z M74.4,58.4c0,0.1-0.1,0.2-0.2,0.3l0,0l-0.1,0.1c-0.3,0.2-0.8,0.2-1.1,0.1
		c-0.1-0.1-0.2-0.1-0.3-0.4c-0.1-0.2-0.1-0.5-0.3-0.7c-0.1-0.1-0.1-0.2-0.1-0.3c0,0,0,0,0-0.1c0-0.2,0.3-0.3,0.3-0.4
		c0.3-0.1,0.7-0.3,0.8-0.3C73.6,56.8,74.5,57.9,74.4,58.4z M73.5,61.2l0.1,0.5c0,0-0.1,0.1-0.1,0.1c0-0.1,0-0.4-0.1-0.7
		c-0.1,0.1-0.1,0.1-0.3,0.1l0.2,0.2c-0.1,0.1-0.2,0.1-0.3,0.1l0.2,0.2c-0.1,0.1-0.2,0.1-0.3,0.1l0.1,0.1c-0.2,0.1-0.4,0.1-0.5,0.1
		v0.1c-0.1,0-0.2,0-0.2,0c-0.1-0.1-0.1-0.1-0.1-0.1L71.7,62l-0.5,0.1c-0.3,0-0.5-0.2-0.7-0.7l-0.3-0.6h0.1v-0.1c0-0.1,0-0.2,0.1-0.3
		l0,0l0,0c0.1-0.2,0.1-0.5,0.2-0.5h0.1c0.3-0.1,0.6-0.1,0.9-0.8l0.5-1.1v-0.1c0,0.1,0.1,0.1,0.1,0.1c0.1,0.1,0.1,0.1,0.1,0.2h-0.1
		c0.1,0.3,0.3,0.9,0.4,1c0,0.1,0,0.3-0.1,0.5c0.3,0.1,0.7,0.3,0.8,0.2l0.1,0.1c0.1-0.2,0.1-0.3,0.2-0.5c-0.1,0.3-0.3,0.7-0.3,0.9
		L73.5,61.2z M73.5,54.3c0,0.3-0.1,0.6-0.1,0.9c-1.8,0.2-3.6,0.3-5.3,0.2C70.6,55.3,72.5,54.8,73.5,54.3z M67.9,55.8
		c1.8,0.1,3.7,0,5.6-0.2c0,0.2,0,0.5,0,0.7c-0.3,0-0.8,0.3-0.9,0.3l0,0c-0.1,0.1-0.2,0.1-0.3,0.3l0,0l-0.1,0.2l0,0l-0.3,0.6L71.8,58
		c-0.5-0.1-1.6-0.1-2.4,0.2c-0.5,0.2-0.9,0.5-1.2,0.9C67.9,58.1,67.9,56.9,67.9,55.8z M67.9,60.8C67.9,60.8,68,60.8,67.9,60.8
		C68,60.8,67.9,60.8,67.9,60.8C67.9,60.8,67.9,60.8,67.9,60.8z M67.9,61L67.9,61c0.1,0,0.1,0,0.1,0.1C68,60.8,68,60.6,68,60.4h-0.1
		c0-0.1,0-0.1,0-0.2c0.1,0,0.1-0.1,0.1-0.1l0,0c0-0.1,0.1-0.1,0.1-0.2c-0.1,0-0.1,0-0.2,0c0-0.1,0-0.1,0-0.1l0,0
		c0.1-0.1,0.1-0.1,0.2-0.1c0,0,0.1,0.1,0.1,0.1c0.1-0.1,0.1-0.2,0.1-0.3c-0.1,0-0.1,0-0.3,0c0.1-0.1,0.1-0.1,0.1-0.2c0,0,0,0,0.1,0
		s0.1,0.1,0.1,0.2c0.1-0.3,0.3-0.5,0.5-0.7c0.1-0.1,0.2-0.1,0.3-0.2c0.7-0.3,1.6-0.3,2.2-0.1l-0.2,0.4c0,0.1-0.1,0.1-0.1,0.1h-0.1
		c-0.3-0.1-0.5-0.1-0.8,0.3l-0.2,0.2c0,0,0,0.1-0.1,0.1h-0.1l0,0c-0.3,0.3-0.7,0.7-0.1,1.5l0.4,0.6c0.3,0.5,0.5,0.9,1.1,0.9l0.5-0.1
		h0.2c0.1,0.2,0.3,0.2,0.8,0.1c0.8-0.1,1.3-0.1,1.4-0.7l0.1-1.6L74,60.4l-0.3-0.2c0.1-0.2,0.1-0.3,0.2-0.5c0.6,0.4,1.1,1.1,1.4,2
		c0,0.1,0,0.2,0,0.3c0.1,0.1,0.1,0.2,0.2,0.3c0,0.1,0,0.2,0,0.3c-0.1-0.1-0.2-0.3-0.3-0.3c0,0.1,0,0.1-0.1,0.1
		c0.1,0.1,0.3,0.5,0.3,0.7c0,0.1,0,0.1,0,0.1l0,0c-0.1-0.2-0.3-0.4-0.3-0.5c0,0.1,0,0.2,0.1,0.3c0.1,0.3,0.1,0.8,0.1,0.9
		c0-0.3-0.3-0.7-0.3-0.7s0-0.2,0-0.3s-0.1-0.1-0.1-0.1c0,0.1-0.1,0.1-0.1,0.1c0,0.1,0,0.3,0,0.4l0,0c0.2,0.3,0.1,0.9,0.1,1.1
		c0-0.3-0.2-0.7-0.2-0.7s0-0.1,0.1-0.2c-0.1-0.1-0.1-0.2-0.1-0.3l-0.1,0.1c0,0.3-0.1,0.7-0.1,0.7c0-0.2-0.1-0.4-0.2-0.5
		c0,0,0,0-0.1,0c0,0.2-0.1,0.7-0.1,0.9c0-0.2-0.1-0.5-0.2-0.7c0,0-0.1,0.1-0.1,0.1c0.1,0,0.1,0,0.1,0.1c0.1,0.1-0.2,0.8-0.2,0.9
		c0.1-0.3-0.1-0.7-0.2-0.8c0,0,0,0-0.1,0l0,0c0.1,0.1-0.2,0.7-0.2,0.9c0.1-0.3-0.1-0.6-0.2-0.8c0,0.1-0.2,0.7-0.2,0.9
		c0-0.2-0.1-0.5-0.2-0.7c-0.1,0.2-0.2,0.7-0.2,0.9c0-0.1-0.1-0.5-0.2-0.7c-0.1,0.2-0.2,0.7-0.2,0.8c0-0.1-0.1-0.5-0.2-0.7
		c-0.1,0.2-0.2,0.6-0.2,0.8c0-0.1-0.3-0.8-0.2-0.9c0.1-0.1,0.3-0.1,0.4-0.1c0-0.1,0-0.1,0-0.1c0-0.1,0.3-0.1,0.4-0.1
		c0-0.1,0-0.1,0-0.1c-0.3,0-0.5-0.1-0.9-0.1c0,0.1-0.1,0.2-0.1,0.3c0.1,0,0.1,0,0.1,0s-0.2,0.6-0.1,0.9c0-0.1-0.3-0.7-0.3-1
		c0-0.1,0.1-0.1,0.3,0c0-0.1,0-0.2,0-0.3c-0.1-0.1-0.2-0.1-0.3-0.1c-0.1,0.1-0.1,0.3-0.1,0.4c0.1,0,0.1,0.1,0.1,0.1s-0.1,0.6,0,1
		c0-0.1-0.4-0.6-0.4-1.1c0-0.1,0.1,0,0.3,0c0-0.1,0-0.3-0.1-0.5c-0.1-0.1-0.1-0.1-0.3-0.1c-0.1,0.2-0.1,0.4-0.1,0.5
		c0-0.1-0.1-0.4-0.1-0.7c-0.1-0.1-0.1-0.1-0.2-0.1C70,63.1,70,63.5,70,63.6c0-0.1-0.1-0.5-0.1-0.9c-0.1,0-0.1-0.1-0.1-0.1
		c-0.1,0.2-0.2,0.6-0.2,0.8c0-0.1-0.1-0.7-0.1-1c-0.1,0.1-0.2,0.7-0.2,0.9c0-0.1-0.2-1.1-0.1-1.3l0,0c-0.1-0.1-0.1-0.1-0.1-0.1
		c-0.1,0.1-0.2,0.3-0.2,0.5c0.1,0.1,0.1,0.2,0.1,0.2s0,0.4,0.3,1c0-0.1-0.6-0.5-0.5-1.3c0,0,0,0,0.1,0c0-0.2-0.1-0.5,0-0.7
		c-0.1-0.1-0.1-0.1-0.2-0.2c-0.1,0.1-0.3,0.4-0.4,0.5c0,0.1,0.1,0.1,0.1,0.1s0,0.4,0.2,1c0-0.1-0.1-0.1-0.1-0.3
		c0-0.4-0.1-0.7-0.3-1.1c0-0.1,0.1,0.1,0.1,0.1c0-0.2,0-0.6,0.1-0.6c0.1,0,0.1,0,0.3,0.1c-0.1-0.1-0.1-0.1-0.2-0.2
		c-0.1,0.1-0.3,0.3-0.3,0.4c0-0.1,0-0.1,0-0.1C67.9,61.2,67.9,61,67.9,61C68,61,68.1,61,68.1,61c-0.1-0.1-0.1-0.1-0.1-0.2
		c-0.1,0-0.1,0.1-0.2,0.1C67.9,61.2,67.9,61.1,67.9,61z M74.6,63.7c0,0,0.1-0.3,0.1-0.3c0.2,0.3,0,0.9,0,1.1
		C74.8,64.1,74.6,63.7,74.6,63.7z M74.3,64.1c0,0,0.1-0.3,0.1-0.3c0.1,0.3-0.1,0.9-0.1,1.1C74.5,64.6,74.3,64.1,74.3,64.1z
		 M74.1,64.3c0,0,0.1-0.3,0.2-0.3c0.1,0.3-0.2,0.9-0.2,1.1C74.2,64.9,74.1,64.3,74.1,64.3z M73.8,64.6c0,0,0.2-0.3,0.2-0.2
		c0.1,0.3-0.3,0.9-0.3,1.1C73.9,65.2,73.8,64.6,73.8,64.6z M73.4,64.9c0,0,0.2-0.3,0.3-0.2c0.1,0.3-0.4,0.9-0.4,1.1
		C73.4,65.4,73.4,64.9,73.4,64.9z M73.2,64.8c0.1,0.3-0.3,0.7-0.4,0.9c0.1-0.2,0.1-0.7,0.1-0.7C72.9,65,73.1,64.8,73.2,64.8z
		 M72.7,65c0,0.1-0.3,0.6-0.3,0.7c0.1-0.1,0-0.6,0.1-0.7C72.5,65,72.7,65,72.7,65z M72.2,65.2c0,0-0.2,0.4-0.3,0.5
		c0-0.1-0.1-0.5,0-0.5C72,65.1,72.2,65.2,72.2,65.2z M70.4,65c0-0.1-0.6-0.5-0.5-1.3c0-0.1,0.3,0.2,0.3,0.2S70.1,64.4,70.4,65z
		 M70.3,63.8c0-0.1,0.3,0.1,0.3,0.1s-0.1,0.5,0.1,1C70.8,64.9,70.3,64.4,70.3,63.8z M68.9,63.9c0-0.1-0.5-0.5-0.5-1.3
		c0-0.1,0.2,0.3,0.2,0.3S68.7,63.3,68.9,63.9z M64.6,55.2c0.5,0.1,0.9-0.1,1.4-0.1c0.1,0,0.1-0.1,0.2-0.1v0.3
		c-0.3,0.1-0.5,0.2-0.7,0.3c-0.3,0-0.7,0.1-1,0C64.6,55.4,64.6,55.3,64.6,55.2z M64.5,55.6l0.1,0.1c0.5,0.1,1-0.1,1.5-0.1
		c0.1,0,0.1-0.1,0.2-0.1c0,0.1,0,0.2,0,0.3C66,56,65.7,56,65.4,56.1c-0.3,0-0.7,0.1-1,0l0.1,0.2c0.5,0.1,1-0.1,1.6-0.1
		c0.1,0,0.1,0,0.2-0.1c0,0.1,0,0.1,0,0.3c-0.3,0.1-0.6,0.2-0.9,0.3c-0.3,0-0.7,0.1-0.9,0l0.1,0.2c0.5,0.1,1-0.1,1.6-0.1
		c0.1,0,0.1,0,0.2-0.1c0,0.1,0,0.1,0,0.3c-0.3,0.1-0.6,0.3-0.9,0.3s-0.6,0.1-0.9,0l0.1,0.2c0.5,0.1,1.1-0.1,1.6-0.1
		c0.1,0,0.1,0,0.2-0.1c0,0.1,0,0.1,0,0.3c-0.3,0.1-0.7,0.3-1,0.3c-0.3,0-0.6,0.1-0.9,0l0.1,0.2c0.5,0.1,1.1-0.1,1.6-0.1
		c0.1,0,0.1,0,0.2-0.1c0,0.1,0,0.1,0,0.3c-0.3,0.1-0.7,0.3-1,0.3c-0.3,0-0.6,0.1-0.9,0l0.1,0.2c0.5,0.1,1.1-0.1,1.6-0.2
		c0.1,0,0.1,0,0.2-0.1c0,0.1,0,0.1,0,0.3c-0.3,0.2-0.7,0.3-1.1,0.3c-0.3,0-0.5,0.1-0.8,0l0.1,0.2c0.5,0.1,1.1-0.1,1.6-0.2
		c0.1,0,0.1,0,0.1-0.1c0,0.1,0,0.1,0,0.3c-0.3,0.2-0.7,0.3-1.1,0.3c-0.3,0-0.5,0.1-0.8,0l0.1,0.2c0.6,0.1,1.1-0.1,1.7-0.2
		c0.1,0,0.1,0,0.1-0.1c0,0.1,0,0.1,0,0.3c-0.4,0.2-0.8,0.3-1.2,0.3c-0.2,0-0.4,0.1-0.7,0C64.3,59.2,64.1,57.6,64.5,55.6z M64.1,62.5
		L64.1,62.5v-4.1c0.1,0.4,0.2,0.8,0.3,1.2h-0.1l0.1,0.2c0.6,0.1,1.1-0.1,1.7-0.2c0.1,0,0.1,0,0.1-0.1c0,0.1,0,0.1,0,0.3
		c-0.4,0.2-0.8,0.3-1.3,0.4c-0.2,0-0.5,0.1-0.7,0l0.1,0.2c0.6,0.1,1.1-0.1,1.8-0.3c0.1,0,0.1,0,0.1-0.1c0,0.1,0,0.1,0,0.3
		c-0.4,0.2-0.9,0.3-1.4,0.4c-0.2,0-0.5,0.1-0.7,0l0.1,0.2c0.6,0.1,1.1-0.1,1.8-0.3c0.1,0,0.1,0,0.1-0.1c0,0.1,0,0.1,0,0.2
		c-0.4,0.3-0.9,0.3-1.4,0.4c-0.2,0-0.4,0.1-0.6,0l0.1,0.2c0.6,0.1,1.2-0.1,1.8-0.3c0.1,0,0.1,0,0.1-0.1c0,0.1,0,0.1,0,0.2
		c-0.4,0.3-0.9,0.3-1.4,0.4c-0.2,0-0.4,0.1-0.6,0l0.1,0.2c0.6,0.1,1.2-0.1,1.8-0.3c0.1,0,0.1,0,0.1-0.1c0,0.1,0,0.1,0,0.2
		c-0.5,0.3-1,0.3-1.5,0.5c-0.2,0-0.4,0.1-0.5,0l0.1,0.2c0.6,0.2,1.2-0.1,1.8-0.3c0.1,0,0.1,0,0.1-0.1c0,0.1,0,0.1,0,0.2
		c-0.5,0.3-1,0.4-1.6,0.5c-0.1,0-0.3,0.1-0.5,0l0.1,0.2c0.7,0.2,1.2-0.1,1.9-0.3c0.1,0,0.1-0.1,0.1-0.1c0.1,0.1,0.1,0.2,0.2,0.3
		c0,0,0,0-0.1,0c-0.1-0.1-0.1-0.1-0.1-0.1s0,0.1,0,0.2c-0.1,0-0.1,0-0.1,0s0,0.1,0.1,0.1l0,0l0,0c-0.3,0.1-0.5,0.2-0.8,0.3
		c-0.4-0.1-0.9,0.1-1.3,0.1l0.1,0.2c0.4-0.1,0.9-0.2,1.3-0.1c0.3-0.1,0.5-0.2,0.8-0.3c0,0,0,0.1,0.1,0.1v0.1
		c-0.2,0.1-0.5,0.2-0.7,0.3c-0.4,0.1-0.9,0.1-1.3,0.2l0.1,0.2c0.4-0.1,0.9-0.1,1.3-0.2c0.3-0.1,0.5-0.1,0.7-0.3l0.1,0.1
		c-0.7,0.4-1.5,0.3-2.2,0.5l0.1,0.2c0.6-0.1,1.2-0.1,1.8-0.3c0.1-0.1,0.3-0.1,0.4-0.2l0.1,0.2c0.1,0.6,0.1,1.1,0,1.4
		c-0.8,0.3-1.6,0.5-2.4,0.6c-0.1,0-0.1,0-0.1,0c0-0.4-0.1-2-0.3-2.7v-1.1H64.1z M64,66.4c-0.2,0.1-0.4,0.1-0.6,0.1
		c-0.9,0.1-1.8,0.1-2.8,0c-0.1,0-0.3-0.1-0.5-0.1c0-0.1-0.1-1.1,0.1-2l0.1,0.2c1.1,0,2.2,0.2,3.4,0.1l-0.1-0.2
		c-0.7,0.1-1.4,0.1-2.1,0c-0.5-0.1-0.9,0-1.3-0.1c0-0.3,0.1-0.5,0.1-0.7l0,0c0.7-0.1,1.4-0.1,2-0.1c0.5,0.1,0.9,0.1,1.4,0.1
		C63.9,64.6,64,66,64,66.4z M62.5,62.9c-0.7-0.1-1.4-0.1-2.1,0l0,0c0.7-0.1,1.5-0.1,2.3,0.1c0.3,0.1,0.7,0.1,1,0.1l0,0
		C63.3,63,62.9,63.1,62.5,62.9z M63.7,63.2L63.7,63.2c-0.4,0-0.9,0.1-1.3-0.1c-0.5,0-0.9-0.1-1.5,0c0.5,0,1.1,0,1.6,0
		C63,63.2,63.3,63.2,63.7,63.2z M60.7,63.1c-0.1,0-0.2,0-0.3,0l0,0C60.5,63.1,60.6,63.1,60.7,63.1z M62.5,63.3
		c0.4,0.1,0.8,0.1,1.1,0.1l0,0c-0.5,0-0.9,0.1-1.4-0.1c-0.7,0-1.4-0.1-2,0.1l0,0C61.1,63.3,61.9,63.3,62.5,63.3z M62.5,63.5
		c0.4,0.1,0.8,0.1,1.2,0.1l0,0c-0.5,0-0.9,0.1-1.4-0.1c-0.6,0-1.3-0.1-1.9,0.1l0,0C61.1,63.5,61.8,63.5,62.5,63.5z M63.7,62.6
		L63.7,62.6c-0.2,0.1-0.5,0.1-0.7,0C63.3,62.6,63.5,62.6,63.7,62.6z M62.7,62.8c0.3,0.1,0.7,0,0.9,0l0,0c-0.4,0-0.7,0-1.1-0.1
		c-0.7-0.1-1.4-0.1-2.2-0.1l0,0l0,0C61.2,62.7,62,62.7,62.7,62.8z M57.7,61.8c0.8,0.3,1.8,0.6,2.8,0.7c-0.1,0-0.2,0-0.3,0l0,0H60
		v1.1c0,0,0,0,0,0.1L60,63.5c-0.2,0-0.3-0.1-0.5-0.1c-0.5-0.1-0.9-0.3-1.4-0.4c-0.1,0-0.2-0.1-0.3-0.1c0-0.1,0-0.1,0.1-0.1
		C57.7,62.7,57.7,61.9,57.7,61.8z M57.1,48.5c0.1,0,0.1,0.1,0.2,0.1c0,0.2,0.1,0.3,0.3,0.5c-0.3,0.5-0.5,1.4-0.3,1.9
		c-0.3-0.1-0.6-0.2-0.8-0.3c0-0.1,0-0.1-0.1-0.1C56.2,50,56.7,49,57.1,48.5z M56.4,62.2L56.4,62.2l0.1-0.1c0-0.3,0-0.6,0.1-1.1
		c0.3,0.3,0.7,0.6,1.1,0.8h-0.3l-0.1,0.9c-0.3,0.6-0.3,2.4-0.2,2.9l0.3-0.1c-0.1-0.4-0.1-1.9,0.1-2.6l0.1,0.1
		c0.7,0.3,1.5,0.5,2.3,0.6c-0.2,0.7-0.2,2.2-0.2,2.6c-0.9-0.2-1.7-0.5-2.5-0.7l0.1,0.2c-0.7-0.3-1.1-0.6-1.2-1l0,0
		C56.2,64.2,56,62.7,56.4,62.2z M58.9,66.2c-0.5-0.1-1.1-0.3-1.5-0.5C58,66,58.5,66.1,58.9,66.2z M46.9,60.4l0.2-1.1
		c0.1-0.8,0.5-0.9,1.1-1.1c0,0,0.6-0.2,0.7-0.3c0.1,0,2.8,0.5,2.9,0.5c0.2,0.3,0.4,0.7,0.6,1l0,0l0.1,0.1c0.1,0.1,0.1,0.3,0.2,0.4
		l0,0l0.1,0.3c0.3,0.5,0.5,0.9,0.5,1.1c0,0,0,0,0,0.1c-0.1,0.4-2.1,2.4-3,3c-0.6,0.3-1.7-0.1-3.1-1.4c-0.3-0.3-0.4-0.7-0.4-1.1
		C46.7,61.4,46.9,60.9,46.9,60.4z M34.9,54.8c0.5-0.1,0.9,0,1.4,0.3c1.1,0.7,2,2.2,2.5,4.1c0.6,2.6,0.1,4.9-1.2,5.5h-0.1
		c-0.1,0.1-0.2,0.1-0.3,0.1c-1.5,0.3-3.3-1.6-3.9-4.4C32.7,57.7,33.4,55.2,34.9,54.8z M30.6,55.5c0.1,0,0.1,0,0.2,0
		c0.1,0.2,0.1,0.4,0.1,0.5c-0.3,0.4-0.5,0.8-0.7,1.2c0.1-0.3,0-0.7,0-1C30.2,56,30.5,55.7,30.6,55.5z M30.2,55.7
		c-0.1,0.1-0.1,0.1-0.1,0.1L30.2,55.7C30.1,55.7,30.2,55.7,30.2,55.7z M29.3,57.5c0.2-0.3,0.4-0.6,0.6-0.9c0,0.1,0,0.3-0.1,0.5
		C29.7,57.3,29.5,57.5,29.3,57.5z M28.6,60.7c-0.1,0.1-0.3,0.3-0.5,0.3c0.3-0.3,0.5-0.6,0.8-1l-0.2-0.3c0.7-0.9,1.4-2,2.2-3.3
		c0,0.1,0.1,0.1,0.1,0.1c0,0,0,0-0.1,0c0.1,0.1,0.2,0.3,0.3,0.4c0-0.1,0-0.1,0-0.1l0.1,0.1c-0.9,1.6-1.8,2.9-2.6,3.9L28.6,60.7z
		 M29.6,60.6l-0.1-0.1c-0.2,0.2-0.3,0.4-0.6,0.6L28.8,61c0.8-1.1,1.8-2.6,2.9-4.3c0.3-0.2,0.5-0.3,0.9-0.4c-0.6,1-1.2,2-1.8,2.8
		c-0.1,0-0.2-0.1-0.3-0.1l0.1,0.3C30.2,59.8,29.9,60.2,29.6,60.6z M29.6,61.2c0.1-0.1,0.1-0.1,0.1-0.1l-0.1-0.2
		c0.3-0.4,0.7-0.9,1.1-1.4l0,0c0.1,0,0.3,0.1,0.4,0.1C30.5,60.4,30,61,29.6,61.2z M31.5,59.2c-0.1-0.1-0.3-0.1-0.5-0.1
		c0.5-0.8,1.2-1.8,1.8-2.8c0,0.1,0,0.2,0.1,0.3l0,0l0,0c0,0.1,0.1,0.1,0.1,0.1c-0.1,0.1-0.1,0.3-0.1,0.4
		C32.3,57.9,31.9,58.6,31.5,59.2z M32.8,59.8c0,0.1,0,0.1,0,0.1c-0.1,0.1-0.2,0.1-0.3,0.2C32.6,60,32.7,59.9,32.8,59.8z M26.5,58.3
		L26.5,58.3L26.5,58.3L26.5,58.3z M8,58.5l0.3-0.3c0.1,0.1,0.3,0.1,0.3,0.1l-0.2,0.3H8L8,58.5z M7.8,59.4H7.4v-0.2l0.3-0.3
		C7.9,59,8,59.1,8,59.1L7.8,59.4z M8.4,60l-0.3-0.3v-0.2h0.4l0.2,0.3C8.7,59.8,8.6,59.9,8.4,60z M8.2,59.3l0.1-0.3L9,58.4
		c0.3,0.1,0.5,0.3,0.5,0.3L9,59.3H8.2z M10.5,59.3c-0.1,0.1-0.6,0.3-0.6,0.3l-0.8-0.2c0,0,0.5-0.3,0.8-0.5c0,0,0.5,0.1,0.7,0.1
		C10.7,58.9,10.7,59.1,10.5,59.3z M11.4,58.5c-0.1,0.1-0.6,0.3-0.6,0.3L10,58.7c0,0,0.3-0.5,0.6-0.7c0,0,0.5,0,0.7,0
		C11.4,58,11.5,58.3,11.4,58.5z M11.7,57.5l-1.4-0.1l-0.5,0.2h0.1l0.7-0.1c0,0-0.1,0.1-0.3,0.2c0.1,0.1,0.1,0.3,0.1,0.4
		c-0.1,0.1-0.6,0.3-0.6,0.3l-0.8-0.1c0,0,0.1-0.1,0.2-0.3c-0.4-0.1-0.9-0.3-0.7-0.5c0.1-0.1,0.9-0.5,1.2-0.5l0.7-0.1l-0.5,0.4
		l0.7,0.1c0.1-0.1,0.3-0.3,0.5-0.3c0.3-0.1,1.1-0.1,1.1,0.1v-0.1c0.3,0,4.2-0.8,7.4-1.6c0,0.1,0,0.1,0,0.2c-1.4,0.3-3,0.6-4.3,0.9
		l-0.3,0.3l0,0c0.9-0.2,1.8-0.4,2.8-0.6c0.1-0.1,0.1-0.1,0.1-0.1l0.1,0.1c0.5-0.1,1.1-0.2,1.6-0.3c0,0.1,0,0.1,0,0.2
		c-0.5,0.1-0.9,0.2-1.4,0.3L18,56.4l0.3,0.1l-0.1,0.1l0.2,0.1l-0.3,0.2c0,0-0.7-0.2-0.9-0.3c-0.1-0.1,0.1-0.3,0.3-0.5
		c-0.7,0.1-1.3,0.3-1.9,0.4h0.1L14.9,57h0.8c0,0-0.7,0.3-1.1,0.3c-0.3,0-1.1-0.1-1.1-0.3c-0.6,0.1-1,0.2-1.1,0.2v-0.2
		c0.1,0,0.6-0.1,1.4-0.3c0.1-0.1,0.3-0.2,0.4-0.3c-1.1,0.3-2,0.4-2.2,0.4v-0.1C12.2,57.1,11.7,57.5,11.7,57.5z M13.8,58.3h-1.6
		c0.1,0.1,0.1,0.3,0.1,0.4c-0.3-0.1-0.5-0.3-0.3-0.3c0.1-0.1,0.9-0.5,1.2-0.5l0.7-0.1l-0.5,0.4h0.7L13.8,58.3z M14.2,58.3L14.2,58.3
		L14.2,58.3C14.3,58.2,14.3,58.3,14.2,58.3z M54.1,86.2c-18.2,0-33.8-11.7-39.6-27.9c1.1-0.4,3.1-0.9,5.1-1.3c0,1,0.1,2,0.1,2
		c0,1.7,2.6,3.1,7,4.1c0,0,0,0.1,0.1,0.1c0.1,0.1,0.3,0.1,0.5,0.1c0.3-0.1,1.4-0.6,3.3-1.6c0.8-0.4,1.7-0.9,2.6-1.4
		c0,0.1,0.1,0.2,0.1,0.3c0.7,3,2.6,5.1,4.4,4.7c0.1,0,0.2-0.1,0.3-0.1l0,0c3-1.6,6-2.6,8.7-3.2c0,0.5,0.1,1,0.5,1.4
		c1,0.9,2.5,2,3.6,1.5c0.9-0.5,3.1-2.6,3.2-3.2c0-0.1,0-0.3-0.1-0.5c0.9,0,1.8,0,2.6,0c0,0.3,0,0.7,0,1C56,62.5,56,63.1,56,63.7
		c0,0.3,0,0.6,0.1,0.8H56c0,1.4,2.8,2.4,6.3,2.4c3.5,0,6.3-1.1,6.3-2.4h-0.1c0-0.1,0-0.3,0-0.4c1.1,1.1,2.5,1.6,2.6,1.6
		c3,1.1,3.9-0.1,4.4-0.7c0.2-0.3,0.3-0.5,0.4-0.9c1.9,1,5.1,1.6,8.9,1.6c1.3,0,2.5-0.1,3.6-0.2c-7.2,11.3-19.7,18.9-34.1,18.9
		c-17.2,0-32-10.9-37.7-26.2h-0.7c5.7,15.6,20.8,26.8,38.4,26.8c14.8,0,27.8-7.9,34.9-19.6c0.5-0.1,1-0.2,1.5-0.3
		C83.3,77.7,69.6,86.2,54.1,86.2z M67.7,62.3L67.7,62.3L67.7,62.3L67.7,62.3z M71,43c-2.8-0.1-5.6-0.4-7.2-0.7
		c-0.1,0.1-0.2,0.2-0.3,0.3c1.6,0.5,4.8,0.8,7.8,0.8C71.2,43.3,71.1,43.1,71,43z M67.5,62.1c-0.2,0.1-0.3,0.3-0.5,0.4l0.1,0.2
		c0.2-0.1,0.5-0.3,0.5-0.5l0,0C67.6,62.2,67.5,62.1,67.5,62.1z M66.3,49.8l-1.8,0.4C64.8,50.2,66.1,50,66.3,49.8z M66.3,47.9
		c-1.1,0.3-2.5,0.4-3.8,0.5c0.1,0.1,0.1,0.3,0.2,0.3c1.4,0,2.6-0.2,3.8-0.5L66.3,47.9z M70.5,42.5c-1.1,0-2.3-0.1-3.6-0.3l-0.1,0.2
		c1.4,0.2,2.7,0.3,3.9,0.3C70.7,42.6,70.6,42.5,70.5,42.5z M69.5,41.9c-0.5-0.1-0.9-0.1-1.4-0.1L68.1,42c0.7,0.1,1.3,0.1,1.9,0.2
		C69.9,42,69.8,41.9,69.5,41.9z M66.2,49.6L64.5,50C64.8,50,66.1,49.8,66.2,49.6z M70,50.2c-0.7,0.3-1.4,0.5-2.2,0.8
		C68.7,51,69.4,50.7,70,50.2z M65.9,45.7L65.9,45.7C65.9,45.7,65.9,45.8,65.9,45.7L65.9,45.7z M66.4,50l-1.9,0.4
		C64.7,50.4,66.1,50.2,66.4,50z M64.8,50.6L64.8,50.6c0.6-0.1,1.4-0.2,1.7-0.3L64.8,50.6z M64.6,50.5L64.6,50.5
		c0.5-0.1,1.6-0.2,1.9-0.4L64.6,50.5z M34.6,74.6l1.8-2.8l1.1,0.7l0.3-0.4L35,70.4l-0.3,0.4l1.1,0.7L34,74.3L34.6,74.6z M82.7,47.1
		c0,0.2-0.1,0.4,0.1,0.7l0.2-0.1c0,0.1,0.1,0.1,0.1,0.1l0.1-0.1v0.1l0.3-0.1c-0.1-0.1-0.1-0.6-0.1-1h-0.4c0,0.1,0,0.1,0,0.1h-0.1
		c0,0.1,0,0.1,0,0.1h-0.2V47.1z M83.9,48.3c-1.4,0.1-2.3,0.3-1.9,0.7l0.1,0.1C83.1,49,83.8,48.8,83.9,48.3z M79.2,68.5
		c0.3,0.3,0.2,0.7-0.1,1.1c-0.2,0.2-0.5,0.3-0.8,0.4l0.4,0.4c0.3-0.1,0.6-0.3,0.8-0.5c0.5-0.5,0.5-1.3,0-1.8
		c-0.5-0.5-1.3-0.5-1.8,0.1L77,67.7l0.9-0.9l-0.3-0.3l-1.2,1.2l1.4,1.4C78.3,68.3,78.9,68.2,79.2,68.5z M82.7,44.8l-0.2-0.4h-0.4
		l0.2,0.4H82.7z M75.7,71.1c0.1-0.1,0.3-0.3,0.3-0.5c0.2,0.5,0.2,1.1,0,1.8l0.5,0.1c0.3-1,0.2-2.2-0.4-3c-0.5-0.6-1.3-0.7-1.8-0.3
		c-0.5,0.5-0.5,1.1-0.2,1.6C74.5,71.4,75.2,71.5,75.7,71.1z M74.7,69.7c0.3-0.2,0.7-0.1,0.9,0.1c0.1,0.1,0.1,0.1,0.2,0.3
		c-0.1,0.3-0.2,0.4-0.3,0.5c-0.3,0.2-0.7,0.2-0.9-0.1C74.3,70.3,74.4,70,74.7,69.7z M54.2,37.1c-0.3,0-0.5-0.1-0.6-0.3
		c0-0.1,0-0.1-0.1-0.1c0.1,0.1,0.1,0.1,0.2,0.1c0.2,0,0.3,0.5,0.7,0.1l0,0c0.4-0.4,0.7-0.9,0.7-1.2c0.1-0.4,0.2-0.6,0.2-0.6
		s0.1,0.3-0.1,0.5c-0.1,0.1,0.2-0.2-0.2,0.5c-0.1,0.1-0.1,0.2-0.2,0.3l0.1-0.1c0.3,0.3,0.5-0.1,0.7-0.1c0.1,0,0.1,0,0.1,0s0,0,0-0.1
		c0-0.1,0.1-0.2,0.1-0.3c0-0.2,0-0.4,0-0.5c0-0.1,0.3-0.2,0.4-0.3c-0.2,0-0.5,0.1-0.9,0L55,35c0,0.1-0.1,0.1-0.1,0.1l-0.4-0.2
		c-0.1-0.1-0.3-0.1-0.4-0.2c-0.1,0.3-0.2,0.6-0.2,0.6c-0.1,0.2-0.2,0.4-0.3,0.5c-0.1,0-0.1,0.1-0.2,0.1l0.1,0.1c0,0.1,0,0.3,0,0.5
		c-0.1-0.3-0.1-0.5-0.1-0.5l0-0.1h-0.1c0-0.1-0.1-0.3-0.1-0.4c0.2,0.1,0.3,0.1,0.4,0c0,0,0.1-0.1,0.1-0.2l0.2-0.7h-0.1
		c0-0.2-0.3-0.4-0.6-0.5c0,0.1,0.1,0.1,0.1,0.3c0.1,0.4,0,0.5-0.2,0.6L52.9,34c-0.4-1.8-0.9-3.4-1.4-4.7c-0.5-1.6-0.9-2.8-0.9-3.9
		c0,0,0-0.6,0-1.4c0.3-0.1,0.3-0.3,0.3-0.4c0-0.1-0.1-0.3-0.3-0.3v-3.1c0.3-0.3,0.5-0.7,0.5-1.2c0-0.3-0.1-0.7-0.2-0.9
		c1.1-0.1,2.2-0.2,3.4-0.2c10.9,0,20.3,6.6,24.4,16.1l0.5-0.2C75,24,65.4,17.2,54.2,17.2c-1.2,0-2.4,0.1-3.6,0.3c0-0.3,0-0.7,0-0.7
		l-0.1,0.1c-0.3-0.3-1.8-0.3-2-0.3c-0.2,0-1.6,0-2,0.3h-0.2c0,0,0,0.9,0,0.9c-0.1,0.2-0.3,0.4-0.3,0.7c-7.6,2.4-13.6,8-16.7,15.3
		l0.5,0.2c3-7,8.8-12.4,16.1-14.9c0,0.4,0.2,0.7,0.4,1v3.2c-0.1,0.1-0.1,0.2-0.1,0.3s0,0.2,0.1,0.3c0,0.8,0,1.5,0,1.5
		c0,1.1-0.4,2.3-0.9,3.9c-0.3,0.9-0.6,1.8-0.9,2.8h-0.1l-0.1,0.3l-0.5,2.2H44c-0.3,1.2-0.5,2.6-0.5,4.1c-0.5-0.1-1.1-0.1-1.7-0.2
		v0.4c0.4,0.1,0.8,0.1,1.2,0.1c-0.1,0-0.2,0.1-0.3,0.1l-0.9,0.4v0.4l1-0.5c0.1-0.1,0.4-0.1,0.6-0.1c0,0.4-0.1,0.7-0.1,1.1
		c-0.1,0.1-0.1,0.2-0.1,0.3l0,0c0,0,0,0,0,0.1c-0.3,0.5-0.5,1.1-0.9,1.7c-0.1-0.1-0.2-0.2-0.3-0.3c-0.1,0-0.2,0.1-0.3,0.1
		c0.9-1.6,1.4-2.7,1.4-2.7l-0.2-0.1c-0.3,0.5-0.8,1.6-1.5,2.9c-0.1,0-0.1,0.1-0.2,0.1l0.1,0.2c-0.2,0.4-0.4,0.8-0.6,1.2
		c-0.2,0-0.4,0-0.6-0.1c0.5-0.9,0.9-1.8,1.2-2.4h-0.3c-0.4,0.7-0.9,1.8-1.5,2.8h0.3C40,44.2,40,44,40.1,44l0.2,0.3
		c0.1,0,0.1,0,0.1,0.1h0.8l-0.6-0.5c0.2-0.3,0.4-0.7,0.5-1l0.1,0.1c0.2,0,0.5-0.1,0.7-0.1c-0.3,0.5-0.5,0.9-0.7,1.4
		c0.1,0,0.1,0,0.1,0v0.1c0.3-0.5,0.5-1.1,0.8-1.6c0.1,0.1,0.2,0.2,0.3,0.3c0,0.1,0,0.1,0,0.1c-0.1,0.1-0.3,0.2-0.3,0.3l0.1,0.3
		c-0.2,0.3-0.3,0.7-0.5,1l-0.1-0.1c-0.1,0-0.1,0.1-0.3,0.1v0.5c0,0,0,0,0.1,0c0,0,0,0.1-0.1,0.1v0.5c0.1-0.2,0.3-0.5,0.3-0.7
		c0.1,0,0.1,0,0.1-0.1L41.7,45c0.1-0.2,0.2-0.3,0.3-0.5c0,0.1,0.1,0.1,0.1,0.2l0,0l0,0c0,0,0.1,0.1,0.1,0.1c0.1,0,0.1,0,0.1,0
		c-0.1,0.1-0.2,0.3-0.3,0.5c-0.1,0.1-0.1,0.1-0.1,0.2v0.1c-0.1,0.2-0.3,0.5-0.3,0.7c-0.1,0-0.3-0.1-0.3-0.1l0.2,0.3
		c-0.1,0.1-0.1,0.3-0.2,0.4v0.5c0.1-0.3,0.3-0.5,0.4-0.7c0.2,0,0.3,0.1,0.5,0.1c-0.8,1.5-1.6,2.8-2.3,4.1h0.3
		c0.7-1.4,1.6-2.8,2.2-4.1c0.2,0,0.3,0.1,0.5,0.1c-0.8,1.5-1.6,2.8-2.2,4h0.3c0.6-1.1,1.3-2.4,2-3.7c0,0.3,0,0.7,0,1.1
		c-0.1,0.3-0.3,0.5-0.4,0.8c-0.3,0-0.7,0.4-0.7,0.7c0,0.1,0.1,0.1,0.1,0.3l0,0l0,0l0,0l0,0c-0.1,0.3-0.3,0.5-0.4,0.7
		c0.1,0,0.1,0,0.1,0v0.5c0.1-0.3,0.3-0.5,0.5-0.8c0.1,0.1,0.2,0.3,0.3,0.4c0,0.1-0.1,0.1-0.1,0.2c0,0,0,0.1-0.1,0.1
		c-0.2,0.1-0.5,0.1-0.7,0.2v0.4c2.2-0.7,4.4-1.1,6.3-1.3v-0.4c-0.3,0.1-0.6,0.1-0.9,0.1c0.3-0.3,0.6-0.5,0.9-0.9v-0.3
		c-0.4,0.4-0.8,0.8-1.2,1.1c-0.4,0.1-0.9,0.1-1.4,0.2c0.7-0.6,1.6-1.4,2.6-2.3v-0.3c-1.1,1-2.1,2-2.9,2.6c-0.3,0.1-0.6,0.1-0.9,0.2
		v-0.3c0.7-0.4,2.4-1.9,3.8-3.4v-0.3c-1.6,1.5-3.1,3-3.8,3.4v-0.7c0.7-0.4,2.4-2,3.8-3.4v-0.3c-1.5,1.4-3.1,3-3.8,3.5v-0.7
		c0.7-0.4,2.5-2.2,3.8-3.6v-0.3c-1.3,1.4-3.1,3.1-3.8,3.6v-0.7c0.7-0.5,2.8-2.6,3.8-3.6v-0.5c-0.2,0-0.3,0-0.5,0l0,0l-0.1-0.1
		c-0.1,0.1-0.1,0.1-0.1,0.1c-0.3,0-0.7-0.1-0.9-0.1l0,0l0,0c-0.9-0.1-1.8-0.3-2.3-0.5l-0.3-0.1v8.2c-0.1,0-0.3,0.1-0.3,0.1
		c0-3.8,0-7.8,0-9.2c0.9,0.6,2.7,1,4.6,1v-5.1l0,0c-0.2-0.2-0.3-0.5-0.5-0.7c-0.1-0.1-0.1-0.3-0.2-0.5c-0.3-0.7-0.4-1.5-0.3-2.2
		c0-0.1,0-0.1,0-0.1c0.1-0.9,0.6-1.6,1.3-1.9c0.5-0.3,1.1-0.3,1.7,0c0.7,0.3,1.1,0.9,1.5,1.6c0.1,0.1,0.1,0.2,0.1,0.3
		c0.3,0.7,0.4,1.6,0.3,2.4l0,0c-0.1,0.2-0.1,0.3-0.1,0.5c-0.1,0.2-0.2,0.4-0.3,0.6h1.9c0-0.1,0-0.1,0-0.2c0.5-0.2,0.8-0.3,1.6,0.2
		h0.7c-0.3-0.1-0.6-0.3-0.8-0.3c-0.2,0-0.4,0-0.4,0l-0.3-0.1C54.2,37.2,54.2,37.1,54.2,37.1z M54.2,35.2c0.1-0.3,0.3,1.1,0.7,1.1
		c0,0-0.1,0.2-0.2,0.2C54.6,36.5,54.2,35.9,54.2,35.2z M42.3,42.9L42.3,42.9L42.3,42.9c-0.1-0.1-0.1-0.1-0.1-0.2
		c0.3-0.6,0.6-1.1,0.8-1.6c0,0.1,0.1,0.1,0.1,0.1c0,0.2,0,0.5,0,0.8c-0.2,0.3-0.3,0.7-0.5,1.1C42.5,43.1,42.4,43,42.3,42.9z
		 M43.1,43.3L43.1,43.3c-0.1-0.1-0.2-0.1-0.3-0.1c0.1-0.2,0.2-0.4,0.3-0.5C43.1,42.8,43.1,43,43.1,43.3z M42.3,44.1L42.3,44.1
		L42.3,44.1c0.1-0.1,0.2-0.3,0.3-0.3l0,0l0,0c0.1-0.1,0.3-0.1,0.5-0.1v0.1c-0.1,0.1-0.1,0.3-0.3,0.5c-0.1,0.1-0.1,0.1-0.1,0.1
		c-0.1,0-0.1-0.1-0.1-0.1C42.5,44.2,42.3,44.1,42.3,44.1z M42.9,44.5L42.9,44.5L42.9,44.5L42.9,44.5z M42.5,46.5
		c-0.2,0-0.3-0.1-0.5-0.1c0.1-0.1,0.1-0.3,0.2-0.3c0,0.1,0.1,0.1,0.1,0.1c0.1,0,0.2-0.1,0.3-0.1c0,0.1,0,0.2,0.1,0.3
		C42.5,46.3,42.5,46.4,42.5,46.5z M42.7,46.5L42.7,46.5L42.7,46.5L42.7,46.5z M42.7,45.4L42.7,45.4L42.7,45.4L42.7,45.4z M42.6,45.2
		L42.6,45.2l-0.1,0.1c0.1-0.1,0.1-0.3,0.2-0.4c0.1,0,0.2-0.1,0.3-0.1l0,0l0,0c0,0,0,0,0.1,0c0,0.1,0,0.3-0.1,0.5
		c-0.1,0.1-0.1,0.3-0.2,0.4c-0.1-0.1-0.1-0.1-0.1-0.2C42.7,45.4,42.7,45.3,42.6,45.2z M42.8,45.6C42.8,45.6,42.8,45.6,42.8,45.6
		C42.8,45.6,42.8,45.6,42.8,45.6c0-0.1-0.1-0.1-0.1-0.1C42.8,45.5,42.8,45.6,42.8,45.6z M43.1,46.6c-0.1,0-0.2-0.1-0.3-0.1
		c0.1-0.1,0.1-0.2,0.3-0.3c0,0.1,0.1,0.1,0.1,0.2V46.6z M43.1,46.1L43.1,46.1L43.1,46.1L43.1,46.1z M43.1,51C43,51,42.9,51,42.9,51
		L42.8,51c0.1-0.2,0.2-0.3,0.3-0.5C43.1,50.4,43.1,51,43.1,51z M43.1,50c-0.1,0.3-0.3,0.5-0.5,0.8c0,0,0-0.1-0.1-0.1
		c-0.1-0.1-0.3-0.2-0.3-0.3l0,0l0,0v-0.1c0.1-0.2,0.2-0.3,0.3-0.5c0.1-0.1,0.3-0.1,0.5-0.1L43.1,50L43.1,50z M42.9,49.2L42.9,49.2
		c0.1-0.1,0.1-0.3,0.2-0.4c0,0.3,0,0.5,0,0.7L42.9,49.2z M44.2,43.1c0.3,0.1,0.5,0.1,0.9,0.2l-0.9,0.9V43.1z M44.2,44.5l1.1-1.1
		c0.2,0.1,0.5,0.1,0.7,0.1c-0.7,0.7-1.4,1.4-1.8,1.8V44.5z M44.2,45.5c0.4-0.3,1.6-1.5,2-2c0.3,0.1,0.5,0.1,0.7,0.1
		c-0.9,0.9-2.2,2.2-2.8,2.7V45.5z M44.2,46.5c0.6-0.4,2.3-2.1,3-2.9c0.3,0,0.5,0.1,0.7,0.1c-1,1-3,3-3.8,3.6V46.5z M44.6,32.7
		c0.7,0.5,1.5,1,2.2,1.3c-0.1,0.7-0.1,1.5,0.2,2.2c-0.9-0.4-1.9-1-2.8-1.8C44.2,34.2,44.4,33.1,44.6,32.7z M46,33.2
		c0.3,0.1,0.7,0.1,1,0.1c0,0.1,0,0.1-0.1,0.2c-0.1,0-0.3,0-0.5-0.1C46.3,33.4,46.1,33.3,46,33.2z M47.1,36.7c0,0.1,0.1,0.1,0.1,0.1
		c-0.3,0-0.7,0-1.1-0.1c-0.3-0.1-0.5-0.1-0.8-0.3l0,0c0,0.1,0,0.3,0,0.4c0.1,0.1,0.2,0.1,0.3,0.1c0.1,0,0.1,0,0.1,0
		c0.5,0.1,1,0.1,1.6,0.2l0.1,0.2c-0.4,0-0.9,0-1.3-0.1c-0.3-0.1-0.5-0.1-0.8-0.3c0,0.1,0,0.3,0,0.4c0.1,0.1,0.2,0.1,0.3,0.1
		c0.1,0,0.1,0,0.1,0c0.5,0.1,1,0.1,1.6,0.2l0.1,0.2c-0.4,0-0.9,0-1.3-0.1c-0.3-0.1-0.5-0.1-0.8-0.3c0,0.1,0,0.3,0,0.4
		c0.1,0.1,0.2,0.1,0.3,0.1c0.1,0,0.1,0,0.1,0c0.5,0.1,1.1,0.2,1.6,0.2l-0.1,0.2c-0.4,0-0.9,0-1.3-0.1c-0.3-0.1-0.5-0.1-0.8-0.3
		c0,0.1,0,0.3,0,0.4c0.1,0.1,0.2,0.1,0.3,0.1s0.1,0,0.1,0c0.5,0.2,1.1,0.2,1.6,0.2l0.1,0.2c-0.4,0-0.9-0.1-1.3-0.1
		c-0.3-0.1-0.5-0.1-0.8-0.3c0,0.1,0,0.3,0,0.4c0.1,0,0.1,0.1,0.2,0.1c0.1,0,0.1,0,0.1,0c0.5,0.2,1.1,0.2,1.6,0.3l0.1,0.2
		c-0.4-0.1-0.9-0.1-1.3-0.1c-0.3-0.1-0.5-0.1-0.8-0.2c0,0.1,0,0.3,0,0.4c0.1,0,0.1,0.1,0.2,0.1c0.1,0,0.1,0,0.1,0
		c0.5,0.2,1.1,0.2,1.6,0.3l0.1,0.2C46.9,40,46.5,40,46,40c-0.3-0.1-0.5-0.1-0.8-0.2c0,0.1,0,0.3,0,0.4c0.1,0,0.1,0.1,0.1,0.1
		c0.1,0,0.1,0,0.1,0c0.5,0.2,1.1,0.2,1.6,0.3l0.1,0.2c-0.4-0.1-0.9-0.1-1.3-0.1c-0.3-0.1-0.5-0.1-0.7-0.2c0,0.1,0,0.3,0,0.4h0.1
		c0.1,0,0.1,0,0.1,0c0.5,0.2,1.1,0.2,1.7,0.3l0.1,0.2c-0.4-0.1-0.9-0.1-1.3-0.1c-0.3-0.1-0.5-0.1-0.7-0.2c0,0.1,0,0.3,0,0.4
		c0,0,0,0,0.1,0c0.1,0,0.1,0,0.1,0c0.5,0.2,1.1,0.2,1.7,0.3l0.1,0.2c-0.4-0.1-0.9-0.1-1.3-0.1c-0.2-0.1-0.5-0.1-0.7-0.2
		c0,0.1,0,0.1,0,0.1c-1-0.3-1.5-0.6-1.5-0.8h-0.2c0-2.3,0.3-4.3,0.6-5.9c0.4,0.3,0.8,0.6,1.2,0.9c0,0,0,0,0,0.1
		c0.1,0,0.1,0.1,0.2,0.1c0.1,0.1,0.3,0.2,0.5,0.3c-0.2-0.1-0.4-0.1-0.6-0.2c0,0,0,0-0.1,0c0,0.1,0,0.3,0,0.4
		c0.1,0.1,0.2,0.1,0.3,0.1c0.1,0,0.1,0,0.1,0C46.3,36.6,46.7,36.6,47.1,36.7C47,36.7,47.1,36.7,47.1,36.7z M47.7,27.9l0.1,0.2
		c-0.3,0-0.7,0-1,0c0,0.1-0.1,0.2-0.1,0.3c0.3,0,0.6,0.1,0.9,0l0.1,0.2c-0.3,0-0.7,0-1.1-0.1c0,0.1-0.1,0.2-0.1,0.3
		c0.3,0,0.7,0.1,1,0.1l0.1,0.2c-0.4,0-0.7,0-1.1-0.1c0,0.1-0.1,0.2-0.1,0.3c0.3,0.1,0.7,0.1,1.1,0.1l0.1,0.2c-0.4,0-0.8,0-1.2-0.1
		c0,0.1-0.1,0.2-0.1,0.3c0.4,0.1,0.7,0.1,1.1,0.1l0.1,0.2c-0.4,0-0.9,0-1.3-0.1l0,0c0,0.1-0.1,0.3-0.1,0.3c0.4,0.1,0.8,0.1,1.2,0.1
		l0.1,0.2c-0.4,0-0.9,0-1.3-0.1c-0.1,0-0.1,0-0.1-0.1c0,0.1-0.1,0.3-0.1,0.4c0.5,0.1,0.9,0.1,1.4,0.1l0.1,0.2c-0.4,0-0.9,0-1.3-0.1
		c-0.1,0-0.1-0.1-0.2-0.1c0,0.1-0.1,0.3-0.1,0.4l0,0c0.5,0.1,0.9,0.1,1.4,0.1l0.1,0.2c-0.4,0-0.9,0-1.3-0.1c-0.1,0-0.2-0.1-0.3-0.1
		c0,0.1-0.1,0.3-0.1,0.4l0,0h0.1c0.5,0.1,0.9,0.1,1.4,0.1l0.1,0.1l-0.1,0.1c-0.4,0-0.8,0-1.2-0.1c-0.1,0-0.3-0.1-0.3-0.1
		c0,0.1-0.1,0.3-0.1,0.4h0.1h0.1c0.4,0.1,0.8,0.1,1.2,0.1c0,0.1-0.1,0.1-0.1,0.2c-0.3,0-0.6,0-0.9-0.1C46.3,33,46.2,33,46,33
		c0,0.1-0.1,0.2-0.1,0.3c-0.3-0.2-0.7-0.5-1.1-0.7c0.3-1.1,0.7-2.1,0.9-3c0.5-1.6,1-2.9,1-4.1v-1.3c0.1,0.1,0.3,0.1,0.5,0.1
		c0,0.7,0,1.8,0,1.8c-0.1,0.4-0.1,0.9-0.2,1.4c0.3,0,0.5,0,0.8,0l0.1,0.2c-0.3,0-0.6,0-0.9,0c0,0.1-0.1,0.3-0.1,0.3
		C47.1,27.9,47.4,27.9,47.7,27.9z M49.8,18.9c-0.5,0.7-0.4,0.9-2.1,1.1v3.4c-0.5-0.1-0.9-0.1-0.9-0.1c-0.1-0.1-0.1-0.1-0.1-0.1v-3.3
		l-0.1-0.1c-0.2-0.2-0.3-0.6-0.3-1s0.1-0.8,0.3-1l0.1-0.1c0,0,0-0.4,0-0.6c0.3,0.1,0.6,0.1,1,0.2v0.3c1.4,0,1.4,0.2,1.7,0.1
		C49.6,17.7,50.2,18.2,49.8,18.9z M50.2,16.7c-0.2,0.1-0.9,0.2-1.8,0.2c-1.1,0-1.7-0.1-1.8-0.2l0,0c0.2-0.1,0.8-0.2,1.8-0.2
		C49.4,16.5,50,16.7,50.2,16.7L50.2,16.7z M52.4,36.1c0.1-0.7-0.1-1.6-0.3-2.2c0.1-0.1,0.2-0.3,0.3-0.4c0.2,0.7,0.4,1.7,0.4,1.7v0.1
		C52.7,35.6,52.6,35.9,52.4,36.1z M36,75.6l0.5,0.3l0.9-0.8l1.5,0.7L38.8,77l0.5,0.3l0.2-4.2l-0.3-0.2L36,75.6z M39,75.2l-1.1-0.5
		l1.1-0.9L39,75.2z M55,43c0.1-0.1,0.1-0.3,0.3-0.5c-0.1-0.1-0.2-0.2-0.1-0.3c0.1-0.1,0.1-0.5-0.3-0.6c-0.1-0.1-0.4-0.1-0.7-0.3
		h-2.1v0.8c0.5-0.1,0.9-0.3,1.1-0.5v2.2h0.3c0-0.1,0-0.1,0-0.1l0,0H54h0.3h0.1c0.1,0,0.1,0,0.1,0c0-0.2,0-0.3,0.1-0.4
		C54.9,43.1,54.9,43,55,43z M54.2,43.3c-0.1-0.3-0.3-0.6-0.5-0.9c0-0.3,0-0.5,0-0.7c0.1,0.3,0.1,0.7,0.3,0.9
		C54.1,42.7,54.2,43.1,54.2,43.3z M53.3,43.8v-1.6L53,42.4c-0.2,0.1-0.5,0.3-0.9,0.3v0.3c0.3-0.1,0.6-0.2,0.8-0.3v0.1
		c-0.1,0.1-0.3,0.4-0.8,0.8l0,0h0.3c0.2-0.3,0.4-0.5,0.5-0.5v0.5L53.3,43.8L53.3,43.8z M54.5,37.3l0.3-0.2c0,0-0.1,0-0.1,0
		C54.6,37.2,54.5,37.3,54.5,37.3z M80.8,43.8h-0.1c-0.1,0.1-0.1,0.3-0.2,0.5c-0.1,0.4-0.1,0.7-0.3,0.9c-0.1,0.2-0.1,0.5-0.1,0.7
		c0.3-0.5,0.4-0.9,0.6-1.8L80.8,43.8z M57.5,37.6c0-0.1,0.1-0.1,0.1-0.1c0-0.2-0.9-1.1-1.2-1.1c-0.1,0-0.3,0-0.3-0.1
		c-0.1,0.4-0.9,0.3-1.1,0.3c-0.1,0.2-0.3,0.3-0.3,0.5l0.1,0.1c0.5,0,0.3-0.1,0.9,0.2c0.3,0.1,0.5,0.3,0.8,0.3h0.4l0.1-0.1
		c0.2-0.3,0.2-0.6,0.2-0.6c0,0.3,0.1,0.5,0.1,0.7H57.5z M81.2,46.5c0,0.1,0,0.1,0,0.1h-0.1c0,0.1,0,0.1,0,0.1h-0.2v0.3
		c0,0.2,0,0.4,0.1,0.7l0.2-0.1c0,0.1,0.1,0.1,0.1,0.1l0.1-0.1v0.1l0.3-0.1c-0.1-0.1-0.1-0.6-0.1-1L81.2,46.5L81.2,46.5z M72.8,73.3
		c0.2-0.1,0.3-0.3,0.4-0.5c0.2,0.5,0.1,1.1-0.2,1.8l0.5,0.1c0.5-0.9,0.4-2.2-0.1-3c-0.4-0.7-1.2-0.9-1.8-0.5
		c-0.6,0.4-0.7,1.1-0.3,1.6C71.6,73.4,72.2,73.5,72.8,73.3z M71.9,71.7c0.3-0.2,0.7-0.1,0.9,0.2c0.1,0.1,0.1,0.1,0.1,0.3
		c-0.1,0.3-0.3,0.4-0.4,0.5c-0.3,0.2-0.7,0.1-0.9-0.1C71.5,72.2,71.6,71.9,71.9,71.7z M68.5,73.1l1.8,3.4l0.5-0.3l-1.8-3.4
		L68.5,73.1z M62.8,75.3l-1.4,0.4l1.1,3.7l1.4-0.4c1.2-0.3,1.7-1.5,1.4-2.4C65,75.8,64.1,74.9,62.8,75.3z M63.7,78.5l-0.8,0.3
		L62.1,76l0.8-0.2c1-0.3,1.7,0.2,1.9,0.9C64.9,77.2,64.9,78.2,63.7,78.5z M49,63.4v0.5c0.2,0.1,0.3,0.2,0.5,0.3l-0.1-0.7
		C49.3,63.5,49.2,63.5,49,63.4z M88.7,46.7l-0.6-0.3l-0.2-0.1c-0.5-0.1-0.6-0.1-0.9,0l-0.1,0.1c-0.3,0.1-0.5,0.1-0.9-0.1l-0.3-0.1
		c-0.5-0.2-0.7-0.1-1.1-0.1l-0.3,0.1c-0.3,0.1-0.3,0.1-0.5,0l0,0c-0.1-1.9-0.5-3.2-1.3-4.3c-0.1,0.1-0.2,0.1-0.3,0.2
		c0.7,0.9,1.1,2.2,1.2,4L83.2,46V46c-0.2,0-0.4,0.1-0.6,0.2c0.1-0.3,0.2-0.5,0.3-0.7l-0.3-0.1c-0.1,0.3-0.2,0.7-0.3,1
		c-0.1,0-0.1,0-0.1-0.1l-0.3-0.2h-0.1c0.2-0.4,0.3-0.8,0.4-1.3l-0.3-0.1c-0.1,0.4-0.2,0.8-0.4,1.2c-0.2-0.1-0.4,0-0.6,0
		c0.3-0.5,0.4-1.1,0.5-1.8l-0.3-0.1c-0.2,0.8-0.4,1.4-0.7,2c0,0-0.1,0-0.1,0.1c-0.1,0.1-0.2,0.1-0.3,0.1c0,0.1,0,0.3,0,0.3
		c0.2,0,0.3-0.1,0.5-0.2c0.2-0.1,0.5-0.3,1-0.1l0.3,0.1c0.3,0.2,0.4,0.2,0.8-0.1s0.4-0.3,0.8-0.2l0.3,0.1c0.2,0.1,0.3,0.1,0.7,0
		l0.3-0.1c0.3-0.1,0.5-0.1,0.9,0.1l0.3,0.1c0.4,0.1,0.7,0.3,1.1,0.1l0.1-0.1c0.2-0.1,0.2-0.1,0.7,0l0.2,0.1l0.5,0.2
		c0.2,0.1,0.4,0.2,0.8,0.1h0.1c0.3-0.1,0.5-0.1,0.6-0.1c0-0.1,0.1-0.3,0.1-0.3c-0.2,0-0.5,0-0.7,0.1h-0.1
		C89,46.8,88.9,46.7,88.7,46.7z M29.8,70.3l-1.2-1.2l0.8-0.8l1.1,1.1l0.3-0.3l-1.1-1.1l0.8-0.8l1.2,1.1l0.3-0.3l-1.6-1.6L27.8,69
		l1.6,1.6L29.8,70.3z M32.2,71.8c-0.1,0.1-0.5,0.3-0.8,0c-0.3-0.3-0.5-0.6-0.4-1.1l-0.5,0.5c0.1,0.4,0.3,0.7,0.6,0.9
		c0.5,0.4,1.1,0.3,1.5-0.1c0.7-0.9-0.5-2-0.1-2.6c0.2-0.2,0.5-0.2,0.7,0c0.2,0.1,0.4,0.4,0.5,0.9l0.4-0.5c-0.1-0.3-0.3-0.5-0.5-0.7
		c-0.5-0.5-1.1-0.4-1.6,0.1C31.5,70.1,32.7,71.2,32.2,71.8z M56.3,76.4l0.1,1.7l-2.2,0.1l-0.1-1.7h-0.5l0.1,3.8h0.5l-0.1-1.7
		l2.2-0.1l0.1,1.7H57l-0.1-3.8H56.3z M48,79.8l0.5,0.1l0.6-3.8L48.6,76L48,79.8z M50.4,77.2c-0.1,1.1,1.6,1.3,1.5,2.1
		c0,0.2-0.2,0.5-0.7,0.4c-0.4,0-0.7-0.3-0.9-0.6l-0.1,0.7c0.3,0.3,0.6,0.4,1,0.4c0.6,0.1,1.1-0.3,1.1-0.9c0.1-1.2-1.6-1.4-1.5-2.1
		c0-0.3,0.3-0.4,0.6-0.4c0.3,0,0.5,0.1,0.9,0.5l0.1-0.6c-0.3-0.2-0.5-0.3-0.8-0.3C50.9,76.3,50.4,76.6,50.4,77.2z M84,48.3
		c0.2,0.5-0.6,0.9-1.7,0.9c0.1,0.1,0.1,0.1,0.2,0.2c1.9,0,3.1-0.5,3.2-1c0.3,0.6-1.1,1.3-2.8,1.4L83,50c2.8,0.1,4.4-0.6,4.5-1.2
		c0.3,0.8-1.8,1.6-4.1,1.6c0,0,0,0.1,0.1,0.1c3.7,0.1,5.7-0.7,5.8-1.4c0.2,0.9-2.2,1.8-4.9,1.8c1.4,0,2.5-0.1,3.4-0.2
		c0.8-0.4,1.5-1.1,2-1.9c-0.3-0.1-0.7-0.1-1-0.1C87,48.3,85.3,48.3,84,48.3z M45.9,75.4l-0.5-0.1L44.4,79l2.2,0.5l0.1-0.5l-1.7-0.4
		L45.9,75.4z M59.2,79.5L59,78.3l1.6-0.3l-0.1-0.5l-1.6,0.3l-0.2-1.1l1.6-0.3L60.3,76l-2.2,0.3l0.6,3.8l2.2-0.3l-0.1-0.5L59.2,79.5z
		 M42.9,74.5l-1-0.4l-1.3,3.6l1.2,0.5c0.9,0.3,1.4-0.1,1.6-0.5c0.2-0.5,0-0.9-0.5-1.3l0,0c0.4,0,0.7-0.2,0.8-0.5
		C43.9,75.4,43.8,74.8,42.9,74.5z M42.9,77.4c-0.1,0.3-0.4,0.5-1,0.3l-0.7-0.3l0.4-1.1l0.6,0.2C42.9,76.8,43,77.1,42.9,77.4z
		 M43.2,75.7c-0.1,0.4-0.5,0.5-0.9,0.3l-0.3-0.1l0.4-1.1l0.5,0.2C43.2,75.2,43.3,75.4,43.2,75.7z M54.9,41.4
		c0.1,0.2,0.4,0.6,0.5,0.7c0,0.1,0,0.1,0,0.2l0.1-0.3h0.1l-0.2-0.2l0.1-0.1c0,0,0.1-0.2,0.3-0.4C55.8,41.4,54.9,41.4,54.9,41.4z
		 M34.2,60.6c-0.1,0.6,0.2,0.4,1,1l0.1-0.2c0,0-0.3-0.3-0.7-0.5s-0.6-0.8-0.5-1.3c0.1-0.5-0.3-0.5-0.3-0.5S34.3,60,34.2,60.6z
		 M24.5,55.5c-0.5-0.1-0.9-0.1-1.4-0.2c-0.7-0.3-1.5-0.4-2.1-0.9l0.2,0.3c0.6,0.5,1.4,0.9,2.1,1.1h-0.1l0.2,0.4
		c-0.3,0-0.5,0-0.7-0.1c-0.6-0.3-1.2-0.3-1.7-0.7l0.1,0.3c0.9,0.7,1.9,1.2,3,1.4c0.3,0.1,0.9,0.3,1.4,0.3h-0.1l0.3,0.5h0.3l-0.2-0.3
		c0.2,0,0.3,0,0.5,0c-0.1,0-0.2-0.1-0.3-0.1l-0.1-0.1h-0.1c-0.1-0.1-0.3-0.3-0.5-0.5l-1.5-0.5c-0.1,0-0.1,0-0.1,0l-0.2-0.4
		c0.1,0,0.1,0.1,0.3,0.1c0.4,0.2,1.7,0.4,2.4,0.6C26.1,56.3,26,56.2,26,56L24.5,55.5z M33.7,58.3l-0.4,0.2c0,0.3-0.1,0.4,0.1,0.3
		C33.8,58.7,33.7,58.3,33.7,58.3z M33.8,57.7c0-0.2-0.1-0.5-0.1-0.7c0.1-0.1-0.2-0.1-0.2-0.1c-0.1,0.7-0.4,1.1-0.2,1
		C33.6,58,33.8,58,33.8,57.7z M26,58.8l-3.3-1.3c-0.2-0.1-0.4,0.1-0.6,0c-0.3-0.1-0.7-0.1-0.9-0.3l0.1,0.1c1.1,0.9,2.6,1.5,4,1.7
		c0.2,0.1,0.7,0.1,1.1,0.1C26.3,59.1,26.2,58.9,26,58.8z M26.3,59.2C26.1,59.2,26.3,59.3,26.3,59.2L26.3,59.2z M6.8,52.3
		c0.1,0.4,1.6,1,2.9,1.1v-0.1l0,0c-0.3-0.1-0.8-0.4-0.8-0.4l0.7-0.4c0,0,0,0,0.1,0v-0.3l0,0l0,0v-0.3c-0.1,0-0.1,0.1-0.1,0.1
		c-0.3-0.1-0.9-0.3-0.9-0.3l0.7-0.4c0,0,0.1,0,0.3,0v-0.1c-0.2,0-0.3,0-0.5,0C7.9,51.1,6.7,51.8,6.8,52.3z M8.2,53.1l-0.4-0.1
		l-0.1-0.1l0.3-0.1l0.3,0.2C8.4,52.8,8.4,52.9,8.2,53.1z M9.2,52.3c0,0-0.1,0.3-0.4,0.4L8,52.4l-0.2-0.3l0.7-0.3L9.2,52.3z
		 M7.8,51.5c0.1,0,0.3,0.1,0.3,0.1l-0.1,0.3L7.6,52l-0.1-0.2L7.8,51.5z M7.4,52.1l0.3,0.2c0,0-0.1,0.1-0.2,0.2l-0.4-0.1L7,52.3
		L7.4,52.1z M14.4,54.8L14.4,54.8l-0.1-0.2c-0.2,0.1-0.5,0.1-0.7,0.1l0,0h-0.1c-2,0.5-4,0.9-5.3,1.2c0.1,0,0.3,0.1,0.3,0.1v-0.1
		C8.7,56,11.5,55.4,14.4,54.8z M35.6,56.7c-0.4,0.1-0.5,0.4-0.3,0.3c0.2-0.1,0.2-0.3,0.4-0.1c0.2,0.2,0,0.3,0.4,0.5
		c0.4,0.2,0.9,0.2,0.8-0.1c-0.1-0.3-0.5-0.5-0.5-0.5C35.9,56.7,36,56.7,35.6,56.7z M35.2,57.9c-0.4,0.3-0.5,0.3-0.5,0.9
		c-0.1,0.6-0.3,0.7,0,1c0.3,0.3,0.4,0.5,0.6,0.1c0.2-0.3,0.1-0.6,0.1-0.8c-0.1-0.2,0.1-0.6,0.1-0.7C35.3,58.3,35.2,57.9,35.2,57.9z
		 M37.5,58.1c0.2,0,0.3-0.1,0.3-0.2c0-0.1-0.1-0.2-0.3-0.2s-0.3,0.1-0.3,0.2C37.1,58,37.3,58.1,37.5,58.1z M34.2,57.5l-0.1,0.5
		c0,0.2,0.1,0.4,0.2,0.1c0.1-0.2,0.3-0.6,0.2-0.7C34.4,57.3,34.2,57.5,34.2,57.5z M35.7,56.5c0.3-0.1,0.4,0.1,0.5-0.1
		c0.1-0.2,0.1-0.3,0-0.3c-0.2-0.1-0.3,0.1-0.4,0.1c-0.1,0.1-0.3,0.1-0.3,0.1c-0.1,0-0.2,0.1-0.2,0.1C35.4,56.5,35.4,56.5,35.7,56.5z
		 M35.9,55.8c0.1-0.1,0.1-0.3,0.1-0.5c-0.1-0.2-0.2-0.3-0.3-0.3c-0.1,0.1-0.1,0.3-0.1,0.5C35.7,55.7,35.8,55.8,35.9,55.8z
		 M34.4,56.8c0.1-0.3,0.1-0.5,0.3-0.7c0.2-0.1,0.7-0.1,0.5-0.3c-0.1-0.2-0.5-0.3-0.5-0.3c-0.4,0.2-0.8,0.7-0.8,0.8
		C34.1,56.6,34.3,57.1,34.4,56.8z M38.4,59.8c0.2,0.2,0.4,0.6,0.3,0.1c-0.1-0.5-0.3-1.1-0.3-1.1l-0.2,0.2c0,0-0.3,0-0.2,0.3
		C38,59.4,38.1,59.6,38.4,59.8z M57.5,36.1c0.5-0.6,0.1-0.9,0.1-1.2c0.1-0.3-0.1-0.3-1.7-0.3c-1.7-0.1-0.7-0.1-0.8-0.3
		c-0.1-0.2,0-0.3,0-0.3s-0.7-0.9-0.9-1.4c-0.2-0.3-0.1-0.3-0.1-0.6c0.1-0.3-0.3,0.3-0.7,0.3C53,32.5,53.1,32.5,53,33
		c-0.1,0.2,0,0.4,0.1,0.6c0.3,0.1,0.7,0.3,1,0.5c0-0.1,0.1-0.1,0.1-0.1l0.2,0.4c0,0,0.1,0.1,0.5,0.3l0.2,0.1c0.1-0.1,0.3,0,0.7,0.1
		c0.5,0.1,0.9,0,1.1,0c0.1,0,0.3-0.1,0.3,0.1c0.1,0.1,0.1,0.1,0.1,0.2s0,0.1-0.1,0.3c-0.1,0.4-0.3,0.5-0.4,0.7l-0.1,0.1l-0.1,0.1
		c0.2,0,0.4,0.1,0.6,0.3C57.3,36.3,57.4,36.3,57.5,36.1z M11.3,55.8L11.3,55.8c0.9-0.2,1.9-0.4,2.9-0.6c0.1-0.1,0.1-0.1,0.1-0.1
		l0.1,0.1c0.5-0.1,1.1-0.3,1.6-0.3h-0.7c-1.2,0.3-2.5,0.5-3.6,0.7L11.3,55.8z M58,42.5l-0.6-0.3l-0.1,0.2l0.6,0.3L58,42.5z M56.8,35
		L56.8,35c-0.1,0-0.1,0-0.1,0l-0.3,0.3c0,0-0.1,0.2-0.1,0.5c0,0,0,0,0-0.1l0.1-0.1l0.2-0.2C56.7,35.4,56.7,35.4,56.8,35z M26.5,39
		c-2.8,0.5-5,1.2-6.1,2c0.1,0.1,0.1,0.2,0.2,0.3c1.1-0.7,3.1-1.4,5.9-2V39z M57.9,47.6c0.1,0,0.1,0,0.1,0l0,0H57.9z M76.3,51
		c0.3,0,0.4,0.1,0.8,0.4c0.3,0.3,0.5,0.5,1,0.5c-0.1-0.1-0.2-0.3-0.3-0.4c-0.1-0.1-0.2-0.1-0.4-0.3c-0.4-0.4-0.6-0.5-1.1-0.5
		c-0.4,0-0.8,0-0.8-0.3c0-0.1-0.1-0.3-0.2-0.3c-0.1,0.1-0.1,0.3-0.2,0.4l0,0C75.2,51,76,51,76.3,51z M26.4,47.9l-0.1-0.2h-0.1
		C26.3,47.8,26.3,47.9,26.4,47.9z M94.5,47.7c-0.1,0-0.2,0-0.4,0c0,0.1-0.1,0.3-0.1,0.4c0.3-0.1,0.4-0.1,0.5,0L94.5,47.7L94.5,47.7z
		 M58.1,47.9C58.1,47.9,58.1,47.9,58.1,47.9l-0.3-0.1C57.9,47.9,58,47.9,58.1,47.9z M58.1,47.9c-0.1,0-0.1,0-0.2-0.1l-0.1,0.3
		c0.1,0,0.3,0.1,0.4,0.1C58.1,48.2,58.1,48.1,58.1,47.9z M58.5,42l-0.6-0.3l-0.1,0.2l0.6,0.3L58.5,42z M59.1,41.5l-0.6-0.3l-0.1,0.2
		l0.6,0.3L59.1,41.5z M61.7,63.9c-0.4-0.1-0.7-0.1-1.1-0.1l0.1,0.2c0.3,0,0.7,0,1.1,0.1c0.7,0.1,1.4,0.1,2,0c0,0.1,0.1,0.2,0,0.3
		l-0.1-0.1c-0.8,0.1-1.7,0-2.5,0c-0.3-0.2-0.6-0.2-0.9-0.2l0.1,0.2c0.1,0,0.2,0,0.3,0c0.2,0.1,0.4,0,0.5,0.1c0.8,0,1.6,0.1,2.5,0
		l0.1,0.2c0.1-0.2,0-0.4-0.1-0.6c0-0.1,0-0.1-0.1-0.1S63.7,64,63.7,64C62.9,63.9,62.3,64,61.7,63.9z M52.7,62.1l-0.8-0.7
		c-0.1,0.1-0.1,0.1-0.2,0.3l0,0l0.7,0.6C52.5,62.3,52.5,62.1,52.7,62.1z M52,59.8l0.4-0.2c-0.2-0.3-0.4-0.6-0.5-0.7
		C52,59,52,59.4,52,59.8z M63.7,63.9c0,0.1,0.1,0.2,0.1,0.3C63.8,64,63.7,63.9,63.7,63.9z M35,62.4c-0.1-0.3,0.1-0.3-0.1-0.7
		s-0.7-0.5-0.7-0.2s0.3,0.7,0.3,0.7c0.3,0.3,0,0.4,0.4,0.5c0.2,0.1,0.4,0.1,0.5,0.1C35.2,62.9,35.1,62.7,35,62.4z M35.4,62.9
		C35.5,62.9,35.4,62.9,35.4,62.9C35.4,62.9,35.4,62.9,35.4,62.9z M49,62.5c0.4,0.2,0.9,0.2,1.4,0.1c0.2-0.1,0.3-0.3,0.5-0.5l0.3-0.3
		c0.2-0.1,0.3-0.3,0.3-0.6c0-0.2,0-0.4-0.1-0.7v-0.1c0-0.1,0-0.2-0.1-0.3c0.1,0,0.2-0.1,0.2-0.1v-0.1c0,0,0-0.2-0.1-0.3
		c-0.1-0.1-0.1-0.1-0.3,0c-0.1-0.1-0.3-0.4-0.3-0.4c-0.3-0.3-0.7-0.3-0.9-0.3c-0.1,0-0.2,0-0.2,0c-0.3,0.1-0.7,0.1-1.4-0.2l-0.5-0.3
		l0.2,0.5c0,0,0.1,0.5-0.3,1.2c-0.1,0.3-0.3,0.9-0.3,1.1C47.5,61.4,48.5,62.3,49,62.5z M51.1,61.2L51.1,61.2c0,0.2-0.1,0.3-0.1,0.3
		C51,61.4,51,61.2,51.1,61.2z M50.4,59.4L50.4,59.4l0.3,0.3l0.2,0.2l0,0V60v0.1C50.8,59.8,50.6,59.6,50.4,59.4L50.4,59.4L50.4,59.4z
		 M49.9,59.2c0.1,0,0.1,0,0.2,0L50,59.3l0,0L49.9,59.2L49.9,59.2L49.9,59.2z M50.2,60.4c0,0.1,0,0.1,0,0.2l0,0
		c0,0.1-0.2,0.4-0.4,0.5c-0.1,0.1-0.8,0.1-1,0l-0.1,0.3c0.3,0.1,1.1,0.1,1.4-0.1c0,0,0.6-0.5,0.5-0.9v-0.2c0.1,0.2,0.1,0.4,0.1,0.6
		l0,0c0,0.2-0.5,1.1-0.8,1.4c-0.1,0.1-0.6-0.3-0.9-0.4l-0.3-0.3c-0.2-0.1-0.2-0.3-0.2-0.5c0-0.1,0.1-0.3,0.1-0.5v-0.1
		c0.1-0.5,0.4-0.6,0.8-0.7l0,0C49.5,59.8,50.1,60,50.2,60.4z M49.2,59.3c0.1,0,0.2,0,0.3,0l-0.1,0.1c-0.1,0-0.1,0-0.2,0.1
		C49.2,59.5,49.2,59.3,49.2,59.3z M48.5,59.1c0.1,0.1,0.3,0.1,0.4,0.1v0.3h0.2c-0.1,0.1-0.2,0.1-0.3,0.1l-0.3-0.3
		C48.5,59.3,48.5,59.2,48.5,59.1z M48.3,59.8l0.1,0.1c0,0.1-0.1,0.1-0.1,0.1L48.3,60C48.3,60,48.3,59.9,48.3,59.8z M48.1,60.4
		l0.1,0.1v0.1c0,0.1-0.1,0.1-0.1,0.3h-0.1C48,60.6,48.1,60.4,48.1,60.4z M47.9,61.1h0.2c0,0.1,0,0.2,0.1,0.3
		C48,61.3,47.9,61.2,47.9,61.1L47.9,61.1z M52,60.4l0.7-0.3c-0.1-0.1-0.1-0.1-0.1-0.2l-0.6,0.3C52,60.2,52,60.3,52,60.4z M51.3,62.3
		l0.5,0.6c0.1-0.1,0.2-0.1,0.3-0.3l-0.7-0.5C51.4,62.1,51.4,62.2,51.3,62.3z M50.8,62.6l0.5,0.7L51,63.5l-0.4-0.7
		c-0.3,0.2-0.7,0.3-0.9,0.4h0.1l0.2,1h-0.1c0.3,0,0.5,0,0.6-0.1c0.1,0,0.1-0.1,0.2-0.1l-0.3,0.1L50,63.1l0.3-0.1l0.4,0.9
		c0.2-0.2,0.5-0.5,0.9-0.8L51,62.5C51,62.5,50.9,62.6,50.8,62.6z M48.4,63.3c0.1,0.1,0.1,0.1,0.2,0.2v-0.3
		C48.5,63.3,48.3,63.2,48.4,63.3z M57,62.5c0-0.1,0-0.1-0.1-0.1L57,62.5c0,0,0-0.1-0.1-0.2l0,0c0,0,0,0-0.1,0
		c-0.1-0.1-0.3-0.1-0.3-0.1l0.1,0.2C56.7,62.5,56.9,62.5,57,62.5z M52.5,60.8c0.3,0.3,0.1,0.5-0.1,0.5l0.5,0.4
		c0.2-0.2,0.3-0.3,0.3-0.4c0-0.1-0.1-0.5-0.3-0.9l-0.5,0.3C52.3,60.7,52.5,60.8,52.5,60.8z M35.4,60.6c0.2,0.2,0.5,0,0.5,0l-0.3-0.3
		C35.3,60.5,35.2,60.4,35.4,60.6z M56.9,62.3L56.9,62.3L56.9,62.3L56.9,62.3z M69.6,62.7C69.5,62.7,69.5,62.7,69.6,62.7
		C69.5,62.7,69.6,62.7,69.6,62.7L69.6,62.7z M38.4,61.6c-0.2,0.1-0.5,0.4-0.5,0.5c0.1,0.1,0.3,0.1,0.3,0.1l0.3-0.4
		C38.6,61.7,38.5,61.5,38.4,61.6z M38.1,63.1c-0.4,0-0.7,0.5-0.9,0.6c-0.1,0.2-0.3-0.1-0.5,0c-0.1,0-0.5,0.7-0.5,0.7
		c0.5,0.1,0.5,0.3,1,0c0.5-0.3,0.7-0.1,0.9-0.5C38.3,63.5,38.6,63.1,38.1,63.1z M75.6,40c-0.3,0.1-0.7,0.3-1.5,0.4
		c0.1,0.1,0.1,0.1,0.2,0.2c0.7-0.1,1.1-0.3,1.4-0.3L75.6,40z M36.7,63.4c0.2-0.1,0.3-0.2,0.1-0.3c-0.3-0.1-0.7-0.2-0.7-0.1
		c-0.1,0.1,0.1,0.3,0.1,0.3L36.7,63.4z M36.1,60c0-0.3-0.1-0.5-0.2-0.5s-0.2,0.2-0.2,0.5c0,0.3,0.1,0.5,0.2,0.5
		C35.9,60.4,36.1,60.2,36.1,60z M73.3,60.4C73.3,60.4,73.3,60.4,73.3,60.4L73.3,60.4C73.3,60.4,73.3,60.4,73.3,60.4z M73.2,60.8
		l0.1,0.1c0-0.1,0-0.1,0-0.2C73.3,60.7,73.3,60.7,73.2,60.8z M38.1,61.3c0.2,0.2,0.5,0,0.5,0L38.3,61C38.1,61.1,37.9,61,38.1,61.3z
		 M36.8,59.4c0.3,0.2,0.1,0.5,0,1c-0.1,0.5,0.3,0.5,0.3,0.5s0.1-0.7,0.1-1.3c0.1-0.6-0.2-0.4-1.1-0.9l-0.1,0.2
		C36.1,58.9,36.5,59.2,36.8,59.4z M36.5,62.1c0.1-0.1,0.1-0.2,0.1-0.2c0,0,0,0,0.1,0c0.1,0,0.2-0.1,0.2-0.3c0-0.1-0.1-0.3-0.2-0.3
		s-0.2,0.1-0.2,0.3c0,0.1,0,0.1,0.1,0.2c-0.2-0.1-0.3,0.1-0.4,0.1C36,62,35.8,62,35.7,62s-0.2,0.1-0.2,0.1c0.2,0.1,0.2,0.2,0.5,0.1
		C36.3,62.2,36.3,62.3,36.5,62.1z M35.5,63.7c0,0.2-0.1,0.2,0,0.3c0.1,0.1,0.1,0.1,0.2,0.1s0-0.2,0-0.3c0-0.1,0-0.2,0-0.2
		c0-0.1-0.1-0.1-0.1-0.1C35.6,63.6,35.6,63.6,35.5,63.7z M72.2,62.1L72.2,62.1L72.2,62.1L72.2,62.1z M38,60.9
		c0.2-0.1,0.3-0.2,0.1-0.3c-0.3-0.1-0.7-0.2-0.7-0.1c-0.1,0.1,0.1,0.3,0.1,0.3L38,60.9z M36.8,58.6l-0.3-0.3
		c-0.3,0.1-0.4,0.1-0.2,0.3C36.5,58.8,36.8,58.6,36.8,58.6z M37,62.3c0.1,0.1,0.5,0.5,0.5,0.1c0-0.3-0.2-0.5-0.1-0.7
		c0.1-0.2,0.5-0.5,0.3-0.5c-0.2-0.1-0.5,0-0.5,0C37,61.6,36.9,62.2,37,62.3z M75.2,62.3L75.2,62.3L75.2,62.3L75.2,62.3z M79.9,37.2
		c-0.2-2.4-1.5-3.2-2.9-4.1l-1.5-1.1c-2-1.7-7.6-1.8-11.3-0.8c-2,0.5-3.6,2.2-4.3,4.3c-0.2,0.7-0.3,1.4-0.3,2.1
		c-0.1,0.1-0.1,0.2-0.1,0.3c-0.3,0.3-0.5,0.5-0.7,0.5l0.1,0.1c0.3,0.3,0.4,0.5,0.5,0.6c-0.1,0.1-0.2,0.1-0.3,0.1
		c-0.1-0.1-0.1-0.2-0.4-0.5c-0.2-0.2-0.3-0.3-0.3-0.4v-0.1c0.1-0.1,0.1-0.1,0.3-0.2c0.1-0.1,0.4-0.1,0.7-0.4
		c-0.3,0.1-0.6,0.2-0.8,0.3l-0.3,0.1h-0.1v2.2c0.7-0.5,1.3-0.9,1.8-1l-0.1-0.1l0,0h0.1c0.1,0.3,0.2,0.7,0.4,1
		c0.1-0.1,0.2-0.2,0.3-0.3c0-0.1-0.1-0.1-0.1-0.2c0.1,0,0.1,0.1,0.2,0.1c0.1-0.1,0.1-0.1,0.3-0.2c-0.2-0.1-0.4-0.1-0.6-0.2
		c-0.1-0.2-0.1-0.4-0.1-0.5c0.3,0.3,0.7,0.5,1.1,0.5l-0.2-0.4c-0.3,0-0.6-0.1-0.9-0.3c-0.1-0.2-0.1-0.4-0.1-0.6
		c0.3,0.3,0.6,0.4,0.9,0.5l-0.3-0.4c-0.3-0.1-0.5-0.2-0.7-0.3c0-0.1,0-0.1,0-0.1c0-0.2,0-0.3,0.1-0.5l0,0l0.1,0.1l0,0
		c0.2,0.3,0.5,0.5,0.7,0.7l-0.2-0.4c-0.2-0.1-0.3-0.3-0.5-0.4v-0.1c0-0.2,0.1-0.4,0.1-0.7c0,0,0,0,0-0.1c0,0.1,0,0.1,0,0.1
		c0.1,0.1,0.1,0.1,0.1,0.2v0l-0.1-0.3c0-0.1,0.1-0.3,0.1-0.5c0.5-1.9,1.9-3.4,3.6-4v0.1c0.4-0.1,0.7-0.3,1-0.3c0,0,0,0,0.1,0
		c0.9-0.2,1.6-0.1,2.2,0l0.8,0.1v-0.3l-0.8-0.1c-0.1,0-0.3-0.1-0.4-0.1c0.7-0.1,1.4-0.1,2-0.1l0.1,0.1c0.1,0.1,0.2,0.2,0.3,0.3
		c0,0.1,0.1,0.2,0.1,0.3l0.2,0.4c-0.1-0.2-0.1-0.4-0.3-0.6l0,0l-0.1-0.1c0,0,0-0.1-0.1-0.1c0-0.1-0.1-0.1-0.1-0.1v0.1
		c-0.1-0.1-0.1-0.2-0.2-0.3c2.2-0.1,4.4,0.3,5.7,1c-1.5-0.6-2.6-0.5-3.8-0.3h-0.1c-0.1-0.1-0.3,0-0.3-0.2l0.1,0.2h-0.2v0.3l0.3-0.1
		c0.1,0.1,0.3,0.1,0.3,0.2l-0.1-0.2l0,0c0.1,0,0.3-0.1,0.5-0.1l0.1,0.2c0.1,0.1,0.1,0.1,0.1,0.1l-0.2-0.3c1.1-0.1,2.3-0.1,3.9,0.7
		l0.1-0.1l1.4,1c0.9,0.5,1.6,1,2.1,1.8c0.3,0.5,0.5,1.1,0.6,2s0,1.5-0.1,2c0.1-0.1,0.3-0.2,0.5-0.3C79.9,38.5,79.9,37.9,79.9,37.2z
		 M71,36.3c0.3-0.8,0.4-1.4-0.5-2.8l-0.2,0.1c0.8,1.4,0.7,1.8,0.5,2.6L71,36.3z M70.2,34.3c-0.1-0.1-0.1-0.3-0.2-0.4
		C70.1,34,70.2,34.2,70.2,34.3z M68.8,32.2l-0.2-0.4h-0.4l0.2,0.4H68.8z M60.2,36.3L60.2,36.3C60.2,36.3,60.2,36.3,60.2,36.3
		C60.2,36.3,60.2,36.3,60.2,36.3z M75.8,39.3l-0.1-0.2c-0.4,0.2-1.2,0.5-2.3,0.6c0.1,0.1,0.2,0.1,0.3,0.2
		C74.7,39.8,75.4,39.5,75.8,39.3z M77,38.8l0.1,0.3c2-0.6,1.9-2.9,1.9-3.8h-0.3C78.7,36.1,78.7,38.3,77,38.8z M60.9,37.1l-0.2-0.4
		c-0.2,0-0.3-0.3-0.5-0.4C60.3,36.7,60.6,37,60.9,37.1z M66.2,33.8c-0.1-0.1-0.5-0.4-0.6-0.6c0.7-0.3,1.7-0.6,2.8-0.7v-0.3
		c-3,0.3-4.9,1.4-5.3,3.4l0.3,0.1c0.3-1.1,1-1.9,2.1-2.4c0.2,0.3,0.7,0.7,0.7,0.7L66.2,33.8z M70.2,34.1c0,0-0.1,0-0.1,0
		c0.1,0.1,0.1,0.2,0.1,0.3c0.1,0.1,0.1,0.1,0.2,0.1L70.2,34.1z M65.2,34.6l0.1-0.2c0,0-0.3-0.3-0.5-0.5L64.6,34
		C64.8,34.3,65.2,34.6,65.2,34.6z M75.8,38.5l-0.1-0.2c-0.5,0.3-1.7,0.7-3.2,0.8c0.1,0.1,0.2,0.1,0.3,0.3
		C74.3,39.2,75.3,38.8,75.8,38.5z M65.6,34.3l0.1-0.2c0,0-0.4-0.3-0.5-0.6L65,33.6C65.2,34,65.6,34.3,65.6,34.3z M64.9,34.8
		l-0.4-0.5l-0.2,0.1l0.4,0.6L64.9,34.8z M26.5,45.4c-0.1,0-0.1,0-0.3-0.1v-0.1l0,0c-0.9-0.1-1.7-0.3-2.4-0.5
		c0.1,0.2,0.3,0.3,0.5,0.5h0.1l0,0c0.1,0.1,0.3,0.3,0.3,0.4c0.1-0.1,0.1-0.1,0.2-0.1l-0.1-0.2c0.2,0.1,0.4,0.1,0.6,0.1
		c-0.1,0.1-0.2,0.2-0.3,0.3c-0.1,0-0.2-0.1-0.3-0.1c0.2,0.2,0.4,0.4,0.5,0.6l0.1-0.1c0.1,0,0.3,0,0.5,0.1l0.2,0.4
		c-0.1,0-0.3-0.1-0.5-0.1c0.1,0.2,0.3,0.3,0.4,0.5c0.2,0,0.4,0.1,0.5,0.1V47l-0.1-0.1c-0.1,0-0.2,0-0.3,0c0.1-0.1,0.1-0.2,0.1-0.3
		c0.1,0,0.2,0,0.3,0.1v-0.2l-0.1-0.3l0,0c0.1-0.1,0.1-0.2,0.2-0.3l0,0l0,0l0,0v-0.5H26.5z M25.9,46c-0.1,0-0.2,0-0.3-0.1
		c0.1-0.1,0.1-0.2,0.2-0.3l-0.1-0.1c0.1,0,0.1,0,0.2,0.1C25.9,45.8,25.9,46,25.9,46z M63.5,35.1l0.2,0.5l0.2-0.1L63.7,35L63.5,35.1z
		 M70.3,34.4C70.3,34.4,70.2,34.4,70.3,34.4C70.2,34.4,70.2,34.4,70.3,34.4C70.2,34.4,70.2,34.4,70.3,34.4z M73.7,33.2h-0.4l0.2,0.4
		h0.4L73.7,33.2z M73.7,34.4L73.5,34c-0.6,0-1.1,0.3-1.7,0.6L72,35C72.6,34.8,73.1,34.5,73.7,34.4z M72.8,32.8
		c-0.1,0-0.2,0.1-0.3,0.1l0.2,0.4c0.1-0.1,0.1-0.1,0.3-0.1L72.8,32.8z M74.4,33.6h-0.3c0,0.4,0,0.7-0.4,0.7v0.1v0.1
		C74.4,34.4,74.4,34,74.4,33.6z M74.7,41.1c0.3-0.1,0.5-0.1,0.6-0.1l-0.1-0.3c-0.1,0.1-0.4,0.1-0.7,0.2C74.5,41,74.6,41.1,74.7,41.1
		z M71.9,32.8c-0.2,0.1-0.4,0.3-0.5,0.5l0.2,0.4c0.1-0.2,0.3-0.4,0.5-0.5L71.9,32.8z M72.9,33.8l-0.2-0.4c-0.4,0.1-0.8,0.3-1.1,0.5
		l0.2,0.4C72.1,34.2,72.5,33.9,72.9,33.8z M76.6,37.5l0.1,0.2c1.1-0.5,1.1-2,1-2.8v-0.3h-0.3v0.4C77.4,35.7,77.6,37,76.6,37.5z
		 M77,37.9l0.1,0.2c1.3-0.6,1.1-2.2,1.1-3.1v-0.4H78V35C78.1,36,78.1,37.5,77,37.9z M72.1,37.9c1.2,0.1,2.3-0.3,3.4-1.1l-0.1-0.2
		c-1,0.7-2.1,1.1-3.2,1L72.1,37.9z M75.8,37.6l-0.1-0.2c-0.8,0.5-2.1,1.1-3.8,0.9v0.3C73.7,38.8,74.9,38.1,75.8,37.6z M76.1,36.9
		l0.1,0.3c1.1-0.5,1-1.8,0.9-2.5v-0.3h-0.3v0.3C76.9,35.4,77,36.5,76.1,36.9z M74.4,34.8L74.4,34.8c-0.9-0.1-1.6,0.3-2.3,0.6
		l0.2,0.4c0.6-0.3,1.2-0.6,1.9-0.6l0,0l0,0c0.1,0,0.2,0,0.3,0l-0.1-0.1c0.5-0.3,0.4-0.8,0.4-1.1v-0.1h-0.3V34
		C74.7,34.2,74.7,34.6,74.4,34.8z M72.4,36l0.2,0.4c0.9-0.3,1.8-0.8,2.8-0.7l-0.2-0.3c0.3-0.3,0.3-0.9,0.3-1.3v-0.2h-0.3v0.2
		c0,0.4,0.1,0.9-0.4,1.2C74,35.3,73.2,35.7,72.4,36z M75.2,35.9L75.2,35.9c-0.9,0.1-1.7,0.5-2.5,0.7l0.2,0.4c0.9-0.3,2-0.8,3-0.8
		c-0.1,0.1-0.1,0.1-0.2,0.1l0.1,0.3c0.9-0.4,0.9-1.6,0.9-2.2v-0.3h-0.3v0.3c0,0.5,0.1,1.1-0.3,1.6L76,35.9c-0.1,0-0.2,0-0.3,0
		c0.5-0.4,0.5-1.1,0.4-1.6V34h-0.3v0.3C75.8,34.8,75.8,35.7,75.2,35.9z M64.5,35.1l-0.3-0.5l-0.2,0.1l0.3,0.5L64.5,35.1z M59.6,41
		c0.1-0.1,0.1-0.1,0.1-0.2l-0.1-0.1L59.6,41L59.6,41z M70,32.6l0.2,0.4h0.1l-0.2-0.4H70z M59.4,41.4c0.1-0.1,0.1-0.1,0.1-0.2
		L59.1,41l-0.1,0.2L59.4,41.4z M69.9,33.9c0-0.1-0.1-0.1-0.1-0.1l0.2,0.4C70,34,70,34,69.9,33.9z M58.3,37.7
		C58.3,37.7,58.3,37.7,58.3,37.7c-0.1-0.1-0.2-0.1-0.3-0.2c0,0.1,0,0.1,0,0.1h0.1v0.2L58.3,37.7z M70.6,33.4h0.3L70.7,33h-0.3
		L70.6,33.4z M70.3,32.3l0.2,0.4c0.1,0,0.2,0.1,0.3-0.1l-0.2-0.4C70.5,32.3,70.4,32.3,70.3,32.3z M69.9,33.8
		C69.9,33.8,69.9,33.8,69.9,33.8c0.1,0.1,0.1,0.1,0.1,0.1C69.9,33.9,69.9,33.8,69.9,33.8z M69.4,32.8l-0.2-0.4h-0.1l0.2,0.4H69.4z
		 M68.1,33l-0.2-0.3l-0.2,0.1l0.2,0.3L68.1,33z M68.7,37.1l0.1-0.2c-0.3-0.2-0.5-0.4-0.5-0.6c-0.1-0.7,0.7-1.7,1.6-2.7l-0.1-0.1
		l-0.2-0.4c-0.1,0-0.3,0.1-0.4,0l0.2,0.4c0.1,0,0.1,0,0.2,0c-1,1.1-1.6,2.1-1.6,2.8C68.1,36.6,68.3,36.9,68.7,37.1z M69.5,34
		l-0.1,0.2l0.3,0.3l0.2-0.1L69.5,34z M66.6,33.6c-0.1-0.1-0.5-0.4-0.5-0.6l-0.2,0.1c0.1,0.3,0.5,0.6,0.6,0.7L66.6,33.6z M66.9,33.4
		l-0.5-0.5L66.2,33l0.5,0.6L66.9,33.4z M67.7,33.1l-0.3-0.4l-0.2,0.1l0.3,0.4L67.7,33.1z M67.3,33.3L67,32.8L66.8,33l0.4,0.5
		L67.3,33.3z M69.8,31.6c-0.1,0-0.3-0.1-0.4-0.1l0.2,0.4c0.1,0,0.3,0.1,0.4,0.1L69.8,31.6z M69.6,34.8l-0.3-0.1l-0.2-0.1l-0.1,0.2
		l0.2,0.1c0.3,0.1,0.4,0.2,0.5,0.1L69.6,34.8z M69.5,35.2c-0.1,0-0.3-0.1-0.6-0.2l-0.1,0.2c0.3,0.2,0.6,0.3,0.8,0.2L69.5,35.2z
		 M69.3,36.4l-0.1-0.3c-0.2,0.1-0.5,0-0.8-0.1l-0.1,0.2C68.6,36.3,69,36.5,69.3,36.4z M69.8,34.6L69.8,34.6l-0.4-0.3l-0.1,0.2
		l0.3,0.2c0.1,0.1,0.2,0.1,0.3,0.1L69.8,34.6z M69.3,35.8c-0.2,0.1-0.5,0-0.8-0.1l-0.1,0.2c0.3,0.1,0.7,0.3,1,0.1L69.3,35.8z
		 M69.4,35.4c-0.1,0.1-0.4,0-0.7-0.2l-0.1,0.2c0.2,0.1,0.6,0.3,0.9,0.2L69.4,35.4z M79.9,35.9C79.9,35.9,79.9,35.9,79.9,35.9
		L79.9,35.9L79.9,35.9z M68.9,66.8l-0.3-0.5c-4.2,2.8-9.2,4.4-14.5,4.4c-5.4,0-10.5-1.6-14.7-4.5l-0.3,0.5c4.3,2.8,9.5,4.5,15,4.5
		C59.6,71.3,64.7,69.6,68.9,66.8z"/>
</g>
</svg>
