<?xml version="1.0" standalone="no"?>
<!DOCTYPE svg PUBLIC "-//W3C//DTD SVG 1.1//EN" "http://www.w3.org/Graphics/SVG/1.1/DTD/svg11.dtd" >
<svg>
<metadata>
Created by FontForge 20090622 at Fri Mar 17 13:40:27 2017
 By deploy user
2010 Lukasz Dziedzic published by FSI FontShop International GmbH
</metadata>
<defs>
<font id="GoodPro-CondMedium" horiz-adv-x="390" >
  <font-face 
    font-family="GoodPro-CondMedium"
    font-weight="500"
    font-stretch="condensed"
    units-per-em="1000"
    panose-1="2 11 6 6 2 1 1 2 1 2"
    ascent="820"
    descent="-180"
    x-height="508"
    cap-height="725"
    bbox="-469 -206 1004 918"
    underline-thickness="70"
    underline-position="-20"
    unicode-range="U+000D-U+FB04"
  />
<missing-glyph horiz-adv-x="408" 
d="M221 263l4 60q91 61 91 147q0 47 -28.5 78t-85.5 31q-49 0 -81.5 -28.5t-45.5 -76.5l56 -16q19 60 67 60t48 -54q0 -74 -83 -114l5 -87h53zM158 214v-83h77v83h-77zM17 0v724h359v-724h-359z" />
    <glyph glyph-name="f_f" unicode="ff" horiz-adv-x="479" 
d="M467 507v-73h-91v-434h-92v434h-132v-434h-92v434h-48v73h48v48q0 78 43 124.5t133 49.5l5 -71q-93 -4 -93 -105v-46h136v48q0 78 43 124.5t133 49.5l5 -71q-93 -4 -93 -105v-46h95z" />
    <glyph glyph-name="f_f_i" unicode="ffi" horiz-adv-x="650" 
d="M459 729l5 -71q-93 -4 -93 -105v-46h227v-507h-92v434h-131v-434h-92v434h-131v-434h-92v434h-48v73h48v48q0 78 43 124.5t133 49.5l5 -71q-93 -4 -93 -105v-46h135v48q0 78 43 124.5t133 49.5zM513 725h81v-116h-81v116z" />
    <glyph glyph-name="f_f_j" unicode="ffj" horiz-adv-x="651" 
d="M459 729l5 -71q-93 -4 -93 -105v-46h227v-482q0 -177 -156 -188l-7 75q37 6 54 31.5t17 80.5v410h-131v-434h-92v434h-131v-434h-92v434h-48v73h48v48q0 78 43 124.5t133 49.5l5 -71q-93 -4 -93 -105v-46h135v48q0 78 43 124.5t133 49.5zM513 725h81v-116h-81v116z" />
    <glyph glyph-name="f_f_l" unicode="ffl" horiz-adv-x="658" 
d="M457 507v-73h-82v-434h-92v434h-131v-434h-92v434h-48v73h48v48q0 78 43 124.5t133 49.5l5 -71q-93 -4 -93 -105v-46h135v48q0 80 45.5 126.5t142.5 46.5h39v20h92v-748h-92v658h-37q-54 0 -78 -25.5t-24 -79.5v-46h86z" />
    <glyph glyph-name="f_i" unicode="fi" horiz-adv-x="427" 
d="M236 729l5 -71q-93 -4 -93 -105v-46h227v-507h-92v434h-131v-434h-92v434h-48v73h48v48q0 78 43 124.5t133 49.5zM290 725h81v-116h-81v116z" />
    <glyph glyph-name="f_j" unicode="fj" horiz-adv-x="428" 
d="M236 729l5 -71q-93 -4 -93 -105v-46h227v-482q0 -177 -156 -188l-7 75q37 6 54 31.5t17 80.5v410h-131v-434h-92v434h-48v73h48v48q0 78 43 124.5t133 49.5zM290 725h81v-116h-81v116z" />
    <glyph glyph-name="f_l" unicode="fl" horiz-adv-x="436" 
d="M235 507v-74h-83v-433h-92v433h-48v74h48v48q0 80 45.5 126.5t142.5 46.5h40v20h92v-748h-92v658h-38q-53 0 -77.5 -25.5t-24.5 -79.5v-46h87z" />
    <glyph glyph-name=".notdef" horiz-adv-x="408" 
d="M221 263l4 60q91 61 91 147q0 47 -28.5 78t-85.5 31q-49 0 -81.5 -28.5t-45.5 -76.5l56 -16q19 60 67 60t48 -54q0 -74 -83 -114l5 -87h53zM158 214v-83h77v83h-77zM17 0v724h359v-724h-359z" />
    <glyph glyph-name=".null" horiz-adv-x="0" 
 />
    <glyph glyph-name=".null" horiz-adv-x="0" 
 />
    <glyph glyph-name="nonmarkingreturn" horiz-adv-x="333" 
 />
    <glyph glyph-name="CR" unicode="&#xd;" horiz-adv-x="165" 
 />
    <glyph glyph-name="space" unicode=" " horiz-adv-x="165" 
 />
    <glyph glyph-name="exclam" unicode="!" horiz-adv-x="198" 
d="M51 725h92v-310l-9 -204h-74l-9 201v313zM46 0v114h104v-114h-104z" />
    <glyph glyph-name="quotedbl" unicode="&#x22;" horiz-adv-x="274" 
d="M155 604v121h78v-121l-21 -106h-39zM38 604v121h78v-121l-21 -106h-39z" />
    <glyph glyph-name="numbersign" unicode="#" horiz-adv-x="433" 
d="M29 448v68h83l15 209h67l-15 -209h91l15 209h66l-14 -209h67v-68h-68l-11 -168h79v-67h-81l-14 -213h-67l14 213h-90l-15 -213h-66l14 213h-70v67h71l11 168h-82zM178 448l-11 -168h91l11 168h-91z" />
    <glyph glyph-name="dollar" unicode="$" horiz-adv-x="398" 
d="M186 818h57l1 -89q94 -27 122 -150l-66 -21q-17 72 -64 89l-11 -235q34 -25 53 -41.5t43.5 -45t36 -63.5t11.5 -78q0 -82 -39.5 -133t-106.5 -59l-11 -88h-56l-2 91q-107 23 -131 163l70 24q17 -82 68 -101l13 249q-36 26 -54 41.5t-43.5 44t-36.5 62.5t-11 77
q0 74 39 123t107 56zM289 171q0 66 -66 123h-2v-218q68 11 68 95zM111 564q0 -62 64 -116h2v203q-66 -10 -66 -87z" />
    <glyph glyph-name="percent" unicode="%" horiz-adv-x="503" 
d="M242 601v-58q0 -132 -106 -132q-107 0 -107 132v58q0 134 107 134q106 0 106 -134zM95 601v-58q0 -38 9.5 -53.5t31.5 -15.5q21 0 30.5 15.5t9.5 53.5v58q0 37 -9.5 53t-30.5 16q-22 0 -31.5 -15.5t-9.5 -53.5zM39 1l350 723h72l-351 -723h-71zM477 177v-58
q0 -132 -106 -132q-107 0 -107 132v58q0 64 27 99t80 35q52 0 79 -35t27 -99zM330 177v-58q0 -38 9.5 -53.5t31.5 -15.5q21 0 30.5 15.5t9.5 53.5v58q0 37 -9.5 53t-30.5 16t-31 -15.5t-10 -53.5z" />
    <glyph glyph-name="ampersand" unicode="&#x26;" horiz-adv-x="494" 
d="M372 600l-66 -35q-31 89 -83 89q-56 0 -56 -70q0 -46 22 -85l141 -245q15 76 15 169v18h130v-77h-59q-6 -117 -35 -199q45 -69 112 -87l-13 -86q-85 13 -143 83q-57 -84 -149 -84q-77 0 -122.5 51.5t-45.5 160.5q0 71 27.5 132.5t76.5 101.5q-45 70 -45 144q0 67 36 110
t104 43q58 0 94 -32.5t59 -101.5zM200 72q56 0 93 73l-125 217q-54 -63 -54 -158q0 -132 86 -132z" />
    <glyph glyph-name="quotesingle" unicode="'" horiz-adv-x="149" 
d="M36 604v121h78v-121l-21 -106h-39z" />
    <glyph glyph-name="parenleft" unicode="(" horiz-adv-x="225" 
d="M49 161v341q0 167 44 239t136 72h23v-69h-23q-102 0 -102 -242v-341q0 -243 102 -243h23v-68h-23q-92 0 -136 72t-44 239z" />
    <glyph glyph-name="parenright" unicode=")" horiz-adv-x="225" 
d="M176 502v-341q0 -167 -44 -239t-137 -72h-22v69h22q102 0 102 242v341q0 242 -102 242h-22v69h22q92 0 136.5 -72.5t44.5 -238.5z" />
    <glyph glyph-name="asterisk" unicode="*" horiz-adv-x="285" 
d="M118 698l-8 94h58l-8 -94l82 38l19 -60l-89 -21l60 -70l-47 -37l-47 80l-45 -79l-48 37l60 69l-88 21l18 60z" />
    <glyph glyph-name="plus" unicode="+" horiz-adv-x="379" 
d="M154 103v170h-114v74h114v170h70v-170h116v-74h-116v-170h-70z" />
    <glyph glyph-name="comma" unicode="," horiz-adv-x="181" 
d="M39 0v108h104v-82q0 -139 -100 -148l-4 47q25 5 34 21t10 54h-44z" />
    <glyph glyph-name="hyphen" unicode="-" horiz-adv-x="225" 
d="M21 252v85h184v-85h-184z" />
    <glyph glyph-name="period" unicode="." horiz-adv-x="180" 
d="M38 0v114h104v-114h-104z" />
    <glyph glyph-name="slash" unicode="/" horiz-adv-x="254" 
d="M-18 -85l205 830h73l-206 -830h-72z" />
    <glyph glyph-name="zero" unicode="0" horiz-adv-x="440" 
d="M400 517v-310q0 -104 -46 -160.5t-134 -56.5t-133.5 56.5t-45.5 160.5v309q0 105 45.5 162t133.5 57t134 -57t46 -161zM135 517v-310q0 -69 20.5 -99.5t64.5 -30.5t64.5 30.5t20.5 99.5v310q0 68 -20.5 98t-64.5 30t-64.5 -30t-20.5 -98z" />
    <glyph glyph-name="one" unicode="1" horiz-adv-x="306" 
d="M161 728h76v-728h-100v533h-113v74h51q46 0 63 22t23 99z" />
    <glyph glyph-name="two" unicode="2" horiz-adv-x="417" 
d="M215 735q83 0 125 -49t42 -130q0 -46 -12 -88t-31.5 -74t-43 -61.5t-48.5 -57.5t-46.5 -56t-38 -62.5t-21.5 -70.5h244v-86h-344l-2 49q2 64 28 123.5t62 105l71.5 88.5t60.5 91t25 95q0 95 -78 95q-36 0 -60.5 -29t-33.5 -86l-76 22q14 82 59 131.5t118 49.5z" />
    <glyph glyph-name="three" unicode="3" horiz-adv-x="414" 
d="M144 334v81h40q45 0 67 27t22 91q0 62 -18.5 88t-56.5 26q-71 0 -94 -104l-74 23q16 80 61.5 124.5t113.5 44.5q83 0 124 -50.5t41 -138.5q0 -131 -79 -166v-2q89 -26 89 -165q0 -223 -178 -223q-143 0 -176 155l73 23q23 -93 98 -93q45 0 65 34t20 108q0 67 -23.5 92
t-71.5 25h-43z" />
    <glyph glyph-name="four" unicode="4" horiz-adv-x="421" 
d="M350 0h-87v135h-253v66l246 524h94v-508h68l-7 -82h-61v-135zM106 217h157l7 378h-2z" />
    <glyph glyph-name="five" unicode="5" horiz-adv-x="417" 
d="M106 333l-62 28l23 364h301l-7 -91h-217l-12 -205h2q45 30 98 30q157 0 157 -223q0 -126 -46 -186t-139 -60q-66 0 -110.5 39t-59.5 117l75 23q21 -94 91 -94q49 0 70 36.5t21 123.5q0 75 -22.5 106t-72.5 31q-56 0 -90 -39z" />
    <glyph glyph-name="six" unicode="6" horiz-adv-x="425" 
d="M222 735q130 0 162 -156l-71 -26q-12 51 -32.5 72.5t-53.5 21.5q-92 0 -92 -139v-92h2q39 39 104 39q79 0 116.5 -53t37.5 -161q0 -251 -178 -251q-85 0 -130.5 56t-45.5 162v291q0 106 48.5 171t132.5 65zM220 368q-37 0 -61 -17t-24 -46v-106q0 -120 84 -120
q42 0 62 37t20 123q0 69 -19 99t-62 30z" />
    <glyph glyph-name="seven" unicode="7" horiz-adv-x="386" 
d="M173 0h-104l206 635h-263v90h363v-78z" />
    <glyph glyph-name="eight" unicode="8" horiz-adv-x="430" 
d="M215 -10q-93 0 -138 50.5t-45 172.5q0 136 82 170v2q-70 36 -70 161q0 189 171 189t171 -189q0 -125 -71 -160v-2q83 -35 83 -171q0 -122 -45 -172.5t-138 -50.5zM303 217q0 70 -22 96.5t-66 26.5q-45 0 -66.5 -26.5t-21.5 -96.5q0 -82 20.5 -112t67.5 -30t67.5 29.5
t20.5 112.5zM215 651q-44 0 -62.5 -24t-18.5 -90q0 -69 18.5 -94t62.5 -25t62.5 25.5t18.5 93.5q0 65 -18.5 89.5t-62.5 24.5z" />
    <glyph glyph-name="nine" unicode="9" horiz-adv-x="425" 
d="M105 169q14 -50 36.5 -70.5t59.5 -20.5q89 0 89 115v140h-2q-36 -38 -99 -38q-159 0 -159 212q0 228 183 228q82 0 126.5 -54.5t44.5 -147.5v-336q0 -96 -48 -151t-130 -55q-136 0 -169 147zM206 377q33 0 58.5 18t25.5 50v91q0 111 -79 111q-44 0 -65 -32t-21 -105
q0 -75 20 -104t61 -29z" />
    <glyph glyph-name="colon" unicode=":" horiz-adv-x="180" 
d="M38 373v114h104v-114h-104zM38 0v114h104v-114h-104z" />
    <glyph glyph-name="semicolon" unicode=";" horiz-adv-x="181" 
d="M38 373v114h104v-114h-104zM39 0v108h104v-82q0 -139 -100 -148l-4 47q25 5 34 21t10 54h-44z" />
    <glyph glyph-name="less" unicode="&#x3c;" horiz-adv-x="379" 
d="M321 433l-161 -120l161 -119v-101l-279 215v10l279 217v-102z" />
    <glyph glyph-name="equal" unicode="=" horiz-adv-x="379" 
d="M331 335h-283v75h283v-75zM331 195h-283v76h283v-76z" />
    <glyph glyph-name="greater" unicode="&#x3e;" horiz-adv-x="379" 
d="M58 194l161 119l-160 120v102l278 -217v-10l-279 -215v101z" />
    <glyph glyph-name="question" unicode="?" horiz-adv-x="394" 
d="M16 568q17 77 64.5 122t119.5 45q82 0 123 -48t41 -124t-36 -143t-100 -110l-7 -100h-69l-6 147q125 74 125 199q0 94 -77 94t-102 -104zM135 0v114h104v-114h-104z" />
    <glyph glyph-name="at" unicode="@" horiz-adv-x="630" 
d="M459 442h-22l-16 -228q-1 -7 -1 -32q0 -50 39 -50q31 0 47 30t16 111v167q0 226 -200 226q-102 0 -159 -67t-57 -177v-255q0 -127 59.5 -192t163.5 -65q66 0 111.5 20t81.5 63l51 -37q-93 -113 -245 -113q-139 0 -215 83.5t-76 240.5v256q0 137 75.5 225t209.5 88
q130 0 199 -81t69 -215v-166q0 -109 -35 -161.5t-98 -52.5q-65 0 -88 46q-40 -49 -103 -49q-50 0 -76 37.5t-26 107.5q0 146 54 225.5t153 79.5h88v-65zM343 185l18 247h-8q-107 0 -107 -227q0 -42 9.5 -58t29.5 -16q40 0 58 54z" />
    <glyph glyph-name="A" unicode="A" horiz-adv-x="478" 
d="M147 178l-36 -178h-102l171 725h118l171 -725h-104l-36 178h-182zM237 623l-73 -365h148l-73 365h-2z" />
    <glyph glyph-name="B" unicode="B" horiz-adv-x="460" 
d="M405 539q0 -127 -81 -158v-2q105 -28 105 -170q0 -106 -41 -157.5t-140 -51.5h-190v725h168q90 0 134.5 -49t44.5 -137zM157 333v-243h87q46 0 65.5 26.5t19.5 97.5q0 67 -20 93t-64 26h-88zM157 634v-220h73q45 0 62.5 27t17.5 87q0 58 -18 82t-62 24h-73z" />
    <glyph glyph-name="C" unicode="C" horiz-adv-x="420" 
d="M225 735q66 0 112 -43.5t59 -115.5l-78 -24q-18 93 -86 93q-89 0 -89 -129v-316q0 -58 22 -90.5t66 -32.5q37 0 57.5 22.5t30.5 78.5l77 -23q-13 -86 -56 -125.5t-117 -39.5q-84 0 -133 57t-49 152v316q0 103 49 161.5t135 58.5z" />
    <glyph glyph-name="D" unicode="D" horiz-adv-x="489" 
d="M58 725h192q94 0 146 -58.5t52 -163.5v-282q0 -104 -52 -162.5t-146 -58.5h-192v725zM347 498q0 72 -23.5 104t-73.5 32h-91v-545h91q49 0 73 31.5t24 102.5v275z" />
    <glyph glyph-name="E" unicode="E" horiz-adv-x="410" 
d="M58 725h318v-93h-217v-215h171v-83h-171v-242h228v-92h-329v725z" />
    <glyph glyph-name="F" unicode="F" horiz-adv-x="403" 
d="M58 725h320v-93h-219v-222h190v-88h-190v-322h-101v725z" />
    <glyph glyph-name="G" unicode="G" horiz-adv-x="468" 
d="M240 735q72 0 121 -42t63 -118l-77 -25q-27 95 -100 95q-105 0 -105 -145v-286q0 -132 103 -132q61 0 91 58v144h-71v74h160v-358h-83v46h-2q-45 -56 -122 -56q-83 0 -130 57t-47 166v287q0 109 50.5 172t148.5 63z" />
    <glyph glyph-name="H" unicode="H" horiz-adv-x="494" 
d="M58 725h101v-305h176v305h101v-725h-101v327h-176v-327h-101v725z" />
    <glyph glyph-name="I" unicode="I" horiz-adv-x="240" 
d="M69 725h101v-725h-101v725z" />
    <glyph glyph-name="J" unicode="J" horiz-adv-x="232" 
d="M73 725h102v-616q0 -237 -214 -242l-8 85q62 0 91 36t29 118v619z" />
    <glyph glyph-name="K" unicode="K" horiz-adv-x="469" 
d="M462 0h-112l-142 327h-2l-49 -89v-238h-99v725h99v-362h2l176 362h113l-175 -323z" />
    <glyph glyph-name="L" unicode="L" horiz-adv-x="382" 
d="M58 725h99v-631h208v-94h-307v725z" />
    <glyph glyph-name="M" unicode="M" horiz-adv-x="632" 
d="M481 725h93v-725h-91v480h-2l-142 -356h-47l-141 354h-2v-478h-91v725h92l165 -449h2z" />
    <glyph glyph-name="N" unicode="N" horiz-adv-x="494" 
d="M58 725h76l211 -468h2v468h89v-725h-69l-218 483h-2v-483h-89v725z" />
    <glyph glyph-name="O" unicode="O" horiz-adv-x="473" 
d="M236 735q96 0 146 -57t50 -162v-306q0 -105 -50 -162.5t-146 -57.5q-95 0 -145 57.5t-50 162.5v305q0 105 50 162.5t145 57.5zM330 210v305q0 69 -22.5 99.5t-70.5 30.5q-49 0 -72 -31t-23 -99v-305q0 -69 23 -100.5t71 -31.5t71 31.5t23 100.5z" />
    <glyph glyph-name="P" unicode="P" horiz-adv-x="447" 
d="M248 725q84 0 129 -57.5t45 -166.5q0 -107 -43.5 -165t-125.5 -58h-94v-278h-101v725h190zM159 635v-273h86q40 0 58 32t18 106t-18 104.5t-58 30.5h-86z" />
    <glyph glyph-name="Q" unicode="Q" horiz-adv-x="473" 
d="M236 735q96 0 146 -57t50 -162v-306q0 -172 -126 -210l85 -120l-87 -33l-83 144q-88 4 -134 61t-46 158v305q0 105 50 162.5t145 57.5zM330 210v305q0 69 -22.5 99.5t-70.5 30.5q-49 0 -72 -31t-23 -99v-305q0 -69 23 -100.5t71 -31.5t71 31.5t23 100.5z" />
    <glyph glyph-name="R" unicode="R" horiz-adv-x="456" 
d="M337 0l-113 310h-65v-310h-101v725h181q174 0 174 -201q0 -158 -98 -192l129 -332h-107zM159 635v-243h74q44 0 61.5 29t17.5 96q0 66 -17.5 92t-60.5 26h-75z" />
    <glyph glyph-name="S" unicode="S" horiz-adv-x="397" 
d="M197 735q136 0 176 -152l-73 -28q-22 93 -96 93q-77 0 -77 -89q0 -35 18.5 -64.5t46 -49.5l60 -45.5t60 -51.5t46 -67.5t18.5 -92.5q0 -95 -47.5 -146.5t-129.5 -51.5q-68 0 -117.5 44t-63.5 124l80 25q22 -106 100 -106q81 0 81 97q0 38 -18.5 70t-46.5 53l-61 46.5
t-61 50.5t-46.5 66t-18.5 92q0 81 45.5 132t124.5 51z" />
    <glyph glyph-name="T" unicode="T" horiz-adv-x="385" 
d="M11 725h363v-94h-131v-631h-101v631h-131v94z" />
    <glyph glyph-name="U" unicode="U" horiz-adv-x="491" 
d="M340 725h101v-520q0 -104 -50 -159.5t-145 -55.5q-94 0 -145 54.5t-51 156.5v524h102v-525q0 -115 94 -115t94 115v525z" />
    <glyph glyph-name="V" unicode="V" horiz-adv-x="469" 
d="M463 725l-175 -725h-108l-173 725h108l119 -588h2l117 588h110z" />
    <glyph glyph-name="W" unicode="W" horiz-adv-x="725" 
d="M707 725l-136 -725h-112l-95 532h-2l-96 -532h-113l-134 725h102l91 -582h2l102 582h95l100 -584h2l93 584h101z" />
    <glyph glyph-name="X" unicode="X" horiz-adv-x="460" 
d="M14 0l151 369l-147 356h109l103 -292h2l101 292h108l-146 -361l151 -364h-109l-108 298h-2l-106 -298h-107z" />
    <glyph glyph-name="Y" unicode="Y" horiz-adv-x="449" 
d="M445 725l-170 -492v-233h-101v233l-170 492h111l109 -381h2l109 381h110z" />
    <glyph glyph-name="Z" unicode="Z" horiz-adv-x="414" 
d="M382 92v-92h-355v63l246 569h-232v93h342v-63l-244 -570h243z" />
    <glyph glyph-name="bracketleft" unicode="[" horiz-adv-x="222" 
d="M57 -150v963h210v-70h-126v-824h126v-69h-210z" />
    <glyph glyph-name="backslash" unicode="\" horiz-adv-x="260" 
d="M53 745l205 -830h-72l-205 830h72z" />
    <glyph glyph-name="bracketright" unicode="]" horiz-adv-x="223" 
d="M167 813v-963h-212v71h126v820h-126v72h212z" />
    <glyph glyph-name="asciicircum" unicode="^" horiz-adv-x="373" 
d="M40 525l115 224h66l113 -224h-73l-72 150h-2l-74 -150h-73z" />
    <glyph glyph-name="underscore" unicode="_" horiz-adv-x="323" 
d="M0 -49h323v-68h-323v68z" />
    <glyph glyph-name="grave" unicode="`" horiz-adv-x="218" 
d="M-4 725h102l53 -138h-67z" />
    <glyph glyph-name="a" unicode="a" horiz-adv-x="374" 
d="M102 369l-62 28q43 121 148 121q69 0 102 -42.5t33 -116.5v-264q0 -35 30 -35h11v-59q-21 -7 -43 -7q-51 0 -75 40q-39 -42 -101 -42q-54 0 -86 38t-32 101q0 74 43 118.5t136 44.5h25v66q0 43 -13.5 62t-41.5 19q-49 0 -74 -72zM167 61q40 0 64 36v129h-25
q-49 0 -70 -22t-21 -65q0 -78 52 -78z" />
    <glyph glyph-name="b" unicode="b" horiz-adv-x="404" 
d="M239 -7q-67 0 -104 47h-2l-4 -40h-79v748h91v-275h2q36 44 101 44q60 0 93.5 -45t33.5 -128v-180q0 -83 -34 -127t-98 -44zM141 397v-285q25 -41 72 -41q66 0 66 93v178q0 93 -65 93q-46 0 -73 -38z" />
    <glyph glyph-name="c" unicode="c" horiz-adv-x="346" 
d="M330 393l-68 -23q-17 69 -68 69q-69 0 -69 -93v-184q0 -94 69 -94q51 0 69 72l69 -22q-32 -127 -146 -127q-73 0 -112.5 47.5t-39.5 119.5v191q0 74 39.5 121t112.5 47q54 0 91.5 -32.5t52.5 -91.5z" />
    <glyph glyph-name="d" unicode="d" horiz-adv-x="405" 
d="M165 515q60 0 96 -39h2v272h92v-748h-80l-4 40h-2q-39 -49 -108 -49q-60 0 -93.5 45t-33.5 128v179q0 83 34 127.5t97 44.5zM263 109v288q-28 38 -71 38q-67 0 -67 -94v-178q0 -93 65 -93q45 0 73 39z" />
    <glyph glyph-name="e" unicode="e" horiz-adv-x="370" 
d="M341 244h-216v-82q0 -94 74 -94q29 0 46 18t29 61l69 -22q-31 -134 -153 -134q-74 0 -115 46.5t-41 121.5v191q0 74 40.5 120.5t115.5 46.5q72 0 111.5 -47.5t39.5 -123.5v-102zM125 354v-49h133v49q0 88 -66 88q-67 0 -67 -88z" />
    <glyph glyph-name="f" unicode="f" horiz-adv-x="255" 
d="M243 507v-73h-91v-434h-92v434h-48v73h48v48q0 78 43 124.5t133 49.5l5 -71q-93 -4 -93 -105v-46h95z" />
    <glyph glyph-name="g" unicode="g" horiz-adv-x="384" 
d="M192 170q-33 0 -62 8q-23 -13 -23 -34q0 -32 48 -32h74q140 0 140 -127q0 -79 -46.5 -121t-129.5 -42q-79 0 -116.5 32.5t-37.5 89.5q0 61 37 98q-46 25 -46 80q0 52 53 84q-39 39 -39 136q0 92 35.5 133.5t111.5 41.5q49 0 83 -17q37 23 52 60l45 -19q-7 -57 -48 -94
q18 -39 18 -105q0 -91 -35.5 -131.5t-113.5 -40.5zM131 341q0 -61 12.5 -81t48.5 -20t48.5 20t12.5 81q0 62 -13.5 82.5t-47.5 20.5q-35 0 -48 -20.5t-13 -82.5zM222 28h-79q-25 -24 -25 -71q0 -64 79 -64q50 0 69.5 19.5t19.5 57.5q0 33 -13.5 45.5t-50.5 12.5z" />
    <glyph glyph-name="h" unicode="h" horiz-adv-x="410" 
d="M141 396v-396h-91v748h91v-275h2q35 44 101 44q61 0 94 -44.5t33 -128.5v-344h-92v342q0 93 -65 93q-47 0 -73 -39z" />
    <glyph glyph-name="i" unicode="i" horiz-adv-x="198" 
d="M53 508h92v-508h-92v508zM56 725h86v-116h-86v116z" />
    <glyph glyph-name="j" unicode="j" horiz-adv-x="208" 
d="M64 725h86v-116h-86v116zM-2 -163l-7 75q37 6 54 31.5t17 80.5v484h92v-483q0 -177 -156 -188z" />
    <glyph glyph-name="k" unicode="k" horiz-adv-x="407" 
d="M50 748h91v-489h2l148 249h97l-136 -220l149 -288h-101l-108 222l-51 -66v-156h-91v748z" />
    <glyph glyph-name="l" unicode="l" horiz-adv-x="203" 
d="M55 748h92v-748h-92v748z" />
    <glyph glyph-name="m" unicode="m" horiz-adv-x="601" 
d="M350 343v-343h-92v343q0 92 -55 92q-46 0 -64 -52v-383h-92v508h80v-49h2q35 58 101 58q69 0 96 -65h2q38 65 110 65q123 0 123 -173v-344h-92v343q0 92 -58 92q-61 0 -61 -92z" />
    <glyph glyph-name="n" unicode="n" horiz-adv-x="408" 
d="M139 396v-396h-92v508h80l3 -41h2q39 50 108 50q62 0 95 -44.5t33 -128.5v-344h-92v342q0 93 -64 93q-46 0 -73 -39z" />
    <glyph glyph-name="o" unicode="o" 
d="M356 349v-192q0 -74 -42 -120t-119 -46q-78 0 -119.5 45.5t-41.5 120.5v192q0 75 41.5 121.5t119.5 46.5t119.5 -46.5t41.5 -121.5zM125 346v-185q0 -94 70 -94q69 0 69 94v185q0 94 -69 94q-70 0 -70 -94z" />
    <glyph glyph-name="p" unicode="p" horiz-adv-x="402" 
d="M236 -7q-61 0 -95 38h-2v-202h-92v679h80l3 -41h2q39 50 109 50q61 0 94 -45t33 -128v-180q0 -83 -34 -127t-98 -44zM139 397v-288q25 -39 71 -39q66 0 66 94v178q0 49 -15.5 71t-48.5 22q-48 0 -73 -38z" />
    <glyph glyph-name="q" unicode="q" horiz-adv-x="402" 
d="M170 517q67 0 104 -54h2l4 45h75v-679h-92v207h-2q-36 -46 -101 -46q-59 0 -92.5 44t-33.5 123v193q0 80 36.5 123.5t99.5 43.5zM263 125v269q-27 41 -69 41q-69 0 -69 -91v-183q0 -91 67 -91q50 0 71 55z" />
    <glyph glyph-name="r" unicode="r" horiz-adv-x="289" 
d="M277 504l-10 -91q-15 11 -39 11q-77 0 -89 -126v-298h-92v508h78l4 -78h2q31 86 100 86q27 0 46 -12z" />
    <glyph glyph-name="s" unicode="s" horiz-adv-x="333" 
d="M310 397l-64 -21q-17 68 -71 68q-55 0 -55 -59q0 -27 20 -47.5t48 -36.5t56 -34t48 -51.5t20 -78.5q0 -64 -39.5 -105t-100.5 -41q-114 0 -145 121l64 25q20 -75 78 -75q56 0 56 67q0 25 -14.5 45t-36 32.5t-46.5 28.5t-46.5 32t-36 45.5t-14.5 66.5q0 60 37.5 99
t103.5 39q54 0 89.5 -31.5t48.5 -88.5z" />
    <glyph glyph-name="t" unicode="t" horiz-adv-x="272" 
d="M250 508v-75h-95v-306q0 -61 51 -61q18 0 36 8l10 -60q-36 -22 -79 -22q-110 0 -110 138v298l-52 13v65l57 4l23 138h64v-140h95z" />
    <glyph glyph-name="u" unicode="u" horiz-adv-x="408" 
d="M269 110v398h92v-508h-80l-4 39h-2q-39 -48 -108 -48q-60 0 -93.5 45t-33.5 128v344h91v-345q0 -92 65 -92q45 0 73 39z" />
    <glyph glyph-name="v" unicode="v" horiz-adv-x="397" 
d="M388 508l-138 -508h-105l-136 508h101l87 -417h2l88 417h101z" />
    <glyph glyph-name="w" unicode="w" horiz-adv-x="587" 
d="M365 0l-71 377h-2l-70 -377h-101l-109 508h95l66 -404h2l76 404h85l75 -406h2l67 406h95l-109 -508h-101z" />
    <glyph glyph-name="x" unicode="x" horiz-adv-x="396" 
d="M12 0l123 262l-117 246h101l80 -195h2l77 195h101l-118 -251l123 -257h-101l-86 205h-2l-82 -205h-101z" />
    <glyph glyph-name="y" unicode="y" horiz-adv-x="400" 
d="M390 508l-147 -522q-22 -77 -59.5 -111t-101.5 -37l-7 71q36 5 56 23t30 57l6 24l-157 495h101l99 -381h2l84 381h94z" />
    <glyph glyph-name="z" unicode="z" horiz-adv-x="336" 
d="M307 79v-79h-281v56l178 372h-169v80h275v-54l-180 -375h177z" />
    <glyph glyph-name="braceleft" unicode="{" horiz-adv-x="231" 
d="M16 300v62q69 9 69 65q0 18 -14.5 88.5t-14.5 121.5q0 87 49.5 131.5t139.5 44.5h23v-62h-23q-105 0 -105 -127q0 -45 14 -113.5t14 -88.5q0 -69 -66 -90v-2q66 -21 66 -90q0 -20 -14 -87t-14 -113q0 -128 105 -128h22v-62h-22q-91 0 -140 45t-49 133q0 50 14.5 120
t14.5 88q0 56 -69 64z" />
    <glyph glyph-name="bar" unicode="|" horiz-adv-x="229" 
d="M72 -150v963h86v-963h-86z" />
    <glyph glyph-name="braceright" unicode="}" horiz-adv-x="231" 
d="M215 362v-62q-69 -8 -69 -64q0 -18 14.5 -88t14.5 -120q0 -88 -49 -133t-139 -45h-23v63h22q105 0 105 127q0 46 -14 113t-14 87q0 69 66 90v2q-66 21 -66 90q0 20 14 88.5t14 113.5q0 125 -105 125h-23v64h23q90 0 139.5 -44.5t49.5 -131.5q0 -51 -14.5 -121.5
t-14.5 -88.5q0 -56 69 -65z" />
    <glyph glyph-name="asciitilde" unicode="~" horiz-adv-x="412" 
d="M108 603h-68q8 143 104 143q26 0 47 -12t31 -27t22.5 -27t25.5 -12q16 0 24 15t11 54h68q-10 -143 -104 -143q-26 0 -47 12t-31 27t-22.5 27t-25.5 12q-16 0 -24 -15t-11 -54z" />
    <glyph glyph-name="uni00A0" unicode="&#xa0;" horiz-adv-x="165" 
 />
    <glyph glyph-name="exclamdown" unicode="&#xa1;" horiz-adv-x="198" 
d="M145 -94h-93v310l9 204h75l9 -202v-312zM150 631v-115h-104v115h104z" />
    <glyph glyph-name="cent" unicode="&#xa2;" horiz-adv-x="346" 
d="M330 393l-68 -23q-17 65 -68 65q-69 0 -69 -97v-168q0 -103 69 -103q51 0 69 73l69 -22q-26 -104 -109 -123l-12 -91h-56l-2 90q-58 11 -88.5 57.5t-30.5 115.5v175q0 70 31 116.5t90 55.5l14 106h56l2 -109q79 -23 103 -118z" />
    <glyph glyph-name="sterling" unicode="&#xa3;" horiz-adv-x="462" 
d="M43 327l-9 72h54q-11 74 -11 122q0 102 44 158.5t126 56.5q65 0 107.5 -40t54.5 -112l-73 -24q-18 87 -86 87q-80 0 -80 -135q0 -34 7 -113h177l-9 -72h-161q10 -92 11 -128q21 -10 41 -30.5t32 -39t27.5 -33t31.5 -14.5q22 0 34 24t19 86l73 -18q-10 -98 -40 -141
t-80 -43q-26 0 -49.5 14.5t-35 29.5t-31 44l-25.5 38h-2q-15 -126 -102 -126q-37 0 -58 24.5t-21 68.5q0 50 28.5 83.5t79.5 40.5l-19 120h-55zM95 60q28 0 29 90q-47 -8 -47 -62q0 -28 18 -28z" />
    <glyph glyph-name="currency" unicode="&#xa4;" horiz-adv-x="324" 
d="M56 376q0 34 15 59l-36 39l35 39l37 -40q26 16 54 16q29 0 55 -16l40 43l35 -39l-38 -43q15 -28 15 -58q0 -31 -16 -60l38 -39l-35 -39l-38 40q-26 -16 -56 -16t-54 15l-38 -42l-36 39l38 42q-15 26 -15 60zM112 376q0 -24 14.5 -40t35.5 -16q22 0 37 16t15 40t-15 39.5
t-37 15.5q-21 0 -35.5 -15.5t-14.5 -39.5z" />
    <glyph glyph-name="yen" unicode="&#xa5;" horiz-adv-x="465" 
d="M383 151h-98v-151h-101v151h-102v71h102v43h-102v70h83l-148 390h111l106 -347h2l106 347h111l-149 -390h79v-70h-98v-43h98v-71z" />
    <glyph glyph-name="brokenbar" unicode="&#xa6;" horiz-adv-x="229" 
d="M72 397v416h86v-416h-86zM72 -150v416h86v-416h-86z" />
    <glyph glyph-name="section" unicode="&#xa7;" horiz-adv-x="355" 
d="M42 -31l73 16q15 -66 64 -66q54 0 54 65q0 29 -21.5 58.5t-52 56.5l-61 56.5t-52 71.5t-21.5 89q0 99 74 140q-56 66 -56 131q0 64 34.5 106t103.5 42q56 0 93 -35t48 -98l-73 -15q-16 65 -63 65q-54 0 -54 -65q0 -29 21.5 -58.5t52 -56.5l61 -56.5t52 -71t21.5 -89.5
q0 -98 -76 -140q57 -66 57 -130q0 -65 -34.5 -107t-103.5 -42q-56 0 -93 35t-48 98zM259 245q0 31 -20 61.5t-87 94.5q-47 -23 -47 -75q0 -30 20 -62t86 -94q48 23 48 75z" />
    <glyph glyph-name="dieresis" unicode="&#xa8;" horiz-adv-x="218" 
d="M16 725h68v-116h-68v116zM135 725h67v-116h-67v116z" />
    <glyph glyph-name="copyright" unicode="&#xa9;" horiz-adv-x="603" 
d="M303 622q61 0 98.5 -36t46.5 -101l-66 -18q-7 44 -24 63.5t-47 19.5q-74 0 -74 -102v-175q0 -101 72 -101q32 0 49 20t25 70l66 -17q-10 -76 -46 -110t-101 -34q-71 0 -112.5 47t-41.5 124v176q0 80 41 127t114 47zM562 445v-168q0 -128 -68.5 -209.5t-192.5 -81.5
t-192.5 81.5t-68.5 209.5v168q0 128 68.5 209.5t192.5 81.5t192.5 -81t68.5 -210zM501 277v168q0 105 -52.5 168t-148.5 63q-95 0 -146.5 -63t-51.5 -168v-168q0 -105 52 -168t147 -63t147.5 63t52.5 168z" />
    <glyph glyph-name="ordfeminine" unicode="&#xaa;" horiz-adv-x="270" 
d="M74 655l-46 21q13 35 40 55.5t63 20.5q48 0 71.5 -27t23.5 -72v-151q0 -19 16 -19h10v-45h-34q-30 0 -46 23q-29 -26 -72 -26q-38 0 -60.5 23t-22.5 61q0 99 125 99h18v36q0 43 -37 43q-35 0 -49 -42zM116 484q27 0 44 20v66h-18q-61 0 -61 -47q0 -39 35 -39z" />
    <glyph glyph-name="guillemotleft" unicode="&#xab;" horiz-adv-x="355" 
d="M336 437l-102 -176l102 -176h-78l-101 176l101 176h78zM198 437l-102 -176l102 -176h-78l-101 176l101 176h78z" />
    <glyph glyph-name="logicalnot" unicode="&#xac;" horiz-adv-x="379" 
d="M269 141v131h-229v75h300v-206h-71z" />
    <glyph glyph-name="uni00AD" unicode="&#xad;" horiz-adv-x="225" 
d="M21 252v85h184v-85h-184z" />
    <glyph glyph-name="registered" unicode="&#xae;" horiz-adv-x="240" 
d="M226 671v-59q0 -48 -28 -79.5t-78 -31.5q-51 0 -78.5 31.5t-27.5 79.5v59q0 48 27.5 78t78.5 30t78.5 -30t27.5 -78zM41 671v-59q0 -84 78 -84q80 0 80 84v59q0 83 -80 83q-78 0 -78 -83zM145 562l-26 64h-15v-64h-35v163h55q53 0 53 -48q0 -35 -26 -44l32 -71h-38z
M104 697v-45h19q18 0 18 23q0 12 -4 17t-15 5h-18z" />
    <glyph glyph-name="macron" unicode="&#xaf;" horiz-adv-x="218" 
d="M214 686v-65h-210v65h210z" />
    <glyph glyph-name="degree" unicode="&#xb0;" horiz-adv-x="229" 
d="M15 676q0 43 29 73.5t71 30.5q41 0 70.5 -30.5t29.5 -73.5t-29.5 -73.5t-70.5 -30.5q-42 0 -71 30t-29 74zM68 676q0 -24 13.5 -38.5t33.5 -14.5t34 15t14 38t-14 37.5t-34 14.5t-33.5 -14.5t-13.5 -37.5z" />
    <glyph glyph-name="plusminus" unicode="&#xb1;" horiz-adv-x="379" 
d="M153 144v146h-114v75h114v152h71v-152h116v-75h-116v-146h-71zM340 40h-301v75h301v-75z" />
    <glyph glyph-name="twosuperior" unicode="&#xb2;" horiz-adv-x="228" 
d="M116 797q43 0 65 -23.5t22 -60.5q0 -33 -16.5 -61.5t-37.5 -45.5t-40.5 -39.5t-23.5 -43.5h119v-49h-180l-1 26q1 34 20 66t41.5 52t41 45.5t18.5 47.5q0 36 -33 36q-34 0 -44 -49l-46 15q9 38 33 61t62 23z" />
    <glyph glyph-name="threesuperior" unicode="&#xb3;" horiz-adv-x="228" 
d="M80 615v45h22q38 0 38 45q0 43 -32 43q-33 0 -44 -42l-44 15q8 35 32.5 55.5t60.5 20.5q44 0 65.5 -23.5t21.5 -61.5q0 -56 -38 -71v-2q43 -12 43 -72q0 -97 -94 -97q-74 0 -93 71l44 16q12 -39 46 -39q36 0 36 53q0 25 -10 34.5t-31 9.5h-23z" />
    <glyph glyph-name="acute" unicode="&#xb4;" horiz-adv-x="218" 
d="M89 725h102l-79 -138h-66z" />
    <glyph glyph-name="mu" unicode="&#xb5;" horiz-adv-x="415" 
d="M47 173v335h92v-334q0 -93 66 -93q46 0 71 38v389h92v-508h-80l-4 41h-2q-29 -38 -75 -38q-50 0 -73 42h-2q8 -141 16 -198l-92 -8q-9 149 -9 334z" />
    <glyph glyph-name="paragraph" unicode="&#xb6;" horiz-adv-x="504" 
d="M143 747h363v-86h-83v-821h-90v821h-103v-821h-87v653q-64 0 -98 34t-34 93q0 55 34.5 91t97.5 36z" />
    <glyph glyph-name="periodcentered" unicode="&#xb7;" horiz-adv-x="193" 
d="M37 322q0 27 17 46.5t42 19.5t43 -19.5t18 -46.5q0 -28 -18 -47t-43 -19t-42 19t-17 47z" />
    <glyph glyph-name="cedilla" unicode="&#xb8;" horiz-adv-x="218" 
d="M75 19l52 -3l-8 -44q65 -12 65 -60q0 -32 -28.5 -54t-77.5 -26l-16 44q50 11 50 31q0 22 -55 26z" />
    <glyph glyph-name="onesuperior" unicode="&#xb9;" horiz-adv-x="183" 
d="M92 794h48v-320h-62v223h-55v42h23q24 0 33 10t13 45z" />
    <glyph glyph-name="ordmasculine" unicode="&#xba;" horiz-adv-x="256" 
d="M238 642v-98q0 -48 -29 -79t-82 -31t-81.5 31t-28.5 79v98q0 47 28.5 78.5t81.5 31.5q55 0 83 -31t28 -79zM83 638v-92q0 -62 44 -62q46 0 46 62v92q0 59 -46 59q-44 0 -44 -59z" />
    <glyph glyph-name="guillemotright" unicode="&#xbb;" horiz-adv-x="355" 
d="M157 85l103 176l-103 176h79l100 -176l-100 -176h-79zM19 85l103 176l-103 176h79l100 -176l-100 -176h-79z" />
    <glyph glyph-name="onequarter" unicode="&#xbc;" horiz-adv-x="488" 
d="M123 726h48v-320h-62v223h-55v42h23q24 0 33 10t13 45zM113 0h-61l321 725h61zM435 0h-52v58h-126v39l120 222h58v-214h31l-4 -47h-27v-58zM315 105h68l4 146h-2z" />
    <glyph glyph-name="onehalf" unicode="&#xbd;" horiz-adv-x="488" 
d="M123 726h48v-320h-62v223h-55v42h23q24 0 33 10t13 45zM113 0h-61l321 725h61zM376 323q43 0 65 -23.5t22 -60.5q0 -33 -16.5 -61.5t-37.5 -45.5t-40.5 -39.5t-23.5 -43.5h119v-49h-180l-1 26q1 34 20 66t41.5 52t41 45.5t18.5 47.5q0 36 -33 36q-34 0 -44 -49l-46 15
q9 38 33 61t62 23z" />
    <glyph glyph-name="threequarters" unicode="&#xbe;" horiz-adv-x="488" 
d="M81 547v45h22q38 0 38 45q0 43 -32 43q-33 0 -44 -42l-44 15q8 35 32.5 55.5t60.5 20.5q44 0 65.5 -23.5t21.5 -61.5q0 -56 -38 -71v-2q43 -12 43 -72q0 -97 -94 -97q-74 0 -93 71l44 16q12 -39 46 -39q36 0 36 53q0 25 -10 34.5t-31 9.5h-23zM113 0h-61l321 725h61z
M427 0h-52v58h-126v39l120 222h58v-214h31l-4 -47h-27v-58zM307 105h68l4 146h-2z" />
    <glyph glyph-name="questiondown" unicode="&#xbf;" horiz-adv-x="394" 
d="M379 63q-18 -77 -65 -122t-119 -45q-83 0 -124 47.5t-41 123.5t36 143.5t100 109.5l7 101h70l6 -147q-125 -75 -125 -200q0 -93 76 -93q78 0 103 103zM260 631v-115h-104v115h104z" />
    <glyph glyph-name="Agrave" unicode="&#xc0;" horiz-adv-x="478" 
d="M147 178l-36 -178h-102l171 725h118l171 -725h-104l-36 178h-182zM237 623l-73 -365h148l-73 365h-2zM112 871h112l54 -113h-76z" />
    <glyph glyph-name="Aacute" unicode="&#xc1;" horiz-adv-x="478" 
d="M147 178l-36 -178h-102l171 725h118l171 -725h-104l-36 178h-182zM237 623l-73 -365h148l-73 365h-2zM245 871h112l-82 -113h-76z" />
    <glyph glyph-name="Acircumflex" unicode="&#xc2;" horiz-adv-x="478" 
d="M147 178l-36 -178h-102l171 725h118l171 -725h-104l-36 178h-182zM237 623l-73 -365h148l-73 365h-2zM204 758h-77l73 113h76l73 -113h-76l-35 59z" />
    <glyph glyph-name="Atilde" unicode="&#xc3;" horiz-adv-x="478" 
d="M147 178l-36 -178h-102l171 725h118l171 -725h-104l-36 178h-182zM237 623l-73 -365h148l-73 365h-2zM314 873l47 -7q-6 -58 -23.5 -86.5t-52.5 -28.5q-26 0 -54 29.5t-37 29.5q-21 0 -28 -54l-48 6q6 59 23.5 87t52.5 28q21 0 39 -14.5t31 -29.5t22 -15q21 0 28 55z" />
    <glyph glyph-name="Adieresis" unicode="&#xc4;" horiz-adv-x="478" 
d="M147 178l-36 -178h-102l171 725h118l171 -725h-104l-36 178h-182zM237 623l-73 -365h148l-73 365h-2zM136 871h69v-104h-69v104zM271 871h70v-104h-70v104z" />
    <glyph glyph-name="Aring" unicode="&#xc5;" horiz-adv-x="478" 
d="M147 178l-36 -178h-102l171 725h118l171 -725h-104l-36 178h-182zM237 623l-73 -365h148l-73 365h-2zM157 817q0 32 23 52t58 20t58 -20t23 -52t-22.5 -51.5t-58.5 -19.5t-58.5 19.5t-22.5 51.5zM212 817q0 -28 26 -28q12 0 19.5 8t7.5 20t-7.5 20.5t-19.5 8.5
q-26 0 -26 -29z" />
    <glyph glyph-name="AE" unicode="&#xc6;" horiz-adv-x="666" 
d="M173 181l-60 -181h-102l252 725h371v-93h-220l16 -215h173v-83h-166l19 -242h187v-92h-282l-13 181h-175zM315 614l-116 -353h143l-25 353h-2z" />
    <glyph glyph-name="Ccedilla" unicode="&#xc7;" horiz-adv-x="420" 
d="M225 735q66 0 112 -43.5t59 -115.5l-78 -24q-18 93 -86 93q-89 0 -89 -129v-316q0 -58 22 -90.5t66 -32.5q37 0 57.5 22.5t30.5 78.5l77 -23q-13 -80 -50 -119.5t-101 -44.5l-4 -19q65 -12 65 -60q0 -32 -28.5 -54t-77.5 -26l-16 44q50 11 50 31q0 22 -55 26l12 60
q-70 10 -110 65t-40 141v316q0 103 49 161.5t135 58.5z" />
    <glyph glyph-name="Egrave" unicode="&#xc8;" horiz-adv-x="410" 
d="M58 725h318v-93h-217v-215h171v-83h-171v-242h228v-92h-329v725zM101 871h112l54 -113h-76z" />
    <glyph glyph-name="Eacute" unicode="&#xc9;" horiz-adv-x="410" 
d="M58 725h318v-93h-217v-215h171v-83h-171v-242h228v-92h-329v725zM214 871h112l-82 -113h-76z" />
    <glyph glyph-name="Ecircumflex" unicode="&#xca;" horiz-adv-x="410" 
d="M58 725h318v-93h-217v-215h171v-83h-171v-242h228v-92h-329v725zM188 758h-77l73 113h76l73 -113h-76l-35 59z" />
    <glyph glyph-name="Edieresis" unicode="&#xcb;" horiz-adv-x="410" 
d="M58 725h318v-93h-217v-215h171v-83h-171v-242h228v-92h-329v725zM117 871h69v-104h-69v104zM252 871h70v-104h-70v104z" />
    <glyph glyph-name="Igrave" unicode="&#xcc;" horiz-adv-x="240" 
d="M69 725h101v-725h-101v725zM0 871h112l54 -113h-76z" />
    <glyph glyph-name="Iacute" unicode="&#xcd;" horiz-adv-x="240" 
d="M69 725h101v-725h-101v725zM121 871h112l-82 -113h-76z" />
    <glyph glyph-name="Icircumflex" unicode="&#xce;" horiz-adv-x="240" 
d="M69 725h101v-725h-101v725zM87 758h-77l73 113h76l73 -113h-76l-35 59z" />
    <glyph glyph-name="Idieresis" unicode="&#xcf;" horiz-adv-x="240" 
d="M69 725h101v-725h-101v725zM19 871h69v-104h-69v104zM154 871h70v-104h-70v104z" />
    <glyph glyph-name="Eth" unicode="&#xd0;" horiz-adv-x="498" 
d="M66 725h192q94 0 146 -58.5t52 -163.5v-282q0 -104 -52 -162.5t-146 -58.5h-192v342h-54v62h54v321zM355 498q0 72 -23.5 104t-73.5 32h-91v-230h58v-62h-58v-253h91q49 0 73 31.5t24 102.5v275z" />
    <glyph glyph-name="Ntilde" unicode="&#xd1;" horiz-adv-x="494" 
d="M58 725h76l211 -468h2v468h89v-725h-69l-218 483h-2v-483h-89v725zM323 873l47 -7q-6 -58 -23.5 -86.5t-52.5 -28.5q-26 0 -54 29.5t-37 29.5q-21 0 -28 -54l-48 6q6 59 23.5 87t52.5 28q21 0 39 -14.5t31 -29.5t22 -15q21 0 28 55z" />
    <glyph glyph-name="Ograve" unicode="&#xd2;" horiz-adv-x="473" 
d="M236 735q96 0 146 -57t50 -162v-306q0 -105 -50 -162.5t-146 -57.5q-95 0 -145 57.5t-50 162.5v305q0 105 50 162.5t145 57.5zM330 210v305q0 69 -22.5 99.5t-70.5 30.5q-49 0 -72 -31t-23 -99v-305q0 -69 23 -100.5t71 -31.5t71 31.5t23 100.5zM119 871h112l54 -113h-76
z" />
    <glyph glyph-name="Oacute" unicode="&#xd3;" horiz-adv-x="473" 
d="M236 735q96 0 146 -57t50 -162v-306q0 -105 -50 -162.5t-146 -57.5q-95 0 -145 57.5t-50 162.5v305q0 105 50 162.5t145 57.5zM330 210v305q0 69 -22.5 99.5t-70.5 30.5q-49 0 -72 -31t-23 -99v-305q0 -69 23 -100.5t71 -31.5t71 31.5t23 100.5zM236 871h112l-82 -113
h-76z" />
    <glyph glyph-name="Ocircumflex" unicode="&#xd4;" horiz-adv-x="473" 
d="M236 735q96 0 146 -57t50 -162v-306q0 -105 -50 -162.5t-146 -57.5q-95 0 -145 57.5t-50 162.5v305q0 105 50 162.5t145 57.5zM330 210v305q0 69 -22.5 99.5t-70.5 30.5q-49 0 -72 -31t-23 -99v-305q0 -69 23 -100.5t71 -31.5t71 31.5t23 100.5zM202 758h-77l73 113h76
l73 -113h-76l-35 59z" />
    <glyph glyph-name="Otilde" unicode="&#xd5;" horiz-adv-x="473" 
d="M236 735q96 0 146 -57t50 -162v-306q0 -105 -50 -162.5t-146 -57.5q-95 0 -145 57.5t-50 162.5v305q0 105 50 162.5t145 57.5zM330 210v305q0 69 -22.5 99.5t-70.5 30.5q-49 0 -72 -31t-23 -99v-305q0 -69 23 -100.5t71 -31.5t71 31.5t23 100.5zM310 873l47 -7
q-6 -58 -23.5 -86.5t-52.5 -28.5q-26 0 -54 29.5t-37 29.5q-21 0 -28 -54l-48 6q6 59 23.5 87t52.5 28q21 0 39 -14.5t31 -29.5t22 -15q21 0 28 55z" />
    <glyph glyph-name="Odieresis" unicode="&#xd6;" horiz-adv-x="473" 
d="M236 735q96 0 146 -57t50 -162v-306q0 -105 -50 -162.5t-146 -57.5q-95 0 -145 57.5t-50 162.5v305q0 105 50 162.5t145 57.5zM330 210v305q0 69 -22.5 99.5t-70.5 30.5q-49 0 -72 -31t-23 -99v-305q0 -69 23 -100.5t71 -31.5t71 31.5t23 100.5zM135 871h69v-104h-69v104
zM270 871h70v-104h-70v104z" />
    <glyph glyph-name="multiply" unicode="&#xd7;" horiz-adv-x="379" 
d="M286 152l-97 105l-96 -105l-50 53l97 105l-96 105l48 53l97 -105l97 105l48 -53l-96 -105l97 -105z" />
    <glyph glyph-name="Oslash" unicode="&#xd8;" horiz-adv-x="473" 
d="M236 735q97 0 148 -60l29 51l35 -26l-38 -67q22 -47 22 -117v-306q0 -105 -50 -162.5t-146 -57.5q-101 0 -150 63l-26 -47l-35 26l36 64q-20 48 -20 114v305q0 105 50 162.5t145 57.5zM330 210v279h-2l-183 -330q14 -81 91 -81q48 0 71 31.5t23 100.5zM142 515v-274h2
l181 328q-14 76 -88 76q-49 0 -72 -31t-23 -99z" />
    <glyph glyph-name="Ugrave" unicode="&#xd9;" horiz-adv-x="491" 
d="M340 725h101v-520q0 -104 -50 -159.5t-145 -55.5q-94 0 -145 54.5t-51 156.5v524h102v-525q0 -115 94 -115t94 115v525zM133 871h112l54 -113h-76z" />
    <glyph glyph-name="Uacute" unicode="&#xda;" horiz-adv-x="491" 
d="M340 725h101v-520q0 -104 -50 -159.5t-145 -55.5q-94 0 -145 54.5t-51 156.5v524h102v-525q0 -115 94 -115t94 115v525zM243 871h112l-82 -113h-76z" />
    <glyph glyph-name="Ucircumflex" unicode="&#xdb;" horiz-adv-x="491" 
d="M340 725h101v-520q0 -104 -50 -159.5t-145 -55.5q-94 0 -145 54.5t-51 156.5v524h102v-525q0 -115 94 -115t94 115v525zM212 758h-77l73 113h76l73 -113h-76l-35 59z" />
    <glyph glyph-name="Udieresis" unicode="&#xdc;" horiz-adv-x="491" 
d="M340 725h101v-520q0 -104 -50 -159.5t-145 -55.5q-94 0 -145 54.5t-51 156.5v524h102v-525q0 -115 94 -115t94 115v525zM144 871h69v-104h-69v104zM279 871h70v-104h-70v104z" />
    <glyph glyph-name="Yacute" unicode="&#xdd;" horiz-adv-x="449" 
d="M445 725l-170 -492v-233h-101v233l-170 492h111l109 -381h2l109 381h110zM224 871h112l-82 -113h-76z" />
    <glyph glyph-name="Thorn" unicode="&#xde;" horiz-adv-x="447" 
d="M248 598q84 0 129 -57.5t45 -166.5q0 -107 -43.5 -165t-125.5 -58h-94v-151h-101v725h101v-127h89zM159 508v-274h86q40 0 58 32t18 106q0 75 -18 105.5t-58 30.5h-86z" />
    <glyph glyph-name="germandbls" unicode="&#xdf;" horiz-adv-x="413" 
d="M194 398q0 84 65 122q3 16 3 35q0 33 -12.5 51.5t-35.5 18.5q-72 0 -72 -142v-483h-92v484q0 104 41 161t118 57q63 0 97.5 -45t34.5 -114q0 -41 -10 -74q-47 -17 -47 -65q0 -24 17.5 -51t39 -48.5t39 -61t17.5 -85.5q0 -81 -37 -124.5t-102 -43.5q-62 0 -99 34l16 71
q26 -25 66 -25q65 0 65 89q0 32 -17.5 62.5t-38.5 51.5t-38.5 54.5t-17.5 70.5z" />
    <glyph glyph-name="agrave" unicode="&#xe0;" horiz-adv-x="374" 
d="M102 369l-62 28q43 121 148 121q69 0 102 -42.5t33 -116.5v-264q0 -35 30 -35h11v-59q-21 -7 -43 -7q-51 0 -75 40q-39 -42 -101 -42q-54 0 -86 38t-32 101q0 74 43 118.5t136 44.5h25v66q0 43 -13.5 62t-41.5 19q-49 0 -74 -72zM167 61q40 0 64 36v129h-25
q-49 0 -70 -22t-21 -65q0 -78 52 -78zM87 725h102l53 -138h-67z" />
    <glyph glyph-name="aacute" unicode="&#xe1;" horiz-adv-x="374" 
d="M102 369l-62 28q43 121 148 121q69 0 102 -42.5t33 -116.5v-264q0 -35 30 -35h11v-59q-21 -7 -43 -7q-51 0 -75 40q-39 -42 -101 -42q-54 0 -86 38t-32 101q0 74 43 118.5t136 44.5h25v66q0 43 -13.5 62t-41.5 19q-49 0 -74 -72zM167 61q40 0 64 36v129h-25
q-49 0 -70 -22t-21 -65q0 -78 52 -78zM186 725h102l-79 -138h-66z" />
    <glyph glyph-name="acircumflex" unicode="&#xe2;" horiz-adv-x="374" 
d="M102 369l-62 28q43 121 148 121q69 0 102 -42.5t33 -116.5v-264q0 -35 30 -35h11v-59q-21 -7 -43 -7q-51 0 -75 40q-39 -42 -101 -42q-54 0 -86 38t-32 101q0 74 43 118.5t136 44.5h25v66q0 43 -13.5 62t-41.5 19q-49 0 -74 -72zM167 61q40 0 64 36v129h-25
q-49 0 -70 -22t-21 -65q0 -78 52 -78zM155 587h-74l76 138h64l76 -138h-73l-34 76h-2z" />
    <glyph glyph-name="atilde" unicode="&#xe3;" horiz-adv-x="374" 
d="M102 369l-62 28q43 121 148 121q69 0 102 -42.5t33 -116.5v-264q0 -35 30 -35h11v-59q-21 -7 -43 -7q-51 0 -75 40q-39 -42 -101 -42q-54 0 -86 38t-32 101q0 74 43 118.5t136 44.5h25v66q0 43 -13.5 62t-41.5 19q-49 0 -74 -72zM167 61q40 0 64 36v129h-25
q-49 0 -70 -22t-21 -65q0 -78 52 -78zM264 726l48 -9q-6 -69 -23.5 -102t-53.5 -33q-18 0 -33 12.5t-23.5 27.5t-18 27.5t-17.5 12.5q-19 0 -27 -73l-48 8q6 70 23.5 102.5t53.5 32.5q22 0 40 -20t30.5 -40t22.5 -20q18 0 26 74z" />
    <glyph glyph-name="adieresis" unicode="&#xe4;" horiz-adv-x="374" 
d="M102 369l-62 28q43 121 148 121q69 0 102 -42.5t33 -116.5v-264q0 -35 30 -35h11v-59q-21 -7 -43 -7q-51 0 -75 40q-39 -42 -101 -42q-54 0 -86 38t-32 101q0 74 43 118.5t136 44.5h25v66q0 43 -13.5 62t-41.5 19q-49 0 -74 -72zM167 61q40 0 64 36v129h-25
q-49 0 -70 -22t-21 -65q0 -78 52 -78zM97 725h68v-116h-68v116zM216 725h67v-116h-67v116z" />
    <glyph glyph-name="aring" unicode="&#xe5;" horiz-adv-x="374" 
d="M102 369l-62 28q43 121 148 121q69 0 102 -42.5t33 -116.5v-264q0 -35 30 -35h11v-59q-21 -7 -43 -7q-51 0 -75 40q-39 -42 -101 -42q-54 0 -86 38t-32 101q0 74 43 118.5t136 44.5h25v66q0 43 -13.5 62t-41.5 19q-49 0 -74 -72zM167 61q40 0 64 36v129h-25
q-49 0 -70 -22t-21 -65q0 -78 52 -78zM109 660q0 35 22.5 56.5t58.5 21.5t58.5 -21.5t22.5 -56.5t-22.5 -56.5t-58.5 -21.5t-58.5 21.5t-22.5 56.5zM163 660q0 -31 27 -31t27 31t-27 31t-27 -31z" />
    <glyph glyph-name="ae" unicode="&#xe6;" horiz-adv-x="574" 
d="M545 236h-209v-81q0 -90 68 -90q58 0 78 83l65 -23q-37 -134 -151 -134q-81 0 -116 65q-40 -65 -129 -65q-57 0 -90.5 38.5t-33.5 101.5q0 75 45.5 120.5t142.5 45.5h28v68q0 73 -60 73q-54 0 -73 -73l-66 28q16 56 54.5 90.5t89.5 34.5q72 0 105 -51q38 51 108 51
q67 0 105.5 -48.5t38.5 -121.5v-112zM171 63q23 0 43 12.5t29 36.5v117h-29q-98 0 -98 -92q0 -74 55 -74zM336 354v-57h125v58q0 87 -63 87q-33 0 -47.5 -21t-14.5 -67z" />
    <glyph glyph-name="ccedilla" unicode="&#xe7;" horiz-adv-x="346" 
d="M330 393l-68 -23q-17 69 -68 69q-69 0 -69 -93v-184q0 -94 69 -94q51 0 69 72l69 -22q-30 -116 -127 -126l-4 -20q65 -12 65 -60q0 -32 -28.5 -54t-77.5 -26l-16 44q50 11 50 31q0 22 -55 26l13 61q-57 11 -87.5 56t-30.5 108v191q0 74 39.5 121t112.5 47
q54 0 91.5 -32.5t52.5 -91.5z" />
    <glyph glyph-name="egrave" unicode="&#xe8;" horiz-adv-x="370" 
d="M341 244h-216v-82q0 -94 74 -94q29 0 46 18t29 61l69 -22q-31 -134 -153 -134q-74 0 -115 46.5t-41 121.5v191q0 74 40.5 120.5t115.5 46.5q72 0 111.5 -47.5t39.5 -123.5v-102zM125 354v-49h133v49q0 88 -66 88q-67 0 -67 -88zM83 725h102l53 -138h-67z" />
    <glyph glyph-name="eacute" unicode="&#xe9;" horiz-adv-x="370" 
d="M341 244h-216v-82q0 -94 74 -94q29 0 46 18t29 61l69 -22q-31 -134 -153 -134q-74 0 -115 46.5t-41 121.5v191q0 74 40.5 120.5t115.5 46.5q72 0 111.5 -47.5t39.5 -123.5v-102zM125 354v-49h133v49q0 88 -66 88q-67 0 -67 -88zM193 725h102l-79 -138h-66z" />
    <glyph glyph-name="ecircumflex" unicode="&#xea;" horiz-adv-x="370" 
d="M341 244h-216v-82q0 -94 74 -94q29 0 46 18t29 61l69 -22q-31 -134 -153 -134q-74 0 -115 46.5t-41 121.5v191q0 74 40.5 120.5t115.5 46.5q72 0 111.5 -47.5t39.5 -123.5v-102zM125 354v-49h133v49q0 88 -66 88q-67 0 -67 -88zM157 587h-74l76 138h64l76 -138h-73
l-34 76h-2z" />
    <glyph glyph-name="edieresis" unicode="&#xeb;" horiz-adv-x="370" 
d="M341 244h-216v-82q0 -94 74 -94q29 0 46 18t29 61l69 -22q-31 -134 -153 -134q-74 0 -115 46.5t-41 121.5v191q0 74 40.5 120.5t115.5 46.5q72 0 111.5 -47.5t39.5 -123.5v-102zM125 354v-49h133v49q0 88 -66 88q-67 0 -67 -88zM97 725h68v-116h-68v116zM216 725h67v-116
h-67v116z" />
    <glyph glyph-name="igrave" unicode="&#xec;" horiz-adv-x="198" 
d="M53 508h92v-508h-92v508zM-19 725h102l53 -138h-67z" />
    <glyph glyph-name="iacute" unicode="&#xed;" horiz-adv-x="198" 
d="M53 508h92v-508h-92v508zM106 725h102l-79 -138h-66z" />
    <glyph glyph-name="icircumflex" unicode="&#xee;" horiz-adv-x="198" 
d="M53 508h92v-508h-92v508zM64 587h-74l76 138h64l76 -138h-73l-34 76h-2z" />
    <glyph glyph-name="idieresis" unicode="&#xef;" horiz-adv-x="198" 
d="M53 508h92v-508h-92v508zM6 725h68v-116h-68v116zM125 725h67v-116h-67v116z" />
    <glyph glyph-name="eth" unicode="&#xf0;" horiz-adv-x="391" 
d="M105 666l16 66q54 -9 93 -27l37 54l49 -36l-34 -50q92 -73 92 -231v-277q0 -78 -41.5 -125.5t-119.5 -47.5t-120 46t-42 119v188q0 74 36.5 120t105.5 46q62 0 96 -37h2q-6 96 -51 138l-40 -59l-49 36l38 55q-26 12 -68 22zM127 161q0 -93 70 -93q69 0 69 93v181
q0 94 -70 94q-69 0 -69 -94v-181z" />
    <glyph glyph-name="ntilde" unicode="&#xf1;" horiz-adv-x="408" 
d="M139 396v-396h-92v508h80l3 -41h2q39 50 108 50q62 0 95 -44.5t33 -128.5v-344h-92v342q0 93 -64 93q-46 0 -73 -39zM282 726l48 -9q-6 -69 -23.5 -102t-53.5 -33q-18 0 -33 12.5t-23.5 27.5t-18 27.5t-17.5 12.5q-19 0 -27 -73l-48 8q6 70 23.5 102.5t53.5 32.5
q22 0 40 -20t30.5 -40t22.5 -20q18 0 26 74z" />
    <glyph glyph-name="ograve" unicode="&#xf2;" 
d="M356 349v-192q0 -74 -42 -120t-119 -46q-78 0 -119.5 45.5t-41.5 120.5v192q0 75 41.5 121.5t119.5 46.5t119.5 -46.5t41.5 -121.5zM125 346v-185q0 -94 70 -94q69 0 69 94v185q0 94 -69 94q-70 0 -70 -94zM79 725h102l53 -138h-67z" />
    <glyph glyph-name="oacute" unicode="&#xf3;" 
d="M356 349v-192q0 -74 -42 -120t-119 -46q-78 0 -119.5 45.5t-41.5 120.5v192q0 75 41.5 121.5t119.5 46.5t119.5 -46.5t41.5 -121.5zM125 346v-185q0 -94 70 -94q69 0 69 94v185q0 94 -69 94q-70 0 -70 -94zM201 725h102l-79 -138h-66z" />
    <glyph glyph-name="ocircumflex" unicode="&#xf4;" 
d="M356 349v-192q0 -74 -42 -120t-119 -46q-78 0 -119.5 45.5t-41.5 120.5v192q0 75 41.5 121.5t119.5 46.5t119.5 -46.5t41.5 -121.5zM125 346v-185q0 -94 70 -94q69 0 69 94v185q0 94 -69 94q-70 0 -70 -94zM160 587h-74l76 138h64l76 -138h-73l-34 76h-2z" />
    <glyph glyph-name="otilde" unicode="&#xf5;" 
d="M356 349v-192q0 -74 -42 -120t-119 -46q-78 0 -119.5 45.5t-41.5 120.5v192q0 75 41.5 121.5t119.5 46.5t119.5 -46.5t41.5 -121.5zM125 346v-185q0 -94 70 -94q69 0 69 94v185q0 94 -69 94q-70 0 -70 -94zM270 726l48 -9q-6 -69 -23.5 -102t-53.5 -33q-18 0 -33 12.5
t-23.5 27.5t-18 27.5t-17.5 12.5q-19 0 -27 -73l-48 8q6 70 23.5 102.5t53.5 32.5q22 0 40 -20t30.5 -40t22.5 -20q18 0 26 74z" />
    <glyph glyph-name="odieresis" unicode="&#xf6;" 
d="M356 349v-192q0 -74 -42 -120t-119 -46q-78 0 -119.5 45.5t-41.5 120.5v192q0 75 41.5 121.5t119.5 46.5t119.5 -46.5t41.5 -121.5zM125 346v-185q0 -94 70 -94q69 0 69 94v185q0 94 -69 94q-70 0 -70 -94zM101 725h68v-116h-68v116zM220 725h67v-116h-67v116z" />
    <glyph glyph-name="divide" unicode="&#xf7;" horiz-adv-x="379" 
d="M340 272h-300v75h300v-75zM136 466q0 23 15 40t37 17q21 0 36.5 -17t15.5 -40t-15.5 -39t-36.5 -16q-22 0 -37 16t-15 39zM136 158q0 23 15 39.5t37 16.5q21 0 36.5 -16.5t15.5 -39.5t-15.5 -39.5t-36.5 -16.5q-22 0 -37 16.5t-15 39.5z" />
    <glyph glyph-name="oslash" unicode="&#xf8;" 
d="M356 349v-192q0 -74 -42 -120t-119 -46t-119 45l-20 -30l-34 26l28 43q-16 35 -16 82v192q0 75 41.5 121.5t119.5 46.5q75 0 118 -45l22 34l36 -25l-32 -48q17 -39 17 -84zM195 67q69 0 69 94v158h-2l-132 -202q13 -50 65 -50zM125 346v-158h2l132 203q-13 49 -64 49
q-70 0 -70 -94z" />
    <glyph glyph-name="ugrave" unicode="&#xf9;" horiz-adv-x="408" 
d="M269 110v398h92v-508h-80l-4 39h-2q-39 -48 -108 -48q-60 0 -93.5 45t-33.5 128v344h91v-345q0 -92 65 -92q45 0 73 39zM90 725h102l53 -138h-67z" />
    <glyph glyph-name="uacute" unicode="&#xfa;" horiz-adv-x="408" 
d="M269 110v398h92v-508h-80l-4 39h-2q-39 -48 -108 -48q-60 0 -93.5 45t-33.5 128v344h91v-345q0 -92 65 -92q45 0 73 39zM209 725h102l-79 -138h-66z" />
    <glyph glyph-name="ucircumflex" unicode="&#xfb;" horiz-adv-x="408" 
d="M269 110v398h92v-508h-80l-4 39h-2q-39 -48 -108 -48q-60 0 -93.5 45t-33.5 128v344h91v-345q0 -92 65 -92q45 0 73 39zM170 587h-74l76 138h64l76 -138h-73l-34 76h-2z" />
    <glyph glyph-name="udieresis" unicode="&#xfc;" horiz-adv-x="408" 
d="M269 110v398h92v-508h-80l-4 39h-2q-39 -48 -108 -48q-60 0 -93.5 45t-33.5 128v344h91v-345q0 -92 65 -92q45 0 73 39zM111 725h68v-116h-68v116zM230 725h67v-116h-67v116z" />
    <glyph glyph-name="yacute" unicode="&#xfd;" horiz-adv-x="400" 
d="M390 508l-147 -522q-22 -77 -59.5 -111t-101.5 -37l-7 71q36 5 56 23t30 57l6 24l-157 495h101l99 -381h2l84 381h94zM214 725h102l-79 -138h-66z" />
    <glyph glyph-name="thorn" unicode="&#xfe;" horiz-adv-x="402" 
d="M236 -7q-61 0 -95 38h-2v-202h-92v919h92v-278h2q33 47 100 47q61 0 94 -45t33 -128v-180q0 -83 -34 -127t-98 -44zM139 397v-288q25 -39 71 -39q66 0 66 94v178q0 49 -15.5 71t-48.5 22q-48 0 -73 -38z" />
    <glyph glyph-name="ydieresis" unicode="&#xff;" horiz-adv-x="400" 
d="M390 508l-147 -522q-22 -77 -59.5 -111t-101.5 -37l-7 71q36 5 56 23t30 57l6 24l-157 495h101l99 -381h2l84 381h94zM117 725h68v-116h-68v116zM236 725h67v-116h-67v116z" />
    <glyph glyph-name="Amacron" unicode="&#x100;" horiz-adv-x="478" 
d="M147 178l-36 -178h-102l171 725h118l171 -725h-104l-36 178h-182zM237 623l-73 -365h148l-73 365h-2zM348 850v-62h-220v62h220z" />
    <glyph glyph-name="amacron" unicode="&#x101;" horiz-adv-x="374" 
d="M102 369l-62 28q43 121 148 121q69 0 102 -42.5t33 -116.5v-264q0 -35 30 -35h11v-59q-21 -7 -43 -7q-51 0 -75 40q-39 -42 -101 -42q-54 0 -86 38t-32 101q0 74 43 118.5t136 44.5h25v66q0 43 -13.5 62t-41.5 19q-49 0 -74 -72zM167 61q40 0 64 36v129h-25
q-49 0 -70 -22t-21 -65q0 -78 52 -78zM294 686v-65h-210v65h210z" />
    <glyph glyph-name="Abreve" unicode="&#x102;" horiz-adv-x="478" 
d="M147 178l-36 -178h-102l171 725h118l171 -725h-104l-36 178h-182zM237 623l-73 -365h148l-73 365h-2zM129 871h67q2 -39 12 -53t31 -14q20 0 30 14t13 53h66q-8 -67 -32.5 -92.5t-77.5 -25.5t-77 25.5t-32 92.5z" />
    <glyph glyph-name="abreve" unicode="&#x103;" horiz-adv-x="374" 
d="M102 369l-62 28q43 121 148 121q69 0 102 -42.5t33 -116.5v-264q0 -35 30 -35h11v-59q-21 -7 -43 -7q-51 0 -75 40q-39 -42 -101 -42q-54 0 -86 38t-32 101q0 74 43 118.5t136 44.5h25v66q0 43 -13.5 62t-41.5 19q-49 0 -74 -72zM167 61q40 0 64 36v129h-25
q-49 0 -70 -22t-21 -65q0 -78 52 -78zM81 725h67q2 -54 11.5 -73t30.5 -19t30.5 19t11.5 73h67q-8 -85 -32 -115t-77 -30t-76.5 30t-32.5 115z" />
    <glyph glyph-name="Aogonek" unicode="&#x104;" horiz-adv-x="478" 
d="M147 178l-36 -178h-102l171 725h118l171 -725h-15q-23 0 -37.5 -19.5t-14.5 -41.5q0 -42 38 -42q23 0 46 16l17 -51q-33 -28 -83 -28q-45 0 -68 20.5t-23 55.5q0 59 54 88v2h-18l-36 178h-182zM237 623l-73 -365h148l-73 365h-2z" />
    <glyph glyph-name="aogonek" unicode="&#x105;" horiz-adv-x="374" 
d="M102 369l-62 28q43 121 148 121q69 0 102 -42.5t33 -116.5v-264q0 -35 30 -35h11v-59q-7 -2 -19 -4q-21 -5 -35 -23t-14 -40q0 -36 36 -36q24 0 46 16l18 -51q-33 -28 -83 -28q-90 0 -90 74q0 58 63 90v2q-24 7 -40 33q-39 -42 -101 -42q-54 0 -86 38t-32 101
q0 74 43 118.5t136 44.5h25v66q0 43 -13.5 62t-41.5 19q-49 0 -74 -72zM167 61q40 0 64 36v129h-25q-49 0 -70 -22t-21 -65q0 -78 52 -78z" />
    <glyph glyph-name="Cacute" unicode="&#x106;" horiz-adv-x="420" 
d="M225 735q66 0 112 -43.5t59 -115.5l-78 -24q-18 93 -86 93q-89 0 -89 -129v-316q0 -58 22 -90.5t66 -32.5q37 0 57.5 22.5t30.5 78.5l77 -23q-13 -86 -56 -125.5t-117 -39.5q-84 0 -133 57t-49 152v316q0 103 49 161.5t135 58.5zM220 871h112l-82 -113h-76z" />
    <glyph glyph-name="cacute" unicode="&#x107;" horiz-adv-x="346" 
d="M330 393l-68 -23q-17 69 -68 69q-69 0 -69 -93v-184q0 -94 69 -94q51 0 69 72l69 -22q-32 -127 -146 -127q-73 0 -112.5 47.5t-39.5 119.5v191q0 74 39.5 121t112.5 47q54 0 91.5 -32.5t52.5 -91.5zM191 725h102l-79 -138h-66z" />
    <glyph glyph-name="Ccircumflex" unicode="&#x108;" horiz-adv-x="420" 
d="M225 735q66 0 112 -43.5t59 -115.5l-78 -24q-18 93 -86 93q-89 0 -89 -129v-316q0 -58 22 -90.5t66 -32.5q37 0 57.5 22.5t30.5 78.5l77 -23q-13 -86 -56 -125.5t-117 -39.5q-84 0 -133 57t-49 152v316q0 103 49 161.5t135 58.5zM191 758h-77l73 113h76l73 -113h-76
l-35 59z" />
    <glyph glyph-name="ccircumflex" unicode="&#x109;" horiz-adv-x="346" 
d="M330 393l-68 -23q-17 69 -68 69q-69 0 -69 -93v-184q0 -94 69 -94q51 0 69 72l69 -22q-32 -127 -146 -127q-73 0 -112.5 47.5t-39.5 119.5v191q0 74 39.5 121t112.5 47q54 0 91.5 -32.5t52.5 -91.5zM154 586h-74l76 138h64l76 -138h-73l-34 76h-2z" />
    <glyph glyph-name="Cdotaccent" unicode="&#x10a;" horiz-adv-x="420" 
d="M225 735q66 0 112 -43.5t59 -115.5l-78 -24q-18 93 -86 93q-89 0 -89 -129v-316q0 -58 22 -90.5t66 -32.5q37 0 57.5 22.5t30.5 78.5l77 -23q-13 -86 -56 -125.5t-117 -39.5q-84 0 -133 57t-49 152v316q0 103 49 161.5t135 58.5zM179 871h91v-104h-91v104z" />
    <glyph glyph-name="cdotaccent" unicode="&#x10b;" horiz-adv-x="346" 
d="M330 393l-68 -23q-17 69 -68 69q-69 0 -69 -93v-184q0 -94 69 -94q51 0 69 72l69 -22q-32 -127 -146 -127q-73 0 -112.5 47.5t-39.5 119.5v191q0 74 39.5 121t112.5 47q54 0 91.5 -32.5t52.5 -91.5zM146 725h86v-116h-86v116z" />
    <glyph glyph-name="Ccaron" unicode="&#x10c;" horiz-adv-x="420" 
d="M225 735q66 0 112 -43.5t59 -115.5l-78 -24q-18 93 -86 93q-89 0 -89 -129v-316q0 -58 22 -90.5t66 -32.5q37 0 57.5 22.5t30.5 78.5l77 -23q-13 -86 -56 -125.5t-117 -39.5q-84 0 -133 57t-49 152v316q0 103 49 161.5t135 58.5zM116 871h75l32 -60h2l34 60h73l-76 -113
h-64z" />
    <glyph glyph-name="ccaron" unicode="&#x10d;" horiz-adv-x="346" 
d="M330 393l-68 -23q-17 69 -68 69q-69 0 -69 -93v-184q0 -94 69 -94q51 0 69 72l69 -22q-32 -127 -146 -127q-73 0 -112.5 47.5t-39.5 119.5v191q0 74 39.5 121t112.5 47q54 0 91.5 -32.5t52.5 -91.5zM80 725h74l33 -77h2l34 77h73l-76 -138h-64z" />
    <glyph glyph-name="Dcaron" unicode="&#x10e;" horiz-adv-x="489" 
d="M58 725h192q94 0 146 -58.5t52 -163.5v-282q0 -104 -52 -162.5t-146 -58.5h-192v725zM347 498q0 72 -23.5 104t-73.5 32h-91v-545h91q49 0 73 31.5t24 102.5v275zM118 871h75l32 -60h2l34 60h73l-76 -113h-64z" />
    <glyph glyph-name="dcaron" unicode="&#x10f;" horiz-adv-x="405" 
d="M165 515q60 0 96 -39h2v272h92v-748h-80l-4 40h-2q-39 -49 -108 -49q-60 0 -93.5 45t-33.5 128v179q0 83 34 127.5t97 44.5zM263 109v288q-28 38 -71 38q-67 0 -67 -94v-178q0 -93 65 -93q45 0 73 39zM404 749h78l-46 -139h-50z" />
    <glyph glyph-name="Dcroat" unicode="&#x110;" horiz-adv-x="498" 
d="M66 725h192q94 0 146 -58.5t52 -163.5v-282q0 -104 -52 -162.5t-146 -58.5h-192v342h-54v62h54v321zM355 498q0 72 -23.5 104t-73.5 32h-91v-230h58v-62h-58v-253h91q49 0 73 31.5t24 102.5v275z" />
    <glyph glyph-name="dcroat" unicode="&#x111;" horiz-adv-x="406" 
d="M207 599v62h56v87h92v-87h37v-62h-37v-599h-80l-4 40h-2q-39 -49 -108 -49q-60 0 -93.5 45t-33.5 128v179q0 83 34 127.5t97 44.5q60 0 96 -39h2v123h-56zM263 109v288q-28 38 -71 38q-67 0 -67 -94v-178q0 -93 65 -93q45 0 73 39z" />
    <glyph glyph-name="Emacron" unicode="&#x112;" horiz-adv-x="410" 
d="M58 725h318v-93h-217v-215h171v-83h-171v-242h228v-92h-329v725zM329 850v-62h-220v62h220z" />
    <glyph glyph-name="emacron" unicode="&#x113;" horiz-adv-x="370" 
d="M341 244h-216v-82q0 -94 74 -94q29 0 46 18t29 61l69 -22q-31 -134 -153 -134q-74 0 -115 46.5t-41 121.5v191q0 74 40.5 120.5t115.5 46.5q72 0 111.5 -47.5t39.5 -123.5v-102zM125 354v-49h133v49q0 88 -66 88q-67 0 -67 -88zM295 686v-65h-210v65h210z" />
    <glyph glyph-name="Ebreve" unicode="&#x114;" horiz-adv-x="410" 
d="M58 725h318v-93h-217v-215h171v-83h-171v-242h228v-92h-329v725zM112 871h67q2 -39 12 -53t31 -14q20 0 30 14t13 53h66q-8 -67 -32.5 -92.5t-77.5 -25.5t-77 25.5t-32 92.5z" />
    <glyph glyph-name="ebreve" unicode="&#x115;" horiz-adv-x="370" 
d="M341 244h-216v-82q0 -94 74 -94q29 0 46 18t29 61l69 -22q-31 -134 -153 -134q-74 0 -115 46.5t-41 121.5v191q0 74 40.5 120.5t115.5 46.5q72 0 111.5 -47.5t39.5 -123.5v-102zM125 354v-49h133v49q0 88 -66 88q-67 0 -67 -88zM82 725h67q2 -54 11.5 -73t30.5 -19
t30.5 19t11.5 73h67q-8 -85 -32 -115t-77 -30t-76.5 30t-32.5 115z" />
    <glyph glyph-name="Edotaccent" unicode="&#x116;" horiz-adv-x="410" 
d="M58 725h318v-93h-217v-215h171v-83h-171v-242h228v-92h-329v725zM178 871h91v-104h-91v104z" />
    <glyph glyph-name="edotaccent" unicode="&#x117;" horiz-adv-x="370" 
d="M341 244h-216v-82q0 -94 74 -94q29 0 46 18t29 61l69 -22q-31 -134 -153 -134q-74 0 -115 46.5t-41 121.5v191q0 74 40.5 120.5t115.5 46.5q72 0 111.5 -47.5t39.5 -123.5v-102zM125 354v-49h133v49q0 88 -66 88q-67 0 -67 -88zM149 725h86v-116h-86v116z" />
    <glyph glyph-name="Eogonek" unicode="&#x118;" horiz-adv-x="410" 
d="M58 725h318v-93h-217v-215h171v-83h-171v-242h228v-92h-28q-23 0 -37.5 -19.5t-14.5 -41.5q0 -42 38 -42q23 0 46 16l17 -51q-33 -28 -83 -28q-45 0 -68 20.5t-23 55.5q0 59 54 88v2h-230v725z" />
    <glyph glyph-name="eogonek" unicode="&#x119;" horiz-adv-x="370" 
d="M341 244h-216v-82q0 -94 74 -94q29 0 46 18t29 61l69 -22q-23 -99 -95 -125q-46 -17 -46 -66q0 -37 37 -37q23 0 45 16l18 -51q-33 -28 -83 -28q-90 0 -90 74q0 51 50 82v2q-69 3 -107 49t-38 118v191q0 74 40.5 120.5t115.5 46.5q72 0 111.5 -47.5t39.5 -123.5v-102z
M125 354v-49h133v49q0 88 -66 88q-67 0 -67 -88z" />
    <glyph glyph-name="Ecaron" unicode="&#x11a;" horiz-adv-x="410" 
d="M58 725h318v-93h-217v-215h171v-83h-171v-242h228v-92h-329v725zM112 871h75l32 -60h2l34 60h73l-76 -113h-64z" />
    <glyph glyph-name="ecaron" unicode="&#x11b;" horiz-adv-x="370" 
d="M341 244h-216v-82q0 -94 74 -94q29 0 46 18t29 61l69 -22q-31 -134 -153 -134q-74 0 -115 46.5t-41 121.5v191q0 74 40.5 120.5t115.5 46.5q72 0 111.5 -47.5t39.5 -123.5v-102zM125 354v-49h133v49q0 88 -66 88q-67 0 -67 -88zM83 725h74l33 -77h2l34 77h73l-76 -138
h-64z" />
    <glyph glyph-name="Gcircumflex" unicode="&#x11c;" horiz-adv-x="468" 
d="M240 735q72 0 121 -42t63 -118l-77 -25q-27 95 -100 95q-105 0 -105 -145v-286q0 -132 103 -132q61 0 91 58v144h-71v74h160v-358h-83v46h-2q-45 -56 -122 -56q-83 0 -130 57t-47 166v287q0 109 50.5 172t148.5 63zM211 758h-77l73 113h76l73 -113h-76l-35 59z" />
    <glyph glyph-name="gcircumflex" unicode="&#x11d;" horiz-adv-x="384" 
d="M192 170q-33 0 -62 8q-23 -13 -23 -34q0 -32 48 -32h74q140 0 140 -127q0 -79 -46.5 -121t-129.5 -42q-79 0 -116.5 32.5t-37.5 89.5q0 61 37 98q-46 25 -46 80q0 52 53 84q-39 39 -39 136q0 92 35.5 133.5t111.5 41.5q49 0 83 -17q37 23 52 60l45 -19q-7 -57 -48 -94
q18 -39 18 -105q0 -91 -35.5 -131.5t-113.5 -40.5zM131 341q0 -61 12.5 -81t48.5 -20t48.5 20t12.5 81q0 62 -13.5 82.5t-47.5 20.5q-35 0 -48 -20.5t-13 -82.5zM222 28h-79q-25 -24 -25 -71q0 -64 79 -64q50 0 69.5 19.5t19.5 57.5q0 33 -13.5 45.5t-50.5 12.5zM160 587
h-74l76 138h64l76 -138h-73l-34 76h-2z" />
    <glyph glyph-name="Gbreve" unicode="&#x11e;" horiz-adv-x="468" 
d="M240 735q72 0 121 -42t63 -118l-77 -25q-27 95 -100 95q-105 0 -105 -145v-286q0 -132 103 -132q61 0 91 58v144h-71v74h160v-358h-83v46h-2q-45 -56 -122 -56q-83 0 -130 57t-47 166v287q0 109 50.5 172t148.5 63zM133 871h67q2 -39 12 -53t31 -14q20 0 30 14t13 53h66
q-8 -67 -32.5 -92.5t-77.5 -25.5t-77 25.5t-32 92.5z" />
    <glyph glyph-name="gbreve" unicode="&#x11f;" horiz-adv-x="384" 
d="M192 170q-33 0 -62 8q-23 -13 -23 -34q0 -32 48 -32h74q140 0 140 -127q0 -79 -46.5 -121t-129.5 -42q-79 0 -116.5 32.5t-37.5 89.5q0 61 37 98q-46 25 -46 80q0 52 53 84q-39 39 -39 136q0 92 35.5 133.5t111.5 41.5q49 0 83 -17q37 23 52 60l45 -19q-7 -57 -48 -94
q18 -39 18 -105q0 -91 -35.5 -131.5t-113.5 -40.5zM131 341q0 -61 12.5 -81t48.5 -20t48.5 20t12.5 81q0 62 -13.5 82.5t-47.5 20.5q-35 0 -48 -20.5t-13 -82.5zM222 28h-79q-25 -24 -25 -71q0 -64 79 -64q50 0 69.5 19.5t19.5 57.5q0 33 -13.5 45.5t-50.5 12.5zM89 725h67
q2 -54 11.5 -73t30.5 -19t30.5 19t11.5 73h67q-8 -85 -32 -115t-77 -30t-76.5 30t-32.5 115z" />
    <glyph glyph-name="Gdotaccent" unicode="&#x120;" horiz-adv-x="468" 
d="M240 735q72 0 121 -42t63 -118l-77 -25q-27 95 -100 95q-105 0 -105 -145v-286q0 -132 103 -132q61 0 91 58v144h-71v74h160v-358h-83v46h-2q-45 -56 -122 -56q-83 0 -130 57t-47 166v287q0 109 50.5 172t148.5 63zM195 871h91v-104h-91v104z" />
    <glyph glyph-name="gdotaccent" unicode="&#x121;" horiz-adv-x="384" 
d="M192 170q-33 0 -62 8q-23 -13 -23 -34q0 -32 48 -32h74q140 0 140 -127q0 -79 -46.5 -121t-129.5 -42q-79 0 -116.5 32.5t-37.5 89.5q0 61 37 98q-46 25 -46 80q0 52 53 84q-39 39 -39 136q0 92 35.5 133.5t111.5 41.5q49 0 83 -17q37 23 52 60l45 -19q-7 -57 -48 -94
q18 -39 18 -105q0 -91 -35.5 -131.5t-113.5 -40.5zM131 341q0 -61 12.5 -81t48.5 -20t48.5 20t12.5 81q0 62 -13.5 82.5t-47.5 20.5q-35 0 -48 -20.5t-13 -82.5zM222 28h-79q-25 -24 -25 -71q0 -64 79 -64q50 0 69.5 19.5t19.5 57.5q0 33 -13.5 45.5t-50.5 12.5zM153 725h86
v-116h-86v116z" />
    <glyph glyph-name="Gcommaaccent" unicode="&#x122;" horiz-adv-x="468" 
d="M240 735q72 0 121 -42t63 -118l-77 -25q-27 95 -100 95q-105 0 -105 -145v-286q0 -132 103 -132q61 0 91 58v144h-71v74h160v-358h-83v46h-2q-45 -56 -122 -56q-83 0 -130 57t-47 166v287q0 109 50.5 172t148.5 63zM198 -94v66h95v-40q0 -55 -21.5 -78.5t-74.5 -27.5
l-4 36q24 3 33 11.5t9 28.5z" />
    <glyph glyph-name="gcommaaccent" unicode="&#x123;" horiz-adv-x="384" 
d="M192 170q-33 0 -62 8q-23 -13 -23 -34q0 -32 48 -32h74q140 0 140 -127q0 -79 -46.5 -121t-129.5 -42q-79 0 -116.5 32.5t-37.5 89.5q0 61 37 98q-46 25 -46 80q0 52 53 84q-39 39 -39 136q0 92 35.5 133.5t111.5 41.5q49 0 83 -17q37 23 52 60l45 -19q-7 -57 -48 -94
q18 -39 18 -105q0 -91 -35.5 -131.5t-113.5 -40.5zM131 341q0 -61 12.5 -81t48.5 -20t48.5 20t12.5 81q0 62 -13.5 82.5t-47.5 20.5q-35 0 -48 -20.5t-13 -82.5zM222 28h-79q-25 -24 -25 -71q0 -64 79 -64q50 0 69.5 19.5t19.5 57.5q0 33 -13.5 45.5t-50.5 12.5zM240 649
v-66h-95v40q0 55 21.5 78.5t74.5 27.5l4 -36q-24 -3 -33 -11.5t-9 -28.5z" />
    <glyph glyph-name="Hcircumflex" unicode="&#x124;" horiz-adv-x="494" 
d="M58 725h101v-305h176v305h101v-725h-101v327h-176v-327h-101v725zM214 758h-77l73 113h76l73 -113h-76l-35 59z" />
    <glyph glyph-name="hcircumflex" unicode="&#x125;" horiz-adv-x="410" 
d="M141 396v-396h-91v748h91v-275h2q35 44 101 44q61 0 94 -44.5t33 -128.5v-344h-92v342q0 93 -65 93q-47 0 -73 -39zM60 772h-74l76 138h64l76 -138h-73l-34 76h-2z" />
    <glyph glyph-name="Hbar" unicode="&#x126;" horiz-adv-x="494" 
d="M58 725h101v-93h176v93h101v-93h47v-62h-47v-570h-101v327h-176v-327h-101v570h-48v62h48v93zM159 420h176v150h-176v-150z" />
    <glyph glyph-name="hbar" unicode="&#x127;" horiz-adv-x="410" 
d="M141 396v-396h-91v590h-63v63h63v95h91v-95h85v-63h-85v-117h2q35 44 101 44q61 0 94 -44.5t33 -128.5v-344h-92v342q0 93 -65 93q-47 0 -73 -39z" />
    <glyph glyph-name="Itilde" unicode="&#x128;" horiz-adv-x="240" 
d="M69 725h101v-725h-101v725zM195 873l47 -7q-6 -58 -23.5 -86.5t-52.5 -28.5q-26 0 -54 29.5t-37 29.5q-21 0 -28 -54l-48 6q6 59 23.5 87t52.5 28q21 0 39 -14.5t31 -29.5t22 -15q21 0 28 55z" />
    <glyph glyph-name="itilde" unicode="&#x129;" horiz-adv-x="198" 
d="M53 508h92v-508h-92v508zM175 726l48 -9q-6 -69 -23.5 -102t-53.5 -33q-18 0 -33 12.5t-23.5 27.5t-18 27.5t-17.5 12.5q-19 0 -27 -73l-48 8q6 70 23.5 102.5t53.5 32.5q22 0 40 -20t30.5 -40t22.5 -20q18 0 26 74z" />
    <glyph glyph-name="Imacron" unicode="&#x12a;" horiz-adv-x="240" 
d="M69 725h101v-725h-101v725zM230 850v-62h-220v62h220z" />
    <glyph glyph-name="imacron" unicode="&#x12b;" horiz-adv-x="198" 
d="M53 508h92v-508h-92v508zM204 686v-65h-210v65h210z" />
    <glyph glyph-name="Ibreve" unicode="&#x12c;" horiz-adv-x="240" 
d="M69 725h101v-725h-101v725zM10 871h67q2 -39 12 -53t31 -14q20 0 30 14t13 53h66q-8 -67 -32.5 -92.5t-77.5 -25.5t-77 25.5t-32 92.5z" />
    <glyph glyph-name="ibreve" unicode="&#x12d;" horiz-adv-x="198" 
d="M53 508h92v-508h-92v508zM-11 725h67q2 -54 11.5 -73t30.5 -19t30.5 19t11.5 73h67q-8 -85 -32 -115t-77 -30t-76.5 30t-32.5 115z" />
    <glyph glyph-name="Iogonek" unicode="&#x12e;" horiz-adv-x="240" 
d="M69 725h101v-725h-11q-23 0 -37.5 -19.5t-14.5 -41.5q0 -42 38 -42q23 0 46 16l17 -51q-33 -28 -83 -28q-45 0 -68 20.5t-23 55.5q0 59 54 88v2h-19v725z" />
    <glyph glyph-name="iogonek" unicode="&#x12f;" horiz-adv-x="198" 
d="M53 508h92v-508h-6q-23 0 -37.5 -19.5t-14.5 -41.5q0 -42 38 -42q23 0 46 16l17 -51q-33 -28 -83 -28q-45 0 -68 20.5t-23 55.5q0 59 54 88v2h-15v508zM57 725h86v-116h-86v116z" />
    <glyph glyph-name="Idotaccent" unicode="&#x130;" horiz-adv-x="240" 
d="M69 725h101v-725h-101v725zM74 871h91v-104h-91v104z" />
    <glyph glyph-name="dotlessi" unicode="&#x131;" horiz-adv-x="198" 
d="M53 508h92v-508h-92v508z" />
    <glyph glyph-name="IJ" unicode="&#x132;" horiz-adv-x="472" 
d="M69 725h101v-725h-101v725zM313 725h102v-616q0 -237 -214 -242l-8 85q62 0 91 36t29 118v619z" />
    <glyph glyph-name="ij" unicode="&#x133;" horiz-adv-x="406" 
d="M53 508h92v-508h-92v508zM56 725h86v-116h-86v116zM262 725h86v-116h-86v116zM196 -163l-7 75q37 6 54 31.5t17 80.5v484h92v-483q0 -177 -156 -188z" />
    <glyph glyph-name="Jcircumflex" unicode="&#x134;" horiz-adv-x="232" 
d="M73 725h102v-616q0 -237 -214 -242l-8 85q62 0 91 36t29 118v619zM90 758h-77l73 113h76l73 -113h-76l-35 59z" />
    <glyph glyph-name="jcircumflex" unicode="&#x135;" horiz-adv-x="208" 
d="M71 587h-74l76 138h64l76 -138h-73l-34 76h-2zM-2 -163l-7 75q37 6 54 31.5t17 80.5v484h92v-483q0 -177 -156 -188z" />
    <glyph glyph-name="Kcommaaccent" unicode="&#x136;" horiz-adv-x="469" 
d="M462 0h-112l-142 327h-2l-49 -89v-238h-99v725h99v-362h2l176 362h113l-175 -323zM201 -94v66h95v-40q0 -55 -21.5 -78.5t-74.5 -27.5l-4 36q24 3 33 11.5t9 28.5z" />
    <glyph glyph-name="kcommaaccent" unicode="&#x137;" horiz-adv-x="407" 
d="M50 748h91v-489h2l148 249h97l-136 -220l149 -288h-101l-108 222l-51 -66v-156h-91v748zM160 -94v66h95v-40q0 -55 -21.5 -78.5t-74.5 -27.5l-4 36q24 3 33 11.5t9 28.5z" />
    <glyph glyph-name="kgreenlandic" unicode="&#x138;" horiz-adv-x="407" 
d="M50 508h91v-249h2l148 249h97l-136 -220l149 -288h-101l-108 222l-51 -66v-156h-91v508z" />
    <glyph glyph-name="Lacute" unicode="&#x139;" horiz-adv-x="382" 
d="M58 725h99v-631h208v-94h-307v725zM111 871h112l-82 -113h-76z" />
    <glyph glyph-name="lacute" unicode="&#x13a;" horiz-adv-x="203" 
d="M55 748h92v-748h-92v748zM108 911h102l-79 -138h-66z" />
    <glyph glyph-name="Lcommaaccent" unicode="&#x13b;" horiz-adv-x="382" 
d="M58 725h99v-631h208v-94h-307v725zM167 -94v66h95v-40q0 -55 -21.5 -78.5t-74.5 -27.5l-4 36q24 3 33 11.5t9 28.5z" />
    <glyph glyph-name="lcommaaccent" unicode="&#x13c;" horiz-adv-x="203" 
d="M55 748h92v-748h-92v748zM56 -94v66h95v-40q0 -55 -21.5 -78.5t-74.5 -27.5l-4 36q24 3 33 11.5t9 28.5z" />
    <glyph glyph-name="Lcaron" unicode="&#x13d;" horiz-adv-x="382" 
d="M58 725h99v-631h208v-94h-307v725zM242 725h78l-46 -139h-50z" />
    <glyph glyph-name="lcaron" unicode="&#x13e;" horiz-adv-x="203" 
d="M55 748h92v-748h-92v748zM188 748h78l-46 -139h-50z" />
    <glyph glyph-name="Ldot" unicode="&#x13f;" horiz-adv-x="382" 
d="M265 451h76v-102h-76v102zM58 725h99v-631h208v-94h-307v725z" />
    <glyph glyph-name="ldot" unicode="&#x140;" horiz-adv-x="230" 
d="M189 443h53v-128h-53v128zM55 748h92v-748h-92v748z" />
    <glyph glyph-name="Lslash" unicode="&#x141;" horiz-adv-x="393" 
d="M70 725h99v-299l129 75v-88l-129 -75v-244h208v-94h-307v292l-53 -30v87l53 31v345z" />
    <glyph glyph-name="lslash" unicode="&#x142;" horiz-adv-x="258" 
d="M79 748h92v-285h2l65 46v-82l-67 -47v-380h-92v326h-2l-58 -40v82l60 41v339z" />
    <glyph glyph-name="Nacute" unicode="&#x143;" horiz-adv-x="494" 
d="M58 725h76l211 -468h2v468h89v-725h-69l-218 483h-2v-483h-89v725zM242 871h112l-82 -113h-76z" />
    <glyph glyph-name="nacute" unicode="&#x144;" horiz-adv-x="408" 
d="M139 396v-396h-92v508h80l3 -41h2q39 50 108 50q62 0 95 -44.5t33 -128.5v-344h-92v342q0 93 -64 93q-46 0 -73 -39zM204 725h102l-79 -138h-66z" />
    <glyph glyph-name="Ncommaaccent" unicode="&#x145;" horiz-adv-x="494" 
d="M58 725h76l211 -468h2v468h89v-725h-69l-218 483h-2v-483h-89v725zM210 -94v66h95v-40q0 -55 -21.5 -78.5t-74.5 -27.5l-4 36q24 3 33 11.5t9 28.5z" />
    <glyph glyph-name="ncommaaccent" unicode="&#x146;" horiz-adv-x="408" 
d="M139 396v-396h-92v508h80l3 -41h2q39 50 108 50q62 0 95 -44.5t33 -128.5v-344h-92v342q0 93 -64 93q-46 0 -73 -39zM161 -94v66h95v-40q0 -55 -21.5 -78.5t-74.5 -27.5l-4 36q24 3 33 11.5t9 28.5z" />
    <glyph glyph-name="Ncaron" unicode="&#x147;" horiz-adv-x="494" 
d="M58 725h76l211 -468h2v468h89v-725h-69l-218 483h-2v-483h-89v725zM138 871h75l32 -60h2l34 60h73l-76 -113h-64z" />
    <glyph glyph-name="ncaron" unicode="&#x148;" horiz-adv-x="408" 
d="M139 396v-396h-92v508h80l3 -41h2q39 50 108 50q62 0 95 -44.5t33 -128.5v-344h-92v342q0 93 -64 93q-46 0 -73 -39zM97 725h74l33 -77h2l34 77h73l-76 -138h-64z" />
    <glyph glyph-name="napostrophe" unicode="&#x149;" horiz-adv-x="408" 
d="M139 396v-396h-92v508h80l3 -41h2q39 50 108 50q62 0 95 -44.5t33 -128.5v-344h-92v342q0 93 -64 93q-46 0 -73 -39zM19 658v66h95v-40q0 -55 -21.5 -78.5t-74.5 -27.5l-4 36q24 3 33 11.5t9 28.5z" />
    <glyph glyph-name="Eng" unicode="&#x14a;" horiz-adv-x="494" 
d="M147 0h-89v725h76l211 -469h2v469h89v-665q0 -184 -161 -187l-8 81q35 0 54 19.5t25 68.5l-197 440h-2v-482z" />
    <glyph glyph-name="eng" unicode="&#x14b;" horiz-adv-x="408" 
d="M212 -163l-6 71q37 6 53.5 33t16.5 84v317q0 93 -64 93q-46 0 -73 -39v-396h-92v508h80l3 -41h2q39 50 108 50q62 0 95 -44.5t33 -128.5v-318q0 -178 -156 -189z" />
    <glyph glyph-name="Omacron" unicode="&#x14c;" horiz-adv-x="473" 
d="M236 735q96 0 146 -57t50 -162v-306q0 -105 -50 -162.5t-146 -57.5q-95 0 -145 57.5t-50 162.5v305q0 105 50 162.5t145 57.5zM330 210v305q0 69 -22.5 99.5t-70.5 30.5q-49 0 -72 -31t-23 -99v-305q0 -69 23 -100.5t71 -31.5t71 31.5t23 100.5zM346 850v-62h-220v62h220
z" />
    <glyph glyph-name="omacron" unicode="&#x14d;" 
d="M356 349v-192q0 -74 -42 -120t-119 -46q-78 0 -119.5 45.5t-41.5 120.5v192q0 75 41.5 121.5t119.5 46.5t119.5 -46.5t41.5 -121.5zM125 346v-185q0 -94 70 -94q69 0 69 94v185q0 94 -69 94q-70 0 -70 -94zM299 686v-65h-210v65h210z" />
    <glyph glyph-name="Obreve" unicode="&#x14e;" horiz-adv-x="473" 
d="M236 735q96 0 146 -57t50 -162v-306q0 -105 -50 -162.5t-146 -57.5q-95 0 -145 57.5t-50 162.5v305q0 105 50 162.5t145 57.5zM330 210v305q0 69 -22.5 99.5t-70.5 30.5q-49 0 -72 -31t-23 -99v-305q0 -69 23 -100.5t71 -31.5t71 31.5t23 100.5zM127 871h67q2 -39 12 -53
t31 -14q20 0 30 14t13 53h66q-8 -67 -32.5 -92.5t-77.5 -25.5t-77 25.5t-32 92.5z" />
    <glyph glyph-name="obreve" unicode="&#x14f;" 
d="M356 349v-192q0 -74 -42 -120t-119 -46q-78 0 -119.5 45.5t-41.5 120.5v192q0 75 41.5 121.5t119.5 46.5t119.5 -46.5t41.5 -121.5zM125 346v-185q0 -94 70 -94q69 0 69 94v185q0 94 -69 94q-70 0 -70 -94zM85 725h67q2 -54 11.5 -73t30.5 -19t30.5 19t11.5 73h67
q-8 -85 -32 -115t-77 -30t-76.5 30t-32.5 115z" />
    <glyph glyph-name="Ohungarumlaut" unicode="&#x150;" horiz-adv-x="473" 
d="M236 735q96 0 146 -57t50 -162v-306q0 -105 -50 -162.5t-146 -57.5q-95 0 -145 57.5t-50 162.5v305q0 105 50 162.5t145 57.5zM330 210v305q0 69 -22.5 99.5t-70.5 30.5q-49 0 -72 -31t-23 -99v-305q0 -69 23 -100.5t71 -31.5t71 31.5t23 100.5zM182 871h90l-64 -113h-56
zM307 871h90l-81 -113h-57z" />
    <glyph glyph-name="ohungarumlaut" unicode="&#x151;" 
d="M356 349v-192q0 -74 -42 -120t-119 -46q-78 0 -119.5 45.5t-41.5 120.5v192q0 75 41.5 121.5t119.5 46.5t119.5 -46.5t41.5 -121.5zM125 346v-185q0 -94 70 -94q69 0 69 94v185q0 94 -69 94q-70 0 -70 -94zM140 725h89l-70 -138h-53zM265 725h89l-87 -138h-54z" />
    <glyph glyph-name="OE" unicode="&#x152;" horiz-adv-x="683" 
d="M330 725h319v-93h-217v-215h171v-83h-171v-242h228v-92h-330v46h-2q-36 -56 -116 -56q-79 0 -125 58.5t-46 161.5v305q0 103 46 161.5t125 58.5t116 -56h2v46zM330 210v305q0 69 -22.5 99.5t-71.5 30.5t-71.5 -30.5t-22.5 -99.5v-305q0 -70 22.5 -101t71.5 -31t71.5 31
t22.5 101z" />
    <glyph glyph-name="oe" unicode="&#x153;" horiz-adv-x="597" 
d="M568 238h-213v-83q0 -90 70 -90q60 0 80 83l65 -23q-35 -134 -151 -134q-74 0 -112 56q-38 -56 -119 -56q-73 0 -113.5 47.5t-40.5 117.5v195q0 71 40 119t113 48q83 0 122 -59q40 59 117 59q65 0 103.5 -49t38.5 -121v-110zM262 346q0 95 -68 95t-68 -95v-185
q0 -98 67 -98q69 0 69 98v185zM355 354v-54h129v55q0 87 -64 87q-65 0 -65 -88z" />
    <glyph glyph-name="Racute" unicode="&#x154;" horiz-adv-x="456" 
d="M337 0l-113 310h-65v-310h-101v725h181q174 0 174 -201q0 -158 -98 -192l129 -332h-107zM159 635v-243h74q44 0 61.5 29t17.5 96q0 66 -17.5 92t-60.5 26h-75zM203 871h112l-82 -113h-76z" />
    <glyph glyph-name="racute" unicode="&#x155;" horiz-adv-x="289" 
d="M277 504l-10 -91q-15 11 -39 11q-77 0 -89 -126v-298h-92v508h78l4 -78h2q31 86 100 86q27 0 46 -12zM166 725h102l-79 -138h-66z" />
    <glyph glyph-name="Rcommaaccent" unicode="&#x156;" horiz-adv-x="456" 
d="M337 0l-113 310h-65v-310h-101v725h181q174 0 174 -201q0 -158 -98 -192l129 -332h-107zM159 635v-243h74q44 0 61.5 29t17.5 96q0 66 -17.5 92t-60.5 26h-75zM191 -94v66h95v-40q0 -55 -21.5 -78.5t-74.5 -27.5l-4 36q24 3 33 11.5t9 28.5z" />
    <glyph glyph-name="rcommaaccent" unicode="&#x157;" horiz-adv-x="289" 
d="M277 504l-10 -91q-15 11 -39 11q-77 0 -89 -126v-298h-92v508h78l4 -78h2q31 86 100 86q27 0 46 -12zM47 -94v66h95v-40q0 -55 -21.5 -78.5t-74.5 -27.5l-4 36q24 3 33 11.5t9 28.5z" />
    <glyph glyph-name="Rcaron" unicode="&#x158;" horiz-adv-x="456" 
d="M337 0l-113 310h-65v-310h-101v725h181q174 0 174 -201q0 -158 -98 -192l129 -332h-107zM159 635v-243h74q44 0 61.5 29t17.5 96q0 66 -17.5 92t-60.5 26h-75zM105 871h75l32 -60h2l34 60h73l-76 -113h-64z" />
    <glyph glyph-name="rcaron" unicode="&#x159;" horiz-adv-x="289" 
d="M277 504l-10 -91q-15 11 -39 11q-77 0 -89 -126v-298h-92v508h78l4 -78h2q31 86 100 86q27 0 46 -12zM57 725h74l33 -77h2l34 77h73l-76 -138h-64z" />
    <glyph glyph-name="Sacute" unicode="&#x15a;" horiz-adv-x="397" 
d="M197 735q136 0 176 -152l-73 -28q-22 93 -96 93q-77 0 -77 -89q0 -35 18.5 -64.5t46 -49.5l60 -45.5t60 -51.5t46 -67.5t18.5 -92.5q0 -95 -47.5 -146.5t-129.5 -51.5q-68 0 -117.5 44t-63.5 124l80 25q22 -106 100 -106q81 0 81 97q0 38 -18.5 70t-46.5 53l-61 46.5
t-61 50.5t-46.5 66t-18.5 92q0 81 45.5 132t124.5 51zM206 871h112l-82 -113h-76z" />
    <glyph glyph-name="sacute" unicode="&#x15b;" horiz-adv-x="333" 
d="M310 397l-64 -21q-17 68 -71 68q-55 0 -55 -59q0 -27 20 -47.5t48 -36.5t56 -34t48 -51.5t20 -78.5q0 -64 -39.5 -105t-100.5 -41q-114 0 -145 121l64 25q20 -75 78 -75q56 0 56 67q0 25 -14.5 45t-36 32.5t-46.5 28.5t-46.5 32t-36 45.5t-14.5 66.5q0 60 37.5 99
t103.5 39q54 0 89.5 -31.5t48.5 -88.5zM178 725h102l-79 -138h-66z" />
    <glyph glyph-name="Scircumflex" unicode="&#x15c;" horiz-adv-x="397" 
d="M197 735q136 0 176 -152l-73 -28q-22 93 -96 93q-77 0 -77 -89q0 -35 18.5 -64.5t46 -49.5l60 -45.5t60 -51.5t46 -67.5t18.5 -92.5q0 -95 -47.5 -146.5t-129.5 -51.5q-68 0 -117.5 44t-63.5 124l80 25q22 -106 100 -106q81 0 81 97q0 38 -18.5 70t-46.5 53l-61 46.5
t-61 50.5t-46.5 66t-18.5 92q0 81 45.5 132t124.5 51zM176 758h-77l73 113h76l73 -113h-76l-35 59z" />
    <glyph glyph-name="scircumflex" unicode="&#x15d;" horiz-adv-x="333" 
d="M310 397l-64 -21q-17 68 -71 68q-55 0 -55 -59q0 -27 20 -47.5t48 -36.5t56 -34t48 -51.5t20 -78.5q0 -64 -39.5 -105t-100.5 -41q-114 0 -145 121l64 25q20 -75 78 -75q56 0 56 67q0 25 -14.5 45t-36 32.5t-46.5 28.5t-46.5 32t-36 45.5t-14.5 66.5q0 60 37.5 99
t103.5 39q54 0 89.5 -31.5t48.5 -88.5zM138 587h-74l76 138h64l76 -138h-73l-34 76h-2z" />
    <glyph glyph-name="Scedilla" unicode="&#x15e;" horiz-adv-x="397" 
d="M197 735q136 0 176 -152l-73 -28q-22 93 -96 93q-77 0 -77 -89q0 -35 18.5 -64.5t46 -49.5l60 -45.5t60 -51.5t46 -67.5t18.5 -92.5q0 -87 -40 -137.5t-111 -58.5l-4 -20q65 -12 65 -60q0 -32 -28.5 -54t-77.5 -26l-16 44q50 11 50 31q0 22 -55 26l12 59q-59 8 -100 51
t-53 115l80 25q22 -106 100 -106q81 0 81 97q0 38 -18.5 70t-46.5 53l-61 46.5t-61 50.5t-46.5 66t-18.5 92q0 81 45.5 132t124.5 51z" />
    <glyph glyph-name="scedilla" unicode="&#x15f;" horiz-adv-x="333" 
d="M310 397l-64 -21q-17 68 -71 68q-55 0 -55 -59q0 -27 20 -47.5t48 -36.5t56 -34t48 -51.5t20 -78.5q0 -58 -33.5 -98t-86.5 -46l-4 -21q65 -12 65 -60q0 -32 -28.5 -54t-77.5 -26l-16 44q50 11 50 31q0 22 -55 26l13 61q-86 16 -112 118l64 25q20 -75 78 -75q56 0 56 67
q0 25 -14.5 45t-36 32.5t-46.5 28.5t-46.5 32t-36 45.5t-14.5 66.5q0 60 37.5 99t103.5 39q54 0 89.5 -31.5t48.5 -88.5z" />
    <glyph glyph-name="Scaron" unicode="&#x160;" horiz-adv-x="397" 
d="M197 735q136 0 176 -152l-73 -28q-22 93 -96 93q-77 0 -77 -89q0 -35 18.5 -64.5t46 -49.5l60 -45.5t60 -51.5t46 -67.5t18.5 -92.5q0 -95 -47.5 -146.5t-129.5 -51.5q-68 0 -117.5 44t-63.5 124l80 25q22 -106 100 -106q81 0 81 97q0 38 -18.5 70t-46.5 53l-61 46.5
t-61 50.5t-46.5 66t-18.5 92q0 81 45.5 132t124.5 51zM99 871h75l32 -60h2l34 60h73l-76 -113h-64z" />
    <glyph glyph-name="scaron" unicode="&#x161;" horiz-adv-x="333" 
d="M310 397l-64 -21q-17 68 -71 68q-55 0 -55 -59q0 -27 20 -47.5t48 -36.5t56 -34t48 -51.5t20 -78.5q0 -64 -39.5 -105t-100.5 -41q-114 0 -145 121l64 25q20 -75 78 -75q56 0 56 67q0 25 -14.5 45t-36 32.5t-46.5 28.5t-46.5 32t-36 45.5t-14.5 66.5q0 60 37.5 99
t103.5 39q54 0 89.5 -31.5t48.5 -88.5zM64 725h74l33 -77h2l34 77h73l-76 -138h-64z" />
    <glyph glyph-name="Tcommaaccent" unicode="&#x162;" horiz-adv-x="385" 
d="M11 725h363v-94h-131v-631h-23l-5 -28q65 -12 65 -60q0 -32 -28.5 -54t-77.5 -26l-16 44q50 11 50 31q0 22 -55 26l14 67h-25v631h-131v94z" />
    <glyph glyph-name="tcommaaccent" unicode="&#x163;" horiz-adv-x="272" 
d="M250 508v-75h-95v-306q0 -61 51 -61q18 0 36 8l10 -60q-32 -21 -76 -22l-3 -20q65 -12 65 -60q0 -32 -28.5 -54t-77.5 -26l-16 44q50 11 50 31q0 22 -55 26l14 67q-62 25 -62 130v298l-52 13v65l57 4l23 138h64v-140h95z" />
    <glyph glyph-name="Tcaron" unicode="&#x164;" horiz-adv-x="385" 
d="M11 725h363v-94h-131v-631h-101v631h-131v94zM85 871h75l32 -60h2l34 60h73l-76 -113h-64z" />
    <glyph glyph-name="tcaron" unicode="&#x165;" horiz-adv-x="272" 
d="M250 508v-75h-95v-306q0 -61 51 -61q18 0 36 8l10 -60q-36 -22 -79 -22q-110 0 -110 138v298l-52 13v65l57 4l23 138h64v-140h95zM220 725h78l-46 -139h-50z" />
    <glyph glyph-name="Tbar" unicode="&#x166;" horiz-adv-x="385" 
d="M11 725h363v-94h-131v-199h78v-65h-78v-367h-101v367h-79v65h79v199h-131v94z" />
    <glyph glyph-name="tbar" unicode="&#x167;" horiz-adv-x="272" 
d="M250 508v-75h-95v-55h96v-66h-96v-185q0 -61 51 -61q18 0 36 8l10 -60q-36 -22 -79 -22q-110 0 -110 138v182h-48v66h48v50l-52 13v65l57 4l23 138h64v-140h95z" />
    <glyph glyph-name="Utilde" unicode="&#x168;" horiz-adv-x="491" 
d="M340 725h101v-520q0 -104 -50 -159.5t-145 -55.5q-94 0 -145 54.5t-51 156.5v524h102v-525q0 -115 94 -115t94 115v525zM322 873l47 -7q-6 -58 -23.5 -86.5t-52.5 -28.5q-26 0 -54 29.5t-37 29.5q-21 0 -28 -54l-48 6q6 59 23.5 87t52.5 28q21 0 39 -14.5t31 -29.5
t22 -15q21 0 28 55z" />
    <glyph glyph-name="utilde" unicode="&#x169;" horiz-adv-x="408" 
d="M269 110v398h92v-508h-80l-4 39h-2q-39 -48 -108 -48q-60 0 -93.5 45t-33.5 128v344h91v-345q0 -92 65 -92q45 0 73 39zM279 726l48 -9q-6 -69 -23.5 -102t-53.5 -33q-18 0 -33 12.5t-23.5 27.5t-18 27.5t-17.5 12.5q-19 0 -27 -73l-48 8q6 70 23.5 102.5t53.5 32.5
q22 0 40 -20t30.5 -40t22.5 -20q18 0 26 74z" />
    <glyph glyph-name="Umacron" unicode="&#x16a;" horiz-adv-x="491" 
d="M340 725h101v-520q0 -104 -50 -159.5t-145 -55.5q-94 0 -145 54.5t-51 156.5v524h102v-525q0 -115 94 -115t94 115v525zM356 850v-62h-220v62h220z" />
    <glyph glyph-name="umacron" unicode="&#x16b;" horiz-adv-x="408" 
d="M269 110v398h92v-508h-80l-4 39h-2q-39 -48 -108 -48q-60 0 -93.5 45t-33.5 128v344h91v-345q0 -92 65 -92q45 0 73 39zM309 686v-65h-210v65h210z" />
    <glyph glyph-name="Ubreve" unicode="&#x16c;" horiz-adv-x="491" 
d="M340 725h101v-520q0 -104 -50 -159.5t-145 -55.5q-94 0 -145 54.5t-51 156.5v524h102v-525q0 -115 94 -115t94 115v525zM137 871h67q2 -39 12 -53t31 -14q20 0 30 14t13 53h66q-8 -67 -32.5 -92.5t-77.5 -25.5t-77 25.5t-32 92.5z" />
    <glyph glyph-name="ubreve" unicode="&#x16d;" horiz-adv-x="408" 
d="M269 110v398h92v-508h-80l-4 39h-2q-39 -48 -108 -48q-60 0 -93.5 45t-33.5 128v344h91v-345q0 -92 65 -92q45 0 73 39zM95 725h67q2 -54 11.5 -73t30.5 -19t30.5 19t11.5 73h67q-8 -85 -32 -115t-77 -30t-76.5 30t-32.5 115z" />
    <glyph glyph-name="Uring" unicode="&#x16e;" horiz-adv-x="491" 
d="M340 725h101v-520q0 -104 -50 -159.5t-145 -55.5q-94 0 -145 54.5t-51 156.5v524h102v-525q0 -115 94 -115t94 115v525zM166 817q0 32 23 52t58 20t58 -20t23 -52t-22.5 -51.5t-58.5 -19.5t-58.5 19.5t-22.5 51.5zM221 817q0 -28 26 -28q12 0 19.5 8t7.5 20t-7.5 20.5
t-19.5 8.5q-26 0 -26 -29z" />
    <glyph glyph-name="uring" unicode="&#x16f;" horiz-adv-x="408" 
d="M269 110v398h92v-508h-80l-4 39h-2q-39 -48 -108 -48q-60 0 -93.5 45t-33.5 128v344h91v-345q0 -92 65 -92q45 0 73 39zM122 660q0 35 22.5 56.5t58.5 21.5t58.5 -21.5t22.5 -56.5t-22.5 -56.5t-58.5 -21.5t-58.5 21.5t-22.5 56.5zM176 660q0 -31 27 -31t27 31t-27 31
t-27 -31z" />
    <glyph glyph-name="Uhungarumlaut" unicode="&#x170;" horiz-adv-x="491" 
d="M340 725h101v-520q0 -104 -50 -159.5t-145 -55.5q-94 0 -145 54.5t-51 156.5v524h102v-525q0 -115 94 -115t94 115v525zM183 871h90l-64 -113h-56zM308 871h90l-81 -113h-57z" />
    <glyph glyph-name="uhungarumlaut" unicode="&#x171;" horiz-adv-x="408" 
d="M269 110v398h92v-508h-80l-4 39h-2q-39 -48 -108 -48q-60 0 -93.5 45t-33.5 128v344h91v-345q0 -92 65 -92q45 0 73 39zM147 725h89l-70 -138h-53zM272 725h89l-87 -138h-54z" />
    <glyph glyph-name="Uogonek" unicode="&#x172;" horiz-adv-x="491" 
d="M340 725h101v-520q0 -88 -36 -141t-98 -67q-24 -5 -38.5 -23t-14.5 -44q0 -33 33 -33q27 0 49 16l18 -51q-33 -28 -83 -28q-90 0 -90 74q0 50 49 82v2q-86 3 -133 57.5t-47 151.5v524h102v-525q0 -115 94 -115t94 115v525z" />
    <glyph glyph-name="uogonek" unicode="&#x173;" horiz-adv-x="408" 
d="M269 110v398h92v-508h-6q-23 0 -37.5 -19.5t-14.5 -41.5q0 -42 38 -42q23 0 46 16l17 -51q-33 -28 -83 -28q-45 0 -68 20.5t-23 55.5q0 59 54 88v2h-3l-4 39h-2q-39 -48 -108 -48q-60 0 -93.5 45t-33.5 128v344h91v-345q0 -92 65 -92q45 0 73 39z" />
    <glyph glyph-name="Wcircumflex" unicode="&#x174;" horiz-adv-x="725" 
d="M707 725l-136 -725h-112l-95 532h-2l-96 -532h-113l-134 725h102l91 -582h2l102 582h95l100 -584h2l93 584h101zM329 758h-77l73 113h76l73 -113h-76l-35 59z" />
    <glyph glyph-name="wcircumflex" unicode="&#x175;" horiz-adv-x="587" 
d="M365 0l-71 377h-2l-70 -377h-101l-109 508h95l66 -404h2l76 404h85l75 -406h2l67 406h95l-109 -508h-101zM260 587h-74l76 138h64l76 -138h-73l-34 76h-2z" />
    <glyph glyph-name="Ycircumflex" unicode="&#x176;" horiz-adv-x="449" 
d="M445 725l-170 -492v-233h-101v233l-170 492h111l109 -381h2l109 381h110zM191 758h-77l73 113h76l73 -113h-76l-35 59z" />
    <glyph glyph-name="ycircumflex" unicode="&#x177;" horiz-adv-x="400" 
d="M390 508l-147 -522q-22 -77 -59.5 -111t-101.5 -37l-7 71q36 5 56 23t30 57l6 24l-157 495h101l99 -381h2l84 381h94zM176 587h-74l76 138h64l76 -138h-73l-34 76h-2z" />
    <glyph glyph-name="Ydieresis" unicode="&#x178;" horiz-adv-x="449" 
d="M445 725l-170 -492v-233h-101v233l-170 492h111l109 -381h2l109 381h110zM123 871h69v-104h-69v104zM258 871h70v-104h-70v104z" />
    <glyph glyph-name="Zacute" unicode="&#x179;" horiz-adv-x="414" 
d="M382 92v-92h-355v63l246 569h-232v93h342v-63l-244 -570h243zM213 871h112l-82 -113h-76z" />
    <glyph glyph-name="zacute" unicode="&#x17a;" horiz-adv-x="336" 
d="M307 79v-79h-281v56l178 372h-169v80h275v-54l-180 -375h177zM177 725h102l-79 -138h-66z" />
    <glyph glyph-name="Zdotaccent" unicode="&#x17b;" horiz-adv-x="414" 
d="M382 92v-92h-355v63l246 569h-232v93h342v-63l-244 -570h243zM170 871h91v-104h-91v104z" />
    <glyph glyph-name="zdotaccent" unicode="&#x17c;" horiz-adv-x="336" 
d="M307 79v-79h-281v56l178 372h-169v80h275v-54l-180 -375h177zM132 725h86v-116h-86v116z" />
    <glyph glyph-name="Zcaron" unicode="&#x17d;" horiz-adv-x="414" 
d="M382 92v-92h-355v63l246 569h-232v93h342v-63l-244 -570h243zM106 871h75l32 -60h2l34 60h73l-76 -113h-64z" />
    <glyph glyph-name="zcaron" unicode="&#x17e;" horiz-adv-x="336" 
d="M307 79v-79h-281v56l178 372h-169v80h275v-54l-180 -375h177zM68 725h74l33 -77h2l34 77h73l-76 -138h-64z" />
    <glyph glyph-name="longs" unicode="&#x17f;" horiz-adv-x="237" 
d="M257 729l5 -71q-48 -2 -68 -28t-20 -77v-553h-92v434h-70v73h70v48q0 78 42.5 124.5t132.5 49.5z" />
    <glyph glyph-name="uni018F" unicode="&#x18f;" horiz-adv-x="453" 
d="M34 207v174h277v145q0 121 -98 121q-38 0 -63 -22.5t-36 -77.5l-78 23q29 165 182 165q92 0 143 -58.5t51 -154.5v-310q0 -106 -47.5 -164t-146.5 -58q-93 0 -138.5 58.5t-45.5 158.5zM217 77q94 0 94 130v100h-186v-104q0 -126 92 -126z" />
    <glyph glyph-name="florin" unicode="&#x192;" horiz-adv-x="279" 
d="M273 508l-12 -71h-91l-81 -500h-91l80 500h-48l12 71h47l8 47q13 78 63.5 124.5t141.5 49.5l-7 -71q-94 -4 -110 -105l-7 -45h95z" />
    <glyph glyph-name="uni01B5" unicode="&#x1b5;" horiz-adv-x="414" 
d="M51 337v79h128l94 216h-232v93h342v-63l-106 -246h94v-79h-128l-104 -245h243v-92h-355v63l118 274h-94z" />
    <glyph glyph-name="uni01B6" unicode="&#x1b6;" horiz-adv-x="336" 
d="M41 232v67h101l62 129h-169v80h275v-54l-75 -155h70v-67h-102l-73 -153h177v-79h-281v56l84 176h-69z" />
    <glyph glyph-name="Aringacute" unicode="&#x1fa;" horiz-adv-x="478" 
d="M245 918h112l-67 -92q30 -19 30 -57q0 -31 -21 -50l170 -719h-104l-36 178h-182l-36 -178h-102l169 719q-20 18 -20 50q0 25 14.5 43t39.5 25zM237 623l-73 -365h148l-73 365h-2zM213 769q0 -28 26 -28q12 0 19.5 8t7.5 20t-7.5 20.5t-19.5 8.5q-26 0 -26 -29z" />
    <glyph glyph-name="aringacute" unicode="&#x1fb;" horiz-adv-x="374" 
d="M102 369l-62 28q43 121 148 121q69 0 102 -42.5t33 -116.5v-264q0 -35 30 -35h11v-59q-21 -7 -43 -7q-51 0 -75 40q-39 -42 -101 -42q-54 0 -86 38t-32 101q0 74 43 118.5t136 44.5h25v66q0 43 -13.5 62t-41.5 19q-49 0 -74 -72zM167 61q40 0 64 36v129h-25
q-49 0 -70 -22t-21 -65q0 -78 52 -78zM106 629q0 35 22.5 56.5t58.5 21.5t58.5 -21.5t22.5 -56.5t-22.5 -56.5t-58.5 -21.5t-58.5 21.5t-22.5 56.5zM160 629q0 -31 27 -31t27 31t-27 31t-27 -31zM195 882h102l-79 -138h-66z" />
    <glyph glyph-name="AEacute" unicode="&#x1fc;" horiz-adv-x="666" 
d="M173 181l-60 -181h-102l252 725h371v-93h-220l16 -215h173v-83h-166l19 -242h187v-92h-282l-13 181h-175zM315 614l-116 -353h143l-25 353h-2zM409 871h112l-82 -113h-76z" />
    <glyph glyph-name="aeacute" unicode="&#x1fd;" horiz-adv-x="574" 
d="M545 236h-209v-81q0 -90 68 -90q58 0 78 83l65 -23q-37 -134 -151 -134q-81 0 -116 65q-40 -65 -129 -65q-57 0 -90.5 38.5t-33.5 101.5q0 75 45.5 120.5t142.5 45.5h28v68q0 73 -60 73q-54 0 -73 -73l-66 28q16 56 54.5 90.5t89.5 34.5q72 0 105 -51q38 51 108 51
q67 0 105.5 -48.5t38.5 -121.5v-112zM171 63q23 0 43 12.5t29 36.5v117h-29q-98 0 -98 -92q0 -74 55 -74zM336 354v-57h125v58q0 87 -63 87q-33 0 -47.5 -21t-14.5 -67zM307 725h102l-79 -138h-66z" />
    <glyph glyph-name="Oslashacute" unicode="&#x1fe;" horiz-adv-x="473" 
d="M236 735q97 0 148 -60l29 51l35 -26l-38 -67q22 -47 22 -117v-306q0 -105 -50 -162.5t-146 -57.5q-101 0 -150 63l-26 -47l-35 26l36 64q-20 48 -20 114v305q0 105 50 162.5t145 57.5zM330 210v279h-2l-183 -330q14 -81 91 -81q48 0 71 31.5t23 100.5zM142 515v-274h2
l181 328q-14 76 -88 76q-49 0 -72 -31t-23 -99zM239 871h112l-82 -113h-76z" />
    <glyph glyph-name="oslashacute" unicode="&#x1ff;" 
d="M356 349v-192q0 -74 -42 -120t-119 -46t-119 45l-20 -30l-34 26l28 43q-16 35 -16 82v192q0 75 41.5 121.5t119.5 46.5q75 0 118 -45l22 34l36 -25l-32 -48q17 -39 17 -84zM195 67q69 0 69 94v158h-2l-132 -202q13 -50 65 -50zM125 346v-158h2l132 203q-13 49 -64 49
q-70 0 -70 -94zM200 725h102l-79 -138h-66z" />
    <glyph glyph-name="Scommaaccent" unicode="&#x218;" horiz-adv-x="397" 
d="M197 735q136 0 176 -152l-73 -28q-22 93 -96 93q-77 0 -77 -89q0 -35 18.5 -64.5t46 -49.5l60 -45.5t60 -51.5t46 -67.5t18.5 -92.5q0 -95 -47.5 -146.5t-129.5 -51.5q-68 0 -117.5 44t-63.5 124l80 25q22 -106 100 -106q81 0 81 97q0 38 -18.5 70t-46.5 53l-61 46.5
t-61 50.5t-46.5 66t-18.5 92q0 81 45.5 132t124.5 51zM156 -94v66h95v-40q0 -55 -21.5 -78.5t-74.5 -27.5l-4 36q24 3 33 11.5t9 28.5z" />
    <glyph glyph-name="scommaaccent" unicode="&#x219;" horiz-adv-x="333" 
d="M310 397l-64 -21q-17 68 -71 68q-55 0 -55 -59q0 -27 20 -47.5t48 -36.5t56 -34t48 -51.5t20 -78.5q0 -64 -39.5 -105t-100.5 -41q-114 0 -145 121l64 25q20 -75 78 -75q56 0 56 67q0 25 -14.5 45t-36 32.5t-46.5 28.5t-46.5 32t-36 45.5t-14.5 66.5q0 60 37.5 99
t103.5 39q54 0 89.5 -31.5t48.5 -88.5zM123 -94v66h95v-40q0 -55 -21.5 -78.5t-74.5 -27.5l-4 36q24 3 33 11.5t9 28.5z" />
    <glyph glyph-name="uni021A" unicode="&#x21a;" horiz-adv-x="385" 
d="M11 725h363v-94h-131v-631h-101v631h-131v94zM145 -94v66h95v-40q0 -55 -21.5 -78.5t-74.5 -27.5l-4 36q24 3 33 11.5t9 28.5z" />
    <glyph glyph-name="uni021B" unicode="&#x21b;" horiz-adv-x="272" 
d="M250 508v-75h-95v-306q0 -61 51 -61q18 0 36 8l10 -60q-36 -22 -79 -22q-110 0 -110 138v298l-52 13v65l57 4l23 138h64v-140h95zM117 -94v66h95v-40q0 -55 -21.5 -78.5t-74.5 -27.5l-4 36q24 3 33 11.5t9 28.5z" />
    <glyph glyph-name="uni0237" unicode="&#x237;" horiz-adv-x="187" 
d="M-10 -163l-7 75q37 6 54 31.5t17 80.5v484h92v-483q0 -177 -156 -188z" />
    <glyph glyph-name="uni0259" unicode="&#x259;" horiz-adv-x="370" 
d="M27 265h216v81q0 95 -73 95q-29 0 -46.5 -18t-29.5 -61l-69 22q17 68 54 100.5t100 32.5q74 0 115 -46.5t41 -121.5v-190q0 -74 -40.5 -121t-115.5 -47q-72 0 -112 48t-40 123v103zM177 66q66 0 66 88v49h-133v-49q0 -88 67 -88z" />
    <glyph glyph-name="uni02BB" unicode="&#x2bb;" horiz-adv-x="170" 
d="M132 692v-106h-94v81q0 85 48 156l34 -16q-22 -46 -24 -109z" />
    <glyph glyph-name="afii57929" unicode="&#x2bc;" horiz-adv-x="170" 
d="M39 638v106h93v-80q0 -88 -47 -157l-35 16q24 52 25 109z" />
    <glyph glyph-name="circumflex" unicode="&#x2c6;" horiz-adv-x="218" 
d="M75 587h-74l76 138h64l76 -138h-73l-34 76h-2z" />
    <glyph glyph-name="caron" unicode="&#x2c7;" horiz-adv-x="218" 
d="M1 725h74l33 -77h2l34 77h73l-76 -138h-64z" />
    <glyph glyph-name="uni02C9" unicode="&#x2c9;" horiz-adv-x="218" 
d="M214 686v-65h-210v65h210z" />
    <glyph glyph-name="breve" unicode="&#x2d8;" horiz-adv-x="218" 
d="M0 725h67q2 -54 11.5 -73t30.5 -19t30.5 19t11.5 73h67q-8 -85 -32 -115t-77 -30t-76.5 30t-32.5 115z" />
    <glyph glyph-name="dotaccent" unicode="&#x2d9;" horiz-adv-x="218" 
d="M45 725h86v-116h-86v116z" />
    <glyph glyph-name="ring" unicode="&#x2da;" horiz-adv-x="218" 
d="M28 660q0 35 22.5 56.5t58.5 21.5t58.5 -21.5t22.5 -56.5t-22.5 -56.5t-58.5 -21.5t-58.5 21.5t-22.5 56.5zM82 660q0 -31 27 -31t27 31t-27 31t-27 -31z" />
    <glyph glyph-name="ogonek" unicode="&#x2db;" horiz-adv-x="218" 
d="M119 11l39 -7q-27 -10 -42 -30.5t-15 -43.5q0 -33 33 -33q27 0 49 16l18 -51q-33 -28 -83 -28q-90 0 -90 74q0 70 91 103z" />
    <glyph glyph-name="tilde" unicode="&#x2dc;" horiz-adv-x="218" 
d="M183 726l48 -9q-6 -69 -23.5 -102t-53.5 -33q-18 0 -33 12.5t-23.5 27.5t-18 27.5t-17.5 12.5q-19 0 -27 -73l-48 8q6 70 23.5 102.5t53.5 32.5q22 0 40 -20t30.5 -40t22.5 -20q18 0 26 74z" />
    <glyph glyph-name="hungarumlaut" unicode="&#x2dd;" horiz-adv-x="218" 
d="M61 725h89l-70 -138h-53zM186 725h89l-87 -138h-54z" />
    <glyph glyph-name="gravecomb" unicode="&#x300;" horiz-adv-x="0" 
d="M-221 725h102l53 -138h-67z" />
    <glyph glyph-name="acutecomb" unicode="&#x301;" horiz-adv-x="0" 
d="M-129 725h102l-79 -138h-66z" />
    <glyph glyph-name="uni0302" unicode="&#x302;" horiz-adv-x="0" 
d="M-132 587h-74l76 138h64l76 -138h-73l-34 76h-2z" />
    <glyph glyph-name="tildecomb" unicode="&#x303;" horiz-adv-x="0" 
d="M-40 726l48 -9q-6 -69 -23.5 -102t-53.5 -33q-18 0 -33 12.5t-23.5 27.5t-18 27.5t-17.5 12.5q-19 0 -27 -73l-48 8q6 70 23.5 102.5t53.5 32.5q22 0 40 -20t30.5 -40t22.5 -20q18 0 26 74z" />
    <glyph glyph-name="uni0304" unicode="&#x304;" horiz-adv-x="0" 
d="M-4 686v-65h-210v65h210z" />
    <glyph glyph-name="uni0306" unicode="&#x306;" horiz-adv-x="0" 
d="M-219 725h67q2 -54 11.5 -73t30.5 -19t30.5 19t11.5 73h67q-8 -85 -32 -115t-77 -30t-76.5 30t-32.5 115z" />
    <glyph glyph-name="uni0307" unicode="&#x307;" horiz-adv-x="0" 
d="M-134 725h86v-116h-86v116z" />
    <glyph glyph-name="uni0308" unicode="&#x308;" horiz-adv-x="0" 
d="M-201 725h68v-116h-68v116zM-82 725h67v-116h-67v116z" />
    <glyph glyph-name="uni030A" unicode="&#x30a;" horiz-adv-x="0" 
d="M-193 660q0 35 22.5 56.5t58.5 21.5t58.5 -21.5t22.5 -56.5t-22.5 -56.5t-58.5 -21.5t-58.5 21.5t-22.5 56.5zM-139 660q0 -31 27 -31t27 31t-27 31t-27 -31z" />
    <glyph glyph-name="uni030B" unicode="&#x30b;" horiz-adv-x="0" 
d="M-157 725h89l-70 -138h-53zM-32 725h89l-87 -138h-54z" />
    <glyph glyph-name="uni030C" unicode="&#x30c;" horiz-adv-x="0" 
d="M-218 725h74l33 -77h2l34 77h73l-76 -138h-64z" />
    <glyph glyph-name="uni0312" unicode="&#x312;" horiz-adv-x="0" 
d="M-130 575h-101l58 150h66z" />
    <glyph glyph-name="uni0315" unicode="&#x315;" horiz-adv-x="0" 
d="M80 725h102l-62 -148h-65z" />
    <glyph glyph-name="uni0326" unicode="&#x326;" horiz-adv-x="0" 
d="M-238 -95v67h95v-40q0 -55 -21.5 -78.5t-74.5 -27.5l-4 36q24 3 33 11.5t9 28.5z" />
    <glyph glyph-name="uni0327" unicode="&#x327;" horiz-adv-x="0" 
d="M-117 19l52 -3l-8 -44q65 -12 65 -60q0 -32 -28.5 -54t-77.5 -26l-16 44q50 11 50 31q0 22 -55 26z" />
    <glyph glyph-name="uni0328" unicode="&#x328;" horiz-adv-x="0" 
d="M-89 11l39 -7q-27 -10 -42 -30.5t-15 -43.5q0 -33 33 -33q27 0 49 16l18 -51q-33 -28 -83 -28q-90 0 -90 74q0 70 91 103z" />
    <glyph glyph-name="uni0335" unicode="&#x335;" horiz-adv-x="1" 
d="M-3 288v-65h-210v65h210z" />
    <glyph glyph-name="uni0336" unicode="&#x336;" horiz-adv-x="1" 
d="M-469 218v75h450v-75h-450z" />
    <glyph glyph-name="uni0394" unicode="&#x394;" horiz-adv-x="478" 
d="M9 0l186 725h89l185 -725h-460zM239 588l-111 -500h220l-107 500h-2z" />
    <glyph glyph-name="uni03A9" unicode="&#x3a9;" horiz-adv-x="473" 
d="M236 735q97 0 146.5 -51.5t49.5 -152.5v-170q0 -134 -100 -171v-101h98v-89h-170v248q37 8 53.5 33t16.5 78v170q0 115 -94 115t-94 -115v-170q0 -52 16.5 -77.5t54.5 -33.5v-248h-170v89h97v101q-99 39 -99 171v170q0 204 195 204z" />
    <glyph glyph-name="uni03BC" unicode="&#x3bc;" horiz-adv-x="415" 
d="M47 173v335h92v-334q0 -93 66 -93q46 0 71 38v389h92v-508h-80l-4 41h-2q-29 -38 -75 -38q-50 0 -73 42h-2q8 -141 16 -198l-92 -8q-9 149 -9 334z" />
    <glyph glyph-name="pi" unicode="&#x3c0;" horiz-adv-x="409" 
d="M355 0h-92v431h-117v-342q0 -44 -25.5 -69.5t-67.5 -25.5q-22 0 -43 7v59h11q33 0 33 39v329h-40v80h380v-80h-39v-428z" />
    <glyph glyph-name="uni0400" unicode="&#x400;" horiz-adv-x="410" 
d="M58 725h318v-93h-217v-215h171v-83h-171v-242h228v-92h-329v725zM101 871h112l54 -113h-76z" />
    <glyph glyph-name="afii10023" unicode="&#x401;" horiz-adv-x="410" 
d="M58 725h318v-93h-217v-215h171v-83h-171v-242h228v-92h-329v725zM117 871h69v-104h-69v104zM252 871h70v-104h-70v104z" />
    <glyph glyph-name="afii10051" unicode="&#x402;" horiz-adv-x="480" 
d="M211 372v-372h-92v637h-110v88h321v-88h-119v-174h2q37 49 100 49q127 0 127 -175v-312q0 -177 -156 -188l-6 71q37 6 53.5 32.5t16.5 83.5v311q0 93 -64 93q-53 0 -73 -56z" />
    <glyph glyph-name="afii10052" unicode="&#x403;" horiz-adv-x="359" 
d="M58 725h290v-93h-191v-632h-99v725zM196 871h112l-82 -113h-76z" />
    <glyph glyph-name="afii10053" unicode="&#x404;" horiz-adv-x="425" 
d="M398 574l-74 -24q-23 98 -95 98q-45 0 -65.5 -30.5t-20.5 -93.5v-107h159v-88h-159v-135q0 -58 21.5 -89t63.5 -31q74 0 95 107l77 -24q-33 -167 -182 -167q-81 0 -129 57.5t-48 151.5v323q0 99 48 156t132 57q68 0 114 -42.5t63 -118.5z" />
    <glyph glyph-name="afii10054" unicode="&#x405;" horiz-adv-x="397" 
d="M197 735q136 0 176 -152l-73 -28q-22 93 -96 93q-77 0 -77 -89q0 -35 18.5 -64.5t46 -49.5l60 -45.5t60 -51.5t46 -67.5t18.5 -92.5q0 -95 -47.5 -146.5t-129.5 -51.5q-68 0 -117.5 44t-63.5 124l80 25q22 -106 100 -106q81 0 81 97q0 38 -18.5 70t-46.5 53l-61 46.5
t-61 50.5t-46.5 66t-18.5 92q0 81 45.5 132t124.5 51z" />
    <glyph glyph-name="afii10055" unicode="&#x406;" horiz-adv-x="240" 
d="M69 725h101v-725h-101v725z" />
    <glyph glyph-name="afii10056" unicode="&#x407;" horiz-adv-x="240" 
d="M69 725h101v-725h-101v725zM19 871h69v-104h-69v104zM154 871h70v-104h-70v104z" />
    <glyph glyph-name="afii10057" unicode="&#x408;" horiz-adv-x="232" 
d="M73 725h102v-616q0 -237 -214 -242l-8 85q62 0 91 36t29 118v619z" />
    <glyph glyph-name="afii10058" unicode="&#x409;" horiz-adv-x="720" 
d="M113 725h324v-296h83q94 0 134 -51.5t40 -158.5q0 -112 -40.5 -165.5t-140.5 -53.5h-178v635h-128l-10 -272q-6 -152 -26 -234.5t-48.5 -108t-76.5 -25.5q-21 0 -43 6v70h14q28 0 43 20.5t25.5 85t14.5 191.5zM437 90h73q47 0 66 27t19 102q0 70 -19.5 96.5t-67.5 26.5
h-71v-252z" />
    <glyph glyph-name="afii10059" unicode="&#x40a;" horiz-adv-x="720" 
d="M58 725h101v-290h176v290h101v-296h83q94 0 134 -51.5t40 -158.5q0 -112 -40.5 -165.5t-140.5 -53.5h-177v340h-176v-340h-101v725zM436 90h73q47 0 66 27t19 102q0 70 -19.5 96.5t-67.5 26.5h-71v-252z" />
    <glyph glyph-name="afii10060" unicode="&#x40b;" horiz-adv-x="480" 
d="M211 372v-372h-92v637h-110v88h321v-88h-119v-174h2q37 49 100 49q127 0 127 -175v-337h-92v335q0 93 -64 93q-53 0 -73 -56z" />
    <glyph glyph-name="afii10061" unicode="&#x40c;" horiz-adv-x="484" 
d="M454 725v-74h-18q-38 0 -56 -54l-53 -153q-16 -46 -54 -65v-2q47 -18 62 -65l62 -192q15 -49 59 -49h16v-70q-22 -6 -49 -6q-91 0 -123 101l-65 200q-13 39 -56 39h-23v-335h-98v725h98v-309h23q40 0 53 40l60 175q34 99 119 99q15 0 43 -5zM242 871h112l-82 -113h-76z
" />
    <glyph glyph-name="uni040D" unicode="&#x40d;" horiz-adv-x="501" 
d="M349 725h95v-725h-95v521h-2l-194 -521h-95v725h95v-521h2zM132 871h112l54 -113h-76z" />
    <glyph glyph-name="afii10062" unicode="&#x40e;" horiz-adv-x="449" 
d="M4 725h113l122 -386h2l97 386h107l-173 -590q-41 -138 -182 -138l-5 84q76 7 92 72l16 63zM120 871h67q2 -39 12 -53t31 -14q20 0 30 14t13 53h66q-8 -67 -32.5 -92.5t-77.5 -25.5t-77 25.5t-32 92.5z" />
    <glyph glyph-name="afii10145" unicode="&#x40f;" horiz-adv-x="487" 
d="M429 0h-134v-151h-96v151h-141v725h101v-634h169v634h101v-725z" />
    <glyph glyph-name="afii10017" unicode="&#x410;" horiz-adv-x="478" 
d="M147 178l-36 -178h-102l171 725h118l171 -725h-104l-36 178h-182zM237 623l-73 -365h148l-73 365h-2z" />
    <glyph glyph-name="afii10018" unicode="&#x411;" horiz-adv-x="446" 
d="M58 725h332v-92h-231v-203h82q95 0 135 -52t40 -159q0 -112 -41 -165.5t-140 -53.5h-177v725zM159 90h73q46 0 65.5 27.5t19.5 101.5q0 70 -19.5 96t-66.5 26h-72v-251z" />
    <glyph glyph-name="afii10019" unicode="&#x412;" horiz-adv-x="460" 
d="M405 539q0 -127 -81 -158v-2q105 -28 105 -170q0 -106 -41 -157.5t-140 -51.5h-190v725h168q90 0 134.5 -49t44.5 -137zM157 333v-243h87q46 0 65.5 26.5t19.5 97.5q0 67 -20 93t-64 26h-88zM157 634v-220h73q45 0 62.5 27t17.5 87q0 58 -18 82t-62 24h-73z" />
    <glyph glyph-name="afii10020" unicode="&#x413;" horiz-adv-x="359" 
d="M58 725h290v-93h-191v-632h-99v725z" />
    <glyph glyph-name="afii10021" unicode="&#x414;" horiz-adv-x="503" 
d="M119 725h312v-642h65v-230h-102v147h-296v-147h-99v230h55q43 154 53 365zM331 635h-123l-8 -192q-9 -209 -51 -360h182v552z" />
    <glyph glyph-name="afii10022" unicode="&#x415;" horiz-adv-x="410" 
d="M58 725h318v-93h-217v-215h171v-83h-171v-242h228v-92h-329v725z" />
    <glyph glyph-name="afii10024" unicode="&#x416;" horiz-adv-x="688" 
d="M27 651v73q22 6 45 6q73 0 103 -97l54 -177q12 -40 45 -40h21v309h98v-309h21q33 0 45 40l54 177q30 97 103 97q23 0 45 -6v-73h-16q-19 0 -30 -13t-20 -41l-46 -154q-13 -44 -49 -65v-2q44 -17 58 -63l55 -193q14 -49 50 -49h15v-70q-20 -6 -43 -6q-87 0 -116 98
l-58 203q-11 39 -49 39h-19v-335h-98v335h-20q-37 0 -48 -39l-58 -203q-29 -98 -116 -98q-23 0 -43 6v70h14q37 0 51 49l55 193q12 45 57 64v2q-35 20 -48 64l-46 154q-16 54 -50 54h-16z" />
    <glyph glyph-name="afii10025" unicode="&#x417;" horiz-adv-x="417" 
d="M137 329v87h49q91 0 91 86v62q0 42 -21 64t-58 22q-36 0 -59.5 -23t-36.5 -77l-77 24q17 77 65 119t119 42q78 0 122 -46t44 -120v-60q0 -100 -76 -131v-2q87 -23 87 -132v-81q0 -78 -48 -125.5t-130 -47.5q-150 0 -184 168l76 23q13 -58 37.5 -83t62.5 -25q85 0 85 94
v76q0 48 -24 67t-71 19h-53z" />
    <glyph glyph-name="afii10026" unicode="&#x418;" horiz-adv-x="501" 
d="M349 725h95v-725h-95v521h-2l-194 -521h-95v725h95v-521h2z" />
    <glyph glyph-name="afii10027" unicode="&#x419;" horiz-adv-x="501" 
d="M349 725h95v-725h-95v521h-2l-194 -521h-95v725h95v-521h2zM141 871h67q2 -39 12 -53t31 -14q20 0 30 14t13 53h66q-8 -67 -32.5 -92.5t-77.5 -25.5t-77 25.5t-32 92.5z" />
    <glyph glyph-name="afii10028" unicode="&#x41a;" horiz-adv-x="484" 
d="M454 725v-74h-18q-38 0 -56 -54l-53 -153q-16 -46 -54 -65v-2q47 -18 62 -65l62 -192q15 -49 59 -49h16v-70q-22 -6 -49 -6q-91 0 -123 101l-65 200q-13 39 -56 39h-23v-335h-98v725h98v-309h23q40 0 53 40l60 175q34 99 119 99q15 0 43 -5z" />
    <glyph glyph-name="afii10029" unicode="&#x41b;" horiz-adv-x="494" 
d="M437 725v-725h-102v635h-128l-10 -272q-6 -152 -26 -234.5t-48.5 -108t-76.5 -25.5q-21 0 -43 6v70h14q28 0 43 20.5t25.5 85t14.5 191.5l13 357h324z" />
    <glyph glyph-name="afii10030" unicode="&#x41c;" horiz-adv-x="632" 
d="M481 725h93v-725h-91v480h-2l-142 -356h-47l-141 354h-2v-478h-91v725h92l165 -449h2z" />
    <glyph glyph-name="afii10031" unicode="&#x41d;" horiz-adv-x="494" 
d="M58 725h101v-305h176v305h101v-725h-101v327h-176v-327h-101v725z" />
    <glyph glyph-name="afii10032" unicode="&#x41e;" horiz-adv-x="473" 
d="M236 735q96 0 146 -57t50 -162v-306q0 -105 -50 -162.5t-146 -57.5q-95 0 -145 57.5t-50 162.5v305q0 105 50 162.5t145 57.5zM330 210v305q0 69 -22.5 99.5t-70.5 30.5q-49 0 -72 -31t-23 -99v-305q0 -69 23 -100.5t71 -31.5t71 31.5t23 100.5z" />
    <glyph glyph-name="afii10033" unicode="&#x41f;" horiz-adv-x="487" 
d="M58 725h371v-725h-101v635h-169v-635h-101v725z" />
    <glyph glyph-name="afii10034" unicode="&#x420;" horiz-adv-x="447" 
d="M248 725q84 0 129 -57.5t45 -166.5q0 -107 -43.5 -165t-125.5 -58h-94v-278h-101v725h190zM159 635v-273h86q40 0 58 32t18 106t-18 104.5t-58 30.5h-86z" />
    <glyph glyph-name="afii10035" unicode="&#x421;" horiz-adv-x="420" 
d="M225 735q66 0 112 -43.5t59 -115.5l-78 -24q-18 93 -86 93q-89 0 -89 -129v-316q0 -58 22 -90.5t66 -32.5q37 0 57.5 22.5t30.5 78.5l77 -23q-13 -86 -56 -125.5t-117 -39.5q-84 0 -133 57t-49 152v316q0 103 49 161.5t135 58.5z" />
    <glyph glyph-name="afii10036" unicode="&#x422;" horiz-adv-x="385" 
d="M11 725h363v-94h-131v-631h-101v631h-131v94z" />
    <glyph glyph-name="afii10037" unicode="&#x423;" horiz-adv-x="449" 
d="M4 725h113l122 -386h2l97 386h107l-173 -590q-41 -138 -182 -138l-5 84q76 7 92 72l16 63z" />
    <glyph glyph-name="afii10038" unicode="&#x424;" horiz-adv-x="575" 
d="M237 725h101v-90h14q96 0 143.5 -54.5t47.5 -148.5v-134q0 -97 -48 -151t-143 -54h-14v-93h-101v93h-14q-95 0 -143 54t-48 151v133q0 96 48 150t143 54h14v90zM354 548h-20v-369h20q48 0 70 28t22 88v139q0 114 -92 114zM221 179h20v369h-20q-48 0 -69.5 -28t-21.5 -86
v-139q0 -59 21.5 -87.5t69.5 -28.5z" />
    <glyph glyph-name="afii10039" unicode="&#x425;" horiz-adv-x="460" 
d="M14 0l151 369l-147 356h109l103 -292h2l101 292h108l-146 -361l151 -364h-109l-108 298h-2l-106 -298h-107z" />
    <glyph glyph-name="afii10040" unicode="&#x426;" horiz-adv-x="492" 
d="M420 96h65v-247h-95v151h-332v725h101v-634h160v634h101v-629z" />
    <glyph glyph-name="afii10041" unicode="&#x427;" horiz-adv-x="451" 
d="M394 0h-101v310q-43 -9 -87 -9q-91 0 -133 46t-42 149v229h101v-228q0 -62 23.5 -85t77.5 -23q34 0 60 5v331h101v-725z" />
    <glyph glyph-name="afii10042" unicode="&#x428;" horiz-adv-x="697" 
d="M640 0h-582v725h101v-634h139v634h101v-634h140v634h101v-725z" />
    <glyph glyph-name="afii10043" unicode="&#x429;" horiz-adv-x="712" 
d="M640 96h65v-247h-101v151h-546v725h101v-634h139v634h101v-634h140v634h101v-629z" />
    <glyph glyph-name="afii10044" unicode="&#x42a;" horiz-adv-x="528" 
d="M143 634h-132v91h233v-296h83q94 0 134 -51.5t40 -158.5q0 -112 -40.5 -165.5t-140.5 -53.5h-177v634zM244 90h73q47 0 66 27t19 102q0 70 -19.5 96.5t-67.5 26.5h-71v-252z" />
    <glyph glyph-name="afii10045" unicode="&#x42b;" horiz-adv-x="654" 
d="M58 725h101v-296h83q94 0 134 -51.5t40 -158.5q0 -112 -40.5 -165.5t-140.5 -53.5h-177v725zM159 90h73q47 0 66 27t19 102q0 70 -19.5 96.5t-67.5 26.5h-71v-252zM495 725h101v-725h-101v725z" />
    <glyph glyph-name="afii10046" unicode="&#x42c;" horiz-adv-x="442" 
d="M58 725h101v-296h83q94 0 134 -51.5t40 -158.5q0 -112 -40.5 -165.5t-140.5 -53.5h-177v725zM159 90h73q47 0 66 27t19 102q0 70 -19.5 96.5t-67.5 26.5h-71v-252z" />
    <glyph glyph-name="afii10047" unicode="&#x42d;" horiz-adv-x="425" 
d="M123 329v88h159v107q0 63 -20.5 93.5t-65.5 30.5q-72 0 -95 -98l-74 24q17 76 63.5 118.5t114.5 42.5q83 0 131 -57t48 -156v-323q0 -94 -48 -151.5t-129 -57.5q-150 0 -181 167l76 24q21 -107 96 -107q84 0 84 120v135h-159z" />
    <glyph glyph-name="afii10048" unicode="&#x42e;" horiz-adv-x="670" 
d="M58 725h98v-308h94v98q0 106 48.5 163t141.5 57t141 -57t48 -162v-306q0 -105 -48 -162.5t-141 -57.5t-141.5 57t-48.5 163v124h-94v-334h-98v725zM527 210v305q0 66 -21 96.5t-66 30.5q-46 0 -67 -30t-21 -97v-305q0 -68 21 -98.5t67 -30.5q45 0 66 30.5t21 98.5z" />
    <glyph glyph-name="afii10049" unicode="&#x42f;" horiz-adv-x="468" 
d="M243 725h167v-725h-101v313h-47q-33 -3 -43 -40l-50 -180q-28 -98 -119 -98q-22 0 -42 6v70h14q20 0 32.5 11t19.5 38l44 158q13 46 45 62v2q-53 14 -78.5 57.5t-25.5 123.5q0 102 43.5 152t140.5 50zM309 391v244h-63q-46 0 -65.5 -26t-19.5 -95t19.5 -96t68.5 -27h60z
" />
    <glyph glyph-name="afii10065" unicode="&#x430;" horiz-adv-x="374" 
d="M102 369l-62 28q43 121 148 121q69 0 102 -42.5t33 -116.5v-264q0 -35 30 -35h11v-59q-21 -7 -43 -7q-51 0 -75 40q-39 -42 -101 -42q-54 0 -86 38t-32 101q0 74 43 118.5t136 44.5h25v66q0 43 -13.5 62t-41.5 19q-49 0 -74 -72zM167 61q40 0 64 36v129h-25
q-49 0 -70 -22t-21 -65q0 -78 52 -78z" />
    <glyph glyph-name="afii10066" unicode="&#x431;" horiz-adv-x="391" 
d="M331 725l15 -80q-28 -19 -67 -25l-78 -13q-97 -17 -97 -124v-20h2q36 52 108 52q70 0 106 -45t36 -121v-192q0 -73 -42 -119.5t-119 -46.5t-119 46t-42 120v325q0 84 37 138t108 70zM125 342v-181q0 -94 70 -94q69 0 69 94v181q0 98 -69 98q-70 0 -70 -98z" />
    <glyph glyph-name="afii10067" unicode="&#x432;" horiz-adv-x="379" 
d="M336 381q0 -89 -67 -112v-2q88 -19 88 -119q0 -75 -34 -111.5t-116 -36.5h-160v508h146q143 0 143 -127zM133 229v-158h74q35 0 50 17.5t15 63.5q0 43 -15.5 60t-50.5 17h-73zM133 434v-140h59q35 0 49.5 18.5t14.5 56.5q0 36 -13.5 50.5t-46.5 14.5h-63z" />
    <glyph glyph-name="afii10068" unicode="&#x433;" horiz-adv-x="304" 
d="M290 508v-83h-151v-425h-92v508h243z" />
    <glyph glyph-name="afii10069" unicode="&#x434;" horiz-adv-x="426" 
d="M100 508h265v-430h55v-222h-86v144h-247v-144h-85v222h48q26 98 34 198zM273 429h-98l-10 -155q-6 -104 -31 -200h139v355z" />
    <glyph glyph-name="afii10070" unicode="&#x435;" horiz-adv-x="370" 
d="M341 244h-216v-82q0 -94 74 -94q29 0 46 18t29 61l69 -22q-31 -134 -153 -134q-74 0 -115 46.5t-41 121.5v191q0 74 40.5 120.5t115.5 46.5q72 0 111.5 -47.5t39.5 -123.5v-102zM125 354v-49h133v49q0 88 -66 88q-67 0 -67 -88z" />
    <glyph glyph-name="afii10072" unicode="&#x436;" horiz-adv-x="587" 
d="M25 442v66q12 4 34 4q84 0 104 -79l19 -77q14 -60 50 -60h16v212h91v-212h17q35 0 49 60l19 77q20 79 105 79q21 0 33 -4v-66h-14q-37 0 -48 -44l-17 -72q-9 -41 -35 -59q29 -15 41 -57l29 -98q8 -26 18 -38t27 -12h11v-60q-22 -6 -38 -6q-42 0 -65 20t-37 67l-34 111
q-10 33 -38 33h-23v-227h-91v227h-23q-28 0 -38 -33l-33 -111q-14 -47 -37 -67t-65 -20q-17 0 -39 6v60h11q31 0 46 50l28 98q12 42 40 57q-22 16 -33 59l-18 72q-11 44 -47 44h-15z" />
    <glyph glyph-name="afii10073" unicode="&#x437;" horiz-adv-x="355" 
d="M114 223v72h43q39 0 57 17t18 60q0 70 -63 70q-58 0 -76 -64l-69 15q14 58 53.5 91t100.5 33q70 0 106.5 -38t36.5 -102q0 -84 -56 -110v-2q69 -20 69 -115q0 -159 -159 -159q-60 0 -100.5 27t-53.5 82l69 18q17 -57 80 -57q39 0 56.5 21t17.5 67q0 43 -20.5 58.5
t-62.5 15.5h-47z" />
    <glyph glyph-name="afii10074" unicode="&#x438;" horiz-adv-x="423" 
d="M291 508h85v-508h-85v368h-2l-157 -368h-85v508h85v-374h2z" />
    <glyph glyph-name="afii10075" unicode="&#x439;" horiz-adv-x="423" 
d="M291 508h85v-508h-85v368h-2l-157 -368h-85v508h85v-374h2zM105 725h67q2 -54 11.5 -73t30.5 -19t30.5 19t11.5 73h67q-8 -85 -32 -115t-77 -30t-76.5 30t-32.5 115z" />
    <glyph glyph-name="afii10076" unicode="&#x43a;" horiz-adv-x="399" 
d="M375 62h11v-60q-22 -6 -38 -6q-41 0 -64 20t-39 67l-38 111q-11 33 -38 33h-30v-227h-92v508h92v-212h24q30 0 49 60l24 77q25 79 105 79q21 0 33 -4v-66h-14q-35 0 -48 -44l-22 -72q-13 -41 -35 -59q28 -13 41 -55l34 -101q9 -27 19 -38t26 -11z" />
    <glyph glyph-name="afii10077" unicode="&#x43b;" horiz-adv-x="420" 
d="M373 508v-508h-92v431h-96l-15 -284q-8 -151 -120 -151q-20 0 -42 6v60h17q29 0 43 23t17 80l17 343h271z" />
    <glyph glyph-name="afii10078" unicode="&#x43c;" horiz-adv-x="512" 
d="M378 508h87v-508h-84v319h-2l-102 -231h-42l-102 233h-2v-321h-84v508h87l121 -288h2z" />
    <glyph glyph-name="afii10079" unicode="&#x43d;" horiz-adv-x="416" 
d="M139 0h-92v508h92v-208h139v208h91v-508h-91v223h-139v-223z" />
    <glyph glyph-name="afii10080" unicode="&#x43e;" 
d="M356 349v-192q0 -74 -42 -120t-119 -46q-78 0 -119.5 45.5t-41.5 120.5v192q0 75 41.5 121.5t119.5 46.5t119.5 -46.5t41.5 -121.5zM125 346v-185q0 -94 70 -94q69 0 69 94v185q0 94 -69 94q-70 0 -70 -94z" />
    <glyph glyph-name="afii10081" unicode="&#x43f;" horiz-adv-x="408" 
d="M139 0h-92v508h315v-508h-92v430h-131v-430z" />
    <glyph glyph-name="afii10082" unicode="&#x440;" horiz-adv-x="402" 
d="M236 -7q-61 0 -95 38h-2v-229h-92v706h80l3 -41h2q39 50 109 50q61 0 94 -45.5t33 -130.5v-173q0 -85 -34 -130t-98 -45zM139 394v-283q25 -37 71 -37q66 0 66 96v168q0 95 -64 95q-47 0 -73 -39z" />
    <glyph glyph-name="afii10083" unicode="&#x441;" horiz-adv-x="346" 
d="M330 393l-68 -23q-17 69 -68 69q-69 0 -69 -93v-184q0 -94 69 -94q51 0 69 72l69 -22q-32 -127 -146 -127q-73 0 -112.5 47.5t-39.5 119.5v191q0 74 39.5 121t112.5 47q54 0 91.5 -32.5t52.5 -91.5z" />
    <glyph glyph-name="afii10084" unicode="&#x442;" horiz-adv-x="346" 
d="M220 0h-92v427h-114v81h318v-81h-112v-427z" />
    <glyph glyph-name="afii10085" unicode="&#x443;" horiz-adv-x="400" 
d="M390 508l-159 -566q-22 -77 -59 -111t-101 -37l-7 75q37 5 57 22t30 58l16 63l-157 496h102l99 -380h2l82 380h95z" />
    <glyph glyph-name="afii10086" unicode="&#x444;" horiz-adv-x="577" 
d="M243 711h92v-226h2q30 31 80 31q61 0 94 -44.5t33 -128.5v-179q0 -82 -33 -126.5t-95 -44.5q-50 0 -79 32h-2v-225h-92v226h-2q-30 -33 -80 -33q-61 0 -94 44t-33 127v179q0 84 33 128.5t94 44.5q50 0 80 -31h2v226zM187 68q35 0 58 33v306q-22 30 -56 30q-64 0 -64 -94
v-182q0 -93 62 -93zM389 437q-34 0 -56 -29v-309q22 -31 57 -31q62 0 62 93v182q0 94 -63 94z" />
    <glyph glyph-name="afii10087" unicode="&#x445;" horiz-adv-x="396" 
d="M12 0l123 262l-117 246h101l80 -195h2l77 195h101l-118 -251l123 -257h-101l-86 205h-2l-82 -205h-101z" />
    <glyph glyph-name="afii10088" unicode="&#x446;" horiz-adv-x="417" 
d="M47 508h92v-430h125v430h92v-430h55v-222h-86v144h-278v508z" />
    <glyph glyph-name="afii10089" unicode="&#x447;" horiz-adv-x="395" 
d="M133 508v-164q0 -38 15.5 -54t54.5 -16q29 0 53 4v230h92v-508h-92v205q-32 -8 -76 -8q-139 0 -139 144v167h92z" />
    <glyph glyph-name="afii10090" unicode="&#x448;" horiz-adv-x="604" 
d="M47 508h92v-430h117v430h92v-430h118v430h92v-508h-511v508z" />
    <glyph glyph-name="afii10091" unicode="&#x449;" horiz-adv-x="619" 
d="M47 508h92v-430h117v430h92v-430h118v430h92v-430h55v-222h-86v144h-480v508z" />
    <glyph glyph-name="afii10092" unicode="&#x44a;" horiz-adv-x="451" 
d="M213 508v-203h66q81 0 116 -37.5t35 -112.5q0 -79 -34 -117t-118 -38h-157v431h-107v77h199zM213 232v-161h64q36 0 51.5 18t15.5 65q0 44 -16 61t-52 17h-63z" />
    <glyph glyph-name="afii10093" unicode="&#x44b;" horiz-adv-x="543" 
d="M405 508h92v-508h-92v508zM139 508v-203h66q81 0 116 -37.5t35 -112.5q0 -79 -34 -117t-118 -38h-157v508h92zM139 232v-161h64q36 0 51.5 18t15.5 65q0 44 -16 61t-52 17h-63z" />
    <glyph glyph-name="afii10094" unicode="&#x44c;" horiz-adv-x="377" 
d="M139 508v-203h66q81 0 116 -37.5t35 -112.5q0 -79 -34 -117t-118 -38h-157v508h92zM139 232v-161h64q36 0 51.5 18t15.5 65q0 44 -16 61t-52 17h-63z" />
    <glyph glyph-name="afii10095" unicode="&#x44d;" horiz-adv-x="365" 
d="M241 151v74h-132v72h132v56q0 89 -67 89q-54 0 -73 -72l-66 23q14 58 52.5 91t92.5 33q73 0 112.5 -47t39.5 -121v-191q0 -72 -40 -119.5t-113 -47.5q-114 0 -146 127l66 21q18 -75 73 -75q69 0 69 87z" />
    <glyph glyph-name="afii10096" unicode="&#x44e;" horiz-adv-x="552" 
d="M49 508h92v-208h67v49q0 74 40.5 121t114.5 47q75 0 115.5 -46.5t40.5 -121.5v-192q0 -73 -41 -119.5t-115 -46.5t-114.5 46.5t-40.5 119.5v66h-67v-223h-92v508zM300 346v-185q0 -93 63 -93q64 0 64 93v185q0 94 -64 94q-63 0 -63 -94z" />
    <glyph glyph-name="afii10097" unicode="&#x44f;" horiz-adv-x="396" 
d="M11 62h12q31 0 49 46l32 83q11 28 26 39v2q-83 23 -83 135q0 66 36.5 103.5t113.5 37.5h152v-508h-89v212h-30q-29 0 -41 -35l-34 -99q-15 -46 -38.5 -64t-64.5 -18q-19 0 -41 6v60zM260 278v154h-53q-36 0 -51 -16.5t-15 -55.5q0 -41 14.5 -61.5t52.5 -20.5h52z" />
    <glyph glyph-name="uni0450" unicode="&#x450;" horiz-adv-x="370" 
d="M85 725h102l53 -138h-67zM341 244h-216v-82q0 -94 74 -94q29 0 46 18t29 61l69 -22q-31 -134 -153 -134q-74 0 -115 46.5t-41 121.5v191q0 74 40.5 120.5t115.5 46.5q72 0 111.5 -47.5t39.5 -123.5v-102zM125 354v-49h133v49q0 88 -66 88q-67 0 -67 -88z" />
    <glyph glyph-name="afii10071" unicode="&#x451;" horiz-adv-x="370" 
d="M341 244h-216v-82q0 -94 74 -94q29 0 46 18t29 61l69 -22q-31 -134 -153 -134q-74 0 -115 46.5t-41 121.5v191q0 74 40.5 120.5t115.5 46.5q72 0 111.5 -47.5t39.5 -123.5v-102zM125 354v-49h133v49q0 88 -66 88q-67 0 -67 -88zM99 725h68v-116h-68v116zM218 725h67v-116
h-67v116z" />
    <glyph glyph-name="afii10099" unicode="&#x452;" horiz-adv-x="410" 
d="M226 653v-63h-85v-117h2q35 44 101 44q61 0 94 -44.5t33 -128.5v-319q0 -177 -156 -188l-6 71q37 6 53.5 32.5t16.5 83.5v318q0 93 -65 93q-47 0 -73 -39v-396h-91v590h-63v63h63v95h91v-95h85z" />
    <glyph glyph-name="afii10100" unicode="&#x453;" horiz-adv-x="304" 
d="M290 508v-83h-151v-425h-92v508h243zM142 725h102l-79 -138h-66z" />
    <glyph glyph-name="afii10101" unicode="&#x454;" horiz-adv-x="346" 
d="M124 151q0 -86 69 -86q56 0 73 74l67 -21q-34 -127 -148 -127q-73 0 -112 47.5t-39 119.5v191q0 74 39.5 121t112.5 47q54 0 92 -32.5t52 -91.5l-65 -23q-20 71 -72 71q-69 0 -69 -88v-56h132v-72h-132v-74z" />
    <glyph glyph-name="afii10102" unicode="&#x455;" horiz-adv-x="333" 
d="M310 397l-64 -21q-17 68 -71 68q-55 0 -55 -59q0 -27 20 -47.5t48 -36.5t56 -34t48 -51.5t20 -78.5q0 -64 -39.5 -105t-100.5 -41q-114 0 -145 121l64 25q20 -75 78 -75q56 0 56 67q0 25 -14.5 45t-36 32.5t-46.5 28.5t-46.5 32t-36 45.5t-14.5 66.5q0 60 37.5 99
t103.5 39q54 0 89.5 -31.5t48.5 -88.5z" />
    <glyph glyph-name="afii10103" unicode="&#x456;" horiz-adv-x="198" 
d="M53 508h92v-508h-92v508zM58 725h86v-116h-86v116z" />
    <glyph glyph-name="afii10104" unicode="&#x457;" horiz-adv-x="198" 
d="M53 508h92v-508h-92v508zM6 725h68v-116h-68v116zM125 725h67v-116h-67v116z" />
    <glyph glyph-name="afii10105" unicode="&#x458;" horiz-adv-x="203" 
d="M64 725h86v-116h-86v116zM-3 -206l-6 75q37 6 53.5 31.5t16.5 80.5v527h92v-526q0 -176 -156 -188z" />
    <glyph glyph-name="afii10106" unicode="&#x459;" horiz-adv-x="611" 
d="M373 508v-203h66q81 0 116 -37.5t35 -112.5q0 -79 -34 -117t-118 -38h-157v431h-96l-15 -284q-8 -151 -120 -151q-20 0 -42 6v60h17q29 0 43 23t17 80l17 343h271zM373 232v-161h64q36 0 51.5 18t15.5 65q0 44 -16 61t-52 17h-63z" />
    <glyph glyph-name="afii10107" unicode="&#x45a;" horiz-adv-x="608" 
d="M370 508v-203h66q81 0 116 -37.5t35 -112.5q0 -79 -34 -117t-118 -38h-157v223h-139v-223h-92v508h92v-208h139v208h92zM370 232v-161h64q36 0 51.5 18t15.5 65q0 44 -16 61t-52 17h-63z" />
    <glyph glyph-name="afii10108" unicode="&#x45b;" horiz-adv-x="410" 
d="M141 396v-396h-91v590h-63v63h63v95h91v-95h85v-63h-85v-117h2q35 44 101 44q61 0 94 -44.5t33 -128.5v-344h-92v342q0 93 -65 93q-47 0 -73 -39z" />
    <glyph glyph-name="afii10109" unicode="&#x45c;" horiz-adv-x="399" 
d="M375 62h11v-60q-22 -6 -38 -6q-41 0 -64 20t-39 67l-38 111q-11 33 -38 33h-30v-227h-92v508h92v-212h24q30 0 49 60l24 77q25 79 105 79q21 0 33 -4v-66h-14q-35 0 -48 -44l-22 -72q-13 -41 -35 -59q28 -13 41 -55l34 -101q9 -27 19 -38t26 -11zM204 725h102l-79 -138
h-66z" />
    <glyph glyph-name="uni045D" unicode="&#x45d;" horiz-adv-x="423" 
d="M291 508h85v-508h-85v368h-2l-157 -368h-85v508h85v-374h2zM100 725h102l53 -138h-67z" />
    <glyph glyph-name="afii10110" unicode="&#x45e;" horiz-adv-x="400" 
d="M390 508l-159 -566q-22 -77 -59 -111t-101 -37l-7 75q37 5 57 22t30 58l16 63l-157 496h102l99 -380h2l82 380h95zM94 725h67q2 -54 11.5 -73t30.5 -19t30.5 19t11.5 73h67q-8 -85 -32 -115t-77 -30t-76.5 30t-32.5 115z" />
    <glyph glyph-name="afii10193" unicode="&#x45f;" horiz-adv-x="411" 
d="M362 0h-114v-144h-80v144h-121v508h92v-429h131v429h92v-508z" />
    <glyph glyph-name="afii10146" unicode="&#x462;" horiz-adv-x="442" 
d="M58 725h101v-81h153v-74h-153v-141h83q94 0 134 -51.5t40 -158.5q0 -112 -40.5 -165.5t-140.5 -53.5h-177v570h-74v74h74v81zM159 90h73q47 0 66 27t19 102q0 70 -19.5 96.5t-67.5 26.5h-71v-252z" />
    <glyph glyph-name="afii10194" unicode="&#x463;" horiz-adv-x="377" 
d="M139 508v-65h103v-63h-103v-75h66q81 0 116 -37.5t35 -112.5q0 -79 -34 -117t-118 -38h-157v380h-45v63h45v65h92zM139 232v-161h64q36 0 51.5 18t15.5 65q0 44 -16 61t-52 17h-63z" />
    <glyph glyph-name="afii10147" unicode="&#x472;" horiz-adv-x="473" 
d="M432 516v-306q0 -105 -50 -162.5t-146 -57.5q-95 0 -145 57.5t-50 162.5v305q0 105 50 162.5t145 57.5q96 0 146 -57t50 -162zM330 208v126h-188v-126q0 -68 23 -98.5t71 -30.5t71 30.5t23 98.5zM142 517v-103h188v103q0 66 -23 96.5t-71 30.5t-71 -30.5t-23 -96.5z" />
    <glyph glyph-name="afii10195" unicode="&#x473;" 
d="M356 349v-192q0 -74 -42 -120t-119 -46q-78 0 -119.5 45.5t-41.5 120.5v192q0 75 41.5 121.5t119.5 46.5t119.5 -46.5t41.5 -121.5zM195 64q69 0 69 93v75h-139v-75q0 -93 70 -93zM125 349v-53h139v53q0 94 -69 94q-70 0 -70 -94z" />
    <glyph glyph-name="afii10148" unicode="&#x474;" horiz-adv-x="491" 
d="M7 725h108l120 -589h2l90 466q11 60 45 94t86 34q16 0 46 -5v-74h-18q-45 0 -60 -61l-136 -590h-108z" />
    <glyph glyph-name="afii10196" unicode="&#x475;" horiz-adv-x="413" 
d="M9 508h101l91 -415h2l66 326q19 93 111 93q26 0 38 -4v-66h-15q-35 0 -47 -45l-101 -397h-105z" />
    <glyph glyph-name="afii10050" unicode="&#x490;" horiz-adv-x="359" 
d="M252 812h96v-181h-191v-631h-99v725h194v87z" />
    <glyph glyph-name="afii10098" unicode="&#x491;" horiz-adv-x="304" 
d="M290 582v-157h-151v-425h-92v508h167v74h76z" />
    <glyph glyph-name="uni0492" unicode="&#x492;" horiz-adv-x="374" 
d="M8 327v83h65v315h290v-93h-191v-222h102v-83h-102v-327h-99v327h-65z" />
    <glyph glyph-name="uni0493" unicode="&#x493;" horiz-adv-x="311" 
d="M3 226v66h51v216h243v-83h-151v-133h95v-66h-95v-226h-92v226h-51z" />
    <glyph glyph-name="uni0496" unicode="&#x496;" horiz-adv-x="708" 
d="M27 651v73q22 6 45 6q73 0 103 -97l54 -177q12 -40 45 -40h21v309h98v-309h21q33 0 45 40l54 177q30 97 103 97q23 0 45 -6v-73h-16q-19 0 -30 -13t-20 -41l-46 -154q-13 -44 -49 -65v-2q44 -17 58 -63l55 -193q14 -49 50 -49h43v-222h-96v148q-67 12 -91 96l-58 203
q-11 39 -49 39h-19v-335h-98v335h-20q-37 0 -48 -39l-58 -203q-29 -98 -116 -98q-23 0 -43 6v70h14q37 0 51 49l55 193q12 45 57 64v2q-35 20 -48 64l-46 154q-16 54 -50 54h-16z" />
    <glyph glyph-name="uni0497" unicode="&#x497;" horiz-adv-x="603" 
d="M25 442v66q12 4 34 4q84 0 104 -79l19 -77q14 -60 50 -60h16v212h91v-212h17q35 0 49 60l19 77q20 79 105 79q21 0 33 -4v-66h-14q-37 0 -48 -44l-17 -72q-9 -41 -35 -59q29 -15 41 -57l29 -98q8 -26 18 -38t27 -12h32v-206h-82v142q-31 4 -49 24t-30 61l-34 111
q-10 33 -38 33h-23v-227h-91v227h-23q-28 0 -38 -33l-33 -111q-14 -47 -37 -67t-65 -20q-17 0 -39 6v60h11q31 0 46 50l28 98q12 42 40 57q-22 16 -33 59l-18 72q-11 44 -47 44h-15z" />
    <glyph glyph-name="uni049A" unicode="&#x49a;" horiz-adv-x="502" 
d="M454 725v-74h-18q-38 0 -56 -54l-53 -153q-16 -46 -54 -65v-2q47 -18 62 -65l62 -192q15 -49 59 -49h44v-222h-96v147q-75 9 -104 100l-65 200q-13 39 -56 39h-23v-335h-98v725h98v-309h23q40 0 53 40l60 175q34 99 119 99q15 0 43 -5z" />
    <glyph glyph-name="uni049B" unicode="&#x49b;" horiz-adv-x="415" 
d="M375 62h32v-206h-82v142q-30 5 -48 25t-32 60l-38 111q-11 33 -38 33h-30v-227h-92v508h92v-212h24q30 0 49 60l24 77q25 79 105 79q21 0 33 -4v-66h-14q-35 0 -48 -44l-22 -72q-13 -41 -35 -59q28 -13 41 -55l34 -101q9 -27 19 -38t26 -11z" />
    <glyph glyph-name="uni049C" unicode="&#x49c;" horiz-adv-x="518" 
d="M488 725v-74h-21q-40 0 -53 -54l-36 -150q-12 -50 -47 -70q41 -20 54 -72l45 -185q12 -49 59 -49h16v-70q-22 -6 -46 -6q-101 0 -127 106l-47 195q-6 23 -15 30.5t-27 8.5v-138h-50v138h-37v-335h-98v725h98v-309h37v108h50v-108q16 0 25 8.5t15 32.5l40 168
q25 105 123 105q14 0 42 -5z" />
    <glyph glyph-name="uni049D" unicode="&#x49d;" horiz-adv-x="415" 
d="M47 508h92v-212h29v104h49v-104q12 0 19 10.5t16 43.5l21 79q21 83 103 83q24 0 36 -4v-66h-15q-36 0 -47 -44l-20 -72q-11 -41 -32 -59q25 -13 39 -56l31 -100q9 -27 19 -38t26 -11h11v-60q-22 -6 -39 -6q-42 0 -64.5 19.5t-36.5 66.5l-34 112q-6 18 -12 25.5t-18 7.5
h-3v-118h-49v118h-29v-227h-92v508z" />
    <glyph glyph-name="uni04A2" unicode="&#x4a2;" horiz-adv-x="504" 
d="M58 725h101v-305h176v305h101v-654h54v-222h-96v151h-59v327h-176v-327h-101v725z" />
    <glyph glyph-name="uni04A3" unicode="&#x4a3;" horiz-adv-x="441" 
d="M139 0h-92v508h92v-208h139v208h91v-446h50v-206h-81v144h-60v223h-139v-223z" />
    <glyph glyph-name="uni04AE" unicode="&#x4ae;" horiz-adv-x="449" 
d="M445 725l-170 -492v-233h-101v233l-170 492h111l109 -381h2l109 381h110z" />
    <glyph glyph-name="uni04AF" unicode="&#x4af;" horiz-adv-x="397" 
d="M244 -202h-92v212l-143 498h101l88 -389l89 389h101l-144 -495v-215z" />
    <glyph glyph-name="uni04B0" unicode="&#x4b0;" horiz-adv-x="449" 
d="M445 725l-170 -461v-16h110v-79h-110v-169h-101v169h-110v79h110v16l-170 461h111l110 -353l110 353h110z" />
    <glyph glyph-name="uni04B1" unicode="&#x4b1;" horiz-adv-x="397" 
d="M388 508l-129 -441h73v-67h-88v-202h-92v202h-90v67h73l-126 441h101l88 -389l89 389h101z" />
    <glyph glyph-name="uni04B2" unicode="&#x4b2;" horiz-adv-x="476" 
d="M14 0l151 369l-147 356h109l103 -292h2l101 292h108l-146 -361l121 -293h58v-222h-96v151h-41l-108 298h-2l-106 -298h-107z" />
    <glyph glyph-name="uni04B3" unicode="&#x4b3;" horiz-adv-x="417" 
d="M13 2l122 260l-117 246h101l80 -195h2l77 195h101l-118 -251l93 -195h55v-206h-81v146h-46l-85 203h-2l-81 -203h-101z" />
    <glyph glyph-name="uni04B6" unicode="&#x4b6;" horiz-adv-x="462" 
d="M394 71h54v-222h-96v151h-59v310q-43 -9 -87 -9q-91 0 -133 46t-42 149v229h101v-228q0 -62 23.5 -85t77.5 -23q34 0 60 5v331h101v-654z" />
    <glyph glyph-name="uni04B7" unicode="&#x4b7;" horiz-adv-x="419" 
d="M133 508v-164q0 -38 15.5 -54t54.5 -16q29 0 53 4v230h92v-446h50v-206h-82v144h-60v205q-32 -8 -76 -8q-139 0 -139 144v167h92z" />
    <glyph glyph-name="uni04B8" unicode="&#x4b8;" horiz-adv-x="470" 
d="M202 516h49v-129q29 0 60 6v332h101v-725h-101v310q-33 -7 -60 -8v-113h-49v112q-89 4 -130 50t-41 145v229h101v-230q0 -53 16 -76.5t54 -29.5v127z" />
    <glyph glyph-name="uni04B9" unicode="&#x4b9;" horiz-adv-x="432" 
d="M192 380h49v-106q26 0 53 5v229h92v-508h-92v205q-15 -3 -53 -7v-108h-49v107q-151 3 -151 148v163h92v-161q0 -33 14 -49.5t45 -21.5v104z" />
    <glyph glyph-name="uni04BA" unicode="&#x4ba;" horiz-adv-x="457" 
d="M159 725v-247q41 10 86 10q91 0 133 -46t42 -149v-293h-101v292q0 62 -23.5 85t-77.5 23q-29 0 -59 -6v-394h-101v725h101z" />
    <glyph glyph-name="uni04BB" unicode="&#x4bb;" horiz-adv-x="396" 
d="M141 0h-91v748h91v-244q34 9 76 9q139 0 139 -145v-368h-92v365q0 39 -15.5 55t-53.5 16q-29 0 -54 -6v-430z" />
    <glyph glyph-name="uni04C0" unicode="&#x4c0;" horiz-adv-x="240" 
d="M69 725h101v-725h-101v725z" />
    <glyph glyph-name="uni04CF" unicode="&#x4cf;" horiz-adv-x="203" 
d="M55 748h92v-748h-92v748z" />
    <glyph glyph-name="uni04D8" unicode="&#x4d8;" horiz-adv-x="453" 
d="M34 207v174h277v145q0 121 -98 121q-38 0 -63 -22.5t-36 -77.5l-78 23q29 165 182 165q92 0 143 -58.5t51 -154.5v-310q0 -106 -47.5 -164t-146.5 -58q-93 0 -138.5 58.5t-45.5 158.5zM217 77q94 0 94 130v100h-186v-104q0 -126 92 -126z" />
    <glyph glyph-name="afii10846" unicode="&#x4d9;" horiz-adv-x="370" 
d="M27 265h216v81q0 95 -73 95q-29 0 -46.5 -18t-29.5 -61l-69 22q17 68 54 100.5t100 32.5q74 0 115 -46.5t41 -121.5v-190q0 -74 -40.5 -121t-115.5 -47q-72 0 -112 48t-40 123v103zM177 66q66 0 66 88v49h-133v-49q0 -88 67 -88z" />
    <glyph glyph-name="uni04E2" unicode="&#x4e2;" horiz-adv-x="501" 
d="M349 725h95v-725h-95v521h-2l-194 -521h-95v725h95v-521h2zM360 850v-62h-220v62h220z" />
    <glyph glyph-name="uni04E3" unicode="&#x4e3;" horiz-adv-x="423" 
d="M291 508h85v-508h-85v368h-2l-157 -368h-85v508h85v-374h2zM316 686v-65h-210v65h210z" />
    <glyph glyph-name="uni04E8" unicode="&#x4e8;" horiz-adv-x="473" 
d="M432 516v-306q0 -105 -50 -162.5t-146 -57.5q-95 0 -145 57.5t-50 162.5v305q0 105 50 162.5t145 57.5q96 0 146 -57t50 -162zM330 208v126h-188v-126q0 -68 23 -98.5t71 -30.5t71 30.5t23 98.5zM142 517v-103h188v103q0 66 -23 96.5t-71 30.5t-71 -30.5t-23 -96.5z" />
    <glyph glyph-name="uni04E9" unicode="&#x4e9;" 
d="M356 349v-192q0 -74 -42 -120t-119 -46q-78 0 -119.5 45.5t-41.5 120.5v192q0 75 41.5 121.5t119.5 46.5t119.5 -46.5t41.5 -121.5zM195 64q69 0 69 93v75h-139v-75q0 -93 70 -93zM125 349v-53h139v53q0 94 -69 94q-70 0 -70 -94z" />
    <glyph glyph-name="uni04EE" unicode="&#x4ee;" horiz-adv-x="449" 
d="M4 725h113l122 -386h2l97 386h107l-173 -590q-41 -138 -182 -138l-5 84q76 7 92 72l16 63zM334 850v-62h-220v62h220z" />
    <glyph glyph-name="uni04EF" unicode="&#x4ef;" horiz-adv-x="400" 
d="M390 508l-159 -566q-22 -77 -59 -111t-101 -37l-7 75q37 5 57 22t30 58l16 63l-157 496h102l99 -380h2l82 380h95zM305 686v-65h-210v65h210z" />
    <glyph glyph-name="Wgrave" unicode="&#x1e80;" horiz-adv-x="725" 
d="M707 725l-136 -725h-112l-95 532h-2l-96 -532h-113l-134 725h102l91 -582h2l102 582h95l100 -584h2l93 584h101zM237 871h112l54 -113h-76z" />
    <glyph glyph-name="wgrave" unicode="&#x1e81;" horiz-adv-x="587" 
d="M365 0l-71 377h-2l-70 -377h-101l-109 508h95l66 -404h2l76 404h85l75 -406h2l67 406h95l-109 -508h-101zM169 725h102l53 -138h-67z" />
    <glyph glyph-name="Wacute" unicode="&#x1e82;" horiz-adv-x="725" 
d="M707 725l-136 -725h-112l-95 532h-2l-96 -532h-113l-134 725h102l91 -582h2l102 582h95l100 -584h2l93 584h101zM367 871h112l-82 -113h-76z" />
    <glyph glyph-name="wacute" unicode="&#x1e83;" horiz-adv-x="587" 
d="M365 0l-71 377h-2l-70 -377h-101l-109 508h95l66 -404h2l76 404h85l75 -406h2l67 406h95l-109 -508h-101zM304 725h102l-79 -138h-66z" />
    <glyph glyph-name="Wdieresis" unicode="&#x1e84;" horiz-adv-x="725" 
d="M707 725l-136 -725h-112l-95 532h-2l-96 -532h-113l-134 725h102l91 -582h2l102 582h95l100 -584h2l93 584h101zM261 871h69v-104h-69v104zM396 871h70v-104h-70v104z" />
    <glyph glyph-name="wdieresis" unicode="&#x1e85;" horiz-adv-x="587" 
d="M365 0l-71 377h-2l-70 -377h-101l-109 508h95l66 -404h2l76 404h85l75 -406h2l67 406h95l-109 -508h-101zM202 725h68v-116h-68v116zM321 725h67v-116h-67v116z" />
    <glyph glyph-name="uni1E8A" unicode="&#x1e8a;" horiz-adv-x="460" 
d="M14 0l151 369l-147 356h109l103 -292h2l101 292h108l-146 -361l151 -364h-109l-108 298h-2l-106 -298h-107zM184 871h91v-104h-91v104z" />
    <glyph glyph-name="uni1E8B" unicode="&#x1e8b;" horiz-adv-x="396" 
d="M12 0l123 262l-117 246h101l80 -195h2l77 195h101l-118 -251l123 -257h-101l-86 205h-2l-82 -205h-101zM155 725h86v-116h-86v116z" />
    <glyph glyph-name="Ygrave" unicode="&#x1ef2;" horiz-adv-x="449" 
d="M445 725l-170 -492v-233h-101v233l-170 492h111l109 -381h2l109 381h110zM114 871h112l54 -113h-76z" />
    <glyph glyph-name="ygrave" unicode="&#x1ef3;" horiz-adv-x="400" 
d="M390 508l-147 -522q-22 -77 -59.5 -111t-101.5 -37l-7 71q36 5 56 23t30 57l6 24l-157 495h101l99 -381h2l84 381h94zM100 725h102l53 -138h-67z" />
    <glyph glyph-name="uni2007" unicode="&#x2007;" horiz-adv-x="425" 
 />
    <glyph glyph-name="uni2008" unicode="&#x2008;" horiz-adv-x="180" 
 />
    <glyph glyph-name="uni200B" unicode="&#x200b;" horiz-adv-x="0" 
 />
    <glyph glyph-name="uni2010" unicode="&#x2010;" horiz-adv-x="225" 
d="M21 252v85h184v-85h-184z" />
    <glyph glyph-name="endash" unicode="&#x2013;" horiz-adv-x="341" 
d="M20 262v74h301v-74h-301z" />
    <glyph glyph-name="emdash" unicode="&#x2014;" horiz-adv-x="490" 
d="M20 261v75h450v-75h-450z" />
    <glyph glyph-name="afii00208" unicode="&#x2015;" horiz-adv-x="490" 
d="M20 261v75h450v-75h-450z" />
    <glyph glyph-name="quoteleft" unicode="&#x2018;" horiz-adv-x="170" 
d="M132 692v-106h-94v81q0 85 48 156l34 -16q-22 -46 -24 -109z" />
    <glyph glyph-name="quoteright" unicode="&#x2019;" horiz-adv-x="170" 
d="M39 638v106h93v-80q0 -88 -47 -157l-35 16q24 52 25 109z" />
    <glyph glyph-name="quotesinglbase" unicode="&#x201a;" horiz-adv-x="170" 
d="M39 6v106h93v-80q0 -88 -47 -157l-35 16q24 52 25 109z" />
    <glyph glyph-name="quotedblleft" unicode="&#x201c;" horiz-adv-x="306" 
d="M269 692v-106h-94v81q0 85 48 156l34 -16q-22 -46 -24 -109zM132 692v-106h-94v81q0 85 48 156l34 -16q-22 -46 -24 -109z" />
    <glyph glyph-name="quotedblright" unicode="&#x201d;" horiz-adv-x="306" 
d="M176 638v106h93v-80q0 -88 -47 -157l-35 16q24 52 25 109zM39 639v106h93v-80q0 -88 -47 -157l-35 16q24 52 25 109z" />
    <glyph glyph-name="quotedblbase" unicode="&#x201e;" horiz-adv-x="301" 
d="M168 6v106h93v-80q0 -88 -47 -157l-35 16q24 52 25 109zM32 6v106h93v-80q0 -88 -47 -157l-35 16q24 52 25 109z" />
    <glyph glyph-name="dagger" unicode="&#x2020;" horiz-adv-x="357" 
d="M16 561l120 -5l-5 192h91l-4 -192l120 5v-94l-120 4l4 -620h-91l5 620l-120 -4v94z" />
    <glyph glyph-name="daggerdbl" unicode="&#x2021;" horiz-adv-x="357" 
d="M136 128v343l-120 -4v94l120 -5l-5 192h91l-4 -192l120 5v-94l-120 4v-343l120 5v-94l-120 4l4 -192h-91l5 192l-120 -4v94z" />
    <glyph glyph-name="bullet" unicode="&#x2022;" horiz-adv-x="224" 
d="M15 311q0 46 28 78.5t69 32.5t69.5 -32t28.5 -79q0 -46 -28.5 -78t-69.5 -32t-69 32t-28 78z" />
    <glyph glyph-name="ellipsis" unicode="&#x2026;" horiz-adv-x="541" 
d="M38 0v114h104v-114h-104zM218 0v114h104v-114h-104zM399 0v114h104v-114h-104z" />
    <glyph glyph-name="perthousand" unicode="&#x2030;" horiz-adv-x="741" 
d="M242 601v-58q0 -132 -106 -132q-107 0 -107 132v58q0 134 107 134q106 0 106 -134zM95 601v-58q0 -38 9.5 -53.5t31.5 -15.5q21 0 30.5 15.5t9.5 53.5v58q0 37 -9.5 53t-30.5 16q-22 0 -31.5 -15.5t-9.5 -53.5zM39 1l350 723h72l-351 -723h-71zM477 177v-58
q0 -132 -106 -132q-107 0 -107 132v58q0 64 27 99t80 35q52 0 79 -35t27 -99zM330 177v-58q0 -38 9.5 -53.5t31.5 -15.5q21 0 30.5 15.5t9.5 53.5v58q0 37 -9.5 53t-30.5 16t-31 -15.5t-10 -53.5zM721 177v-58q0 -64 -27.5 -98t-79.5 -34q-107 0 -107 132v58q0 64 27 99
t80 35q52 0 79.5 -35t27.5 -99zM574 177v-58q0 -38 9.5 -53.5t30.5 -15.5t30.5 15.5t9.5 53.5v58q0 38 -9.5 53.5t-30.5 15.5t-30.5 -15.5t-9.5 -53.5z" />
    <glyph glyph-name="guilsinglleft" unicode="&#x2039;" horiz-adv-x="217" 
d="M198 437l-102 -176l102 -176h-78l-101 176l101 176h78z" />
    <glyph glyph-name="guilsinglright" unicode="&#x203a;" horiz-adv-x="217" 
d="M19 85l103 176l-103 176h79l100 -176l-100 -176h-79z" />
    <glyph glyph-name="uni203D" unicode="&#x203d;" horiz-adv-x="437" 
d="M16 567q18 76 71.5 123t132.5 47q93 0 140 -49.5t47 -127.5q0 -151 -154 -241l-5 -108h-70l-5 185v256q-57 -21 -80 -105zM316 556q0 86 -67 101v-254h2q65 62 65 153zM160 0v114h104v-114h-104z" />
    <glyph glyph-name="fraction" unicode="&#x2044;" horiz-adv-x="234" 
d="M8 0h-61l321 725h61z" />
    <glyph glyph-name="uni2070" unicode="&#x2070;" horiz-adv-x="228" 
d="M208 692v-117q0 -49 -24.5 -77t-69.5 -28q-46 0 -70 27.5t-24 77.5v117q0 50 24 77.5t70 27.5q45 0 69.5 -28t24.5 -77zM78 691v-116q0 -30 8.5 -42.5t27.5 -12.5t27.5 12.5t8.5 42.5v116q0 53 -36 53t-36 -53z" />
    <glyph glyph-name="uni2074" unicode="&#x2074;" horiz-adv-x="228" 
d="M190 474h-52v58h-126v39l120 222h58v-214h31l-4 -47h-27v-58zM70 579h68l4 146h-2z" />
    <glyph glyph-name="uni2075" unicode="&#x2075;" horiz-adv-x="228" 
d="M65 614l-38 18l11 161h158l-3 -51h-108l-5 -76h2q19 11 44 11q80 0 80 -98q0 -109 -96 -109q-75 0 -91 72l44 14q13 -38 43 -38q22 0 31 14t9 47q0 50 -42 50q-22 0 -39 -15z" />
    <glyph glyph-name="uni2076" unicode="&#x2076;" horiz-adv-x="228" 
d="M119 797q66 0 84 -70l-41 -17q-11 37 -40 37q-44 0 -44 -57v-31h2q17 17 50 17q78 0 78 -95q0 -111 -94 -111q-45 0 -68.5 28t-23.5 80v107q0 49 26.5 80.5t70.5 31.5zM116 628q-15 0 -26 -7t-12 -17v-33q0 -51 38 -51q19 0 28 13.5t9 46.5q0 48 -37 48z" />
    <glyph glyph-name="uni2077" unicode="&#x2077;" horiz-adv-x="212" 
d="M102 474h-65l101 267h-124v52h185v-46z" />
    <glyph glyph-name="uni2078" unicode="&#x2078;" horiz-adv-x="228" 
d="M114 470q-96 0 -96 99q0 57 40 72v2q-33 16 -33 69q0 85 89 85t89 -85q0 -53 -34 -69v-2q40 -15 40 -72q0 -52 -24 -75.5t-71 -23.5zM152 571q0 26 -9.5 36t-28.5 10q-20 0 -29 -9.5t-9 -36.5q0 -31 9 -42.5t29 -11.5q21 0 29.5 11t8.5 43zM114 750q-19 0 -27 -9t-8 -35
t8 -36t27 -10t27 10t8 36t-8 35t-27 9z" />
    <glyph glyph-name="uni2079" unicode="&#x2079;" horiz-adv-x="228" 
d="M22 537l39 20q14 -38 46 -38q42 0 42 50v47h-2q-19 -16 -49 -16q-35 0 -57 23t-22 71q0 103 96 103q44 0 67 -26.5t23 -72.5v-127q0 -47 -25.5 -74t-69.5 -27q-69 0 -88 67zM111 646q14 0 25.5 7.5t12.5 18.5v32q0 45 -35 45q-21 0 -30 -11.5t-9 -39.5q0 -29 9 -40.5
t27 -11.5z" />
    <glyph glyph-name="uni207A" unicode="&#x207a;" horiz-adv-x="198" 
d="M78 532v74h-56v42h56v73h41v-73h57v-42h-57v-74h-41z" />
    <glyph glyph-name="uni207B" unicode="&#x207b;" horiz-adv-x="198" 
d="M176 606h-154v42h154v-42z" />
    <glyph glyph-name="uni207C" unicode="&#x207c;" horiz-adv-x="198" 
d="M167 637h-140v42h140v-42zM167 567h-140v42h140v-42z" />
    <glyph glyph-name="uni207D" unicode="&#x207d;" horiz-adv-x="124" 
d="M26 554v149q0 73 22 105.5t70 32.5h11v-39h-11q-45 0 -45 -99v-149q0 -99 45 -99h11v-39h-11q-48 0 -70 32.5t-22 105.5z" />
    <glyph glyph-name="uni207E" unicode="&#x207e;" horiz-adv-x="124" 
d="M98 703v-149q0 -73 -21.5 -105.5t-69.5 -32.5h-11v39h11q44 0 44 99v149q0 99 -44 99h-11v39h11q48 0 69.5 -32.5t21.5 -105.5z" />
    <glyph glyph-name="uni207F" unicode="&#x207f;" horiz-adv-x="234" 
d="M30 474v252h51l2 -24h2q23 28 57 28q32 0 48.5 -22.5t16.5 -58.5v-175h-56v172q0 36 -28 36q-23 0 -36 -23v-185h-57z" />
    <glyph glyph-name="uni2080" unicode="&#x2080;" horiz-adv-x="228" 
d="M208 101v-117q0 -49 -24.5 -77t-69.5 -28q-46 0 -70 27.5t-24 77.5v117q0 50 24 77.5t70 27.5q45 0 69.5 -28t24.5 -77zM78 100v-116q0 -30 8.5 -42.5t27.5 -12.5t27.5 12.5t8.5 42.5v116q0 53 -36 53t-36 -53z" />
    <glyph glyph-name="uni2081" unicode="&#x2081;" horiz-adv-x="183" 
d="M92 203h48v-320h-62v223h-55v42h23q24 0 33 10t13 45z" />
    <glyph glyph-name="uni2082" unicode="&#x2082;" horiz-adv-x="228" 
d="M116 206q43 0 65 -23.5t22 -60.5q0 -33 -16.5 -61.5t-37.5 -45.5t-40.5 -39.5t-23.5 -43.5h119v-49h-180l-1 26q1 34 20 66t41.5 52t41 45.5t18.5 47.5q0 36 -33 36q-34 0 -44 -49l-46 15q9 38 33 61t62 23z" />
    <glyph glyph-name="uni2083" unicode="&#x2083;" horiz-adv-x="228" 
d="M80 24v45h22q38 0 38 45q0 43 -32 43q-33 0 -44 -42l-44 15q8 35 32.5 55.5t60.5 20.5q44 0 65.5 -23.5t21.5 -61.5q0 -56 -38 -71v-2q43 -12 43 -72q0 -97 -94 -97q-74 0 -93 71l44 16q12 -39 46 -39q36 0 36 53q0 25 -10 34.5t-31 9.5h-23z" />
    <glyph glyph-name="uni2084" unicode="&#x2084;" horiz-adv-x="228" 
d="M190 -117h-52v58h-126v39l120 222h58v-214h31l-4 -47h-27v-58zM70 -12h68l4 146h-2z" />
    <glyph glyph-name="uni2085" unicode="&#x2085;" horiz-adv-x="228" 
d="M65 23l-38 18l11 161h158l-3 -51h-108l-5 -76h2q19 11 44 11q80 0 80 -98q0 -109 -96 -109q-75 0 -91 72l44 14q13 -38 43 -38q22 0 31 14t9 47q0 50 -42 50q-22 0 -39 -15z" />
    <glyph glyph-name="uni2086" unicode="&#x2086;" horiz-adv-x="228" 
d="M119 206q66 0 84 -70l-41 -17q-11 37 -40 37q-44 0 -44 -57v-31h2q17 17 50 17q78 0 78 -95q0 -111 -94 -111q-45 0 -68.5 28t-23.5 80v107q0 49 26.5 80.5t70.5 31.5zM116 37q-15 0 -26 -7t-12 -17v-33q0 -51 38 -51q19 0 28 13.5t9 46.5q0 48 -37 48z" />
    <glyph glyph-name="uni2087" unicode="&#x2087;" horiz-adv-x="212" 
d="M102 -117h-65l101 267h-124v52h185v-46z" />
    <glyph glyph-name="uni2088" unicode="&#x2088;" horiz-adv-x="228" 
d="M114 -121q-96 0 -96 99q0 57 40 72v2q-33 16 -33 69q0 85 89 85t89 -85q0 -53 -34 -69v-2q40 -15 40 -72q0 -52 -24 -75.5t-71 -23.5zM152 -20q0 26 -9.5 36t-28.5 10q-20 0 -29 -9.5t-9 -36.5q0 -31 9 -42.5t29 -11.5q21 0 29.5 11t8.5 43zM114 159q-19 0 -27 -9t-8 -35
t8 -36t27 -10t27 10t8 36t-8 35t-27 9z" />
    <glyph glyph-name="uni2089" unicode="&#x2089;" horiz-adv-x="228" 
d="M22 -54l39 20q14 -38 46 -38q42 0 42 50v47h-2q-19 -16 -49 -16q-35 0 -57 23t-22 71q0 103 96 103q44 0 67 -26.5t23 -72.5v-127q0 -47 -25.5 -74t-69.5 -27q-69 0 -88 67zM111 55q14 0 25.5 7.5t12.5 18.5v32q0 45 -35 45q-21 0 -30 -11.5t-9 -39.5q0 -29 9 -40.5
t27 -11.5z" />
    <glyph glyph-name="uni208A" unicode="&#x208a;" horiz-adv-x="198" 
d="M78 -59v74h-56v42h56v73h41v-73h57v-42h-57v-74h-41z" />
    <glyph glyph-name="uni208B" unicode="&#x208b;" horiz-adv-x="198" 
d="M176 15h-154v42h154v-42z" />
    <glyph glyph-name="uni208C" unicode="&#x208c;" horiz-adv-x="198" 
d="M167 46h-140v42h140v-42zM167 -24h-140v42h140v-42z" />
    <glyph glyph-name="uni208D" unicode="&#x208d;" horiz-adv-x="124" 
d="M26 -37v149q0 73 22 105.5t70 32.5h11v-39h-11q-45 0 -45 -99v-149q0 -99 45 -99h11v-39h-11q-48 0 -70 32.5t-22 105.5z" />
    <glyph glyph-name="uni208E" unicode="&#x208e;" horiz-adv-x="124" 
d="M98 112v-149q0 -73 -21.5 -105.5t-69.5 -32.5h-11v39h11q44 0 44 99v149q0 99 -44 99h-11v39h11q48 0 69.5 -32.5t21.5 -105.5z" />
    <glyph glyph-name="franc" unicode="&#x20a3;" horiz-adv-x="404" 
d="M4 101v70h55v554h319v-93h-218v-219h188v-87h-188v-155h79v-70h-79v-101h-101v101h-55z" />
    <glyph glyph-name="lira" unicode="&#x20a4;" horiz-adv-x="462" 
d="M43 364l-8 59h49q-7 63 -7 96q0 103 44 160t126 57q65 0 107.5 -40t54.5 -112l-73 -24q-18 87 -86 87q-80 0 -80 -138q0 -28 5 -86h184l-9 -59h-170l3 -33h161l-7 -56h-148q6 -68 6 -83q27 -12 51 -40l42.5 -49t38.5 -21q22 0 34 24t19 86l73 -18q-10 -98 -40 -141
t-80 -43q-27 0 -50 14.5t-35 29.5t-30.5 43t-25.5 37h-2q-15 -124 -102 -124q-36 0 -57.5 23.5t-21.5 64.5q0 52 29 84t80 38q-3 27 -11 75h-51l-7 56h48q-1 11 -5 33h-49zM94 57q28 0 29 89q-47 -8 -47 -61q0 -28 18 -28z" />
    <glyph glyph-name="peseta" unicode="&#x20a7;" horiz-adv-x="801" 
d="M172 725q141 0 141 -220q0 -107 -36 -162.5t-102 -55.5h-48v-287h-85v725h130zM783 396l-59 -18q-10 66 -47 66q-36 0 -36 -59q0 -25 15 -46t36 -39t42 -39t36 -54.5t15 -76.5q0 -65 -29.5 -102.5t-79.5 -37.5q-98 0 -115 134l62 16q9 -81 49 -81q39 0 39 66
q0 30 -15 54.5t-36.5 42.5l-43 37.5t-36.5 51t-15 71.5q0 62 29 99.5t79 37.5q45 0 73.5 -32.5t36.5 -90.5zM533 509v-76h-72v-324q0 -45 38 -45q11 0 29 8l11 -59q-29 -22 -67 -22q-89 0 -89 118v322l-42 12v64l45 3l20 134h55v-135h72zM127 644v-284h44q29 0 43 32.5
t14 111.5q0 80 -14 110t-43 30h-44z" />
    <glyph glyph-name="Euro" unicode="&#x20ac;" horiz-adv-x="447" 
d="M242 735q67 0 112.5 -43.5t57.5 -115.5l-77 -24q-18 87 -87 87q-88 0 -88 -123v-60h181l-10 -59h-171v-40h163l-10 -59h-153v-98q0 -57 22 -89t66 -32q37 0 57 22t30 77l78 -23q-13 -86 -56 -125.5t-117 -39.5q-84 0 -133 57t-49 152v99h-45v59h45v40h-45v59h45v59
q0 103 49 161.5t135 58.5z" />
    <glyph glyph-name="uni20B4" unicode="&#x20b4;" horiz-adv-x="417" 
d="M29 396v62h227q35 47 35 100q0 49 -17.5 73.5t-60.5 24.5q-77 0 -105 -93l-71 26q46 146 183 146q77 0 116.5 -47t39.5 -122q0 -58 -33 -108h45v-62h-99l-61 -53h160v-62h-218q-37 -54 -37 -115q0 -47 23 -72t65 -25q76 0 105 102l66 -24q-39 -157 -178 -157
q-84 0 -125 46t-41 123q0 67 35 122h-55v62h108l32 28.5l28 24.5h-167z" />
    <glyph glyph-name="afii61248" unicode="&#x2105;" horiz-adv-x="715" 
d="M163 736q46 0 78 -27.5t42 -70.5l-59 -21q-14 49 -55 49q-54 0 -54 -71v-173q0 -68 54 -68q23 0 35.5 12.5t18.5 41.5l61 -19q-20 -100 -122 -100q-59 0 -93.5 36t-34.5 97v173q0 66 34.5 103.5t94.5 37.5zM682 298v-161q0 -67 -36 -105t-103 -38q-66 0 -102 38t-36 105
v161q0 67 36 105t102 38q67 0 103 -38t36 -105zM602 137v161q0 39 -14 56.5t-45 17.5q-57 0 -57 -74v-161q0 -76 57 -76q31 0 45 18t14 58zM220 0h-59l321 725h58z" />
    <glyph glyph-name="afii61289" unicode="&#x2113;" horiz-adv-x="600" 
d="M144 247l-13 67q26 8 49 21q13 184 65.5 292.5t128.5 108.5q86 0 86 -115q0 -78 -57.5 -164.5t-144.5 -148.5q-1 -24 -1 -75q0 -95 9 -128t32 -33q20 0 40.5 33.5t33.5 74.5l62 -19q-18 -75 -60 -123.5t-91 -48.5q-56 0 -81 53t-25 181v38q-22 -10 -33 -14zM364 659
q-31 0 -59.5 -69t-41.5 -194h2q54 49 88.5 107t34.5 108q0 48 -24 48z" />
    <glyph glyph-name="afii61352" unicode="&#x2116;" horiz-adv-x="733" 
d="M58 725h76l211 -468h2v468h89v-725h-69l-218 483h-2v-483h-89v725zM694 630v-118q0 -48 -27.5 -76.5t-76.5 -28.5t-76 28t-27 77v117q0 48 27 77t76 29q51 0 77.5 -28.5t26.5 -76.5zM549 627v-113q0 -51 41 -51t41 52v112q0 52 -41 52t-41 -52zM490 320v57h208v-57h-208z
" />
    <glyph glyph-name="uni2117" unicode="&#x2117;" horiz-adv-x="603" 
d="M562 445v-168q0 -128 -68.5 -209.5t-192.5 -81.5t-192.5 81.5t-68.5 209.5v168q0 128 68.5 209.5t192.5 81.5t192.5 -81t68.5 -210zM501 277v168q0 105 -52.5 168t-147.5 63t-147 -63t-52 -168v-168q0 -105 52 -168t147 -63t147.5 63t52.5 168zM315 610q66 0 100.5 -39
t34.5 -114q0 -74 -34.5 -113t-98.5 -39h-57v-186h-76v491h131zM260 546v-181h53q32 0 46.5 21.5t14.5 70.5q0 48 -14.5 68.5t-46.5 20.5h-53z" />
    <glyph glyph-name="uni2120" unicode="&#x2120;" horiz-adv-x="497" 
d="M417 725h54v-320h-52v191h-2l-54 -143h-25l-54 143h-2v-191h-52v320h54l66 -187h2zM198 655l-43 -14q-12 43 -41 43q-33 0 -33 -33q0 -20 18.5 -36t40 -27t40 -36t18.5 -59q0 -41 -24.5 -66.5t-63.5 -25.5q-71 0 -90 79l43 15q6 -24 19 -35.5t27 -11.5q31 0 31 38
q0 22 -18.5 39t-40 27.5t-40 34.5t-18.5 58q0 38 24 62.5t65 24.5q33 0 55.5 -20.5t30.5 -56.5z" />
    <glyph glyph-name="trademark" unicode="&#x2122;" horiz-adv-x="472" 
d="M392 725h54v-320h-52v191h-2l-53 -143h-26l-53 143h-2v-191h-53v320h54l66 -187h2zM10 725h169v-52h-56v-268h-58v268h-55v52z" />
    <glyph glyph-name="Omega" unicode="&#x2126;" horiz-adv-x="473" 
d="M236 735q97 0 146.5 -51.5t49.5 -152.5v-170q0 -134 -100 -171v-101h98v-89h-170v248q37 8 53.5 33t16.5 78v170q0 115 -94 115t-94 -115v-170q0 -52 16.5 -77.5t54.5 -33.5v-248h-170v89h97v101q-99 39 -99 171v170q0 204 195 204z" />
    <glyph glyph-name="estimated" unicode="&#x212e;" horiz-adv-x="737" 
d="M703 339h-562v-97q0 -82 68 -144t175 -62q156 0 246 121l43 -31q-102 -138 -293 -138q-150 0 -248 97.5t-98 240.5q0 145 94 242.5t241 97.5t233.5 -90t100.5 -237zM141 423v-33h455v33q0 82 -61 138.5t-166 56.5q-102 0 -165 -58t-63 -137z" />
    <glyph glyph-name="uni2150" unicode="&#x2150;" horiz-adv-x="440" 
d="M92 726h48v-320h-62v223h-55v42h23q24 0 33 10t13 45zM70 0h-61l321 725h61zM330 0h-65l101 267h-124v52h185v-46z" />
    <glyph glyph-name="uni2151" unicode="&#x2151;" horiz-adv-x="456" 
d="M92 726h48v-320h-62v223h-55v42h23q24 0 33 10t13 45zM70 0h-61l321 725h61zM250 63l39 20q14 -38 46 -38q42 0 42 50v47h-2q-19 -16 -49 -16q-35 0 -57 23t-22 71q0 103 96 103q44 0 67 -26.5t23 -72.5v-127q0 -47 -25.5 -74t-69.5 -27q-69 0 -88 67zM339 172
q14 0 25.5 7.5t12.5 18.5v32q0 45 -35 45q-21 0 -30 -11.5t-9 -39.5q0 -29 9 -40.5t27 -11.5z" />
    <glyph glyph-name="uni2152" unicode="&#x2152;" horiz-adv-x="639" 
d="M92 726h48v-320h-62v223h-55v42h23q24 0 33 10t13 45zM70 0h-61l321 725h61zM320 320h48v-320h-62v223h-55v42h23q24 0 33 10t13 45zM619 218v-117q0 -49 -24.5 -77t-69.5 -28q-46 0 -70 27.5t-24 77.5v117q0 50 24 77.5t70 27.5q45 0 69.5 -28t24.5 -77zM489 217v-116
q0 -30 8.5 -42.5t27.5 -12.5t27.5 12.5t8.5 42.5v116q0 53 -36 53t-36 -53z" />
    <glyph glyph-name="onethird" unicode="&#x2153;" horiz-adv-x="488" 
d="M123 726h48v-320h-62v223h-55v42h23q24 0 33 10t13 45zM113 0h-61l321 725h61zM340 141v45h22q38 0 38 45q0 43 -32 43q-33 0 -44 -42l-44 15q8 35 32.5 55.5t60.5 20.5q44 0 65.5 -23.5t21.5 -61.5q0 -56 -38 -71v-2q43 -12 43 -72q0 -97 -94 -97q-74 0 -93 71l44 16
q12 -39 46 -39q36 0 36 53q0 25 -10 34.5t-31 9.5h-23z" />
    <glyph glyph-name="twothirds" unicode="&#x2154;" horiz-adv-x="488" 
d="M117 729q43 0 65 -23.5t22 -60.5q0 -33 -16.5 -61.5t-37.5 -45.5t-40.5 -39.5t-23.5 -43.5h119v-49h-180l-1 26q1 34 20 66t41.5 52t41 45.5t18.5 47.5q0 36 -33 36q-34 0 -44 -49l-46 15q9 38 33 61t62 23zM113 0h-61l321 725h61zM340 141v45h22q38 0 38 45q0 43 -32 43
q-33 0 -44 -42l-44 15q8 35 32.5 55.5t60.5 20.5q44 0 65.5 -23.5t21.5 -61.5q0 -56 -38 -71v-2q43 -12 43 -72q0 -97 -94 -97q-74 0 -93 71l44 16q12 -39 46 -39q36 0 36 53q0 25 -10 34.5t-31 9.5h-23z" />
    <glyph glyph-name="uni2155" unicode="&#x2155;" horiz-adv-x="488" 
d="M123 726h48v-320h-62v223h-55v42h23q24 0 33 10t13 45zM113 0h-61l321 725h61zM325 140l-38 18l11 161h158l-3 -51h-108l-5 -76h2q19 11 44 11q80 0 80 -98q0 -109 -96 -109q-75 0 -91 72l44 14q13 -38 43 -38q22 0 31 14t9 47q0 50 -42 50q-22 0 -39 -15z" />
    <glyph glyph-name="uni2156" unicode="&#x2156;" horiz-adv-x="488" 
d="M117 729q43 0 65 -23.5t22 -60.5q0 -33 -16.5 -61.5t-37.5 -45.5t-40.5 -39.5t-23.5 -43.5h119v-49h-180l-1 26q1 34 20 66t41.5 52t41 45.5t18.5 47.5q0 36 -33 36q-34 0 -44 -49l-46 15q9 38 33 61t62 23zM113 0h-61l321 725h61zM325 140l-38 18l11 161h158l-3 -51
h-108l-5 -76h2q19 11 44 11q80 0 80 -98q0 -109 -96 -109q-75 0 -91 72l44 14q13 -38 43 -38q22 0 31 14t9 47q0 50 -42 50q-22 0 -39 -15z" />
    <glyph glyph-name="uni2157" unicode="&#x2157;" horiz-adv-x="488" 
d="M81 547v45h22q38 0 38 45q0 43 -32 43q-33 0 -44 -42l-44 15q8 35 32.5 55.5t60.5 20.5q44 0 65.5 -23.5t21.5 -61.5q0 -56 -38 -71v-2q43 -12 43 -72q0 -97 -94 -97q-74 0 -93 71l44 16q12 -39 46 -39q36 0 36 53q0 25 -10 34.5t-31 9.5h-23zM113 0h-61l321 725h61z
M325 140l-38 18l11 161h158l-3 -51h-108l-5 -76h2q19 11 44 11q80 0 80 -98q0 -109 -96 -109q-75 0 -91 72l44 14q13 -38 43 -38q22 0 31 14t9 47q0 50 -42 50q-22 0 -39 -15z" />
    <glyph glyph-name="uni2158" unicode="&#x2158;" horiz-adv-x="488" 
d="M180 406h-52v58h-126v39l120 222h58v-214h31l-4 -47h-27v-58zM60 511h68l4 146h-2zM113 0h-61l321 725h61zM325 140l-38 18l11 161h158l-3 -51h-108l-5 -76h2q19 11 44 11q80 0 80 -98q0 -109 -96 -109q-75 0 -91 72l44 14q13 -38 43 -38q22 0 31 14t9 47q0 50 -42 50
q-22 0 -39 -15z" />
    <glyph glyph-name="uni2159" unicode="&#x2159;" horiz-adv-x="488" 
d="M123 726h48v-320h-62v223h-55v42h23q24 0 33 10t13 45zM113 0h-61l321 725h61zM379 323q66 0 84 -70l-41 -17q-11 37 -40 37q-44 0 -44 -57v-31h2q17 17 50 17q78 0 78 -95q0 -111 -94 -111q-45 0 -68.5 28t-23.5 80v107q0 49 26.5 80.5t70.5 31.5zM376 154q-15 0 -26 -7
t-12 -17v-33q0 -51 38 -51q19 0 28 13.5t9 46.5q0 48 -37 48z" />
    <glyph glyph-name="uni215A" unicode="&#x215a;" horiz-adv-x="488" 
d="M66 546l-38 18l11 161h158l-3 -51h-108l-5 -76h2q19 11 44 11q80 0 80 -98q0 -109 -96 -109q-75 0 -91 72l44 14q13 -38 43 -38q22 0 31 14t9 47q0 50 -42 50q-22 0 -39 -15zM113 0h-61l321 725h61zM379 323q66 0 84 -70l-41 -17q-11 37 -40 37q-44 0 -44 -57v-31h2
q17 17 50 17q78 0 78 -95q0 -111 -94 -111q-45 0 -68.5 28t-23.5 80v107q0 49 26.5 80.5t70.5 31.5zM376 154q-15 0 -26 -7t-12 -17v-33q0 -51 38 -51q19 0 28 13.5t9 46.5q0 48 -37 48z" />
    <glyph glyph-name="oneeighth" unicode="&#x215b;" horiz-adv-x="488" 
d="M123 726h48v-320h-62v223h-55v42h23q24 0 33 10t13 45zM113 0h-61l321 725h61zM374 -4q-96 0 -96 99q0 57 40 72v2q-33 16 -33 69q0 85 89 85t89 -85q0 -53 -34 -69v-2q40 -15 40 -72q0 -52 -24 -75.5t-71 -23.5zM412 97q0 26 -9.5 36t-28.5 10q-20 0 -29 -9.5t-9 -36.5
q0 -31 9 -42.5t29 -11.5q21 0 29.5 11t8.5 43zM374 276q-19 0 -27 -9t-8 -35t8 -36t27 -10t27 10t8 36t-8 35t-27 9z" />
    <glyph glyph-name="threeeighths" unicode="&#x215c;" horiz-adv-x="488" 
d="M81 547v45h22q38 0 38 45q0 43 -32 43q-33 0 -44 -42l-44 15q8 35 32.5 55.5t60.5 20.5q44 0 65.5 -23.5t21.5 -61.5q0 -56 -38 -71v-2q43 -12 43 -72q0 -97 -94 -97q-74 0 -93 71l44 16q12 -39 46 -39q36 0 36 53q0 25 -10 34.5t-31 9.5h-23zM113 0h-61l321 725h61z
M374 -4q-96 0 -96 99q0 57 40 72v2q-33 16 -33 69q0 85 89 85t89 -85q0 -53 -34 -69v-2q40 -15 40 -72q0 -52 -24 -75.5t-71 -23.5zM412 97q0 26 -9.5 36t-28.5 10q-20 0 -29 -9.5t-9 -36.5q0 -31 9 -42.5t29 -11.5q21 0 29.5 11t8.5 43zM374 276q-19 0 -27 -9t-8 -35t8 -36
t27 -10t27 10t8 36t-8 35t-27 9z" />
    <glyph glyph-name="fiveeighths" unicode="&#x215d;" horiz-adv-x="488" 
d="M66 546l-38 18l11 161h158l-3 -51h-108l-5 -76h2q19 11 44 11q80 0 80 -98q0 -109 -96 -109q-75 0 -91 72l44 14q13 -38 43 -38q22 0 31 14t9 47q0 50 -42 50q-22 0 -39 -15zM113 0h-61l321 725h61zM374 -4q-96 0 -96 99q0 57 40 72v2q-33 16 -33 69q0 85 89 85t89 -85
q0 -53 -34 -69v-2q40 -15 40 -72q0 -52 -24 -75.5t-71 -23.5zM412 97q0 26 -9.5 36t-28.5 10q-20 0 -29 -9.5t-9 -36.5q0 -31 9 -42.5t29 -11.5q21 0 29.5 11t8.5 43zM374 276q-19 0 -27 -9t-8 -35t8 -36t27 -10t27 10t8 36t-8 35t-27 9z" />
    <glyph glyph-name="seveneighths" unicode="&#x215e;" horiz-adv-x="488" 
d="M152 406h-65l101 267h-124v52h185v-46zM113 0h-61l321 725h61zM374 -4q-96 0 -96 99q0 57 40 72v2q-33 16 -33 69q0 85 89 85t89 -85q0 -53 -34 -69v-2q40 -15 40 -72q0 -52 -24 -75.5t-71 -23.5zM412 97q0 26 -9.5 36t-28.5 10q-20 0 -29 -9.5t-9 -36.5q0 -31 9 -42.5
t29 -11.5q21 0 29.5 11t8.5 43zM374 276q-19 0 -27 -9t-8 -35t8 -36t27 -10t27 10t8 36t-8 35t-27 9z" />
    <glyph glyph-name="uni215F" unicode="&#x215f;" horiz-adv-x="488" 
d="M123 726h48v-320h-62v223h-55v42h23q24 0 33 10t13 45zM113 0h-61l321 725h61z" />
    <glyph glyph-name="uni2189" unicode="&#x2189;" horiz-adv-x="501" 
d="M208 624v-117q0 -49 -24.5 -77t-69.5 -28q-46 0 -70 27.5t-24 77.5v117q0 50 24 77.5t70 27.5q45 0 69.5 -28t24.5 -77zM78 623v-116q0 -30 8.5 -42.5t27.5 -12.5t27.5 12.5t8.5 42.5v116q0 53 -36 53t-36 -53zM115 0h-61l321 725h61zM353 141v45h22q38 0 38 45
q0 43 -32 43q-33 0 -44 -42l-44 15q8 35 32.5 55.5t60.5 20.5q44 0 65.5 -23.5t21.5 -61.5q0 -56 -38 -71v-2q43 -12 43 -72q0 -97 -94 -97q-74 0 -93 71l44 16q12 -39 46 -39q36 0 36 53q0 25 -10 34.5t-31 9.5h-23z" />
    <glyph glyph-name="partialdiff" unicode="&#x2202;" horiz-adv-x="395" 
d="M212 518q58 0 87 -34h2q0 4 0.5 11.5t0.5 10.5q0 141 -135 169l26 66q101 -17 143.5 -77.5t42.5 -159.5q0 -46 -8 -105l-33 -225q-12 -84 -62.5 -133.5t-129.5 -49.5q-66 0 -100.5 36t-34.5 99q0 19 3 40l27 178q12 79 56.5 126.5t114.5 47.5zM245 166l26 175q3 20 3 34
q0 63 -56 63q-70 0 -85 -97l-27 -175q-3 -20 -3 -36q0 -62 56 -62q71 0 86 98z" />
    <glyph glyph-name="Delta" unicode="&#x2206;" horiz-adv-x="478" 
d="M9 0l186 725h89l185 -725h-460zM239 588l-111 -500h220l-107 500h-2z" />
    <glyph glyph-name="product" unicode="&#x220f;" horiz-adv-x="487" 
d="M20 725h447v-92h-53v-696h-93v696h-157v-696h-91v696h-53v92z" />
    <glyph glyph-name="summation" unicode="&#x2211;" horiz-adv-x="433" 
d="M26 725h382v-93h-252l148 -286l-150 -317h261v-92h-389v48l176 361l-176 326v53z" />
    <glyph glyph-name="minus" unicode="&#x2212;" horiz-adv-x="379" 
d="M340 273h-300v74h300v-74z" />
    <glyph glyph-name="uni2215" unicode="&#x2215;" horiz-adv-x="234" 
d="M8 0h-61l321 725h61z" />
    <glyph glyph-name="uni2219" unicode="&#x2219;" horiz-adv-x="425" 
d="M115 311q0 46 28 78.5t69 32.5t69.5 -32t28.5 -79q0 -46 -28.5 -78t-69.5 -32t-69 32t-28 78z" />
    <glyph glyph-name="radical" unicode="&#x221a;" horiz-adv-x="471" 
d="M469 748l-179 -748h-108l-110 421l-65 14v73h152l76 -374h2l123 614h109z" />
    <glyph glyph-name="infinity" unicode="&#x221e;" horiz-adv-x="486" 
d="M455 284q0 -73 -27.5 -110.5t-70.5 -37.5q-34 0 -59.5 20.5t-54.5 65.5q-30 -45 -55.5 -65.5t-59.5 -20.5q-42 0 -69.5 37.5t-27.5 110.5t27.5 110.5t69.5 37.5q34 0 59 -20.5t56 -65.5q30 45 55 65.5t59 20.5q43 0 70.5 -37.5t27.5 -110.5zM208 284q-27 43 -41 59
t-31 16q-39 0 -39 -75q0 -74 39 -74q17 0 31.5 16t40.5 58zM278 284q26 -42 40 -58t31 -16q39 0 39 74q0 75 -39 75q-17 0 -30.5 -16t-40.5 -59z" />
    <glyph glyph-name="integral" unicode="&#x222b;" horiz-adv-x="187" 
d="M210 841l7 -75q-37 -6 -54 -31.5t-17 -80.5v-629q0 -177 -156 -188l-7 75q37 6 54 31.5t17 80.5v629q0 177 156 188z" />
    <glyph glyph-name="approxequal" unicode="&#x2248;" horiz-adv-x="379" 
d="M331 416v-74q-38 -22 -76 -22q-27 0 -72 15.5t-68 15.5q-35 0 -67 -22v75q37 21 75 21q29 0 75 -16.5t69 -16.5q33 0 64 24zM331 276v-74q-39 -23 -76 -23q-27 0 -72 16.5t-68 16.5q-33 0 -67 -22v74q40 22 76 22q28 0 75 -16.5t69 -16.5q32 0 63 23z" />
    <glyph glyph-name="notequal" unicode="&#x2260;" horiz-adv-x="379" 
d="M295 486l-31 -76h67v-75h-98l-27 -64h125v-76h-156l-41 -99l-48 21l32 78h-70v76h101l27 64h-128v75h159l40 98z" />
    <glyph glyph-name="lessequal" unicode="&#x2264;" horiz-adv-x="379" 
d="M321 433l-154 -104l154 -101v-99l-279 196v10l279 199v-101zM46 35v71h276v-71h-276z" />
    <glyph glyph-name="greaterequal" unicode="&#x2265;" horiz-adv-x="379" 
d="M58 228l153 101l-153 104v101l279 -199v-10l-279 -196v99zM333 106v-71h-275v71h275z" />
    <glyph glyph-name="dotmath" unicode="&#x22c5;" horiz-adv-x="425" 
d="M152 322q0 27 17 46.5t42 19.5t43 -19.5t18 -46.5q0 -28 -18 -47t-43 -19t-42 19t-17 47z" />
    <glyph glyph-name="lozenge" unicode="&#x25ca;" horiz-adv-x="355" 
d="M32 299l145 250l146 -250l-146 -252zM106 298l71 -121l71 121l-71 122z" />
    <glyph glyph-name="uni2E18" unicode="&#x2e18;" horiz-adv-x="436" 
d="M421 64q-18 -76 -71.5 -123t-132.5 -47q-93 0 -140 49.5t-47 127.5q0 151 154 241l5 108h70l5 -185v-256q57 21 80 105zM121 75q0 -86 67 -101v254h-2q-65 -62 -65 -153zM277 631v-114h-104v114h104z" />
    <glyph glyph-name="uniFB00" unicode="&#xfb00;" horiz-adv-x="479" 
d="M467 507v-73h-91v-434h-92v434h-132v-434h-92v434h-48v73h48v48q0 78 43 124.5t133 49.5l5 -71q-93 -4 -93 -105v-46h136v48q0 78 43 124.5t133 49.5l5 -71q-93 -4 -93 -105v-46h95z" />
    <glyph glyph-name="fi" unicode="&#xfb01;" horiz-adv-x="427" 
d="M236 729l5 -71q-93 -4 -93 -105v-46h227v-507h-92v434h-131v-434h-92v434h-48v73h48v48q0 78 43 124.5t133 49.5zM290 725h81v-116h-81v116z" />
    <glyph glyph-name="fl" unicode="&#xfb02;" horiz-adv-x="436" 
d="M235 507v-74h-83v-433h-92v433h-48v74h48v48q0 80 45.5 126.5t142.5 46.5h40v20h92v-748h-92v658h-38q-53 0 -77.5 -25.5t-24.5 -79.5v-46h87z" />
    <glyph glyph-name="uniFB03" unicode="&#xfb03;" horiz-adv-x="650" 
d="M459 729l5 -71q-93 -4 -93 -105v-46h227v-507h-92v434h-131v-434h-92v434h-131v-434h-92v434h-48v73h48v48q0 78 43 124.5t133 49.5l5 -71q-93 -4 -93 -105v-46h135v48q0 78 43 124.5t133 49.5zM513 725h81v-116h-81v116z" />
    <glyph glyph-name="uniFB04" unicode="&#xfb04;" horiz-adv-x="658" 
d="M457 507v-73h-82v-434h-92v434h-131v-434h-92v434h-48v73h48v48q0 78 43 124.5t133 49.5l5 -71q-93 -4 -93 -105v-46h135v48q0 80 45.5 126.5t142.5 46.5h39v20h92v-748h-92v658h-37q-54 0 -78 -25.5t-24 -79.5v-46h86z" />
    <glyph glyph-name="caron.alt001" horiz-adv-x="218" 
d="M89 725h78l-46 -139h-50z" />
    <glyph glyph-name="ogonek.alt001" horiz-adv-x="218" 
d="M115 14l39 -14q-23 0 -37.5 -19.5t-14.5 -41.5q0 -42 38 -42q23 0 46 16l17 -51q-33 -28 -83 -28q-45 0 -68 20.5t-23 55.5t23 63.5t63 40.5z" />
    <glyph glyph-name="i.latn_TRK" horiz-adv-x="198" 
d="M53 508h92v-508h-92v508zM56 725h86v-116h-86v116z" />
    <glyph glyph-name="Ldot.latn_CAT" horiz-adv-x="382" 
d="M265 451h76v-102h-76v102zM58 725h99v-631h208v-94h-307v725z" />
    <glyph glyph-name="ldot.latn_CAT" horiz-adv-x="230" 
d="M189 443h53v-128h-53v128zM55 748h92v-748h-92v748z" />
    <glyph glyph-name="afii10066.cyrl_SRB" horiz-adv-x="391" 
d="M356 355v-195q0 -77 -42 -123t-119 -46t-119 45.5t-42 120.5v187q0 110 87 146v2q-61 32 -61 101q0 115 154 125l107 7l7 -79q-17 -4 -84 -6q-56 -1 -75.5 -12.5t-19.5 -33.5q0 -21 21.5 -36t51.5 -28.5t60.5 -31.5t52 -54.5t21.5 -88.5zM264 350q0 72 -72 107
q-67 -25 -67 -106v-191q0 -93 70 -93q69 0 69 93v190z" />
    <glyph glyph-name="numbersign.subs" horiz-adv-x="238" 
d="M17 78v38h43l7 90h40l-7 -90h46l7 90h40l-7 -90h35v-38h-35l-5 -67h40v-38h-41l-7 -90h-40l7 90h-46l-7 -90h-40l7 90h-37v38h38l5 67h-43zM100 78l-5 -67h46l4 67h-45z" />
    <glyph glyph-name="dollar.subs" horiz-adv-x="221" 
d="M103 252h34l1 -51q47 -13 64 -67l-39 -14q-10 27 -29 35l-6 -88q17 -8 27.5 -15t23 -18.5t19 -27t6.5 -35.5q0 -39 -21.5 -63t-58.5 -29l-6 -44h-33l-1 46q-55 10 -72 74l41 15q9 -30 34 -41l6 93q-24 11 -38 20.5t-27 29.5t-13 47q0 36 22 59.5t60 26.5zM156 -38
q0 24 -30 43h-2v-79q32 5 32 36zM66 125q0 -22 28 -41h2l1 75q-31 -6 -31 -34z" />
    <glyph glyph-name="comma.subs" horiz-adv-x="122" 
d="M29 -115v71h64v-57q0 -92 -62 -99l-4 31q17 4 23.5 15.5t6.5 38.5h-28z" />
    <glyph glyph-name="period.subs" horiz-adv-x="122" 
d="M29 -117v73h64v-73h-64z" />
    <glyph glyph-name="n.subs" horiz-adv-x="234" 
d="M30 -117v252h51l2 -24h2q23 28 57 28q32 0 48.5 -22.5t16.5 -58.5v-175h-56v172q0 36 -28 36q-23 0 -36 -23v-185h-57z" />
    <glyph glyph-name="cent.subs" horiz-adv-x="210" 
d="M201 132l-41 -14q-9 40 -41 40q-41 0 -41 -58v-116q0 -61 40 -61q32 0 42 44l42 -14q-15 -62 -66 -72l-6 -46h-35l-2 46q-72 13 -72 102v119q0 42 19 69.5t56 33.5l8 47h35l1 -50q45 -12 61 -70z" />
    <glyph glyph-name="sterling.subs" horiz-adv-x="247" 
d="M23 26l-5 40h28q-5 28 -5 45q0 46 24 73t68 27q36 0 60 -19.5t31 -51.5l-44 -16q-10 36 -43 36q-39 0 -39 -56q0 -16 3 -38h88l-5 -40h-78q2 -13 5 -48q12 -6 31 -26t32 -20q22 0 27 43l43 -12q-12 -85 -66 -85q-20 0 -34 10.5t-37 40.5h-2q-10 -51 -56 -51
q-20 0 -32 12.5t-12 34.5q0 23 15.5 38.5t42.5 18.5l-10 44h-30zM54 -83q12 0 13 34q-20 -3 -20 -23q0 -11 7 -11z" />
    <glyph glyph-name="currency.subs" horiz-adv-x="173" 
d="M30 50q0 17 7 30l-18 20l20 22l19 -21q13 8 28 8q16 0 29 -8l21 22l19 -22l-20 -22q8 -13 8 -29q0 -17 -8 -31l19 -20l-20 -22l-20 20q-11 -7 -28 -7q-15 0 -28 8l-20 -22l-20 21l20 22q-8 14 -8 31zM63 49q0 -11 6.5 -18t17.5 -7q10 0 16.5 7t6.5 18q0 12 -6.5 19
t-16.5 7q-24 0 -24 -26z" />
    <glyph glyph-name="yen.subs" horiz-adv-x="260" 
d="M212 -58h-49v-59h-63v59h-52v38h52v17h-52v38h40l-81 171h71l52 -148h2l52 148h71l-81 -171h38v-38h-49v-17h49v-38z" />
    <glyph glyph-name="franc.subs" horiz-adv-x="223" 
d="M2 -75v39h27v242h181v-54h-117v-82h100v-50h-100v-56h39v-39h-39v-42h-64v42h-27z" />
    <glyph glyph-name="lira.subs" horiz-adv-x="247" 
d="M23 46l-5 31h26q-3 18 -3 34q0 46 24 73t68 27q36 0 60 -19.5t31 -51.5l-44 -16q-10 36 -43 36q-39 0 -39 -56q0 -17 1 -27h94l-5 -31h-85q2 -10 2 -13h80l-4 -30h-72q2 -26 2 -32q12 -5 31 -22t32 -17q22 0 27 43l43 -12q-12 -85 -66 -85q-19 0 -34.5 11t-36.5 39h-2
q-11 -50 -56 -50q-20 0 -32 11.5t-12 31.5q0 50 59 55q-2 10 -6 27h-28l-4 30h26l-3 13h-26zM53 -85q13 0 14 34q-21 -2 -21 -23q0 -11 7 -11z" />
    <glyph glyph-name="peseta.subs" horiz-adv-x="417" 
d="M93 206q74 0 74 -102q0 -49 -19 -74.5t-53 -25.5h-24v-121h-52v323h74zM409 59l-32 -12q-7 28 -23 28q-15 0 -15 -23q0 -12 11 -22.5t24 -19t24 -26t11 -40.5q0 -31 -15 -48.5t-43 -17.5q-50 0 -60 60l33 11q7 -33 25 -33q17 0 17 25q0 14 -11 26t-25 19.5t-25 24.5
t-11 40q0 28 15 46t41 18q48 0 59 -56zM279 110v-40h-34v-132q0 -19 18 -19q3 0 13 2l5 -32q-15 -10 -35 -10q-48 0 -48 61v128l-19 7v35l21 2l12 59h33v-61h34zM71 161v-116h21q23 0 23 59q0 57 -23 57h-21z" />
    <glyph glyph-name="Euro.subs" horiz-adv-x="242" 
d="M130 210q36 0 61.5 -20.5t33.5 -52.5l-46 -16q-9 35 -44 35q-44 0 -44 -54v-15h97l-6 -30h-91v-16h88l-6 -30h-82v-29q0 -53 45 -53q33 0 43 40l46 -16q-17 -75 -95 -75q-47 0 -75 28.5t-28 75.5v29h-21v30h21v16h-21v30h21v15q0 51 27.5 79.5t75.5 28.5z" />
    <glyph glyph-name="numbersign.sups" horiz-adv-x="238" 
d="M17 669v38h43l7 90h40l-7 -90h46l7 90h40l-7 -90h35v-38h-35l-5 -67h40v-38h-41l-7 -90h-40l7 90h-46l-7 -90h-40l7 90h-37v38h38l5 67h-43zM100 669l-5 -67h46l4 67h-45z" />
    <glyph glyph-name="dollar.sups" horiz-adv-x="221" 
d="M103 843h34l1 -51q47 -13 64 -67l-39 -14q-10 27 -29 35l-6 -88q17 -8 27.5 -15t23 -18.5t19 -27t6.5 -35.5q0 -39 -21.5 -63t-58.5 -29l-6 -44h-33l-1 45q-56 12 -72 75l41 15q9 -30 34 -41l6 93q-24 11 -38 20.5t-27 29.5t-13 47q0 36 22 59.5t60 26.5zM156 553
q0 24 -30 43h-2v-79q32 5 32 36zM66 716q0 -22 28 -41h2l1 75q-31 -6 -31 -34z" />
    <glyph glyph-name="comma.sups" horiz-adv-x="122" 
d="M29 476v71h64v-57q0 -92 -62 -99l-4 31q17 4 23.5 15.5t6.5 38.5h-28z" />
    <glyph glyph-name="period.sups" horiz-adv-x="122" 
d="M29 474v73h64v-73h-64z" />
    <glyph glyph-name="cent.sups" horiz-adv-x="210" 
d="M201 723l-41 -14q-9 40 -41 40q-41 0 -41 -58v-116q0 -61 40 -61q32 0 42 44l42 -14q-15 -62 -66 -72l-6 -46h-35l-2 46q-72 13 -72 102v119q0 42 19 69.5t56 33.5l8 47h35l1 -50q45 -12 61 -70z" />
    <glyph glyph-name="sterling.sups" horiz-adv-x="247" 
d="M23 617l-5 40h28q-5 28 -5 45q0 46 24 73t68 27q36 0 60 -19.5t31 -51.5l-44 -16q-10 36 -43 36q-39 0 -39 -56q0 -15 3 -38h88l-5 -40h-78q2 -13 5 -48q12 -6 31 -26t32 -20q22 0 27 43l43 -12q-12 -85 -66 -85q-21 0 -32 8.5t-39 42.5h-2q-10 -51 -56 -51
q-20 0 -32 12.5t-12 34.5q0 23 15.5 38.5t42.5 18.5l-10 44h-30zM54 508q12 0 13 34q-20 -2 -20 -23q0 -11 7 -11z" />
    <glyph glyph-name="currency.sups" horiz-adv-x="173" 
d="M30 641q0 17 7 30l-18 20l20 22l19 -21q13 8 28 8q16 0 29 -8l21 22l19 -22l-20 -22q8 -13 8 -29q0 -17 -8 -31l19 -20l-20 -22l-20 20q-11 -7 -28 -7q-15 0 -28 8l-20 -22l-20 21l20 22q-8 14 -8 31zM63 640q0 -11 6.5 -18t17.5 -7q10 0 16.5 7t6.5 18q0 12 -6.5 19
t-16.5 7q-24 0 -24 -26z" />
    <glyph glyph-name="yen.sups" horiz-adv-x="260" 
d="M212 533h-49v-59h-63v59h-52v38h52v17h-52v38h40l-81 171h71l52 -148h2l52 148h71l-81 -171h38v-38h-49v-17h49v-38z" />
    <glyph glyph-name="franc.sups" horiz-adv-x="223" 
d="M2 516v39h27v242h181v-54h-117v-82h100v-50h-100v-56h39v-39h-39v-42h-64v42h-27z" />
    <glyph glyph-name="lira.sups" horiz-adv-x="247" 
d="M23 637l-5 31h26q-3 18 -3 34q0 46 24 73t68 27q36 0 60 -19.5t31 -51.5l-44 -16q-10 36 -43 36q-39 0 -39 -56q0 -17 1 -27h94l-5 -31h-85q2 -10 2 -13h80l-4 -30h-72q2 -26 2 -32q12 -5 31 -22t32 -17q22 0 27 43l43 -12q-12 -85 -66 -85q-20 0 -34.5 10.5t-36.5 39.5
h-2q-11 -50 -56 -50q-20 0 -32 11.5t-12 31.5q0 50 59 55q-2 11 -6 27h-28l-4 30h26l-3 13h-26zM53 506q13 0 14 34q-21 -2 -21 -23q0 -11 7 -11z" />
    <glyph glyph-name="peseta.sups" horiz-adv-x="417" 
d="M93 797q74 0 74 -102q0 -49 -19 -74.5t-53 -25.5h-24v-121h-52v323h74zM409 650l-32 -12q-7 28 -23 28q-15 0 -15 -23q0 -12 11 -22.5t24 -19t24 -26t11 -40.5q0 -31 -15 -48.5t-43 -17.5q-50 0 -60 60l33 11q7 -33 25 -33q17 0 17 25q0 14 -11 26t-25 19.5t-25 24.5
t-11 40q0 28 15 46t41 18q48 0 59 -56zM279 701v-40h-34v-132q0 -19 18 -19q3 0 13 2l5 -32q-15 -10 -35 -10q-48 0 -48 61v128l-19 7v35l21 2l12 59h33v-61h34zM71 752v-116h21q23 0 23 59q0 57 -23 57h-21z" />
    <glyph glyph-name="Euro.sups" horiz-adv-x="242" 
d="M130 801q36 0 61.5 -20.5t33.5 -52.5l-46 -16q-9 35 -44 35q-44 0 -44 -54v-15h97l-6 -30h-91v-16h88l-6 -30h-82v-29q0 -53 45 -53q33 0 43 40l46 -16q-17 -75 -95 -75q-47 0 -75 28.5t-28 75.5v29h-21v30h21v16h-21v30h21v15q0 51 27.5 79.5t75.5 28.5z" />
    <glyph glyph-name="numbersign.numr" horiz-adv-x="238" 
d="M17 601v38h43l7 90h40l-7 -90h46l7 90h40l-7 -90h35v-38h-35l-5 -67h40v-38h-41l-7 -90h-40l7 90h-46l-7 -90h-40l7 90h-37v38h38l5 67h-43zM100 601l-5 -67h46l4 67h-45z" />
    <glyph glyph-name="dollar.numr" horiz-adv-x="221" 
d="M103 775h34l1 -51q47 -13 64 -67l-39 -14q-10 27 -29 35l-6 -88q17 -8 27.5 -15t23 -18.5t19 -27t6.5 -35.5q0 -39 -21.5 -63t-58.5 -29l-6 -44h-33l-1 45q-56 12 -72 75l41 15q9 -30 34 -41l6 93q-24 11 -38 20.5t-27 29.5t-13 47q0 36 22 59.5t60 26.5zM156 485
q0 24 -30 43h-2v-79q32 5 32 36zM66 648q0 -22 28 -41h2l1 75q-31 -6 -31 -34z" />
    <glyph glyph-name="parenleft.numr" horiz-adv-x="124" 
d="M26 486v149q0 73 22 105.5t70 32.5h11v-39h-11q-45 0 -45 -99v-149q0 -99 45 -99h11v-39h-11q-48 0 -70 32.5t-22 105.5z" />
    <glyph glyph-name="parenright.numr" horiz-adv-x="124" 
d="M98 635v-149q0 -73 -21.5 -105.5t-69.5 -32.5h-11v39h11q44 0 44 99v149q0 99 -44 99h-11v39h11q48 0 69.5 -32.5t21.5 -105.5z" />
    <glyph glyph-name="plus.numr" horiz-adv-x="198" 
d="M78 464v74h-56v42h56v73h41v-73h57v-42h-57v-74h-41z" />
    <glyph glyph-name="comma.numr" horiz-adv-x="122" 
d="M29 408v71h64v-57q0 -92 -62 -99l-4 31q17 4 23.5 15.5t6.5 38.5h-28z" />
    <glyph glyph-name="period.numr" horiz-adv-x="122" 
d="M29 406v73h64v-73h-64z" />
    <glyph glyph-name="zero.numr" horiz-adv-x="228" 
d="M208 624v-117q0 -49 -24.5 -77t-69.5 -28q-46 0 -70 27.5t-24 77.5v117q0 50 24 77.5t70 27.5q45 0 69.5 -28t24.5 -77zM78 623v-116q0 -30 8.5 -42.5t27.5 -12.5t27.5 12.5t8.5 42.5v116q0 53 -36 53t-36 -53z" />
    <glyph glyph-name="one.numr" horiz-adv-x="183" 
d="M92 726h48v-320h-62v223h-55v42h23q24 0 33 10t13 45z" />
    <glyph glyph-name="two.numr" horiz-adv-x="228" 
d="M116 729q43 0 65 -23.5t22 -60.5q0 -33 -16.5 -61.5t-37.5 -45.5t-40.5 -39.5t-23.5 -43.5h119v-49h-180l-1 26q1 34 20 66t41.5 52t41 45.5t18.5 47.5q0 36 -33 36q-34 0 -44 -49l-46 15q9 38 33 61t62 23z" />
    <glyph glyph-name="three.numr" horiz-adv-x="228" 
d="M80 547v45h22q38 0 38 45q0 43 -32 43q-33 0 -44 -42l-44 15q8 35 32.5 55.5t60.5 20.5q44 0 65.5 -23.5t21.5 -61.5q0 -56 -38 -71v-2q43 -12 43 -72q0 -97 -94 -97q-74 0 -93 71l44 16q12 -39 46 -39q36 0 36 53q0 25 -10 34.5t-31 9.5h-23z" />
    <glyph glyph-name="four.numr" horiz-adv-x="228" 
d="M190 406h-52v58h-126v39l120 222h58v-214h31l-4 -47h-27v-58zM70 511h68l4 146h-2z" />
    <glyph glyph-name="five.numr" horiz-adv-x="228" 
d="M65 546l-38 18l11 161h158l-3 -51h-108l-5 -76h2q19 11 44 11q80 0 80 -98q0 -109 -96 -109q-75 0 -91 72l44 14q13 -38 43 -38q22 0 31 14t9 47q0 50 -42 50q-22 0 -39 -15z" />
    <glyph glyph-name="six.numr" horiz-adv-x="228" 
d="M119 729q66 0 84 -70l-41 -17q-11 37 -40 37q-44 0 -44 -57v-31h2q17 17 50 17q78 0 78 -95q0 -111 -94 -111q-45 0 -68.5 28t-23.5 80v107q0 49 26.5 80.5t70.5 31.5zM116 560q-15 0 -26 -7t-12 -17v-33q0 -51 38 -51q19 0 28 13.5t9 46.5q0 48 -37 48z" />
    <glyph glyph-name="seven.numr" horiz-adv-x="212" 
d="M102 406h-65l101 267h-124v52h185v-46z" />
    <glyph glyph-name="eight.numr" horiz-adv-x="228" 
d="M114 402q-96 0 -96 99q0 57 40 72v2q-33 16 -33 69q0 85 89 85t89 -85q0 -53 -34 -69v-2q40 -15 40 -72q0 -52 -24 -75.5t-71 -23.5zM152 503q0 26 -9.5 36t-28.5 10q-20 0 -29 -9.5t-9 -36.5q0 -31 9 -42.5t29 -11.5q21 0 29.5 11t8.5 43zM114 682q-19 0 -27 -9t-8 -35
t8 -36t27 -10t27 10t8 36t-8 35t-27 9z" />
    <glyph glyph-name="nine.numr" horiz-adv-x="228" 
d="M22 469l39 20q14 -38 46 -38q42 0 42 50v47h-2q-19 -16 -49 -16q-35 0 -57 23t-22 71q0 103 96 103q44 0 67 -26.5t23 -72.5v-127q0 -47 -25.5 -74t-69.5 -27q-69 0 -88 67zM111 578q14 0 25.5 7.5t12.5 18.5v32q0 45 -35 45q-21 0 -30 -11.5t-9 -39.5q0 -29 9 -40.5
t27 -11.5z" />
    <glyph glyph-name="equal.numr" horiz-adv-x="198" 
d="M167 569h-140v42h140v-42zM167 499h-140v42h140v-42z" />
    <glyph glyph-name="n.numr" horiz-adv-x="234" 
d="M30 406v252h51l2 -24h2q23 28 57 28q32 0 48.5 -22.5t16.5 -58.5v-175h-56v172q0 36 -28 36q-23 0 -36 -23v-185h-57z" />
    <glyph glyph-name="cent.numr" horiz-adv-x="210" 
d="M201 655l-41 -14q-9 40 -41 40q-41 0 -41 -58v-116q0 -61 40 -61q32 0 42 44l42 -14q-15 -62 -66 -72l-6 -46h-35l-2 46q-72 13 -72 102v119q0 42 19 69.5t56 33.5l8 47h35l1 -50q45 -12 61 -70z" />
    <glyph glyph-name="sterling.numr" horiz-adv-x="247" 
d="M23 549l-5 40h28q-5 28 -5 45q0 46 24 73t68 27q36 0 60 -19.5t31 -51.5l-44 -16q-10 36 -43 36q-39 0 -39 -56q0 -15 3 -38h88l-5 -40h-78q2 -13 5 -48q12 -6 31 -26t32 -20q22 0 27 43l43 -12q-12 -85 -66 -85q-21 0 -34.5 10.5t-36.5 40.5h-2q-10 -51 -56 -51
q-20 0 -32 12.5t-12 34.5q0 23 15.5 38.5t42.5 18.5l-10 44h-30zM54 440q12 0 13 34q-20 -2 -20 -23q0 -11 7 -11z" />
    <glyph glyph-name="currency.numr" horiz-adv-x="173" 
d="M30 573q0 17 7 30l-18 20l20 22l19 -21q13 8 28 8q16 0 29 -8l21 22l19 -22l-20 -22q8 -13 8 -29q0 -17 -8 -31l19 -20l-20 -22l-20 20q-11 -7 -28 -7q-15 0 -28 8l-20 -22l-20 21l20 22q-8 14 -8 31zM63 572q0 -11 6.5 -18t17.5 -7q10 0 16.5 7t6.5 18q0 12 -6.5 19
t-16.5 7q-24 0 -24 -26z" />
    <glyph glyph-name="yen.numr" horiz-adv-x="260" 
d="M212 465h-49v-59h-63v59h-52v38h52v17h-52v38h40l-81 171h71l52 -148h2l52 148h71l-81 -171h38v-38h-49v-17h49v-38z" />
    <glyph glyph-name="franc.numr" horiz-adv-x="223" 
d="M2 448v39h27v242h181v-54h-117v-82h100v-50h-100v-56h39v-39h-39v-42h-64v42h-27z" />
    <glyph glyph-name="lira.numr" horiz-adv-x="247" 
d="M23 569l-5 31h26q-3 18 -3 34q0 46 24 73t68 27q36 0 60 -19.5t31 -51.5l-44 -16q-10 36 -43 36q-39 0 -39 -56q0 -17 1 -27h94l-5 -31h-85q2 -10 2 -13h80l-4 -30h-72q2 -26 2 -32q12 -5 31 -22t32 -17q22 0 27 43l43 -12q-12 -85 -66 -85q-20 0 -34.5 10.5t-36.5 39.5
h-2q-11 -50 -56 -50q-20 0 -32 11.5t-12 31.5q0 50 59 55q-2 11 -6 27h-28l-4 30h26l-3 13h-26zM53 438q13 0 14 34q-21 -2 -21 -23q0 -11 7 -11z" />
    <glyph glyph-name="peseta.numr" horiz-adv-x="417" 
d="M93 729q74 0 74 -102q0 -49 -19 -74.5t-53 -25.5h-24v-121h-52v323h74zM409 582l-32 -12q-7 28 -23 28q-15 0 -15 -23q0 -12 11 -22.5t24 -19t24 -26t11 -40.5q0 -31 -15 -48.5t-43 -17.5q-50 0 -60 60l33 11q7 -33 25 -33q17 0 17 25q0 14 -11 26t-25 19.5t-25 24.5
t-11 40q0 28 15 46t41 18q48 0 59 -56zM279 633v-40h-34v-132q0 -19 18 -19q3 0 13 2l5 -32q-15 -10 -35 -10q-48 0 -48 61v128l-19 7v35l21 2l12 59h33v-61h34zM71 684v-116h21q23 0 23 59q0 57 -23 57h-21z" />
    <glyph glyph-name="Euro.numr" horiz-adv-x="242" 
d="M130 733q36 0 61.5 -20.5t33.5 -52.5l-46 -16q-9 35 -44 35q-44 0 -44 -54v-15h97l-6 -30h-91v-16h88l-6 -30h-82v-29q0 -53 45 -53q33 0 43 40l46 -16q-17 -75 -95 -75q-47 0 -75 28.5t-28 75.5v29h-21v30h21v16h-21v30h21v15q0 51 27.5 79.5t75.5 28.5z" />
    <glyph glyph-name="minus.numr" horiz-adv-x="198" 
d="M176 538h-154v42h154v-42z" />
    <glyph glyph-name="numbersign.dnom" horiz-adv-x="238" 
d="M17 195v38h43l7 90h40l-7 -90h46l7 90h40l-7 -90h35v-38h-35l-5 -67h40v-38h-41l-7 -90h-40l7 90h-46l-7 -90h-40l7 90h-37v38h38l5 67h-43zM100 195l-5 -67h46l4 67h-45z" />
    <glyph glyph-name="dollar.dnom" horiz-adv-x="221" 
d="M103 369h34l1 -51q47 -13 64 -67l-39 -14q-10 27 -29 35l-6 -88q17 -8 27.5 -15t23 -18.5t19 -27t6.5 -35.5q0 -39 -21.5 -63t-58.5 -29l-6 -44h-33l-1 46q-55 10 -72 74l41 15q9 -30 34 -41l6 93q-24 11 -38 20.5t-27 29.5t-13 47q0 36 22 59.5t60 26.5zM156 79
q0 24 -30 43h-2v-79q32 5 32 36zM66 242q0 -22 28 -41h2l1 75q-31 -6 -31 -34z" />
    <glyph glyph-name="parenleft.dnom" horiz-adv-x="124" 
d="M26 80v149q0 73 22 105.5t70 32.5h11v-39h-11q-45 0 -45 -99v-149q0 -99 45 -99h11v-39h-11q-48 0 -70 32.5t-22 105.5z" />
    <glyph glyph-name="parenright.dnom" horiz-adv-x="124" 
d="M98 229v-149q0 -73 -21.5 -105.5t-69.5 -32.5h-11v39h11q44 0 44 99v149q0 99 -44 99h-11v39h11q48 0 69.5 -32.5t21.5 -105.5z" />
    <glyph glyph-name="plus.dnom" horiz-adv-x="198" 
d="M78 58v74h-56v42h56v73h41v-73h57v-42h-57v-74h-41z" />
    <glyph glyph-name="comma.dnom" horiz-adv-x="122" 
d="M29 2v71h64v-57q0 -92 -62 -99l-4 31q17 4 23.5 15.5t6.5 38.5h-28z" />
    <glyph glyph-name="period.dnom" horiz-adv-x="122" 
d="M29 0v73h64v-73h-64z" />
    <glyph glyph-name="zero.dnom" horiz-adv-x="228" 
d="M208 218v-117q0 -49 -24.5 -77t-69.5 -28q-46 0 -70 27.5t-24 77.5v117q0 50 24 77.5t70 27.5q45 0 69.5 -28t24.5 -77zM78 217v-116q0 -30 8.5 -42.5t27.5 -12.5t27.5 12.5t8.5 42.5v116q0 53 -36 53t-36 -53z" />
    <glyph glyph-name="one.dnom" horiz-adv-x="183" 
d="M92 320h48v-320h-62v223h-55v42h23q24 0 33 10t13 45z" />
    <glyph glyph-name="two.dnom" horiz-adv-x="228" 
d="M116 323q43 0 65 -23.5t22 -60.5q0 -33 -16.5 -61.5t-37.5 -45.5t-40.5 -39.5t-23.5 -43.5h119v-49h-180l-1 26q1 34 20 66t41.5 52t41 45.5t18.5 47.5q0 36 -33 36q-34 0 -44 -49l-46 15q9 38 33 61t62 23z" />
    <glyph glyph-name="three.dnom" horiz-adv-x="228" 
d="M80 141v45h22q38 0 38 45q0 43 -32 43q-33 0 -44 -42l-44 15q8 35 32.5 55.5t60.5 20.5q44 0 65.5 -23.5t21.5 -61.5q0 -56 -38 -71v-2q43 -12 43 -72q0 -97 -94 -97q-74 0 -93 71l44 16q12 -39 46 -39q36 0 36 53q0 25 -10 34.5t-31 9.5h-23z" />
    <glyph glyph-name="four.dnom" horiz-adv-x="228" 
d="M190 0h-52v58h-126v39l120 222h58v-214h31l-4 -47h-27v-58zM70 105h68l4 146h-2z" />
    <glyph glyph-name="five.dnom" horiz-adv-x="228" 
d="M65 140l-38 18l11 161h158l-3 -51h-108l-5 -76h2q19 11 44 11q80 0 80 -98q0 -109 -96 -109q-75 0 -91 72l44 14q13 -38 43 -38q22 0 31 14t9 47q0 50 -42 50q-22 0 -39 -15z" />
    <glyph glyph-name="six.dnom" horiz-adv-x="228" 
d="M119 323q66 0 84 -70l-41 -17q-11 37 -40 37q-44 0 -44 -57v-31h2q17 17 50 17q78 0 78 -95q0 -111 -94 -111q-45 0 -68.5 28t-23.5 80v107q0 49 26.5 80.5t70.5 31.5zM116 154q-15 0 -26 -7t-12 -17v-33q0 -51 38 -51q19 0 28 13.5t9 46.5q0 48 -37 48z" />
    <glyph glyph-name="seven.dnom" horiz-adv-x="212" 
d="M102 0h-65l101 267h-124v52h185v-46z" />
    <glyph glyph-name="eight.dnom" horiz-adv-x="228" 
d="M114 -4q-96 0 -96 99q0 57 40 72v2q-33 16 -33 69q0 85 89 85t89 -85q0 -53 -34 -69v-2q40 -15 40 -72q0 -52 -24 -75.5t-71 -23.5zM152 97q0 26 -9.5 36t-28.5 10q-20 0 -29 -9.5t-9 -36.5q0 -31 9 -42.5t29 -11.5q21 0 29.5 11t8.5 43zM114 276q-19 0 -27 -9t-8 -35
t8 -36t27 -10t27 10t8 36t-8 35t-27 9z" />
    <glyph glyph-name="nine.dnom" horiz-adv-x="228" 
d="M22 63l39 20q14 -38 46 -38q42 0 42 50v47h-2q-19 -16 -49 -16q-35 0 -57 23t-22 71q0 103 96 103q44 0 67 -26.5t23 -72.5v-127q0 -47 -25.5 -74t-69.5 -27q-69 0 -88 67zM111 172q14 0 25.5 7.5t12.5 18.5v32q0 45 -35 45q-21 0 -30 -11.5t-9 -39.5q0 -29 9 -40.5
t27 -11.5z" />
    <glyph glyph-name="equal.dnom" horiz-adv-x="198" 
d="M167 163h-140v42h140v-42zM167 93h-140v42h140v-42z" />
    <glyph glyph-name="n.dnom" horiz-adv-x="234" 
d="M30 0v252h51l2 -24h2q23 28 57 28q32 0 48.5 -22.5t16.5 -58.5v-175h-56v172q0 36 -28 36q-23 0 -36 -23v-185h-57z" />
    <glyph glyph-name="cent.dnom" horiz-adv-x="210" 
d="M201 249l-41 -14q-9 40 -41 40q-41 0 -41 -58v-116q0 -61 40 -61q32 0 42 44l42 -14q-15 -62 -66 -72l-6 -46h-35l-2 46q-72 13 -72 102v119q0 42 19 69.5t56 33.5l8 47h35l1 -50q45 -12 61 -70z" />
    <glyph glyph-name="sterling.dnom" horiz-adv-x="247" 
d="M23 143l-5 40h28q-5 28 -5 45q0 46 24 73t68 27q36 0 60 -19.5t31 -51.5l-44 -16q-10 36 -43 36q-39 0 -39 -56q0 -15 3 -38h88l-5 -40h-78q2 -13 5 -48q12 -6 31 -26t32 -20q22 0 27 43l43 -12q-12 -85 -66 -85q-20 0 -34 10.5t-37 40.5h-2q-10 -51 -56 -51
q-20 0 -32 12.5t-12 34.5q0 23 15.5 38.5t42.5 18.5l-10 44h-30zM54 34q12 0 13 34q-20 -2 -20 -23q0 -11 7 -11z" />
    <glyph glyph-name="currency.dnom" horiz-adv-x="173" 
d="M30 167q0 17 7 30l-18 20l20 22l19 -21q13 8 28 8q16 0 29 -8l21 22l19 -22l-20 -22q8 -13 8 -29q0 -17 -8 -31l19 -20l-20 -22l-20 20q-11 -7 -28 -7q-15 0 -28 8l-20 -22l-20 21l20 22q-8 14 -8 31zM63 166q0 -11 6.5 -18t17.5 -7q10 0 16.5 7t6.5 18q0 12 -6.5 19
t-16.5 7q-24 0 -24 -26z" />
    <glyph glyph-name="yen.dnom" horiz-adv-x="260" 
d="M212 59h-49v-59h-63v59h-52v38h52v17h-52v38h40l-81 171h71l52 -148h2l52 148h71l-81 -171h38v-38h-49v-17h49v-38z" />
    <glyph glyph-name="franc.dnom" horiz-adv-x="223" 
d="M2 42v39h27v242h181v-54h-117v-82h100v-50h-100v-56h39v-39h-39v-42h-64v42h-27z" />
    <glyph glyph-name="lira.dnom" horiz-adv-x="247" 
d="M23 163l-5 31h26q-3 18 -3 34q0 46 24 73t68 27q36 0 60 -19.5t31 -51.5l-44 -16q-10 36 -43 36q-39 0 -39 -56q0 -17 1 -27h94l-5 -31h-85q2 -10 2 -13h80l-4 -30h-72q2 -26 2 -32q12 -5 31 -22t32 -17q22 0 27 43l43 -12q-12 -85 -66 -85q-20 0 -35 11t-36 39h-2
q-11 -50 -56 -50q-20 0 -32 11.5t-12 31.5q0 50 59 55q-2 11 -6 27h-28l-4 30h26l-3 13h-26zM53 32q13 0 14 34q-21 -2 -21 -23q0 -11 7 -11z" />
    <glyph glyph-name="peseta.dnom" horiz-adv-x="417" 
d="M93 323q74 0 74 -102q0 -49 -19 -74.5t-53 -25.5h-24v-121h-52v323h74zM409 176l-32 -12q-7 28 -23 28q-15 0 -15 -23q0 -12 11 -22.5t24 -19t24 -26t11 -40.5q0 -31 -15 -48.5t-43 -17.5q-50 0 -60 60l33 11q7 -33 25 -33q17 0 17 25q0 14 -11 26t-25 19.5t-25 24.5
t-11 40q0 28 15 46t41 18q48 0 59 -56zM279 227v-40h-34v-132q0 -19 18 -19q3 0 13 2l5 -32q-15 -10 -35 -10q-48 0 -48 61v128l-19 7v35l21 2l12 59h33v-61h34zM71 278v-116h21q23 0 23 59q0 57 -23 57h-21z" />
    <glyph glyph-name="Euro.dnom" horiz-adv-x="242" 
d="M130 327q36 0 61.5 -20.5t33.5 -52.5l-46 -16q-9 35 -44 35q-44 0 -44 -54v-15h97l-6 -30h-91v-16h88l-6 -30h-82v-29q0 -53 45 -53q33 0 43 40l46 -16q-17 -75 -95 -75q-47 0 -75 28.5t-28 75.5v29h-21v30h21v16h-21v30h21v15q0 51 27.5 79.5t75.5 28.5z" />
    <glyph glyph-name="minus.dnom" horiz-adv-x="198" 
d="M176 132h-154v42h154v-42z" />
    <glyph glyph-name="space.frac" horiz-adv-x="33" 
 />
    <glyph glyph-name="numbersign.osf" horiz-adv-x="383" 
d="M21 372v65h71l13 174h66l-13 -174h76l13 174h67l-12 -174h57v-65h-58l-9 -131h67v-65h-68l-13 -176h-68l13 176h-76l-12 -176h-67l13 176h-60v65h62l8 131h-70zM157 372l-7 -131h74l9 131h-76z" />
    <glyph glyph-name="dollar.osf" horiz-adv-x="383" 
d="M34 460q0 61 33 103t92 51l15 116h57l3 -119q83 -22 109 -127l-67 -19q-21 74 -84 74t-63 -72q0 -32 22.5 -59t54.5 -48.5t64 -45.5t54.5 -62.5t22.5 -87.5q0 -68 -32 -112.5t-88 -56.5l-13 -122h-58l-3 121q-50 8 -80 41.5t-43 98.5l70 20q20 -88 94 -88q30 0 46.5 22
t16.5 60q0 35 -23 63.5t-55.5 50t-65.5 46t-56 63t-23 89.5z" />
    <glyph glyph-name="plus.osf" horiz-adv-x="383" 
d="M155 86v167h-112v75h112v167h71v-167h115v-75h-115v-167h-71z" />
    <glyph glyph-name="zero.osf" horiz-adv-x="398" 
d="M366 396v-215q0 -92 -42.5 -141t-124.5 -49t-124.5 49.5t-42.5 142.5v211q0 93 42.5 143t124.5 50t124.5 -49.5t42.5 -141.5zM124 394v-215q0 -60 18 -85.5t56 -25.5q40 0 58 25.5t18 84.5v219q0 61 -18 86.5t-58 25.5q-38 0 -56 -26.5t-18 -88.5z" />
    <glyph glyph-name="one.osf" horiz-adv-x="285" 
d="M140 402h-115v72h52q47 0 64 23.5t22 94.5h75v-592h-98v402z" />
    <glyph glyph-name="two.osf" horiz-adv-x="372" 
d="M195 590q73 0 109.5 -40t36.5 -109q0 -68 -51.5 -153.5t-146.5 -204.5v-2h203v-81h-318l-1 57q222 262 222 380q0 37 -15 54t-48 17q-60 0 -89 -75l-69 27q51 130 167 130z" />
    <glyph glyph-name="three.osf" horiz-adv-x="372" 
d="M332 437q0 -115 -68 -144v-2q44 -12 63.5 -44.5t19.5 -91.5q0 -242 -297 -242l-8 81q117 0 164.5 39.5t47.5 123.5q0 55 -22 74t-79 19h-24v76h21q50 0 70 23t20 81q0 41 -14.5 59.5t-46.5 18.5q-58 0 -91 -75l-69 26q51 131 169 131q73 0 108.5 -41t35.5 -112z" />
    <glyph glyph-name="four.osf" horiz-adv-x="377" 
d="M311 -85h-88v227h-220v70l215 370h93v-364h64l-6 -76h-58v-227zM97 218h127l10 256h-2z" />
    <glyph glyph-name="five.osf" horiz-adv-x="364" 
d="M317 495h-197l-9 -165q37 17 83 17q73 0 109.5 -40.5t36.5 -131.5q0 -126 -75 -194t-216 -68l-8 81q111 0 158.5 42.5t47.5 131.5q0 56 -19.5 77.5t-64.5 21.5q-46 0 -80 -23l-60 26l21 312h279z" />
    <glyph glyph-name="six.osf" horiz-adv-x="384" 
d="M314 599q-166 0 -183 -222h2q34 26 80 26q146 0 146 -192q0 -220 -165 -220q-78 0 -116.5 55.5t-38.5 155.5v119q0 170 72 264.5t197 94.5zM199 320q-42 0 -69 -31v-85q0 -70 16.5 -100.5t51.5 -30.5t52.5 29.5t17.5 103.5q0 64 -16.5 89t-52.5 25z" />
    <glyph glyph-name="seven.osf" horiz-adv-x="347" 
d="M148 -80h-98l195 575h-239v87h333v-76z" />
    <glyph glyph-name="eight.osf" horiz-adv-x="383" 
d="M192 -9q-82 0 -122.5 41t-40.5 136q0 107 73 135v2q-64 33 -64 134q0 151 154 151q153 0 153 -151q0 -101 -63 -134v-2q73 -29 73 -135q0 -95 -41 -136t-122 -41zM263 175q0 50 -17.5 70t-53.5 20t-53.5 -20t-17.5 -69q0 -58 16.5 -82t54.5 -24t54.5 24t16.5 81zM192 513
q-34 0 -49.5 -20t-15.5 -68q0 -49 15 -70t50 -21t50 21t15 70q0 48 -15.5 68t-49.5 20z" />
    <glyph glyph-name="nine.osf" horiz-adv-x="384" 
d="M62 -6q90 0 138 56.5t54 185.5h-2q-32 -23 -79 -23q-148 0 -148 181q0 196 165 196q78 0 116.5 -55.5t38.5 -152.5v-113q0 -173 -73 -264.5t-202 -91.5zM186 291q41 0 68 33v55q0 69 -16 99t-53 30q-34 0 -52 -25t-18 -86q0 -58 17.5 -82t53.5 -24z" />
    <glyph glyph-name="less.osf" horiz-adv-x="383" 
d="M330 409l-169 -121l169 -120v-100l-287 215v10l287 217v-101z" />
    <glyph glyph-name="equal.osf" horiz-adv-x="383" 
d="M332 322h-281v75h281v-75zM332 183h-281v75h281v-75z" />
    <glyph glyph-name="greater.osf" horiz-adv-x="383" 
d="M222 288l-169 121v101h2l285 -216v-10l-284 -216h-2v100z" />
    <glyph glyph-name="cent.osf" horiz-adv-x="383" 
d="M346 487l-75 -24q-18 77 -77 77q-39 0 -55.5 -27t-16.5 -87v-249q0 -59 18 -85t56 -26q30 0 48 19t28 62l74 -22q-26 -113 -118 -131l-13 -121h-57l-3 120q-124 20 -124 190v240q0 173 129 192l15 115h58l2 -118q83 -22 111 -125z" />
    <glyph glyph-name="sterling.osf" horiz-adv-x="383" 
d="M334 489l-68 -22q-13 73 -63 73q-57 0 -57 -109q0 -43 6 -94h134l-6 -61h-122q9 -74 9 -112q22 -13 49.5 -50.5t42.5 -37.5q17 0 27 19t14 67l66 -16q-8 -84 -32 -120t-66 -36q-16 0 -29.5 5t-26 19t-18 21t-18 28.5t-13.5 23.5h-2q-15 -97 -84 -97q-31 0 -48.5 20
t-17.5 58q0 40 22.5 68.5t61.5 35.5q-2 10 -8.5 45.5l-10.5 58.5h-37l-7 61h34q-9 63 -9 96q0 88 36 137t104 49q55 0 90 -34.5t47 -95.5zM81 50q21 0 22 71q-35 -9 -35 -50q0 -21 13 -21z" />
    <glyph glyph-name="currency.osf" horiz-adv-x="309" 
d="M48 315q0 33 15 59l-36 39l35 39l37 -40q26 16 55 16q31 0 56 -17l39 43l35 -38l-39 -43q15 -28 15 -58q0 -32 -15 -60l37 -40l-35 -38l-38 40q-23 -16 -55 -16q-30 0 -54 15l-39 -42l-35 38l38 42q-16 29 -16 61zM104 314q0 -24 15 -39.5t36 -15.5t36 15.5t15 39.5
t-15 39.5t-36 15.5t-36 -15.5t-15 -39.5z" />
    <glyph glyph-name="yen.osf" horiz-adv-x="383" 
d="M327 130h-89v-130h-92v130h-90v60h90v38h-90v60h71l-127 322h99l93 -287h2l90 287h101l-130 -322h72v-60h-89v-38h89v-60z" />
    <glyph glyph-name="logicalnot.osf" horiz-adv-x="383" 
d="M271 122v131h-228v75h298v-206h-70z" />
    <glyph glyph-name="plusminus.osf" horiz-adv-x="383" 
d="M156 130v142h-113v75h113v148h70v-148h115v-75h-115v-142h-70zM341 25h-298v75h298v-75z" />
    <glyph glyph-name="multiply.osf" horiz-adv-x="383" 
d="M278 136l-97 105l-96 -105l-50 53l97 105l-96 105l48 53l97 -105l97 105l48 -53l-96 -105l97 -105z" />
    <glyph glyph-name="divide.osf" horiz-adv-x="383" 
d="M340 254h-297v74h297v-74zM138 447q0 23 15 39.5t37 16.5q21 0 36.5 -16.5t15.5 -39.5t-15.5 -39t-36.5 -16q-22 0 -37 16t-15 39zM138 139q0 23 15 39.5t37 16.5q21 0 36.5 -16.5t15.5 -39.5t-15.5 -39t-36.5 -16q-22 0 -37 16t-15 39z" />
    <glyph glyph-name="franc.osf" horiz-adv-x="383" 
d="M16 84v64h46v462h285v-85h-192v-178h166v-79h-166v-120h70v-64h-70v-84h-93v84h-46z" />
    <glyph glyph-name="lira.osf" horiz-adv-x="383" 
d="M334 489l-68 -22q-13 73 -63 73q-57 0 -57 -109q0 -29 3 -62h154l-8 -51h-141l3 -28h134l-7 -48h-122q5 -48 5 -78q22 -13 49.5 -50.5t42.5 -37.5q17 0 27 19t14 67l66 -16q-8 -84 -32 -120t-66 -36q-16 0 -29.5 5t-26 19t-18 21t-18 28.5t-13.5 23.5h-2q-15 -97 -84 -97
q-31 0 -48.5 20t-17.5 58q0 40 22.5 68.5t61.5 35.5q-9 53 -13 70h-36l-8 48h35q-1 7 -5 28h-35l-8 51h36q-4 31 -4 64q0 88 36 137t104 49q55 0 90 -34.5t47 -95.5zM81 50q21 0 22 71q-35 -9 -35 -50q0 -21 13 -21z" />
    <glyph glyph-name="peseta.osf" horiz-adv-x="383" 
d="M9 390v59h38v161h151q63 0 99 -41.5t42 -119.5h33v-59h-33q-6 -78 -41 -119t-96 -41h-64v-230h-91v390h-38zM196 301q26 0 38.5 21.5t14.5 71.5h-111v-93h58zM138 531v-85h111q-2 47 -14.5 66t-38.5 19h-58z" />
    <glyph glyph-name="Euro.osf" horiz-adv-x="383" 
d="M350 486l-75 -22q-17 76 -72 76q-36 0 -52 -26t-16 -83v-45h130l-7 -54h-123v-33h117l-9 -53h-108v-69q0 -61 16.5 -86t52.5 -25q29 0 46 18.5t26 61.5l75 -21q-29 -135 -151 -135q-156 0 -156 192v64h-29v53h29v33h-29v54h29v41q0 88 39 139.5t117 51.5q57 0 97 -34.5
t53 -97.5z" />
    <glyph glyph-name="uni20B4.osf" horiz-adv-x="383" 
d="M34 329v58h196q27 37 27 79q0 39 -13.5 58t-48.5 19q-62 0 -85 -75l-69 23q41 126 162 126q67 0 102.5 -40t35.5 -103q0 -47 -25 -87h36v-58h-87q-15 -14 -47 -40h133v-58h-188q-28 -41 -28 -91q0 -36 18 -55.5t51 -19.5q63 0 86 82l64 -22q-34 -135 -157 -135
q-74 0 -110 39t-36 104q0 55 27 98h-44v58h94l45 40h-139z" />
    <glyph glyph-name="minus.osf" horiz-adv-x="383" 
d="M341 253h-298v75h298v-75z" />
    <glyph glyph-name="approxequal.osf" horiz-adv-x="383" 
d="M332 402v-74q-40 -22 -76 -22q-27 0 -70.5 16t-66.5 16q-35 0 -67 -22v74q39 22 75 22q28 0 73 -16.5t68 -16.5q33 0 64 23zM332 263v-74q-38 -22 -76 -22q-27 0 -70.5 15.5t-66.5 15.5q-35 0 -67 -22v74q39 22 75 22q28 0 73.5 -16.5t67.5 -16.5q33 0 64 24z" />
    <glyph glyph-name="notequal.osf" horiz-adv-x="383" 
d="M332 183h-153l-41 -99l-48 20l32 79h-71v75h102l26 64h-128v75h159l41 99l48 -22l-32 -77h65v-75h-96l-26 -64h122v-75z" />
    <glyph glyph-name="lessequal.osf" horiz-adv-x="383" 
d="M330 415l-161 -101l161 -98v-98l-287 192v10l287 195v-100zM47 27v68h283v-68h-283z" />
    <glyph glyph-name="greaterequal.osf" horiz-adv-x="383" 
d="M53 216l160 98l-160 101v100l287 -195v-10l-287 -192v98zM336 95v-68h-284v68h284z" />
    <glyph glyph-name="numbersign.tf" horiz-adv-x="425" 
d="M26 448v68h83l15 209h67l-15 -209h91l14 209h67l-14 -209h66v-68h-68l-11 -168h79v-67h-80l-14 -213h-67l14 213h-90l-15 -213h-67l15 213h-70v67h71l11 168h-82zM175 448l-11 -168h91l11 168h-91z" />
    <glyph glyph-name="dollar.tf" horiz-adv-x="425" 
d="M198 821h59l1 -92q50 -13 83.5 -52.5t47.5 -97.5l-67 -23q-18 72 -72 89l-12 -233q37 -24 57.5 -39.5t47 -43t39 -62.5t12.5 -79q0 -83 -43 -135.5t-116 -60.5l-11 -90h-58l-2 93q-113 23 -142 164l72 26q19 -83 77 -102l13 247q-29 18 -45.5 29.5t-40.5 33t-37 42
t-22.5 51t-9.5 65.5q0 75 42.5 125t115.5 57zM312 175q0 39 -20 67.5t-57 55.5h-2v-220q79 11 79 97zM114 561q0 -63 72 -116h2v204q-74 -10 -74 -88z" />
    <glyph glyph-name="plus.tf" horiz-adv-x="425" 
d="M177 103v170h-114v74h114v170h70v-170h116v-74h-116v-170h-70z" />
    <glyph glyph-name="zero.tf" horiz-adv-x="425" 
d="M392 517v-310q0 -104 -46 -160.5t-133 -56.5q-88 0 -134 56.5t-46 160.5v309q0 105 46 162t134 57q87 0 133 -57t46 -161zM127 517v-310q0 -70 20.5 -100t65.5 -30q44 0 64.5 30.5t20.5 99.5v310q0 68 -20.5 98t-64.5 30q-45 0 -65.5 -30t-20.5 -98z" />
    <glyph glyph-name="one.tf" horiz-adv-x="425" 
d="M117 0v64h93v469h-127v74h65q46 0 63 22t23 99h76v-664h86v-64h-279z" />
    <glyph glyph-name="two.tf" horiz-adv-x="425" 
d="M220 735q83 0 125 -49t42 -130q0 -63 -22.5 -118t-56 -95l-67.5 -77.5t-62.5 -84t-35.5 -95.5h248v-86h-344l-2 49q2 64 28 123.5t62 105l71.5 88.5t60.5 91t25 95q0 95 -78 95q-76 0 -95 -115l-75 22q14 82 59 131.5t117 49.5z" />
    <glyph glyph-name="three.tf" horiz-adv-x="425" 
d="M156 334v81h40q45 0 67 27t22 91q0 62 -18.5 88t-56.5 26q-71 0 -94 -104l-74 23q16 80 61.5 124.5t113.5 44.5q83 0 124 -50.5t41 -138.5q0 -131 -79 -166v-2q89 -26 89 -165q0 -223 -178 -223q-143 0 -176 155l72 23q24 -93 99 -93q45 0 65 34t20 108q0 67 -23.5 92
t-71.5 25h-43z" />
    <glyph glyph-name="four.tf" horiz-adv-x="425" 
d="M355 0h-88v135h-253v66l246 524h95v-508h67l-7 -82h-60v-135zM110 217h157l7 378h-2z" />
    <glyph glyph-name="five.tf" horiz-adv-x="425" 
d="M108 333l-62 28l23 364h301l-7 -91h-217l-12 -205h2q45 30 98 30q157 0 157 -223q0 -126 -46 -186t-139 -60q-66 0 -110.5 39t-59.5 117l75 23q21 -94 92 -94q48 0 69 36.5t21 123.5q0 75 -22.5 106t-71.5 31q-57 0 -91 -39z" />
    <glyph glyph-name="six.tf" horiz-adv-x="425" 
d="M220 735q130 0 162 -156l-71 -26q-12 51 -32.5 72.5t-53.5 21.5q-92 0 -92 -139v-92h2q39 39 104 39q79 0 116.5 -53t37.5 -161q0 -251 -178 -251q-85 0 -130.5 56t-45.5 162v291q0 106 48.5 171t132.5 65zM218 368q-37 0 -61 -17t-24 -46v-106q0 -120 84 -120
q42 0 62 37t20 123q0 69 -19 99t-62 30z" />
    <glyph glyph-name="seven.tf" horiz-adv-x="425" 
d="M187 0h-104l219 635h-281v90h382v-78z" />
    <glyph glyph-name="eight.tf" horiz-adv-x="425" 
d="M213 -10q-93 0 -138 50.5t-45 172.5q0 136 82 170v2q-70 36 -70 161q0 189 171 189t171 -189q0 -125 -71 -160v-2q83 -35 83 -171q0 -122 -45 -172.5t-138 -50.5zM301 217q0 70 -22 96.5t-66 26.5q-45 0 -66.5 -26.5t-21.5 -96.5q0 -82 20.5 -112t67.5 -30t67.5 29.5
t20.5 112.5zM213 651q-44 0 -62.5 -24t-18.5 -90q0 -69 18.5 -94t62.5 -25t62.5 25.5t18.5 93.5q0 65 -18.5 89.5t-62.5 24.5z" />
    <glyph glyph-name="nine.tf" horiz-adv-x="425" 
d="M107 169q14 -50 36.5 -70.5t59.5 -20.5q89 0 89 115v140h-2q-36 -38 -99 -38q-159 0 -159 212q0 228 183 228q82 0 126.5 -54.5t44.5 -147.5v-336q0 -96 -48 -151t-130 -55q-136 0 -169 147zM208 377q33 0 58.5 18t25.5 50v91q0 111 -79 111q-44 0 -65 -32t-21 -105
q0 -75 20 -104t61 -29z" />
    <glyph glyph-name="less.tf" horiz-adv-x="425" 
d="M344 433l-161 -120l161 -119v-101l-279 215v10l279 217v-102z" />
    <glyph glyph-name="equal.tf" horiz-adv-x="425" 
d="M354 335h-283v75h283v-75zM354 195h-283v76h283v-76z" />
    <glyph glyph-name="greater.tf" horiz-adv-x="425" 
d="M81 194l161 119l-160 120v102l278 -217v-10l-279 -215v101z" />
    <glyph glyph-name="cent.tf" horiz-adv-x="425" 
d="M40 515q0 94 41 151t115 67l11 85h56l1 -88q51 -13 85 -53.5t45 -100.5l-77 -24q-18 87 -87 87q-88 0 -88 -123v-316q0 -57 22 -89t66 -32q37 0 57 22t30 77l78 -23q-12 -78 -47.5 -117t-96.5 -46l-11 -88h-56l-2 90q-67 13 -104.5 67t-37.5 138v316z" />
    <glyph glyph-name="sterling.tf" horiz-adv-x="425" 
d="M42 329l-9 72h46q-9 81 -9 120q0 103 41 159t117 56q62 0 102.5 -39.5t50.5 -111.5l-74 -23q-8 47 -27 65t-50 18q-72 0 -72 -134q0 -33 7 -110h163l-7 -72h-150q8 -77 11 -132q23 -11 44.5 -38.5t39.5 -48t36 -20.5q20 0 31 21.5t17 79.5l67 -16q-9 -100 -36 -142.5
t-73 -42.5q-25 0 -47 14.5t-32 29t-27 44t-22 37.5h-2q-14 -125 -93 -125q-36 0 -55.5 23.5t-19.5 68.5q0 47 25.5 79.5t69.5 40.5q-4 35 -16 127h-47zM89 60q26 0 27 85q-42 -9 -42 -59q0 -26 15 -26z" />
    <glyph glyph-name="currency.tf" horiz-adv-x="425" 
d="M106 376q0 34 15 59l-36 39l35 39l37 -40q26 16 55 16q28 0 54 -16l40 43l35 -39l-38 -43q15 -28 15 -58q0 -31 -15 -59l37 -40l-35 -39l-38 40q-26 -16 -55 -16t-55 16l-38 -43l-36 39l38 42q-15 26 -15 60zM162 376q0 -24 14.5 -40t35.5 -16q22 0 37 16t15 40t-15 39.5
t-37 15.5q-21 0 -35.5 -15.5t-14.5 -39.5z" />
    <glyph glyph-name="yen.tf" horiz-adv-x="425" 
d="M356 152h-95v-152h-97v152h-100v71h100v43h-100v70h81l-142 389h105l104 -347h2l103 347h105l-143 -389h77v-70h-95v-43h95v-71z" />
    <glyph glyph-name="logicalnot.tf" horiz-adv-x="425" 
d="M292 141v131h-229v75h300v-206h-71z" />
    <glyph glyph-name="plusminus.tf" horiz-adv-x="425" 
d="M176 144v146h-114v75h114v152h71v-152h116v-75h-116v-146h-71zM363 40h-301v75h301v-75z" />
    <glyph glyph-name="multiply.tf" horiz-adv-x="425" 
d="M309 152l-97 105l-96 -105l-50 53l97 105l-96 105l48 53l97 -105l97 105l48 -53l-96 -105l97 -105z" />
    <glyph glyph-name="divide.tf" horiz-adv-x="425" 
d="M363 272h-300v75h300v-75zM159 466q0 23 15 40t37 17q21 0 36.5 -17t15.5 -40t-15.5 -39t-36.5 -16q-22 0 -37 16t-15 39zM159 158q0 23 15 39.5t37 16.5q21 0 36.5 -16.5t15.5 -39.5t-15.5 -39.5t-36.5 -16.5q-22 0 -37 16.5t-15 39.5z" />
    <glyph glyph-name="uni2007.tf" horiz-adv-x="425" 
 />
    <glyph glyph-name="franc.tf" horiz-adv-x="425" 
d="M10 101v71h56v553h328v-96h-222v-215h192v-90h-192v-152h79v-71h-79v-101h-106v101h-56z" />
    <glyph glyph-name="lira.tf" horiz-adv-x="425" 
d="M38 368l-8 55h47q-7 65 -7 98q0 103 41 159t117 56q62 0 102.5 -39.5t50.5 -111.5l-74 -23q-8 47 -27 65t-50 18q-72 0 -72 -134q0 -30 5 -88h179l-8 -55h-166l3 -32h156l-7 -52h-145q6 -71 7 -87q23 -11 44.5 -38.5t39.5 -48t36 -20.5q20 0 31 21.5t17 79.5l67 -16
q-9 -100 -36 -142.5t-73 -42.5q-25 0 -47 14.5t-32 29t-27 44t-22 37.5h-2q-14 -125 -93 -125q-36 0 -55.5 23.5t-19.5 68.5q0 47 25.5 79.5t69.5 40.5l-10 82h-44l-7 52h44l-5 32h-45zM89 60q26 0 27 85q-42 -9 -42 -59q0 -26 15 -26z" />
    <glyph glyph-name="peseta.tf" horiz-adv-x="425" 
d="M7 470v60h42v195h169q147 0 158 -195h43v-60h-43q-6 -93 -45 -142t-109 -49h-77v-279h-96v470h-42zM216 361q60 0 64 111h-135v-111h71zM145 636v-108h135q-2 60 -17.5 84t-46.5 24h-71z" />
    <glyph glyph-name="Euro.tf" horiz-adv-x="425" 
d="M239 735q66 0 112 -43.5t59 -115.5l-78 -24q-18 87 -87 87q-88 0 -88 -123v-60h180l-11 -59h-169v-40h162l-10 -59h-152v-98q0 -56 22.5 -88.5t65.5 -32.5q38 0 58 22.5t30 76.5l78 -23q-14 -86 -57 -125.5t-117 -39.5q-84 0 -133 57t-49 152v99h-49v59h49v40h-49v59h49
v59q0 103 49 161.5t135 58.5z" />
    <glyph glyph-name="uni20B4.tf" horiz-adv-x="425" 
d="M34 396v62h227q36 46 36 101q0 49 -17.5 73.5t-60.5 24.5q-78 0 -106 -93l-70 25q46 146 183 146q77 0 116.5 -46.5t39.5 -122.5q0 -58 -33 -108h46v-62h-101l-32 -28.5l-28 -24.5h161v-61h-219q-38 -53 -38 -116q0 -97 88 -97q78 0 107 102l65 -24q-39 -157 -178 -157
q-84 0 -125.5 46t-41.5 123q0 67 36 123h-56v61h108l60 53h-167z" />
    <glyph glyph-name="minus.tf" horiz-adv-x="425" 
d="M363 273h-300v74h300v-74z" />
    <glyph glyph-name="approxequal.tf" horiz-adv-x="425" 
d="M354 416v-74q-38 -22 -76 -22q-27 0 -71.5 15.5t-68.5 15.5q-35 0 -67 -22v75q37 21 75 21q28 0 75 -16.5t69 -16.5q33 0 64 24zM354 276v-74q-39 -23 -76 -23q-27 0 -72 16.5t-68 16.5q-33 0 -67 -22v74q40 22 76 22q29 0 75 -16.5t69 -16.5q32 0 63 23z" />
    <glyph glyph-name="notequal.tf" horiz-adv-x="425" 
d="M318 486l-31 -76h67v-75h-98l-27 -64h125v-76h-156l-41 -99l-48 21l32 78h-70v76h101l27 64h-128v75h159l40 98z" />
    <glyph glyph-name="lessequal.tf" horiz-adv-x="425" 
d="M344 433l-154 -104l154 -101v-99l-279 196v10l279 199v-101zM69 35v71h276v-71h-276z" />
    <glyph glyph-name="greaterequal.tf" horiz-adv-x="425" 
d="M81 228l153 101l-153 104v101l279 -199v-10l-279 -196v99zM356 106v-71h-275v71h275z" />
    <glyph glyph-name="numbersign.tosf" 
d="M19 372v65h71l13 174h66l-13 -174h76l13 174h67l-12 -174h57v-65h-58l-9 -131h67v-65h-68l-13 -176h-68l13 176h-76l-12 -176h-67l13 176h-60v65h62l8 131h-70zM155 372l-7 -131h74l9 131h-76z" />
    <glyph glyph-name="dollar.tosf" 
d="M32 460q0 61 33 103t92 51l15 116h57l3 -119q83 -22 109 -127l-67 -19q-21 74 -84 74t-63 -72q0 -32 22.5 -59t54.5 -48.5t64 -45.5t54.5 -62.5t22.5 -87.5q0 -68 -32 -112.5t-88 -56.5l-13 -122h-58l-3 121q-50 8 -80 41.5t-43 98.5l70 20q20 -88 94 -88q30 0 46.5 22
t16.5 60q0 35 -23 63.5t-55.5 50t-65.5 46t-56 63t-23 89.5z" />
    <glyph glyph-name="plus.tosf" 
d="M153 86v167h-112v75h112v167h71v-167h115v-75h-115v-167h-71z" />
    <glyph glyph-name="zero.tosf" 
d="M356 396v-215q0 -92 -42.5 -141t-124.5 -49t-124.5 49.5t-42.5 142.5v211q0 93 42.5 143t124.5 50t124.5 -49.5t42.5 -141.5zM114 394v-215q0 -60 18 -85.5t56 -25.5q40 0 58 25.5t18 84.5v219q0 61 -18 86.5t-58 25.5q-38 0 -56 -26.5t-18 -88.5z" />
    <glyph glyph-name="one.tosf" 
d="M171 402h-115v72h52q47 0 64 23.5t22 94.5h75v-528h86v-64h-278v64h94v338z" />
    <glyph glyph-name="two.tosf" 
d="M196 590q73 0 109.5 -40t36.5 -109q0 -68 -51.5 -153.5t-146.5 -204.5v-2h203v-81h-318l-1 57q222 262 222 380q0 37 -15 54t-48 17q-60 0 -89 -75l-69 27q51 130 167 130z" />
    <glyph glyph-name="three.tosf" 
d="M335 437q0 -115 -68 -144v-2q44 -12 63.5 -44.5t19.5 -91.5q0 -242 -297 -242l-8 81q117 0 164.5 39.5t47.5 123.5q0 55 -22 74t-79 19h-24v76h21q50 0 70 23t20 81q0 41 -14.5 59.5t-46.5 18.5q-58 0 -91 -75l-69 26q51 131 169 131q73 0 108.5 -41t35.5 -112z" />
    <glyph glyph-name="four.tosf" 
d="M311 -85h-88v227h-220v70l215 370h93v-364h64l-6 -76h-58v-227zM97 218h127l10 256h-2z" />
    <glyph glyph-name="five.tosf" 
d="M325 495h-197l-9 -165q37 17 83 17q73 0 109.5 -40.5t36.5 -131.5q0 -126 -75 -194t-216 -68l-8 81q111 0 158.5 42.5t47.5 131.5q0 56 -19.5 77.5t-64.5 21.5q-46 0 -80 -23l-60 26l21 312h279z" />
    <glyph glyph-name="six.tosf" 
d="M309 599q-166 0 -183 -222h2q34 26 80 26q146 0 146 -192q0 -220 -165 -220q-78 0 -116.5 55.5t-38.5 155.5v119q0 170 72 264.5t197 94.5zM194 320q-42 0 -69 -31v-85q0 -70 16.5 -100.5t51.5 -30.5t52.5 29.5t17.5 103.5q0 64 -16.5 89t-52.5 25z" />
    <glyph glyph-name="seven.tosf" 
d="M166 -80h-98l195 575h-239v87h333v-76z" />
    <glyph glyph-name="eight.tosf" 
d="M190 -9q-82 0 -122.5 41t-40.5 136q0 107 73 135v2q-64 33 -64 134q0 151 154 151q153 0 153 -151q0 -101 -63 -134v-2q73 -29 73 -135q0 -95 -41 -136t-122 -41zM261 175q0 50 -17.5 70t-53.5 20t-53.5 -20t-17.5 -69q0 -58 16.5 -82t54.5 -24t54.5 24t16.5 81zM190 513
q-34 0 -49.5 -20t-15.5 -68q0 -49 15 -70t50 -21t50 21t15 70q0 48 -15.5 68t-49.5 20z" />
    <glyph glyph-name="nine.tosf" 
d="M62 -6q90 0 138 56.5t54 185.5h-2q-32 -23 -79 -23q-148 0 -148 181q0 196 165 196q78 0 116.5 -55.5t38.5 -152.5v-113q0 -173 -73 -264.5t-202 -91.5zM186 291q41 0 68 33v55q0 69 -16 99t-53 30q-34 0 -52 -25t-18 -86q0 -58 17.5 -82t53.5 -24z" />
    <glyph glyph-name="less.tosf" 
d="M328 409l-169 -121l169 -120v-100l-287 215v10l287 217v-101z" />
    <glyph glyph-name="equal.tosf" 
d="M330 322h-281v75h281v-75zM330 183h-281v75h281v-75z" />
    <glyph glyph-name="greater.tosf" 
d="M51 510l287 -216v-10l-286 -216v100l168 120l-169 121v101z" />
    <glyph glyph-name="cent.tosf" 
d="M344 487l-75 -24q-18 77 -77 77q-39 0 -55.5 -27t-16.5 -87v-249q0 -59 18 -85t56 -26q30 0 48 19t28 62l74 -22q-26 -113 -118 -131l-13 -121h-57l-3 120q-124 20 -124 190v240q0 173 129 192l15 115h58l2 -118q83 -22 111 -125z" />
    <glyph glyph-name="sterling.tosf" 
d="M332 489l-68 -22q-13 73 -63 73q-57 0 -57 -109q0 -43 6 -94h134l-6 -61h-122q9 -74 9 -112q22 -13 49.5 -50.5t42.5 -37.5q17 0 27 19t14 67l66 -16q-8 -84 -32 -120t-66 -36q-16 0 -29.5 5t-26 19t-18 21t-18 28.5t-13.5 23.5h-2q-15 -97 -84 -97q-31 0 -48.5 20
t-17.5 58q0 40 22.5 68.5t61.5 35.5q-2 10 -8.5 45.5l-10.5 58.5h-37l-7 61h34q-9 63 -9 96q0 88 36 137t104 49q55 0 90 -34.5t47 -95.5zM79 50q21 0 22 71q-35 -9 -35 -50q0 -21 13 -21z" />
    <glyph glyph-name="currency.tosf" 
d="M83 315q0 33 15 59l-36 39l35 39l37 -40q26 16 54 16q30 0 56 -17l39 43l35 -38l-38 -43q15 -28 15 -58q0 -33 -16 -60l38 -40l-35 -38l-38 40q-27 -16 -56 -16q-28 0 -54 16l-39 -43l-35 38l38 42q-15 27 -15 61zM139 314q0 -24 14.5 -39.5t35.5 -15.5t36 15.5t15 39.5
t-15 39.5t-36 15.5t-35.5 -15.5t-14.5 -39.5z" />
    <glyph glyph-name="yen.tosf" 
d="M325 130h-89v-130h-92v130h-90v60h90v38h-90v60h72l-128 323h99l93 -288h2l90 288h101l-130 -323h72v-60h-89v-38h89v-60z" />
    <glyph glyph-name="logicalnot.tosf" 
d="M269 122v131h-228v75h298v-206h-70z" />
    <glyph glyph-name="plusminus.tosf" 
d="M154 130v142h-113v75h113v148h70v-148h115v-75h-115v-142h-70zM339 25h-298v75h298v-75z" />
    <glyph glyph-name="multiply.tosf" 
d="M276 136l-97 105l-96 -105l-50 53l97 105l-96 105l48 53l97 -105l97 105l48 -53l-96 -105l97 -105z" />
    <glyph glyph-name="divide.tosf" 
d="M338 254h-297v74h297v-74zM136 447q0 23 15 39.5t37 16.5q21 0 36.5 -16.5t15.5 -39.5t-15.5 -39t-36.5 -16q-22 0 -37 16t-15 39zM136 139q0 23 15 39.5t37 16.5q21 0 36.5 -16.5t15.5 -39.5t-15.5 -39t-36.5 -16q-22 0 -37 16t-15 39z" />
    <glyph glyph-name="uni2007.tosf" 
 />
    <glyph glyph-name="franc.tosf" 
d="M14 84v64h46v461h285v-85h-192v-177h166v-79h-166v-120h70v-64h-70v-84h-93v84h-46z" />
    <glyph glyph-name="lira.tosf" 
d="M332 489l-68 -22q-13 73 -63 73q-57 0 -57 -109q0 -29 3 -62h154l-8 -51h-141l3 -28h134l-7 -48h-122q5 -48 5 -78q22 -13 49.5 -50.5t42.5 -37.5q17 0 27 19t14 67l66 -16q-8 -84 -32 -120t-66 -36q-16 0 -29.5 5t-26 19t-18 21t-18 28.5t-13.5 23.5h-2q-15 -97 -84 -97
q-31 0 -48.5 20t-17.5 58q0 40 22.5 68.5t61.5 35.5q-9 53 -13 70h-36l-8 48h35q-1 7 -5 28h-35l-8 51h36q-4 31 -4 64q0 88 36 137t104 49q55 0 90 -34.5t47 -95.5zM79 50q21 0 22 71q-35 -9 -35 -50q0 -21 13 -21z" />
    <glyph glyph-name="peseta.tosf" 
d="M7 390v59h38v161h151q63 0 99 -41.5t42 -119.5h33v-59h-33q-6 -78 -41 -119t-96 -41h-64v-230h-91v390h-38zM194 301q26 0 38.5 21.5t14.5 71.5h-111v-93h58zM136 531v-85h111q-2 47 -14.5 66t-38.5 19h-58z" />
    <glyph glyph-name="Euro.tosf" 
d="M348 486l-75 -22q-17 76 -72 76q-36 0 -52 -26t-16 -83v-45h130l-7 -54h-123v-33h117l-9 -53h-108v-69q0 -61 16.5 -86t52.5 -25q29 0 46 18.5t26 61.5l75 -21q-29 -135 -151 -135q-156 0 -156 192v64h-29v53h29v33h-29v54h29v41q0 88 39 139.5t117 51.5q57 0 97 -34.5
t53 -97.5z" />
    <glyph glyph-name="uni20B4.tosf" 
d="M30 329v57h196q28 38 28 81q0 40 -14 58.5t-49 18.5q-64 0 -87 -76l-67 22q39 127 161 127q68 0 103 -40t35 -103q0 -49 -26 -88h37v-57h-88l-48 -41h136v-57h-190q-29 -40 -29 -92q0 -36 19 -55.5t53 -19.5q63 0 87 83l62 -21q-35 -136 -156 -136q-73 0 -109.5 39
t-36.5 104q0 55 27 98h-44v57h94l46 41h-140z" />
    <glyph glyph-name="minus.tosf" 
d="M339 253h-298v75h298v-75z" />
    <glyph glyph-name="approxequal.tosf" 
d="M330 402v-74q-40 -22 -76 -22q-27 0 -70.5 16t-66.5 16q-35 0 -67 -22v74q39 22 75 22q28 0 73 -16.5t68 -16.5q33 0 64 23zM330 263v-74q-38 -22 -76 -22q-27 0 -70.5 15.5t-66.5 15.5q-35 0 -67 -22v74q38 22 75 22q28 0 73.5 -16.5t67.5 -16.5q33 0 64 24z" />
    <glyph glyph-name="notequal.tosf" 
d="M330 183h-153l-41 -99l-48 20l32 79h-71v75h102l26 64h-128v75h159l41 99l48 -22l-32 -77h65v-75h-96l-26 -64h122v-75z" />
    <glyph glyph-name="lessequal.tosf" 
d="M328 415l-161 -101l161 -98v-98l-287 192v10l287 195v-100zM45 27v68h283v-68h-283z" />
    <glyph glyph-name="greaterequal.tosf" 
d="M51 216l160 98l-160 101v100l287 -195v-10l-287 -192v98zM334 95v-68h-284v68h284z" />
    <glyph glyph-name="exclam.sc" horiz-adv-x="171" 
d="M42 582h86v-251l-10 -158h-67l-9 157v252zM35 0v105h100v-105h-100z" />
    <glyph glyph-name="ampersand.sc" horiz-adv-x="432" 
d="M328 481l-67 -30q-23 67 -66 67q-44 0 -44 -52q0 -36 18 -65l117 -189q13 62 13 131v14h115v-68h-52q-6 -89 -28 -153q39 -53 95 -66l-12 -77q-75 12 -123 66q-51 -67 -130 -67q-64 0 -104 42t-40 130q0 118 87 184q-39 60 -39 116q0 53 33 89t93 36q98 0 134 -108z
M175 64q45 0 78 55l-106 167q-39 -48 -39 -120q0 -102 67 -102z" />
    <glyph glyph-name="question.sc" horiz-adv-x="341" 
d="M318 447q0 -61 -30.5 -115t-86.5 -87l-5 -75h-66l-6 118q106 55 106 152q0 71 -61 71q-64 0 -86 -80l-71 20q16 63 57.5 100.5t103.5 37.5q72 0 108.5 -40t36.5 -102zM113 0v105h100v-105h-100z" />
    <glyph glyph-name="grave.sc" horiz-adv-x="215" 
d="M12 727h97l40 -108h-67z" />
    <glyph glyph-name="a.sc" horiz-adv-x="410" 
d="M129 137l-29 -137h-95l147 582h107l145 -582h-96l-29 137h-150zM203 487l-59 -278h119l-58 278h-2z" />
    <glyph glyph-name="b.sc" horiz-adv-x="394" 
d="M349 433q0 -102 -68 -128v-2q89 -22 89 -136q0 -84 -36 -125.5t-120 -41.5h-168v582h149q78 0 116 -39.5t38 -109.5zM138 264v-186h71q37 0 52.5 20.5t15.5 74.5q0 51 -16 71t-51 20h-72zM138 502v-168h60q37 0 51 20t14 67q0 44 -14.5 62.5t-50.5 18.5h-60z" />
    <glyph glyph-name="c.sc" horiz-adv-x="357" 
d="M191 590q57 0 96.5 -35.5t51.5 -93.5l-70 -24q-13 72 -69 72q-74 0 -74 -101v-241q0 -45 18.5 -71t54.5 -26q30 0 46.5 17.5t24.5 60.5l70 -23q-24 -134 -150 -134q-72 0 -114.5 48t-42.5 127v242q0 85 42 133.5t116 48.5z" />
    <glyph glyph-name="d.sc" horiz-adv-x="419" 
d="M387 401v-220q0 -85 -44.5 -133t-125.5 -48h-171v582h171q81 0 125.5 -48t44.5 -133zM293 183v214q0 55 -18.5 79.5t-57.5 24.5h-77v-421h77q39 0 57.5 24t18.5 79z" />
    <glyph glyph-name="e.sc" horiz-adv-x="351" 
d="M46 582h279v-82h-185v-163h142v-73h-142v-184h192v-80h-286v582z" />
    <glyph glyph-name="f.sc" horiz-adv-x="346" 
d="M46 582h280v-83h-186v-169h160v-78h-160v-252h-94v582z" />
    <glyph glyph-name="g.sc" horiz-adv-x="401" 
d="M207 590q61 0 103.5 -35t54.5 -96l-71 -25q-23 70 -84 70q-84 0 -84 -111v-214q0 -103 81 -103q50 0 77 40v111h-59v65h140v-292h-75v36h-2q-38 -44 -102 -44q-71 0 -112 48t-41 138v216q0 91 43.5 143.5t130.5 52.5z" />
    <glyph glyph-name="h.sc" horiz-adv-x="422" 
d="M46 582h94v-241h142v241h94v-582h-94v257h-142v-257h-94v582z" />
    <glyph glyph-name="i.sc" horiz-adv-x="205" 
d="M56 582h93v-582h-93v582z" />
    <glyph glyph-name="j.sc" horiz-adv-x="201" 
d="M61 582h93v-490q0 -195 -184 -200l-8 76q51 0 75 28.5t24 94.5v491z" />
    <glyph glyph-name="k.sc" horiz-adv-x="403" 
d="M398 0h-102l-117 255h-2l-39 -67v-188h-92v582h92v-283h2l144 283h104l-149 -258z" />
    <glyph glyph-name="l.sc" horiz-adv-x="326" 
d="M46 582h92v-498h174v-84h-266v582z" />
    <glyph glyph-name="m.sc" horiz-adv-x="540" 
d="M407 582h86v-582h-84v372h-2l-116 -275h-43l-115 275h-2v-372h-85v582h87l135 -351h2z" />
    <glyph glyph-name="n.sc" horiz-adv-x="422" 
d="M46 582h70l176 -362h2v362h82v-582h-65l-181 377h-2v-377h-82v582z" />
    <glyph glyph-name="o.sc" horiz-adv-x="404" 
d="M372 406v-230q0 -87 -44 -136t-126 -49q-83 0 -126.5 48.5t-43.5 136.5v230q0 87 43.5 135.5t126.5 48.5q82 0 126 -48.5t44 -135.5zM279 176v230q0 54 -18.5 78t-58.5 24q-39 0 -57.5 -24t-18.5 -78v-230q0 -55 18 -79.5t58 -24.5t58.5 25t18.5 79z" />
    <glyph glyph-name="p.sc" horiz-adv-x="383" 
d="M213 582q73 0 112 -47.5t39 -135.5q0 -87 -38 -134.5t-108 -47.5h-78v-217h-94v582h167zM140 502v-211h71q32 0 46 25t14 82t-14 80.5t-46 23.5h-71z" />
    <glyph glyph-name="q.sc" horiz-adv-x="404" 
d="M372 406v-230q0 -141 -106 -176l75 -92l-80 -31l-73 115q-76 4 -116 52t-40 132v230q0 87 43.5 135.5t126.5 48.5q82 0 126 -48.5t44 -135.5zM279 176v230q0 54 -18.5 78t-58.5 24q-39 0 -57.5 -24t-18.5 -78v-230q0 -55 18 -79.5t58 -24.5t58.5 25t18.5 79z" />
    <glyph glyph-name="r.sc" 
d="M283 0l-91 243h-52v-243h-94v582h159q151 0 151 -164q0 -125 -81 -154l108 -264h-100zM140 502v-186h60q35 0 50 23t15 73t-14.5 70t-49.5 20h-61z" />
    <glyph glyph-name="s.sc" horiz-adv-x="348" 
d="M175 591q119 0 153 -124l-69 -24q-16 71 -78 71q-60 0 -60 -66q0 -27 15.5 -50t38.5 -39.5l50.5 -37t50.5 -41.5t38.5 -55t15.5 -75q0 -76 -41 -118t-112 -42q-59 0 -102 36t-54 101l74 21q18 -81 83 -81q62 0 62 72q0 35 -22 63.5t-53 49.5t-62 44.5t-53 61t-22 85.5
q0 65 39.5 106.5t107.5 41.5z" />
    <glyph glyph-name="t.sc" horiz-adv-x="332" 
d="M8 582h316v-84h-111v-498h-93v498h-112v84z" />
    </font>
</defs>
</svg>
