<?xml version="1.0" standalone="no"?>
<!DOCTYPE svg PUBLIC "-//W3C//DTD SVG 1.1//EN" "http://www.w3.org/Graphics/SVG/1.1/DTD/svg11.dtd" >
<svg xmlns="http://www.w3.org/2000/svg" xmlns:xlink="http://www.w3.org/1999/xlink" version="1.1">
<metadata>
Created by FontForge 20161013 at Thu Sep  2 15:50:18 2010
 By ,,,
2006 Lukasz Dziedzic published by FSI FontShop International GmbH
</metadata>
<defs>
<font id="GoodPro-CondBlack" horiz-adv-x="425" >
  <font-face 
    font-family="GoodPro-CondBlack"
    font-weight="900"
    font-stretch="condensed"
    units-per-em="1000"
    panose-1="2 11 10 6 2 1 1 2 1 2"
    ascent="820"
    descent="-180"
    x-height="513"
    cap-height="725"
    bbox="-486 -200 1002 913"
    underline-thickness="100"
    underline-position="-290"
    unicode-range="U+000D-FB04"
  />
<missing-glyph horiz-adv-x="412" 
d="M233 277l5 43q87 62 87 140q0 49 -31 81t-91 32q-102 0 -134 -113l79 -22q7 27 18 37.5t30 10.5q31 0 31 -35q0 -66 -73 -94l6 -80h73zM151 244v-104h95v104h-95zM18 0v724h361v-724h-361z" />
    <glyph glyph-name="f_f" unicode="ff" horiz-adv-x="478" 
d="M470 512v-107h-68v-405h-133v405h-90v-405h-133v405h-39v107h39v37q0 81 47 130t148 50l7 -103q-41 -2 -57.5 -21t-16.5 -59v-34h95v37q0 81 47 130t148 50l7 -103q-41 -2 -57.5 -21t-16.5 -59v-34h73z" />
    <glyph glyph-name="f_f_i" unicode="ffi" horiz-adv-x="663" 
d="M463 729l7 -103q-41 -2 -57.5 -21t-16.5 -59v-34h228v-512h-134v405h-89v-405h-133v405h-89v-405h-133v405h-39v107h39v37q0 81 47 130t148 50l7 -103q-41 -2 -57.5 -21t-16.5 -59v-34h94v37q0 81 47 130t148 50zM504 724h114v-137h-114v137z" />
    <glyph glyph-name="f_f_j" unicode="ffj" horiz-adv-x="664" 
d="M463 729l7 -103q-41 -2 -57.5 -21t-16.5 -59v-34h228v-477q0 -187 -177 -194l-8 108q27 4 39 22t12 62v372h-89v-405h-133v405h-89v-405h-133v405h-39v107h39v37q0 81 47 130t148 50l7 -103q-41 -2 -57.5 -21t-16.5 -59v-34h94v37q0 81 47 130t148 50zM504 724h114v-137
h-114v137z" />
    <glyph glyph-name="f_f_l" unicode="ffl" horiz-adv-x="674" 
d="M268 512v37q0 81 49 130.5t156 49.5h27v17h133v-746h-133v626h-25q-43 -1 -61 -19.5t-18 -60.5v-34h62v-107h-56v-405h-134v405h-89v-405h-133v405h-39v107h39v37q0 81 47 130t148 50l7 -103q-41 -2 -57.5 -21t-16.5 -59v-34h94z" />
    <glyph glyph-name="f_i" unicode="fi" horiz-adv-x="441" 
d="M241 729l7 -103q-41 -2 -57.5 -21t-16.5 -59v-34h228v-512h-134v405h-89v-405h-133v405h-39v107h39v37q0 81 47 130t148 50zM282 724h114v-137h-114v137z" />
    <glyph glyph-name="f_j" unicode="fj" horiz-adv-x="441" 
d="M241 729l7 -103q-41 -2 -57.5 -21t-16.5 -59v-34h228v-477q0 -187 -177 -194l-8 108q27 4 39 22t12 62v372h-89v-405h-133v405h-39v107h39v37q0 81 47 130t148 50zM282 724h114v-137h-114v137z" />
    <glyph glyph-name="f_l" unicode="fl" horiz-adv-x="452" 
d="M236 512v-109h-57v-403h-133v403h-39v109h39v37q0 81 49 130.5t156 49.5h26v17h133v-746h-133v626h-25q-42 -1 -60 -19.5t-18 -60.5v-34h62z" />
    <glyph glyph-name=".notdef" horiz-adv-x="412" 
d="M233 277l5 43q87 62 87 140q0 49 -31 81t-91 32q-102 0 -134 -113l79 -22q7 27 18 37.5t30 10.5q31 0 31 -35q0 -66 -73 -94l6 -80h73zM151 244v-104h95v104h-95zM18 0v724h361v-724h-361z" />
    <glyph glyph-name=".null" horiz-adv-x="0" 
 />
    <glyph glyph-name=".null" horiz-adv-x="0" 
 />
    <glyph glyph-name="nonmarkingreturn" horiz-adv-x="333" 
 />
    <glyph glyph-name="CR" unicode="&#xd;" horiz-adv-x="142" 
 />
    <glyph glyph-name="space" unicode=" " horiz-adv-x="142" 
 />
    <glyph glyph-name="exclam" unicode="!" horiz-adv-x="213" 
d="M38 725h134v-296l-13 -204h-109l-12 200v300zM39 0v149h134v-149h-134z" />
    <glyph glyph-name="quotedbl" unicode="&#x22;" horiz-adv-x="317" 
d="M170 582v143h106v-143l-29 -105h-52zM36 582v143h106v-143l-29 -105h-52z" />
    <glyph glyph-name="numbersign" unicode="#" horiz-adv-x="441" 
d="M31 440v97h68l12 188h95l-13 -188h66l12 188h94l-12 -188h58v-97h-59l-8 -148h67v-98h-69l-12 -194h-95l13 194h-66l-12 -194h-94l12 194h-57v98h59l8 148h-67zM192 440l-7 -148h65l7 148h-65z" />
    <glyph glyph-name="dollar" unicode="$" horiz-adv-x="416" 
d="M187 817h78l3 -94q91 -35 117 -164l-91 -28q-12 56 -39 74l-12 -177q27 -20 42 -32t37.5 -35t34.5 -44t21.5 -52t9.5 -66q0 -83 -38.5 -137.5t-105.5 -67.5l-14 -94h-78l-2 97q-108 29 -131 175l99 30q11 -59 42 -79l13 184q-35 25 -54.5 41.5t-45 46t-37.5 66t-12 81.5
q0 75 40 128t110 63zM277 177q0 41 -38 79h-2l2 -142q38 12 38 63zM139 559q0 -40 36 -78h2l-2 133q-36 -12 -36 -55z" />
    <glyph glyph-name="percent" unicode="%" horiz-adv-x="530" 
d="M257 586v-39q0 -148 -118 -148q-119 0 -119 148v39q0 149 119 149q58 0 88 -38.5t30 -110.5zM113 585v-38q0 -36 5.5 -47.5t20.5 -11.5q14 0 19.5 12t5.5 47v38q0 34 -6 46t-19 12q-15 0 -20.5 -12t-5.5 -46zM41 0l348 722h99l-349 -722h-98zM513 173v-39
q0 -148 -118 -148q-119 0 -119 148v39q0 149 119 149q118 0 118 -149zM369 172v-38q0 -36 5.5 -47.5t20.5 -11.5q14 0 19.5 12t5.5 47v38q0 35 -5.5 46.5t-19.5 11.5q-15 0 -20.5 -11.5t-5.5 -46.5z" />
    <glyph glyph-name="ampersand" unicode="&#x26;" horiz-adv-x="507" 
d="M391 586l-96 -49q-28 81 -66 81q-33 0 -33 -42q0 -36 16 -68l118 -200q8 58 8 113v29h153v-114h-52q-8 -89 -31 -157q37 -52 96 -59l-16 -129q-92 5 -148 65q-60 -66 -148 -66q-80 0 -129.5 55t-49.5 171q0 142 95 217q-40 71 -40 138q0 69 39 116t115 47
q65 0 104.5 -36.5t64.5 -111.5zM212 109q37 0 67 42l-104 173q-27 -47 -27 -107t16 -84t48 -24z" />
    <glyph glyph-name="quotesingle" unicode="'" horiz-adv-x="168" 
d="M31 582v143h106v-143l-29 -105h-52z" />
    <glyph glyph-name="parenleft" unicode="(" horiz-adv-x="243" 
d="M43 142v387q0 154 44.5 222t144.5 68h23v-101h-23q-78 0 -78 -189v-387q0 -189 78 -189h23v-101h-23q-100 0 -144.5 68t-44.5 222z" />
    <glyph glyph-name="parenright" unicode=")" horiz-adv-x="243" 
d="M201 529v-387q0 -154 -44.5 -222t-144.5 -68h-24v101h24q77 0 77 189v387q0 189 -77 189h-24v101h24q100 0 144.5 -68t44.5 -222z" />
    <glyph glyph-name="asterisk" unicode="*" horiz-adv-x="292" 
d="M115 699l-10 87h77l-11 -87h2l76 37l25 -81l-84 -16v-2l57 -62l-63 -50l-40 74h-2l-41 -73l-63 51l57 60v2l-82 16l24 81l76 -37h2z" />
    <glyph glyph-name="plus" unicode="+" horiz-adv-x="375" 
d="M137 101v152h-105v107h105v153h100v-153h106v-107h-106v-152h-100z" />
    <glyph glyph-name="comma" unicode="," horiz-adv-x="188" 
d="M27 0v138h134v-104q0 -161 -129 -170l-5 67q28 3 39 18t11 51h-50z" />
    <glyph glyph-name="hyphen" unicode="-" horiz-adv-x="234" 
d="M23 233v123h188v-123h-188z" />
    <glyph glyph-name="period" unicode="." horiz-adv-x="188" 
d="M27 0v149h134v-149h-134z" />
    <glyph glyph-name="slash" unicode="/" horiz-adv-x="264" 
d="M-18 -85l194 828h100l-194 -828h-100z" />
    <glyph glyph-name="zero" unicode="0" horiz-adv-x="437" 
d="M408 503v-280q0 -112 -48.5 -172.5t-140.5 -60.5q-94 0 -142 60.5t-48 172.5v279q0 112 48.5 172.5t141.5 60.5q92 0 140.5 -60.5t48.5 -171.5zM165 503v-280q0 -62 12 -84t42 -22q29 0 41 22.5t12 83.5v280q0 58 -12 79.5t-41 21.5q-30 0 -42 -21t-12 -80z" />
    <glyph glyph-name="one" unicode="1" horiz-adv-x="320" 
d="M158 728h112v-728h-146v496h-108v108h45q49 0 68 24t29 100z" />
    <glyph glyph-name="two" unicode="2" horiz-adv-x="416" 
d="M215 735q89 0 134 -52.5t45 -136.5q0 -62 -19 -114t-48 -88t-58.5 -68t-55.5 -71t-35 -81h214v-124h-364l-3 64q3 64 27.5 123.5t57.5 103.5t66 84.5t55.5 82.5t22.5 81q0 35 -12 50.5t-39 15.5q-56 0 -71 -102l-110 32q17 92 65 146t128 54z" />
    <glyph glyph-name="three" unicode="3" horiz-adv-x="419" 
d="M139 312v117h45q32 0 47 20.5t15 70.5q0 48 -12 67.5t-37 19.5q-29 0 -45 -19.5t-25 -69.5l-107 33q15 87 63.5 135.5t125.5 48.5q88 0 133 -54t45 -139q0 -127 -74 -164v-2q83 -29 83 -161q0 -116 -51 -170.5t-141 -54.5q-157 0 -187 175l104 33q18 -83 74 -83
q57 0 57 107q0 51 -15.5 70.5t-49.5 19.5h-48z" />
    <glyph glyph-name="four" unicode="4" horiz-adv-x="436" 
d="M376 0h-126v129h-240v97l227 499h139v-477h53l-8 -119h-45v-129zM143 248h109l8 294h-2z" />
    <glyph glyph-name="five" unicode="5" horiz-adv-x="419" 
d="M123 313l-88 37l20 375h323l-9 -134h-201l-6 -144q40 21 83 21q153 0 153 -222q0 -134 -47.5 -195t-148.5 -61q-73 0 -121 43t-62 132l109 33q17 -83 67 -83q35 0 47 27.5t12 102.5q0 52 -15.5 74t-50.5 22q-39 0 -65 -28z" />
    <glyph glyph-name="six" unicode="6" horiz-adv-x="428" 
d="M224 735q69 0 114 -43.5t61 -131.5l-102 -36q-9 45 -25 63.5t-41 18.5q-66 0 -66 -98v-75h2q36 28 89 28q151 0 151 -212q0 -259 -190 -259q-93 0 -140.5 60.5t-47.5 166.5v275q0 107 53 175t142 68zM221 335q-56 0 -56 -38v-95q0 -82 54 -82q28 0 39.5 26.5t11.5 98.5
q0 51 -11 70.5t-38 19.5z" />
    <glyph glyph-name="seven" unicode="7" horiz-adv-x="400" 
d="M199 0h-150l195 591h-231v134h377v-117z" />
    <glyph glyph-name="eight" unicode="8" horiz-adv-x="429" 
d="M214 -10q-97 0 -145.5 52t-48.5 176q0 123 75 165q-62 39 -62 159q0 193 181 193t181 -193q0 -120 -62 -159q75 -42 75 -165q0 -124 -48.5 -176t-145.5 -52zM271 223q0 56 -13 75.5t-44 19.5t-43.5 -19.5t-12.5 -75.5q0 -64 13 -86.5t43 -22.5t43.5 22t13.5 87zM214 613
q-28 0 -39.5 -17.5t-11.5 -70.5q0 -59 11 -77t40 -18q30 0 41 18t11 77q0 53 -11.5 70.5t-40.5 17.5z" />
    <glyph glyph-name="nine" unicode="9" horiz-adv-x="428" 
d="M124 204q12 -49 29 -68t47 -19q33 0 48 21.5t15 70.5v99h-2q-29 -26 -80 -26q-159 0 -159 213q0 240 194 240q91 0 137.5 -59t46.5 -154v-305q0 -107 -51.5 -166.5t-141.5 -59.5q-148 0 -180 169zM209 401q50 0 54 45v81q0 45 -11.5 62t-39.5 17q-29 0 -41 -22.5
t-12 -83.5q0 -59 11.5 -79t38.5 -20z" />
    <glyph glyph-name="colon" unicode=":" horiz-adv-x="188" 
d="M27 344v149h134v-149h-134zM27 0v149h134v-149h-134z" />
    <glyph glyph-name="semicolon" unicode=";" horiz-adv-x="188" 
d="M27 344v149h134v-149h-134zM27 0v138h134v-104q0 -161 -129 -170l-5 67q28 3 39 18t11 51h-50z" />
    <glyph glyph-name="less" unicode="&#x3c;" horiz-adv-x="375" 
d="M326 400l-123 -88l123 -88v-143l-293 225v12l293 226v-144z" />
    <glyph glyph-name="equal" unicode="=" horiz-adv-x="375" 
d="M329 325h-283v107h283v-107zM329 165h-283v107h283v-107z" />
    <glyph glyph-name="greater" unicode="&#x3e;" horiz-adv-x="375" 
d="M48 224l124 88l-123 88v144l292 -226v-12l-293 -225v143z" />
    <glyph glyph-name="question" unicode="?" horiz-adv-x="405" 
d="M11 551q19 86 69 135t128 49q89 0 134 -50t45 -129q0 -76 -35.5 -146t-99.5 -115l-6 -72h-100l-9 140q114 60 114 181q0 67 -52 67q-30 0 -49 -20.5t-29 -70.5zM128 0v149h134v-149h-134z" />
    <glyph glyph-name="at" unicode="@" horiz-adv-x="637" 
d="M465 422h-16l-12 -199q0 -3 -0.5 -10.5t-0.5 -9.5q0 -39 29 -39q25 0 37.5 25t12.5 99v156q0 98 -44.5 147t-141.5 49q-98 0 -151.5 -60t-53.5 -158v-257q0 -112 55.5 -169.5t155.5 -57.5q66 0 107.5 19t79.5 60l72 -52q-103 -122 -260 -122q-148 0 -227.5 84.5
t-79.5 236.5v258q0 137 79.5 226.5t222.5 89.5q137 0 208.5 -81.5t71.5 -212.5v-155q0 -117 -39.5 -172.5t-108.5 -55.5q-61 0 -90 38q-39 -42 -100 -42q-55 0 -83.5 42t-28.5 116q0 148 52.5 223.5t152.5 75.5h105zM328 184l12 223h-5q-59 0 -59 -187q0 -34 6 -46t18 -12
q19 0 28 22z" />
    <glyph glyph-name="A" unicode="A" horiz-adv-x="484" 
d="M174 149l-24 -149h-147l152 725h174l152 -725h-150l-24 149h-133zM239 562l-47 -298h96l-47 298h-2z" />
    <glyph glyph-name="B" unicode="B" horiz-adv-x="465" 
d="M422 530q0 -119 -74 -152v-2q95 -31 95 -165q0 -104 -42 -157.5t-149 -53.5h-208v725h186q98 0 145 -52.5t47 -142.5zM187 311v-181h59q29 0 40 19t11 71q0 58 -10 74.5t-41 16.5h-59zM187 592v-167h49q29 0 39.5 19.5t10.5 67.5t-10.5 64t-39.5 16h-49z" />
    <glyph glyph-name="C" unicode="C" horiz-adv-x="418" 
d="M223 735q72 0 121 -48t61 -128l-112 -35q-11 79 -59 79q-57 0 -57 -92v-311q0 -83 57 -83q24 0 37.5 19t20.5 65l113 -33q-26 -178 -184 -178q-89 0 -140.5 56.5t-51.5 152.5v311q0 105 52.5 165t141.5 60z" />
    <glyph glyph-name="D" unicode="D" horiz-adv-x="488" 
d="M44 725h206q99 0 154 -61.5t55 -172.5v-256q0 -111 -55 -173t-154 -62h-206v725zM312 484q0 62 -14.5 85t-47.5 23h-59v-462h59q34 0 48 23t14 86v245z" />
    <glyph glyph-name="E" unicode="E" horiz-adv-x="402" 
d="M44 725h333v-136h-186v-155h138v-119h-138v-181h192v-134h-339v725z" />
    <glyph glyph-name="F" unicode="F" horiz-adv-x="400" 
d="M44 725h337v-136h-190v-165h165v-128h-165v-296h-147v725z" />
    <glyph glyph-name="G" unicode="G" horiz-adv-x="468" 
d="M240 735q78 0 130 -45.5t65 -131.5l-112 -35q-11 44 -28.5 62.5t-43.5 18.5q-40 0 -57.5 -26t-17.5 -87v-265q0 -102 73 -102q35 0 58 32v112h-52v106h180v-374h-120v33h-2q-43 -43 -107 -43q-81 0 -129 58t-48 176v268q0 113 53 178t158 65z" />
    <glyph glyph-name="H" unicode="H" horiz-adv-x="493" 
d="M44 725h147v-284h111v284h147v-725h-147v305h-111v-305h-147v725z" />
    <glyph glyph-name="I" unicode="I" horiz-adv-x="247" 
d="M50 725h147v-725h-147v725z" />
    <glyph glyph-name="J" unicode="J" horiz-adv-x="248" 
d="M57 725h148v-608q0 -119 -58.5 -181.5t-169.5 -66.5l-12 123q48 0 70 27.5t22 93.5v612z" />
    <glyph glyph-name="K" unicode="K" horiz-adv-x="478" 
d="M481 0h-158l-103 290h-2l-30 -65v-225h-144v725h144v-316h2l119 316h161l-157 -317z" />
    <glyph glyph-name="L" unicode="L" horiz-adv-x="378" 
d="M44 725h143v-587h178v-138h-321v725z" />
    <glyph glyph-name="M" unicode="M" horiz-adv-x="638" 
d="M456 725h138v-725h-133v374h-2l-107 -271h-67l-107 271h-2v-374h-132v725h138l136 -405h2z" />
    <glyph glyph-name="N" unicode="N" horiz-adv-x="493" 
d="M44 725h107l167 -360h2v360h129v-725h-99l-175 378h-2v-378h-129v725z" />
    <glyph glyph-name="O" unicode="O" horiz-adv-x="473" 
d="M236 735q102 0 155 -61t53 -172v-279q0 -111 -53 -172t-155 -61t-154.5 60.5t-52.5 172.5v279q0 112 52.5 172.5t154.5 60.5zM297 223v279q0 58 -13.5 80t-46.5 22t-47 -22t-14 -80v-279q0 -59 14 -82t46 -23q33 0 47 23t14 82z" />
    <glyph glyph-name="P" unicode="P" horiz-adv-x="456" 
d="M249 725q91 0 140 -62t49 -178q0 -114 -47 -175t-133 -61h-67v-249h-147v725h205zM191 594v-225h55q24 0 34.5 25.5t10.5 89.5t-10 87t-35 23h-55z" />
    <glyph glyph-name="Q" unicode="Q" horiz-adv-x="473" 
d="M236 735q102 0 155 -61t53 -172v-279q0 -168 -113 -216l84 -115l-125 -46l-78 145q-90 7 -136.5 67t-46.5 165v279q0 112 52.5 172.5t154.5 60.5zM297 223v279q0 58 -13.5 80t-46.5 22t-47 -22t-14 -80v-279q0 -59 14 -82t46 -23q33 0 47 23t14 82z" />
    <glyph glyph-name="R" unicode="R" horiz-adv-x="462" 
d="M306 0l-80 285h-35v-285h-147v725h199q189 0 189 -213q0 -144 -78 -186l105 -326h-153zM191 594v-190h45q29 0 40 20t11 75q0 58 -11.5 76.5t-41.5 18.5h-43z" />
    <glyph glyph-name="S" unicode="S" horiz-adv-x="407" 
d="M199 735q147 0 191 -170l-106 -39q-9 45 -25.5 63.5t-43.5 18.5q-51 0 -51 -59q0 -31 23.5 -59t57 -53t67.5 -55t57.5 -77.5t23.5 -107.5q0 -98 -50.5 -152.5t-138.5 -54.5q-73 0 -127 48.5t-66 131.5l114 35q19 -90 75 -90q28 0 41 14t13 45q0 38 -24.5 70.5t-59 59
t-69 55.5t-59 75t-24.5 104q0 85 49 141t132 56z" />
    <glyph glyph-name="T" unicode="T" horiz-adv-x="398" 
d="M9 725h380v-137h-116v-588h-147v588h-117v137z" />
    <glyph glyph-name="U" unicode="U" horiz-adv-x="488" 
d="M305 725h147v-503q0 -113 -53.5 -172.5t-153.5 -59.5t-154 57.5t-54 167.5v510h147v-510q0 -85 61 -85q30 0 45 19.5t15 65.5v510z" />
    <glyph glyph-name="V" unicode="V" horiz-adv-x="486" 
d="M487 725l-165 -725h-159l-164 725h158l85 -519h2l84 519h159z" />
    <glyph glyph-name="W" unicode="W" horiz-adv-x="745" 
d="M739 725l-133 -725h-162l-70 439h-2l-72 -439h-162l-132 725h147l71 -511h2l78 511h138l77 -517h2l72 517h146z" />
    <glyph glyph-name="X" unicode="X" horiz-adv-x="472" 
d="M4 0l136 371l-132 354h156l72 -256h2l70 256h155l-132 -360l137 -365h-156l-77 262h-2l-74 -262h-155z" />
    <glyph glyph-name="Y" unicode="Y" horiz-adv-x="469" 
d="M470 725l-162 -519v-206h-147v206l-162 519h160l76 -337h2l74 337h159z" />
    <glyph glyph-name="Z" unicode="Z" horiz-adv-x="416" 
d="M388 135v-135h-363v90l211 500h-201v135h356v-93l-206 -497h203z" />
    <glyph glyph-name="bracketleft" unicode="[" horiz-adv-x="238" 
d="M49 -148v967h225v-101h-103v-765h103v-101h-225z" />
    <glyph glyph-name="backslash" unicode="\" horiz-adv-x="271" 
d="M80 743l194 -828h-101l-194 828h101z" />
    <glyph glyph-name="bracketright" unicode="]" horiz-adv-x="241" 
d="M191 819v-967h-227v104h103v759h-103v104h227z" />
    <glyph glyph-name="asciicircum" unicode="^" horiz-adv-x="373" 
d="M32 528l106 219h99l105 -219h-102l-52 119h-2l-52 -119h-102z" />
    <glyph glyph-name="underscore" unicode="_" horiz-adv-x="331" 
d="M0 -39h331v-99h-331v99z" />
    <glyph glyph-name="grave" unicode="`" horiz-adv-x="227" 
d="M-14 725h142l43 -145h-94z" />
    <glyph glyph-name="a" unicode="a" horiz-adv-x="384" 
d="M121 349l-90 38q39 136 163 136q77 0 113 -43.5t36 -118.5v-246q0 -27 23 -27h11v-84q-34 -10 -58 -10q-54 0 -82 35q-38 -37 -98 -37q-56 0 -88.5 41t-32.5 105q0 72 42.5 119.5t134.5 47.5h15v56q0 31 -8.5 41.5t-27.5 10.5q-36 0 -53 -64zM174 90q22 0 36 19v101h-16
q-49 0 -49 -57q0 -63 29 -63z" />
    <glyph glyph-name="b" unicode="b" horiz-adv-x="409" 
d="M253 -7q-61 0 -95 41h-2l-5 -34h-115v746h134v-256h2q33 33 90 33q59 0 91.5 -47.5t32.5 -138.5v-161q0 -89 -34.5 -136t-98.5 -47zM170 381v-253q14 -23 41 -23q21 0 31 15.5t10 55.5v158q0 40 -9 55.5t-29 15.5q-30 0 -44 -24z" />
    <glyph glyph-name="c" unicode="c" horiz-adv-x="352" 
d="M343 382l-98 -32q-11 60 -45 60q-21 0 -32 -15t-11 -55v-168q0 -40 10 -55.5t33 -15.5q34 0 45 61l99 -32q-32 -139 -156 -139q-80 0 -122.5 50.5t-42.5 124.5v180q0 76 43 126.5t122 50.5q59 0 100 -36.5t55 -104.5z" />
    <glyph glyph-name="d" unicode="d" horiz-adv-x="409" 
d="M155 522q50 0 82 -29h2v253h133v-746h-116l-4 33h-2q-36 -43 -102 -43q-59 0 -92 47t-33 138v163q0 90 34 137t98 47zM239 128v255q-14 23 -42 23q-21 0 -30.5 -15.5t-9.5 -56.5v-160q0 -38 9 -53.5t29 -15.5q28 0 44 23z" />
    <glyph glyph-name="e" unicode="e" horiz-adv-x="377" 
d="M356 229h-199v-56q0 -39 11.5 -55.5t37.5 -16.5q20 0 32 14t21 49l99 -32q-16 -71 -56.5 -106t-110.5 -35q-79 0 -123.5 50t-44.5 127v178q0 76 44 126.5t126 50.5q78 0 120.5 -51.5t42.5 -130.5v-112zM157 353v-39h79v40q0 34 -9.5 47.5t-29.5 13.5q-21 0 -30.5 -13.5
t-9.5 -48.5z" />
    <glyph glyph-name="f" unicode="f" horiz-adv-x="255" 
d="M247 512v-107h-68v-405h-133v405h-39v107h39v37q0 81 47 130t148 50l7 -103q-41 -2 -57.5 -21t-16.5 -59v-34h73z" />
    <glyph glyph-name="g" unicode="g" horiz-adv-x="381" 
d="M187 158q-32 0 -51 5q-9 -7 -9 -15q0 -16 36 -16h61q149 0 149 -136q0 -84 -48 -128t-136 -44q-85 0 -123 34t-38 88q0 55 30 88q-39 31 -39 79q0 52 49 86q-41 42 -41 140q0 95 39 139.5t121 44.5q46 0 78 -13q31 20 47 53l61 -27q-5 -60 -38 -95q17 -42 17 -102
q0 -94 -40 -137.5t-125 -43.5zM153 338q0 -52 7 -65.5t28 -13.5q22 0 29 14t7 65q0 52 -7.5 66.5t-28.5 14.5q-22 0 -28.5 -14.5t-6.5 -66.5zM214 9h-64q-8 -13 -8 -40q0 -25 12 -35t43 -10q33 0 45 11.5t12 35.5q0 23 -8 30.5t-32 7.5z" />
    <glyph glyph-name="h" unicode="h" horiz-adv-x="414" 
d="M170 381v-381h-134v746h134v-259h2q32 36 91 36t91 -47t32 -139v-337h-134v335q0 39 -9 54.5t-29 15.5q-29 0 -44 -24z" />
    <glyph glyph-name="i" unicode="i" horiz-adv-x="213" 
d="M40 513h133v-513h-133v513zM46 724h121v-137h-121v137z" />
    <glyph glyph-name="j" unicode="j" horiz-adv-x="218" 
d="M50 724h121v-137h-121v137zM2 -159l-8 108q27 4 39 22t12 62v480h134v-478q0 -187 -177 -194z" />
    <glyph glyph-name="k" unicode="k" horiz-adv-x="426" 
d="M36 746h134v-460h2l111 227h136l-123 -223l130 -290h-144l-73 189h-2l-37 -50v-139h-134v746z" />
    <glyph glyph-name="l" unicode="l" horiz-adv-x="217" 
d="M42 746h133v-746h-133v746z" />
    <glyph glyph-name="m" unicode="m" horiz-adv-x="605" 
d="M372 336v-336h-133v336q0 39 -8 53.5t-25 14.5q-25 0 -38 -28v-376h-133v513h116v-41h2q34 51 98 51t93 -58q41 58 108 58q61 0 92.5 -44t31.5 -142v-337h-133v336q0 37 -8.5 52.5t-26.5 15.5q-36 0 -36 -68z" />
    <glyph glyph-name="n" unicode="n" horiz-adv-x="412" 
d="M168 380v-380h-133v513h116l3 -34h2q38 44 101 44q61 0 94 -47t33 -139v-337h-134v335q0 39 -9 54.5t-29 15.5q-28 0 -44 -25z" />
    <glyph glyph-name="o" unicode="o" horiz-adv-x="398" 
d="M375 346v-179q0 -77 -45.5 -127t-130.5 -50q-86 0 -131 49.5t-45 127.5v179q0 76 45.5 126.5t130.5 50.5q86 0 131 -49.5t45 -127.5zM157 340v-168q0 -39 10 -55.5t32 -16.5t32 16t10 56v168q0 40 -10 56t-32 16t-32 -16t-10 -56z" />
    <glyph glyph-name="p" unicode="p" horiz-adv-x="407" 
d="M252 -7q-52 0 -82 29h-2v-192h-133v683h116l3 -34h2q37 44 103 44q59 0 92 -47.5t33 -138.5v-161q0 -89 -34.5 -136t-97.5 -47zM168 381v-251q16 -25 42 -25q21 0 30.5 15.5t9.5 55.5v158q0 40 -9 55.5t-29 15.5q-29 0 -44 -24z" />
    <glyph glyph-name="q" unicode="q" horiz-adv-x="407" 
d="M159 523q62 0 98 -47h2l6 37h107v-683h-133v195h-2q-33 -35 -92 -35q-57 0 -89.5 46.5t-32.5 129.5v178q0 88 37.5 133.5t98.5 45.5zM239 137v247q-17 20 -40 20q-43 0 -43 -70v-160q0 -37 9.5 -52.5t30.5 -15.5q30 0 43 31z" />
    <glyph glyph-name="r" unicode="r" horiz-adv-x="302" 
d="M290 510l-12 -134q-14 11 -36 11q-32 0 -49.5 -22t-24.5 -75v-290h-133v513h113l5 -67h2q30 76 93 76q27 0 42 -12z" />
    <glyph glyph-name="s" unicode="s" horiz-adv-x="339" 
d="M325 385l-93 -27q-8 34 -20 47t-30 13q-34 0 -34 -36q0 -21 18.5 -38t44.5 -32.5t52 -34.5t44.5 -52.5t18.5 -78.5q0 -67 -43 -111.5t-111 -44.5q-124 0 -157 134l93 34q19 -65 57 -65q34 0 34 41q0 22 -18.5 40t-44.5 33t-52.5 34t-45 52.5t-18.5 78.5q0 66 41.5 108.5
t113.5 42.5q60 0 99 -37.5t51 -100.5z" />
    <glyph glyph-name="t" unicode="t" horiz-adv-x="276" 
d="M260 513v-108h-77v-257q0 -23 11 -36.5t32 -13.5q16 0 28 4l10 -88q-42 -23 -88 -23q-67 0 -96.5 39.5t-29.5 122.5v245l-45 16v98l51 4l35 132h92v-135h77z" />
    <glyph glyph-name="u" unicode="u" horiz-adv-x="412" 
d="M244 130v383h134v-513h-116l-4 33h-2q-37 -43 -103 -43q-59 0 -92 47t-33 138v338h134v-339q0 -69 38 -69q28 0 44 25z" />
    <glyph glyph-name="v" unicode="v" horiz-adv-x="409" 
d="M410 513l-130 -513h-152l-129 513h147l57 -369h2l58 369h147z" />
    <glyph glyph-name="w" unicode="w" horiz-adv-x="600" 
d="M348 0l-47 301h-2l-47 -301h-147l-102 513h137l43 -347h2l53 347h124l53 -351h2l44 351h137l-103 -513h-147z" />
    <glyph glyph-name="x" unicode="x" horiz-adv-x="412" 
d="M1 0l114 265l-110 248h144l59 -173h2l54 173h143l-110 -255l114 -258h-144l-63 181h-2l-57 -181h-144z" />
    <glyph glyph-name="y" unicode="y" horiz-adv-x="405" 
d="M405 513l-136 -499q-26 -93 -70.5 -131.5t-123.5 -40.5l-7 104q33 3 51 17t28 47l5 16l-152 487h146l68 -316h2l54 316h135z" />
    <glyph glyph-name="z" unicode="z" horiz-adv-x="339" 
d="M315 114v-114h-296v77l147 320h-139v116h293v-74l-151 -325h146z" />
    <glyph glyph-name="braceleft" unicode="{" horiz-adv-x="254" 
d="M13 290v91q62 8 62 59q0 17 -12 83t-12 110q0 93 51.5 139.5t148.5 46.5h24v-89h-24q-43 0 -61 -29.5t-18 -88.5q0 -37 11 -101t11 -81q0 -69 -71 -94v-2q71 -25 71 -93q0 -17 -11 -81t-11 -100q0 -60 18 -89.5t61 -29.5h24v-89h-24q-200 0 -200 186q0 44 12 110t12 83
q0 23 -17 39.5t-45 19.5z" />
    <glyph glyph-name="bar" unicode="|" horiz-adv-x="250" 
d="M63 -148v967h124v-967h-124z" />
    <glyph glyph-name="braceright" unicode="}" horiz-adv-x="254" 
d="M241 381v-91q-28 -3 -45 -19.5t-17 -39.5q0 -17 12 -83t12 -110q0 -186 -200 -186h-24v92h24q43 0 61 28.5t18 87.5q0 36 -11 100t-11 81q0 69 71 93v2q-71 24 -71 94q0 17 11 81t11 101q0 59 -18 87t-61 28h-24v92h24q97 0 148.5 -46.5t51.5 -139.5q0 -44 -12 -110
t-12 -83q0 -51 62 -59z" />
    <glyph glyph-name="asciitilde" unicode="~" horiz-adv-x="416" 
d="M129 588h-97q5 85 34.5 122.5t82.5 37.5q28 0 49 -9.5t31 -21.5t20.5 -21.5t19.5 -9.5q17 0 19 53h97q-5 -85 -34.5 -122t-82.5 -37q-28 0 -49 9.5t-31 21t-20.5 21t-19.5 9.5t-13.5 -10.5t-5.5 -42.5z" />
    <glyph glyph-name="uni00A0" unicode="&#xa0;" horiz-adv-x="142" 
 />
    <glyph glyph-name="exclamdown" unicode="&#xa1;" horiz-adv-x="213" 
d="M174 -96h-134v296l13 204h109l12 -200v-300zM173 629v-149h-134v149h134z" />
    <glyph glyph-name="cent" unicode="&#xa2;" horiz-adv-x="352" 
d="M343 382l-98 -32q-12 54 -44 54q-22 0 -33 -16t-11 -61v-141q0 -51 10 -69t33 -18q18 0 28.5 14t16.5 49l99 -32q-26 -108 -107 -132l-15 -98h-77l-3 97q-59 14 -89 63.5t-30 120.5v152q0 72 31 122t91 63l18 114h78l3 -119q78 -30 99 -131z" />
    <glyph glyph-name="sterling" unicode="&#xa3;" horiz-adv-x="481" 
d="M47 321l-12 103h48q-8 53 -8 93q0 102 47.5 161t134.5 59q71 0 115.5 -45.5t55.5 -126.5l-105 -33q-6 42 -21 59t-39 17q-52 0 -52 -107q0 -38 4 -77h151l-11 -103h-131q7 -98 7 -114q20 -11 38.5 -32.5t31.5 -35.5t27 -14q17 0 26 18.5t14 69.5l103 -26
q-11 -104 -44 -150.5t-89 -46.5q-29 0 -54 16t-37.5 32.5t-30.5 44.5h-2q-29 -93 -111 -93q-45 0 -70.5 27.5t-25.5 78.5q0 48 30 81t83 43q-5 36 -19 101h-54zM113 90q16 0 18 52q-28 -9 -28 -37q0 -15 10 -15z" />
    <glyph glyph-name="currency" unicode="&#xa4;" horiz-adv-x="327" 
d="M47 368q0 33 14 61l-33 36l45 52l35 -39q24 15 55 15q29 0 56 -16l38 43l45 -51l-37 -42q14 -26 14 -59q0 -34 -14 -60l35 -38l-46 -51l-36 39q-25 -15 -55 -15q-29 0 -54 14l-38 -42l-46 51l36 41q-14 28 -14 61zM123 368q0 -21 12 -33t29 -12t29 12t12 33q0 20 -12 32
t-29 12t-29 -12t-12 -32z" />
    <glyph glyph-name="yen" unicode="&#xa5;" horiz-adv-x="474" 
d="M392 119h-81v-119h-147v119h-83v98h83v35h-83v99h56l-134 374h160l74 -317h2l74 317h159l-135 -374h55v-99h-81v-35h81v-98z" />
    <glyph glyph-name="brokenbar" unicode="&#xa6;" horiz-adv-x="250" 
d="M63 396v423h124v-423h-124zM63 -148v422h124v-422h-124z" />
    <glyph glyph-name="section" unicode="&#xa7;" horiz-adv-x="357" 
d="M32 -9l106 18q10 -53 36 -53q29 0 29 39q0 24 -20 49.5t-48.5 51t-56.5 54t-48 70.5t-20 89q0 100 69 148q-44 61 -44 118q0 70 37 115.5t112 45.5q60 0 100 -41.5t50 -113.5l-107 -18q-9 53 -36 53q-28 0 -28 -40q0 -24 20 -49.5t48.5 -50.5t56.5 -53.5t48 -70.5t20 -89
q0 -101 -70 -149q45 -61 45 -117q0 -70 -37 -115.5t-112 -45.5q-60 0 -100 41.5t-50 113.5zM240 247q0 23 -17 48t-70 80q-28 -16 -28 -51q0 -23 18 -50t69 -78q28 16 28 51z" />
    <glyph glyph-name="dieresis" unicode="&#xa8;" horiz-adv-x="227" 
d="M3 725h92v-137h-92v137zM132 725h91v-137h-91v137z" />
    <glyph glyph-name="copyright" unicode="&#xa9;" horiz-adv-x="630" 
d="M316 619q139 0 158 -153l-96 -25q-5 42 -16.5 57.5t-32.5 15.5q-48 0 -48 -67v-173q0 -68 48 -68q20 0 31.5 17.5t17.5 59.5l97 -23q-10 -82 -48.5 -119.5t-109.5 -37.5q-77 0 -121.5 46t-44.5 123v175q0 78 44.5 125t120.5 47zM597 448v-176q0 -125 -74 -206.5
t-208 -81.5q-135 0 -209 81.5t-74 206.5v176q0 126 74 208t209 82q134 0 208 -82t74 -208zM512 272v177q0 94 -51.5 150t-147.5 56q-94 0 -144.5 -56t-50.5 -150v-177q0 -93 51 -149t146 -56t146 56t51 149z" />
    <glyph glyph-name="ordfeminine" unicode="&#xaa;" horiz-adv-x="289" 
d="M89 644l-62 31q15 36 45 58t70 22q54 0 81 -30t27 -76v-134q0 -15 12 -15h10v-61h-47q-29 0 -49 20q-28 -24 -72 -24q-40 0 -63.5 25t-23.5 63q0 44 29.5 73t97.5 29h12v24q0 17 -6 23t-20 6q-28 0 -41 -34zM128 503q17 0 28 10v46h-12q-38 0 -38 -29q0 -27 22 -27z" />
    <glyph glyph-name="guillemotleft" unicode="&#xab;" horiz-adv-x="392" 
d="M371 437l-99 -173l99 -173h-108l-96 173l96 173h108zM225 437l-99 -173l99 -173h-108l-96 173l96 173h108z" />
    <glyph glyph-name="logicalnot" unicode="&#xac;" horiz-adv-x="375" 
d="M243 127v126h-211v107h310v-233h-99z" />
    <glyph glyph-name="uni00AD" unicode="&#xad;" horiz-adv-x="234" 
d="M23 233v123h188v-123h-188z" />
    <glyph glyph-name="registered" unicode="&#xae;" horiz-adv-x="247" 
d="M236 668v-58q0 -51 -29.5 -85.5t-82.5 -34.5q-54 0 -83.5 34.5t-29.5 85.5v58q0 51 29.5 83t83.5 32t83 -32t29 -83zM44 669v-59q0 -85 79 -85q80 0 80 85v59q0 82 -80 82q-79 0 -79 -82zM139 557l-18 63h-6v-63h-44v168h56q56 0 56 -51q0 -32 -21 -44l24 -73h-47z
M115 689v-37h12q11 0 11 19q0 18 -13 18h-10z" />
    <glyph glyph-name="macron" unicode="&#xaf;" horiz-adv-x="227" 
d="M231 697v-91h-235v91h235z" />
    <glyph glyph-name="degree" unicode="&#xb0;" horiz-adv-x="237" 
d="M9 667q0 47 32 80t77 33q46 0 78 -33t32 -80q0 -48 -32 -81t-78 -33q-45 0 -77 33t-32 81zM81 667q0 -20 11 -31.5t27 -11.5t26.5 11.5t10.5 31.5q0 19 -11 30.5t-27 11.5t-26.5 -11.5t-10.5 -30.5z" />
    <glyph glyph-name="plusminus" unicode="&#xb1;" horiz-adv-x="375" 
d="M137 152v121h-105v107h105v133h100v-133h106v-107h-106v-121h-100zM343 28h-311v107h311v-107z" />
    <glyph glyph-name="twosuperior" unicode="&#xb2;" horiz-adv-x="229" 
d="M116 794q48 0 71.5 -25t23.5 -64q0 -32 -15.5 -58.5t-34.5 -41t-38 -33.5t-24 -36h110v-65h-193l-1 33q1 34 20 66t40.5 51t39 40.5t17.5 39.5q0 26 -23 26q-27 0 -36 -44l-61 20q10 42 36.5 66.5t67.5 24.5z" />
    <glyph glyph-name="threesuperior" unicode="&#xb3;" horiz-adv-x="229" 
d="M76 603v59h23q29 0 29 34q0 32 -22 32q-15 0 -23 -7.5t-12 -27.5l-59 20q8 38 34.5 59.5t66.5 21.5q47 0 71.5 -25t24.5 -62q0 -54 -37 -70v-2q41 -14 41 -70q0 -49 -27 -73.5t-75 -24.5q-84 0 -101 78l58 21q10 -35 37 -35q26 0 26 39q0 18 -7 25.5t-22 7.5h-26z" />
    <glyph glyph-name="acute" unicode="&#xb4;" horiz-adv-x="227" 
d="M73 725h142l-88 -145h-94z" />
    <glyph glyph-name="mu" unicode="&#xb5;" horiz-adv-x="419" 
d="M35 190v323h133v-321q0 -40 9.5 -56t29.5 -16q29 0 43 24v369h134v-513h-116l-4 34h-2q-21 -25 -50 -25q-33 0 -50 23h-2q7 -115 17 -179l-133 -11q-9 139 -9 348z" />
    <glyph glyph-name="paragraph" unicode="&#xb6;" horiz-adv-x="529" 
d="M137 745h391v-124h-67v-775h-129v775h-70v-775h-125v641q-65 0 -99.5 34.5t-34.5 94.5q0 57 34.5 93t99.5 36z" />
    <glyph glyph-name="periodcentered" unicode="&#xb7;" horiz-adv-x="193" 
d="M20 323q0 35 22.5 61t53.5 26q32 0 55 -26t23 -61q0 -36 -23 -61.5t-55 -25.5q-31 0 -53.5 25.5t-22.5 61.5z" />
    <glyph glyph-name="cedilla" unicode="&#xb8;" horiz-adv-x="227" 
d="M70 26l69 -6l-7 -39q65 -14 65 -63q0 -33 -32.5 -58t-87.5 -29l-26 58q43 9 43 22q0 16 -45 20z" />
    <glyph glyph-name="onesuperior" unicode="&#xb9;" horiz-adv-x="190" 
d="M90 792h66v-321h-83v207h-57v56h23q26 0 35.5 11t15.5 47z" />
    <glyph glyph-name="ordmasculine" unicode="&#xba;" horiz-adv-x="276" 
d="M259 636v-83q0 -52 -31 -85.5t-91 -33.5q-59 0 -89.5 33.5t-30.5 85.5v83q0 52 30.5 85.5t89.5 33.5q60 0 91 -33t31 -86zM110 630v-74q0 -52 27 -52q15 0 21.5 11t6.5 41v74q0 28 -6.5 38t-21.5 10q-14 0 -20.5 -10.5t-6.5 -37.5z" />
    <glyph glyph-name="guillemotright" unicode="&#xbb;" horiz-adv-x="392" 
d="M168 91l98 173l-98 173h107l96 -173l-96 -173h-107zM22 91l98 173l-98 173h107l96 -173l-96 -173h-107z" />
    <glyph glyph-name="onequarter" unicode="&#xbc;" horiz-adv-x="514" 
d="M124 727h66v-321h-83v207h-57v56h23q26 0 35.5 11t15.5 47zM133 0h-82l333 725h81zM467 0h-70v55h-124v54l116 210h78v-201h26l-4 -63h-22v-55zM348 118h50l4 112h-2z" />
    <glyph glyph-name="onehalf" unicode="&#xbd;" horiz-adv-x="514" 
d="M124 727h66v-321h-83v207h-57v56h23q26 0 35.5 11t15.5 47zM133 0h-82l333 725h81zM396 323q48 0 71.5 -25t23.5 -64q0 -32 -15.5 -58.5t-34.5 -41t-38 -33.5t-24 -36h110v-65h-193l-1 33q1 34 20 66t40.5 51t39 40.5t17.5 39.5q0 26 -23 26q-27 0 -36 -44l-61 20
q10 42 36.5 66.5t67.5 24.5z" />
    <glyph glyph-name="threequarters" unicode="&#xbe;" horiz-adv-x="514" 
d="M81 538v59h23q29 0 29 34q0 32 -22 32q-15 0 -23 -7.5t-12 -27.5l-59 20q8 38 34.5 59.5t66.5 21.5q47 0 71.5 -25t24.5 -62q0 -54 -37 -70v-2q41 -14 41 -70q0 -49 -27 -73.5t-75 -24.5q-84 0 -101 78l58 21q10 -35 37 -35q26 0 26 39q0 18 -7 25.5t-22 7.5h-26zM133 0
h-82l333 725h81zM459 0h-70v55h-124v54l116 210h78v-201h26l-4 -63h-22v-55zM340 118h50l4 112h-2z" />
    <glyph glyph-name="questiondown" unicode="&#xbf;" horiz-adv-x="405" 
d="M395 78q-19 -86 -69 -135t-128 -49q-89 0 -134 50t-45 129q0 76 35 146t99 115l6 72h101l8 -140q-114 -61 -114 -181q0 -67 53 -67q29 0 48 20t30 70zM277 629v-149h-134v149h134z" />
    <glyph glyph-name="Agrave" unicode="&#xc0;" horiz-adv-x="484" 
d="M174 149l-24 -149h-147l152 725h174l152 -725h-150l-24 149h-133zM239 562l-47 -298h96l-47 298h-2zM102 872h155l43 -120h-106z" />
    <glyph glyph-name="Aacute" unicode="&#xc1;" horiz-adv-x="484" 
d="M174 149l-24 -149h-147l152 725h174l152 -725h-150l-24 149h-133zM239 562l-47 -298h96l-47 298h-2zM221 872h156l-85 -120h-108z" />
    <glyph glyph-name="Acircumflex" unicode="&#xc2;" horiz-adv-x="484" 
d="M174 149l-24 -149h-147l152 725h174l152 -725h-150l-24 149h-133zM239 562l-47 -298h96l-47 298h-2zM215 752h-106l78 120h107l77 -120h-105l-25 47h-2z" />
    <glyph glyph-name="Atilde" unicode="&#xc3;" horiz-adv-x="484" 
d="M174 149l-24 -149h-147l152 725h174l152 -725h-150l-24 149h-133zM239 562l-47 -298h96l-47 298h-2zM314 875l67 -9q-7 -60 -28.5 -91t-64.5 -31q-27 0 -56.5 20t-37.5 20q-20 0 -25 -36l-67 8q7 62 28.5 92.5t64.5 30.5q29 0 58 -20t37 -20q20 0 24 36z" />
    <glyph glyph-name="Adieresis" unicode="&#xc4;" horiz-adv-x="484" 
d="M174 149l-24 -149h-147l152 725h174l152 -725h-150l-24 149h-133zM239 562l-47 -298h96l-47 298h-2zM122 872h95v-118h-95v118zM264 872h95v-118h-95v118z" />
    <glyph glyph-name="Aring" unicode="&#xc5;" horiz-adv-x="484" 
d="M174 149l-24 -149h-147l152 725h174l152 -725h-150l-24 149h-133zM239 562l-47 -298h96l-47 298h-2zM146 812q0 35 26.5 55.5t67.5 20.5t67.5 -20.5t26.5 -55.5q0 -34 -26 -54t-68 -20t-68 20t-26 54zM224 812q0 -16 16 -16q17 0 17 16q0 18 -17 18q-16 0 -16 -18z" />
    <glyph glyph-name="AE" unicode="&#xc6;" horiz-adv-x="661" 
d="M193 154l-43 -154h-147l225 725h406v-136h-186l12 -155h137v-119h-128l15 -181h159v-134h-297l-11 154h-142zM304 554l-79 -285h101l-20 285h-2z" />
    <glyph glyph-name="Ccedilla" unicode="&#xc7;" horiz-adv-x="418" 
d="M223 735q72 0 121 -48t61 -128l-112 -35q-11 79 -59 79q-57 0 -57 -92v-311q0 -83 57 -83q24 0 37.5 19t20.5 65l113 -33q-23 -162 -154 -176l-2 -11q65 -14 65 -63q0 -33 -32.5 -58t-87.5 -29l-26 58q43 9 43 22q0 16 -45 20l14 63q-71 12 -111 66t-40 139v311
q0 105 52.5 165t141.5 60z" />
    <glyph glyph-name="Egrave" unicode="&#xc8;" horiz-adv-x="402" 
d="M44 725h333v-136h-186v-155h138v-119h-138v-181h192v-134h-339v725zM76 872h155l43 -120h-106z" />
    <glyph glyph-name="Eacute" unicode="&#xc9;" horiz-adv-x="402" 
d="M44 725h333v-136h-186v-155h138v-119h-138v-181h192v-134h-339v725zM184 872h156l-85 -120h-108z" />
    <glyph glyph-name="Ecircumflex" unicode="&#xca;" horiz-adv-x="402" 
d="M44 725h333v-136h-186v-155h138v-119h-138v-181h192v-134h-339v725zM190 752h-106l78 120h107l77 -120h-105l-25 47h-2z" />
    <glyph glyph-name="Edieresis" unicode="&#xcb;" horiz-adv-x="402" 
d="M44 725h333v-136h-186v-155h138v-119h-138v-181h192v-134h-339v725zM94 872h95v-118h-95v118zM236 872h95v-118h-95v118z" />
    <glyph glyph-name="Igrave" unicode="&#xcc;" horiz-adv-x="247" 
d="M50 725h147v-725h-147v725zM-11 872h155l43 -120h-106z" />
    <glyph glyph-name="Iacute" unicode="&#xcd;" horiz-adv-x="247" 
d="M50 725h147v-725h-147v725zM97 872h156l-85 -120h-108z" />
    <glyph glyph-name="Icircumflex" unicode="&#xce;" horiz-adv-x="247" 
d="M50 725h147v-725h-147v725zM99 752h-106l78 120h107l77 -120h-105l-25 47h-2z" />
    <glyph glyph-name="Idieresis" unicode="&#xcf;" horiz-adv-x="247" 
d="M50 725h147v-725h-147v725zM7 872h95v-118h-95v118zM149 872h95v-118h-95v118z" />
    <glyph glyph-name="Eth" unicode="&#xd0;" horiz-adv-x="497" 
d="M54 725h206q99 0 154 -61.5t55 -172.5v-256q0 -111 -55 -173t-154 -62h-206v330h-47v87h47v308zM322 484q0 62 -14.5 85t-47.5 23h-59v-175h47v-87h-47v-200h59q34 0 48 23t14 86v245z" />
    <glyph glyph-name="Ntilde" unicode="&#xd1;" horiz-adv-x="493" 
d="M44 725h107l167 -360h2v360h129v-725h-99l-175 378h-2v-378h-129v725zM316 875l67 -9q-7 -60 -28.5 -91t-64.5 -31q-27 0 -56.5 20t-37.5 20q-20 0 -25 -36l-67 8q7 62 28.5 92.5t64.5 30.5q29 0 58 -20t37 -20q20 0 24 36z" />
    <glyph glyph-name="Ograve" unicode="&#xd2;" horiz-adv-x="473" 
d="M236 735q102 0 155 -61t53 -172v-279q0 -111 -53 -172t-155 -61t-154.5 60.5t-52.5 172.5v279q0 112 52.5 172.5t154.5 60.5zM297 223v279q0 58 -13.5 80t-46.5 22t-47 -22t-14 -80v-279q0 -59 14 -82t46 -23q33 0 47 23t14 82zM100 872h155l43 -120h-106z" />
    <glyph glyph-name="Oacute" unicode="&#xd3;" horiz-adv-x="473" 
d="M236 735q102 0 155 -61t53 -172v-279q0 -111 -53 -172t-155 -61t-154.5 60.5t-52.5 172.5v279q0 112 52.5 172.5t154.5 60.5zM297 223v279q0 58 -13.5 80t-46.5 22t-47 -22t-14 -80v-279q0 -59 14 -82t46 -23q33 0 47 23t14 82zM214 872h156l-85 -120h-108z" />
    <glyph glyph-name="Ocircumflex" unicode="&#xd4;" horiz-adv-x="473" 
d="M236 735q102 0 155 -61t53 -172v-279q0 -111 -53 -172t-155 -61t-154.5 60.5t-52.5 172.5v279q0 112 52.5 172.5t154.5 60.5zM297 223v279q0 58 -13.5 80t-46.5 22t-47 -22t-14 -80v-279q0 -59 14 -82t46 -23q33 0 47 23t14 82zM212 752h-106l78 120h107l77 -120h-105
l-25 47h-2z" />
    <glyph glyph-name="Otilde" unicode="&#xd5;" horiz-adv-x="473" 
d="M236 735q102 0 155 -61t53 -172v-279q0 -111 -53 -172t-155 -61t-154.5 60.5t-52.5 172.5v279q0 112 52.5 172.5t154.5 60.5zM297 223v279q0 58 -13.5 80t-46.5 22t-47 -22t-14 -80v-279q0 -59 14 -82t46 -23q33 0 47 23t14 82zM308 875l67 -9q-7 -60 -28.5 -91
t-64.5 -31q-27 0 -56.5 20t-37.5 20q-20 0 -25 -36l-67 8q7 62 28.5 92.5t64.5 30.5q29 0 58 -20t37 -20q20 0 24 36z" />
    <glyph glyph-name="Odieresis" unicode="&#xd6;" horiz-adv-x="473" 
d="M236 735q102 0 155 -61t53 -172v-279q0 -111 -53 -172t-155 -61t-154.5 60.5t-52.5 172.5v279q0 112 52.5 172.5t154.5 60.5zM297 223v279q0 58 -13.5 80t-46.5 22t-47 -22t-14 -80v-279q0 -59 14 -82t46 -23q33 0 47 23t14 82zM119 872h95v-118h-95v118zM261 872h95
v-118h-95v118z" />
    <glyph glyph-name="multiply" unicode="&#xd7;" horiz-adv-x="375" 
d="M276 134l-90 97l-89 -97l-68 75l89 96l-89 97l68 75l89 -97l90 98l67 -75l-89 -97l90 -97z" />
    <glyph glyph-name="Oslash" unicode="&#xd8;" horiz-adv-x="473" 
d="M236 735q96 0 148 -54l29 50l43 -33l-38 -66q26 -55 26 -130v-279q0 -111 -53 -172t-155 -61q-99 0 -151 57l-26 -45l-43 34l35 62q-22 51 -22 125v279q0 112 52.5 172.5t154.5 60.5zM297 223v196h-2l-119 -212q1 -50 15.5 -69.5t44.5 -19.5q33 0 47 23t14 82zM176 502
v-186h2l118 211q-2 43 -16 60t-43 17q-33 0 -47 -22t-14 -80z" />
    <glyph glyph-name="Ugrave" unicode="&#xd9;" horiz-adv-x="488" 
d="M305 725h147v-503q0 -113 -53.5 -172.5t-153.5 -59.5t-154 57.5t-54 167.5v510h147v-510q0 -85 61 -85q30 0 45 19.5t15 65.5v510zM107 872h155l43 -120h-106z" />
    <glyph glyph-name="Uacute" unicode="&#xda;" horiz-adv-x="488" 
d="M305 725h147v-503q0 -113 -53.5 -172.5t-153.5 -59.5t-154 57.5t-54 167.5v510h147v-510q0 -85 61 -85q30 0 45 19.5t15 65.5v510zM221 872h156l-85 -120h-108z" />
    <glyph glyph-name="Ucircumflex" unicode="&#xdb;" horiz-adv-x="488" 
d="M305 725h147v-503q0 -113 -53.5 -172.5t-153.5 -59.5t-154 57.5t-54 167.5v510h147v-510q0 -85 61 -85q30 0 45 19.5t15 65.5v510zM220 752h-106l78 120h107l77 -120h-105l-25 47h-2z" />
    <glyph glyph-name="Udieresis" unicode="&#xdc;" horiz-adv-x="488" 
d="M305 725h147v-503q0 -113 -53.5 -172.5t-153.5 -59.5t-154 57.5t-54 167.5v510h147v-510q0 -85 61 -85q30 0 45 19.5t15 65.5v510zM126 872h95v-118h-95v118zM268 872h95v-118h-95v118z" />
    <glyph glyph-name="Yacute" unicode="&#xdd;" horiz-adv-x="469" 
d="M470 725l-162 -519v-206h-147v206l-162 519h160l76 -337h2l74 337h159zM210 872h156l-85 -120h-108z" />
    <glyph glyph-name="Thorn" unicode="&#xde;" horiz-adv-x="456" 
d="M249 612q91 0 140 -62.5t49 -177.5q0 -114 -47 -175t-133 -61h-67v-136h-147v725h147v-113h58zM191 481v-225h55q24 0 34.5 25t10.5 89q0 65 -10 88t-35 23h-55z" />
    <glyph glyph-name="germandbls" unicode="&#xdf;" 
d="M195 390q0 83 58 126q1 5 1 18q0 50 -33 50q-25 0 -38 -23.5t-13 -83.5v-477h-134v477q0 101 46 160t131 59q74 0 114.5 -51t40.5 -130q0 -43 -10 -70q-32 -13 -32 -44q0 -17 13.5 -41t30 -46.5t30 -60t13.5 -79.5q0 -88 -37.5 -136t-103.5 -48q-54 0 -88 26l15 105
q20 -16 45 -16q37 0 37 71q0 27 -21.5 60.5t-43 73t-21.5 80.5z" />
    <glyph glyph-name="agrave" unicode="&#xe0;" horiz-adv-x="384" 
d="M121 349l-90 38q39 136 163 136q77 0 113 -43.5t36 -118.5v-246q0 -27 23 -27h11v-84q-34 -10 -58 -10q-54 0 -82 35q-38 -37 -98 -37q-56 0 -88.5 41t-32.5 105q0 72 42.5 119.5t134.5 47.5h15v56q0 31 -8.5 41.5t-27.5 10.5q-36 0 -53 -64zM174 90q22 0 36 19v101h-16
q-49 0 -49 -57q0 -63 29 -63zM74 725h142l43 -145h-94z" />
    <glyph glyph-name="aacute" unicode="&#xe1;" horiz-adv-x="384" 
d="M121 349l-90 38q39 136 163 136q77 0 113 -43.5t36 -118.5v-246q0 -27 23 -27h11v-84q-34 -10 -58 -10q-54 0 -82 35q-38 -37 -98 -37q-56 0 -88.5 41t-32.5 105q0 72 42.5 119.5t134.5 47.5h15v56q0 31 -8.5 41.5t-27.5 10.5q-36 0 -53 -64zM174 90q22 0 36 19v101h-16
q-49 0 -49 -57q0 -63 29 -63zM176 725h142l-88 -145h-94z" />
    <glyph glyph-name="acircumflex" unicode="&#xe2;" horiz-adv-x="384" 
d="M121 349l-90 38q39 136 163 136q77 0 113 -43.5t36 -118.5v-246q0 -27 23 -27h11v-84q-34 -10 -58 -10q-54 0 -82 35q-38 -37 -98 -37q-56 0 -88.5 41t-32.5 105q0 72 42.5 119.5t134.5 47.5h15v56q0 31 -8.5 41.5t-27.5 10.5q-36 0 -53 -64zM174 90q22 0 36 19v101h-16
q-49 0 -49 -57q0 -63 29 -63zM169 580h-102l81 145h93l81 -145h-102l-25 64h-2z" />
    <glyph glyph-name="atilde" unicode="&#xe3;" horiz-adv-x="384" 
d="M121 349l-90 38q39 136 163 136q77 0 113 -43.5t36 -118.5v-246q0 -27 23 -27h11v-84q-34 -10 -58 -10q-54 0 -82 35q-38 -37 -98 -37q-56 0 -88.5 41t-32.5 105q0 72 42.5 119.5t134.5 47.5h15v56q0 31 -8.5 41.5t-27.5 10.5q-36 0 -53 -64zM174 90q22 0 36 19v101h-16
q-49 0 -49 -57q0 -63 29 -63zM269 727l67 -12q-7 -70 -28.5 -105.5t-64.5 -35.5q-25 0 -44 15t-31 30t-21 15q-10 0 -15 -11.5t-8 -42.5l-68 11q7 72 28.5 107t64.5 35q20 0 36.5 -9.5t25 -20.5t18 -20.5t17.5 -9.5q18 0 23 54z" />
    <glyph glyph-name="adieresis" unicode="&#xe4;" horiz-adv-x="384" 
d="M121 349l-90 38q39 136 163 136q77 0 113 -43.5t36 -118.5v-246q0 -27 23 -27h11v-84q-34 -10 -58 -10q-54 0 -82 35q-38 -37 -98 -37q-56 0 -88.5 41t-32.5 105q0 72 42.5 119.5t134.5 47.5h15v56q0 31 -8.5 41.5t-27.5 10.5q-36 0 -53 -64zM174 90q22 0 36 19v101h-16
q-49 0 -49 -57q0 -63 29 -63zM84 725h92v-137h-92v137zM213 725h91v-137h-91v137z" />
    <glyph glyph-name="aring" unicode="&#xe5;" horiz-adv-x="384" 
d="M121 349l-90 38q39 136 163 136q77 0 113 -43.5t36 -118.5v-246q0 -27 23 -27h11v-84q-34 -10 -58 -10q-54 0 -82 35q-38 -37 -98 -37q-56 0 -88.5 41t-32.5 105q0 72 42.5 119.5t134.5 47.5h15v56q0 31 -8.5 41.5t-27.5 10.5q-36 0 -53 -64zM174 90q22 0 36 19v101h-16
q-49 0 -49 -57q0 -63 29 -63zM101 656q0 39 26 61.5t68 22.5t68 -22.5t26 -61.5q0 -38 -26.5 -60.5t-67.5 -22.5t-67.5 22.5t-26.5 60.5zM178 656q0 -18 17 -18t17 18q0 19 -17 19t-17 -19z" />
    <glyph glyph-name="ae" unicode="&#xe6;" horiz-adv-x="573" 
d="M553 223h-197v-61q0 -65 49 -65q40 0 56 69l92 -32q-19 -71 -56.5 -106.5t-104.5 -35.5q-80 0 -116 56q-42 -56 -128 -56q-61 0 -95.5 41t-34.5 105q0 74 45 122t144 48h16v51q0 30 -9.5 40t-30.5 10q-40 0 -56 -63l-94 42q18 61 60 98t97 37q69 0 104 -42q39 42 107 42
q72 0 112 -51.5t40 -129.5v-119zM179 93q30 0 44 23v95h-18q-60 0 -60 -62q0 -56 34 -56zM356 353v-44h77v45q0 35 -9 48.5t-29 13.5q-21 0 -30 -14t-9 -49z" />
    <glyph glyph-name="ccedilla" unicode="&#xe7;" horiz-adv-x="352" 
d="M343 382l-98 -32q-11 60 -45 60q-21 0 -32 -15t-11 -55v-168q0 -40 10 -55.5t33 -15.5q34 0 45 61l99 -32q-29 -124 -129 -137l-2 -12q65 -14 65 -63q0 -33 -32.5 -58t-87.5 -29l-26 58q43 9 43 22q0 16 -45 20l14 65q-59 14 -90 60.5t-31 109.5v180q0 76 43 126.5
t122 50.5q59 0 100 -36.5t55 -104.5z" />
    <glyph glyph-name="egrave" unicode="&#xe8;" horiz-adv-x="377" 
d="M356 229h-199v-56q0 -39 11.5 -55.5t37.5 -16.5q20 0 32 14t21 49l99 -32q-16 -71 -56.5 -106t-110.5 -35q-79 0 -123.5 50t-44.5 127v178q0 76 44 126.5t126 50.5q78 0 120.5 -51.5t42.5 -130.5v-112zM157 353v-39h79v40q0 34 -9.5 47.5t-29.5 13.5q-21 0 -30.5 -13.5
t-9.5 -48.5zM68 725h142l43 -145h-94z" />
    <glyph glyph-name="eacute" unicode="&#xe9;" horiz-adv-x="377" 
d="M356 229h-199v-56q0 -39 11.5 -55.5t37.5 -16.5q20 0 32 14t21 49l99 -32q-16 -71 -56.5 -106t-110.5 -35q-79 0 -123.5 50t-44.5 127v178q0 76 44 126.5t126 50.5q78 0 120.5 -51.5t42.5 -130.5v-112zM157 353v-39h79v40q0 34 -9.5 47.5t-29.5 13.5q-21 0 -30.5 -13.5
t-9.5 -48.5zM179 725h142l-88 -145h-94z" />
    <glyph glyph-name="ecircumflex" unicode="&#xea;" horiz-adv-x="377" 
d="M356 229h-199v-56q0 -39 11.5 -55.5t37.5 -16.5q20 0 32 14t21 49l99 -32q-16 -71 -56.5 -106t-110.5 -35q-79 0 -123.5 50t-44.5 127v178q0 76 44 126.5t126 50.5q78 0 120.5 -51.5t42.5 -130.5v-112zM157 353v-39h79v40q0 34 -9.5 47.5t-29.5 13.5q-21 0 -30.5 -13.5
t-9.5 -48.5zM169 579h-102l81 145h93l81 -145h-102l-25 64h-2z" />
    <glyph glyph-name="edieresis" unicode="&#xeb;" horiz-adv-x="377" 
d="M356 229h-199v-56q0 -39 11.5 -55.5t37.5 -16.5q20 0 32 14t21 49l99 -32q-16 -71 -56.5 -106t-110.5 -35q-79 0 -123.5 50t-44.5 127v178q0 76 44 126.5t126 50.5q78 0 120.5 -51.5t42.5 -130.5v-112zM157 353v-39h79v40q0 34 -9.5 47.5t-29.5 13.5q-21 0 -30.5 -13.5
t-9.5 -48.5zM83 725h92v-137h-92v137zM212 725h91v-137h-91v137z" />
    <glyph glyph-name="igrave" unicode="&#xec;" horiz-adv-x="213" 
d="M40 513h133v-513h-133v513zM-25 725h142l43 -145h-94z" />
    <glyph glyph-name="iacute" unicode="&#xed;" horiz-adv-x="213" 
d="M40 513h133v-513h-133v513zM93 725h142l-88 -145h-94z" />
    <glyph glyph-name="icircumflex" unicode="&#xee;" horiz-adv-x="213" 
d="M40 513h133v-513h-133v513zM80 580h-102l81 145h93l81 -145h-102l-25 64h-2z" />
    <glyph glyph-name="idieresis" unicode="&#xef;" horiz-adv-x="213" 
d="M40 513h133v-513h-133v513zM-4 725h92v-137h-92v137zM125 725h91v-137h-91v137z" />
    <glyph glyph-name="eth" unicode="&#xf0;" horiz-adv-x="398" 
d="M95 643l22 97q50 -7 91 -23l32 49l70 -50l-27 -42q92 -78 92 -246v-248q0 -83 -44.5 -135.5t-130.5 -52.5q-85 0 -130.5 50t-45.5 125v171q0 77 37 126t109 49q50 0 83 -25h2q-8 62 -33 92l-30 -47l-69 50l28 44q-19 7 -56 16zM157 172q0 -39 10 -55t33 -16q42 0 42 71
v161q0 40 -10 56.5t-32 16.5q-23 0 -33 -16.5t-10 -56.5v-161z" />
    <glyph glyph-name="ntilde" unicode="&#xf1;" horiz-adv-x="412" 
d="M168 380v-380h-133v513h116l3 -34h2q38 44 101 44q61 0 94 -47t33 -139v-337h-134v335q0 39 -9 54.5t-29 15.5q-28 0 -44 -25zM284 727l67 -12q-7 -70 -28.5 -105.5t-64.5 -35.5q-25 0 -44 15t-31 30t-21 15q-10 0 -15 -11.5t-8 -42.5l-68 11q7 72 28.5 107t64.5 35
q20 0 36.5 -9.5t25 -20.5t18 -20.5t17.5 -9.5q18 0 23 54z" />
    <glyph glyph-name="ograve" unicode="&#xf2;" horiz-adv-x="398" 
d="M375 346v-179q0 -77 -45.5 -127t-130.5 -50q-86 0 -131 49.5t-45 127.5v179q0 76 45.5 126.5t130.5 50.5q86 0 131 -49.5t45 -127.5zM157 340v-168q0 -39 10 -55.5t32 -16.5t32 16t10 56v168q0 40 -10 56t-32 16t-32 -16t-10 -56zM68 725h142l43 -145h-94z" />
    <glyph glyph-name="oacute" unicode="&#xf3;" horiz-adv-x="398" 
d="M375 346v-179q0 -77 -45.5 -127t-130.5 -50q-86 0 -131 49.5t-45 127.5v179q0 76 45.5 126.5t130.5 50.5q86 0 131 -49.5t45 -127.5zM157 340v-168q0 -39 10 -55.5t32 -16.5t32 16t10 56v168q0 40 -10 56t-32 16t-32 -16t-10 -56zM189 725h142l-88 -145h-94z" />
    <glyph glyph-name="ocircumflex" unicode="&#xf4;" horiz-adv-x="398" 
d="M375 346v-179q0 -77 -45.5 -127t-130.5 -50q-86 0 -131 49.5t-45 127.5v179q0 76 45.5 126.5t130.5 50.5q86 0 131 -49.5t45 -127.5zM157 340v-168q0 -39 10 -55.5t32 -16.5t32 16t10 56v168q0 40 -10 56t-32 16t-32 -16t-10 -56zM174 579h-102l81 145h93l81 -145h-102
l-25 64h-2z" />
    <glyph glyph-name="otilde" unicode="&#xf5;" horiz-adv-x="398" 
d="M375 346v-179q0 -77 -45.5 -127t-130.5 -50q-86 0 -131 49.5t-45 127.5v179q0 76 45.5 126.5t130.5 50.5q86 0 131 -49.5t45 -127.5zM157 340v-168q0 -39 10 -55.5t32 -16.5t32 16t10 56v168q0 40 -10 56t-32 16t-32 -16t-10 -56zM275 727l67 -12q-7 -70 -28.5 -105.5
t-64.5 -35.5q-25 0 -44 15t-31 30t-21 15q-10 0 -15 -11.5t-8 -42.5l-68 11q7 72 28.5 107t64.5 35q20 0 36.5 -9.5t25 -20.5t18 -20.5t17.5 -9.5q18 0 23 54z" />
    <glyph glyph-name="odieresis" unicode="&#xf6;" horiz-adv-x="398" 
d="M375 346v-179q0 -77 -45.5 -127t-130.5 -50q-86 0 -131 49.5t-45 127.5v179q0 76 45.5 126.5t130.5 50.5q86 0 131 -49.5t45 -127.5zM157 340v-168q0 -39 10 -55.5t32 -16.5t32 16t10 56v168q0 40 -10 56t-32 16t-32 -16t-10 -56zM89 725h92v-137h-92v137zM218 725h91
v-137h-91v137z" />
    <glyph glyph-name="divide" unicode="&#xf7;" horiz-adv-x="375" 
d="M343 253h-311v107h311v-107zM123 460q0 29 18 49.5t45 20.5q26 0 45 -20.5t19 -49.5q0 -28 -19 -48t-45 -20q-27 0 -45 19.5t-18 48.5zM123 157q0 29 18 49.5t45 20.5q26 0 45 -20.5t19 -49.5q0 -28 -19 -48t-45 -20q-27 0 -45 19.5t-18 48.5z" />
    <glyph glyph-name="oslash" unicode="&#xf8;" horiz-adv-x="398" 
d="M375 346v-179q0 -77 -45.5 -127t-130.5 -50q-77 0 -123 41l-20 -29l-43 34l29 41q-19 38 -19 90v179q0 76 45.5 126.5t130.5 50.5q76 0 122 -41l24 34l44 -34l-33 -47q19 -38 19 -89zM199 100q22 0 32 16t10 56v96h-2l-81 -119q5 -49 41 -49zM157 340v-96h2l81 120
q-5 48 -41 48q-22 0 -32 -16t-10 -56z" />
    <glyph glyph-name="ugrave" unicode="&#xf9;" horiz-adv-x="412" 
d="M244 130v383h134v-513h-116l-4 33h-2q-37 -43 -103 -43q-59 0 -92 47t-33 138v338h134v-339q0 -69 38 -69q28 0 44 25zM71 725h142l43 -145h-94z" />
    <glyph glyph-name="uacute" unicode="&#xfa;" horiz-adv-x="412" 
d="M244 130v383h134v-513h-116l-4 33h-2q-37 -43 -103 -43q-59 0 -92 47t-33 138v338h134v-339q0 -69 38 -69q28 0 44 25zM193 725h142l-88 -145h-94z" />
    <glyph glyph-name="ucircumflex" unicode="&#xfb;" horiz-adv-x="412" 
d="M244 130v383h134v-513h-116l-4 33h-2q-37 -43 -103 -43q-59 0 -92 47t-33 138v338h134v-339q0 -69 38 -69q28 0 44 25zM181 579h-102l81 145h93l81 -145h-102l-25 64h-2z" />
    <glyph glyph-name="udieresis" unicode="&#xfc;" horiz-adv-x="412" 
d="M244 130v383h134v-513h-116l-4 33h-2q-37 -43 -103 -43q-59 0 -92 47t-33 138v338h134v-339q0 -69 38 -69q28 0 44 25zM96 725h92v-137h-92v137zM225 725h91v-137h-91v137z" />
    <glyph glyph-name="yacute" unicode="&#xfd;" horiz-adv-x="405" 
d="M405 513l-136 -499q-26 -93 -70.5 -131.5t-123.5 -40.5l-7 104q33 3 51 17t28 47l5 16l-152 487h146l68 -316h2l54 316h135zM200 725h142l-88 -145h-94z" />
    <glyph glyph-name="thorn" unicode="&#xfe;" horiz-adv-x="407" 
d="M252 -7q-52 0 -82 29h-2v-192h-133v916h133v-263h2q30 40 89 40t92 -47.5t33 -138.5v-161q0 -89 -34.5 -136t-97.5 -47zM168 381v-251q16 -25 42 -25q21 0 30.5 16t9.5 55v158q0 40 -9 55.5t-29 15.5q-29 0 -44 -24z" />
    <glyph glyph-name="ydieresis" unicode="&#xff;" horiz-adv-x="405" 
d="M405 513l-136 -499q-26 -93 -70.5 -131.5t-123.5 -40.5l-7 104q33 3 51 17t28 47l5 16l-152 487h146l68 -316h2l54 316h135zM102 725h92v-137h-92v137zM231 725h91v-137h-91v137z" />
    <glyph glyph-name="Amacron" unicode="&#x100;" horiz-adv-x="484" 
d="M174 149l-24 -149h-147l152 725h174l152 -725h-150l-24 149h-133zM239 562l-47 -298h96l-47 298h-2zM360 857v-87h-239v87h239z" />
    <glyph glyph-name="amacron" unicode="&#x101;" horiz-adv-x="384" 
d="M121 349l-90 38q39 136 163 136q77 0 113 -43.5t36 -118.5v-246q0 -27 23 -27h11v-84q-34 -10 -58 -10q-54 0 -82 35q-38 -37 -98 -37q-56 0 -88.5 41t-32.5 105q0 72 42.5 119.5t134.5 47.5h15v56q0 31 -8.5 41.5t-27.5 10.5q-36 0 -53 -64zM174 90q22 0 36 19v101h-16
q-49 0 -49 -57q0 -63 29 -63zM312 697v-91h-235v91h235z" />
    <glyph glyph-name="Abreve" unicode="&#x102;" horiz-adv-x="484" 
d="M174 149l-24 -149h-147l152 725h174l152 -725h-150l-24 149h-133zM239 562l-47 -298h96l-47 298h-2zM112 872h95q2 -32 9.5 -43t25.5 -11q17 0 25 11.5t10 42.5h94q-10 -71 -39 -98t-91 -27q-61 0 -90 27t-39 98z" />
    <glyph glyph-name="abreve" unicode="&#x103;" horiz-adv-x="384" 
d="M121 349l-90 38q39 136 163 136q77 0 113 -43.5t36 -118.5v-246q0 -27 23 -27h11v-84q-34 -10 -58 -10q-54 0 -82 35q-38 -37 -98 -37q-56 0 -88.5 41t-32.5 105q0 72 42.5 119.5t134.5 47.5h15v56q0 31 -8.5 41.5t-27.5 10.5q-36 0 -53 -64zM174 90q22 0 36 19v101h-16
q-49 0 -49 -57q0 -63 29 -63zM67 725h93q2 -47 9.5 -63t25.5 -16q17 0 24.5 16t10.5 63h93q-9 -90 -37.5 -121.5t-90.5 -31.5t-90.5 31.5t-37.5 121.5z" />
    <glyph glyph-name="Aogonek" unicode="&#x104;" horiz-adv-x="484" 
d="M174 149l-24 -149h-147l152 725h174l152 -725h-22q-38 -3 -38 -49q0 -32 29 -32q18 0 36 12l23 -72q-35 -28 -90 -28q-51 0 -76 21t-25 57q0 59 60 89v2h-47l-24 149h-133zM239 562l-47 -298h96l-47 298h-2z" />
    <glyph glyph-name="aogonek" unicode="&#x105;" horiz-adv-x="384" 
d="M121 349l-90 38q39 136 163 136q77 0 113 -43.5t36 -118.5v-246q0 -27 23 -27h11v-84q-25 -4 -40.5 -20t-15.5 -36q0 -28 27 -28q20 0 38 12l24 -72q-36 -28 -91 -28q-51 0 -76 21t-25 57q0 56 64 88v2q-28 7 -45 29q-38 -37 -98 -37q-56 0 -88.5 41t-32.5 105
q0 72 42.5 119.5t134.5 47.5h15v56q0 31 -8.5 41.5t-27.5 10.5q-36 0 -53 -64zM174 90q22 0 36 19v101h-16q-49 0 -49 -57q0 -63 29 -63z" />
    <glyph glyph-name="Cacute" unicode="&#x106;" horiz-adv-x="418" 
d="M223 735q72 0 121 -48t61 -128l-112 -35q-11 79 -59 79q-57 0 -57 -92v-311q0 -83 57 -83q24 0 37.5 19t20.5 65l113 -33q-26 -178 -184 -178q-89 0 -140.5 56.5t-51.5 152.5v311q0 105 52.5 165t141.5 60zM195 872h156l-85 -120h-108z" />
    <glyph glyph-name="cacute" unicode="&#x107;" horiz-adv-x="352" 
d="M343 382l-98 -32q-11 60 -45 60q-21 0 -32 -15t-11 -55v-168q0 -40 10 -55.5t33 -15.5q34 0 45 61l99 -32q-32 -139 -156 -139q-80 0 -122.5 50.5t-42.5 124.5v180q0 76 43 126.5t122 50.5q59 0 100 -36.5t55 -104.5zM177 725h142l-88 -145h-94z" />
    <glyph glyph-name="Ccircumflex" unicode="&#x108;" horiz-adv-x="418" 
d="M223 735q72 0 121 -48t61 -128l-112 -35q-11 79 -59 79q-57 0 -57 -92v-311q0 -83 57 -83q24 0 37.5 19t20.5 65l113 -33q-26 -178 -184 -178q-89 0 -140.5 56.5t-51.5 152.5v311q0 105 52.5 165t141.5 60zM197 752h-106l78 120h107l77 -120h-105l-25 47h-2z" />
    <glyph glyph-name="ccircumflex" unicode="&#x109;" horiz-adv-x="352" 
d="M343 382l-98 -32q-11 60 -45 60q-21 0 -32 -15t-11 -55v-168q0 -40 10 -55.5t33 -15.5q34 0 45 61l99 -32q-32 -139 -156 -139q-80 0 -122.5 50.5t-42.5 124.5v180q0 76 43 126.5t122 50.5q59 0 100 -36.5t55 -104.5zM166 579h-102l81 145h93l81 -145h-102l-25 64h-2z
" />
    <glyph glyph-name="Cdotaccent" unicode="&#x10a;" horiz-adv-x="418" 
d="M223 735q72 0 121 -48t61 -128l-112 -35q-11 79 -59 79q-57 0 -57 -92v-311q0 -83 57 -83q24 0 37.5 19t20.5 65l113 -33q-26 -178 -184 -178q-89 0 -140.5 56.5t-51.5 152.5v311q0 105 52.5 165t141.5 60zM159 872h126v-118h-126v118z" />
    <glyph glyph-name="cdotaccent" unicode="&#x10b;" horiz-adv-x="352" 
d="M343 382l-98 -32q-11 60 -45 60q-21 0 -32 -15t-11 -55v-168q0 -40 10 -55.5t33 -15.5q34 0 45 61l99 -32q-32 -139 -156 -139q-80 0 -122.5 50.5t-42.5 124.5v180q0 76 43 126.5t122 50.5q59 0 100 -36.5t55 -104.5zM131 723h121v-137h-121v137z" />
    <glyph glyph-name="Ccaron" unicode="&#x10c;" horiz-adv-x="418" 
d="M223 735q72 0 121 -48t61 -128l-112 -35q-11 79 -59 79q-57 0 -57 -92v-311q0 -83 57 -83q24 0 37.5 19t20.5 65l113 -33q-26 -178 -184 -178q-89 0 -140.5 56.5t-51.5 152.5v311q0 105 52.5 165t141.5 60zM92 872h102l24 -49h2l25 49h102l-81 -120h-93z" />
    <glyph glyph-name="ccaron" unicode="&#x10d;" horiz-adv-x="352" 
d="M343 382l-98 -32q-11 60 -45 60q-21 0 -32 -15t-11 -55v-168q0 -40 10 -55.5t33 -15.5q34 0 45 61l99 -32q-32 -139 -156 -139q-80 0 -122.5 50.5t-42.5 124.5v180q0 76 43 126.5t122 50.5q59 0 100 -36.5t55 -104.5zM64 725h102l24 -64h2l25 64h102l-81 -145h-93z" />
    <glyph glyph-name="Dcaron" unicode="&#x10e;" horiz-adv-x="488" 
d="M44 725h206q99 0 154 -61.5t55 -172.5v-256q0 -111 -55 -173t-154 -62h-206v725zM312 484q0 62 -14.5 85t-47.5 23h-59v-462h59q34 0 48 23t14 86v245zM95 872h102l24 -49h2l25 49h102l-81 -120h-93z" />
    <glyph glyph-name="dcaron" unicode="&#x10f;" horiz-adv-x="409" 
d="M155 522q50 0 82 -29h2v253h133v-746h-116l-4 33h-2q-36 -43 -102 -43q-59 0 -92 47t-33 138v163q0 90 34 137t98 47zM239 128v255q-14 23 -42 23q-21 0 -30.5 -15.5t-9.5 -56.5v-160q0 -38 9 -53.5t29 -15.5q28 0 44 23zM408 747h107l-53 -145h-73z" />
    <glyph glyph-name="Dcroat" unicode="&#x110;" horiz-adv-x="497" 
d="M54 725h206q99 0 154 -61.5t55 -172.5v-256q0 -111 -55 -173t-154 -62h-206v330h-47v87h47v308zM322 484q0 62 -14.5 85t-47.5 23h-59v-175h47v-87h-47v-200h59q34 0 48 23t14 86v245z" />
    <glyph glyph-name="dcroat" unicode="&#x111;" horiz-adv-x="410" 
d="M195 584v89h44v73h133v-73h32v-89h-32v-584h-116l-4 33h-2q-36 -43 -102 -43q-59 0 -92 47t-33 138v163q0 90 34 137t98 47q50 0 82 -29h2v91h-44zM239 128v255q-14 23 -42 23q-21 0 -30.5 -15.5t-9.5 -56.5v-160q0 -38 9 -53.5t29 -15.5q28 0 44 23z" />
    <glyph glyph-name="Emacron" unicode="&#x112;" horiz-adv-x="402" 
d="M44 725h333v-136h-186v-155h138v-119h-138v-181h192v-134h-339v725zM331 857v-87h-239v87h239z" />
    <glyph glyph-name="emacron" unicode="&#x113;" horiz-adv-x="377" 
d="M356 229h-199v-56q0 -39 11.5 -55.5t37.5 -16.5q20 0 32 14t21 49l99 -32q-16 -71 -56.5 -106t-110.5 -35q-79 0 -123.5 50t-44.5 127v178q0 76 44 126.5t126 50.5q78 0 120.5 -51.5t42.5 -130.5v-112zM157 353v-39h79v40q0 34 -9.5 47.5t-29.5 13.5q-21 0 -30.5 -13.5
t-9.5 -48.5zM311 697v-91h-235v91h235z" />
    <glyph glyph-name="Ebreve" unicode="&#x114;" horiz-adv-x="402" 
d="M44 725h333v-136h-186v-155h138v-119h-138v-181h192v-134h-339v725zM86 872h95q2 -32 9.5 -43t25.5 -11q17 0 25 11.5t10 42.5h94q-10 -71 -39 -98t-91 -27q-61 0 -90 27t-39 98z" />
    <glyph glyph-name="ebreve" unicode="&#x115;" horiz-adv-x="377" 
d="M356 229h-199v-56q0 -39 11.5 -55.5t37.5 -16.5q20 0 32 14t21 49l99 -32q-16 -71 -56.5 -106t-110.5 -35q-79 0 -123.5 50t-44.5 127v178q0 76 44 126.5t126 50.5q78 0 120.5 -51.5t42.5 -130.5v-112zM157 353v-39h79v40q0 34 -9.5 47.5t-29.5 13.5q-21 0 -30.5 -13.5
t-9.5 -48.5zM67 725h93q2 -47 9.5 -63t25.5 -16q17 0 24.5 16t10.5 63h93q-9 -90 -37.5 -121.5t-90.5 -31.5t-90.5 31.5t-37.5 121.5z" />
    <glyph glyph-name="Edotaccent" unicode="&#x116;" horiz-adv-x="402" 
d="M44 725h333v-136h-186v-155h138v-119h-138v-181h192v-134h-339v725zM152 872h126v-118h-126v118z" />
    <glyph glyph-name="edotaccent" unicode="&#x117;" horiz-adv-x="377" 
d="M356 229h-199v-56q0 -39 11.5 -55.5t37.5 -16.5q20 0 32 14t21 49l99 -32q-16 -71 -56.5 -106t-110.5 -35q-79 0 -123.5 50t-44.5 127v178q0 76 44 126.5t126 50.5q78 0 120.5 -51.5t42.5 -130.5v-112zM157 353v-39h79v40q0 34 -9.5 47.5t-29.5 13.5q-21 0 -30.5 -13.5
t-9.5 -48.5zM135 723h121v-137h-121v137z" />
    <glyph glyph-name="Eogonek" unicode="&#x118;" horiz-adv-x="402" 
d="M44 725h333v-136h-186v-155h138v-119h-138v-181h192v-134h-22q-19 -1 -28.5 -16t-9.5 -33q0 -32 29 -32q18 0 36 12l23 -72q-35 -28 -90 -28q-51 0 -76 21t-25 57q0 59 60 89v2h-236v725z" />
    <glyph glyph-name="eogonek" unicode="&#x119;" horiz-adv-x="377" 
d="M356 229h-199v-56q0 -39 11.5 -55.5t37.5 -16.5q20 0 32 14t21 49l99 -32q-23 -101 -94 -129q-38 -15 -38 -55q0 -29 27 -29q20 0 38 12l24 -72q-36 -28 -91 -28q-51 0 -76 21t-25 57q0 50 53 82v2q-72 4 -112.5 52.5t-40.5 122.5v178q0 76 44 126.5t126 50.5
q78 0 120.5 -51.5t42.5 -130.5v-112zM157 353v-39h79v40q0 34 -9.5 47.5t-29.5 13.5q-21 0 -30.5 -13.5t-9.5 -48.5z" />
    <glyph glyph-name="Ecaron" unicode="&#x11a;" horiz-adv-x="402" 
d="M44 725h333v-136h-186v-155h138v-119h-138v-181h192v-134h-339v725zM85 872h102l24 -49h2l25 49h102l-81 -120h-93z" />
    <glyph glyph-name="ecaron" unicode="&#x11b;" horiz-adv-x="377" 
d="M356 229h-199v-56q0 -39 11.5 -55.5t37.5 -16.5q20 0 32 14t21 49l99 -32q-16 -71 -56.5 -106t-110.5 -35q-79 0 -123.5 50t-44.5 127v178q0 76 44 126.5t126 50.5q78 0 120.5 -51.5t42.5 -130.5v-112zM157 353v-39h79v40q0 34 -9.5 47.5t-29.5 13.5q-21 0 -30.5 -13.5
t-9.5 -48.5zM67 725h102l24 -64h2l25 64h102l-81 -145h-93z" />
    <glyph glyph-name="Gcircumflex" unicode="&#x11c;" horiz-adv-x="468" 
d="M240 735q78 0 130 -45.5t65 -131.5l-112 -35q-11 44 -28.5 62.5t-43.5 18.5q-40 0 -57.5 -26t-17.5 -87v-265q0 -102 73 -102q35 0 58 32v112h-52v106h180v-374h-120v33h-2q-43 -43 -107 -43q-81 0 -129 58t-48 176v268q0 113 53 178t158 65zM220 752h-106l78 120h107
l77 -120h-105l-25 47h-2z" />
    <glyph glyph-name="gcircumflex" unicode="&#x11d;" horiz-adv-x="381" 
d="M187 158q-32 0 -51 5q-9 -7 -9 -15q0 -16 36 -16h61q149 0 149 -136q0 -84 -48 -128t-136 -44q-85 0 -123 34t-38 88q0 55 30 88q-39 31 -39 79q0 52 49 86q-41 42 -41 140q0 95 39 139.5t121 44.5q46 0 78 -13q31 20 47 53l61 -27q-5 -60 -38 -95q17 -42 17 -102
q0 -94 -40 -137.5t-125 -43.5zM153 338q0 -52 7 -65.5t28 -13.5q22 0 29 14t7 65q0 52 -7.5 66.5t-28.5 14.5q-22 0 -28.5 -14.5t-6.5 -66.5zM214 9h-64q-8 -13 -8 -40q0 -25 12 -35t43 -10q33 0 45 11.5t12 35.5q0 23 -8 30.5t-32 7.5zM163 579h-102l81 145h93l81 -145
h-102l-25 64h-2z" />
    <glyph glyph-name="Gbreve" unicode="&#x11e;" horiz-adv-x="468" 
d="M240 735q78 0 130 -45.5t65 -131.5l-112 -35q-11 44 -28.5 62.5t-43.5 18.5q-40 0 -57.5 -26t-17.5 -87v-265q0 -102 73 -102q35 0 58 32v112h-52v106h180v-374h-120v33h-2q-43 -43 -107 -43q-81 0 -129 58t-48 176v268q0 113 53 178t158 65zM114 872h95q2 -32 9.5 -43
t25.5 -11q17 0 25 11.5t10 42.5h94q-10 -71 -39 -98t-91 -27q-61 0 -90 27t-39 98z" />
    <glyph glyph-name="gbreve" unicode="&#x11f;" horiz-adv-x="381" 
d="M187 158q-32 0 -51 5q-9 -7 -9 -15q0 -16 36 -16h61q149 0 149 -136q0 -84 -48 -128t-136 -44q-85 0 -123 34t-38 88q0 55 30 88q-39 31 -39 79q0 52 49 86q-41 42 -41 140q0 95 39 139.5t121 44.5q46 0 78 -13q31 20 47 53l61 -27q-5 -60 -38 -95q17 -42 17 -102
q0 -94 -40 -137.5t-125 -43.5zM153 338q0 -52 7 -65.5t28 -13.5q22 0 29 14t7 65q0 52 -7.5 66.5t-28.5 14.5q-22 0 -28.5 -14.5t-6.5 -66.5zM214 9h-64q-8 -13 -8 -40q0 -25 12 -35t43 -10q33 0 45 11.5t12 35.5q0 23 -8 30.5t-32 7.5zM66 725h93q2 -47 9.5 -63t25.5 -16
q17 0 24.5 16t10.5 63h93q-9 -90 -37.5 -121.5t-90.5 -31.5t-90.5 31.5t-37.5 121.5z" />
    <glyph glyph-name="Gdotaccent" unicode="&#x120;" horiz-adv-x="468" 
d="M240 735q78 0 130 -45.5t65 -131.5l-112 -35q-11 44 -28.5 62.5t-43.5 18.5q-40 0 -57.5 -26t-17.5 -87v-265q0 -102 73 -102q35 0 58 32v112h-52v106h180v-374h-120v33h-2q-43 -43 -107 -43q-81 0 -129 58t-48 176v268q0 113 53 178t158 65zM176 872h126v-118h-126v118z
" />
    <glyph glyph-name="gdotaccent" unicode="&#x121;" horiz-adv-x="381" 
d="M187 158q-32 0 -51 5q-9 -7 -9 -15q0 -16 36 -16h61q149 0 149 -136q0 -84 -48 -128t-136 -44q-85 0 -123 34t-38 88q0 55 30 88q-39 31 -39 79q0 52 49 86q-41 42 -41 140q0 95 39 139.5t121 44.5q46 0 78 -13q31 20 47 53l61 -27q-5 -60 -38 -95q17 -42 17 -102
q0 -94 -40 -137.5t-125 -43.5zM153 338q0 -52 7 -65.5t28 -13.5q22 0 29 14t7 65q0 52 -7.5 66.5t-28.5 14.5q-22 0 -28.5 -14.5t-6.5 -66.5zM214 9h-64q-8 -13 -8 -40q0 -25 12 -35t43 -10q33 0 45 11.5t12 35.5q0 23 -8 30.5t-32 7.5zM130 723h121v-137h-121v137z" />
    <glyph glyph-name="Gcommaaccent" unicode="&#x122;" horiz-adv-x="468" 
d="M240 735q78 0 130 -45.5t65 -131.5l-112 -35q-11 44 -28.5 62.5t-43.5 18.5q-40 0 -57.5 -26t-17.5 -87v-265q0 -102 73 -102q35 0 58 32v112h-52v106h180v-374h-120v33h-2q-43 -43 -107 -43q-81 0 -129 58t-48 176v268q0 113 53 178t158 65zM182 -96v76h126v-40
q0 -62 -27.5 -86t-98.5 -27l-4 47q29 2 39.5 7.5t10.5 17.5z" />
    <glyph glyph-name="gcommaaccent" unicode="&#x123;" horiz-adv-x="381" 
d="M187 158q-32 0 -51 5q-9 -7 -9 -15q0 -16 36 -16h61q149 0 149 -136q0 -84 -48 -128t-136 -44q-85 0 -123 34t-38 88q0 55 30 88q-39 31 -39 79q0 52 49 86q-41 42 -41 140q0 95 39 139.5t121 44.5q46 0 78 -13q31 20 47 53l61 -27q-5 -60 -38 -95q17 -42 17 -102
q0 -94 -40 -137.5t-125 -43.5zM153 338q0 -52 7 -65.5t28 -13.5q22 0 29 14t7 65q0 52 -7.5 66.5t-28.5 14.5q-22 0 -28.5 -14.5t-6.5 -66.5zM214 9h-64q-8 -13 -8 -40q0 -25 12 -35t43 -10q33 0 45 11.5t12 35.5q0 23 -8 30.5t-32 7.5zM249 653v-77h-127v40q0 62 27.5 86
t98.5 27l4 -47q-29 -2 -39 -7.5t-10 -17.5z" />
    <glyph glyph-name="Hcircumflex" unicode="&#x124;" horiz-adv-x="493" 
d="M44 725h147v-284h111v284h147v-725h-147v305h-111v-305h-147v725zM222 752h-106l78 120h107l77 -120h-105l-25 47h-2z" />
    <glyph glyph-name="hcircumflex" unicode="&#x125;" horiz-adv-x="414" 
d="M170 381v-381h-134v746h134v-259h2q32 36 91 36t91 -47t32 -139v-337h-134v335q0 39 -9 54.5t-29 15.5q-29 0 -44 -24zM78 766h-102l81 145h93l81 -145h-102l-25 64h-2z" />
    <glyph glyph-name="Hbar" unicode="&#x126;" horiz-adv-x="493" 
d="M44 725h147v-72h111v72h147v-72h39v-88h-39v-565h-147v305h-111v-305h-147v565h-38v88h38v72zM191 441h111v124h-111v-124z" />
    <glyph glyph-name="hbar" unicode="&#x127;" horiz-adv-x="414" 
d="M170 381v-381h-134v575h-51v90h51v81h134v-81h68v-90h-68v-88h2q32 36 91 36t91 -47t32 -139v-337h-134v335q0 39 -9 54.5t-29 15.5q-29 0 -44 -24z" />
    <glyph glyph-name="Itilde" unicode="&#x128;" horiz-adv-x="247" 
d="M50 725h147v-725h-147v725zM196 875l67 -9q-7 -60 -28.5 -91t-64.5 -31q-27 0 -56.5 20t-37.5 20q-20 0 -25 -36l-67 8q7 62 28.5 92.5t64.5 30.5q28 0 57.5 -20t37.5 -20q20 0 24 36z" />
    <glyph glyph-name="itilde" unicode="&#x129;" horiz-adv-x="213" 
d="M40 513h133v-513h-133v513zM181 727l67 -12q-7 -70 -28.5 -105.5t-64.5 -35.5q-25 0 -44 15t-31 30t-21 15q-10 0 -15 -11.5t-8 -42.5l-68 11q7 72 28.5 107t64.5 35q20 0 36.5 -9.5t25 -20.5t18 -20.5t17.5 -9.5q18 0 23 54z" />
    <glyph glyph-name="Imacron" unicode="&#x12a;" horiz-adv-x="247" 
d="M50 725h147v-725h-147v725zM244 857v-87h-239v87h239z" />
    <glyph glyph-name="imacron" unicode="&#x12b;" horiz-adv-x="213" 
d="M40 513h133v-513h-133v513zM224 697v-91h-235v91h235z" />
    <glyph glyph-name="Ibreve" unicode="&#x12c;" horiz-adv-x="247" 
d="M50 725h147v-725h-147v725zM-7 872h95q2 -32 9.5 -43t25.5 -11q17 0 25 11.5t10 42.5h94q-10 -71 -39 -98t-91 -27q-61 0 -90 27t-39 98z" />
    <glyph glyph-name="ibreve" unicode="&#x12d;" horiz-adv-x="213" 
d="M40 513h133v-513h-133v513zM-23 725h93q2 -47 9.5 -63t25.5 -16q17 0 24.5 16t10.5 63h93q-9 -90 -37.5 -121.5t-90.5 -31.5t-90.5 31.5t-37.5 121.5z" />
    <glyph glyph-name="Iogonek" unicode="&#x12e;" horiz-adv-x="247" 
d="M50 725h147v-725h-18q-21 0 -32 -15t-11 -34q0 -32 29 -32q18 0 36 12l23 -72q-35 -28 -90 -28q-51 0 -76 21t-25 57q0 59 60 89v2h-43v725z" />
    <glyph glyph-name="iogonek" unicode="&#x12f;" horiz-adv-x="213" 
d="M40 513h133v-513h-15q-19 -1 -28.5 -16t-9.5 -33q0 -32 29 -32q18 0 36 12l23 -72q-35 -28 -90 -28q-51 0 -76 21t-25 57q0 59 60 89v2h-37v513zM47 724h121v-137h-121v137z" />
    <glyph glyph-name="Idotaccent" unicode="&#x130;" horiz-adv-x="247" 
d="M50 725h147v-725h-147v725zM60 872h126v-118h-126v118z" />
    <glyph glyph-name="dotlessi" unicode="&#x131;" horiz-adv-x="213" 
d="M40 513h133v-513h-133v513z" />
    <glyph glyph-name="IJ" unicode="&#x132;" horiz-adv-x="495" 
d="M50 725h147v-725h-147v725zM304 725h148v-608q0 -119 -58.5 -181.5t-169.5 -66.5l-12 123q48 0 70 27.5t22 93.5v612z" />
    <glyph glyph-name="ij" unicode="&#x133;" horiz-adv-x="431" 
d="M40 513h133v-513h-133v513zM46 724h121v-137h-121v137zM263 724h121v-137h-121v137zM215 -159l-8 108q27 4 39 22t12 62v480h134v-478q0 -187 -177 -194z" />
    <glyph glyph-name="Jcircumflex" unicode="&#x134;" horiz-adv-x="248" 
d="M57 725h148v-608q0 -119 -58.5 -181.5t-169.5 -66.5l-12 123q48 0 70 27.5t22 93.5v612zM106 752h-106l78 120h107l77 -120h-105l-25 47h-2z" />
    <glyph glyph-name="jcircumflex" unicode="&#x135;" horiz-adv-x="218" 
d="M85 580h-102l81 145h93l81 -145h-102l-25 64h-2zM2 -159l-8 108q27 4 39 22t12 62v480h134v-478q0 -187 -177 -194z" />
    <glyph glyph-name="Kcommaaccent" unicode="&#x136;" horiz-adv-x="478" 
d="M481 0h-158l-103 290h-2l-30 -65v-225h-144v725h144v-316h2l119 316h161l-157 -317zM192 -96v76h126v-40q0 -62 -27.5 -86t-98.5 -27l-4 47q29 2 39.5 7.5t10.5 17.5z" />
    <glyph glyph-name="kcommaaccent" unicode="&#x137;" horiz-adv-x="426" 
d="M36 746h134v-460h2l111 227h136l-123 -223l130 -290h-144l-73 189h-2l-37 -50v-139h-134v746zM154 -96v76h126v-40q0 -62 -27.5 -86t-98.5 -27l-4 47q29 2 39.5 7.5t10.5 17.5z" />
    <glyph glyph-name="kgreenlandic" unicode="&#x138;" horiz-adv-x="426" 
d="M36 513h134v-227h2l111 227h136l-123 -223l130 -290h-144l-73 189h-2l-37 -50v-139h-134v513z" />
    <glyph glyph-name="Lacute" unicode="&#x139;" horiz-adv-x="378" 
d="M44 725h143v-587h178v-138h-321v725zM91 872h156l-85 -120h-108z" />
    <glyph glyph-name="lacute" unicode="&#x13a;" horiz-adv-x="217" 
d="M42 746h133v-746h-133v746zM96 911h142l-88 -145h-94z" />
    <glyph glyph-name="Lcommaaccent" unicode="&#x13b;" horiz-adv-x="378" 
d="M44 725h143v-587h178v-138h-321v725zM142 -96v76h126v-40q0 -62 -27.5 -86t-98.5 -27l-4 47q29 2 39.5 7.5t10.5 17.5z" />
    <glyph glyph-name="lcommaaccent" unicode="&#x13c;" horiz-adv-x="217" 
d="M42 746h133v-746h-133v746zM47 -96v76h126v-40q0 -62 -27.5 -86t-98.5 -27l-4 47q29 2 39.5 7.5t10.5 17.5z" />
    <glyph glyph-name="Lcaron" unicode="&#x13d;" horiz-adv-x="378" 
d="M44 725h143v-587h178v-138h-321v725zM249 725h107l-53 -145h-73z" />
    <glyph glyph-name="lcaron" unicode="&#x13e;" horiz-adv-x="217" 
d="M42 746h133v-746h-133v746zM207 747h107l-53 -145h-73z" />
    <glyph glyph-name="Ldot" unicode="&#x13f;" horiz-adv-x="378" 
d="M257 444h104v-114h-104v114zM44 725h143v-587h178v-138h-321v725z" />
    <glyph glyph-name="ldot" unicode="&#x140;" horiz-adv-x="260" 
d="M203 457h68v-159h-68v159zM42 746h133v-746h-133v746z" />
    <glyph glyph-name="Lslash" unicode="&#x141;" horiz-adv-x="394" 
d="M60 725h143v-271l110 59v-126l-110 -59v-190h178v-138h-321v267l-51 -28v124l51 29v333z" />
    <glyph glyph-name="lslash" unicode="&#x142;" horiz-adv-x="266" 
d="M65 746h133v-267h2l55 37v-117l-57 -38v-361h-133v288h-2l-51 -33v117l53 34v340z" />
    <glyph glyph-name="Nacute" unicode="&#x143;" horiz-adv-x="493" 
d="M44 725h107l167 -360h2v360h129v-725h-99l-175 378h-2v-378h-129v725zM214 872h156l-85 -120h-108z" />
    <glyph glyph-name="nacute" unicode="&#x144;" horiz-adv-x="412" 
d="M168 380v-380h-133v513h116l3 -34h2q38 44 101 44q61 0 94 -47t33 -139v-337h-134v335q0 39 -9 54.5t-29 15.5q-28 0 -44 -25zM189 725h142l-88 -145h-94z" />
    <glyph glyph-name="Ncommaaccent" unicode="&#x145;" horiz-adv-x="493" 
d="M44 725h107l167 -360h2v360h129v-725h-99l-175 378h-2v-378h-129v725zM198 -96v76h126v-40q0 -62 -27.5 -86t-98.5 -27l-4 47q29 2 39.5 7.5t10.5 17.5z" />
    <glyph glyph-name="ncommaaccent" unicode="&#x146;" horiz-adv-x="412" 
d="M168 380v-380h-133v513h116l3 -34h2q38 44 101 44q61 0 94 -47t33 -139v-337h-134v335q0 39 -9 54.5t-29 15.5q-28 0 -44 -25zM147 -96v76h126v-40q0 -62 -27.5 -86t-98.5 -27l-4 47q29 2 39.5 7.5t10.5 17.5z" />
    <glyph glyph-name="Ncaron" unicode="&#x147;" horiz-adv-x="493" 
d="M44 725h107l167 -360h2v360h129v-725h-99l-175 378h-2v-378h-129v725zM114 872h102l24 -49h2l25 49h102l-81 -120h-93z" />
    <glyph glyph-name="ncaron" unicode="&#x148;" horiz-adv-x="412" 
d="M168 380v-380h-133v513h116l3 -34h2q38 44 101 44q61 0 94 -47t33 -139v-337h-134v335q0 39 -9 54.5t-29 15.5q-28 0 -44 -25zM80 725h102l24 -64h2l25 64h102l-81 -145h-93z" />
    <glyph glyph-name="napostrophe" unicode="&#x149;" horiz-adv-x="412" 
d="M168 380v-380h-133v513h116l3 -34h2q38 44 101 44q61 0 94 -47t33 -139v-337h-134v335q0 39 -9 54.5t-29 15.5q-28 0 -44 -25zM14 648v76h126v-40q0 -62 -27.5 -86t-98.5 -27l-4 47q29 2 39.5 7.5t10.5 17.5z" />
    <glyph glyph-name="Eng" unicode="&#x14a;" horiz-adv-x="493" 
d="M173 0h-129v725h107l167 -361h2v361h129v-652q0 -193 -180 -198l-13 119q26 0 41.5 13t21.5 53l-144 316h-2v-376z" />
    <glyph glyph-name="eng" unicode="&#x14b;" horiz-adv-x="412" 
d="M208 -159l-8 102q28 5 39 24t11 66v302q0 39 -9 54.5t-29 15.5q-28 0 -44 -25v-380h-133v513h116l3 -34h2q38 44 101 44q61 0 94 -47t33 -139v-301q0 -188 -176 -195z" />
    <glyph glyph-name="Omacron" unicode="&#x14c;" horiz-adv-x="473" 
d="M236 735q102 0 155 -61t53 -172v-279q0 -111 -53 -172t-155 -61t-154.5 60.5t-52.5 172.5v279q0 112 52.5 172.5t154.5 60.5zM297 223v279q0 58 -13.5 80t-46.5 22t-47 -22t-14 -80v-279q0 -59 14 -82t46 -23q33 0 47 23t14 82zM356 857v-87h-239v87h239z" />
    <glyph glyph-name="omacron" unicode="&#x14d;" horiz-adv-x="398" 
d="M375 346v-179q0 -77 -45.5 -127t-130.5 -50q-86 0 -131 49.5t-45 127.5v179q0 76 45.5 126.5t130.5 50.5q86 0 131 -49.5t45 -127.5zM157 340v-168q0 -39 10 -55.5t32 -16.5t32 16t10 56v168q0 40 -10 56t-32 16t-32 -16t-10 -56zM316 697v-91h-235v91h235z" />
    <glyph glyph-name="Obreve" unicode="&#x14e;" horiz-adv-x="473" 
d="M236 735q102 0 155 -61t53 -172v-279q0 -111 -53 -172t-155 -61t-154.5 60.5t-52.5 172.5v279q0 112 52.5 172.5t154.5 60.5zM297 223v279q0 58 -13.5 80t-46.5 22t-47 -22t-14 -80v-279q0 -59 14 -82t46 -23q33 0 47 23t14 82zM108 872h95q2 -32 9.5 -43t25.5 -11
q17 0 25 11.5t10 42.5h94q-10 -71 -39 -98t-91 -27q-61 0 -90 27t-39 98z" />
    <glyph glyph-name="obreve" unicode="&#x14f;" horiz-adv-x="398" 
d="M375 346v-179q0 -77 -45.5 -127t-130.5 -50q-86 0 -131 49.5t-45 127.5v179q0 76 45.5 126.5t130.5 50.5q86 0 131 -49.5t45 -127.5zM157 340v-168q0 -39 10 -55.5t32 -16.5t32 16t10 56v168q0 40 -10 56t-32 16t-32 -16t-10 -56zM71 725h93q2 -47 9.5 -63t25.5 -16
q17 0 24.5 16t10.5 63h93q-9 -90 -37.5 -121.5t-90.5 -31.5t-90.5 31.5t-37.5 121.5z" />
    <glyph glyph-name="Ohungarumlaut" unicode="&#x150;" horiz-adv-x="473" 
d="M236 735q102 0 155 -61t53 -172v-279q0 -111 -53 -172t-155 -61t-154.5 60.5t-52.5 172.5v279q0 112 52.5 172.5t154.5 60.5zM297 223v279q0 58 -13.5 80t-46.5 22t-47 -22t-14 -80v-279q0 -59 14 -82t46 -23q33 0 47 23t14 82zM160 872h121l-69 -120h-76zM305 872h122
l-91 -120h-78z" />
    <glyph glyph-name="ohungarumlaut" unicode="&#x151;" horiz-adv-x="398" 
d="M375 346v-179q0 -77 -45.5 -127t-130.5 -50q-86 0 -131 49.5t-45 127.5v179q0 76 45.5 126.5t130.5 50.5q86 0 131 -49.5t45 -127.5zM157 340v-168q0 -39 10 -55.5t32 -16.5t32 16t10 56v168q0 40 -10 56t-32 16t-32 -16t-10 -56zM119 725h121l-79 -145h-72zM264 725h121
l-101 -145h-73z" />
    <glyph glyph-name="OE" unicode="&#x152;" horiz-adv-x="655" 
d="M297 725h332v-136h-185v-155h138v-119h-138v-181h192v-134h-339v31h-2q-33 -41 -99 -41q-74 0 -120.5 62.5t-46.5 170.5v279q0 108 46.5 170.5t120.5 62.5q66 0 99 -42h2v32zM297 223v279q0 59 -14 80.5t-47 21.5t-46.5 -21.5t-13.5 -80.5v-279q0 -61 13.5 -83.5
t46.5 -22.5t47 22.5t14 83.5z" />
    <glyph glyph-name="oe" unicode="&#x153;" horiz-adv-x="591" 
d="M571 227h-199v-65q0 -65 49 -65q42 0 58 69l91 -32q-36 -143 -159 -143q-68 0 -107 44q-41 -44 -115 -44q-79 0 -122.5 51t-43.5 124v180q0 75 43 126t120 51q82 0 122 -48q43 48 114 48q70 0 109.5 -52t39.5 -129v-115zM239 338q0 42 -9.5 58t-32.5 16q-22 0 -31 -15.5
t-9 -58.5v-164q0 -44 9 -61t31 -17t32 17t10 61v164zM372 353v-41h79v42q0 34 -9.5 48t-29.5 14q-21 0 -30.5 -14t-9.5 -49z" />
    <glyph glyph-name="Racute" unicode="&#x154;" horiz-adv-x="462" 
d="M306 0l-80 285h-35v-285h-147v725h199q189 0 189 -213q0 -144 -78 -186l105 -326h-153zM191 594v-190h45q29 0 40 20t11 75q0 58 -11.5 76.5t-41.5 18.5h-43zM181 872h156l-85 -120h-108z" />
    <glyph glyph-name="racute" unicode="&#x155;" horiz-adv-x="302" 
d="M290 510l-12 -134q-14 11 -36 11q-32 0 -49.5 -22t-24.5 -75v-290h-133v513h113l5 -67h2q30 76 93 76q27 0 42 -12zM156 725h142l-88 -145h-94z" />
    <glyph glyph-name="Rcommaaccent" unicode="&#x156;" horiz-adv-x="462" 
d="M306 0l-80 285h-35v-285h-147v725h199q189 0 189 -213q0 -144 -78 -186l105 -326h-153zM191 594v-190h45q29 0 40 20t11 75q0 58 -11.5 76.5t-41.5 18.5h-43zM181 -96v76h126v-40q0 -62 -27.5 -86t-98.5 -27l-4 47q29 2 39.5 7.5t10.5 17.5z" />
    <glyph glyph-name="rcommaaccent" unicode="&#x157;" horiz-adv-x="302" 
d="M290 510l-12 -134q-14 11 -36 11q-32 0 -49.5 -22t-24.5 -75v-290h-133v513h113l5 -67h2q30 76 93 76q27 0 42 -12zM40 -96v76h126v-40q0 -62 -27.5 -86t-98.5 -27l-4 47q29 2 39.5 7.5t10.5 17.5z" />
    <glyph glyph-name="Rcaron" unicode="&#x158;" horiz-adv-x="462" 
d="M306 0l-80 285h-35v-285h-147v725h199q189 0 189 -213q0 -144 -78 -186l105 -326h-153zM191 594v-190h45q29 0 40 20t11 75q0 58 -11.5 76.5t-41.5 18.5h-43zM89 872h102l24 -49h2l25 49h102l-81 -120h-93z" />
    <glyph glyph-name="rcaron" unicode="&#x159;" horiz-adv-x="302" 
d="M290 510l-12 -134q-14 11 -36 11q-32 0 -49.5 -22t-24.5 -75v-290h-133v513h113l5 -67h2q30 76 93 76q27 0 42 -12zM47 725h102l24 -64h2l25 64h102l-81 -145h-93z" />
    <glyph glyph-name="Sacute" unicode="&#x15a;" horiz-adv-x="407" 
d="M199 735q147 0 191 -170l-106 -39q-9 45 -25.5 63.5t-43.5 18.5q-51 0 -51 -59q0 -31 23.5 -59t57 -53t67.5 -55t57.5 -77.5t23.5 -107.5q0 -98 -50.5 -152.5t-138.5 -54.5q-73 0 -127 48.5t-66 131.5l114 35q19 -90 75 -90q28 0 41 14t13 45q0 38 -24.5 70.5t-59 59
t-69 55.5t-59 75t-24.5 104q0 85 49 141t132 56zM187 872h156l-85 -120h-108z" />
    <glyph glyph-name="sacute" unicode="&#x15b;" horiz-adv-x="339" 
d="M325 385l-93 -27q-8 34 -20 47t-30 13q-34 0 -34 -36q0 -21 18.5 -38t44.5 -32.5t52 -34.5t44.5 -52.5t18.5 -78.5q0 -67 -43 -111.5t-111 -44.5q-124 0 -157 134l93 34q19 -65 57 -65q34 0 34 41q0 22 -18.5 40t-44.5 33t-52.5 34t-45 52.5t-18.5 78.5q0 66 41.5 108.5
t113.5 42.5q60 0 99 -37.5t51 -100.5zM164 725h142l-88 -145h-94z" />
    <glyph glyph-name="Scircumflex" unicode="&#x15c;" horiz-adv-x="407" 
d="M199 735q147 0 191 -170l-106 -39q-9 45 -25.5 63.5t-43.5 18.5q-51 0 -51 -59q0 -31 23.5 -59t57 -53t67.5 -55t57.5 -77.5t23.5 -107.5q0 -98 -50.5 -152.5t-138.5 -54.5q-73 0 -127 48.5t-66 131.5l114 35q19 -90 75 -90q28 0 41 14t13 45q0 38 -24.5 70.5t-59 59
t-69 55.5t-59 75t-24.5 104q0 85 49 141t132 56zM191 752h-106l78 120h107l77 -120h-105l-25 47h-2z" />
    <glyph glyph-name="scircumflex" unicode="&#x15d;" horiz-adv-x="339" 
d="M325 385l-93 -27q-8 34 -20 47t-30 13q-34 0 -34 -36q0 -21 18.5 -38t44.5 -32.5t52 -34.5t44.5 -52.5t18.5 -78.5q0 -67 -43 -111.5t-111 -44.5q-124 0 -157 134l93 34q19 -65 57 -65q34 0 34 41q0 22 -18.5 40t-44.5 33t-52.5 34t-45 52.5t-18.5 78.5q0 66 41.5 108.5
t113.5 42.5q60 0 99 -37.5t51 -100.5zM149 580h-102l81 145h93l81 -145h-102l-25 64h-2z" />
    <glyph glyph-name="Scedilla" unicode="&#x15e;" horiz-adv-x="407" 
d="M199 735q147 0 191 -170l-106 -39q-9 45 -26 63.5t-44 18.5q-50 0 -50 -59q0 -31 23.5 -59t57 -53t67.5 -55t57.5 -77.5t23.5 -107.5q0 -88 -41 -141.5t-114 -63.5l-2 -11q65 -14 65 -63q0 -33 -32.5 -58t-87.5 -29l-26 58q43 9 43 22q0 16 -45 20l14 63
q-60 11 -103 57.5t-53 118.5l114 35q19 -90 75 -90q28 0 41 14t13 45q0 38 -24.5 70.5t-59 59t-69 55.5t-59 75t-24.5 104q0 85 49 141t132 56z" />
    <glyph glyph-name="scedilla" unicode="&#x15f;" horiz-adv-x="339" 
d="M325 385l-93 -27q-8 34 -20 47t-30 13q-34 0 -34 -36q0 -21 18.5 -38t44.5 -32.5t52 -34.5t44.5 -52.5t18.5 -78.5q0 -59 -34.5 -101.5t-89.5 -51.5l-2 -12q65 -14 65 -63q0 -33 -32.5 -58t-87.5 -29l-26 58q43 9 43 22q0 16 -45 20l14 64q-88 19 -116 129l93 34
q19 -65 57 -65q34 0 34 41q0 22 -18.5 40t-44.5 33t-52.5 34t-45 52.5t-18.5 78.5q0 66 41.5 108.5t113.5 42.5q60 0 99 -37.5t51 -100.5z" />
    <glyph glyph-name="Scaron" unicode="&#x160;" horiz-adv-x="407" 
d="M199 735q147 0 191 -170l-106 -39q-9 45 -25.5 63.5t-43.5 18.5q-51 0 -51 -59q0 -31 23.5 -59t57 -53t67.5 -55t57.5 -77.5t23.5 -107.5q0 -98 -50.5 -152.5t-138.5 -54.5q-73 0 -127 48.5t-66 131.5l114 35q19 -90 75 -90q28 0 41 14t13 45q0 38 -24.5 70.5t-59 59
t-69 55.5t-59 75t-24.5 104q0 85 49 141t132 56zM87 872h102l24 -49h2l25 49h102l-81 -120h-93z" />
    <glyph glyph-name="scaron" unicode="&#x161;" horiz-adv-x="339" 
d="M325 385l-93 -27q-8 34 -20 47t-30 13q-34 0 -34 -36q0 -21 18.5 -38t44.5 -32.5t52 -34.5t44.5 -52.5t18.5 -78.5q0 -67 -43 -111.5t-111 -44.5q-124 0 -157 134l93 34q19 -65 57 -65q34 0 34 41q0 22 -18.5 40t-44.5 33t-52.5 34t-45 52.5t-18.5 78.5q0 66 41.5 108.5
t113.5 42.5q60 0 99 -37.5t51 -100.5zM45 725h102l24 -64h2l25 64h102l-81 -145h-93z" />
    <glyph glyph-name="Tcommaaccent" unicode="&#x162;" horiz-adv-x="398" 
d="M9 725h380v-137h-116v-588h-41l-3 -19q65 -14 65 -63q0 -33 -32.5 -58t-87.5 -29l-26 58q43 9 43 22q0 16 -45 20l15 69h-35v588h-117v137z" />
    <glyph glyph-name="tcommaaccent" unicode="&#x163;" horiz-adv-x="276" 
d="M260 513v-108h-77v-257q0 -23 11 -36.5t32 -13.5q16 0 28 4l10 -88q-39 -20 -81 -23l-2 -10q65 -14 65 -63q0 -33 -32.5 -58t-87.5 -29l-26 58q43 9 43 22q0 16 -45 20l16 72q-64 29 -64 150v245l-45 16v98l51 4l35 132h92v-135h77z" />
    <glyph glyph-name="Tcaron" unicode="&#x164;" horiz-adv-x="398" 
d="M9 725h380v-137h-116v-588h-147v588h-117v137zM73 872h102l24 -49h2l25 49h102l-81 -120h-93z" />
    <glyph glyph-name="tcaron" unicode="&#x165;" horiz-adv-x="276" 
d="M260 513v-108h-77v-257q0 -23 11 -36.5t32 -13.5q16 0 28 4l10 -88q-42 -23 -88 -23q-67 0 -96.5 39.5t-29.5 122.5v245l-45 16v98l51 4l35 132h92v-135h77zM230 725h107l-53 -145h-73z" />
    <glyph glyph-name="Tbar" unicode="&#x166;" horiz-adv-x="398" 
d="M9 725h380v-137h-116v-148h56v-92h-56v-348h-147v348h-58v92h58v148h-117v137z" />
    <glyph glyph-name="tbar" unicode="&#x167;" horiz-adv-x="276" 
d="M260 513v-108h-77v-36h80v-94h-80v-127q0 -23 11 -36.5t32 -13.5q16 0 28 4l10 -88q-42 -23 -88 -23q-67 0 -96.5 39.5t-29.5 122.5v122h-40v94h40v29l-45 16v98l51 4l35 132h92v-135h77z" />
    <glyph glyph-name="Utilde" unicode="&#x168;" horiz-adv-x="488" 
d="M305 725h147v-503q0 -113 -53.5 -172.5t-153.5 -59.5t-154 57.5t-54 167.5v510h147v-510q0 -85 61 -85q30 0 45 19.5t15 65.5v510zM319 875l67 -9q-7 -60 -28.5 -91t-64.5 -31q-27 0 -56.5 20t-37.5 20q-20 0 -25 -36l-67 8q7 62 28.5 92.5t64.5 30.5q29 0 58.5 -20
t36.5 -20q20 0 24 36z" />
    <glyph glyph-name="utilde" unicode="&#x169;" horiz-adv-x="412" 
d="M244 130v383h134v-513h-116l-4 33h-2q-37 -43 -103 -43q-59 0 -92 47t-33 138v338h134v-339q0 -69 38 -69q28 0 44 25zM279 727l67 -12q-7 -70 -28.5 -105.5t-64.5 -35.5q-25 0 -44 15t-31 30t-21 15q-10 0 -15 -11.5t-8 -42.5l-68 11q7 72 28.5 107t64.5 35
q20 0 36.5 -9.5t25 -20.5t18 -20.5t17.5 -9.5q18 0 23 54z" />
    <glyph glyph-name="Umacron" unicode="&#x16a;" horiz-adv-x="488" 
d="M305 725h147v-503q0 -113 -53.5 -172.5t-153.5 -59.5t-154 57.5t-54 167.5v510h147v-510q0 -85 61 -85q30 0 45 19.5t15 65.5v510zM365 857v-87h-239v87h239z" />
    <glyph glyph-name="umacron" unicode="&#x16b;" horiz-adv-x="412" 
d="M244 130v383h134v-513h-116l-4 33h-2q-37 -43 -103 -43q-59 0 -92 47t-33 138v338h134v-339q0 -69 38 -69q28 0 44 25zM323 697v-91h-235v91h235z" />
    <glyph glyph-name="Ubreve" unicode="&#x16c;" horiz-adv-x="488" 
d="M305 725h147v-503q0 -113 -53.5 -172.5t-153.5 -59.5t-154 57.5t-54 167.5v510h147v-510q0 -85 61 -85q30 0 45 19.5t15 65.5v510zM116 872h95q2 -32 9.5 -43t25.5 -11q17 0 25 11.5t10 42.5h94q-10 -71 -39 -98t-91 -27q-61 0 -90 27t-39 98z" />
    <glyph glyph-name="ubreve" unicode="&#x16d;" horiz-adv-x="412" 
d="M244 130v383h134v-513h-116l-4 33h-2q-37 -43 -103 -43q-59 0 -92 47t-33 138v338h134v-339q0 -69 38 -69q28 0 44 25zM78 725h93q2 -47 9.5 -63t25.5 -16q17 0 24.5 16t10.5 63h93q-9 -90 -37.5 -121.5t-90.5 -31.5t-90.5 31.5t-37.5 121.5z" />
    <glyph glyph-name="Uring" unicode="&#x16e;" horiz-adv-x="488" 
d="M305 725h147v-503q0 -113 -53.5 -172.5t-153.5 -59.5t-154 57.5t-54 167.5v510h147v-510q0 -85 61 -85q30 0 45 19.5t15 65.5v510zM152 812q0 35 26.5 55.5t67.5 20.5t67.5 -20.5t26.5 -55.5q0 -34 -26 -54t-68 -20t-68 20t-26 54zM230 812q0 -16 16 -16q17 0 17 16
q0 18 -17 18q-16 0 -16 -18z" />
    <glyph glyph-name="uring" unicode="&#x16f;" horiz-adv-x="412" 
d="M244 130v383h134v-513h-116l-4 33h-2q-37 -43 -103 -43q-59 0 -92 47t-33 138v338h134v-339q0 -69 38 -69q28 0 44 25zM110 656q0 39 26 61.5t68 22.5t68 -22.5t26 -61.5q0 -38 -26.5 -60.5t-67.5 -22.5t-67.5 22.5t-26.5 60.5zM187 656q0 -18 17 -18t17 18q0 19 -17 19
t-17 -19z" />
    <glyph glyph-name="Uhungarumlaut" unicode="&#x170;" horiz-adv-x="488" 
d="M305 725h147v-503q0 -113 -53.5 -172.5t-153.5 -59.5t-154 57.5t-54 167.5v510h147v-510q0 -85 61 -85q30 0 45 19.5t15 65.5v510zM157 872h121l-69 -120h-76zM302 872h122l-91 -120h-78z" />
    <glyph glyph-name="uhungarumlaut" unicode="&#x171;" horiz-adv-x="412" 
d="M244 130v383h134v-513h-116l-4 33h-2q-37 -43 -103 -43q-59 0 -92 47t-33 138v338h134v-339q0 -69 38 -69q28 0 44 25zM124 725h121l-79 -145h-72zM269 725h121l-101 -145h-73z" />
    <glyph glyph-name="Uogonek" unicode="&#x172;" horiz-adv-x="488" 
d="M305 725h147v-503q0 -186 -140 -223q-22 -7 -32.5 -19t-10.5 -36q0 -25 25 -25q22 0 40 12l24 -72q-36 -28 -91 -28q-51 0 -76 21t-25 57q0 49 53 81v2q-88 6 -135 63.5t-47 159.5v510h147v-510q0 -85 61 -85q30 0 45 19.5t15 65.5v510z" />
    <glyph glyph-name="uogonek" unicode="&#x173;" horiz-adv-x="412" 
d="M244 130v383h134v-513h-9q-21 0 -32 -15t-11 -34q0 -32 29 -32q18 0 36 12l23 -72q-35 -28 -90 -28q-51 0 -76 21t-25 57q0 59 60 89v2h-21l-4 33h-2q-37 -43 -103 -43q-59 0 -92 47t-33 138v338h134v-339q0 -69 38 -69q28 0 44 25z" />
    <glyph glyph-name="Wcircumflex" unicode="&#x174;" horiz-adv-x="745" 
d="M739 725l-133 -725h-162l-70 439h-2l-72 -439h-162l-132 725h147l71 -511h2l78 511h138l77 -517h2l72 517h146zM347 752h-106l78 120h107l77 -120h-105l-25 47h-2z" />
    <glyph glyph-name="wcircumflex" unicode="&#x175;" horiz-adv-x="600" 
d="M348 0l-47 301h-2l-47 -301h-147l-102 513h137l43 -347h2l53 347h124l53 -351h2l44 351h137l-103 -513h-147zM277 579h-102l81 145h93l81 -145h-102l-25 64h-2z" />
    <glyph glyph-name="Ycircumflex" unicode="&#x176;" horiz-adv-x="469" 
d="M470 725l-162 -519v-206h-147v206l-162 519h160l76 -337h2l74 337h159zM210 752h-106l78 120h107l77 -120h-105l-25 47h-2z" />
    <glyph glyph-name="ycircumflex" unicode="&#x177;" horiz-adv-x="405" 
d="M405 513l-136 -499q-26 -93 -70.5 -131.5t-123.5 -40.5l-7 104q33 3 51 17t28 47l5 16l-152 487h146l68 -316h2l54 316h135zM187 580h-102l81 145h93l81 -145h-102l-25 64h-2z" />
    <glyph glyph-name="Ydieresis" unicode="&#x178;" horiz-adv-x="469" 
d="M470 725l-162 -519v-206h-147v206l-162 519h160l76 -337h2l74 337h159zM117 872h95v-118h-95v118zM259 872h95v-118h-95v118z" />
    <glyph glyph-name="Zacute" unicode="&#x179;" horiz-adv-x="416" 
d="M388 135v-135h-363v90l211 500h-201v135h356v-93l-206 -497h203zM190 872h156l-85 -120h-108z" />
    <glyph glyph-name="zacute" unicode="&#x17a;" horiz-adv-x="339" 
d="M315 114v-114h-296v77l147 320h-139v116h293v-74l-151 -325h146zM161 725h142l-88 -145h-94z" />
    <glyph glyph-name="Zdotaccent" unicode="&#x17b;" horiz-adv-x="416" 
d="M388 135v-135h-363v90l211 500h-201v135h356v-93l-206 -497h203zM153 872h126v-118h-126v118z" />
    <glyph glyph-name="zdotaccent" unicode="&#x17c;" horiz-adv-x="339" 
d="M315 114v-114h-296v77l147 320h-139v116h293v-74l-151 -325h146zM116 723h121v-137h-121v137z" />
    <glyph glyph-name="Zcaron" unicode="&#x17d;" horiz-adv-x="416" 
d="M388 135v-135h-363v90l211 500h-201v135h356v-93l-206 -497h203zM89 872h102l24 -49h2l25 49h102l-81 -120h-93z" />
    <glyph glyph-name="zcaron" unicode="&#x17e;" horiz-adv-x="339" 
d="M315 114v-114h-296v77l147 320h-139v116h293v-74l-151 -325h146zM52 725h102l24 -64h2l25 64h102l-81 -145h-93z" />
    <glyph glyph-name="longs" unicode="&#x17f;" horiz-adv-x="250" 
d="M265 729l6 -103q-40 -2 -54 -20.5t-14 -59.5v-546h-133v405h-63v107h63v37q0 81 47 130t148 50z" />
    <glyph glyph-name="uni018F" unicode="&#x18f;" horiz-adv-x="453" 
d="M23 220v182h254v122q0 83 -66 83q-28 0 -46 -18.5t-27 -64.5l-113 33q31 178 195 178q95 0 149.5 -60.5t54.5 -156.5v-300q0 -109 -51.5 -168.5t-154.5 -59.5q-98 0 -146.5 62t-48.5 168zM215 117q62 0 62 93v87h-122v-86q0 -94 60 -94z" />
    <glyph glyph-name="florin" unicode="&#x192;" horiz-adv-x="294" 
d="M282 513l-17 -103h-67l-75 -461h-133l74 461h-39l17 103h39l6 36q13 81 68 130t157 50l-11 -103q-41 -2 -60.5 -21t-26.5 -59l-5 -33h73z" />
    <glyph glyph-name="uni01B5" unicode="&#x1b5;" horiz-adv-x="416" 
d="M46 319v114h123l67 157h-201v135h356v-93l-83 -199h73v-114h-120l-76 -184h203v-135h-363v90l96 229h-75z" />
    <glyph glyph-name="uni01B6" unicode="&#x1b6;" horiz-adv-x="339" 
d="M33 218v95h94l39 84h-139v116h293v-74l-59 -126h53v-95h-97l-48 -104h146v-114h-296v77l65 141h-51z" />
    <glyph glyph-name="Aringacute" unicode="&#x1fa;" horiz-adv-x="484" 
d="M222 913h156l-65 -92q24 -21 24 -54q0 -26 -14 -40v-2h6l152 -725h-150l-24 149h-133l-24 -149h-147l152 725h8v2q-14 14 -14 40q0 50 49 68zM239 562l-47 -298h96l-47 298h-2zM227 767q0 -16 16 -16q17 0 17 16q0 18 -17 18q-16 0 -16 -18z" />
    <glyph glyph-name="aringacute" unicode="&#x1fb;" horiz-adv-x="384" 
d="M121 349l-90 38q39 136 163 136q77 0 113 -43.5t36 -118.5v-246q0 -27 23 -27h11v-84q-34 -10 -58 -10q-54 0 -82 35q-38 -37 -98 -37q-56 0 -88.5 41t-32.5 105q0 72 42.5 119.5t134.5 47.5h15v56q0 31 -8.5 41.5t-27.5 10.5q-36 0 -53 -64zM174 90q22 0 36 19v101h-16
q-49 0 -49 -57q0 -63 29 -63zM98 629q0 39 26 61.5t68 22.5t68 -22.5t26 -61.5q0 -38 -26.5 -60.5t-67.5 -22.5t-67.5 22.5t-26.5 60.5zM175 629q0 -18 17 -18t17 18q0 19 -17 19t-17 -19zM185 885h142l-88 -145h-94z" />
    <glyph glyph-name="AEacute" unicode="&#x1fc;" horiz-adv-x="661" 
d="M193 154l-43 -154h-147l225 725h406v-136h-186l12 -155h137v-119h-128l15 -181h159v-134h-297l-11 154h-142zM304 554l-79 -285h101l-20 285h-2zM359 872h156l-85 -120h-108z" />
    <glyph glyph-name="aeacute" unicode="&#x1fd;" horiz-adv-x="573" 
d="M553 223h-197v-61q0 -65 49 -65q40 0 56 69l92 -32q-19 -71 -56.5 -106.5t-104.5 -35.5q-80 0 -116 56q-42 -56 -128 -56q-61 0 -95.5 41t-34.5 105q0 74 45 122t144 48h16v51q0 30 -9.5 40t-30.5 10q-40 0 -56 -63l-94 42q18 61 60 98t97 37q69 0 104 -42q39 42 107 42
q72 0 112 -51.5t40 -129.5v-119zM179 93q30 0 44 23v95h-18q-60 0 -60 -62q0 -56 34 -56zM356 353v-44h77v45q0 35 -9 48.5t-29 13.5q-21 0 -30 -14t-9 -49zM288 725h142l-88 -145h-94z" />
    <glyph glyph-name="Oslashacute" unicode="&#x1fe;" horiz-adv-x="473" 
d="M236 735q96 0 148 -54l29 50l43 -33l-38 -66q26 -55 26 -130v-279q0 -111 -53 -172t-155 -61q-99 0 -151 57l-26 -45l-43 34l35 62q-22 51 -22 125v279q0 112 52.5 172.5t154.5 60.5zM297 223v196h-2l-119 -212q1 -50 15.5 -69.5t44.5 -19.5q33 0 47 23t14 82zM176 502
v-186h2l118 211q-2 43 -16 60t-43 17q-33 0 -47 -22t-14 -80zM214 872h156l-85 -120h-108z" />
    <glyph glyph-name="oslashacute" unicode="&#x1ff;" horiz-adv-x="398" 
d="M375 346v-179q0 -77 -45.5 -127t-130.5 -50q-77 0 -123 41l-20 -29l-43 34l29 41q-19 38 -19 90v179q0 76 45.5 126.5t130.5 50.5q76 0 122 -41l24 34l44 -34l-33 -47q19 -38 19 -89zM199 100q22 0 32 16t10 56v96h-2l-81 -119q5 -49 41 -49zM157 340v-96h2l81 120
q-5 48 -41 48q-22 0 -32 -16t-10 -56zM187 725h142l-88 -145h-94z" />
    <glyph glyph-name="Scommaaccent" unicode="&#x218;" horiz-adv-x="407" 
d="M199 735q147 0 191 -170l-106 -39q-9 45 -25.5 63.5t-43.5 18.5q-51 0 -51 -59q0 -31 23.5 -59t57 -53t67.5 -55t57.5 -77.5t23.5 -107.5q0 -98 -50.5 -152.5t-138.5 -54.5q-73 0 -127 48.5t-66 131.5l114 35q19 -90 75 -90q28 0 41 14t13 45q0 38 -24.5 70.5t-59 59
t-69 55.5t-59 75t-24.5 104q0 85 49 141t132 56zM146 -96v76h126v-40q0 -62 -27.5 -86t-98.5 -27l-4 47q29 2 39.5 7.5t10.5 17.5z" />
    <glyph glyph-name="scommaaccent" unicode="&#x219;" horiz-adv-x="339" 
d="M325 385l-93 -27q-8 34 -20 47t-30 13q-34 0 -34 -36q0 -21 18.5 -38t44.5 -32.5t52 -34.5t44.5 -52.5t18.5 -78.5q0 -67 -43 -111.5t-111 -44.5q-124 0 -157 134l93 34q19 -65 57 -65q34 0 34 41q0 22 -18.5 40t-44.5 33t-52.5 34t-45 52.5t-18.5 78.5q0 66 41.5 108.5
t113.5 42.5q60 0 99 -37.5t51 -100.5zM109 -96v76h126v-40q0 -62 -27.5 -86t-98.5 -27l-4 47q29 2 39.5 7.5t10.5 17.5z" />
    <glyph glyph-name="uni021A" unicode="&#x21a;" horiz-adv-x="398" 
d="M9 725h380v-137h-116v-588h-147v588h-117v137zM136 -96v76h126v-40q0 -62 -27.5 -86t-98.5 -27l-4 47q29 2 39.5 7.5t10.5 17.5z" />
    <glyph glyph-name="uni021B" unicode="&#x21b;" horiz-adv-x="276" 
d="M260 513v-108h-77v-257q0 -23 11 -36.5t32 -13.5q16 0 28 4l10 -88q-42 -23 -88 -23q-67 0 -96.5 39.5t-29.5 122.5v245l-45 16v98l51 4l35 132h92v-135h77zM105 -96v76h126v-40q0 -62 -27.5 -86t-98.5 -27l-4 47q29 2 39.5 7.5t10.5 17.5z" />
    <glyph glyph-name="uni0237" unicode="&#x237;" horiz-adv-x="203" 
d="M-3 -159l-8 108q27 4 39 22t12 62v480h134v-478q0 -187 -177 -194z" />
    <glyph glyph-name="uni0259" unicode="&#x259;" horiz-adv-x="377" 
d="M18 285h199v56q0 39 -11.5 55.5t-37.5 16.5q-20 0 -32 -14t-20 -49l-100 32q17 72 57 106.5t110 34.5q79 0 123.5 -50t44.5 -127v-178q0 -76 -44 -126.5t-126 -50.5q-78 0 -120.5 51.5t-42.5 130.5v112zM177 99q22 0 31 13.5t9 48.5v39h-79v-40q0 -34 9.5 -47.5
t29.5 -13.5z" />
    <glyph glyph-name="uni02BB" unicode="&#x2bb;" horiz-adv-x="194" 
d="M158 687v-140h-119v103q0 95 55 175l46 -19q-25 -51 -25 -113z" />
    <glyph glyph-name="afii57929" unicode="&#x2bc;" horiz-adv-x="194" 
d="M39 614v140h119v-104q0 -95 -55 -175l-48 20q25 52 26 112z" />
    <glyph glyph-name="circumflex" unicode="&#x2c6;" horiz-adv-x="227" 
d="M88 580h-102l81 145h93l81 -145h-102l-25 64h-2z" />
    <glyph glyph-name="caron" unicode="&#x2c7;" horiz-adv-x="227" 
d="M-14 725h102l24 -64h2l25 64h102l-81 -145h-93z" />
    <glyph glyph-name="uni02C9" unicode="&#x2c9;" horiz-adv-x="227" 
d="M231 697v-91h-235v91h235z" />
    <glyph glyph-name="breve" unicode="&#x2d8;" horiz-adv-x="227" 
d="M-15 725h93q2 -47 9.5 -63t25.5 -16q17 0 24.5 16t10.5 63h93q-9 -90 -37.5 -121.5t-90.5 -31.5t-90.5 31.5t-37.5 121.5z" />
    <glyph glyph-name="dotaccent" unicode="&#x2d9;" horiz-adv-x="227" 
d="M46 724h121v-137h-121v137z" />
    <glyph glyph-name="ring" unicode="&#x2da;" horiz-adv-x="227" 
d="M19 656q0 39 26 61.5t68 22.5t68 -22.5t26 -61.5q0 -38 -26.5 -60.5t-67.5 -22.5t-67.5 22.5t-26.5 60.5zM96 656q0 -18 17 -18t17 18q0 19 -17 19t-17 -19z" />
    <glyph glyph-name="ogonek" unicode="&#x2db;" horiz-adv-x="227" 
d="M117 13l52 -6q-22 -9 -34 -27t-12 -36q0 -25 25 -25q22 0 40 12l24 -72q-36 -28 -91 -28q-51 0 -76 21t-25 57q0 66 97 104z" />
    <glyph glyph-name="tilde" unicode="&#x2dc;" horiz-adv-x="227" 
d="M186 727l67 -12q-7 -70 -28.5 -105.5t-64.5 -35.5q-25 0 -44 15t-31 30t-21 15q-10 0 -15 -11.5t-8 -42.5l-68 11q7 72 28.5 107t64.5 35q20 0 36.5 -9.5t25 -20.5t18 -20.5t17.5 -9.5q18 0 23 54z" />
    <glyph glyph-name="hungarumlaut" unicode="&#x2dd;" horiz-adv-x="227" 
d="M46 725h121l-79 -145h-72zM191 725h121l-101 -145h-73z" />
    <glyph glyph-name="gravecomb" unicode="&#x300;" horiz-adv-x="0" 
d="M-255 725h142l43 -145h-94z" />
    <glyph glyph-name="acutecomb" unicode="&#x301;" horiz-adv-x="0" 
d="M-154 725h142l-88 -145h-94z" />
    <glyph glyph-name="uni0302" unicode="&#x302;" horiz-adv-x="0" 
d="M-137 580h-102l81 145h93l81 -145h-102l-25 64h-2z" />
    <glyph glyph-name="tildecomb" unicode="&#x303;" horiz-adv-x="0" 
d="M-46 727l67 -12q-7 -70 -28.5 -105.5t-64.5 -35.5q-25 0 -44 15t-31 30t-21 15q-10 0 -15 -11.5t-8 -42.5l-68 11q7 72 28.5 107t64.5 35q20 0 36.5 -9.5t25 -20.5t18 -20.5t17.5 -9.5q18 0 23 54z" />
    <glyph glyph-name="uni0304" unicode="&#x304;" horiz-adv-x="0" 
d="M4 697v-91h-235v91h235z" />
    <glyph glyph-name="uni0306" unicode="&#x306;" horiz-adv-x="0" 
d="M-241 725h93q2 -47 9.5 -63t25.5 -16q17 0 24.5 16t10.5 63h93q-9 -90 -37.5 -121.5t-90.5 -31.5t-90.5 31.5t-37.5 121.5z" />
    <glyph glyph-name="uni0307" unicode="&#x307;" horiz-adv-x="0" 
d="M-169 724h121v-137h-121v137z" />
    <glyph glyph-name="uni0308" unicode="&#x308;" horiz-adv-x="0" 
d="M-221 725h92v-137h-92v137zM-92 725h91v-137h-91v137z" />
    <glyph glyph-name="uni030A" unicode="&#x30a;" horiz-adv-x="0" 
d="M-208 656q0 39 26 61.5t68 22.5t68 -22.5t26 -61.5q0 -38 -26.5 -60.5t-67.5 -22.5t-67.5 22.5t-26.5 60.5zM-131 656q0 -18 17 -18t17 18q0 19 -17 19t-17 -19z" />
    <glyph glyph-name="uni030B" unicode="&#x30b;" horiz-adv-x="0" 
d="M-180 725h121l-79 -145h-72zM-35 725h121l-101 -145h-73z" />
    <glyph glyph-name="uni030C" unicode="&#x30c;" horiz-adv-x="0" 
d="M-240 725h102l24 -64h2l25 64h102l-81 -145h-93z" />
    <glyph glyph-name="uni0312" unicode="&#x312;" horiz-adv-x="0" 
d="M-104 577h-142l65 148h94z" />
    <glyph glyph-name="uni0315" unicode="&#x315;" horiz-adv-x="0" 
d="M60 725h143l-68 -153h-94z" />
    <glyph glyph-name="uni0326" unicode="&#x326;" horiz-adv-x="0" 
d="M-259 -97v77h127v-40q0 -62 -27.5 -86t-98.5 -27l-4 47q29 2 39 7.5t10 17.5z" />
    <glyph glyph-name="uni0327" unicode="&#x327;" horiz-adv-x="0" 
d="M-139 26l69 -6l-7 -39q65 -14 65 -63q0 -33 -32.5 -58t-87.5 -29l-26 58q43 9 43 22q0 16 -45 20z" />
    <glyph glyph-name="uni0328" unicode="&#x328;" horiz-adv-x="0" 
d="M-96 13l52 -6q-22 -9 -34 -27t-12 -36q0 -25 25 -25q22 0 40 12l24 -72q-36 -28 -91 -28q-51 0 -76 21t-25 57q0 66 97 104z" />
    <glyph glyph-name="uni0335" unicode="&#x335;" horiz-adv-x="1" 
d="M5 304v-91h-235v91h235z" />
    <glyph glyph-name="uni0336" unicode="&#x336;" horiz-adv-x="1" 
d="M-486 205v107h466v-107h-466z" />
    <glyph glyph-name="uni0394" unicode="&#x394;" horiz-adv-x="484" 
d="M3 0l175 725h131l172 -725h-478zM242 511l-72 -385h141l-67 385h-2z" />
    <glyph glyph-name="uni03A9" unicode="&#x3a9;" horiz-adv-x="473" 
d="M236 735q208 0 208 -215v-145q0 -129 -90 -170v-76h86v-129h-189v287q24 5 35 23.5t11 60.5v145q0 47 -14.5 67t-46.5 20t-46 -20t-14 -67v-145q0 -75 45 -84v-287h-188v129h86v76q-90 39 -90 170v145q0 215 207 215z" />
    <glyph glyph-name="uni03BC" unicode="&#x3bc;" horiz-adv-x="419" 
d="M35 190v323h133v-321q0 -40 9.5 -56t29.5 -16q29 0 43 24v369h134v-513h-116l-4 34h-2q-21 -25 -50 -25q-33 0 -50 23h-2q7 -115 17 -179l-133 -11q-9 139 -9 348z" />
    <glyph glyph-name="pi" unicode="&#x3c0;" horiz-adv-x="414" 
d="M376 0h-133v404h-70v-307q0 -47 -30 -76t-81 -29q-29 0 -57 10v84h11q23 0 23 27v285h-29v115h394v-115h-28v-398z" />
    <glyph glyph-name="uni0400" unicode="&#x400;" horiz-adv-x="402" 
d="M44 725h333v-136h-186v-155h138v-119h-138v-181h192v-134h-339v725zM76 872h155l43 -120h-106z" />
    <glyph glyph-name="afii10023" unicode="&#x401;" horiz-adv-x="402" 
d="M44 725h333v-136h-186v-155h138v-119h-138v-181h192v-134h-339v725zM94 872h95v-118h-95v118zM236 872h95v-118h-95v118z" />
    <glyph glyph-name="afii10051" unicode="&#x402;" horiz-adv-x="481" 
d="M238 361v-361h-134v596h-96v129h337v-129h-108v-122h2q34 41 90 41q124 0 124 -189v-291q0 -187 -176 -194l-7 102q28 5 39 24t11 66v289q0 40 -9 55t-29 15q-31 0 -44 -31z" />
    <glyph glyph-name="afii10052" unicode="&#x403;" horiz-adv-x="368" 
d="M44 725h315v-136h-172v-589h-143v725zM172 872h156l-85 -120h-108z" />
    <glyph glyph-name="afii10053" unicode="&#x404;" horiz-adv-x="427" 
d="M409 558l-108 -33q-14 84 -69 84q-29 0 -42 -19.5t-13 -65.5v-90h128v-127h-128v-117q0 -78 54 -78q53 0 67 90l111 -34q-32 -178 -193 -178q-85 0 -136 57.5t-51 151.5v323q0 99 52 156t138 57q72 0 122 -45.5t68 -131.5z" />
    <glyph glyph-name="afii10054" unicode="&#x405;" horiz-adv-x="407" 
d="M199 735q147 0 191 -170l-106 -39q-9 45 -25.5 63.5t-43.5 18.5q-51 0 -51 -59q0 -31 23.5 -59t57 -53t67.5 -55t57.5 -77.5t23.5 -107.5q0 -98 -50.5 -152.5t-138.5 -54.5q-73 0 -127 48.5t-66 131.5l114 35q19 -90 75 -90q28 0 41 14t13 45q0 38 -24.5 70.5t-59 59
t-69 55.5t-59 75t-24.5 104q0 85 49 141t132 56z" />
    <glyph glyph-name="afii10055" unicode="&#x406;" horiz-adv-x="247" 
d="M50 725h147v-725h-147v725z" />
    <glyph glyph-name="afii10056" unicode="&#x407;" horiz-adv-x="247" 
d="M50 725h147v-725h-147v725zM7 872h95v-118h-95v118zM149 872h95v-118h-95v118z" />
    <glyph glyph-name="afii10057" unicode="&#x408;" horiz-adv-x="248" 
d="M57 725h148v-608q0 -119 -58.5 -181.5t-169.5 -66.5l-12 123q48 0 70 27.5t22 93.5v612z" />
    <glyph glyph-name="afii10058" unicode="&#x409;" horiz-adv-x="720" 
d="M97 725h366v-285h60q100 0 140 -52.5t40 -165.5q0 -110 -41 -166t-148 -56h-198v594h-83l-8 -236q-4 -113 -16.5 -186.5t-36 -111.5t-50.5 -52t-67 -14q-27 0 -55 8v102h14q25 0 37.5 19t19.5 73.5t12 169.5zM463 130h45q30 0 40.5 19t10.5 73q0 58 -10 74.5t-42 16.5
h-44v-183z" />
    <glyph glyph-name="afii10059" unicode="&#x40a;" horiz-adv-x="706" 
d="M44 725h147v-276h111v276h147v-285h60q100 0 140 -52.5t40 -165.5q0 -110 -41 -166t-148 -56h-198v310h-111v-310h-147v725zM449 130h45q30 0 40.5 19t10.5 73q0 58 -10 74.5t-42 16.5h-44v-183z" />
    <glyph glyph-name="afii10060" unicode="&#x40b;" horiz-adv-x="481" 
d="M238 361v-361h-134v596h-96v129h337v-129h-108v-122h2q34 41 90 41q124 0 124 -189v-326h-133v322q0 40 -9 55t-29 15q-31 0 -44 -31z" />
    <glyph glyph-name="afii10061" unicode="&#x40c;" horiz-adv-x="503" 
d="M477 725v-109h-17q-32 0 -47 -51l-34 -118q-12 -45 -58 -69v-2q54 -20 66 -71l40 -159q11 -42 49 -42h15v-102q-23 -7 -62 -7q-115 0 -144 120l-43 172q-7 28 -42 28h-13v-315h-143v725h143v-291h14q29 0 37 25l47 152q18 59 50 89.5t86 30.5q35 0 56 -6zM225 872h156
l-85 -120h-108z" />
    <glyph glyph-name="uni040D" unicode="&#x40d;" horiz-adv-x="501" 
d="M319 725h138v-725h-138v433h-2l-136 -433h-137v725h137v-433h2zM109 872h155l43 -120h-106z" />
    <glyph glyph-name="afii10062" unicode="&#x40e;" horiz-adv-x="469" 
d="M-1 725h164l84 -330h2l66 330h155l-156 -573q-42 -155 -216 -155l-7 124q70 5 83 52l7 27zM109 872h95q2 -32 9.5 -43t25.5 -11q17 0 25 11.5t10 42.5h94q-10 -71 -39 -98t-91 -27q-61 0 -90 27t-39 98z" />
    <glyph glyph-name="afii10145" unicode="&#x40f;" horiz-adv-x="488" 
d="M444 0h-128v-141h-139v141h-133v725h147v-592h106v592h147v-725z" />
    <glyph glyph-name="afii10017" unicode="&#x410;" horiz-adv-x="484" 
d="M174 149l-24 -149h-147l152 725h174l152 -725h-150l-24 149h-133zM239 562l-47 -298h96l-47 298h-2z" />
    <glyph glyph-name="afii10018" unicode="&#x411;" horiz-adv-x="454" 
d="M44 725h360v-134h-213v-151h60q100 0 140 -52.5t40 -165.5q0 -110 -41 -166t-148 -56h-198v725zM191 130h45q29 0 40 19t11 73q0 57 -10.5 74t-40.5 17h-45v-183z" />
    <glyph glyph-name="afii10019" unicode="&#x412;" horiz-adv-x="465" 
d="M422 530q0 -119 -74 -152v-2q95 -31 95 -165q0 -104 -42 -157.5t-149 -53.5h-208v725h186q98 0 145 -52.5t47 -142.5zM187 311v-181h59q29 0 40 19t11 71q0 58 -10 74.5t-41 16.5h-59zM187 592v-167h49q29 0 39.5 19.5t10.5 67.5t-10.5 64t-39.5 16h-49z" />
    <glyph glyph-name="afii10020" unicode="&#x413;" horiz-adv-x="368" 
d="M44 725h315v-136h-172v-589h-143v725z" />
    <glyph glyph-name="afii10021" unicode="&#x414;" horiz-adv-x="525" 
d="M106 725h354v-606h65v-259h-148v140h-239v-140h-144v259h54q34 126 45 344zM315 594h-81l-6 -137q-10 -211 -44 -338h131v475z" />
    <glyph glyph-name="afii10022" unicode="&#x415;" horiz-adv-x="402" 
d="M44 725h333v-136h-186v-155h138v-119h-138v-181h192v-134h-339v725z" />
    <glyph glyph-name="afii10024" unicode="&#x416;" horiz-adv-x="708" 
d="M22 616v108q25 7 57 7q87 0 118 -116l43 -157q6 -24 32 -24h10v291h143v-291h11q26 0 32 24l43 157q31 116 118 116q33 0 57 -7v-108h-16q-27 0 -40 -51l-31 -120q-11 -43 -50 -67v-2q50 -23 61 -70l36 -160q9 -42 41 -42h14v-102q-21 -7 -56 -7q-110 0 -136 116l-40 176
q-7 28 -35 28h-9v-315h-143v315h-8q-28 0 -35 -28l-40 -176q-26 -116 -136 -116q-36 0 -55 7v102h13q32 0 41 42l36 160q10 48 61 69v2q-38 23 -50 68l-31 120q-7 28 -16 39.5t-24 11.5h-16z" />
    <glyph glyph-name="afii10025" unicode="&#x417;" horiz-adv-x="420" 
d="M127 308v125h54q65 0 65 62v55q0 61 -51 61q-27 0 -43 -18.5t-26 -68.5l-111 34q15 85 66 131t132 46q83 0 129 -48.5t46 -126.5v-54q0 -95 -69 -129v-2q79 -25 79 -132v-68q0 -81 -50 -133t-138 -52q-83 0 -132 43t-64 136l112 32q10 -50 26.5 -70t44.5 -20q29 0 42 16
t13 55v60q0 66 -68 66h-57z" />
    <glyph glyph-name="afii10026" unicode="&#x418;" horiz-adv-x="501" 
d="M319 725h138v-725h-138v433h-2l-136 -433h-137v725h137v-433h2z" />
    <glyph glyph-name="afii10027" unicode="&#x419;" horiz-adv-x="501" 
d="M319 725h138v-725h-138v433h-2l-136 -433h-137v725h137v-433h2zM121 872h95q2 -32 9.5 -43t25.5 -11q17 0 25 11.5t10 42.5h94q-10 -71 -39 -98t-91 -27q-61 0 -90 27t-39 98z" />
    <glyph glyph-name="afii10028" unicode="&#x41a;" horiz-adv-x="503" 
d="M477 725v-109h-17q-32 0 -47 -51l-34 -118q-12 -45 -58 -69v-2q54 -20 66 -71l40 -159q11 -42 49 -42h15v-102q-23 -7 -62 -7q-115 0 -144 120l-43 172q-7 28 -42 28h-13v-315h-143v725h143v-291h14q29 0 37 25l47 152q18 59 50 89.5t86 30.5q35 0 56 -6z" />
    <glyph glyph-name="afii10029" unicode="&#x41b;" horiz-adv-x="507" 
d="M463 725v-725h-147v594h-83l-8 -236q-4 -113 -16.5 -186.5t-36 -111.5t-50.5 -52t-67 -14q-27 0 -55 8v102h14q25 0 37.5 19t19.5 73.5t12 169.5l14 359h366z" />
    <glyph glyph-name="afii10030" unicode="&#x41c;" horiz-adv-x="638" 
d="M456 725h138v-725h-133v374h-2l-107 -271h-67l-107 271h-2v-374h-132v725h138l136 -405h2z" />
    <glyph glyph-name="afii10031" unicode="&#x41d;" horiz-adv-x="493" 
d="M44 725h147v-284h111v284h147v-725h-147v305h-111v-305h-147v725z" />
    <glyph glyph-name="afii10032" unicode="&#x41e;" horiz-adv-x="473" 
d="M236 735q102 0 155 -61t53 -172v-279q0 -111 -53 -172t-155 -61t-154.5 60.5t-52.5 172.5v279q0 112 52.5 172.5t154.5 60.5zM297 223v279q0 58 -13.5 80t-46.5 22t-47 -22t-14 -80v-279q0 -59 14 -82t46 -23q33 0 47 23t14 82z" />
    <glyph glyph-name="afii10033" unicode="&#x41f;" horiz-adv-x="488" 
d="M44 725h400v-725h-147v594h-106v-594h-147v725z" />
    <glyph glyph-name="afii10034" unicode="&#x420;" horiz-adv-x="456" 
d="M249 725q91 0 140 -62t49 -178q0 -114 -47 -175t-133 -61h-67v-249h-147v725h205zM191 594v-225h55q24 0 34.5 25.5t10.5 89.5t-10 87t-35 23h-55z" />
    <glyph glyph-name="afii10035" unicode="&#x421;" horiz-adv-x="418" 
d="M223 735q72 0 121 -48t61 -128l-112 -35q-11 79 -59 79q-57 0 -57 -92v-311q0 -83 57 -83q24 0 37.5 19t20.5 65l113 -33q-26 -178 -184 -178q-89 0 -140.5 56.5t-51.5 152.5v311q0 105 52.5 165t141.5 60z" />
    <glyph glyph-name="afii10036" unicode="&#x422;" horiz-adv-x="398" 
d="M9 725h380v-137h-116v-588h-147v588h-117v137z" />
    <glyph glyph-name="afii10037" unicode="&#x423;" horiz-adv-x="469" 
d="M-1 725h164l84 -330h2l66 330h155l-156 -573q-42 -155 -216 -155l-7 124q70 5 83 52l7 27z" />
    <glyph glyph-name="afii10038" unicode="&#x424;" horiz-adv-x="602" 
d="M228 725h147v-85h7q99 0 148.5 -56.5t49.5 -161.5v-115q0 -106 -49.5 -162t-148.5 -56h-7v-89h-147v89h-7q-99 0 -148.5 56t-49.5 162v115q0 218 198 218h7v85zM385 513h-17v-300h17q30 0 42.5 19.5t12.5 69.5v125q0 48 -12.5 67t-42.5 19zM217 213h17v300h-17
q-30 0 -42 -19t-12 -67v-125q0 -50 12 -69.5t42 -19.5z" />
    <glyph glyph-name="afii10039" unicode="&#x425;" horiz-adv-x="472" 
d="M4 0l136 371l-132 354h156l72 -256h2l70 256h155l-132 -360l137 -365h-156l-77 262h-2l-74 -262h-155z" />
    <glyph glyph-name="afii10040" unicode="&#x426;" horiz-adv-x="504" 
d="M440 142h64v-283h-136v141h-324v725h147v-592h102v592h147v-583z" />
    <glyph glyph-name="afii10041" unicode="&#x427;" horiz-adv-x="460" 
d="M416 0h-147v295q-36 -8 -81 -8q-86 0 -127 49.5t-41 157.5v231h147v-229q0 -48 14.5 -65t48.5 -17q25 0 39 3v308h147v-725z" />
    <glyph glyph-name="afii10042" unicode="&#x428;" horiz-adv-x="715" 
d="M672 0h-628v725h147v-592h93v592h147v-592h94v592h147v-725z" />
    <glyph glyph-name="afii10043" unicode="&#x429;" horiz-adv-x="737" 
d="M672 142h65v-283h-148v141h-545v725h147v-592h93v592h147v-592h94v592h147v-583z" />
    <glyph glyph-name="afii10044" unicode="&#x42a;" horiz-adv-x="536" 
d="M132 593h-123v132h270v-285h60q100 0 140 -52.5t40 -165.5q0 -110 -41 -166t-148 -56h-198v593zM279 130h45q30 0 40.5 19t10.5 73q0 58 -10 74.5t-42 16.5h-44v-183z" />
    <glyph glyph-name="afii10045" unicode="&#x42b;" horiz-adv-x="677" 
d="M44 725h147v-285h60q100 0 140 -52.5t40 -165.5q0 -110 -41 -166t-148 -56h-198v725zM191 130h45q30 0 40.5 19t10.5 73q0 58 -10 74.5t-42 16.5h-44v-183zM487 725h147v-725h-147v725z" />
    <glyph glyph-name="afii10046" unicode="&#x42c;" horiz-adv-x="448" 
d="M44 725h147v-285h60q100 0 140 -52.5t40 -165.5q0 -110 -41 -166t-148 -56h-198v725zM191 130h45q30 0 40.5 19t10.5 73q0 58 -10 74.5t-42 16.5h-44v-183z" />
    <glyph glyph-name="afii10047" unicode="&#x42d;" horiz-adv-x="427" 
d="M122 307v127h128v90q0 46 -13 65.5t-42 19.5q-55 0 -69 -84l-108 33q18 86 68 131.5t122 45.5q86 0 138 -57t52 -156v-323q0 -94 -51 -151.5t-136 -57.5q-161 0 -193 178l111 34q13 -90 67 -90t54 78v117h-128z" />
    <glyph glyph-name="afii10048" unicode="&#x42e;" horiz-adv-x="681" 
d="M44 725h143v-291h61v68q0 112 51.5 172.5t150.5 60.5t150.5 -60.5t51.5 -172.5v-279q0 -112 -51.5 -172.5t-150.5 -60.5t-150.5 60.5t-51.5 172.5v92h-61v-315h-143v725zM505 223v279q0 54 -12.5 75.5t-42.5 21.5t-42.5 -21.5t-12.5 -75.5v-279q0 -57 12.5 -78.5
t42.5 -21.5t42.5 21.5t12.5 78.5z" />
    <glyph glyph-name="afii10049" unicode="&#x42f;" horiz-adv-x="477" 
d="M245 725h188v-725h-147v287h-17q-31 0 -36 -30l-29 -147q-22 -115 -144 -115q-33 0 -52 7v102h13q36 0 44 41l24 117q10 50 48 69v2q-92 32 -92 179q0 109 46 161t154 52zM286 399v195h-37q-32 0 -43.5 -18.5t-11.5 -79.5q0 -60 12 -78.5t46 -18.5h34z" />
    <glyph glyph-name="afii10065" unicode="&#x430;" horiz-adv-x="384" 
d="M121 349l-90 38q39 136 163 136q77 0 113 -43.5t36 -118.5v-246q0 -27 23 -27h11v-84q-34 -10 -58 -10q-54 0 -82 35q-38 -37 -98 -37q-56 0 -88.5 41t-32.5 105q0 72 42.5 119.5t134.5 47.5h15v56q0 31 -8.5 41.5t-27.5 10.5q-36 0 -53 -64zM174 90q22 0 36 19v101h-16
q-49 0 -49 -57q0 -63 29 -63z" />
    <glyph glyph-name="afii10066" unicode="&#x431;" horiz-adv-x="398" 
d="M345 737l20 -117q-27 -20 -75 -27l-77 -10q-52 -7 -70.5 -33t-18.5 -74h2q37 45 102 45q74 0 110.5 -48.5t36.5 -126.5v-179q0 -76 -46 -126.5t-130 -50.5q-85 0 -130.5 50.5t-45.5 126.5v310q0 196 161 228zM157 334v-162q0 -72 42 -72q22 0 32 16t10 56v162
q0 44 -10 61t-32 17t-32 -17t-10 -61z" />
    <glyph glyph-name="afii10067" unicode="&#x432;" horiz-adv-x="386" 
d="M352 379q0 -84 -62 -109v-2q79 -22 79 -117q0 -75 -34 -113t-124 -38h-176v513h162q80 0 117.5 -36t37.5 -98zM159 216v-115h52q20 0 28 12t8 45q0 36 -8 47t-30 11h-50zM158 407v-99h43q21 0 28.5 12t7.5 39q0 29 -7 38.5t-27 9.5h-45z" />
    <glyph glyph-name="afii10068" unicode="&#x433;" horiz-adv-x="308" 
d="M295 513v-120h-127v-393h-133v513h260z" />
    <glyph glyph-name="afii10069" unicode="&#x434;" horiz-adv-x="438" 
d="M86 513h300v-400h54v-248h-125v135h-196v-135h-125v248h47q21 86 27 161zM253 400h-59l-9 -128q-6 -86 -24 -165h92v293z" />
    <glyph glyph-name="afii10070" unicode="&#x435;" horiz-adv-x="377" 
d="M356 229h-199v-56q0 -39 11.5 -55.5t37.5 -16.5q20 0 32 14t21 49l99 -32q-16 -71 -56.5 -106t-110.5 -35q-79 0 -123.5 50t-44.5 127v178q0 76 44 126.5t126 50.5q78 0 120.5 -51.5t42.5 -130.5v-112zM157 353v-39h79v40q0 34 -9.5 47.5t-29.5 13.5q-21 0 -30.5 -13.5
t-9.5 -48.5z" />
    <glyph glyph-name="afii10072" unicode="&#x436;" horiz-adv-x="618" 
d="M22 419v95q20 5 43 5q102 0 121 -94l10 -50q12 -61 40 -61h6v199h133v-199h6q30 0 41 61l9 50q17 94 122 94q21 0 43 -5v-95h-15q-31 0 -40 -43l-9 -45q-8 -40 -27 -58q27 -16 37 -60l16 -75q6 -25 13.5 -36t23.5 -11h11v-88q-28 -8 -50 -8q-54 0 -82 26t-40 78l-19 86
q-7 30 -26 30h-14v-215h-133v215h-13q-20 0 -27 -30l-19 -86q-12 -53 -40 -78.5t-81 -25.5q-22 0 -50 8v88h11q27 0 37 47l16 75q10 44 37 59q-21 21 -28 59l-8 45q-8 43 -41 43h-14z" />
    <glyph glyph-name="afii10073" unicode="&#x437;" horiz-adv-x="371" 
d="M114 208v102h48q29 0 40.5 12.5t11.5 45.5q0 25 -9 36t-31 11q-40 0 -53 -51l-99 23q13 63 55.5 99.5t111.5 36.5q77 0 115.5 -41t38.5 -107q0 -78 -49 -106v-2q61 -21 61 -113q0 -163 -172 -163q-139 0 -165 126l100 23q11 -47 57 -47q26 0 37.5 14t11.5 45q0 32 -14 44
t-44 12h-52z" />
    <glyph glyph-name="afii10074" unicode="&#x438;" horiz-adv-x="428" 
d="M270 513h124v-513h-124v298h-2l-110 -298h-123v513h123v-307h2z" />
    <glyph glyph-name="afii10075" unicode="&#x439;" horiz-adv-x="428" 
d="M270 513h124v-513h-124v298h-2l-110 -298h-123v513h123v-307h2zM89 725h93q2 -47 9.5 -63t25.5 -16q17 0 24.5 16t10.5 63h93q-9 -90 -37.5 -121.5t-90.5 -31.5t-90.5 31.5t-37.5 121.5z" />
    <glyph glyph-name="afii10076" unicode="&#x43a;" horiz-adv-x="422" 
d="M399 91h11v-88q-28 -8 -50 -8q-53 0 -81 25.5t-41 78.5l-20 86q-7 30 -27 30h-23v-215h-133v513h133v-199h16q15 0 23.5 13.5t16.5 47.5l11 50q21 94 122 94q21 0 43 -5v-95h-15q-31 0 -40 -43l-10 -45q-9 -40 -28 -59q27 -16 37 -59l18 -75q6 -26 14 -36.5t23 -10.5z
" />
    <glyph glyph-name="afii10077" unicode="&#x43b;" horiz-adv-x="432" 
d="M397 513v-513h-133v403h-56l-15 -251q-5 -83 -38.5 -120t-95.5 -37q-23 0 -53 8v88h17q23 0 34 19t13 70l16 333h311z" />
    <glyph glyph-name="afii10078" unicode="&#x43c;" horiz-adv-x="528" 
d="M365 513h129v-513h-122v251h-2l-77 -177h-59l-76 176h-2v-250h-121v513h128l99 -251h2z" />
    <glyph glyph-name="afii10079" unicode="&#x43d;" horiz-adv-x="421" 
d="M168 0h-133v513h133v-197h85v197h133v-513h-133v205h-85v-205z" />
    <glyph glyph-name="afii10080" unicode="&#x43e;" horiz-adv-x="398" 
d="M375 346v-179q0 -77 -45.5 -127t-130.5 -50q-86 0 -131 49.5t-45 127.5v179q0 76 45.5 126.5t130.5 50.5q86 0 131 -49.5t45 -127.5zM157 340v-168q0 -39 10 -55.5t32 -16.5t32 16t10 56v168q0 40 -10 56t-32 16t-32 -16t-10 -56z" />
    <glyph glyph-name="afii10081" unicode="&#x43f;" horiz-adv-x="415" 
d="M168 0h-133v513h346v-513h-134v401h-79v-401z" />
    <glyph glyph-name="afii10082" unicode="&#x440;" horiz-adv-x="407" 
d="M252 -7q-52 0 -82 29h-2v-215h-133v706h116l3 -34h2q37 44 103 44q59 0 92 -48t33 -141v-151q0 -94 -34 -142t-98 -48zM168 376v-243q15 -22 42 -22q21 0 30.5 15.5t9.5 58.5v143q0 41 -9 56.5t-29 15.5q-29 0 -44 -24z" />
    <glyph glyph-name="afii10083" unicode="&#x441;" horiz-adv-x="352" 
d="M343 382l-98 -32q-11 60 -45 60q-21 0 -32 -15t-11 -55v-168q0 -40 10 -55.5t33 -15.5q34 0 45 61l99 -32q-32 -139 -156 -139q-80 0 -122.5 50.5t-42.5 124.5v180q0 76 43 126.5t122 50.5q59 0 100 -36.5t55 -104.5z" />
    <glyph glyph-name="afii10084" unicode="&#x442;" horiz-adv-x="363" 
d="M249 0h-134v397h-102v116h337v-116h-101v-397z" />
    <glyph glyph-name="afii10085" unicode="&#x443;" horiz-adv-x="405" 
d="M405 513l-148 -542q-25 -92 -69 -130.5t-123 -40.5l-8 108q36 3 54.5 17t27.5 49l13 51l-152 488h146l68 -316h2l53 316h136z" />
    <glyph glyph-name="afii10086" unicode="&#x444;" horiz-adv-x="589" 
d="M228 709h134v-212h2q28 25 74 25q61 0 94.5 -47t33.5 -139v-161q0 -89 -34 -135.5t-97 -46.5q-44 0 -71 27h-2v-213h-134v214h-2q-27 -28 -72 -28q-63 0 -97 46.5t-34 135.5v161q0 92 33.5 139t94.5 47q46 0 75 -26h2v213zM196 102q22 0 35 21v264q-14 21 -35 21
q-20 0 -29.5 -16t-9.5 -55v-165q0 -39 9.5 -54.5t29.5 -15.5zM393 408q-23 0 -35 -22v-261q12 -23 36 -23q38 0 38 70v165q0 71 -39 71z" />
    <glyph glyph-name="afii10087" unicode="&#x445;" horiz-adv-x="412" 
d="M1 0l114 265l-110 248h144l59 -173h2l54 173h143l-110 -255l114 -258h-144l-63 181h-2l-57 -181h-144z" />
    <glyph glyph-name="afii10088" unicode="&#x446;" horiz-adv-x="430" 
d="M35 513h133v-400h76v400h134v-400h54v-248h-125v135h-272v513z" />
    <glyph glyph-name="afii10089" unicode="&#x447;" horiz-adv-x="406" 
d="M163 513v-173q0 -24 10 -34.5t33 -10.5q17 0 32 3v215h134v-513h-134v191q-34 -8 -69 -8q-139 0 -139 153v177h133z" />
    <glyph glyph-name="afii10090" unicode="&#x448;" horiz-adv-x="613" 
d="M35 513h133v-400h72v400h133v-400h71v400h134v-513h-543v513z" />
    <glyph glyph-name="afii10091" unicode="&#x449;" horiz-adv-x="630" 
d="M35 513h133v-400h72v400h133v-400h71v400h134v-400h54v-248h-125v135h-472v513z" />
    <glyph glyph-name="afii10092" unicode="&#x44a;" horiz-adv-x="459" 
d="M241 513v-191h46q87 0 122.5 -40t35.5 -121q0 -80 -35 -120.5t-127 -40.5h-175v402h-95v111h228zM241 217v-116h42q22 0 30 12t8 45q0 36 -8.5 47.5t-31.5 11.5h-40z" />
    <glyph glyph-name="afii10093" unicode="&#x44b;" horiz-adv-x="582" 
d="M413 513h134v-513h-134v513zM168 513v-191h46q87 0 122.5 -40t35.5 -121q0 -80 -35 -120.5t-127 -40.5h-175v513h133zM168 217v-116h42q22 0 30 12t8 45q0 36 -8.5 47.5t-31.5 11.5h-40z" />
    <glyph glyph-name="afii10094" unicode="&#x44c;" horiz-adv-x="386" 
d="M168 513v-191h46q87 0 122.5 -40t35.5 -121q0 -80 -35 -120.5t-127 -40.5h-175v513h133zM168 217v-116h42q22 0 30 12t8 45q0 36 -8.5 47.5t-31.5 11.5h-40z" />
    <glyph glyph-name="afii10095" unicode="&#x44d;" horiz-adv-x="367" 
d="M212 154v55h-104v101h104v43q0 62 -42 62q-37 0 -51 -64l-95 30q14 69 55 105.5t101 36.5q79 0 121.5 -50.5t42.5 -126.5v-180q0 -74 -42.5 -124.5t-122.5 -50.5q-123 0 -157 140l95 29q11 -66 51 -66q23 0 33.5 13t10.5 47z" />
    <glyph glyph-name="afii10096" unicode="&#x44e;" horiz-adv-x="579" 
d="M36 513h133v-197h45v30q0 76 44.5 126.5t126.5 50.5q84 0 127.5 -50t43.5 -127v-179q0 -76 -44.5 -126.5t-126.5 -50.5t-126.5 50.5t-44.5 126.5v38h-45v-205h-133v513zM348 340v-168q0 -71 37 -71q19 0 28 16t9 55v168q0 72 -37 72t-37 -72z" />
    <glyph glyph-name="afii10097" unicode="&#x44f;" horiz-adv-x="410" 
d="M10 91h13q16 0 25 10t17 33l17 53q12 35 26 46q-70 30 -70 131q0 69 39 109t121 40h178v-513h-129v201h-13q-19 0 -27 -30l-20 -78q-14 -54 -42.5 -76t-81.5 -22q-25 0 -53 8v88zM247 294v110h-34q-21 0 -29.5 -10.5t-8.5 -40.5q0 -59 38 -59h34z" />
    <glyph glyph-name="uni0450" unicode="&#x450;" horiz-adv-x="377" 
d="M64 725h142l43 -145h-94zM356 229h-199v-56q0 -39 11.5 -55.5t37.5 -16.5q20 0 32 14t21 49l99 -32q-16 -71 -56.5 -106t-110.5 -35q-79 0 -123.5 50t-44.5 127v178q0 76 44 126.5t126 50.5q78 0 120.5 -51.5t42.5 -130.5v-112zM157 353v-39h79v40q0 34 -9.5 47.5
t-29.5 13.5q-21 0 -30.5 -13.5t-9.5 -48.5z" />
    <glyph glyph-name="afii10071" unicode="&#x451;" horiz-adv-x="377" 
d="M356 229h-199v-56q0 -39 11.5 -55.5t37.5 -16.5q20 0 32 14t21 49l99 -32q-16 -71 -56.5 -106t-110.5 -35q-79 0 -123.5 50t-44.5 127v178q0 76 44 126.5t126 50.5q78 0 120.5 -51.5t42.5 -130.5v-112zM157 353v-39h79v40q0 34 -9.5 47.5t-29.5 13.5q-21 0 -30.5 -13.5
t-9.5 -48.5zM85 725h92v-137h-92v137zM214 725h91v-137h-91v137z" />
    <glyph glyph-name="afii10099" unicode="&#x452;" horiz-adv-x="414" 
d="M238 665v-90h-68v-88h2q32 36 91 36t91 -47t32 -139v-302q0 -187 -177 -194l-7 102q28 5 39 24t11 66v302q0 39 -9 54.5t-29 15.5q-29 0 -44 -24v-381h-134v575h-51v90h51v81h134v-81h68z" />
    <glyph glyph-name="afii10100" unicode="&#x453;" horiz-adv-x="308" 
d="M295 513v-120h-127v-393h-133v513h260zM124 725h142l-88 -145h-94z" />
    <glyph glyph-name="afii10101" unicode="&#x454;" horiz-adv-x="352" 
d="M155 154q0 -33 10.5 -45.5t33.5 -12.5q39 0 52 64l95 -29q-34 -140 -160 -140q-78 0 -120.5 51t-42.5 124v180q0 76 43 126.5t122 50.5q60 0 101 -36.5t55 -105.5l-96 -30q-12 63 -49 63q-44 0 -44 -61v-43h104v-101h-104v-55z" />
    <glyph glyph-name="afii10102" unicode="&#x455;" horiz-adv-x="339" 
d="M325 385l-93 -27q-8 34 -20 47t-30 13q-34 0 -34 -36q0 -21 18.5 -38t44.5 -32.5t52 -34.5t44.5 -52.5t18.5 -78.5q0 -67 -43 -111.5t-111 -44.5q-124 0 -157 134l93 34q19 -65 57 -65q34 0 34 41q0 22 -18.5 40t-44.5 33t-52.5 34t-45 52.5t-18.5 78.5q0 66 41.5 108.5
t113.5 42.5q60 0 99 -37.5t51 -100.5z" />
    <glyph glyph-name="afii10103" unicode="&#x456;" horiz-adv-x="213" 
d="M40 513h133v-513h-133v513zM47 724h121v-137h-121v137z" />
    <glyph glyph-name="afii10104" unicode="&#x457;" horiz-adv-x="213" 
d="M40 513h133v-513h-133v513zM-4 725h92v-137h-92v137zM125 725h91v-137h-91v137z" />
    <glyph glyph-name="afii10105" unicode="&#x458;" horiz-adv-x="216" 
d="M50 724h121v-137h-121v137zM2 -200l-8 108q27 5 39 23t12 61v521h133v-518q0 -188 -176 -195z" />
    <glyph glyph-name="afii10106" unicode="&#x459;" horiz-adv-x="615" 
d="M397 513v-191h46q87 0 122.5 -40t35.5 -121q0 -80 -35 -120.5t-127 -40.5h-175v403h-56l-15 -251q-5 -83 -38.5 -120t-95.5 -37q-23 0 -53 8v88h17q23 0 34 19t13 70l16 333h311zM397 217v-116h42q22 0 30 12t8 45q0 36 -8.5 47.5t-31.5 11.5h-40z" />
    <glyph glyph-name="afii10107" unicode="&#x45a;" horiz-adv-x="604" 
d="M168 0h-133v513h133v-197h85v197h133v-191h46q87 0 122.5 -40t35.5 -121q0 -80 -35 -120.5t-127 -40.5h-175v205h-85v-205zM386 217v-116h42q22 0 30 12t8 45q0 36 -8.5 47.5t-31.5 11.5h-40z" />
    <glyph glyph-name="afii10108" unicode="&#x45b;" horiz-adv-x="414" 
d="M170 381v-381h-134v575h-51v90h51v81h134v-81h68v-90h-68v-88h2q32 36 91 36t91 -47t32 -139v-337h-134v335q0 39 -9 54.5t-29 15.5q-29 0 -44 -24z" />
    <glyph glyph-name="afii10109" unicode="&#x45c;" horiz-adv-x="422" 
d="M399 91h11v-88q-28 -8 -50 -8q-53 0 -81 25.5t-41 78.5l-20 86q-7 30 -27 30h-23v-215h-133v513h133v-199h16q15 0 23.5 13.5t16.5 47.5l11 50q21 94 122 94q21 0 43 -5v-95h-15q-31 0 -40 -43l-10 -45q-9 -40 -28 -59q27 -16 37 -59l18 -75q6 -26 14 -36.5t23 -10.5z
M202 725h142l-88 -145h-94z" />
    <glyph glyph-name="uni045D" unicode="&#x45d;" horiz-adv-x="428" 
d="M270 513h124v-513h-124v298h-2l-110 -298h-123v513h123v-307h2zM85 725h142l43 -145h-94z" />
    <glyph glyph-name="afii10110" unicode="&#x45e;" horiz-adv-x="405" 
d="M405 513l-148 -542q-25 -92 -69 -130.5t-123 -40.5l-8 108q36 3 54.5 17t27.5 49l13 51l-152 488h146l68 -316h2l53 316h136zM83 725h93q2 -47 9.5 -63t25.5 -16q17 0 24.5 16t10.5 63h93q-9 -90 -37.5 -121.5t-90.5 -31.5t-90.5 31.5t-37.5 121.5z" />
    <glyph glyph-name="afii10193" unicode="&#x45f;" horiz-adv-x="416" 
d="M381 0h-113v-135h-115v135h-118v513h133v-399h79v399h134v-513z" />
    <glyph glyph-name="afii10146" unicode="&#x462;" horiz-adv-x="448" 
d="M44 725h147v-72h128v-106h-128v-107h60q100 0 140 -52.5t40 -165.5q0 -110 -41 -166t-148 -56h-198v547h-63v106h63v72zM191 130h45q30 0 40.5 19t10.5 73q0 58 -10 74.5t-42 16.5h-44v-183z" />
    <glyph glyph-name="afii10194" unicode="&#x463;" horiz-adv-x="386" 
d="M168 513v-51h87v-90h-87v-50h46q87 0 122.5 -40t35.5 -121q0 -80 -35 -120.5t-127 -40.5h-175v372h-34v90h34v51h133zM168 217v-116h42q22 0 30 12t8 45q0 36 -8.5 47.5t-31.5 11.5h-40z" />
    <glyph glyph-name="afii10147" unicode="&#x472;" horiz-adv-x="473" 
d="M444 502v-279q0 -111 -53 -172t-155 -61t-154.5 60.5t-52.5 172.5v279q0 112 52.5 172.5t154.5 60.5t155 -61t53 -172zM297 220v96h-121v-96q0 -57 14 -79t46 -22q33 0 47 22t14 79zM176 506v-75h121v74q0 54 -14 75.5t-47 21.5q-32 0 -46 -21t-14 -75z" />
    <glyph glyph-name="afii10195" unicode="&#x473;" horiz-adv-x="398" 
d="M375 346v-179q0 -77 -45.5 -127t-130.5 -50q-86 0 -131 49.5t-45 127.5v179q0 76 45.5 126.5t130.5 50.5q86 0 131 -49.5t45 -127.5zM199 94q22 0 32 16t10 56v51h-84v-51q0 -39 10 -55.5t32 -16.5zM157 346v-37h84v37q0 39 -10 55.5t-32 16.5t-32 -16.5t-10 -55.5z" />
    <glyph glyph-name="afii10148" unicode="&#x474;" horiz-adv-x="503" 
d="M-1 725h158l86 -517h2l56 366q11 74 51 115.5t103 41.5q33 0 56 -6v-109h-16q-39 0 -50 -55l-121 -561h-160z" />
    <glyph glyph-name="afii10196" unicode="&#x475;" 
d="M-1 513h147l61 -369h2l38 263q16 112 129 112q32 0 52 -5v-95h-16q-29 0 -39 -43l-88 -376h-152z" />
    <glyph glyph-name="afii10050" unicode="&#x490;" horiz-adv-x="368" 
d="M220 807h139v-219h-172v-588h-143v725h176v82z" />
    <glyph glyph-name="afii10098" unicode="&#x491;" horiz-adv-x="308" 
d="M295 589v-196h-127v-393h-133v513h153v76h107z" />
    <glyph glyph-name="uni0492" unicode="&#x492;" horiz-adv-x="385" 
d="M5 304v120h55v301h316v-136h-172v-165h90v-120h-90v-304h-144v304h-55z" />
    <glyph glyph-name="uni0493" unicode="&#x493;" horiz-adv-x="315" 
d="M1 206v96h40v211h261v-120h-127v-91h72v-96h-72v-206h-134v206h-40z" />
    <glyph glyph-name="uni0496" unicode="&#x496;" horiz-adv-x="737" 
d="M22 616v108q25 7 57 7q87 0 118 -116l43 -157q6 -24 32 -24h10v291h143v-291h11q26 0 32 24l43 157q31 116 118 116q33 0 57 -7v-108h-16q-27 0 -40 -51l-31 -120q-11 -43 -50 -67v-2q50 -23 61 -70l36 -160q9 -42 41 -42h48v-245h-140v143q-67 22 -86 109l-40 176
q-7 28 -35 28h-9v-315h-143v315h-8q-28 0 -35 -28l-40 -176q-26 -116 -136 -116q-36 0 -55 7v102h13q32 0 41 42l36 160q10 48 61 69v2q-38 23 -50 68l-31 120q-7 28 -16 39.5t-24 11.5h-16z" />
    <glyph glyph-name="uni0497" unicode="&#x497;" horiz-adv-x="636" 
d="M22 419v95q20 5 43 5q102 0 121 -94l10 -50q12 -61 40 -61h6v199h133v-199h6q30 0 41 61l9 50q17 94 122 94q21 0 43 -5v-95h-15q-31 0 -40 -43l-9 -45q-8 -40 -27 -58q27 -16 37 -60l16 -75q6 -25 13.5 -36t23.5 -11h37v-226h-118v135q-61 16 -80 99l-19 86
q-7 30 -26 30h-14v-215h-133v215h-13q-20 0 -27 -30l-19 -86q-12 -53 -40 -78.5t-81 -25.5q-22 0 -50 8v88h11q27 0 37 47l16 75q10 44 37 59q-21 21 -28 59l-8 45q-8 43 -41 43h-14z" />
    <glyph glyph-name="uni049A" unicode="&#x49a;" horiz-adv-x="528" 
d="M477 725v-109h-17q-32 0 -47 -51l-34 -118q-12 -45 -58 -69v-2q54 -20 66 -71l40 -159q11 -42 49 -42h50v-245h-140v141q-77 18 -101 115l-43 172q-7 28 -42 28h-13v-315h-143v725h143v-291h14q29 0 37 25l47 152q18 59 50 89.5t86 30.5q35 0 56 -6z" />
    <glyph glyph-name="uni049B" unicode="&#x49b;" horiz-adv-x="440" 
d="M399 91h37v-226h-118v135q-61 16 -80 99l-20 86q-7 30 -27 30h-23v-215h-133v513h133v-199h16q15 0 23.5 13.5t16.5 47.5l11 50q21 94 122 94q21 0 43 -5v-95h-15q-31 0 -40 -43l-10 -45q-9 -40 -28 -59q27 -16 37 -59l18 -75q6 -26 14 -36.5t23 -10.5z" />
    <glyph glyph-name="uni049C" unicode="&#x49c;" horiz-adv-x="546" 
d="M521 725v-109h-18q-37 0 -46 -51l-21 -114q-10 -51 -49 -75q48 -25 58 -82l25 -148q6 -42 50 -42h15v-102q-26 -8 -57 -8q-64 0 -102.5 33.5t-49.5 95.5l-28 164q-3 16 -8 21.5t-15 6.5v-134h-67v134h-21v-315h-143v725h143v-291h21v102h67v-102q16 0 21 25l27 142
q25 130 148 130q27 0 50 -6z" />
    <glyph glyph-name="uni049D" unicode="&#x49d;" horiz-adv-x="440" 
d="M35 513h133v-199h20v99h66v-99q7 0 11.5 9t10.5 43l10 53q18 100 118 100q27 0 47 -5v-95h-14q-31 0 -40 -43l-10 -45q-8 -40 -27 -59q27 -15 37 -59l17 -75q6 -26 14 -36.5t23 -10.5h11v-88q-28 -8 -50 -8q-54 0 -81.5 24.5t-38.5 78.5l-17 87q-5 30 -19 30h-2v-121h-66
v121h-20v-215h-133v513z" />
    <glyph glyph-name="uni04A2" unicode="&#x4a2;" horiz-adv-x="510" 
d="M44 725h147v-284h111v284h147v-621h71v-245h-140v141h-78v305h-111v-305h-147v725z" />
    <glyph glyph-name="uni04A3" unicode="&#x4a3;" horiz-adv-x="460" 
d="M168 0h-133v513h133v-197h85v197h133v-422h67v-226h-117v135h-83v205h-85v-205z" />
    <glyph glyph-name="uni04AE" unicode="&#x4ae;" horiz-adv-x="469" 
d="M470 725l-162 -519v-206h-147v206l-162 519h160l76 -337h2l74 337h159z" />
    <glyph glyph-name="uni04AF" unicode="&#x4af;" horiz-adv-x="409" 
d="M271 -196h-134v210l-138 499h147l58 -336l59 336h147l-139 -495v-214z" />
    <glyph glyph-name="uni04B0" unicode="&#x4b0;" horiz-adv-x="469" 
d="M470 725l-159 -466h91v-114h-94v-145h-147v145h-94v114h91l-159 466h160l77 -302l75 302h159z" />
    <glyph glyph-name="uni04B1" unicode="&#x4b1;" horiz-adv-x="409" 
d="M410 513l-118 -418h61v-95h-82v-196h-134v196h-82v95h59l-115 418h147l58 -336l59 336h147z" />
    <glyph glyph-name="uni04B2" unicode="&#x4b2;" horiz-adv-x="504" 
d="M4 0l136 371l-132 354h156l72 -256h2l70 256h155l-132 -360l98 -261h73v-245h-140v141h-50l-77 262h-2l-74 -262h-155z" />
    <glyph glyph-name="uni04B3" unicode="&#x4b3;" horiz-adv-x="447" 
d="M2 3l113 262l-110 248h144l59 -173h2l54 173h143l-110 -255l74 -167h72v-226h-117v138h-60l-62 178h-2l-56 -178h-144z" />
    <glyph glyph-name="uni04B6" unicode="&#x4b6;" horiz-adv-x="477" 
d="M416 104h71v-245h-140v141h-78v295q-36 -8 -81 -8q-86 0 -127 49.5t-41 157.5v231h147v-229q0 -48 14.5 -65t48.5 -17q25 0 39 3v308h147v-621z" />
    <glyph glyph-name="uni04B7" unicode="&#x4b7;" horiz-adv-x="445" 
d="M163 513v-173q0 -24 10 -34.5t33 -10.5q17 0 32 3v215h134v-422h66v-226h-117v135h-83v191q-34 -8 -69 -8q-139 0 -139 153v177h133z" />
    <glyph glyph-name="uni04B8" unicode="&#x4b8;" horiz-adv-x="488" 
d="M202 534h67v-123l28 3v311h147v-725h-147v296q-17 -4 -28 -5v-112h-67v108q-96 2 -139 50.5t-43 156.5v231h147v-233q0 -37 7.5 -54.5t27.5 -22.5v119z" />
    <glyph glyph-name="uni04B9" unicode="&#x4b9;" horiz-adv-x="461" 
d="M196 398h66v-103l30 3v215h134v-513h-134v191l-30 -5v-107h-66v104q-83 1 -124.5 42t-41.5 116v172h133v-167q0 -38 33 -47v99z" />
    <glyph glyph-name="uni04BA" unicode="&#x4ba;" horiz-adv-x="465" 
d="M191 725v-239q33 9 81 9q87 0 127.5 -49t40.5 -158v-288h-147v286q0 48 -14.5 65t-48.5 17q-20 0 -39 -3v-365h-147v725h147z" />
    <glyph glyph-name="uni04BB" unicode="&#x4bb;" horiz-adv-x="406" 
d="M170 0h-134v746h134v-236q32 8 69 8q139 0 139 -153v-365h-133v361q0 24 -10 34.5t-33 10.5q-17 0 -32 -3v-403z" />
    <glyph glyph-name="uni04C0" unicode="&#x4c0;" horiz-adv-x="247" 
d="M50 725h147v-725h-147v725z" />
    <glyph glyph-name="uni04CF" unicode="&#x4cf;" horiz-adv-x="217" 
d="M42 746h133v-746h-133v746z" />
    <glyph glyph-name="uni04D8" unicode="&#x4d8;" horiz-adv-x="453" 
d="M23 220v182h254v122q0 83 -66 83q-28 0 -46 -18.5t-27 -64.5l-113 33q31 178 195 178q95 0 149.5 -60.5t54.5 -156.5v-300q0 -109 -51.5 -168.5t-154.5 -59.5q-98 0 -146.5 62t-48.5 168zM215 117q62 0 62 93v87h-122v-86q0 -94 60 -94z" />
    <glyph glyph-name="afii10846" unicode="&#x4d9;" horiz-adv-x="377" 
d="M18 285h199v56q0 39 -11.5 55.5t-37.5 16.5q-20 0 -32 -14t-20 -49l-100 32q17 72 57 106.5t110 34.5q79 0 123.5 -50t44.5 -127v-178q0 -76 -44 -126.5t-126 -50.5q-78 0 -120.5 51.5t-42.5 130.5v112zM177 99q22 0 31 13.5t9 48.5v39h-79v-40q0 -34 9.5 -47.5
t29.5 -13.5z" />
    <glyph glyph-name="uni04E2" unicode="&#x4e2;" horiz-adv-x="501" 
d="M319 725h138v-725h-138v433h-2l-136 -433h-137v725h137v-433h2zM370 857v-87h-239v87h239z" />
    <glyph glyph-name="uni04E3" unicode="&#x4e3;" horiz-adv-x="428" 
d="M270 513h124v-513h-124v298h-2l-110 -298h-123v513h123v-307h2zM332 697v-91h-235v91h235z" />
    <glyph glyph-name="uni04E8" unicode="&#x4e8;" horiz-adv-x="473" 
d="M444 502v-279q0 -111 -53 -172t-155 -61t-154.5 60.5t-52.5 172.5v279q0 112 52.5 172.5t154.5 60.5t155 -61t53 -172zM297 220v96h-121v-96q0 -57 14 -79t46 -22q33 0 47 22t14 79zM176 506v-75h121v74q0 54 -14 75.5t-47 21.5q-32 0 -46 -21t-14 -75z" />
    <glyph glyph-name="uni04E9" unicode="&#x4e9;" horiz-adv-x="398" 
d="M375 346v-179q0 -77 -45.5 -127t-130.5 -50q-86 0 -131 49.5t-45 127.5v179q0 76 45.5 126.5t130.5 50.5q86 0 131 -49.5t45 -127.5zM199 94q22 0 32 16t10 56v51h-84v-51q0 -39 10 -55.5t32 -16.5zM157 346v-37h84v37q0 39 -10 55.5t-32 16.5t-32 -16.5t-10 -55.5z" />
    <glyph glyph-name="uni04EE" unicode="&#x4ee;" horiz-adv-x="469" 
d="M-1 725h164l84 -330h2l66 330h155l-156 -573q-42 -155 -216 -155l-7 124q70 5 83 52l7 27zM354 857v-87h-239v87h239z" />
    <glyph glyph-name="uni04EF" unicode="&#x4ef;" horiz-adv-x="405" 
d="M405 513l-148 -542q-25 -92 -69 -130.5t-123 -40.5l-8 108q36 3 54.5 17t27.5 49l13 51l-152 488h146l68 -316h2l53 316h136zM320 697v-91h-235v91h235z" />
    <glyph glyph-name="Wgrave" unicode="&#x1e80;" horiz-adv-x="745" 
d="M739 725l-133 -725h-162l-70 439h-2l-72 -439h-162l-132 725h147l71 -511h2l78 511h138l77 -517h2l72 517h146zM231 872h155l43 -120h-106z" />
    <glyph glyph-name="wgrave" unicode="&#x1e81;" horiz-adv-x="600" 
d="M348 0l-47 301h-2l-47 -301h-147l-102 513h137l43 -347h2l53 347h124l53 -351h2l44 351h137l-103 -513h-147zM162 725h142l43 -145h-94z" />
    <glyph glyph-name="Wacute" unicode="&#x1e82;" horiz-adv-x="745" 
d="M739 725l-133 -725h-162l-70 439h-2l-72 -439h-162l-132 725h147l71 -511h2l78 511h138l77 -517h2l72 517h146zM350 872h156l-85 -120h-108z" />
    <glyph glyph-name="wacute" unicode="&#x1e83;" horiz-adv-x="600" 
d="M348 0l-47 301h-2l-47 -301h-147l-102 513h137l43 -347h2l53 347h124l53 -351h2l44 351h137l-103 -513h-147zM294 725h142l-88 -145h-94z" />
    <glyph glyph-name="Wdieresis" unicode="&#x1e84;" horiz-adv-x="745" 
d="M739 725l-133 -725h-162l-70 439h-2l-72 -439h-162l-132 725h147l71 -511h2l78 511h138l77 -517h2l72 517h146zM255 872h95v-118h-95v118zM397 872h95v-118h-95v118z" />
    <glyph glyph-name="wdieresis" unicode="&#x1e85;" horiz-adv-x="600" 
d="M348 0l-47 301h-2l-47 -301h-147l-102 513h137l43 -347h2l53 347h124l53 -351h2l44 351h137l-103 -513h-147zM192 725h92v-137h-92v137zM321 725h91v-137h-91v137z" />
    <glyph glyph-name="uni1E8A" unicode="&#x1e8a;" horiz-adv-x="472" 
d="M4 0l136 371l-132 354h156l72 -256h2l70 256h155l-132 -360l137 -365h-156l-77 262h-2l-74 -262h-155zM172 872h126v-118h-126v118z" />
    <glyph glyph-name="uni1E8B" unicode="&#x1e8b;" horiz-adv-x="412" 
d="M1 0l114 265l-110 248h144l59 -173h2l54 173h143l-110 -255l114 -258h-144l-63 181h-2l-57 -181h-144zM145 724h121v-137h-121v137z" />
    <glyph glyph-name="Ygrave" unicode="&#x1ef2;" horiz-adv-x="469" 
d="M470 725l-162 -519v-206h-147v206l-162 519h160l76 -337h2l74 337h159zM100 872h155l43 -120h-106z" />
    <glyph glyph-name="ygrave" unicode="&#x1ef3;" horiz-adv-x="405" 
d="M405 513l-136 -499q-26 -93 -70.5 -131.5t-123.5 -40.5l-7 104q33 3 51 17t28 47l5 16l-152 487h146l68 -316h2l54 316h135zM86 725h142l43 -145h-94z" />
    <glyph glyph-name="uni2007" unicode="&#x2007;" 
 />
    <glyph glyph-name="uni2008" unicode="&#x2008;" horiz-adv-x="188" 
 />
    <glyph glyph-name="uni200B" unicode="&#x200b;" horiz-adv-x="0" 
 />
    <glyph glyph-name="uni2010" unicode="&#x2010;" horiz-adv-x="234" 
d="M23 233v123h188v-123h-188z" />
    <glyph glyph-name="endash" unicode="&#x2013;" horiz-adv-x="355" 
d="M22 250v106h312v-106h-312z" />
    <glyph glyph-name="emdash" unicode="&#x2014;" horiz-adv-x="509" 
d="M22 249v107h466v-107h-466z" />
    <glyph glyph-name="afii00208" unicode="&#x2015;" horiz-adv-x="509" 
d="M22 249v107h466v-107h-466z" />
    <glyph glyph-name="quoteleft" unicode="&#x2018;" horiz-adv-x="194" 
d="M158 687v-140h-119v103q0 95 55 175l46 -19q-25 -51 -25 -113z" />
    <glyph glyph-name="quoteright" unicode="&#x2019;" horiz-adv-x="194" 
d="M39 614v140h119v-104q0 -95 -55 -175l-48 20q25 52 26 112z" />
    <glyph glyph-name="quotesinglbase" unicode="&#x201a;" horiz-adv-x="194" 
d="M39 7v140h119v-104q0 -95 -55 -175l-48 20q25 52 26 112z" />
    <glyph glyph-name="quotedblleft" unicode="&#x201c;" horiz-adv-x="352" 
d="M318 687v-140h-119v103q0 95 55 175l46 -19q-25 -51 -25 -113zM158 687v-140h-119v103q0 95 55 175l46 -19q-25 -51 -25 -113z" />
    <glyph glyph-name="quotedblright" unicode="&#x201d;" horiz-adv-x="352" 
d="M199 614v140h119v-104q0 -95 -55 -175l-48 20q25 52 26 112zM39 614v140h119v-104q0 -95 -55 -175l-48 20q25 52 26 112z" />
    <glyph glyph-name="quotedblbase" unicode="&#x201e;" horiz-adv-x="341" 
d="M190 7v140h119v-104q0 -95 -55 -175l-48 20q25 52 26 112zM28 7v140h119v-104q0 -95 -55 -175l-48 20q25 52 26 112z" />
    <glyph glyph-name="dagger" unicode="&#x2020;" horiz-adv-x="361" 
d="M14 575l103 -5l-6 176h133l-5 -176l104 5v-138l-104 5l5 -591h-133l6 591l-103 -5v138z" />
    <glyph glyph-name="daggerdbl" unicode="&#x2021;" horiz-adv-x="361" 
d="M117 156v286l-103 -5v138l103 -5l-6 176h133l-5 -176l104 5v-138l-104 5v-286l104 4v-138l-104 5l5 -176h-133l6 176l-103 -5v138z" />
    <glyph glyph-name="bullet" unicode="&#x2022;" horiz-adv-x="240" 
d="M12 310q0 52 31 87t77 35t77 -35t31 -87q0 -51 -31 -86t-77 -35t-77 35t-31 86z" />
    <glyph glyph-name="ellipsis" unicode="&#x2026;" horiz-adv-x="563" 
d="M27 0v149h134v-149h-134zM214 0v149h135v-149h-135zM402 0v149h134v-149h-134z" />
    <glyph glyph-name="perthousand" unicode="&#x2030;" horiz-adv-x="791" 
d="M257 586v-39q0 -148 -118 -148q-119 0 -119 148v39q0 149 119 149q58 0 88 -38.5t30 -110.5zM113 585v-38q0 -36 5.5 -47.5t20.5 -11.5q14 0 19.5 12t5.5 47v38q0 34 -6 46t-19 12q-15 0 -20.5 -12t-5.5 -46zM41 0l348 722h99l-349 -722h-98zM513 173v-39
q0 -148 -118 -148q-119 0 -119 148v39q0 149 119 149q118 0 118 -149zM369 172v-38q0 -36 5.5 -47.5t20.5 -11.5q14 0 19.5 12t5.5 47v38q0 35 -5.5 46.5t-19.5 11.5q-15 0 -20.5 -11.5t-5.5 -46.5zM776 173v-39q0 -148 -118 -148q-119 0 -119 148v39q0 149 119 149
q118 0 118 -149zM632 172v-38q0 -36 5.5 -47.5t20.5 -11.5q14 0 19.5 12t5.5 47v38q0 35 -5.5 46.5t-19.5 11.5q-15 0 -20.5 -11.5t-5.5 -46.5z" />
    <glyph glyph-name="guilsinglleft" unicode="&#x2039;" horiz-adv-x="246" 
d="M225 437l-99 -173l99 -173h-108l-96 173l96 173h108z" />
    <glyph glyph-name="guilsinglright" unicode="&#x203a;" horiz-adv-x="246" 
d="M22 91l98 173l-98 173h107l96 -173l-96 -173h-107z" />
    <glyph glyph-name="uni203D" unicode="&#x203d;" horiz-adv-x="476" 
d="M11 550q19 84 80 136.5t150 52.5q106 0 161 -53t55 -135q0 -150 -167 -242l-5 -84h-101l-7 196v191h-2q-35 -24 -52 -90zM166 0v149h134v-149h-134zM327 544q0 62 -42 77v-189h2q40 48 40 112z" />
    <glyph glyph-name="fraction" unicode="&#x2044;" horiz-adv-x="245" 
d="M29 0h-82l333 725h81z" />
    <glyph glyph-name="uni2070" unicode="&#x2070;" horiz-adv-x="229" 
d="M215 682v-103q0 -53 -26 -82.5t-75 -29.5q-48 0 -74 30t-26 82v103q0 52 26 82t74 30q49 0 75 -29.5t26 -82.5zM91 680v-101q0 -26 5 -35.5t18 -9.5t18.5 9.5t5.5 35.5v101q0 24 -5.5 32.5t-18.5 8.5t-18 -8.5t-5 -32.5z" />
    <glyph glyph-name="uni2074" unicode="&#x2074;" horiz-adv-x="229" 
d="M201 471h-70v55h-124v54l116 210h78v-201h26l-4 -63h-22v-55zM82 589h50l4 112h-2z" />
    <glyph glyph-name="uni2075" unicode="&#x2075;" horiz-adv-x="229" 
d="M71 601l-50 24l10 165h172l-5 -68h-103l-3 -53q19 8 39 8q81 0 81 -98q0 -57 -25 -84.5t-79 -27.5q-82 0 -98 78l59 20q10 -33 35 -33q16 0 21 10t5 37q0 33 -30 33q-16 0 -29 -11z" />
    <glyph glyph-name="uni2076" unicode="&#x2076;" horiz-adv-x="229" 
d="M119 794q74 0 93 -77l-55 -22q-8 32 -33 32q-36 0 -36 -42v-25h2q18 15 47 15q78 0 78 -94q0 -114 -100 -114t-100 112v98q0 51 29 84t75 33zM117 611q-27 0 -29 -16v-26q0 -34 28 -34q15 0 20 9t5 35q0 18 -5.5 25t-18.5 7z" />
    <glyph glyph-name="uni2077" unicode="&#x2077;" horiz-adv-x="216" 
d="M113 471h-87l99 248h-113v71h194v-63z" />
    <glyph glyph-name="uni2078" unicode="&#x2078;" horiz-adv-x="229" 
d="M115 467q-104 0 -104 101q0 52 39 69v2q-31 16 -31 68q0 87 96 87q94 0 94 -87q0 -51 -31 -68v-2q39 -17 39 -69q0 -101 -102 -101zM140 570q0 21 -5.5 27.5t-19.5 6.5q-16 0 -21.5 -6.5t-5.5 -27.5q0 -24 6.5 -32t20.5 -8t19.5 8t5.5 32zM115 731q-14 0 -19 -6.5
t-5 -26.5q0 -22 5 -29t19 -7q13 0 18 7t5 29q0 20 -5 26.5t-18 6.5z" />
    <glyph glyph-name="uni2079" unicode="&#x2079;" horiz-adv-x="229" 
d="M14 541l51 26q13 -35 39 -35q19 0 26.5 10t7.5 33v30h-2q-17 -12 -43 -12q-35 0 -58 23t-23 71q0 52 26.5 79.5t75.5 27.5t74 -29.5t25 -77.5v-110q0 -52 -27.5 -81t-76.5 -29q-74 0 -95 74zM111 654q24 0 27 19v26q0 31 -25 31q-15 0 -21 -7.5t-6 -29.5q0 -24 5.5 -31.5
t19.5 -7.5z" />
    <glyph glyph-name="uni207A" unicode="&#x207a;" horiz-adv-x="196" 
d="M71 528v67h-54v55h54v68h54v-68h54v-55h-54v-67h-54z" />
    <glyph glyph-name="uni207B" unicode="&#x207b;" horiz-adv-x="196" 
d="M179 595h-162v55h162v-55z" />
    <glyph glyph-name="uni207C" unicode="&#x207c;" horiz-adv-x="196" 
d="M166 631h-141v54h141v-54zM166 551h-141v55h141v-55z" />
    <glyph glyph-name="uni207D" unicode="&#x207d;" horiz-adv-x="130" 
d="M21 544v163q0 68 23 100t75 32h12v-53h-12q-36 0 -36 -79v-163q0 -79 36 -79h12v-53h-12q-52 0 -75 31.5t-23 100.5z" />
    <glyph glyph-name="uni207E" unicode="&#x207e;" horiz-adv-x="130" 
d="M109 707v-163q0 -69 -22.5 -100.5t-75.5 -31.5h-12v53h12q35 0 35 79v163q0 79 -35 79h-12v53h12q53 0 75.5 -32t22.5 -100z" />
    <glyph glyph-name="uni207F" unicode="&#x207f;" horiz-adv-x="238" 
d="M22 471v254h72l2 -20h2q25 25 55 25q32 0 48.5 -24t16.5 -62v-173h-77v168q0 25 -18 25q-13 0 -22 -14v-179h-79z" />
    <glyph glyph-name="uni2080" unicode="&#x2080;" horiz-adv-x="229" 
d="M215 96v-103q0 -53 -26 -82.5t-75 -29.5q-48 0 -74 30t-26 82v103q0 52 26 82t74 30q49 0 75 -29.5t26 -82.5zM91 94v-101q0 -26 5 -35.5t18 -9.5t18.5 9.5t5.5 35.5v101q0 24 -5.5 32.5t-18.5 8.5t-18 -8.5t-5 -32.5z" />
    <glyph glyph-name="uni2081" unicode="&#x2081;" horiz-adv-x="190" 
d="M90 206h66v-321h-83v207h-57v56h23q26 0 35.5 11t15.5 47z" />
    <glyph glyph-name="uni2082" unicode="&#x2082;" horiz-adv-x="229" 
d="M116 208q48 0 71.5 -25t23.5 -64q0 -32 -15.5 -58.5t-34.5 -41t-38 -33.5t-24 -36h110v-65h-193l-1 33q1 34 20 66t40.5 51t39 40.5t17.5 39.5q0 26 -23 26q-27 0 -36 -44l-61 20q10 42 36.5 66.5t67.5 24.5z" />
    <glyph glyph-name="uni2083" unicode="&#x2083;" horiz-adv-x="229" 
d="M76 17v59h23q29 0 29 34q0 32 -22 32q-15 0 -23 -7.5t-12 -27.5l-59 20q8 38 34.5 59.5t66.5 21.5q47 0 71.5 -25t24.5 -62q0 -54 -37 -70v-2q41 -14 41 -70q0 -49 -27 -73.5t-75 -24.5q-84 0 -101 78l58 21q10 -35 37 -35q26 0 26 39q0 18 -7 25.5t-22 7.5h-26z" />
    <glyph glyph-name="uni2084" unicode="&#x2084;" horiz-adv-x="229" 
d="M201 -115h-70v55h-124v54l116 210h78v-201h26l-4 -63h-22v-55zM82 3h50l4 112h-2z" />
    <glyph glyph-name="uni2085" unicode="&#x2085;" horiz-adv-x="229" 
d="M71 15l-50 24l10 165h172l-5 -68h-103l-3 -53q19 8 39 8q81 0 81 -98q0 -57 -25 -84.5t-79 -27.5q-82 0 -98 78l59 20q10 -33 35 -33q16 0 21 10t5 37q0 33 -30 33q-16 0 -29 -11z" />
    <glyph glyph-name="uni2086" unicode="&#x2086;" horiz-adv-x="229" 
d="M119 208q74 0 93 -77l-55 -22q-8 32 -33 32q-36 0 -36 -42v-25h2q18 15 47 15q78 0 78 -94q0 -114 -100 -114t-100 112v98q0 51 29 84t75 33zM117 25q-27 0 -29 -16v-26q0 -34 28 -34q15 0 20 9t5 35q0 18 -5.5 25t-18.5 7z" />
    <glyph glyph-name="uni2087" unicode="&#x2087;" horiz-adv-x="216" 
d="M113 -115h-87l99 248h-113v71h194v-63z" />
    <glyph glyph-name="uni2088" unicode="&#x2088;" horiz-adv-x="229" 
d="M115 -119q-104 0 -104 101q0 52 39 69v2q-31 16 -31 68q0 87 96 87q94 0 94 -87q0 -51 -31 -68v-2q39 -16 39 -69q0 -101 -102 -101zM140 -16q0 21 -5.5 27.5t-19.5 6.5q-16 0 -21.5 -6.5t-5.5 -27.5q0 -24 6.5 -32t20.5 -8t19.5 8t5.5 32zM115 145q-14 0 -19 -6.5
t-5 -26.5q0 -22 5 -29t19 -7q13 0 18 7t5 29q0 20 -5 26.5t-18 6.5z" />
    <glyph glyph-name="uni2089" unicode="&#x2089;" horiz-adv-x="229" 
d="M14 -45l51 26q13 -35 39 -35q19 0 26.5 10t7.5 33v30h-2q-16 -12 -43 -12q-35 0 -58 23t-23 71q0 52 26.5 79.5t75.5 27.5t74 -29.5t25 -77.5v-110q0 -52 -27.5 -81t-76.5 -29q-74 0 -95 74zM111 68q24 0 27 19v26q0 31 -25 31q-15 0 -21 -7.5t-6 -29.5q0 -24 5.5 -31.5
t19.5 -7.5z" />
    <glyph glyph-name="uni208A" unicode="&#x208a;" horiz-adv-x="196" 
d="M71 -58v67h-54v55h54v68h54v-68h54v-55h-54v-67h-54z" />
    <glyph glyph-name="uni208B" unicode="&#x208b;" horiz-adv-x="196" 
d="M179 9h-162v55h162v-55z" />
    <glyph glyph-name="uni208C" unicode="&#x208c;" horiz-adv-x="196" 
d="M166 45h-141v54h141v-54zM166 -35h-141v55h141v-55z" />
    <glyph glyph-name="uni208D" unicode="&#x208d;" horiz-adv-x="130" 
d="M21 -42v163q0 68 23 100t75 32h12v-53h-12q-36 0 -36 -79v-163q0 -79 36 -79h12v-53h-12q-52 0 -75 31.5t-23 100.5z" />
    <glyph glyph-name="uni208E" unicode="&#x208e;" horiz-adv-x="130" 
d="M109 121v-163q0 -69 -22.5 -100.5t-75.5 -31.5h-12v53h12q35 0 35 79v163q0 79 -35 79h-12v53h12q53 0 75.5 -32t22.5 -100z" />
    <glyph glyph-name="franc" unicode="&#x20a3;" horiz-adv-x="402" 
d="M1 86v98h46v541h334v-136h-187v-159h161v-127h-161v-119h64v-98h-64v-86h-147v86h-46z" />
    <glyph glyph-name="lira" unicode="&#x20a4;" horiz-adv-x="481" 
d="M47 368l-12 81h44q-4 31 -4 67q0 102 47.5 161.5t134.5 59.5q71 0 115.5 -45.5t55.5 -126.5l-105 -33q-6 42 -21 59t-39 17q-52 0 -52 -108q0 -32 2 -51h162l-11 -81h-145l3 -27h136l-8 -76h-122q3 -39 3 -70q24 -11 52 -40.5t45 -29.5t26 18.5t14 69.5l103 -26
q-11 -104 -44 -150.5t-89 -46.5q-30 0 -55.5 16.5t-36 30.5t-30.5 44h-2q-29 -91 -111 -91q-45 0 -70.5 26t-25.5 73q0 50 30 80t85 38q-3 28 -9 58h-53l-10 76h47q-4 18 -5 27h-45zM111 84q17 0 18 51q-28 -8 -28 -36q0 -15 10 -15z" />
    <glyph glyph-name="peseta" unicode="&#x20a7;" horiz-adv-x="830" 
d="M183 725q72 0 111 -58.5t39 -175.5q0 -229 -145 -229h-35v-262h-123v725h153zM817 383l-83 -26q-10 58 -31 58q-19 0 -19 -33q0 -20 14 -39t33.5 -36.5t39 -38t33.5 -53.5t14 -74q0 -71 -32 -111t-89 -40q-110 0 -126 147l88 22q6 -69 32 -69q21 0 21 43q0 24 -14 44
t-34 37t-40 36.5t-34 52t-14 75.5q0 66 31.5 106t86.5 40q50 0 82.5 -38t40.5 -103zM555 514v-111h-59v-267q0 -38 32 -38q7 0 23 4l12 -89q-33 -21 -77 -21q-53 0 -77.5 35t-24.5 110v265l-36 12v99l41 3l29 126h78v-128h59zM153 607v-240h28q16 0 23 26t7 97q0 50 -3.5 76
t-9.5 33.5t-17 7.5h-28z" />
    <glyph glyph-name="Euro" unicode="&#x20ac;" horiz-adv-x="449" 
d="M242 735q73 0 122 -48t60 -128l-112 -35q-11 70 -59 70q-56 0 -56 -83v-44h158l-12 -81h-146v-23h142l-12 -81h-130v-82q0 -80 57 -80q24 0 37.5 18.5t20.5 62.5l113 -33q-26 -178 -185 -178q-88 0 -140 56.5t-52 152.5v83h-38v81h38v23h-38v81h38v43q0 105 52.5 165
t141.5 60z" />
    <glyph glyph-name="uni20B4" unicode="&#x20b4;" horiz-adv-x="417" 
d="M22 381v86h221q21 36 21 77q0 42 -13 60t-44 18q-30 0 -49 -18.5t-29 -63.5l-101 33q45 161 192 161q81 0 123 -50.5t42 -126.5q0 -50 -21 -90h33v-86h-103q-1 -1 -34 -31h137v-86h-213q-22 -39 -22 -90q0 -70 63 -70q60 0 80 86l93 -30q-37 -170 -185 -170
q-87 0 -129.5 47.5t-42.5 123.5q0 57 24 103h-43v86h110l33 31h-143z" />
    <glyph glyph-name="afii61248" unicode="&#x2105;" horiz-adv-x="747" 
d="M163 737q50 0 85.5 -30.5t44.5 -77.5l-82 -28q-9 38 -38 38q-36 0 -36 -47v-166q0 -45 36 -45q28 0 37 44l84 -28q-21 -107 -132 -107q-64 0 -101.5 36.5t-37.5 98.5v166q0 68 38 107t102 39zM724 288v-141q0 -71 -39.5 -112t-111.5 -41t-111 41t-39 112v141q0 71 39 112
t111 41t111.5 -41t39.5 -112zM611 147v141q0 32 -8.5 44t-29.5 12t-29 -12t-8 -43v-142q0 -33 8.5 -46t28.5 -13q21 0 29.5 13t8.5 46zM240 0h-80l332 725h81z" />
    <glyph glyph-name="afii61289" unicode="&#x2113;" horiz-adv-x="660" 
d="M153 223l-18 94q22 5 51 20q14 184 74.5 292.5t149.5 108.5q53 0 79.5 -32.5t26.5 -89.5q0 -79 -62.5 -166t-155.5 -152q-1 -16 -1 -50q0 -82 7 -110t26 -28q29 0 66 96l88 -26q-22 -85 -70.5 -138t-106.5 -53q-66 0 -95.5 56t-29.5 187v1q-5 -2 -29 -10zM395 627
q-25 0 -49.5 -54t-38.5 -150h2q104 99 104 176q0 28 -18 28z" />
    <glyph glyph-name="afii61352" unicode="&#x2116;" horiz-adv-x="746" 
d="M44 725h107l167 -360h2v360h129v-725h-99l-175 378h-2v-378h-129v725zM714 622v-114q0 -52 -29.5 -82.5t-83.5 -30.5q-53 0 -82.5 30.5t-29.5 82.5v114q0 51 29 82.5t83 31.5q56 0 84.5 -31t28.5 -83zM492 293v80h223v-80h-223zM576 619v-108q0 -40 24 -40q15 0 21 9
t6 32v107q0 23 -6 32t-20 9q-13 0 -19 -9t-6 -32z" />
    <glyph glyph-name="uni2117" unicode="&#x2117;" horiz-adv-x="630" 
d="M597 448v-176q0 -125 -74 -206.5t-208 -81.5q-135 0 -209 81.5t-74 206.5v176q0 126 74 208t209 82q134 0 208 -82t74 -208zM512 272v177q0 94 -51 150t-146 56t-146 -56t-51 -150v-177q0 -93 51 -149t146 -56t146 56t51 149zM333 601q68 0 105 -40t37 -115t-35.5 -114.5
t-101.5 -39.5h-43v-164h-110v473h148zM295 512v-137h36q19 0 27 15.5t8 54.5q0 38 -8 52.5t-27 14.5h-36z" />
    <glyph glyph-name="uni2120" unicode="&#x2120;" horiz-adv-x="496" 
d="M400 725h73v-325h-69v151h-2l-34 -113h-34l-33 113h-2v-151h-70v325h73l48 -169h2zM209 645l-58 -16q-10 40 -32 40q-20 0 -20 -20q0 -16 17 -31.5t37.5 -27.5t37.5 -37.5t17 -60.5q0 -42 -26.5 -69.5t-67.5 -27.5q-77 0 -96 88l59 18q12 -44 35 -44q19 0 19 26
q0 18 -17 33.5t-37.5 26t-37.5 35.5t-17 61q0 41 25.5 67.5t69.5 26.5q36 0 60.5 -24t31.5 -64z" />
    <glyph glyph-name="trademark" unicode="&#x2122;" horiz-adv-x="461" 
d="M366 725h73v-325h-70v151h-2l-33 -113h-35l-33 113h-2v-151h-69v325h73l47 -169h2zM8 725h166v-71h-44v-254h-78v254h-44v71z" />
    <glyph glyph-name="Omega" unicode="&#x2126;" horiz-adv-x="473" 
d="M236 735q208 0 208 -215v-145q0 -129 -90 -170v-76h86v-129h-189v287q24 5 35 23.5t11 60.5v145q0 47 -14.5 67t-46.5 20t-46 -20t-14 -67v-145q0 -75 45 -84v-287h-188v129h86v76q-90 39 -90 170v145q0 215 207 215z" />
    <glyph glyph-name="estimated" unicode="&#x212e;" horiz-adv-x="716" 
d="M693 333h-527v-95q0 -80 59 -132.5t155 -52.5q143 0 224 116l59 -41q-47 -66 -123 -103.5t-166 -37.5q-154 0 -252.5 96.5t-98.5 242.5q0 145 94 242.5t241 97.5q150 0 235.5 -92.5t99.5 -240.5zM166 425v-28h386v29q0 77 -50.5 125t-141.5 48q-90 0 -142 -47.5
t-52 -126.5z" />
    <glyph glyph-name="uni2150" unicode="&#x2150;" horiz-adv-x="460" 
d="M90 727h66v-321h-83v207h-57v56h23q26 0 35.5 11t15.5 47zM87 0h-82l333 725h81zM357 0h-87l99 248h-113v71h194v-63z" />
    <glyph glyph-name="uni2151" unicode="&#x2151;" horiz-adv-x="473" 
d="M90 727h66v-321h-83v207h-57v56h23q26 0 35.5 11t15.5 47zM87 0h-82l333 725h81zM258 70l51 26q13 -35 39 -35q19 0 26.5 10t7.5 33v30h-2q-16 -12 -43 -12q-35 0 -58 23t-23 71q0 52 26.5 79.5t75.5 27.5t74 -29.5t25 -77.5v-110q0 -52 -27.5 -81t-76.5 -29
q-74 0 -95 74zM355 183q24 0 27 19v26q0 31 -25 31q-15 0 -21 -7.5t-6 -29.5q0 -24 5.5 -31.5t19.5 -7.5z" />
    <glyph glyph-name="uni2152" unicode="&#x2152;" horiz-adv-x="663" 
d="M90 727h66v-321h-83v207h-57v56h23q26 0 35.5 11t15.5 47zM87 0h-82l333 725h81zM334 321h66v-321h-83v207h-57v56h23q26 0 35.5 11t15.5 47zM649 211v-103q0 -53 -26 -82.5t-75 -29.5q-48 0 -74 30t-26 82v103q0 52 26 82t74 30q49 0 75 -29.5t26 -82.5zM525 209v-101
q0 -26 5 -35.5t18 -9.5t18.5 9.5t5.5 35.5v101q0 24 -5.5 32.5t-18.5 8.5t-18 -8.5t-5 -32.5z" />
    <glyph glyph-name="onethird" unicode="&#x2153;" horiz-adv-x="514" 
d="M124 727h66v-321h-83v207h-57v56h23q26 0 35.5 11t15.5 47zM133 0h-82l333 725h81zM356 132v59h23q29 0 29 34q0 32 -22 32q-15 0 -23 -7.5t-12 -27.5l-59 20q8 38 34.5 59.5t66.5 21.5q47 0 71.5 -25t24.5 -62q0 -54 -37 -70v-2q41 -14 41 -70q0 -49 -27 -73.5
t-75 -24.5q-84 0 -101 78l58 21q10 -35 37 -35q26 0 26 39q0 18 -7 25.5t-22 7.5h-26z" />
    <glyph glyph-name="twothirds" unicode="&#x2154;" horiz-adv-x="514" 
d="M121 729q48 0 71.5 -25t23.5 -64q0 -32 -15.5 -58.5t-34.5 -41t-38 -33.5t-24 -36h110v-65h-193l-1 33q1 34 20 66t40.5 51t39 40.5t17.5 39.5q0 26 -23 26q-27 0 -36 -44l-61 20q10 42 36.5 66.5t67.5 24.5zM133 0h-82l333 725h81zM356 132v59h23q29 0 29 34
q0 32 -22 32q-15 0 -23 -7.5t-12 -27.5l-59 20q8 38 34.5 59.5t66.5 21.5q47 0 71.5 -25t24.5 -62q0 -54 -37 -70v-2q41 -14 41 -70q0 -49 -27 -73.5t-75 -24.5q-84 0 -101 78l58 21q10 -35 37 -35q26 0 26 39q0 18 -7 25.5t-22 7.5h-26z" />
    <glyph glyph-name="uni2155" unicode="&#x2155;" horiz-adv-x="514" 
d="M124 727h66v-321h-83v207h-57v56h23q26 0 35.5 11t15.5 47zM133 0h-82l333 725h81zM351 130l-50 24l10 165h172l-5 -68h-103l-3 -53q19 8 39 8q81 0 81 -98q0 -57 -25 -84.5t-79 -27.5q-82 0 -98 78l59 20q10 -33 35 -33q16 0 21 10t5 37q0 33 -30 33q-16 0 -29 -11z" />
    <glyph glyph-name="uni2156" unicode="&#x2156;" horiz-adv-x="514" 
d="M121 729q48 0 71.5 -25t23.5 -64q0 -32 -15.5 -58.5t-34.5 -41t-38 -33.5t-24 -36h110v-65h-193l-1 33q1 34 20 66t40.5 51t39 40.5t17.5 39.5q0 26 -23 26q-27 0 -36 -44l-61 20q10 42 36.5 66.5t67.5 24.5zM133 0h-82l333 725h81zM351 130l-50 24l10 165h172l-5 -68
h-103l-3 -53q19 8 39 8q81 0 81 -98q0 -57 -25 -84.5t-79 -27.5q-82 0 -98 78l59 20q10 -33 35 -33q16 0 21 10t5 37q0 33 -30 33q-16 0 -29 -11z" />
    <glyph glyph-name="uni2157" unicode="&#x2157;" horiz-adv-x="514" 
d="M81 538v59h23q29 0 29 34q0 32 -22 32q-15 0 -23 -7.5t-12 -27.5l-59 20q8 38 34.5 59.5t66.5 21.5q47 0 71.5 -25t24.5 -62q0 -54 -37 -70v-2q41 -14 41 -70q0 -49 -27 -73.5t-75 -24.5q-84 0 -101 78l58 21q10 -35 37 -35q26 0 26 39q0 18 -7 25.5t-22 7.5h-26zM133 0
h-82l333 725h81zM351 130l-50 24l10 165h172l-5 -68h-103l-3 -53q19 8 39 8q81 0 81 -98q0 -57 -25 -84.5t-79 -27.5q-82 0 -98 78l59 20q10 -33 35 -33q16 0 21 10t5 37q0 33 -30 33q-16 0 -29 -11z" />
    <glyph glyph-name="uni2158" unicode="&#x2158;" horiz-adv-x="514" 
d="M196 406h-70v55h-124v54l116 210h78v-201h26l-4 -63h-22v-55zM77 524h50l4 112h-2zM133 0h-82l333 725h81zM351 130l-50 24l10 165h172l-5 -68h-103l-3 -53q19 8 39 8q81 0 81 -98q0 -57 -25 -84.5t-79 -27.5q-82 0 -98 78l59 20q10 -33 35 -33q16 0 21 10t5 37
q0 33 -30 33q-16 0 -29 -11z" />
    <glyph glyph-name="uni2159" unicode="&#x2159;" horiz-adv-x="514" 
d="M124 727h66v-321h-83v207h-57v56h23q26 0 35.5 11t15.5 47zM133 0h-82l333 725h81zM399 323q74 0 93 -77l-55 -22q-8 32 -33 32q-36 0 -36 -42v-25h2q18 15 47 15q78 0 78 -94q0 -114 -100 -114t-100 112v98q0 51 29 84t75 33zM397 140q-27 0 -29 -16v-26q0 -34 28 -34
q15 0 20 9t5 35q0 18 -5.5 25t-18.5 7z" />
    <glyph glyph-name="uni215A" unicode="&#x215a;" horiz-adv-x="514" 
d="M76 536l-50 24l10 165h172l-5 -68h-103l-3 -53q19 8 39 8q81 0 81 -98q0 -57 -25 -84.5t-79 -27.5q-82 0 -98 78l59 20q10 -33 35 -33q16 0 21 10t5 37q0 33 -30 33q-16 0 -29 -11zM133 0h-82l333 725h81zM399 323q74 0 93 -77l-55 -22q-8 32 -33 32q-36 0 -36 -42v-25h2
q18 15 47 15q78 0 78 -94q0 -114 -100 -114t-100 112v98q0 51 29 84t75 33zM397 140q-27 0 -29 -16v-26q0 -34 28 -34q15 0 20 9t5 35q0 18 -5.5 25t-18.5 7z" />
    <glyph glyph-name="oneeighth" unicode="&#x215b;" horiz-adv-x="514" 
d="M124 727h66v-321h-83v207h-57v56h23q26 0 35.5 11t15.5 47zM133 0h-82l333 725h81zM395 -4q-104 0 -104 101q0 53 39 69v2q-31 16 -31 68q0 87 96 87q94 0 94 -87q0 -51 -31 -68v-2q39 -16 39 -69q0 -101 -102 -101zM420 99q0 21 -5.5 27.5t-19.5 6.5q-16 0 -21.5 -6.5
t-5.5 -27.5q0 -24 6.5 -32t20.5 -8t19.5 8t5.5 32zM395 260q-14 0 -19 -6.5t-5 -26.5q0 -22 5 -29t19 -7q13 0 18 7t5 29q0 20 -5 26.5t-18 6.5z" />
    <glyph glyph-name="threeeighths" unicode="&#x215c;" horiz-adv-x="514" 
d="M81 538v59h23q29 0 29 34q0 32 -22 32q-15 0 -23 -7.5t-12 -27.5l-59 20q8 38 34.5 59.5t66.5 21.5q47 0 71.5 -25t24.5 -62q0 -54 -37 -70v-2q41 -14 41 -70q0 -49 -27 -73.5t-75 -24.5q-84 0 -101 78l58 21q10 -35 37 -35q26 0 26 39q0 18 -7 25.5t-22 7.5h-26zM133 0
h-82l333 725h81zM395 -4q-104 0 -104 101q0 53 39 69v2q-31 16 -31 68q0 87 96 87q94 0 94 -87q0 -51 -31 -68v-2q39 -16 39 -69q0 -101 -102 -101zM420 99q0 21 -5.5 27.5t-19.5 6.5q-16 0 -21.5 -6.5t-5.5 -27.5q0 -24 6.5 -32t20.5 -8t19.5 8t5.5 32zM395 260
q-14 0 -19 -6.5t-5 -26.5q0 -22 5 -29t19 -7q13 0 18 7t5 29q0 20 -5 26.5t-18 6.5z" />
    <glyph glyph-name="fiveeighths" unicode="&#x215d;" horiz-adv-x="514" 
d="M76 536l-50 24l10 165h172l-5 -68h-103l-3 -53q19 8 39 8q81 0 81 -98q0 -57 -25 -84.5t-79 -27.5q-82 0 -98 78l59 20q10 -33 35 -33q16 0 21 10t5 37q0 33 -30 33q-16 0 -29 -11zM133 0h-82l333 725h81zM395 -4q-104 0 -104 101q0 53 39 69v2q-31 16 -31 68q0 87 96 87
q94 0 94 -87q0 -51 -31 -68v-2q39 -16 39 -69q0 -101 -102 -101zM420 99q0 21 -5.5 27.5t-19.5 6.5q-16 0 -21.5 -6.5t-5.5 -27.5q0 -24 6.5 -32t20.5 -8t19.5 8t5.5 32zM395 260q-14 0 -19 -6.5t-5 -26.5q0 -22 5 -29t19 -7q13 0 18 7t5 29q0 20 -5 26.5t-18 6.5z" />
    <glyph glyph-name="seveneighths" unicode="&#x215e;" horiz-adv-x="514" 
d="M167 406h-87l99 248h-113v71h194v-63zM133 0h-82l333 725h81zM395 -4q-104 0 -104 101q0 53 39 69v2q-31 16 -31 68q0 87 96 87q94 0 94 -87q0 -51 -31 -68v-2q39 -16 39 -69q0 -101 -102 -101zM420 99q0 21 -5.5 27.5t-19.5 6.5q-16 0 -21.5 -6.5t-5.5 -27.5
q0 -24 6.5 -32t20.5 -8t19.5 8t5.5 32zM395 260q-14 0 -19 -6.5t-5 -26.5q0 -22 5 -29t19 -7q13 0 18 7t5 29q0 20 -5 26.5t-18 6.5z" />
    <glyph glyph-name="uni215F" unicode="&#x215f;" horiz-adv-x="514" 
d="M124 727h66v-321h-83v207h-57v56h23q26 0 35.5 11t15.5 47zM133 0h-82l333 725h81z" />
    <glyph glyph-name="uni2189" unicode="&#x2189;" horiz-adv-x="512" 
d="M215 617v-103q0 -53 -26 -82.5t-75 -29.5q-48 0 -74 30t-26 82v103q0 52 26 82t74 30q49 0 75 -29.5t26 -82.5zM91 615v-101q0 -26 5 -35.5t18 -9.5t18.5 9.5t5.5 35.5v101q0 24 -5.5 32.5t-18.5 8.5t-18 -8.5t-5 -32.5zM126 0h-82l333 725h81zM359 132v59h23q29 0 29 34
q0 32 -22 32q-15 0 -23 -7.5t-12 -27.5l-59 20q8 38 34.5 59.5t66.5 21.5q47 0 71.5 -25t24.5 -62q0 -54 -37 -70v-2q41 -14 41 -70q0 -49 -27 -73.5t-75 -24.5q-84 0 -101 78l58 21q10 -35 37 -35q26 0 26 39q0 18 -7 25.5t-22 7.5h-26z" />
    <glyph glyph-name="partialdiff" unicode="&#x2202;" horiz-adv-x="405" 
d="M207 524q46 0 74 -23h2q0 66 -30 105t-99 51l38 97q113 -17 159.5 -83.5t46.5 -171.5q0 -49 -10 -116l-28 -188q-14 -93 -68.5 -149t-141.5 -56q-74 0 -111 40t-37 107q0 14 4 44l24 155q13 85 59 136.5t118 51.5zM224 181l23 150q4 30 4 38q0 22 -7.5 31t-24.5 9
q-23 0 -36 -17t-20 -61l-24 -150q-4 -21 -4 -39q0 -41 33 -41q44 0 56 80z" />
    <glyph glyph-name="Delta" unicode="&#x2206;" horiz-adv-x="484" 
d="M3 0l175 725h131l172 -725h-478zM242 511l-72 -385h141l-67 385h-2z" />
    <glyph glyph-name="product" unicode="&#x220f;" horiz-adv-x="488" 
d="M14 725h460v-135h-49v-641h-133v642h-98v-642h-131v641h-49v135z" />
    <glyph glyph-name="summation" unicode="&#x2211;" horiz-adv-x="434" 
d="M23 725h391v-136h-206l122 -239l-125 -267h215v-134h-397v68l161 333l-161 298v77z" />
    <glyph glyph-name="minus" unicode="&#x2212;" horiz-adv-x="375" 
d="M342 253h-310v107h310v-107z" />
    <glyph glyph-name="uni2215" unicode="&#x2215;" horiz-adv-x="245" 
d="M29 0h-82l333 725h81z" />
    <glyph glyph-name="uni2219" unicode="&#x2219;" 
d="M104 310q0 52 31 87t77 35t77 -35t31 -87q0 -51 -31 -86t-77 -35t-77 35t-31 86z" />
    <glyph glyph-name="radical" unicode="&#x221a;" horiz-adv-x="496" 
d="M500 746l-167 -746h-160l-101 391l-63 17v105h191l52 -308h2l88 541h158z" />
    <glyph glyph-name="infinity" unicode="&#x221e;" horiz-adv-x="494" 
d="M468 280q0 -80 -31.5 -121t-77.5 -41q-62 0 -112 74q-52 -74 -113 -74q-45 0 -77 41t-32 121q0 79 32 120t77 41q60 0 113 -74q51 74 112 74q46 0 77.5 -41t31.5 -120zM199 280q-17 31 -28 43t-23 12q-28 0 -28 -55q0 -56 28 -56q12 0 22.5 12.5t28.5 43.5zM295 280
q17 -31 27.5 -43t22.5 -12q29 0 29 55t-29 55q-12 0 -22.5 -12t-27.5 -43z" />
    <glyph glyph-name="integral" unicode="&#x222b;" horiz-adv-x="203" 
d="M216 862l8 -109q-27 -4 -38.5 -22t-11.5 -62v-634q0 -187 -177 -194l-8 108q27 4 39 22t12 62v634q0 94 43.5 142t132.5 53z" />
    <glyph glyph-name="approxequal" unicode="&#x2248;" horiz-adv-x="375" 
d="M329 435v-105q-41 -23 -78 -23q-27 0 -71.5 16.5t-67.5 16.5q-32 0 -66 -23v105q39 23 77 23q29 0 76.5 -17.5t68.5 -17.5q32 0 61 25zM329 274v-105q-41 -23 -78 -23q-27 0 -71.5 16.5t-67.5 16.5q-32 0 -66 -23v106q38 22 77 22q30 0 77 -17.5t68 -17.5q32 0 61 25z
" />
    <glyph glyph-name="notequal" unicode="&#x2260;" horiz-adv-x="375" 
d="M294 494l-22 -62h57v-107h-95l-19 -53h114v-107h-152l-31 -87l-65 24l22 63h-57v107h95l19 53h-114v107h152l31 88z" />
    <glyph glyph-name="lessequal" unicode="&#x2264;" horiz-adv-x="375" 
d="M326 401l-109 -66l110 -63v-140l-293 198v11l292 202v-142zM36 23v100h291v-100h-291z" />
    <glyph glyph-name="greaterequal" unicode="&#x2265;" horiz-adv-x="375" 
d="M48 272l109 63l-109 66v142l292 -202v-11l-292 -198v140zM339 123v-100h-291v100h291z" />
    <glyph glyph-name="dotmath" unicode="&#x22c5;" 
d="M135 323q0 35 22.5 61t53.5 26q32 0 55 -26t23 -61q0 -36 -23 -61.5t-55 -25.5q-31 0 -53.5 25.5t-22.5 61.5z" />
    <glyph glyph-name="lozenge" unicode="&#x25ca;" horiz-adv-x="366" 
d="M26 303l157 270l158 -270l-158 -270zM130 303l53 -91l53 91l-53 91z" />
    <glyph glyph-name="uni2E18" unicode="&#x2e18;" horiz-adv-x="475" 
d="M465 79q-19 -84 -80 -136.5t-150 -52.5q-106 0 -161 53t-55 135q0 150 167 242l5 84h101l7 -196v-191h2q35 24 52 90zM310 629v-149h-134v149h134zM149 85q0 -62 42 -77v189h-2q-40 -48 -40 -112z" />
    <glyph glyph-name="uniFB00" unicode="&#xfb00;" horiz-adv-x="478" 
d="M470 512v-107h-68v-405h-133v405h-90v-405h-133v405h-39v107h39v37q0 81 47 130t148 50l7 -103q-41 -2 -57.5 -21t-16.5 -59v-34h95v37q0 81 47 130t148 50l7 -103q-41 -2 -57.5 -21t-16.5 -59v-34h73z" />
    <glyph glyph-name="fi" unicode="&#xfb01;" horiz-adv-x="441" 
d="M241 729l7 -103q-41 -2 -57.5 -21t-16.5 -59v-34h228v-512h-134v405h-89v-405h-133v405h-39v107h39v37q0 81 47 130t148 50zM282 724h114v-137h-114v137z" />
    <glyph glyph-name="fl" unicode="&#xfb02;" horiz-adv-x="452" 
d="M236 512v-109h-57v-403h-133v403h-39v109h39v37q0 81 49 130.5t156 49.5h26v17h133v-746h-133v626h-25q-42 -1 -60 -19.5t-18 -60.5v-34h62z" />
    <glyph glyph-name="uniFB03" unicode="&#xfb03;" horiz-adv-x="663" 
d="M463 729l7 -103q-41 -2 -57.5 -21t-16.5 -59v-34h228v-512h-134v405h-89v-405h-133v405h-89v-405h-133v405h-39v107h39v37q0 81 47 130t148 50l7 -103q-41 -2 -57.5 -21t-16.5 -59v-34h94v37q0 81 47 130t148 50zM504 724h114v-137h-114v137z" />
    <glyph glyph-name="uniFB04" unicode="&#xfb04;" horiz-adv-x="674" 
d="M268 512v37q0 81 49 130.5t156 49.5h27v17h133v-746h-133v626h-25q-43 -1 -61 -19.5t-18 -60.5v-34h62v-107h-56v-405h-134v405h-89v-405h-133v405h-39v107h39v37q0 81 47 130t148 50l7 -103q-41 -2 -57.5 -21t-16.5 -59v-34h94z" />
    <glyph glyph-name="caron.alt001" horiz-adv-x="227" 
d="M79 725h107l-53 -145h-73z" />
    <glyph glyph-name="ogonek.alt001" horiz-adv-x="227" 
d="M118 16l49 -16q-21 0 -32 -15t-11 -34q0 -32 29 -32q18 0 36 12l23 -72q-35 -28 -90 -28q-51 0 -76 21t-25 57t25.5 64t71.5 43z" />
    <glyph glyph-name="i.latn_TRK" horiz-adv-x="213" 
d="M40 513h133v-513h-133v513zM46 724h121v-137h-121v137z" />
    <glyph glyph-name="Ldot.latn_CAT" horiz-adv-x="378" 
d="M257 444h104v-114h-104v114zM44 725h143v-587h178v-138h-321v725z" />
    <glyph glyph-name="ldot.latn_CAT" horiz-adv-x="260" 
d="M203 457h68v-159h-68v159zM42 746h133v-746h-133v746z" />
    <glyph glyph-name="afii10066.cyrl_SRB" horiz-adv-x="398" 
d="M375 358v-187q0 -80 -45.5 -130.5t-130.5 -50.5t-130.5 49.5t-45.5 127.5v174q0 98 74 139q-48 34 -48 104q0 135 180 146l108 7l11 -116q-25 -6 -82 -6q-54 0 -70.5 -7t-16.5 -23q0 -12 14.5 -22.5t36.5 -19.5t47 -24t47 -34t36.5 -52t14.5 -75zM241 350q0 51 -46 81
q-38 -26 -38 -77v-182q0 -72 42 -72t42 72v178z" />
    <glyph glyph-name="numbersign.subs" horiz-adv-x="246" 
d="M19 74v52h36l6 82h54l-6 -82h34l6 82h54l-6 -82h31v-52h-32l-3 -55h35v-51h-37l-6 -83h-54l6 83h-33l-6 -83h-55l6 83h-30v51h31l3 55h-34zM108 74l-3 -55h34l3 55h-34z" />
    <glyph glyph-name="dollar.subs" horiz-adv-x="235" 
d="M107 253h44l1 -52q48 -17 64 -73l-52 -18q-6 19 -16 27h-2l-5 -61q36 -17 56.5 -38.5t20.5 -58.5q0 -40 -21.5 -65.5t-59.5 -31.5l-7 -44h-45l-1 46q-56 12 -73 78l55 19q7 -22 22 -31l6 64q-24 11 -38.5 21t-28 31t-13.5 49q0 37 23 62.5t63 29.5zM154 -34q0 14 -16 26
h-2v-48q18 4 18 22zM82 124q0 -13 15 -25h2v45q-17 -4 -17 -20z" />
    <glyph glyph-name="comma.subs" horiz-adv-x="124" 
d="M24 -112v84h76v-68q0 -96 -75 -101l-3 42q17 2 23.5 11t7.5 32h-29z" />
    <glyph glyph-name="period.subs" horiz-adv-x="124" 
d="M24 -115v87h76v-87h-76z" />
    <glyph glyph-name="n.subs" horiz-adv-x="238" 
d="M22 -115v254h72l2 -20h2q25 25 55 25q32 0 48.5 -24t16.5 -62v-173h-77v168q0 25 -18 25q-13 0 -22 -14v-179h-79z" />
    <glyph glyph-name="cent.subs" horiz-adv-x="211" 
d="M207 127l-56 -18q-7 34 -29 34q-15 0 -22 -10t-7 -38v-103q0 -53 28 -53q23 0 30 39l57 -19q-17 -63 -66 -75l-7 -46h-45l-2 46q-72 15 -72 105v109q0 43 19.5 72t55.5 36l9 47h46l1 -51q45 -17 60 -75z" />
    <glyph glyph-name="sterling.subs" horiz-adv-x="257" 
d="M26 25l-7 54h24q-3 18 -3 34q0 45 26.5 73t73.5 28q39 0 64 -21.5t32 -56.5l-59 -22q-7 31 -32 31t-25 -42q0 -15 1 -24h76l-6 -54h-64q4 -30 4 -42q7 -4 21.5 -16.5t23.5 -12.5q18 0 21 32l58 -16q-13 -90 -73 -90q-31 0 -64 39q-17 -39 -61 -39q-24 0 -38.5 14
t-14.5 38t16 39.5t45 19.5q-4 17 -9 34h-30zM64 -67q7 0 7 18q-11 -4 -11 -13q0 -5 4 -5z" />
    <glyph glyph-name="currency.subs" horiz-adv-x="177" 
d="M26 50q0 16 8 32l-18 19l25 27l19 -20q11 7 28 7q16 0 30 -8l21 23l25 -28l-20 -22q7 -16 7 -30q0 -17 -8 -33l19 -19l-25 -27l-20 20q-16 -7 -29 -7t-29 7l-19 -22l-26 27l19 21q-7 14 -7 33zM70 49q0 -21 19 -21t19 21t-19 21t-19 -21z" />
    <glyph glyph-name="yen.subs" horiz-adv-x="269" 
d="M220 -70h-42v-45h-86v45h-43v49h43v14h-43v50h27l-76 165h96l38 -135h2l37 135h97l-77 -165h27v-50h-42v-14h42v-49z" />
    <glyph glyph-name="franc.subs" horiz-adv-x="227" 
d="M1 -79v50h23v237h192v-73h-105v-56h89v-67h-89v-41h33v-50h-33v-36h-87v36h-23z" />
    <glyph glyph-name="lira.subs" horiz-adv-x="257" 
d="M26 49l-7 40h22q-1 8 -1 24q0 45 26.5 73t73.5 28q39 0 64 -21.5t32 -56.5l-59 -22q-7 31 -32 31t-25 -42v-14h84l-7 -40h-73l2 -10h69l-5 -38h-61q1 -9 1 -25q7 -3 22 -12.5t24 -9.5q18 0 21 32l58 -16q-13 -90 -73 -90q-33 0 -64 37q-19 -37 -61 -37q-24 0 -38.5 12.5
t-14.5 34.5q0 52 64 55q-1 4 -5 19h-30l-5 38h24l-2 10h-24zM63 -71q7 0 8 18q-12 -2 -12 -13q0 -5 4 -5z" />
    <glyph glyph-name="peseta.subs" horiz-adv-x="436" 
d="M100 208q79 0 79 -108q0 -52 -19.5 -79t-55.5 -27h-19v-109h-71v323h86zM431 57l-44 -16q-6 24 -16 24q-7 0 -7 -12q0 -9 10.5 -19t23 -18t23 -25.5t10.5 -39.5q0 -33 -17 -52t-47 -19q-57 0 -67 65l45 15q5 -29 19 -29q8 0 8 15q0 11 -10.5 21t-23.5 17.5t-23.5 25
t-10.5 41.5q0 31 16.5 50t45.5 19q26 0 43 -17t22 -46zM294 115v-56h-28v-108q0 -16 15 -16q1 0 4.5 0.5t5.5 0.5l6 -45q-17 -10 -40 -10q-30 0 -42.5 17.5t-12.5 55.5v104l-17 6v51l20 1l16 57h45v-58h28zM85 147v-97h13q11 0 11 50q0 29 -2.5 38t-8.5 9h-13z" />
    <glyph glyph-name="Euro.subs" horiz-adv-x="247" 
d="M132 213q39 0 66.5 -22.5t35.5 -57.5l-64 -22q-6 28 -30 28q-29 0 -29 -37v-9h87l-7 -39h-80v-8h78l-6 -39h-72v-23q0 -35 29 -35q23 0 30 32l64 -21q-17 -80 -103 -80q-50 0 -79 28t-29 76v23h-18v39h18v8h-18v39h18v9q0 52 30 81.5t79 29.5z" />
    <glyph glyph-name="numbersign.sups" horiz-adv-x="246" 
d="M19 660v52h36l6 82h54l-6 -82h34l6 82h54l-6 -82h31v-52h-32l-3 -55h35v-51h-37l-6 -83h-54l6 83h-33l-6 -83h-55l6 83h-30v51h31l3 55h-34zM108 660l-3 -55h34l3 55h-34z" />
    <glyph glyph-name="dollar.sups" horiz-adv-x="235" 
d="M107 839h44l1 -52q48 -17 64 -73l-52 -18q-6 19 -16 27h-2l-5 -61q36 -17 56.5 -38.5t20.5 -58.5q0 -40 -21.5 -65.5t-59.5 -31.5l-7 -44h-45l-1 45q-56 14 -73 79l55 19q7 -22 22 -31l6 64q-24 11 -38.5 21t-28 31t-13.5 49q0 37 23 62.5t63 29.5zM154 552q0 14 -16 26
h-2v-48q18 4 18 22zM82 710q0 -13 15 -25h2v45q-17 -4 -17 -20z" />
    <glyph glyph-name="comma.sups" horiz-adv-x="124" 
d="M24 474v84h76v-68q0 -96 -75 -101l-3 42q17 2 23.5 11t7.5 32h-29z" />
    <glyph glyph-name="period.sups" horiz-adv-x="124" 
d="M24 471v87h76v-87h-76z" />
    <glyph glyph-name="cent.sups" horiz-adv-x="211" 
d="M207 713l-56 -18q-7 34 -29 34q-15 0 -22 -10t-7 -38v-103q0 -53 28 -53q23 0 30 39l57 -19q-17 -63 -66 -75l-7 -46h-45l-2 45q-36 8 -54 36.5t-18 69.5v109q0 43 19.5 72t55.5 36l9 47h46l1 -51q45 -17 60 -75z" />
    <glyph glyph-name="sterling.sups" horiz-adv-x="257" 
d="M26 611l-7 54h24q-3 18 -3 34q0 45 26.5 73t73.5 28q39 0 64 -21.5t32 -56.5l-59 -22q-7 31 -32 31t-25 -42q0 -15 1 -24h76l-6 -54h-64q4 -30 4 -42q7 -4 21.5 -16.5t23.5 -12.5q18 0 21 32l58 -16q-13 -90 -73 -90q-31 0 -64 39q-17 -39 -61 -39q-24 0 -38.5 14
t-14.5 38t16 39.5t45 19.5q-4 17 -9 34h-30zM64 519q7 0 7 18q-11 -4 -11 -13q0 -5 4 -5z" />
    <glyph glyph-name="currency.sups" horiz-adv-x="177" 
d="M26 636q0 16 8 32l-18 19l25 27l19 -20q11 7 28 7q16 0 30 -8l21 23l25 -28l-20 -22q7 -16 7 -30q0 -17 -8 -33l19 -19l-25 -27l-20 20q-16 -7 -29 -7t-29 7l-19 -22l-26 27l19 21q-7 14 -7 33zM70 635q0 -21 19 -21t19 21t-19 21t-19 -21z" />
    <glyph glyph-name="yen.sups" horiz-adv-x="269" 
d="M220 516h-42v-45h-86v45h-43v49h43v14h-43v50h27l-76 165h96l38 -135h2l37 135h97l-77 -165h27v-50h-42v-14h42v-49z" />
    <glyph glyph-name="franc.sups" horiz-adv-x="227" 
d="M1 507v50h23v237h192v-73h-105v-56h89v-67h-89v-41h33v-50h-33v-36h-87v36h-23z" />
    <glyph glyph-name="lira.sups" horiz-adv-x="257" 
d="M26 635l-7 40h22q-1 8 -1 24q0 45 26.5 73t73.5 28q39 0 64 -21.5t32 -56.5l-59 -22q-7 31 -32 31t-25 -42v-14h84l-7 -40h-73l2 -10h69l-5 -38h-61q1 -9 1 -25q7 -3 22 -12.5t24 -9.5q18 0 21 32l58 -16q-13 -90 -73 -90q-33 0 -64 37q-19 -37 -61 -37q-24 0 -38.5 12.5
t-14.5 34.5q0 52 64 55q-1 4 -5 19h-30l-5 38h24l-2 10h-24zM63 515q7 0 8 18q-12 -2 -12 -13q0 -5 4 -5z" />
    <glyph glyph-name="peseta.sups" horiz-adv-x="436" 
d="M100 794q79 0 79 -108q0 -52 -19.5 -79t-55.5 -27h-19v-109h-71v323h86zM431 643l-44 -16q-6 24 -16 24q-7 0 -7 -12q0 -9 10.5 -19t23 -18t23 -25.5t10.5 -39.5q0 -33 -17 -52t-47 -19q-57 0 -67 65l45 15q5 -29 19 -29q8 0 8 15q0 11 -10.5 21t-23.5 17.5t-23.5 25
t-10.5 41.5q0 31 16.5 50t45.5 19q26 0 43 -17t22 -46zM294 701v-56h-28v-108q0 -16 15 -16q1 0 4.5 0.5t5.5 0.5l6 -45q-17 -10 -40 -10q-30 0 -42.5 17.5t-12.5 55.5v104l-17 6v51l20 1l16 57h45v-58h28zM85 733v-97h13q11 0 11 50q0 29 -2.5 38t-8.5 9h-13z" />
    <glyph glyph-name="Euro.sups" horiz-adv-x="247" 
d="M132 799q39 0 66.5 -22.5t35.5 -57.5l-64 -22q-6 28 -30 28q-29 0 -29 -37v-9h87l-7 -39h-80v-8h78l-6 -39h-72v-23q0 -35 29 -35q23 0 30 32l64 -21q-17 -80 -103 -80q-50 0 -79 28t-29 76v23h-18v39h18v8h-18v39h18v9q0 52 30 81.5t79 29.5z" />
    <glyph glyph-name="numbersign.numr" horiz-adv-x="246" 
d="M19 595v52h36l6 82h54l-6 -82h34l6 82h54l-6 -82h31v-52h-32l-3 -55h35v-51h-37l-6 -83h-54l6 83h-33l-6 -83h-55l6 83h-30v51h31l3 55h-34zM108 595l-3 -55h34l3 55h-34z" />
    <glyph glyph-name="dollar.numr" horiz-adv-x="235" 
d="M107 774h44l1 -52q48 -17 64 -73l-52 -18q-6 19 -16 27h-2l-5 -61q36 -17 56.5 -38.5t20.5 -58.5q0 -40 -21.5 -65.5t-59.5 -31.5l-7 -44h-45l-1 45q-56 14 -73 79l55 19q7 -22 22 -31l6 64q-24 11 -38.5 21t-28 31t-13.5 49q0 37 23 62.5t63 29.5zM154 487q0 14 -16 26
h-2v-48q18 5 18 22zM82 645q0 -13 15 -25h2v45q-17 -4 -17 -20z" />
    <glyph glyph-name="parenleft.numr" horiz-adv-x="130" 
d="M21 479v163q0 68 23 100t75 32h12v-53h-12q-36 0 -36 -79v-163q0 -79 36 -79h12v-53h-12q-52 0 -75 31.5t-23 100.5z" />
    <glyph glyph-name="parenright.numr" horiz-adv-x="130" 
d="M109 642v-163q0 -69 -22.5 -100.5t-75.5 -31.5h-12v53h12q35 0 35 79v163q0 79 -35 79h-12v53h12q53 0 75.5 -32t22.5 -100z" />
    <glyph glyph-name="plus.numr" horiz-adv-x="196" 
d="M71 463v67h-54v55h54v68h54v-68h54v-55h-54v-67h-54z" />
    <glyph glyph-name="comma.numr" horiz-adv-x="124" 
d="M24 409v84h76v-68q0 -96 -75 -101l-3 42q17 2 23.5 11t7.5 32h-29z" />
    <glyph glyph-name="period.numr" horiz-adv-x="124" 
d="M24 406v87h76v-87h-76z" />
    <glyph glyph-name="zero.numr" horiz-adv-x="229" 
d="M215 617v-103q0 -53 -26 -82.5t-75 -29.5q-48 0 -74 30t-26 82v103q0 52 26 82t74 30q49 0 75 -29.5t26 -82.5zM91 615v-101q0 -26 5 -35.5t18 -9.5t18.5 9.5t5.5 35.5v101q0 24 -5.5 32.5t-18.5 8.5t-18 -8.5t-5 -32.5z" />
    <glyph glyph-name="one.numr" horiz-adv-x="190" 
d="M90 727h66v-321h-83v207h-57v56h23q26 0 35.5 11t15.5 47z" />
    <glyph glyph-name="two.numr" horiz-adv-x="229" 
d="M116 729q48 0 71.5 -25t23.5 -64q0 -32 -15.5 -58.5t-34.5 -41t-38 -33.5t-24 -36h110v-65h-193l-1 33q1 34 20 66t40.5 51t39 40.5t17.5 39.5q0 26 -23 26q-27 0 -36 -44l-61 20q10 42 36.5 66.5t67.5 24.5z" />
    <glyph glyph-name="three.numr" horiz-adv-x="229" 
d="M76 538v59h23q29 0 29 34q0 32 -22 32q-15 0 -23 -7.5t-12 -27.5l-59 20q8 38 34.5 59.5t66.5 21.5q47 0 71.5 -25t24.5 -62q0 -54 -37 -70v-2q41 -14 41 -70q0 -49 -27 -73.5t-75 -24.5q-84 0 -101 78l58 21q10 -35 37 -35q26 0 26 39q0 18 -7 25.5t-22 7.5h-26z" />
    <glyph glyph-name="four.numr" horiz-adv-x="229" 
d="M201 406h-70v55h-124v54l116 210h78v-201h26l-4 -63h-22v-55zM82 524h50l4 112h-2z" />
    <glyph glyph-name="five.numr" horiz-adv-x="229" 
d="M71 536l-50 24l10 165h172l-5 -68h-103l-3 -53q19 8 39 8q81 0 81 -98q0 -57 -25 -84.5t-79 -27.5q-82 0 -98 78l59 20q10 -33 35 -33q16 0 21 10t5 37q0 33 -30 33q-16 0 -29 -11z" />
    <glyph glyph-name="six.numr" horiz-adv-x="229" 
d="M119 729q74 0 93 -77l-55 -22q-8 32 -33 32q-36 0 -36 -42v-25h2q18 15 47 15q78 0 78 -94q0 -114 -100 -114t-100 112v98q0 51 29 84t75 33zM117 546q-27 0 -29 -16v-26q0 -34 28 -34q15 0 20 9t5 35q0 18 -5.5 25t-18.5 7z" />
    <glyph glyph-name="seven.numr" horiz-adv-x="216" 
d="M113 406h-87l99 248h-113v71h194v-63z" />
    <glyph glyph-name="eight.numr" horiz-adv-x="229" 
d="M115 402q-104 0 -104 101q0 53 39 69v2q-31 16 -31 68q0 87 96 87q94 0 94 -87q0 -51 -31 -68v-2q39 -16 39 -69q0 -101 -102 -101zM140 505q0 21 -5.5 27.5t-19.5 6.5q-16 0 -21.5 -6.5t-5.5 -27.5q0 -24 6.5 -32t20.5 -8t19.5 8t5.5 32zM115 666q-14 0 -19 -6.5
t-5 -26.5q0 -22 5 -29t19 -7q13 0 18 7t5 29q0 20 -5 26.5t-18 6.5z" />
    <glyph glyph-name="nine.numr" horiz-adv-x="229" 
d="M14 476l51 26q13 -35 39 -35q19 0 26.5 10t7.5 33v30h-2q-17 -12 -43 -12q-35 0 -58 23t-23 71q0 52 26.5 79.5t75.5 27.5t74 -29.5t25 -77.5v-110q0 -52 -27.5 -81t-76.5 -29q-74 0 -95 74zM111 589q24 0 27 19v26q0 31 -25 31q-15 0 -21 -7.5t-6 -29.5q0 -24 5.5 -31.5
t19.5 -7.5z" />
    <glyph glyph-name="equal.numr" horiz-adv-x="196" 
d="M166 566h-141v54h141v-54zM166 486h-141v55h141v-55z" />
    <glyph glyph-name="n.numr" horiz-adv-x="238" 
d="M22 406v254h72l2 -20h2q25 25 55 25q32 0 48.5 -24t16.5 -62v-173h-77v168q0 25 -18 25q-13 0 -22 -14v-179h-79z" />
    <glyph glyph-name="cent.numr" horiz-adv-x="211" 
d="M207 648l-56 -18q-7 34 -29 34q-15 0 -22 -10t-7 -38v-103q0 -53 28 -53q23 0 30 39l57 -19q-17 -63 -66 -75l-7 -46h-45l-2 45q-36 8 -54 36.5t-18 69.5v109q0 43 19.5 72t55.5 36l9 47h46l1 -51q45 -17 60 -75z" />
    <glyph glyph-name="sterling.numr" horiz-adv-x="257" 
d="M26 546l-7 54h24q-3 18 -3 34q0 45 26.5 73t73.5 28q39 0 64 -21.5t32 -56.5l-59 -22q-7 31 -32 31t-25 -42q0 -15 1 -24h76l-6 -54h-64q4 -30 4 -42q7 -4 21.5 -16.5t23.5 -12.5q18 0 21 32l58 -16q-13 -90 -73 -90q-31 0 -64 39q-17 -39 -61 -39q-24 0 -38.5 14
t-14.5 38t16 39.5t45 19.5q-4 17 -9 34h-30zM64 454q7 0 7 18q-11 -4 -11 -13q0 -5 4 -5z" />
    <glyph glyph-name="currency.numr" horiz-adv-x="177" 
d="M26 571q0 16 8 32l-18 19l25 27l19 -20q11 7 28 7q16 0 30 -8l21 23l25 -28l-20 -22q7 -16 7 -30q0 -17 -8 -33l19 -19l-25 -27l-20 20q-16 -7 -29 -7t-29 7l-19 -22l-26 27l19 21q-7 14 -7 33zM70 570q0 -21 19 -21t19 21t-19 21t-19 -21z" />
    <glyph glyph-name="yen.numr" horiz-adv-x="269" 
d="M220 451h-42v-45h-86v45h-43v49h43v14h-43v50h27l-76 165h96l38 -135h2l37 135h97l-77 -165h27v-50h-42v-14h42v-49z" />
    <glyph glyph-name="franc.numr" horiz-adv-x="227" 
d="M1 442v50h23v237h192v-73h-105v-56h89v-67h-89v-41h33v-50h-33v-36h-87v36h-23z" />
    <glyph glyph-name="lira.numr" horiz-adv-x="257" 
d="M26 570l-7 40h22q-1 8 -1 24q0 45 26.5 73t73.5 28q39 0 64 -21.5t32 -56.5l-59 -22q-7 31 -32 31t-25 -42v-14h84l-7 -40h-73l2 -10h69l-5 -38h-61q1 -9 1 -25q7 -3 22 -12.5t24 -9.5q18 0 21 32l58 -16q-13 -90 -73 -90q-33 0 -64 37q-19 -37 -61 -37q-24 0 -38.5 12.5
t-14.5 34.5q0 52 64 55q-1 4 -5 19h-30l-5 38h24l-2 10h-24zM63 450q7 0 8 18q-12 -2 -12 -13q0 -5 4 -5z" />
    <glyph glyph-name="peseta.numr" horiz-adv-x="436" 
d="M100 729q79 0 79 -108q0 -52 -19.5 -79t-55.5 -27h-19v-109h-71v323h86zM431 578l-44 -16q-6 24 -16 24q-7 0 -7 -12q0 -9 10.5 -19t23 -18t23 -25.5t10.5 -39.5q0 -33 -17 -52t-47 -19q-57 0 -67 65l45 15q5 -29 19 -29q8 0 8 15q0 11 -10.5 21t-23.5 17.5t-23.5 25
t-10.5 41.5q0 31 16.5 50t45.5 19q26 0 43 -17t22 -46zM294 636v-56h-28v-108q0 -16 15 -16q1 0 4.5 0.5t5.5 0.5l6 -45q-17 -10 -40 -10q-30 0 -42.5 17.5t-12.5 55.5v104l-17 6v51l20 1l16 57h45v-58h28zM85 668v-97h13q11 0 11 50q0 29 -2.5 38t-8.5 9h-13z" />
    <glyph glyph-name="Euro.numr" horiz-adv-x="247" 
d="M132 734q39 0 66.5 -22.5t35.5 -57.5l-64 -22q-6 28 -30 28q-29 0 -29 -37v-9h87l-7 -39h-80v-8h78l-6 -39h-72v-23q0 -35 29 -35q23 0 30 32l64 -21q-17 -80 -103 -80q-50 0 -79 28t-29 76v23h-18v39h18v8h-18v39h18v9q0 52 30 81.5t79 29.5z" />
    <glyph glyph-name="minus.numr" horiz-adv-x="196" 
d="M179 530h-162v55h162v-55z" />
    <glyph glyph-name="numbersign.dnom" horiz-adv-x="246" 
d="M19 189v52h36l6 82h54l-6 -82h34l6 82h54l-6 -82h31v-52h-32l-3 -55h35v-51h-37l-6 -83h-54l6 83h-33l-6 -83h-55l6 83h-30v51h31l3 55h-34zM108 189l-3 -55h34l3 55h-34z" />
    <glyph glyph-name="dollar.dnom" horiz-adv-x="235" 
d="M107 368h44l1 -52q48 -17 64 -73l-52 -18q-6 19 -16 27h-2l-5 -61q36 -17 56.5 -38.5t20.5 -58.5q0 -40 -21.5 -65.5t-59.5 -31.5l-7 -44h-45l-1 46q-56 12 -73 78l55 19q7 -22 22 -31l6 64q-24 11 -38.5 21t-28 31t-13.5 49q0 37 23 62.5t63 29.5zM154 81q0 14 -16 26
h-2v-48q18 5 18 22zM82 239q0 -13 15 -25h2v45q-17 -4 -17 -20z" />
    <glyph glyph-name="parenleft.dnom" horiz-adv-x="130" 
d="M21 73v163q0 68 23 100t75 32h12v-53h-12q-36 0 -36 -79v-163q0 -79 36 -79h12v-53h-12q-52 0 -75 31.5t-23 100.5z" />
    <glyph glyph-name="parenright.dnom" horiz-adv-x="130" 
d="M109 236v-163q0 -69 -22.5 -100.5t-75.5 -31.5h-12v53h12q35 0 35 79v163q0 79 -35 79h-12v53h12q53 0 75.5 -32t22.5 -100z" />
    <glyph glyph-name="plus.dnom" horiz-adv-x="196" 
d="M71 57v67h-54v55h54v68h54v-68h54v-55h-54v-67h-54z" />
    <glyph glyph-name="comma.dnom" horiz-adv-x="124" 
d="M24 3v84h76v-68q0 -96 -75 -101l-3 42q17 2 23.5 11t7.5 32h-29z" />
    <glyph glyph-name="period.dnom" horiz-adv-x="124" 
d="M24 0v87h76v-87h-76z" />
    <glyph glyph-name="zero.dnom" horiz-adv-x="229" 
d="M215 211v-103q0 -53 -26 -82.5t-75 -29.5q-48 0 -74 30t-26 82v103q0 52 26 82t74 30q49 0 75 -29.5t26 -82.5zM91 209v-101q0 -26 5 -35.5t18 -9.5t18.5 9.5t5.5 35.5v101q0 24 -5.5 32.5t-18.5 8.5t-18 -8.5t-5 -32.5z" />
    <glyph glyph-name="one.dnom" horiz-adv-x="190" 
d="M90 321h66v-321h-83v207h-57v56h23q26 0 35.5 11t15.5 47z" />
    <glyph glyph-name="two.dnom" horiz-adv-x="229" 
d="M116 323q48 0 71.5 -25t23.5 -64q0 -32 -15.5 -58.5t-34.5 -41t-38 -33.5t-24 -36h110v-65h-193l-1 33q1 34 20 66t40.5 51t39 40.5t17.5 39.5q0 26 -23 26q-27 0 -36 -44l-61 20q10 42 36.5 66.5t67.5 24.5z" />
    <glyph glyph-name="three.dnom" horiz-adv-x="229" 
d="M76 132v59h23q29 0 29 34q0 32 -22 32q-15 0 -23 -7.5t-12 -27.5l-59 20q8 38 34.5 59.5t66.5 21.5q47 0 71.5 -25t24.5 -62q0 -54 -37 -70v-2q41 -14 41 -70q0 -49 -27 -73.5t-75 -24.5q-84 0 -101 78l58 21q10 -35 37 -35q26 0 26 39q0 18 -7 25.5t-22 7.5h-26z" />
    <glyph glyph-name="four.dnom" horiz-adv-x="229" 
d="M201 0h-70v55h-124v54l116 210h78v-201h26l-4 -63h-22v-55zM82 118h50l4 112h-2z" />
    <glyph glyph-name="five.dnom" horiz-adv-x="229" 
d="M71 130l-50 24l10 165h172l-5 -68h-103l-3 -53q19 8 39 8q81 0 81 -98q0 -57 -25 -84.5t-79 -27.5q-82 0 -98 78l59 20q10 -33 35 -33q16 0 21 10t5 37q0 33 -30 33q-16 0 -29 -11z" />
    <glyph glyph-name="six.dnom" horiz-adv-x="229" 
d="M119 323q74 0 93 -77l-55 -22q-8 32 -33 32q-36 0 -36 -42v-25h2q18 15 47 15q78 0 78 -94q0 -114 -100 -114t-100 112v98q0 51 29 84t75 33zM117 140q-27 0 -29 -16v-26q0 -34 28 -34q15 0 20 9t5 35q0 18 -5.5 25t-18.5 7z" />
    <glyph glyph-name="seven.dnom" horiz-adv-x="216" 
d="M113 0h-87l99 248h-113v71h194v-63z" />
    <glyph glyph-name="eight.dnom" horiz-adv-x="229" 
d="M115 -4q-104 0 -104 101q0 53 39 69v2q-31 16 -31 68q0 87 96 87q94 0 94 -87q0 -51 -31 -68v-2q39 -16 39 -69q0 -101 -102 -101zM140 99q0 21 -5.5 27.5t-19.5 6.5q-16 0 -21.5 -6.5t-5.5 -27.5q0 -24 6.5 -32t20.5 -8t19.5 8t5.5 32zM115 260q-14 0 -19 -6.5t-5 -26.5
q0 -22 5 -29t19 -7q13 0 18 7t5 29q0 20 -5 26.5t-18 6.5z" />
    <glyph glyph-name="nine.dnom" horiz-adv-x="229" 
d="M14 70l51 26q13 -35 39 -35q19 0 26.5 10t7.5 33v30h-2q-16 -12 -43 -12q-35 0 -58 23t-23 71q0 52 26.5 79.5t75.5 27.5t74 -29.5t25 -77.5v-110q0 -52 -27.5 -81t-76.5 -29q-74 0 -95 74zM111 183q24 0 27 19v26q0 31 -25 31q-15 0 -21 -7.5t-6 -29.5q0 -24 5.5 -31.5
t19.5 -7.5z" />
    <glyph glyph-name="equal.dnom" horiz-adv-x="196" 
d="M166 160h-141v54h141v-54zM166 80h-141v55h141v-55z" />
    <glyph glyph-name="n.dnom" horiz-adv-x="238" 
d="M22 0v254h72l2 -20h2q25 25 55 25q32 0 48.5 -24t16.5 -62v-173h-77v168q0 25 -18 25q-13 0 -22 -14v-179h-79z" />
    <glyph glyph-name="cent.dnom" horiz-adv-x="211" 
d="M207 242l-56 -18q-7 34 -29 34q-15 0 -22 -10t-7 -38v-103q0 -53 28 -53q23 0 30 39l57 -19q-17 -63 -66 -75l-7 -46h-45l-2 46q-72 15 -72 105v109q0 43 19.5 72t55.5 36l9 47h46l1 -51q45 -17 60 -75z" />
    <glyph glyph-name="sterling.dnom" horiz-adv-x="257" 
d="M26 140l-7 54h24q-3 18 -3 34q0 45 26.5 73t73.5 28q39 0 64 -21.5t32 -56.5l-59 -22q-7 31 -32 31t-25 -42q0 -15 1 -24h76l-6 -54h-64q4 -30 4 -42q7 -4 21.5 -16.5t23.5 -12.5q18 0 21 32l58 -16q-13 -90 -73 -90q-31 0 -64 39q-17 -39 -61 -39q-24 0 -38.5 14
t-14.5 38t16 39.5t45 19.5q-4 17 -9 34h-30zM64 48q7 0 7 18q-11 -4 -11 -13q0 -5 4 -5z" />
    <glyph glyph-name="currency.dnom" horiz-adv-x="177" 
d="M26 165q0 16 8 32l-18 19l25 27l19 -20q11 7 28 7q16 0 30 -8l21 23l25 -28l-20 -22q7 -16 7 -30q0 -17 -8 -33l19 -19l-25 -27l-20 20q-16 -7 -29 -7t-29 7l-19 -22l-26 27l19 21q-7 14 -7 33zM70 164q0 -21 19 -21t19 21t-19 21t-19 -21z" />
    <glyph glyph-name="yen.dnom" horiz-adv-x="269" 
d="M220 45h-42v-45h-86v45h-43v49h43v14h-43v50h27l-76 165h96l38 -135h2l37 135h97l-77 -165h27v-50h-42v-14h42v-49z" />
    <glyph glyph-name="franc.dnom" horiz-adv-x="227" 
d="M1 36v50h23v237h192v-73h-105v-56h89v-67h-89v-41h33v-50h-33v-36h-87v36h-23z" />
    <glyph glyph-name="lira.dnom" horiz-adv-x="257" 
d="M26 164l-7 40h22q-1 8 -1 24q0 45 26.5 73t73.5 28q39 0 64 -21.5t32 -56.5l-59 -22q-7 31 -32 31t-25 -42v-14h84l-7 -40h-73l2 -10h69l-5 -38h-61q1 -9 1 -25q7 -3 22 -12.5t24 -9.5q18 0 21 32l58 -16q-13 -90 -73 -90q-33 0 -64 37q-19 -37 -61 -37q-24 0 -38.5 12.5
t-14.5 34.5q0 52 64 55q-1 4 -5 19h-30l-5 38h24l-2 10h-24zM63 44q7 0 8 18q-12 -2 -12 -13q0 -5 4 -5z" />
    <glyph glyph-name="peseta.dnom" horiz-adv-x="436" 
d="M100 323q79 0 79 -108q0 -52 -19.5 -79t-55.5 -27h-19v-109h-71v323h86zM431 172l-44 -16q-6 24 -16 24q-7 0 -7 -12q0 -9 10.5 -19t23 -18t23 -25.5t10.5 -39.5q0 -33 -17 -52t-47 -19q-57 0 -67 65l45 15q5 -29 19 -29q8 0 8 15q0 11 -10.5 21t-23.5 17.5t-23.5 25
t-10.5 41.5q0 31 16.5 50t45.5 19q26 0 43 -17t22 -46zM294 230v-56h-28v-108q0 -16 15 -16q1 0 4.5 0.5t5.5 0.5l6 -45q-17 -10 -40 -10q-30 0 -42.5 17.5t-12.5 55.5v104l-17 6v51l20 1l16 57h45v-58h28zM85 262v-97h13q11 0 11 50q0 29 -2.5 38t-8.5 9h-13z" />
    <glyph glyph-name="Euro.dnom" horiz-adv-x="247" 
d="M132 328q39 0 66.5 -22.5t35.5 -57.5l-64 -22q-6 28 -30 28q-29 0 -29 -37v-9h87l-7 -39h-80v-8h78l-6 -39h-72v-23q0 -35 29 -35q23 0 30 32l64 -21q-17 -80 -103 -80q-50 0 -79 28t-29 76v23h-18v39h18v8h-18v39h18v9q0 52 30 81.5t79 29.5z" />
    <glyph glyph-name="minus.dnom" horiz-adv-x="196" 
d="M179 124h-162v55h162v-55z" />
    <glyph glyph-name="space.frac" horiz-adv-x="28" 
 />
    <glyph glyph-name="numbersign.osf" horiz-adv-x="401" 
d="M20 365v93h61l11 158h94l-11 -158h57l11 158h96l-12 -158h53v-93h-54l-6 -111h60v-93h-62l-11 -161h-96l12 161h-57l-11 -161h-95l11 161h-51v93h54l6 111h-60zM174 365l-5 -111h56l6 111h-57z" />
    <glyph glyph-name="dollar.osf" horiz-adv-x="401" 
d="M28 450q0 62 33.5 109t94.5 60l19 111h79l4 -117q86 -29 110 -143l-94 -25q-10 38 -24 51.5t-39 13.5q-45 0 -45 -49q0 -24 21.5 -46t52 -42t61 -43.5t52 -61t21.5 -84.5q0 -72 -33 -120.5t-92 -63.5l-17 -125h-80l-3 122q-100 19 -124 150l99 27q7 -37 26.5 -55.5
t44.5 -18.5q48 0 48 58q0 27 -22 50t-53.5 43t-63.5 44t-54 64t-22 91z" />
    <glyph glyph-name="plus.osf" horiz-adv-x="401" 
d="M150 85v152h-104v107h104v152h100v-152h106v-107h-106v-152h-100z" />
    <glyph glyph-name="zero.osf" horiz-adv-x="405" 
d="M383 380v-180q0 -102 -46 -156t-135 -54t-134.5 54t-45.5 156v180q0 102 45.5 155.5t134.5 53.5t135 -53.5t46 -155.5zM155 380v-186q0 -54 10.5 -73.5t36.5 -19.5t36 19t10 74v187q0 57 -10 76t-36 19t-36.5 -20t-10.5 -76z" />
    <glyph glyph-name="one.osf" horiz-adv-x="308" 
d="M128 370h-112v105h49q50 0 69.5 26.5t26.5 91.5h112v-593h-145v370z" />
    <glyph glyph-name="two.osf" horiz-adv-x="379" 
d="M200 593q77 0 116.5 -45t39.5 -120q0 -43 -27.5 -99.5t-58 -98t-87.5 -112.5v-2h173v-116h-335l-2 78q203 254 203 342q0 29 -9 41t-29 12q-44 0 -64 -66l-102 35q53 151 182 151z" />
    <glyph glyph-name="three.osf" horiz-adv-x="378" 
d="M349 426q0 -112 -61 -140v-2q74 -25 74 -127q0 -246 -316 -246l-12 118q110 0 150.5 30.5t40.5 99.5q0 39 -15.5 52.5t-56.5 13.5h-31v111h27q37 0 51.5 17t14.5 61q0 33 -8.5 46t-29.5 13q-41 0 -65 -66l-101 35q52 151 183 151q78 0 116.5 -45.5t38.5 -121.5z" />
    <glyph glyph-name="four.osf" horiz-adv-x="393" 
d="M340 -87h-128v217h-208v104l200 350h136v-343h52l-8 -111h-44v-217zM135 241h80l12 183h-2z" />
    <glyph glyph-name="five.osf" horiz-adv-x="375" 
d="M334 456h-186l-5 -112q36 13 74 13q141 0 141 -172q0 -274 -311 -274l-11 118q110 0 148.5 29t38.5 115q0 38 -13.5 53t-44.5 15t-65 -18l-83 38l20 323h306z" />
    <glyph glyph-name="six.osf" horiz-adv-x="392" 
d="M328 565q-80 0 -120 -39t-48 -131h2q27 15 62 15q151 0 151 -196q0 -224 -181 -224q-84 0 -125.5 58.5t-41.5 158.5v140q0 160 78.5 248.5t212.5 88.5zM200 290q-25 0 -40 -15v-64q0 -59 9.5 -80t32.5 -21q21 0 31 20t10 76q0 49 -10 66.5t-33 17.5z" />
    <glyph glyph-name="seven.osf" horiz-adv-x="367" 
d="M180 -81h-142l184 537h-215v128h352v-115z" />
    <glyph glyph-name="eight.osf" horiz-adv-x="394" 
d="M197 -10q-88 0 -133 41t-45 139q0 99 70 132v2q-59 35 -59 134q0 71 40 113t127 42t127 -42t40 -113q0 -98 -59 -133v-2q70 -34 70 -133q0 -98 -44.5 -139t-133.5 -41zM241 184q0 36 -10 50t-34 14q-23 0 -33 -14t-10 -49q0 -44 10 -61.5t33 -17.5q24 0 34 17t10 61z
M197 481q-21 0 -30 -14.5t-9 -51.5q0 -39 8.5 -54t30.5 -15q23 0 31.5 15t8.5 54q0 37 -9.5 51.5t-30.5 14.5z" />
    <glyph glyph-name="nine.osf" horiz-adv-x="392" 
d="M53 29q90 0 131.5 41.5t46.5 146.5q-26 -13 -60 -13q-154 0 -154 185q0 204 181 204q84 0 125.5 -57t41.5 -155v-129q0 -165 -80.5 -253t-219.5 -88zM191 317q24 0 41 19v41q0 56 -9 76t-33 20q-21 0 -31 -16.5t-10 -61.5t10 -61.5t32 -16.5z" />
    <glyph glyph-name="less.osf" horiz-adv-x="401" 
d="M341 373l-126 -87l126 -88v-144l-296 226v12l296 226v-145z" />
    <glyph glyph-name="equal.osf" horiz-adv-x="401" 
d="M341 315h-281v107h281v-107zM341 155h-281v107h281v-107z" />
    <glyph glyph-name="greater.osf" horiz-adv-x="401" 
d="M185 285l-125 89v144h2l294 -226v-12l-294 -226h-2v144z" />
    <glyph glyph-name="cent.osf" horiz-adv-x="401" 
d="M366 475l-108 -33q-13 69 -53 69q-27 0 -37.5 -20.5t-10.5 -72.5v-228q0 -52 12 -71t39 -19q21 0 33 15.5t18 55.5l107 -32q-27 -121 -116 -143l-17 -121h-79l-4 120q-124 24 -124 204v214q0 181 132 206l19 111h80l3 -118q80 -29 106 -137z" />
    <glyph glyph-name="sterling.osf" horiz-adv-x="401" 
d="M358 476l-96 -32q-10 66 -44 66q-38 0 -38 -84q0 -35 3 -65h119l-9 -86h-99q7 -56 7 -104q13 -8 25.5 -22t21 -22.5t15.5 -8.5q14 0 21.5 13.5t9.5 52.5l95 -23q-9 -92 -36 -131t-75 -39q-53 0 -94 70h-2q-26 -70 -92 -70q-80 0 -80 90q0 38 23 66.5t65 37.5
q-3 15 -11.5 45.5t-11.5 44.5h-33l-9 86h23q-5 37 -5 69q0 90 40.5 142t116.5 52q62 0 100.5 -40t49.5 -108zM96 75q12 0 13 39q-21 -8 -21 -28q0 -11 8 -11z" />
    <glyph glyph-name="currency.osf" horiz-adv-x="313" 
d="M40 319q0 32 14 60l-34 37l45 52l36 -39q27 15 54 15q28 0 56 -15l38 42l46 -51l-38 -42q14 -28 14 -59q0 -29 -14 -60l36 -38l-46 -51l-36 39q-25 -15 -56 -15q-29 0 -54 14l-37 -42l-46 51l36 41q-14 28 -14 61zM116 319q0 -21 11.5 -33t28.5 -12q18 0 29.5 12t11.5 33
q0 20 -11.5 32t-29.5 12q-17 0 -28.5 -12t-11.5 -32z" />
    <glyph glyph-name="yen.osf" horiz-adv-x="401" 
d="M342 106h-75v-106h-133v106h-76v84h76v31h-76v85h50l-112 309h143l62 -264h2l58 264h145l-113 -309h49v-85h-75v-31h75v-84z" />
    <glyph glyph-name="logicalnot.osf" horiz-adv-x="401" 
d="M256 110v127h-210v107h310v-234h-100z" />
    <glyph glyph-name="plusminus.osf" horiz-adv-x="401" 
d="M151 137v120h-105v107h105v132h99v-132h106v-107h-106v-120h-99zM356 13h-310v106h310v-106z" />
    <glyph glyph-name="multiply.osf" horiz-adv-x="401" 
d="M273 125l-89 97l-89 -97l-69 74l89 97l-88 97l67 75l89 -98l90 98l68 -75l-89 -97l89 -97z" />
    <glyph glyph-name="divide.osf" horiz-adv-x="401" 
d="M355 238h-310v107h310v-107zM135 445q0 28 18.5 48.5t45.5 20.5q26 0 45 -20.5t19 -48.5q0 -29 -19 -49t-45 -20q-27 0 -45.5 20t-18.5 49zM135 142q0 28 18.5 48.5t45.5 20.5q26 0 45 -20.5t19 -48.5q0 -29 -19 -49t-45 -20q-27 0 -45.5 20t-18.5 49z" />
    <glyph glyph-name="franc.osf" horiz-adv-x="401" 
d="M16 71v92h40v452h311v-125h-176v-127h151v-115h-151v-85h60v-92h-60v-71h-135v71h-40z" />
    <glyph glyph-name="lira.osf" horiz-adv-x="401" 
d="M358 476l-96 -32q-10 66 -44 66q-38 0 -38 -84q0 -25 1 -37h146l-11 -71h-128l3 -20h123l-9 -65h-107q3 -29 3 -62q13 -8 25.5 -22t21 -22.5t15.5 -8.5q14 0 21.5 13.5t9.5 52.5l95 -23q-9 -92 -36 -131t-75 -39q-53 0 -94 70h-2q-26 -70 -92 -70q-80 0 -80 90
q0 38 23 66.5t65 37.5q-4 23 -12 48h-36l-10 65h29l-4 20h-28l-11 71h27q-2 13 -2 41q0 90 40.5 142t116.5 52q62 0 100.5 -40t49.5 -108zM96 75q12 0 13 39q-21 -8 -21 -28q0 -11 8 -11z" />
    <glyph glyph-name="peseta.osf" horiz-adv-x="401" 
d="M7 368v84h32v163h167q66 0 106 -42.5t48 -120.5h32v-84h-32q-8 -79 -46 -120t-101 -41h-43v-207h-131v368h-32zM203 307q25 0 28 68h-61v-68h33zM170 504v-58h61q-2 33 -8.5 45.5t-19.5 12.5h-33z" />
    <glyph glyph-name="Euro.osf" horiz-adv-x="401" 
d="M372 474l-108 -30q-7 38 -18 52t-31 14q-24 0 -34 -19t-10 -68v-22h106l-8 -75h-98v-20h94l-11 -74h-83v-39q0 -55 10.5 -74t34.5 -19q20 0 31 14.5t17 55.5l110 -31q-32 -149 -165 -149q-88 0 -129 53t-41 158v31h-26v74h26v20h-26v75h26v16q0 95 42.5 150.5t127.5 55.5
q62 0 106.5 -38.5t56.5 -110.5z" />
    <glyph glyph-name="uni20B4.osf" horiz-adv-x="395" 
d="M29 319v82h193q15 28 15 57q0 33 -10 46.5t-33 13.5q-24 0 -38 -14.5t-22 -52.5l-100 32q40 142 173 142q73 0 111.5 -44.5t38.5 -109.5q0 -37 -15 -70h27v-82h-92l-23 -20h115v-81h-187q-16 -32 -16 -69q0 -50 47 -50q48 0 64 68l91 -29q-33 -148 -167 -148
q-78 0 -116 41t-38 106q0 42 17 81h-35v81h98l21 20h-119z" />
    <glyph glyph-name="minus.osf" horiz-adv-x="401" 
d="M356 237h-310v107h310v-107z" />
    <glyph glyph-name="approxequal.osf" horiz-adv-x="401" 
d="M342 428v-106q-39 -23 -77 -23q-27 0 -71.5 17t-67.5 17q-32 0 -66 -23v105q39 23 77 23q29 0 76 -17.5t68 -17.5q32 0 61 25zM342 267v-105q-41 -23 -77 -23q-27 0 -71.5 16.5t-67.5 16.5q-32 0 -66 -23v105q39 23 77 23q29 0 76 -17.5t68 -17.5q32 0 61 25z" />
    <glyph glyph-name="notequal.osf" horiz-adv-x="401" 
d="M341 155h-150l-31 -87l-65 24l22 63h-57v107h95l19 53h-114v107h152l31 88l65 -26l-22 -62h55v-107h-93l-19 -53h112v-107z" />
    <glyph glyph-name="lessequal.osf" horiz-adv-x="401" 
d="M341 384l-111 -64l111 -63v-139l-296 197v11l296 201v-143zM46 13v96h295v-96h-295z" />
    <glyph glyph-name="greaterequal.osf" horiz-adv-x="401" 
d="M60 257l111 63l-111 64v143l296 -201v-11l-296 -197v139zM355 109v-96h-295v96h295z" />
    <glyph glyph-name="numbersign.tf" 
d="M23 440v97h69l12 188h95l-13 -188h65l13 188h94l-12 -188h58v-97h-59l-8 -148h67v-98h-69l-12 -194h-95l12 194h-65l-12 -194h-94l12 194h-58v98h60l8 148h-68zM185 440l-7 -148h65l7 148h-65z" />
    <glyph glyph-name="dollar.tf" 
d="M195 819h79l3 -96q95 -36 123 -164l-93 -30q-14 57 -42 75l-13 -176q35 -23 55.5 -39.5t46 -45t38 -64t12.5 -79.5q0 -85 -41 -139.5t-111 -66.5l-14 -94h-79l-3 97q-111 29 -137 175l100 32q13 -62 48 -80l12 183q-36 23 -56.5 40t-47 45.5t-39 65t-12.5 82.5
q0 76 42.5 129.5t115.5 63.5zM290 178q0 43 -42 80h-2l2 -142q42 10 42 62zM143 556q0 -40 39 -77h2l-2 133q-39 -10 -39 -56z" />
    <glyph glyph-name="plus.tf" 
d="M162 101v152h-105v107h105v153h100v-153h106v-107h-106v-152h-100z" />
    <glyph glyph-name="zero.tf" 
d="M403 503v-280q0 -112 -48.5 -172.5t-141.5 -60.5q-94 0 -142 60.5t-48 172.5v279q0 112 48.5 172.5t141.5 60.5t141.5 -60.5t48.5 -171.5zM159 503v-280q0 -61 12.5 -83.5t41.5 -22.5t41.5 22.5t12.5 83.5v280q0 58 -12.5 79.5t-41.5 21.5t-41.5 -21.5t-12.5 -79.5z" />
    <glyph glyph-name="one.tf" 
d="M107 0v90h76v406h-115v108h52q49 0 68 24t29 100h112v-638h73v-90h-295z" />
    <glyph glyph-name="two.tf" 
d="M221 735q89 0 134 -52.5t45 -136.5q0 -62 -19.5 -114t-49 -88t-60 -68t-57.5 -71t-36 -81h220v-124h-364l-3 64q3 64 27.5 123.5t57.5 103.5t66 84.5t55.5 82.5t22.5 81q0 35 -12 50.5t-39 15.5q-56 0 -71 -102l-110 32q17 92 65 146t128 54z" />
    <glyph glyph-name="three.tf" 
d="M147 312v117h45q32 0 47 20.5t15 70.5q0 48 -11.5 67.5t-37.5 19.5q-28 0 -44.5 -19.5t-25.5 -69.5l-107 33q15 87 64 135.5t125 48.5q89 0 134 -54t45 -139q0 -127 -75 -164v-2q83 -29 83 -161q0 -116 -51 -170.5t-141 -54.5q-157 0 -187 175l105 33q17 -83 73 -83
q58 0 58 107q0 50 -16 70t-50 20h-48z" />
    <glyph glyph-name="four.tf" 
d="M376 0h-126v129h-240v97l227 499h139v-477h53l-8 -119h-45v-129zM143 248h109l8 294h-2z" />
    <glyph glyph-name="five.tf" 
d="M124 313l-88 37l20 375h323l-9 -134h-200l-6 -144q40 21 83 21q152 0 152 -222q0 -134 -47.5 -195t-148.5 -61q-73 0 -121 43t-62 132l110 33q15 -83 67 -83q35 0 47 27.5t12 102.5q0 52 -16 74t-51 22q-39 0 -65 -28z" />
    <glyph glyph-name="six.tf" 
d="M223 735q69 0 114 -43.5t61 -131.5l-102 -36q-9 45 -25 63.5t-41 18.5q-66 0 -66 -98v-75h2q36 28 89 28q151 0 151 -212q0 -259 -190 -259q-93 0 -140.5 60.5t-47.5 166.5v275q0 107 53 175t142 68zM220 335q-56 0 -56 -38v-95q0 -82 54 -82q28 0 39.5 26.5t11.5 98.5
q0 51 -11 70.5t-38 19.5z" />
    <glyph glyph-name="seven.tf" 
d="M211 0h-150l202 591h-248v134h394v-117z" />
    <glyph glyph-name="eight.tf" 
d="M213 -10q-97 0 -145.5 52t-48.5 176q0 123 75 165q-62 39 -62 159q0 193 181 193t181 -193q0 -120 -62 -159q75 -42 75 -165q0 -124 -48.5 -176t-145.5 -52zM270 223q0 56 -13 75.5t-44 19.5t-43.5 -19.5t-12.5 -75.5q0 -64 13 -86.5t43 -22.5t43.5 22t13.5 87zM213 613
q-28 0 -39.5 -17.5t-11.5 -70.5q0 -59 11 -77t40 -18q30 0 41 18t11 77q0 53 -11.5 70.5t-40.5 17.5z" />
    <glyph glyph-name="nine.tf" 
d="M122 204q12 -49 29 -68t47 -19q33 0 48 21.5t15 70.5v99h-2q-29 -26 -80 -26q-159 0 -159 213q0 240 194 240q91 0 137.5 -59t46.5 -154v-305q0 -107 -51.5 -166.5t-141.5 -59.5q-148 0 -180 169zM207 401q50 0 54 45v81q0 45 -11.5 62t-39.5 17q-29 0 -41 -22.5
t-12 -83.5q0 -59 11.5 -79t38.5 -20z" />
    <glyph glyph-name="less.tf" 
d="M351 400l-123 -88l123 -88v-143l-293 225v12l293 226v-144z" />
    <glyph glyph-name="equal.tf" 
d="M354 325h-283v107h283v-107zM354 165h-283v107h283v-107z" />
    <glyph glyph-name="greater.tf" 
d="M73 224l124 88l-123 88v144l292 -226v-12l-293 -225v143z" />
    <glyph glyph-name="cent.tf" 
d="M31 510q0 92 41 150t113 71l14 86h78l2 -90q51 -17 84.5 -61t42.5 -107l-111 -35q-13 70 -60 70q-56 0 -56 -83v-311q0 -80 57 -80q24 0 37.5 18.5t20.5 62.5l113 -33q-23 -156 -144 -175l-14 -93h-78l-3 97q-65 16 -101 69t-36 133v311z" />
    <glyph glyph-name="sterling.tf" 
d="M40 323l-11 103h38q-6 46 -6 91q0 102 44.5 160.5t124.5 58.5q68 0 111 -43.5t51 -127.5l-106 -32q-6 42 -18.5 56t-33.5 14q-45 0 -45 -102q0 -31 3 -75h139l-10 -103h-120q6 -90 7 -118q18 -10 44.5 -37.5t41.5 -27.5q16 0 23 14t11 59l95 -23q-9 -109 -38 -154.5
t-81 -45.5q-21 0 -37.5 7.5t-30 23.5t-21 27.5t-19.5 32.5h-2q-26 -91 -101 -91q-43 0 -66 26.5t-23 77.5q0 44 25.5 76.5t70.5 43.5q-4 39 -16 109h-44zM100 89q15 0 16 45q-24 -9 -24 -31q0 -14 8 -14z" />
    <glyph glyph-name="currency.tf" 
d="M96 368q0 33 14 61l-33 36l45 52l36 -39q27 15 54 15q29 0 56 -16l38 43l45 -51l-37 -42q14 -26 14 -59q0 -34 -14 -60l35 -38l-46 -51l-36 38q-26 -14 -55 -14t-54 14l-38 -42l-46 51l36 41q-14 28 -14 61zM172 368q0 -21 12 -33t29 -12t29 12t12 33q0 20 -12 32t-29 12
t-29 -12t-12 -32z" />
    <glyph glyph-name="yen.tf" 
d="M359 121h-76v-121h-139v121h-77v98h77v34h-77v99h51l-122 373h150l67 -318h2l66 318h150l-123 -373h51v-99h-76v-34h76v-98z" />
    <glyph glyph-name="logicalnot.tf" 
d="M268 127v126h-211v107h310v-233h-99z" />
    <glyph glyph-name="plusminus.tf" 
d="M162 152v121h-105v107h105v133h100v-133h106v-107h-106v-121h-100zM368 28h-311v107h311v-107z" />
    <glyph glyph-name="multiply.tf" 
d="M301 134l-90 97l-89 -97l-68 75l89 96l-89 97l68 75l89 -97l90 98l67 -75l-89 -97l90 -97z" />
    <glyph glyph-name="divide.tf" 
d="M368 253h-311v107h311v-107zM148 460q0 29 18 49.5t45 20.5q26 0 45 -20.5t19 -49.5q0 -28 -19 -48t-45 -20q-27 0 -45 19.5t-18 48.5zM148 157q0 29 18 49.5t45 20.5q26 0 45 -20.5t19 -49.5q0 -28 -19 -48t-45 -20q-27 0 -45 19.5t-18 48.5z" />
    <glyph glyph-name="uni2007.tf" 
 />
    <glyph glyph-name="franc.tf" 
d="M7 85v101h47v539h349v-140h-194v-154h167v-131h-167v-114h64v-101h-64v-85h-155v85h-47z" />
    <glyph glyph-name="lira.tf" 
d="M36 376l-11 73h40q-4 31 -4 68q0 102 44.5 160.5t124.5 58.5q68 0 111 -43.5t51 -127.5l-106 -32q-6 42 -18.5 56t-33.5 14q-45 0 -45 -102q0 -16 2 -52h160l-11 -73h-144q0 -4 1 -13t1 -14h136l-8 -69h-122q2 -23 4 -75q18 -10 44.5 -37.5t41.5 -27.5q16 0 23 14t11 59
l95 -23q-9 -109 -38 -154.5t-81 -45.5q-21 0 -37.5 7.5t-30 23.5t-21 27.5t-19.5 32.5h-2q-26 -91 -101 -91q-43 0 -66 26.5t-23 77.5q0 44 25.5 76.5t70.5 43.5q-3 30 -9 66h-41l-10 69h39l-4 27h-39zM100 89q15 0 16 45q-24 -9 -24 -31q0 -14 8 -14z" />
    <glyph glyph-name="peseta.tf" 
d="M5 444v83h30v198h182q75 0 118.5 -50.5t50.5 -147.5h36v-83h-36q-7 -95 -48.5 -143.5t-113.5 -48.5h-49v-252h-140v444h-30zM214 369q16 0 24 17.5t9 60.5h-72v-78h39zM175 597v-73h72q-2 43 -9.5 58t-23.5 15h-39z" />
    <glyph glyph-name="Euro.tf" 
d="M235 735q72 0 121 -48t60 -128l-111 -35q-13 70 -60 70q-56 0 -56 -83v-44h162l-12 -81h-150v-23h146l-12 -81h-134v-82q0 -80 57 -80q24 0 37.5 18.5t20.5 62.5l113 -33q-26 -178 -184 -178q-89 0 -140.5 56.5t-51.5 152.5v83h-36v81h36v23h-36v81h36v43q0 105 52.5 165
t141.5 60z" />
    <glyph glyph-name="uni20B4.tf" 
d="M27 381v86h221q21 36 21 77q0 42 -13 60t-44 18q-30 0 -49 -18.5t-29 -63.5l-101 33q45 161 192 161q81 0 123 -50.5t42 -126.5q0 -50 -21 -90h34v-86h-104q-1 -1 -34 -31h137v-86h-213q-22 -39 -22 -90q0 -70 63 -70q60 0 80 86l93 -30q-37 -170 -184 -170
q-88 0 -130.5 47.5t-42.5 123.5q0 57 24 103h-43v86h110l33 31h-143z" />
    <glyph glyph-name="minus.tf" 
d="M367 253h-310v107h310v-107z" />
    <glyph glyph-name="approxequal.tf" 
d="M354 435v-105q-41 -23 -78 -23q-27 0 -71.5 16.5t-67.5 16.5q-32 0 -66 -23v105q39 23 77 23q29 0 76.5 -17.5t68.5 -17.5q32 0 61 25zM354 274v-105q-41 -23 -78 -23q-27 0 -71.5 16.5t-67.5 16.5q-32 0 -66 -23v106q38 22 77 22q30 0 77 -17.5t68 -17.5q32 0 61 25z
" />
    <glyph glyph-name="notequal.tf" 
d="M319 494l-22 -62h57v-107h-95l-19 -53h114v-107h-152l-31 -87l-65 24l22 63h-57v107h95l19 53h-114v107h152l31 88z" />
    <glyph glyph-name="lessequal.tf" 
d="M351 401l-109 -66l110 -63v-140l-293 198v11l292 202v-142zM61 23v100h291v-100h-291z" />
    <glyph glyph-name="greaterequal.tf" 
d="M73 272l109 63l-109 66v142l292 -202v-11l-292 -198v140zM364 123v-100h-291v100h291z" />
    <glyph glyph-name="numbersign.tosf" horiz-adv-x="390" 
d="M15 365v93h61l11 158h94l-11 -158h57l11 158h96l-12 -158h53v-93h-54l-6 -111h60v-93h-62l-11 -161h-96l12 161h-57l-11 -161h-95l11 161h-51v93h54l6 111h-60zM169 365l-5 -111h56l6 111h-57z" />
    <glyph glyph-name="dollar.tosf" horiz-adv-x="390" 
d="M23 450q0 62 33.5 109t94.5 60l19 111h79l4 -117q86 -29 110 -143l-94 -25q-10 38 -23.5 51.5t-37.5 13.5q-21 0 -34 -13t-13 -36q0 -24 21.5 -46t52 -42t61 -43.5t52 -61t21.5 -84.5q0 -72 -33 -120.5t-92 -63.5l-17 -125h-80l-3 122q-100 19 -124 150l99 27
q15 -74 66 -74q53 0 53 58q0 27 -22 50t-53.5 43t-63.5 44t-54 64t-22 91z" />
    <glyph glyph-name="plus.tosf" horiz-adv-x="390" 
d="M145 85v152h-104v107h104v152h100v-152h106v-107h-106v-152h-100z" />
    <glyph glyph-name="zero.tosf" horiz-adv-x="390" 
d="M376 380v-180q0 -102 -46 -156t-135 -54t-134.5 54t-45.5 156v180q0 102 45.5 155.5t134.5 53.5t135 -53.5t46 -155.5zM148 380v-186q0 -54 10.5 -73.5t36.5 -19.5t36 19t10 74v187q0 57 -10 76t-36 19t-36.5 -20t-10.5 -76z" />
    <glyph glyph-name="one.tosf" horiz-adv-x="390" 
d="M156 370h-112v105h49q50 0 69.5 26.5t26.5 91.5h112v-503h72v-90h-295v90h78v280z" />
    <glyph glyph-name="two.tosf" horiz-adv-x="390" 
d="M204 593q77 0 116.5 -45t39.5 -120q0 -43 -27.5 -99.5t-58 -98t-87.5 -112.5v-2h173v-116h-335l-2 78q203 254 203 342q0 29 -9 41t-29 12q-44 0 -64 -66l-102 35q53 151 182 151z" />
    <glyph glyph-name="three.tosf" horiz-adv-x="390" 
d="M354 426q0 -112 -61 -140v-2q74 -25 74 -127q0 -246 -316 -246l-12 118q110 0 150.5 30.5t40.5 99.5q0 39 -15.5 52.5t-56.5 13.5h-31v111h27q37 0 51.5 17t14.5 61q0 33 -8.5 46t-29.5 13q-41 0 -65 -66l-101 35q52 151 183 151q78 0 116.5 -45.5t38.5 -121.5z" />
    <glyph glyph-name="four.tosf" horiz-adv-x="390" 
d="M336 -87h-128v217h-208v104l200 350h136v-343h52l-8 -111h-44v-217zM131 241h80l12 183h-2z" />
    <glyph glyph-name="five.tosf" horiz-adv-x="390" 
d="M342 456h-186l-5 -112q36 13 74 13q141 0 141 -172q0 -274 -311 -274l-11 118q110 0 148.5 29t38.5 115q0 38 -13.5 53t-44.5 15q-30 0 -65 -18l-83 38l20 323h306z" />
    <glyph glyph-name="six.tosf" horiz-adv-x="390" 
d="M326 565q-80 0 -120 -39t-48 -131h2q27 15 62 15q151 0 151 -196q0 -224 -181 -224q-84 0 -125.5 58.5t-41.5 158.5v140q0 160 78.5 248.5t212.5 88.5zM198 290q-25 0 -40 -15v-64q0 -59 9.5 -80t32.5 -21q21 0 31 20t10 76q0 49 -10 66.5t-33 17.5z" />
    <glyph glyph-name="seven.tosf" horiz-adv-x="390" 
d="M193 -81h-142l184 537h-215v128h352v-115z" />
    <glyph glyph-name="eight.tosf" horiz-adv-x="390" 
d="M196 -10q-88 0 -133 41t-45 139q0 99 70 132v2q-59 35 -59 134q0 71 40 113t127 42t127 -42t40 -113q0 -98 -59 -133v-2q70 -34 70 -133q0 -98 -44.5 -139t-133.5 -41zM240 184q0 36 -10 50t-34 14q-23 0 -33 -14t-10 -49q0 -44 10 -61.5t33 -17.5q24 0 34 17t10 61z
M196 481q-21 0 -30 -14.5t-9 -51.5q0 -39 8.5 -54t30.5 -15q23 0 31.5 15t8.5 54q0 37 -9.5 51.5t-30.5 14.5z" />
    <glyph glyph-name="nine.tosf" horiz-adv-x="390" 
d="M54 29q90 0 131.5 41.5t46.5 146.5q-26 -13 -60 -13q-154 0 -154 185q0 204 181 204q84 0 125.5 -57t41.5 -155v-129q0 -165 -80.5 -253t-219.5 -88zM192 317q24 0 41 19v41q0 56 -9 76t-33 20q-21 0 -31 -16.5t-10 -61.5t10 -61.5t32 -16.5z" />
    <glyph glyph-name="less.tosf" horiz-adv-x="390" 
d="M336 373l-126 -87l126 -88v-144l-296 226v12l296 226v-145z" />
    <glyph glyph-name="equal.tosf" horiz-adv-x="390" 
d="M336 315h-281v107h281v-107zM336 155h-281v107h281v-107z" />
    <glyph glyph-name="greater.tosf" horiz-adv-x="390" 
d="M55 518l296 -226v-12l-296 -226v144l125 87l-125 89v144z" />
    <glyph glyph-name="cent.tosf" horiz-adv-x="390" 
d="M361 475l-108 -33q-13 69 -53 69q-27 0 -37.5 -20.5t-10.5 -72.5v-228q0 -52 12 -71t39 -19q21 0 33 15.5t18 55.5l107 -32q-27 -121 -116 -143l-17 -121h-79l-4 120q-124 24 -124 204v214q0 181 132 206l19 111h80l3 -118q80 -29 106 -137z" />
    <glyph glyph-name="sterling.tosf" horiz-adv-x="390" 
d="M353 476l-96 -32q-10 66 -44 66q-38 0 -38 -84q0 -35 3 -65h119l-9 -86h-99q7 -56 7 -104q13 -8 25.5 -22t21 -22.5t15.5 -8.5q14 0 21.5 13.5t9.5 52.5l95 -23q-9 -92 -36 -131t-75 -39q-53 0 -94 70h-2q-26 -70 -92 -70q-80 0 -80 90q0 38 23 66.5t65 37.5
q-3 15 -11 45.5t-12 44.5h-33l-9 86h23q-5 37 -5 69q0 90 40.5 142t116.5 52q62 0 100.5 -40t49.5 -108zM91 75q12 0 13 39q-21 -8 -21 -28q0 -11 8 -11z" />
    <glyph glyph-name="currency.tosf" horiz-adv-x="390" 
d="M78 319q0 33 14 61l-33 36l45 52l36 -39q27 15 54 15q28 0 56 -15l38 42l46 -51l-38 -42q14 -28 14 -59q0 -29 -14 -60l36 -38l-46 -51l-36 39q-26 -15 -56 -15q-29 0 -54 14l-37 -42l-46 51l36 40q-15 27 -15 62zM155 319q0 -21 11.5 -33t28.5 -12q18 0 29.5 12t11.5 33
q0 20 -11.5 32t-29.5 12q-17 0 -28.5 -12t-11.5 -32z" />
    <glyph glyph-name="yen.tosf" horiz-adv-x="390" 
d="M337 106h-75v-106h-133v106h-76v84h76v31h-76v85h50l-112 309h143l62 -264h2l58 264h145l-113 -309h49v-85h-75v-31h75v-84z" />
    <glyph glyph-name="logicalnot.tosf" horiz-adv-x="390" 
d="M251 110v127h-210v107h310v-234h-100z" />
    <glyph glyph-name="plusminus.tosf" horiz-adv-x="390" 
d="M146 137v120h-105v107h105v132h99v-132h106v-107h-106v-120h-99zM351 13h-310v106h310v-106z" />
    <glyph glyph-name="multiply.tosf" horiz-adv-x="390" 
d="M268 125l-89 97l-89 -97l-69 74l89 97l-88 97l67 75l89 -98l90 98l68 -75l-89 -97l89 -97z" />
    <glyph glyph-name="divide.tosf" horiz-adv-x="390" 
d="M350 238h-310v107h310v-107zM130 445q0 28 18.5 48.5t45.5 20.5q26 0 45 -20.5t19 -48.5q0 -29 -19 -49t-45 -20q-27 0 -45.5 20t-18.5 49zM130 142q0 28 18.5 48.5t45.5 20.5q26 0 45 -20.5t19 -48.5q0 -29 -19 -49t-45 -20q-27 0 -45.5 20t-18.5 49z" />
    <glyph glyph-name="uni2007.tosf" horiz-adv-x="390" 
 />
    <glyph glyph-name="franc.tosf" horiz-adv-x="390" 
d="M11 71v92h40v451h311v-125h-176v-126h151v-115h-151v-85h60v-92h-60v-71h-135v71h-40z" />
    <glyph glyph-name="lira.tosf" horiz-adv-x="390" 
d="M353 476l-96 -32q-10 66 -44 66q-38 0 -38 -84q0 -25 1 -37h146l-11 -71h-128l3 -20h123l-9 -65h-107q3 -29 3 -62q13 -8 25.5 -22t21 -22.5t15.5 -8.5q14 0 21.5 13.5t9.5 52.5l95 -23q-9 -92 -36 -131t-75 -39q-53 0 -94 70h-2q-26 -70 -92 -70q-80 0 -80 90
q0 38 23 66.5t65 37.5q-5 23 -12 48h-36l-10 65h29l-4 20h-28l-11 71h27q-2 13 -2 41q0 90 40.5 142t116.5 52q62 0 100.5 -40t49.5 -108zM91 75q12 0 13 39q-21 -8 -21 -28q0 -11 8 -11z" />
    <glyph glyph-name="peseta.tosf" horiz-adv-x="390" 
d="M2 368v84h32v163h167q66 0 106 -42.5t48 -120.5h32v-84h-32q-8 -79 -46 -120t-101 -41h-43v-207h-131v368h-32zM198 307q25 0 28 68h-61v-68h33zM165 504v-58h61q-2 33 -8.5 45.5t-19.5 12.5h-33z" />
    <glyph glyph-name="Euro.tosf" horiz-adv-x="390" 
d="M367 474l-108 -30q-7 38 -18 52t-31 14q-24 0 -34 -19t-10 -68v-22h106l-8 -75h-98v-20h94l-11 -74h-83v-39q0 -55 10.5 -74t34.5 -19q20 0 31 14.5t17 55.5l110 -31q-32 -149 -165 -149q-88 0 -129 53t-41 158v31h-26v74h26v20h-26v75h26v16q0 95 42.5 150.5t127.5 55.5
q62 0 106.5 -38.5t56.5 -110.5z" />
    <glyph glyph-name="uni20B4.tosf" horiz-adv-x="390" 
d="M26 318v81h182q15 30 15 61q0 33 -9.5 46t-31.5 13t-35.5 -14t-21.5 -53l-95 28q35 144 165 144q70 0 107 -44t37 -108q0 -40 -15 -73h25v-81h-89q-3 -4 -10.5 -10.5t-9.5 -8.5h109v-81h-175q-16 -34 -16 -72q0 -50 44 -50q43 0 58 70l88 -26q-30 -150 -158 -150
q-74 0 -111 40.5t-37 104.5q0 46 17 83h-33v81h94l19 19h-113z" />
    <glyph glyph-name="minus.tosf" horiz-adv-x="390" 
d="M351 237h-310v107h310v-107z" />
    <glyph glyph-name="approxequal.tosf" horiz-adv-x="390" 
d="M337 428v-106q-39 -23 -77 -23q-27 0 -71.5 17t-67.5 17q-32 0 -66 -23v105q39 23 77 23q29 0 76 -17.5t68 -17.5q32 0 61 25zM337 267v-105q-41 -23 -77 -23q-27 0 -71.5 16.5t-67.5 16.5q-32 0 -66 -23v105q39 23 77 23q29 0 76 -17.5t68 -17.5q32 0 61 25z" />
    <glyph glyph-name="notequal.tosf" horiz-adv-x="390" 
d="M336 155h-150l-31 -87l-65 24l22 63h-57v107h95l19 53h-114v107h152l31 88l65 -26l-22 -62h55v-107h-93l-19 -53h112v-107z" />
    <glyph glyph-name="lessequal.tosf" horiz-adv-x="390" 
d="M336 384l-111 -64l111 -63v-139l-296 197v11l296 201v-143zM41 13v96h295v-96h-295z" />
    <glyph glyph-name="greaterequal.tosf" horiz-adv-x="390" 
d="M55 257l111 63l-111 64v143l296 -201v-11l-296 -197v139zM350 109v-96h-295v96h295z" />
    <glyph glyph-name="exclam.sc" horiz-adv-x="184" 
d="M30 585h123v-247l-13 -151h-98l-12 150v248zM28 0v134h127v-134h-127z" />
    <glyph glyph-name="ampersand.sc" horiz-adv-x="446" 
d="M348 471l-97 -41q-21 60 -49 60q-25 0 -25 -30q0 -26 13 -50l98 -154q7 47 7 88v23h134v-100h-47q-6 -65 -24 -119q33 -40 82 -45l-15 -111q-80 5 -127 52q-53 -53 -129 -53q-68 0 -111.5 44.5t-43.5 138.5q0 112 79 172q-35 58 -35 109q0 56 36.5 96t105.5 40
q57 0 92.5 -30t55.5 -90zM187 95q30 0 53 31l-84 127q-16 -35 -16 -76q0 -46 12 -64t35 -18z" />
    <glyph glyph-name="question.sc" horiz-adv-x="349" 
d="M335 443q0 -62 -29 -118t-84 -92l-4 -52h-95l-8 114q95 43 95 136q0 48 -38 48q-25 0 -39.5 -15t-23.5 -54l-102 30q39 151 173 151q77 0 116 -41.5t39 -106.5zM107 0v134h128v-134h-128z" />
    <glyph glyph-name="grave.sc" horiz-adv-x="225" 
d="M2 725h136l31 -114h-93z" />
    <glyph glyph-name="a.sc" horiz-adv-x="418" 
d="M154 112l-18 -112h-135l129 585h158l128 -585h-137l-19 112h-106zM206 433l-35 -218h72l-35 218h-2z" />
    <glyph glyph-name="b.sc" horiz-adv-x="400" 
d="M365 427q0 -94 -61 -123v-2q80 -25 80 -132q0 -83 -37 -126.5t-128 -43.5h-185v585h164q86 0 126.5 -43t40.5 -115zM167 246v-133h44q23 0 31 14t8 53q0 41 -8 53.5t-30 12.5h-45zM167 468v-123h37q23 0 31 13t8 51q0 36 -8 47.5t-31 11.5h-37z" />
    </font>
</defs>
</svg>
