<?xml version="1.0" standalone="no"?>
<!DOCTYPE svg PUBLIC "-//W3C//DTD SVG 1.1//EN" "http://www.w3.org/Graphics/SVG/1.1/DTD/svg11.dtd" >
<svg>
<metadata>
Created by FontForge 20090622 at Fri Mar 17 13:39:34 2017
 By deploy user
2006 Lukasz Dziedzic published by FSI FontShop International GmbH
</metadata>
<defs>
<font id="GoodPro-CondBook" horiz-adv-x="425" >
  <font-face 
    font-family="GoodPro-CondBook"
    font-weight="450"
    font-stretch="condensed"
    units-per-em="1000"
    panose-1="2 11 6 6 2 1 1 2 1 2"
    ascent="820"
    descent="-180"
    x-height="505"
    cap-height="725"
    bbox="-459 -209 1005 919"
    underline-thickness="70"
    underline-position="-20"
    unicode-range="U+000D-U+FB04"
  />
<missing-glyph horiz-adv-x="405" 
d="M214 256l5 69q93 61 93 149q0 47 -27.5 78t-83.5 31q-47 0 -79 -28t-44 -75l45 -13q21 66 75 66q57 0 57 -63q0 -77 -87 -123l3 -91h43zM161 200v-74h68v74h-68zM16 0v724h358v-724h-358z" />
    <glyph glyph-name="f_f" unicode="ff" horiz-adv-x="479" 
d="M466 505v-57h-103v-448h-70v448h-155v-448h-70v448h-54v57h54v53q0 76 40.5 121.5t124.5 49.5l4 -55q-101 -6 -101 -118v-51h157v53q0 76 40.5 121.5t124.5 49.5l4 -55q-101 -6 -101 -118v-51h105z" />
    <glyph glyph-name="f_f_i" unicode="ffi" horiz-adv-x="643" 
d="M456 729l4 -55q-101 -6 -101 -118v-51h226v-505h-71v448h-153v-448h-70v448h-153v-448h-70v448h-54v57h54v53q0 76 40.5 121.5t124.5 49.5l4 -55q-101 -6 -101 -118v-51h155v53q0 76 40.5 121.5t124.5 49.5zM516 725h66v-105h-66v105z" />
    <glyph glyph-name="f_f_j" unicode="ffj" horiz-adv-x="644" 
d="M456 729l4 -55q-101 -6 -101 -118v-51h226v-485q0 -171 -146 -185l-7 59q42 7 62 36.5t20 89.5v428h-153v-448h-70v448h-153v-448h-70v448h-54v57h54v53q0 76 40.5 121.5t124.5 49.5l4 -55q-101 -6 -101 -118v-51h155v53q0 76 40.5 121.5t124.5 49.5zM516 725h66v-105
h-66v105z" />
    <glyph glyph-name="f_f_l" unicode="ffl" horiz-adv-x="650" 
d="M290 505v53q0 80 44 125t136 45h46v21h71v-749h-71v674h-44q-59 -1 -86.5 -29.5t-27.5 -88.5v-51h99v-57h-96v-448h-71v448h-152v-448h-70v448h-54v57h54v53q0 76 40.5 121.5t124.5 49.5l4 -55q-101 -6 -101 -118v-51h154z" />
    <glyph glyph-name="f_i" unicode="fi" horiz-adv-x="420" 
d="M233 729l4 -55q-101 -6 -101 -118v-51h226v-505h-71v448h-153v-448h-70v448h-54v57h54v53q0 76 40.5 121.5t124.5 49.5zM293 725h66v-105h-66v105z" />
    <glyph glyph-name="f_j" unicode="fj" horiz-adv-x="421" 
d="M233 729l4 -55q-101 -6 -101 -118v-51h226v-485q0 -171 -146 -185l-7 59q42 7 62 36.5t20 89.5v428h-153v-448h-70v448h-54v57h54v53q0 76 40.5 121.5t124.5 49.5zM293 725h66v-105h-66v105z" />
    <glyph glyph-name="f_l" unicode="fl" horiz-adv-x="427" 
d="M234 505v-58h-96v-447h-70v447h-54v58h54v53q0 80 43.5 125t135.5 45h47v21h71v-749h-71v674h-45q-59 -1 -86 -29.5t-27 -88.5v-51h98z" />
    <glyph glyph-name=".notdef" horiz-adv-x="405" 
d="M214 256l5 69q93 61 93 149q0 47 -27.5 78t-83.5 31q-47 0 -79 -28t-44 -75l45 -13q21 66 75 66q57 0 57 -63q0 -77 -87 -123l3 -91h43zM161 200v-74h68v74h-68zM16 0v724h358v-724h-358z" />
    <glyph glyph-name=".null" horiz-adv-x="0" 
 />
    <glyph glyph-name=".null" horiz-adv-x="0" 
 />
    <glyph glyph-name="nonmarkingreturn" horiz-adv-x="333" 
 />
    <glyph glyph-name="CR" unicode="&#xd;" horiz-adv-x="177" 
 />
    <glyph glyph-name="space" unicode=" " horiz-adv-x="177" 
 />
    <glyph glyph-name="exclam" unicode="!" horiz-adv-x="190" 
d="M57 725h72v-317l-8 -204h-56l-8 202v319zM49 0v97h89v-97h-89z" />
    <glyph glyph-name="quotedbl" unicode="&#x22;" horiz-adv-x="251" 
d="M147 614v111h64v-111l-17 -106h-32zM38 614v111h64v-111l-17 -106h-32z" />
    <glyph glyph-name="numbersign" unicode="#" horiz-adv-x="428" 
d="M28 452v53h92l15 220h53l-15 -220h103l15 220h53l-15 -220h71v-53h-73l-12 -177h85v-53h-86l-16 -222h-53l16 222h-103l-16 -222h-53l16 222h-77v53h78l12 177h-90zM171 452l-12 -177h103l13 177h-104z" />
    <glyph glyph-name="dollar" unicode="$" horiz-adv-x="389" 
d="M186 818h45l1 -87q96 -22 124 -142l-53 -18q-19 80 -76 96l-11 -264q34 -24 53 -40.5t43 -45t35.5 -63t11.5 -77.5q0 -80 -39.5 -129.5t-106.5 -56.5l-10 -86h-45l-2 89q-106 20 -131 158l56 20q19 -94 81 -111l12 281l-42 31.5t-37 33t-34 42t-20 49t-9 63.5
q0 74 38.5 120.5t105.5 52.5zM295 168q0 79 -81 144h-2l-1 -254q84 9 84 110zM97 567q0 -71 78 -134h2l1 237q-81 -10 -81 -103z" />
    <glyph glyph-name="percent" unicode="%" horiz-adv-x="490" 
d="M235 609v-68q0 -60 -25.5 -92t-74.5 -32q-101 0 -101 124v68q0 126 101 126q49 0 74.5 -32.5t25.5 -93.5zM87 610v-69q0 -40 11 -57t37 -17q47 0 47 74v69q0 73 -47 73q-26 0 -37 -17t-11 -56zM39 1l350 724h58l-351 -724h-57zM460 179v-68q0 -60 -26 -91.5t-75 -31.5
q-101 0 -101 123v68q0 61 25.5 93.5t75.5 32.5q49 0 75 -33t26 -93zM311 180v-69q0 -39 11.5 -56.5t36.5 -17.5q48 0 48 74v69q0 73 -48 73t-48 -73z" />
    <glyph glyph-name="ampersand" unicode="&#x26;" horiz-adv-x="487" 
d="M362 607l-51 -28q-32 93 -91 93q-67 0 -67 -84q0 -51 25 -94l150 -266q20 88 20 196v13h120v-59h-63q-5 -130 -37 -220q50 -78 120 -100l-13 -65q-80 16 -140 92q-57 -94 -149 -94q-75 0 -119 50.5t-44 155.5q0 73 29 136t80 106l-2 4q-46 70 -46 143q0 66 35 107t99 41
q53 0 87.5 -30t56.5 -97zM194 54q65 0 106 89l-135 238q-32 -33 -50 -84t-18 -99q0 -144 97 -144z" />
    <glyph glyph-name="quotesingle" unicode="'" horiz-adv-x="140" 
d="M38 614v111h64v-111l-17 -106h-32z" />
    <glyph glyph-name="parenleft" unicode="(" horiz-adv-x="216" 
d="M52 170v318q0 173 44 247.5t132 74.5h22v-53h-22q-54 0 -84 -61t-30 -208v-318q0 -269 114 -269h22v-53h-22q-88 0 -132 74.5t-44 247.5z" />
    <glyph glyph-name="parenright" unicode=")" horiz-adv-x="216" 
d="M163 488v-318q0 -173 -43.5 -247.5t-132.5 -74.5h-21v54h21q54 0 84 61t30 207v318q0 146 -29.5 207t-84.5 61h-21v54h21q89 0 132.5 -74.5t43.5 -247.5z" />
    <glyph glyph-name="asterisk" unicode="*" horiz-adv-x="282" 
d="M120 698l-8 97h48l-7 -97l86 38l15 -50l-91 -22l61 -74l-39 -31l-49 84l-47 -83l-40 31l61 73l-91 22l15 49z" />
    <glyph glyph-name="plus" unicode="+" horiz-adv-x="382" 
d="M162 104v178h-119v59h119v178h55v-178h122v-59h-122v-178h-55z" />
    <glyph glyph-name="comma" unicode="," horiz-adv-x="178" 
d="M45 0v93h89v-71q0 -127 -85 -138l-5 38q24 6 32.5 22.5t8.5 55.5h-40z" />
    <glyph glyph-name="hyphen" unicode="-" horiz-adv-x="221" 
d="M20 261v66h181v-66h-181z" />
    <glyph glyph-name="period" unicode="." horiz-adv-x="177" 
d="M44 0v97h89v-97h-89z" />
    <glyph glyph-name="slash" unicode="/" horiz-adv-x="249" 
d="M-18 -85l211 831h58l-211 -831h-58z" />
    <glyph glyph-name="zero" unicode="0" horiz-adv-x="442" 
d="M395 524v-325q0 -100 -44.5 -154.5t-129.5 -54.5t-129.5 54.5t-44.5 154.5v325q0 100 44.5 155.5t129.5 55.5t129.5 -55.5t44.5 -155.5zM120 524v-325q0 -73 25 -107t76 -34q101 0 101 141v325q0 142 -101 142t-101 -142z" />
    <glyph glyph-name="one" unicode="1" horiz-adv-x="299" 
d="M163 728h57v-728h-76v551h-116v57h54q45 0 61 21.5t20 98.5z" />
    <glyph glyph-name="two" unicode="2" horiz-adv-x="418" 
d="M215 735q80 0 120.5 -47t40.5 -127q0 -64 -24 -120t-59 -98.5l-71 -83t-64.5 -90t-34.5 -102.5h259v-67h-334l-2 42q2 64 29 123.5t64 106l74 90.5t63 95t26 102q0 108 -91 108q-41 0 -68.5 -31t-37.5 -90l-59 17q13 77 56.5 124.5t112.5 47.5z" />
    <glyph glyph-name="three" unicode="3" horiz-adv-x="411" 
d="M147 345v63h38q51 0 76.5 30.5t25.5 101.5q0 69 -22.5 98t-66.5 29q-80 0 -105 -111l-58 17q16 76 60 119t108 43q80 0 119.5 -49t39.5 -138q0 -134 -84 -167v-2q95 -25 95 -167q0 -222 -172 -222q-136 0 -170 145l56 19q27 -98 111 -98q52 0 75 38t23 121
q0 75 -27 102.5t-81 27.5h-41z" />
    <glyph glyph-name="four" unicode="4" horiz-adv-x="414" 
d="M338 0h-68v138h-260v51l255 536h73v-523h74l-6 -64h-68v-138zM87 202h183l4 417h-2z" />
    <glyph glyph-name="five" unicode="5" horiz-adv-x="416" 
d="M98 343l-49 23l24 359h290l-6 -70h-225l-16 -235h2q49 34 107 34q80 0 119.5 -53.5t39.5 -169.5q0 -241 -179 -241q-62 0 -105 37t-58 109l57 19q25 -99 104 -99q55 0 80.5 41t25.5 134q0 86 -25.5 121t-82.5 35q-30 0 -58.5 -12t-44.5 -32z" />
    <glyph glyph-name="six" unicode="6" horiz-adv-x="423" 
d="M222 735q122 0 154 -147l-55 -21q-23 100 -96 100q-105 0 -105 -159v-102h2q39 45 112 45q81 0 118 -52.5t37 -161.5q0 -247 -172 -247q-80 0 -125 54.5t-45 159.5v298q0 107 46.5 170t128.5 63zM220 385q-40 0 -70 -21t-30 -55v-111q0 -72 27 -106t71 -34q50 0 74.5 42
t24.5 136q0 77 -23.5 113t-73.5 36z" />
    <glyph glyph-name="seven" unicode="7" horiz-adv-x="379" 
d="M160 0h-81l211 656h-278v69h355v-59z" />
    <glyph glyph-name="eight" unicode="8" horiz-adv-x="430" 
d="M215 -10q-91 0 -134 49.5t-43 171.5q0 142 85 173v2q-74 34 -74 162q0 92 39.5 139.5t126.5 47.5t126.5 -47.5t39.5 -139.5q0 -128 -74 -162v-2q85 -31 85 -173q0 -122 -43 -171.5t-134 -49.5zM319 214q0 76 -26.5 106t-77.5 30t-77.5 -30t-26.5 -106q0 -90 24 -124
t80 -34q55 0 79.5 33.5t24.5 124.5zM215 670q-51 0 -73.5 -28t-22.5 -100t22.5 -101t73.5 -29t73.5 29t22.5 101t-22.5 100t-73.5 28z" />
    <glyph glyph-name="nine" unicode="9" horiz-adv-x="424" 
d="M95 151q16 -50 41 -71.5t66 -21.5q48 0 74.5 31.5t26.5 94.5v161h-2q-39 -44 -108 -44q-158 0 -158 212q0 222 177 222q78 0 121.5 -52.5t43.5 -144.5v-351q0 -91 -47 -143.5t-125 -52.5q-130 0 -163 136zM205 365q37 0 67.5 21.5t30.5 54.5v100q0 126 -93 126
q-51 0 -76.5 -36.5t-25.5 -115.5q0 -83 24.5 -116.5t72.5 -33.5z" />
    <glyph glyph-name="colon" unicode=":" horiz-adv-x="177" 
d="M44 387v97h89v-97h-89zM44 0v97h89v-97h-89z" />
    <glyph glyph-name="semicolon" unicode=";" horiz-adv-x="177" 
d="M44 387v97h89v-97h-89zM45 0v93h89v-71q0 -127 -85 -138l-5 38q24 6 32.5 22.5t8.5 55.5h-40z" />
    <glyph glyph-name="less" unicode="&#x3c;" horiz-adv-x="382" 
d="M318 450l-179 -136l180 -135v-81l-272 211v10l271 211v-80z" />
    <glyph glyph-name="equal" unicode="=" horiz-adv-x="382" 
d="M333 339h-284v59h284v-59zM333 210h-284v60h284v-60z" />
    <glyph glyph-name="greater" unicode="&#x3e;" horiz-adv-x="382" 
d="M63 179l179 135l-178 136v80l271 -211v-10l-272 -211v81z" />
    <glyph glyph-name="question" unicode="?" horiz-adv-x="389" 
d="M18 576q17 72 63 115.5t114 43.5q80 0 119 -47t39 -121q0 -76 -37 -142t-101 -108l-7 -113h-53l-5 149q130 84 130 209q0 107 -88 107t-115 -110zM138 0v97h89v-97h-89z" />
    <glyph glyph-name="at" unicode="@" horiz-adv-x="626" 
d="M456 452h-23l-20 -260q-1 -7 -1 -19q0 -56 45 -56q34 0 51.5 32.5t17.5 116.5v172q0 116 -53 178.5t-154 62.5q-105 0 -163 -70t-58 -187v-253q0 -135 60.5 -203.5t167.5 -68.5q125 0 197 85l39 -30q-89 -109 -237 -109q-135 0 -209 83.5t-74 241.5v255q0 138 73 225
t204 87q126 0 194 -81.5t68 -215.5v-171q0 -105 -33.5 -156t-92.5 -51q-66 0 -86 52h-2q-38 -55 -104 -55q-97 0 -97 139q0 144 55 226t154 82h82zM351 185l21 260h-11q-61 0 -95.5 -63.5t-34.5 -183.5q0 -46 11.5 -64t34.5 -18q49 0 74 69z" />
    <glyph glyph-name="A" unicode="A" horiz-adv-x="475" 
d="M134 192l-43 -192h-79l180 725h90l180 -725h-80l-44 192h-204zM235 645l-87 -390h176l-87 390h-2z" />
    <glyph glyph-name="B" unicode="B" horiz-adv-x="458" 
d="M396 543q0 -69 -20.5 -107t-65.5 -54v-2q112 -27 112 -173q0 -107 -40.5 -157t-136.5 -50h-180v725h160q171 0 171 -182zM141 343v-273h102q54 0 77.5 30.5t23.5 110.5q0 72 -24 102t-76 30h-103zM141 654v-246h87q52 0 73 31t21 97q0 64 -22 91t-73 27h-86z" />
    <glyph glyph-name="C" unicode="C" horiz-adv-x="421" 
d="M226 735q64 0 108 -41.5t57 -108.5l-60 -20q-22 100 -101 100q-104 0 -104 -147v-318q0 -66 26.5 -104t76.5 -38q45 0 68.5 24t34.5 84l60 -18q-14 -84 -55 -121t-113 -37q-82 0 -129.5 57.5t-47.5 151.5v319q0 102 47.5 159.5t131.5 57.5z" />
    <glyph glyph-name="D" unicode="D" horiz-adv-x="490" 
d="M65 725h184q93 0 143.5 -57t50.5 -160v-294q0 -101 -50.5 -157.5t-143.5 -56.5h-184v725zM365 505q0 149 -116 149h-106v-585h106q116 0 116 147v289z" />
    <glyph glyph-name="E" unicode="E" horiz-adv-x="415" 
d="M65 725h310v-72h-232v-244h188v-65h-188v-272h246v-72h-324v725z" />
    <glyph glyph-name="F" unicode="F" horiz-adv-x="405" 
d="M65 725h312v-72h-234v-250h203v-69h-203v-334h-78v725z" />
    <glyph glyph-name="G" unicode="G" horiz-adv-x="469" 
d="M239 735q70 0 117.5 -40.5t62.5 -111.5l-60 -19q-30 101 -114 101q-120 0 -120 -161v-296q0 -147 117 -147q38 0 64 16.5t45 56.5v158h-81v58h151v-350h-65v57h-2q-45 -66 -130 -66q-84 0 -130.5 56t-46.5 160v297q0 107 48.5 169t143.5 62z" />
    <glyph glyph-name="H" unicode="H" horiz-adv-x="494" 
d="M65 725h78v-315h208v315h79v-725h-79v338h-208v-338h-78v725z" />
    <glyph glyph-name="I" unicode="I" horiz-adv-x="236" 
d="M79 725h78v-725h-78v725z" />
    <glyph glyph-name="J" unicode="J" horiz-adv-x="224" 
d="M81 725h79v-621q0 -235 -207 -238l-6 66q69 0 101.5 40.5t32.5 129.5v623z" />
    <glyph glyph-name="K" unicode="K" horiz-adv-x="464" 
d="M453 0h-89l-162 342h-2l-58 -95v-247h-77v725h77v-381h2l205 381h88l-184 -324z" />
    <glyph glyph-name="L" unicode="L" horiz-adv-x="384" 
d="M65 725h76v-652h224v-73h-300v725z" />
    <glyph glyph-name="M" unicode="M" horiz-adv-x="629" 
d="M494 725h70v-725h-70v532h-2l-160 -397h-36l-159 396h-2v-531h-70v725h70l178 -470h2z" />
    <glyph glyph-name="N" unicode="N" horiz-adv-x="494" 
d="M65 725h60l233 -521h2v521h70v-725h-55l-239 535h-2v-535h-69v725z" />
    <glyph glyph-name="O" unicode="O" horiz-adv-x="473" 
d="M236 735q93 0 141.5 -55.5t48.5 -157.5v-319q0 -102 -48.5 -157.5t-141.5 -55.5q-92 0 -140.5 55.5t-48.5 157.5v319q0 102 48.5 157.5t140.5 55.5zM347 203v319q0 143 -111 143t-111 -143v-319q0 -144 111 -144t111 144z" />
    <glyph glyph-name="P" unicode="P" horiz-adv-x="443" 
d="M247 725q82 0 124.5 -55.5t42.5 -161.5q0 -103 -42 -159.5t-122 -56.5h-107v-292h-78v725h182zM143 655v-297h102q48 0 69.5 35.5t21.5 114.5t-21.5 113t-69.5 34h-102z" />
    <glyph glyph-name="Q" unicode="Q" horiz-adv-x="473" 
d="M236 735q93 0 141.5 -55.5t48.5 -157.5v-319q0 -174 -133 -206l87 -123l-69 -26l-86 142q-87 4 -132.5 59.5t-45.5 153.5v319q0 102 48.5 157.5t140.5 55.5zM347 203v319q0 143 -111 143t-111 -143v-319q0 -144 111 -144t111 144z" />
    <glyph glyph-name="R" unicode="R" horiz-adv-x="453" 
d="M352 0l-130 321h-79v-321h-78v725h173q165 0 165 -195q0 -165 -108 -193l142 -337h-85zM143 655v-268h88q51 0 72.5 32.5t21.5 105.5q0 71 -21 100.5t-70 29.5h-91z" />
    <glyph glyph-name="S" unicode="S" horiz-adv-x="391" 
d="M193 735q66 0 109 -38t61 -106l-58 -22q-23 98 -107 98q-92 0 -92 -103q0 -45 27 -81t65 -62.5l76.5 -55t65.5 -75t27 -106.5q0 -93 -46 -143.5t-125 -50.5q-66 0 -113 42t-61 119l62 21q24 -114 112 -114q96 0 96 117q0 36 -14.5 65t-37.5 50t-51.5 40.5l-56.5 40.5
t-51 45.5t-37.5 61t-14.5 81.5q0 78 44 127t120 49z" />
    <glyph glyph-name="T" unicode="T" horiz-adv-x="378" 
d="M11 725h356v-73h-139v-652h-78v652h-139v73z" />
    <glyph glyph-name="U" unicode="U" horiz-adv-x="493" 
d="M358 725h78v-529q0 -99 -49 -152.5t-140 -53.5q-92 0 -141 53t-49 151v531h78v-532q0 -130 112 -130q111 0 111 130v532z" />
    <glyph glyph-name="V" unicode="V" horiz-adv-x="461" 
d="M451 725l-180 -725h-82l-179 725h84l136 -617h2l134 617h85z" />
    <glyph glyph-name="W" unicode="W" horiz-adv-x="716" 
d="M690 725l-136 -725h-87l-108 574h-2l-109 -574h-87l-135 725h78l103 -614h2l113 614h73l111 -616h2l105 616h77z" />
    <glyph glyph-name="X" unicode="X" horiz-adv-x="453" 
d="M19 0l158 367l-153 358h84l119 -309h2l117 309h84l-153 -361l157 -364h-84l-124 312h-2l-122 -312h-83z" />
    <glyph glyph-name="Y" unicode="Y" horiz-adv-x="439" 
d="M433 725l-174 -480v-245h-79v248l-174 477h86l127 -396h2l127 396h85z" />
    <glyph glyph-name="Z" unicode="Z" horiz-adv-x="413" 
d="M379 72v-72h-351v50l264 603h-248v72h335v-48l-263 -605h263z" />
    <glyph glyph-name="bracketleft" unicode="[" horiz-adv-x="213" 
d="M60 -152v962h203v-54h-137v-854h137v-54h-203z" />
    <glyph glyph-name="backslash" unicode="\" horiz-adv-x="254" 
d="M40 746l210 -831h-58l-211 831h59z" />
    <glyph glyph-name="bracketright" unicode="]" horiz-adv-x="215" 
d="M154 810v-962h-203v56h136v850h-136v56h203z" />
    <glyph glyph-name="asciicircum" unicode="^" horiz-adv-x="373" 
d="M43 524l121 227h48l118 -227h-59l-82 164h-2l-84 -164h-60z" />
    <glyph glyph-name="underscore" unicode="_" horiz-adv-x="319" 
d="M0 -53h319v-54h-319v54z" />
    <glyph glyph-name="grave" unicode="`" horiz-adv-x="214" 
d="M2 725h81l58 -135h-54z" />
    <glyph glyph-name="a" unicode="a" horiz-adv-x="369" 
d="M93 378l-48 24q45 113 140 113q65 0 96.5 -41.5t31.5 -114.5v-274q0 -39 33 -39h12v-46q-20 -6 -36 -6q-51 0 -70 43q-41 -45 -104 -45q-53 0 -84.5 36t-31.5 99q0 162 180 162h30v70q0 96 -65 96q-55 0 -84 -77zM163 47q49 0 79 45v143h-30q-61 0 -86.5 -26t-25.5 -77
q0 -85 63 -85z" />
    <glyph glyph-name="b" unicode="b" horiz-adv-x="402" 
d="M232 -7q-72 0 -109 51h-2l-4 -44h-61v749h71v-283h2q37 48 107 48q61 0 94 -43.5t33 -123.5v-188q0 -80 -33.5 -123t-97.5 -43zM127 404v-301q29 -49 86 -49q79 0 79 104v187q0 106 -78 106q-53 0 -87 -47z" />
    <glyph glyph-name="c" unicode="c" horiz-adv-x="342" 
d="M323 399l-52 -20q-20 74 -81 74q-80 0 -80 -104v-192q0 -105 80 -105q61 0 82 77l53 -18q-31 -119 -139 -119q-71 0 -109 45.5t-38 116.5v197q0 72 38 117.5t108 45.5q51 0 87 -30t51 -85z" />
    <glyph glyph-name="d" unicode="d" horiz-adv-x="403" 
d="M170 514q66 0 103 -45h2v280h71v-749h-62l-3 43h-2q-39 -51 -112 -51q-61 0 -94.5 43t-33.5 123v189q0 80 34 123.5t97 43.5zM275 99v307q-33 45 -86 45q-79 0 -79 -105v-188q0 -105 78 -105q54 0 87 46z" />
    <glyph glyph-name="e" unicode="e" horiz-adv-x="367" 
d="M334 251h-224v-94q0 -105 85 -105q33 0 53.5 20t33.5 67l54 -18q-31 -129 -147 -129q-72 0 -111 45t-39 118v196q0 73 39 118t110 45q69 0 107.5 -46t38.5 -120v-97zM110 354v-53h160v54q0 100 -80 100t-80 -101z" />
    <glyph glyph-name="f" unicode="f" horiz-adv-x="254" 
d="M241 505v-57h-103v-448h-70v448h-54v57h54v53q0 76 40.5 121.5t124.5 49.5l4 -55q-101 -6 -101 -118v-51h105z" />
    <glyph glyph-name="g" unicode="g" horiz-adv-x="386" 
d="M194 176q-39 0 -65 10q-33 -17 -33 -44q0 -40 55 -40h80q72 0 104 -31t32 -92q0 -76 -46 -117t-127 -41q-74 0 -111.5 32t-37.5 90q0 67 42 104q-51 22 -51 80q0 53 55 83q-38 38 -38 134q0 90 33.5 130t106.5 40q54 0 85 -20q39 25 55 64l37 -15q-11 -55 -54 -92
q20 -42 20 -107q0 -89 -34 -128.5t-108 -39.5zM121 343q0 -66 15.5 -88.5t57.5 -22.5q43 0 58.5 22.5t15.5 88.5t-16.5 89.5t-57.5 23.5t-57 -23.5t-16 -89.5zM226 37h-85q-34 -24 -34 -85q0 -75 90 -75q58 0 81.5 23.5t23.5 68.5q0 38 -16 53t-60 15z" />
    <glyph glyph-name="h" unicode="h" horiz-adv-x="409" 
d="M127 404v-404h-71v749h71v-284h2q37 49 106 49q62 0 95 -43.5t33 -123.5v-347h-71v346q0 105 -78 105q-56 0 -87 -47z" />
    <glyph glyph-name="i" unicode="i" horiz-adv-x="191" 
d="M60 505h71v-505h-71v505zM61 725h69v-105h-69v105z" />
    <glyph glyph-name="j" unicode="j" horiz-adv-x="202" 
d="M71 725h69v-105h-69v105zM-5 -165l-6 59q41 7 61 36.5t20 89.5v485h71v-485q0 -171 -146 -185z" />
    <glyph glyph-name="k" unicode="k" horiz-adv-x="397" 
d="M56 749h71v-503h2l166 259h77l-142 -217l159 -288h-81l-125 237l-56 -73v-164h-71v749z" />
    <glyph glyph-name="l" unicode="l" horiz-adv-x="196" 
d="M62 749h71v-749h-71v749z" />
    <glyph glyph-name="m" unicode="m" horiz-adv-x="599" 
d="M339 347v-347h-71v347q0 103 -67 103q-55 0 -77 -64v-386h-71v505h62v-52h2q36 61 102 61q73 0 99 -70h2q35 70 110 70q123 0 123 -167v-347h-71v347q0 103 -69 103q-74 0 -74 -103z" />
    <glyph glyph-name="n" unicode="n" horiz-adv-x="405" 
d="M124 404v-404h-71v505h62l2 -44h2q41 53 112 53q62 0 95.5 -43.5t33.5 -123.5v-347h-71v346q0 105 -78 105q-54 0 -87 -47z" />
    <glyph glyph-name="o" unicode="o" horiz-adv-x="386" 
d="M347 351v-198q0 -73 -40.5 -117t-114.5 -44q-73 0 -113 43.5t-40 117.5v198q0 73 40 118t113 45q75 0 115 -44.5t40 -118.5zM110 349v-194q0 -104 82 -104q84 0 84 104v194q0 105 -84 105q-82 0 -82 -105z" />
    <glyph glyph-name="p" unicode="p" horiz-adv-x="399" 
d="M229 -8q-67 0 -103 45h-2v-208h-71v676h62l3 -43h2q39 52 112 52q62 0 95 -44t33 -123v-188q0 -80 -34 -123.5t-97 -43.5zM124 404v-306q32 -45 86 -45q79 0 79 105v187q0 106 -78 106q-55 0 -87 -47z" />
    <glyph glyph-name="q" unicode="q" horiz-adv-x="399" 
d="M175 514q71 0 108 -57h2l3 48h58v-676h-71v213h-2q-38 -52 -106 -52q-60 0 -94 43t-34 119v200q0 76 36 119t100 43zM275 120v278q-32 53 -84 53q-38 0 -59.5 -26t-21.5 -77v-193q0 -102 80 -102q61 0 85 67z" />
    <glyph glyph-name="r" unicode="r" horiz-adv-x="283" 
d="M271 501l-9 -70q-16 11 -40 11q-87 0 -98 -140v-302h-71v505h61l3 -83h2q32 91 104 91q29 0 48 -12z" />
    <glyph glyph-name="s" unicode="s" horiz-adv-x="331" 
d="M172 -8q-107 0 -140 113l55 22q23 -80 83 -80q68 0 68 80q0 33 -21 57t-51 40t-59.5 34t-50.5 49t-21 75q0 57 35 94.5t99 37.5q49 0 83 -29t48 -82l-53 -19q-20 73 -76 73q-34 0 -51 -18.5t-17 -51.5q0 -31 21 -53t50.5 -38t59 -34.5t50.5 -51t21 -78.5q0 -62 -37 -101
t-96 -39z" />
    <glyph glyph-name="t" unicode="t" horiz-adv-x="270" 
d="M244 505v-59h-102v-329q0 -67 54 -67q20 0 40 10l9 -46q-32 -22 -73 -22q-102 0 -102 126v325l-55 12v49l58 4l18 140h51v-143h102z" />
    <glyph glyph-name="u" unicode="u" horiz-adv-x="405" 
d="M282 100v405h70v-505h-62l-3 43h-2q-39 -51 -112 -51q-61 0 -94.5 43.5t-33.5 122.5v347h71v-347q0 -104 78 -104q55 0 88 46z" />
    <glyph glyph-name="v" unicode="v" horiz-adv-x="391" 
d="M378 505l-143 -505h-81l-140 505h78l102 -432h2l103 432h79z" />
    <glyph glyph-name="w" unicode="w" horiz-adv-x="580" 
d="M373 0l-82 409h-2l-82 -409h-79l-111 505h74l78 -423h2l86 423h67l86 -426h2l78 426h74l-113 -505h-78z" />
    <glyph glyph-name="x" unicode="x" horiz-adv-x="388" 
d="M18 0l127 261l-121 244h80l91 -203h2l89 203h78l-121 -248l127 -257h-79l-98 216h-2l-94 -216h-79z" />
    <glyph glyph-name="y" unicode="y" horiz-adv-x="398" 
d="M382 505l-152 -532q-20 -69 -53.5 -101t-91.5 -36l-6 55q37 5 57 24.5t32 62.5l8 29l-160 498h77l116 -407h2l98 407h73z" />
    <glyph glyph-name="z" unicode="z" horiz-adv-x="335" 
d="M303 62v-62h-274v46l194 397h-184v62h266v-44l-195 -399h193z" />
    <glyph glyph-name="braceleft" unicode="{" horiz-adv-x="220" 
d="M18 305v48q73 10 73 68q0 18 -16 91t-16 127q0 85 48 128t135 43h22v-49h-22q-56 0 -87 -33t-31 -97q0 -50 15.5 -120.5t15.5 -91.5q0 -70 -65 -89v-2q65 -19 65 -88q0 -22 -15.5 -90.5t-15.5 -118.5q0 -64 31 -99t87 -35h22v-48h-22q-87 0 -135 44t-48 130q0 54 16 125
t16 90q0 59 -73 67z" />
    <glyph glyph-name="bar" unicode="|" horiz-adv-x="218" 
d="M76 -152v962h67v-962h-67z" />
    <glyph glyph-name="braceright" unicode="}" horiz-adv-x="220" 
d="M202 353v-48q-73 -8 -73 -67q0 -19 16 -90t16 -125q0 -86 -48 -130t-135 -44h-22v49h22q56 0 86.5 34.5t30.5 98.5q0 50 -15 118.5t-15 90.5q0 69 64 88v2q-64 19 -64 89q0 21 15 91.5t15 120.5q0 64 -31 96.5t-87 32.5h-21v50h22q86 0 134.5 -43.5t48.5 -127.5
q0 -54 -16 -127t-16 -91q0 -59 73 -68z" />
    <glyph glyph-name="asciitilde" unicode="~" horiz-adv-x="410" 
d="M98 610h-55q10 135 98 135q26 0 46.5 -13.5t30.5 -29.5t24 -29.5t28 -13.5q19 0 29 17t14 60h54q-10 -135 -97 -135q-26 0 -46.5 13.5t-31 29.5t-24 29.5t-28.5 13.5q-19 0 -29 -17.5t-13 -59.5z" />
    <glyph glyph-name="uni00A0" unicode="&#xa0;" horiz-adv-x="177" 
 />
    <glyph glyph-name="exclamdown" unicode="&#xa1;" horiz-adv-x="190" 
d="M130 -94h-72v317l8 204h56l8 -202v-319zM138 631v-97h-89v97h89z" />
    <glyph glyph-name="cent" unicode="&#xa2;" horiz-adv-x="342" 
d="M323 399l-52 -20q-20 72 -80 72q-81 0 -81 -107v-182q0 -111 80 -111q61 0 82 78l53 -18q-27 -102 -110 -116l-10 -90h-45l-3 89q-58 9 -88 53.5t-30 112.5v186q0 68 31 113t89 53l12 102h46l2 -104q77 -18 104 -111z" />
    <glyph glyph-name="sterling" unicode="&#xa3;" horiz-adv-x="452" 
d="M41 331l-8 56h57q-12 93 -12 136q0 102 42 157.5t121 55.5q63 0 104 -38t54 -105l-57 -19q-22 93 -98 93q-94 0 -94 -150q0 -36 9 -130h188l-7 -56h-175q11 -123 12 -135q24 -9 46 -32.5t35 -45.5t31.5 -39.5t36.5 -17.5q25 0 39.5 27t21.5 93l57 -13
q-10 -95 -38.5 -136.5t-75.5 -41.5q-38 0 -65 24.5t-52 66.5t-36 53h-2q-8 -144 -94 -144q-33 0 -52.5 22.5t-19.5 63.5q0 51 29 84.5t78 39.5l-19 131h-56zM86 46q33 0 34 107q-55 -8 -55 -73q0 -34 21 -34z" />
    <glyph glyph-name="currency" unicode="&#xa4;" horiz-adv-x="322" 
d="M60 380q0 31 16 58l-38 41l30 32l38 -40q25 17 55 17q29 0 55 -18l40 44l30 -33l-40 -44q16 -26 16 -57q0 -32 -16 -59l39 -41l-30 -33l-40 42q-23 -17 -54 -17q-29 0 -55 16l-39 -43l-30 32l39 43q-16 27 -16 60zM106 380q0 -26 16.5 -43.5t39.5 -17.5t39.5 17.5
t16.5 43.5t-16 43t-40 17t-40 -17t-16 -43z" />
    <glyph glyph-name="yen" unicode="&#xa5;" horiz-adv-x="460" 
d="M378 167h-106v-167h-78v167h-112v57h112v47h-112v56h97l-155 398h86l123 -362h2l122 362h86l-157 -398h92v-56h-106v-47h106v-57z" />
    <glyph glyph-name="brokenbar" unicode="&#xa6;" horiz-adv-x="218" 
d="M76 397v413h67v-413h-67zM76 -152v413h67v-413h-67z" />
    <glyph glyph-name="section" unicode="&#xa7;" horiz-adv-x="354" 
d="M48 -41l56 14q17 -72 77 -72q66 0 66 77q0 32 -22 63.5t-53.5 59l-63.5 58t-54 72t-22 89.5q0 95 78 136q-62 69 -62 136q0 62 33.5 102.5t98.5 40.5q53 0 88.5 -32.5t47.5 -90.5l-56 -14q-18 72 -77 72q-67 0 -67 -77q0 -32 22 -63.5t54 -59l64 -57.5t54 -72t22 -90
q0 -96 -79 -136q63 -70 63 -136q0 -62 -33.5 -102.5t-98.5 -40.5q-54 0 -89.5 32.5t-46.5 90.5zM269 245q0 32 -26 70.5t-90 98.5q-58 -25 -58 -87q0 -39 23 -71.5t92 -97.5q59 24 59 87z" />
    <glyph glyph-name="dieresis" unicode="&#xa8;" horiz-adv-x="214" 
d="M22 725h56v-105h-56v105zM137 725h55v-105h-55v105z" />
    <glyph glyph-name="copyright" unicode="&#xa9;" horiz-adv-x="589" 
d="M296 623q57 0 93 -34.5t46 -94.5l-51 -15q-16 88 -83 88q-86 0 -86 -118v-177q0 -53 21.5 -84.5t63.5 -31.5q37 0 56 20.5t29 74.5l52 -13q-11 -73 -45.5 -105.5t-96.5 -32.5q-69 0 -108.5 47t-39.5 124v178q0 81 39 127.5t110 46.5zM545 443v-164q0 -129 -66 -210
t-184 -81q-119 0 -184.5 81t-65.5 210v164q0 130 65.5 211t184.5 81q118 0 184 -81.5t66 -210.5zM496 280v162q0 112 -53 178t-149 66q-95 0 -147.5 -66t-52.5 -178v-162q0 -111 52.5 -177t148.5 -66q95 0 148 66t53 177z" />
    <glyph glyph-name="ordfeminine" unicode="&#xaa;" horiz-adv-x="260" 
d="M67 660l-38 17q12 33 37.5 53t59.5 20q45 0 66.5 -25.5t21.5 -69.5v-159q0 -21 18 -21h10v-37h-27q-31 0 -45 24q-30 -27 -72 -27q-37 0 -58.5 22t-21.5 60q0 98 122 98h22v41q0 50 -42 50q-40 0 -53 -46zM110 475q32 0 52 26v74h-22q-72 0 -72 -55q0 -45 42 -45z" />
    <glyph glyph-name="guillemotleft" unicode="&#xab;" horiz-adv-x="337" 
d="M319 437l-105 -177l105 -178h-64l-103 178l103 177h64zM185 437l-105 -177l105 -178h-64l-103 178l103 177h64z" />
    <glyph glyph-name="logicalnot" unicode="&#xac;" horiz-adv-x="382" 
d="M283 149v133h-240v59h295v-192h-55z" />
    <glyph glyph-name="uni00AD" unicode="&#xad;" horiz-adv-x="221" 
d="M20 261v66h181v-66h-181z" />
    <glyph glyph-name="registered" unicode="&#xae;" horiz-adv-x="236" 
d="M221 672v-60q0 -46 -27 -76t-76 -30q-50 0 -76.5 29.5t-26.5 76.5v60q0 46 26.5 75.5t76.5 29.5q49 0 76 -29.5t27 -75.5zM39 672v-60q0 -82 78 -82q81 0 81 82v60q0 83 -81 83q-78 0 -78 -83zM148 565l-31 65h-18v-65h-31v160h54q53 0 53 -47q0 -35 -29 -43l35 -70h-33z
M99 700v-48h22q22 0 22 25q0 23 -22 23h-22z" />
    <glyph glyph-name="macron" unicode="&#xaf;" horiz-adv-x="214" 
d="M205 681v-53h-196v53h196z" />
    <glyph glyph-name="degree" unicode="&#xb0;" horiz-adv-x="226" 
d="M17 680q0 41 28 70.5t68 29.5t68 -29.5t28 -70.5t-28 -70t-68 -29t-68 29t-28 70zM61 680q0 -25 15 -41t37 -16t37.5 16.5t15.5 40.5t-15.5 40.5t-37.5 16.5t-37 -16t-15 -41z" />
    <glyph glyph-name="plusminus" unicode="&#xb1;" horiz-adv-x="382" 
d="M162 141v157h-119v60h119v161h55v-161h122v-60h-122v-157h-55zM339 46h-296v59h296v-59z" />
    <glyph glyph-name="twosuperior" unicode="&#xb2;" horiz-adv-x="227" 
d="M116 799q41 0 62 -22.5t21 -58.5q0 -33 -17.5 -62.5t-38.5 -47.5t-41 -42.5t-24 -48.5h123v-41h-173l-1 23q1 34 20.5 66t42.5 52.5t42 47t19 51.5q0 42 -39 42q-37 0 -48 -51l-38 11q18 81 90 81z" />
    <glyph glyph-name="threesuperior" unicode="&#xb3;" horiz-adv-x="227" 
d="M82 621v38h21q43 0 43 51q0 48 -37 48q-36 0 -48 -45l-37 12q8 34 31.5 54t57.5 20q42 0 62.5 -22.5t20.5 -61.5q0 -57 -39 -72v-2q44 -11 44 -72q0 -97 -90 -97q-70 0 -89 68l36 13q13 -41 51 -41q42 0 42 60q0 28 -11.5 38.5t-35.5 10.5h-22z" />
    <glyph glyph-name="acute" unicode="&#xb4;" horiz-adv-x="214" 
d="M97 725h82l-75 -135h-52z" />
    <glyph glyph-name="mu" unicode="&#xb5;" horiz-adv-x="413" 
d="M53 164v341h71v-340q0 -104 80 -104q54 0 85 46v398h71v-505h-62l-4 45h-2q-33 -44 -87 -44q-59 0 -85 49h-2q6 -133 15 -206l-72 -6q-8 170 -8 326z" />
    <glyph glyph-name="paragraph" unicode="&#xb6;" horiz-adv-x="491" 
d="M146 748h349v-67h-91v-843h-70v843h-120v-843h-68v658q-64 0 -97.5 33.5t-33.5 92.5q0 55 34 90.5t97 35.5z" />
    <glyph glyph-name="periodcentered" unicode="&#xb7;" horiz-adv-x="193" 
d="M45 321q0 23 15 40t36 17t36.5 -17t15.5 -40t-15.5 -39.5t-36.5 -16.5t-36 16.5t-15 39.5z" />
    <glyph glyph-name="cedilla" unicode="&#xb8;" horiz-adv-x="214" 
d="M78 16l42 -2l-8 -47q66 -11 66 -58q0 -31 -26.5 -52t-72.5 -25l-12 38q53 11 53 35q0 25 -59 29z" />
    <glyph glyph-name="onesuperior" unicode="&#xb9;" horiz-adv-x="180" 
d="M92 796h40v-320h-51v231h-54v34h22q24 0 32 10t11 45z" />
    <glyph glyph-name="ordmasculine" unicode="&#xba;" horiz-adv-x="246" 
d="M228 645v-106q0 -46 -27.5 -75.5t-78.5 -29.5q-50 0 -77 29.5t-27 75.5v106q0 45 27 75t77 30q51 0 78.5 -29.5t27.5 -75.5zM70 641v-99q0 -68 52 -68q54 0 54 68v99q0 66 -54 66q-52 0 -52 -66z" />
    <glyph glyph-name="guillemotright" unicode="&#xbb;" horiz-adv-x="337" 
d="M152 82l104 178l-104 177h64l102 -177l-102 -178h-64zM18 82l104 178l-104 177h64l102 -177l-102 -178h-64z" />
    <glyph glyph-name="onequarter" unicode="&#xbc;" horiz-adv-x="475" 
d="M122 726h40v-320h-51v231h-54v34h22q24 0 32 10t11 45zM103 0h-51l315 725h51zM419 0h-44v59h-127v33l123 227h48v-221h33l-3 -39h-30v-59zM297 98h78l4 163h-2z" />
    <glyph glyph-name="onehalf" unicode="&#xbd;" horiz-adv-x="475" 
d="M122 726h40v-320h-51v231h-54v34h22q24 0 32 10t11 45zM103 0h-51l315 725h51zM365 323q41 0 62 -22.5t21 -58.5q0 -33 -17.5 -62.5t-38.5 -47.5t-41 -42.5t-24 -48.5h123v-41h-173l-1 23q1 34 20.5 66t42.5 52.5t42 47t19 51.5q0 42 -39 42q-37 0 -48 -51l-38 11
q18 81 90 81z" />
    <glyph glyph-name="threequarters" unicode="&#xbe;" horiz-adv-x="475" 
d="M81 551v38h21q43 0 43 51q0 48 -37 48q-36 0 -48 -45l-37 12q8 34 31.5 54t57.5 20q42 0 62.5 -22.5t20.5 -61.5q0 -57 -39 -72v-2q44 -11 44 -72q0 -97 -90 -97q-70 0 -89 68l36 13q13 -41 51 -41q42 0 42 60q0 28 -11.5 38.5t-35.5 10.5h-22zM103 0h-51l315 725h51z
M412 0h-44v59h-127v33l123 227h48v-221h33l-3 -39h-30v-59zM290 98h78l4 163h-2z" />
    <glyph glyph-name="questiondown" unicode="&#xbf;" horiz-adv-x="389" 
d="M371 55q-17 -72 -63 -115.5t-114 -43.5q-80 0 -119 47t-39 122q0 74 37 140t100 108l8 115h53l5 -150q-130 -82 -130 -209q0 -107 88 -107q87 0 115 110zM251 631v-97h-89v97h89z" />
    <glyph glyph-name="Agrave" unicode="&#xc0;" horiz-adv-x="475" 
d="M134 192l-43 -192h-79l180 725h90l180 -725h-80l-44 192h-204zM235 645l-87 -390h176l-87 390h-2zM118 870h90l59 -109h-61z" />
    <glyph glyph-name="Aacute" unicode="&#xc1;" horiz-adv-x="475" 
d="M134 192l-43 -192h-79l180 725h90l180 -725h-80l-44 192h-204zM235 645l-87 -390h176l-87 390h-2zM257 870h90l-80 -109h-61z" />
    <glyph glyph-name="Acircumflex" unicode="&#xc2;" horiz-adv-x="475" 
d="M134 192l-43 -192h-79l180 725h90l180 -725h-80l-44 192h-204zM235 645l-87 -390h176l-87 390h-2zM197 761h-63l72 109h59l72 -109h-62l-39 64z" />
    <glyph glyph-name="Atilde" unicode="&#xc3;" horiz-adv-x="475" 
d="M134 192l-43 -192h-79l180 725h90l180 -725h-80l-44 192h-204zM235 645l-87 -390h176l-87 390h-2zM313 871l39 -6q-7 -57 -22.5 -84t-46.5 -27q-19 0 -36.5 17t-30.5 34.5t-22 17.5q-12 0 -18.5 -14t-11.5 -50l-38 6q6 58 21.5 84.5t46.5 26.5q20 0 37.5 -17t30.5 -34.5
t22 -17.5q21 0 29 64z" />
    <glyph glyph-name="Adieresis" unicode="&#xc4;" horiz-adv-x="475" 
d="M134 192l-43 -192h-79l180 725h90l180 -725h-80l-44 192h-204zM235 645l-87 -390h176l-87 390h-2zM142 870h58v-97h-58v97zM275 870h57v-97h-57v97z" />
    <glyph glyph-name="Aring" unicode="&#xc5;" horiz-adv-x="475" 
d="M134 192l-43 -192h-79l180 725h90l180 -725h-80l-44 192h-204zM235 645l-87 -390h176l-87 390h-2zM162 819q0 31 21 50.5t54 19.5t54 -19.5t21 -50.5t-21 -50t-54 -19t-54 19t-21 50zM206 819q0 -15 8 -24.5t23 -9.5t23.5 9.5t8.5 24.5t-8.5 25t-23.5 10t-23 -10t-8 -25z
" />
    <glyph glyph-name="AE" unicode="&#xc6;" horiz-adv-x="669" 
d="M163 194l-69 -194h-79l265 725h354v-72h-237l19 -244h190v-65h-185l21 -272h201v-72h-275l-14 194h-191zM321 642l-136 -385h164l-26 385h-2z" />
    <glyph glyph-name="Ccedilla" unicode="&#xc7;" horiz-adv-x="421" 
d="M226 735q64 0 108 -41.5t57 -108.5l-60 -20q-22 100 -101 100q-104 0 -104 -147v-318q0 -66 26.5 -104t76.5 -38q45 0 68.5 24t34.5 84l60 -18q-13 -78 -50 -115t-101 -42l-4 -24q66 -11 66 -58q0 -31 -26.5 -52t-72.5 -25l-12 38q53 11 53 35q0 25 -59 29l12 58
q-71 9 -111 64.5t-40 142.5v319q0 102 47.5 159.5t131.5 57.5z" />
    <glyph glyph-name="Egrave" unicode="&#xc8;" horiz-adv-x="415" 
d="M65 725h310v-72h-232v-244h188v-65h-188v-272h246v-72h-324v725zM115 870h90l59 -109h-61z" />
    <glyph glyph-name="Eacute" unicode="&#xc9;" horiz-adv-x="415" 
d="M65 725h310v-72h-232v-244h188v-65h-188v-272h246v-72h-324v725zM229 870h90l-80 -109h-61z" />
    <glyph glyph-name="Ecircumflex" unicode="&#xca;" horiz-adv-x="415" 
d="M65 725h310v-72h-232v-244h188v-65h-188v-272h246v-72h-324v725zM186 761h-63l72 109h59l72 -109h-62l-39 64z" />
    <glyph glyph-name="Edieresis" unicode="&#xcb;" horiz-adv-x="415" 
d="M65 725h310v-72h-232v-244h188v-65h-188v-272h246v-72h-324v725zM128 870h58v-97h-58v97zM261 870h57v-97h-57v97z" />
    <glyph glyph-name="Igrave" unicode="&#xcc;" horiz-adv-x="236" 
d="M79 725h78v-725h-78v725zM6 870h90l59 -109h-61z" />
    <glyph glyph-name="Iacute" unicode="&#xcd;" horiz-adv-x="236" 
d="M79 725h78v-725h-78v725zM132 870h90l-80 -109h-61z" />
    <glyph glyph-name="Icircumflex" unicode="&#xce;" horiz-adv-x="236" 
d="M79 725h78v-725h-78v725zM80 761h-63l72 109h59l72 -109h-62l-39 64z" />
    <glyph glyph-name="Idieresis" unicode="&#xcf;" horiz-adv-x="236" 
d="M79 725h78v-725h-78v725zM24 870h58v-97h-58v97zM157 870h57v-97h-57v97z" />
    <glyph glyph-name="Eth" unicode="&#xd0;" horiz-adv-x="498" 
d="M73 725h184q93 0 143.5 -57t50.5 -160v-294q0 -101 -50.5 -157.5t-143.5 -56.5h-184v348h-58v50h58v327zM373 505q0 149 -116 149h-106v-256h62v-50h-62v-279h106q116 0 116 147v289z" />
    <glyph glyph-name="Ntilde" unicode="&#xd1;" horiz-adv-x="494" 
d="M65 725h60l233 -521h2v521h70v-725h-55l-239 535h-2v-535h-69v725zM325 871l39 -6q-7 -57 -22.5 -84t-46.5 -27q-19 0 -36.5 17t-30.5 34.5t-22 17.5q-12 0 -18.5 -14t-11.5 -50l-38 6q6 58 21.5 84.5t46.5 26.5q20 0 37.5 -17t30.5 -34.5t22 -17.5q21 0 29 64z" />
    <glyph glyph-name="Ograve" unicode="&#xd2;" horiz-adv-x="473" 
d="M236 735q93 0 141.5 -55.5t48.5 -157.5v-319q0 -102 -48.5 -157.5t-141.5 -55.5q-92 0 -140.5 55.5t-48.5 157.5v319q0 102 48.5 157.5t140.5 55.5zM347 203v319q0 143 -111 143t-111 -143v-319q0 -144 111 -144t111 144zM129 870h90l59 -109h-61z" />
    <glyph glyph-name="Oacute" unicode="&#xd3;" horiz-adv-x="473" 
d="M236 735q93 0 141.5 -55.5t48.5 -157.5v-319q0 -102 -48.5 -157.5t-141.5 -55.5q-92 0 -140.5 55.5t-48.5 157.5v319q0 102 48.5 157.5t140.5 55.5zM347 203v319q0 143 -111 143t-111 -143v-319q0 -144 111 -144t111 144zM246 870h90l-80 -109h-61z" />
    <glyph glyph-name="Ocircumflex" unicode="&#xd4;" horiz-adv-x="473" 
d="M236 735q93 0 141.5 -55.5t48.5 -157.5v-319q0 -102 -48.5 -157.5t-141.5 -55.5q-92 0 -140.5 55.5t-48.5 157.5v319q0 102 48.5 157.5t140.5 55.5zM347 203v319q0 143 -111 143t-111 -143v-319q0 -144 111 -144t111 144zM197 761h-63l72 109h59l72 -109h-62l-39 64z" />
    <glyph glyph-name="Otilde" unicode="&#xd5;" horiz-adv-x="473" 
d="M236 735q93 0 141.5 -55.5t48.5 -157.5v-319q0 -102 -48.5 -157.5t-141.5 -55.5q-92 0 -140.5 55.5t-48.5 157.5v319q0 102 48.5 157.5t140.5 55.5zM347 203v319q0 143 -111 143t-111 -143v-319q0 -144 111 -144t111 144zM310 871l39 -6q-7 -57 -22.5 -84t-46.5 -27
q-19 0 -36.5 17t-30.5 34.5t-22 17.5q-12 0 -18.5 -14t-11.5 -50l-38 6q6 58 21.5 84.5t46.5 26.5q20 0 37.5 -17t30.5 -34.5t22 -17.5q21 0 29 64z" />
    <glyph glyph-name="Odieresis" unicode="&#xd6;" horiz-adv-x="473" 
d="M236 735q93 0 141.5 -55.5t48.5 -157.5v-319q0 -102 -48.5 -157.5t-141.5 -55.5q-92 0 -140.5 55.5t-48.5 157.5v319q0 102 48.5 157.5t140.5 55.5zM347 203v319q0 143 -111 143t-111 -143v-319q0 -144 111 -144t111 144zM141 870h58v-97h-58v97zM274 870h57v-97h-57v97z
" />
    <glyph glyph-name="multiply" unicode="&#xd7;" horiz-adv-x="382" 
d="M291 161l-101 109l-100 -109l-39 42l100 109l-100 109l39 42l100 -109l101 109l39 -42l-101 -109l101 -109z" />
    <glyph glyph-name="Oslash" unicode="&#xd8;" horiz-adv-x="473" 
d="M236 735q98 0 148 -64l29 52l31 -22l-38 -68q20 -48 20 -111v-319q0 -102 -48.5 -157.5t-141.5 -55.5q-101 0 -149 66l-27 -48l-30 22l36 65q-19 44 -19 108v319q0 102 48.5 157.5t140.5 55.5zM347 203v323h-2l-213 -388q20 -79 104 -79q111 0 111 144zM125 522v-320h2
l212 387q-20 76 -103 76q-111 0 -111 -143z" />
    <glyph glyph-name="Ugrave" unicode="&#xd9;" horiz-adv-x="493" 
d="M358 725h78v-529q0 -99 -49 -152.5t-140 -53.5q-92 0 -141 53t-49 151v531h78v-532q0 -130 112 -130q111 0 111 130v532zM147 870h90l59 -109h-61z" />
    <glyph glyph-name="Uacute" unicode="&#xda;" horiz-adv-x="493" 
d="M358 725h78v-529q0 -99 -49 -152.5t-140 -53.5q-92 0 -141 53t-49 151v531h78v-532q0 -130 112 -130q111 0 111 130v532zM254 870h90l-80 -109h-61z" />
    <glyph glyph-name="Ucircumflex" unicode="&#xdb;" horiz-adv-x="493" 
d="M358 725h78v-529q0 -99 -49 -152.5t-140 -53.5q-92 0 -141 53t-49 151v531h78v-532q0 -130 112 -130q111 0 111 130v532zM208 761h-63l72 109h59l72 -109h-62l-39 64z" />
    <glyph glyph-name="Udieresis" unicode="&#xdc;" horiz-adv-x="493" 
d="M358 725h78v-529q0 -99 -49 -152.5t-140 -53.5q-92 0 -141 53t-49 151v531h78v-532q0 -130 112 -130q111 0 111 130v532zM152 870h58v-97h-58v97zM285 870h57v-97h-57v97z" />
    <glyph glyph-name="Yacute" unicode="&#xdd;" horiz-adv-x="439" 
d="M433 725l-174 -480v-245h-79v248l-174 477h86l127 -396h2l127 396h85zM231 870h90l-80 -109h-61z" />
    <glyph glyph-name="Thorn" unicode="&#xde;" horiz-adv-x="443" 
d="M247 591q82 0 124.5 -55.5t42.5 -161.5q0 -104 -42 -160t-122 -56h-107v-158h-78v725h78v-134h104zM143 521v-297h102q47 0 69 35.5t22 113.5q0 79 -21.5 113.5t-69.5 34.5h-102z" />
    <glyph glyph-name="germandbls" unicode="&#xdf;" horiz-adv-x="407" 
d="M193 402q0 83 69 120q3 21 3 43q0 80 -55 80q-82 0 -82 -159v-486h-72v487q0 106 39 162t112 56q58 0 89.5 -42t31.5 -106q0 -43 -11 -76q-54 -19 -54 -75q0 -24 13 -46t31.5 -41t37 -41t31.5 -55t13 -73q0 -77 -37 -118.5t-102 -41.5q-63 0 -103 38l17 54q30 -30 76 -30
q78 0 78 100q0 36 -19.5 68t-43 53.5t-43 55.5t-19.5 73z" />
    <glyph glyph-name="agrave" unicode="&#xe0;" horiz-adv-x="369" 
d="M93 378l-48 24q45 113 140 113q65 0 96.5 -41.5t31.5 -114.5v-274q0 -39 33 -39h12v-46q-20 -6 -36 -6q-51 0 -70 43q-41 -45 -104 -45q-53 0 -84.5 36t-31.5 99q0 162 180 162h30v70q0 96 -65 96q-55 0 -84 -77zM163 47q49 0 79 45v143h-30q-61 0 -86.5 -26t-25.5 -77
q0 -85 63 -85zM94 725h81l58 -135h-54z" />
    <glyph glyph-name="aacute" unicode="&#xe1;" horiz-adv-x="369" 
d="M93 378l-48 24q45 113 140 113q65 0 96.5 -41.5t31.5 -114.5v-274q0 -39 33 -39h12v-46q-20 -6 -36 -6q-51 0 -70 43q-41 -45 -104 -45q-53 0 -84.5 36t-31.5 99q0 162 180 162h30v70q0 96 -65 96q-55 0 -84 -77zM163 47q49 0 79 45v143h-30q-61 0 -86.5 -26t-25.5 -77
q0 -85 63 -85zM191 725h82l-75 -135h-52z" />
    <glyph glyph-name="acircumflex" unicode="&#xe2;" horiz-adv-x="369" 
d="M93 378l-48 24q45 113 140 113q65 0 96.5 -41.5t31.5 -114.5v-274q0 -39 33 -39h12v-46q-20 -6 -36 -6q-51 0 -70 43q-41 -45 -104 -45q-53 0 -84.5 36t-31.5 99q0 162 180 162h30v70q0 96 -65 96q-55 0 -84 -77zM163 47q49 0 79 45v143h-30q-61 0 -86.5 -26t-25.5 -77
q0 -85 63 -85zM148 590h-60l74 135h50l74 -135h-60l-38 83h-2z" />
    <glyph glyph-name="atilde" unicode="&#xe3;" horiz-adv-x="369" 
d="M93 378l-48 24q45 113 140 113q65 0 96.5 -41.5t31.5 -114.5v-274q0 -39 33 -39h12v-46q-20 -6 -36 -6q-51 0 -70 43q-41 -45 -104 -45q-53 0 -84.5 36t-31.5 99q0 162 180 162h30v70q0 96 -65 96q-55 0 -84 -77zM163 47q49 0 79 45v143h-30q-61 0 -86.5 -26t-25.5 -77
q0 -85 63 -85zM262 726l38 -8q-6 -68 -21.5 -100t-47.5 -32q-21 0 -38.5 22.5t-30 45t-21.5 22.5q-20 0 -28 -83l-39 7q6 69 21.5 100.5t46.5 31.5q22 0 39 -22.5t29.5 -45t22.5 -22.5q20 0 29 84z" />
    <glyph glyph-name="adieresis" unicode="&#xe4;" horiz-adv-x="369" 
d="M93 378l-48 24q45 113 140 113q65 0 96.5 -41.5t31.5 -114.5v-274q0 -39 33 -39h12v-46q-20 -6 -36 -6q-51 0 -70 43q-41 -45 -104 -45q-53 0 -84.5 36t-31.5 99q0 162 180 162h30v70q0 96 -65 96q-55 0 -84 -77zM163 47q49 0 79 45v143h-30q-61 0 -86.5 -26t-25.5 -77
q0 -85 63 -85zM103 725h56v-105h-56v105zM218 725h55v-105h-55v105z" />
    <glyph glyph-name="aring" unicode="&#xe5;" horiz-adv-x="369" 
d="M93 378l-48 24q45 113 140 113q65 0 96.5 -41.5t31.5 -114.5v-274q0 -39 33 -39h12v-46q-20 -6 -36 -6q-51 0 -70 43q-41 -45 -104 -45q-53 0 -84.5 36t-31.5 99q0 162 180 162h30v70q0 96 -65 96q-55 0 -84 -77zM163 47q49 0 79 45v143h-30q-61 0 -86.5 -26t-25.5 -77
q0 -85 63 -85zM112 661q0 34 21 55t54 21t54 -21t21 -55q0 -33 -21 -54t-54 -21t-54 21t-21 54zM155 661q0 -37 32 -37t32 37q0 38 -32 38t-32 -38z" />
    <glyph glyph-name="ae" unicode="&#xe6;" horiz-adv-x="573" 
d="M540 242h-215v-90q0 -103 79 -103q66 0 89 90l51 -19q-35 -129 -145 -129q-83 0 -115 68h-2q-37 -68 -130 -68q-55 0 -87.5 37t-32.5 99q0 76 45.5 120.5t141.5 44.5h35v77q0 84 -70 84q-62 0 -82 -79l-53 21q15 54 52 87t86 33q74 0 105 -57q35 57 109 57q65 0 102 -47
t37 -117v-109zM166 48q30 0 55.5 17.5t32.5 48.5v123h-35q-118 0 -118 -106q0 -83 65 -83zM325 354v-62h150v64q0 99 -75 99q-39 0 -57 -24.5t-18 -76.5z" />
    <glyph glyph-name="ccedilla" unicode="&#xe7;" horiz-adv-x="342" 
d="M323 399l-52 -20q-20 74 -81 74q-80 0 -80 -104v-192q0 -105 80 -105q61 0 82 77l53 -18q-29 -111 -126 -118l-4 -26q66 -11 66 -58q0 -31 -26.5 -52t-72.5 -25l-12 38q53 11 53 35q0 25 -59 29l12 60q-57 9 -87 52.5t-30 107.5v197q0 72 38 117.5t108 45.5q51 0 87 -30
t51 -85z" />
    <glyph glyph-name="egrave" unicode="&#xe8;" horiz-adv-x="367" 
d="M334 251h-224v-94q0 -105 85 -105q33 0 53.5 20t33.5 67l54 -18q-31 -129 -147 -129q-72 0 -111 45t-39 118v196q0 73 39 118t110 45q69 0 107.5 -46t38.5 -120v-97zM110 354v-53h160v54q0 100 -80 100t-80 -101zM91 725h81l58 -135h-54z" />
    <glyph glyph-name="eacute" unicode="&#xe9;" horiz-adv-x="367" 
d="M334 251h-224v-94q0 -105 85 -105q33 0 53.5 20t33.5 67l54 -18q-31 -129 -147 -129q-72 0 -111 45t-39 118v196q0 73 39 118t110 45q69 0 107.5 -46t38.5 -120v-97zM110 354v-53h160v54q0 100 -80 100t-80 -101zM200 725h82l-75 -135h-52z" />
    <glyph glyph-name="ecircumflex" unicode="&#xea;" horiz-adv-x="367" 
d="M334 251h-224v-94q0 -105 85 -105q33 0 53.5 20t33.5 67l54 -18q-31 -129 -147 -129q-72 0 -111 45t-39 118v196q0 73 39 118t110 45q69 0 107.5 -46t38.5 -120v-97zM110 354v-53h160v54q0 100 -80 100t-80 -101zM150 590h-60l74 135h50l74 -135h-60l-38 83h-2z" />
    <glyph glyph-name="edieresis" unicode="&#xeb;" horiz-adv-x="367" 
d="M334 251h-224v-94q0 -105 85 -105q33 0 53.5 20t33.5 67l54 -18q-31 -129 -147 -129q-72 0 -111 45t-39 118v196q0 73 39 118t110 45q69 0 107.5 -46t38.5 -120v-97zM110 354v-53h160v54q0 100 -80 100t-80 -101zM104 725h56v-105h-56v105zM219 725h55v-105h-55v105z" />
    <glyph glyph-name="igrave" unicode="&#xec;" horiz-adv-x="191" 
d="M60 505h71v-505h-71v505zM-16 725h81l58 -135h-54z" />
    <glyph glyph-name="iacute" unicode="&#xed;" horiz-adv-x="191" 
d="M60 505h71v-505h-71v505zM112 725h82l-75 -135h-52z" />
    <glyph glyph-name="icircumflex" unicode="&#xee;" horiz-adv-x="191" 
d="M60 505h71v-505h-71v505zM56 590h-60l74 135h50l74 -135h-60l-38 83h-2z" />
    <glyph glyph-name="idieresis" unicode="&#xef;" horiz-adv-x="191" 
d="M60 505h71v-505h-71v505zM11 725h56v-105h-56v105zM126 725h55v-105h-55v105z" />
    <glyph glyph-name="eth" unicode="&#xf0;" horiz-adv-x="387" 
d="M349 158q0 -76 -40 -121t-114 -45t-114 44t-40 117v195q0 73 36 117.5t103 44.5t103 -44h2q-5 113 -60 160l-45 -64l-39 29l43 62q-29 14 -73 25l12 51q58 -11 94 -30l39 56l39 -29l-37 -53q91 -70 91 -224v-291zM111 155q0 -104 84 -104q83 0 83 104v191q0 105 -84 105
q-83 0 -83 -105v-191z" />
    <glyph glyph-name="ntilde" unicode="&#xf1;" horiz-adv-x="405" 
d="M124 404v-404h-71v505h62l2 -44h2q41 53 112 53q62 0 95.5 -43.5t33.5 -123.5v-347h-71v346q0 105 -78 105q-54 0 -87 -47zM281 726l38 -8q-6 -68 -21.5 -100t-47.5 -32q-21 0 -38.5 22.5t-30 45t-21.5 22.5q-20 0 -28 -83l-39 7q6 69 21.5 100.5t46.5 31.5
q22 0 39 -22.5t29.5 -45t22.5 -22.5q20 0 29 84z" />
    <glyph glyph-name="ograve" unicode="&#xf2;" horiz-adv-x="386" 
d="M347 351v-198q0 -73 -40.5 -117t-114.5 -44q-73 0 -113 43.5t-40 117.5v198q0 73 40 118t113 45q75 0 115 -44.5t40 -118.5zM110 349v-194q0 -104 82 -104q84 0 84 104v194q0 105 -84 105q-82 0 -82 -105zM85 725h81l58 -135h-54z" />
    <glyph glyph-name="oacute" unicode="&#xf3;" horiz-adv-x="386" 
d="M347 351v-198q0 -73 -40.5 -117t-114.5 -44q-73 0 -113 43.5t-40 117.5v198q0 73 40 118t113 45q75 0 115 -44.5t40 -118.5zM110 349v-194q0 -104 82 -104q84 0 84 104v194q0 105 -84 105q-82 0 -82 -105zM207 725h82l-75 -135h-52z" />
    <glyph glyph-name="ocircumflex" unicode="&#xf4;" horiz-adv-x="386" 
d="M347 351v-198q0 -73 -40.5 -117t-114.5 -44q-73 0 -113 43.5t-40 117.5v198q0 73 40 118t113 45q75 0 115 -44.5t40 -118.5zM110 349v-194q0 -104 82 -104q84 0 84 104v194q0 105 -84 105q-82 0 -82 -105zM153 590h-60l74 135h50l74 -135h-60l-38 83h-2z" />
    <glyph glyph-name="otilde" unicode="&#xf5;" horiz-adv-x="386" 
d="M347 351v-198q0 -73 -40.5 -117t-114.5 -44q-73 0 -113 43.5t-40 117.5v198q0 73 40 118t113 45q75 0 115 -44.5t40 -118.5zM110 349v-194q0 -104 82 -104q84 0 84 104v194q0 105 -84 105q-82 0 -82 -105zM269 726l38 -8q-6 -68 -21.5 -100t-47.5 -32q-21 0 -38.5 22.5
t-30 45t-21.5 22.5q-20 0 -28 -83l-39 7q6 69 21.5 100.5t46.5 31.5q22 0 39 -22.5t29.5 -45t22.5 -22.5q20 0 29 84z" />
    <glyph glyph-name="odieresis" unicode="&#xf6;" horiz-adv-x="386" 
d="M347 351v-198q0 -73 -40.5 -117t-114.5 -44q-73 0 -113 43.5t-40 117.5v198q0 73 40 118t113 45q75 0 115 -44.5t40 -118.5zM110 349v-194q0 -104 82 -104q84 0 84 104v194q0 105 -84 105q-82 0 -82 -105zM107 725h56v-105h-56v105zM222 725h55v-105h-55v105z" />
    <glyph glyph-name="divide" unicode="&#xf7;" horiz-adv-x="382" 
d="M339 282h-296v59h296v-59zM143 469q0 21 13.5 35.5t32.5 14.5t32.5 -14.5t13.5 -35.5q0 -20 -13.5 -34.5t-32.5 -14.5t-32.5 14.5t-13.5 34.5zM143 158q0 20 13.5 35t32.5 15t32.5 -15t13.5 -35t-13.5 -34.5t-32.5 -14.5t-32.5 14.5t-13.5 34.5z" />
    <glyph glyph-name="oslash" unicode="&#xf8;" horiz-adv-x="386" 
d="M347 351v-198q0 -73 -40.5 -117t-114.5 -44q-75 0 -116 47l-20 -31l-30 22l28 43q-15 35 -15 80v198q0 73 40 118t113 45q75 0 116 -46l22 34l31 -22l-30 -47q16 -33 16 -82zM192 51q84 0 84 104v193h-2l-157 -245q18 -52 75 -52zM110 349v-189h2l155 245q-18 49 -75 49
q-82 0 -82 -105z" />
    <glyph glyph-name="ugrave" unicode="&#xf9;" horiz-adv-x="405" 
d="M282 100v405h70v-505h-62l-3 43h-2q-39 -51 -112 -51q-61 0 -94.5 43.5t-33.5 122.5v347h71v-347q0 -104 78 -104q55 0 88 46zM101 725h81l58 -135h-54z" />
    <glyph glyph-name="uacute" unicode="&#xfa;" horiz-adv-x="405" 
d="M282 100v405h70v-505h-62l-3 43h-2q-39 -51 -112 -51q-61 0 -94.5 43.5t-33.5 122.5v347h71v-347q0 -104 78 -104q55 0 88 46zM217 725h82l-75 -135h-52z" />
    <glyph glyph-name="ucircumflex" unicode="&#xfb;" horiz-adv-x="405" 
d="M282 100v405h70v-505h-62l-3 43h-2q-39 -51 -112 -51q-61 0 -94.5 43.5t-33.5 122.5v347h71v-347q0 -104 78 -104q55 0 88 46zM164 590h-60l74 135h50l74 -135h-60l-38 83h-2z" />
    <glyph glyph-name="udieresis" unicode="&#xfc;" horiz-adv-x="405" 
d="M282 100v405h70v-505h-62l-3 43h-2q-39 -51 -112 -51q-61 0 -94.5 43.5t-33.5 122.5v347h71v-347q0 -104 78 -104q55 0 88 46zM118 725h56v-105h-56v105zM233 725h55v-105h-55v105z" />
    <glyph glyph-name="yacute" unicode="&#xfd;" horiz-adv-x="398" 
d="M382 505l-152 -532q-20 -69 -53.5 -101t-91.5 -36l-6 55q37 5 57 24.5t32 62.5l8 29l-160 498h77l116 -407h2l98 407h73zM222 725h82l-75 -135h-52z" />
    <glyph glyph-name="thorn" unicode="&#xfe;" horiz-adv-x="399" 
d="M229 -8q-67 0 -103 45h-2v-208h-71v920h71v-287h2q36 52 106 52q62 0 95 -44t33 -123v-188q0 -80 -34 -123.5t-97 -43.5zM124 404v-306q32 -45 86 -45q79 0 79 105v187q0 106 -78 106q-55 0 -87 -47z" />
    <glyph glyph-name="ydieresis" unicode="&#xff;" horiz-adv-x="398" 
d="M382 505l-152 -532q-20 -69 -53.5 -101t-91.5 -36l-6 55q37 5 57 24.5t32 62.5l8 29l-160 498h77l116 -407h2l98 407h73zM125 725h56v-105h-56v105zM240 725h55v-105h-55v105z" />
    <glyph glyph-name="Amacron" unicode="&#x100;" horiz-adv-x="475" 
d="M134 192l-43 -192h-79l180 725h90l180 -725h-80l-44 192h-204zM235 645l-87 -390h176l-87 390h-2zM343 846v-50h-212v50h212z" />
    <glyph glyph-name="amacron" unicode="&#x101;" horiz-adv-x="369" 
d="M93 378l-48 24q45 113 140 113q65 0 96.5 -41.5t31.5 -114.5v-274q0 -39 33 -39h12v-46q-20 -6 -36 -6q-51 0 -70 43q-41 -45 -104 -45q-53 0 -84.5 36t-31.5 99q0 162 180 162h30v70q0 96 -65 96q-55 0 -84 -77zM163 47q49 0 79 45v143h-30q-61 0 -86.5 -26t-25.5 -77
q0 -85 63 -85zM284 681v-53h-196v53h196z" />
    <glyph glyph-name="Abreve" unicode="&#x102;" horiz-adv-x="475" 
d="M134 192l-43 -192h-79l180 725h90l180 -725h-80l-44 192h-204zM235 645l-87 -390h176l-87 390h-2zM136 870h54q2 -42 13 -57t34 -15q22 0 33 15t14 57h53q-7 -65 -29.5 -89.5t-70.5 -24.5q-49 0 -71.5 24.5t-29.5 89.5z" />
    <glyph glyph-name="abreve" unicode="&#x103;" horiz-adv-x="369" 
d="M93 378l-48 24q45 113 140 113q65 0 96.5 -41.5t31.5 -114.5v-274q0 -39 33 -39h12v-46q-20 -6 -36 -6q-51 0 -70 43q-41 -45 -104 -45q-53 0 -84.5 36t-31.5 99q0 162 180 162h30v70q0 96 -65 96q-55 0 -84 -77zM163 47q49 0 79 45v143h-30q-61 0 -86.5 -26t-25.5 -77
q0 -85 63 -85zM89 725h53q2 -58 13 -78.5t33 -20.5t32.5 20.5t13.5 78.5h53q-7 -83 -28.5 -112.5t-70.5 -29.5t-70.5 29.5t-28.5 112.5z" />
    <glyph glyph-name="Aogonek" unicode="&#x104;" horiz-adv-x="475" 
d="M134 192l-43 -192h-79l180 725h90l180 -725h-13q-26 0 -41 -20t-15 -49q0 -45 41 -45q26 0 51 18l15 -41q-30 -27 -80 -27q-42 0 -63.5 19.5t-21.5 55.5q0 60 46 94l-43 187h-204zM235 645l-87 -390h176l-87 390h-2z" />
    <glyph glyph-name="aogonek" unicode="&#x105;" horiz-adv-x="369" 
d="M93 378l-48 24q45 113 140 113q65 0 96.5 -41.5t31.5 -114.5v-274q0 -39 33 -39h12v-46q-6 -2 -18 -4q-27 -6 -42 -24.5t-15 -39.5q0 -45 41 -45q26 0 51 18l15 -41q-30 -27 -79 -27q-85 0 -85 71q0 61 62 91v2q-25 10 -36 36q-41 -45 -104 -45q-53 0 -84.5 36t-31.5 99
q0 162 180 162h30v70q0 96 -65 96q-55 0 -84 -77zM163 47q49 0 79 45v143h-30q-61 0 -86.5 -26t-25.5 -77q0 -85 63 -85z" />
    <glyph glyph-name="Cacute" unicode="&#x106;" horiz-adv-x="421" 
d="M226 735q64 0 108 -41.5t57 -108.5l-60 -20q-22 100 -101 100q-104 0 -104 -147v-318q0 -66 26.5 -104t76.5 -38q45 0 68.5 24t34.5 84l60 -18q-14 -84 -55 -121t-113 -37q-82 0 -129.5 57.5t-47.5 151.5v319q0 102 47.5 159.5t131.5 57.5zM232 870h90l-80 -109h-61z" />
    <glyph glyph-name="cacute" unicode="&#x107;" horiz-adv-x="342" 
d="M323 399l-52 -20q-20 74 -81 74q-80 0 -80 -104v-192q0 -105 80 -105q61 0 82 77l53 -18q-31 -119 -139 -119q-71 0 -109 45.5t-38 116.5v197q0 72 38 117.5t108 45.5q51 0 87 -30t51 -85zM198 725h82l-75 -135h-52z" />
    <glyph glyph-name="Ccircumflex" unicode="&#x108;" horiz-adv-x="421" 
d="M226 735q64 0 108 -41.5t57 -108.5l-60 -20q-22 100 -101 100q-104 0 -104 -147v-318q0 -66 26.5 -104t76.5 -38q45 0 68.5 24t34.5 84l60 -18q-14 -84 -55 -121t-113 -37q-82 0 -129.5 57.5t-47.5 151.5v319q0 102 47.5 159.5t131.5 57.5zM187 761h-63l72 109h59
l72 -109h-62l-39 64z" />
    <glyph glyph-name="ccircumflex" unicode="&#x109;" horiz-adv-x="342" 
d="M323 399l-52 -20q-20 74 -81 74q-80 0 -80 -104v-192q0 -105 80 -105q61 0 82 77l53 -18q-31 -119 -139 -119q-71 0 -109 45.5t-38 116.5v197q0 72 38 117.5t108 45.5q51 0 87 -30t51 -85zM148 589h-60l74 135h50l74 -135h-60l-38 83h-2z" />
    <glyph glyph-name="Cdotaccent" unicode="&#x10a;" horiz-adv-x="421" 
d="M226 735q64 0 108 -41.5t57 -108.5l-60 -20q-22 100 -101 100q-104 0 -104 -147v-318q0 -66 26.5 -104t76.5 -38q45 0 68.5 24t34.5 84l60 -18q-14 -84 -55 -121t-113 -37q-82 0 -129.5 57.5t-47.5 151.5v319q0 102 47.5 159.5t131.5 57.5zM189 870h74v-97h-74v97z" />
    <glyph glyph-name="cdotaccent" unicode="&#x10b;" horiz-adv-x="342" 
d="M323 399l-52 -20q-20 74 -81 74q-80 0 -80 -104v-192q0 -105 80 -105q61 0 82 77l53 -18q-31 -119 -139 -119q-71 0 -109 45.5t-38 116.5v197q0 72 38 117.5t108 45.5q51 0 87 -30t51 -85zM153 725h69v-105h-69v105z" />
    <glyph glyph-name="Ccaron" unicode="&#x10c;" horiz-adv-x="421" 
d="M226 735q64 0 108 -41.5t57 -108.5l-60 -20q-22 100 -101 100q-104 0 -104 -147v-318q0 -66 26.5 -104t76.5 -38q45 0 68.5 24t34.5 84l60 -18q-14 -84 -55 -121t-113 -37q-82 0 -129.5 57.5t-47.5 151.5v319q0 102 47.5 159.5t131.5 57.5zM128 870h60l38 -65l39 65h60
l-74 -109h-50z" />
    <glyph glyph-name="ccaron" unicode="&#x10d;" horiz-adv-x="342" 
d="M323 399l-52 -20q-20 74 -81 74q-80 0 -80 -104v-192q0 -105 80 -105q61 0 82 77l53 -18q-31 -119 -139 -119q-71 0 -109 45.5t-38 116.5v197q0 72 38 117.5t108 45.5q51 0 87 -30t51 -85zM87 725h60l38 -83h2l38 83h59l-73 -135h-50z" />
    <glyph glyph-name="Dcaron" unicode="&#x10e;" horiz-adv-x="490" 
d="M65 725h184q93 0 143.5 -57t50.5 -160v-294q0 -101 -50.5 -157.5t-143.5 -56.5h-184v725zM365 505q0 149 -116 149h-106v-585h106q116 0 116 147v289zM131 870h60l38 -65l39 65h60l-74 -109h-50z" />
    <glyph glyph-name="dcaron" unicode="&#x10f;" horiz-adv-x="403" 
d="M170 514q66 0 103 -45h2v280h71v-749h-62l-3 43h-2q-39 -51 -112 -51q-61 0 -94.5 43t-33.5 123v189q0 80 34 123.5t97 43.5zM275 99v307q-33 45 -86 45q-79 0 -79 -105v-188q0 -105 78 -105q54 0 87 46zM402 750h64l-42 -136h-40z" />
    <glyph glyph-name="Dcroat" unicode="&#x110;" horiz-adv-x="498" 
d="M73 725h184q93 0 143.5 -57t50.5 -160v-294q0 -101 -50.5 -157.5t-143.5 -56.5h-184v348h-58v50h58v327zM373 505q0 149 -116 149h-106v-256h62v-50h-62v-279h106q116 0 116 147v289z" />
    <glyph glyph-name="dcroat" unicode="&#x111;" horiz-adv-x="404" 
d="M213 606v49h62v94h71v-94h40v-49h-40v-606h-62l-3 43h-2q-39 -51 -112 -51q-61 0 -94.5 43t-33.5 123v189q0 80 34 123.5t97 43.5q66 0 103 -45h2v137h-62zM275 99v307q-33 45 -86 45q-79 0 -79 -105v-188q0 -105 78 -105q54 0 87 46z" />
    <glyph glyph-name="Emacron" unicode="&#x112;" horiz-adv-x="415" 
d="M65 725h310v-72h-232v-244h188v-65h-188v-272h246v-72h-324v725zM328 846v-50h-212v50h212z" />
    <glyph glyph-name="emacron" unicode="&#x113;" horiz-adv-x="367" 
d="M334 251h-224v-94q0 -105 85 -105q33 0 53.5 20t33.5 67l54 -18q-31 -129 -147 -129q-72 0 -111 45t-39 118v196q0 73 39 118t110 45q69 0 107.5 -46t38.5 -120v-97zM110 354v-53h160v54q0 100 -80 100t-80 -101zM287 681v-53h-196v53h196z" />
    <glyph glyph-name="Ebreve" unicode="&#x114;" horiz-adv-x="415" 
d="M65 725h310v-72h-232v-244h188v-65h-188v-272h246v-72h-324v725zM124 870h54q2 -42 13 -57t34 -15q22 0 33 15t14 57h53q-7 -65 -29.5 -89.5t-70.5 -24.5q-49 0 -71.5 24.5t-29.5 89.5z" />
    <glyph glyph-name="ebreve" unicode="&#x115;" horiz-adv-x="367" 
d="M334 251h-224v-94q0 -105 85 -105q33 0 53.5 20t33.5 67l54 -18q-31 -129 -147 -129q-72 0 -111 45t-39 118v196q0 73 39 118t110 45q69 0 107.5 -46t38.5 -120v-97zM110 354v-53h160v54q0 100 -80 100t-80 -101zM90 725h53q2 -58 13 -78.5t33 -20.5t32.5 20.5t13.5 78.5
h53q-7 -83 -28.5 -112.5t-70.5 -29.5t-70.5 29.5t-28.5 112.5z" />
    <glyph glyph-name="Edotaccent" unicode="&#x116;" horiz-adv-x="415" 
d="M65 725h310v-72h-232v-244h188v-65h-188v-272h246v-72h-324v725zM190 870h74v-97h-74v97z" />
    <glyph glyph-name="edotaccent" unicode="&#x117;" horiz-adv-x="367" 
d="M334 251h-224v-94q0 -105 85 -105q33 0 53.5 20t33.5 67l54 -18q-31 -129 -147 -129q-72 0 -111 45t-39 118v196q0 73 39 118t110 45q69 0 107.5 -46t38.5 -120v-97zM110 354v-53h160v54q0 100 -80 100t-80 -101zM155 725h69v-105h-69v105z" />
    <glyph glyph-name="Eogonek" unicode="&#x118;" horiz-adv-x="415" 
d="M65 725h310v-72h-232v-244h188v-65h-188v-272h246v-72h-32q-25 0 -40.5 -21.5t-15.5 -47.5q0 -45 41 -45q26 0 51 18l15 -41q-30 -27 -80 -27q-42 0 -63.5 19.5t-21.5 55.5q0 60 50 87v2h-228v725z" />
    <glyph glyph-name="eogonek" unicode="&#x119;" horiz-adv-x="367" 
d="M334 251h-224v-94q0 -105 85 -105q33 0 53.5 20t33.5 67l54 -18q-24 -96 -91 -120q-26 -10 -41 -30.5t-15 -39.5q0 -45 41 -45q26 0 51 18l15 -41q-30 -27 -79 -27q-85 0 -85 71q0 54 50 84v2q-69 1 -106 45.5t-37 116.5v196q0 73 39 118t110 45q69 0 107.5 -46
t38.5 -120v-97zM110 354v-53h160v54q0 100 -80 100t-80 -101z" />
    <glyph glyph-name="Ecaron" unicode="&#x11a;" horiz-adv-x="415" 
d="M65 725h310v-72h-232v-244h188v-65h-188v-272h246v-72h-324v725zM126 870h60l38 -65l39 65h60l-74 -109h-50z" />
    <glyph glyph-name="ecaron" unicode="&#x11b;" horiz-adv-x="367" 
d="M334 251h-224v-94q0 -105 85 -105q33 0 53.5 20t33.5 67l54 -18q-31 -129 -147 -129q-72 0 -111 45t-39 118v196q0 73 39 118t110 45q69 0 107.5 -46t38.5 -120v-97zM110 354v-53h160v54q0 100 -80 100t-80 -101zM90 725h60l38 -83h2l38 83h59l-73 -135h-50z" />
    <glyph glyph-name="Gcircumflex" unicode="&#x11c;" horiz-adv-x="469" 
d="M239 735q70 0 117.5 -40.5t62.5 -111.5l-60 -19q-30 101 -114 101q-120 0 -120 -161v-296q0 -147 117 -147q38 0 64 16.5t45 56.5v158h-81v58h151v-350h-65v57h-2q-45 -66 -130 -66q-84 0 -130.5 56t-46.5 160v297q0 107 48.5 169t143.5 62zM205 761h-63l72 109h59
l72 -109h-62l-39 64z" />
    <glyph glyph-name="gcircumflex" unicode="&#x11d;" horiz-adv-x="386" 
d="M194 176q-39 0 -65 10q-33 -17 -33 -44q0 -40 55 -40h80q72 0 104 -31t32 -92q0 -76 -46 -117t-127 -41q-74 0 -111.5 32t-37.5 90q0 67 42 104q-51 22 -51 80q0 53 55 83q-38 38 -38 134q0 90 33.5 130t106.5 40q54 0 85 -20q39 25 55 64l37 -15q-11 -55 -54 -92
q20 -42 20 -107q0 -89 -34 -128.5t-108 -39.5zM121 343q0 -66 15.5 -88.5t57.5 -22.5q43 0 58.5 22.5t15.5 88.5t-16.5 89.5t-57.5 23.5t-57 -23.5t-16 -89.5zM226 37h-85q-34 -24 -34 -85q0 -75 90 -75q58 0 81.5 23.5t23.5 68.5q0 38 -16 53t-60 15zM158 590h-60l74 135
h50l74 -135h-60l-38 83h-2z" />
    <glyph glyph-name="Gbreve" unicode="&#x11e;" horiz-adv-x="469" 
d="M239 735q70 0 117.5 -40.5t62.5 -111.5l-60 -19q-30 101 -114 101q-120 0 -120 -161v-296q0 -147 117 -147q38 0 64 16.5t45 56.5v158h-81v58h151v-350h-65v57h-2q-45 -66 -130 -66q-84 0 -130.5 56t-46.5 160v297q0 107 48.5 169t143.5 62zM142 870h54q2 -42 13 -57
t34 -15q22 0 33 15t14 57h53q-7 -65 -29.5 -89.5t-70.5 -24.5q-49 0 -71.5 24.5t-29.5 89.5z" />
    <glyph glyph-name="gbreve" unicode="&#x11f;" horiz-adv-x="386" 
d="M194 176q-39 0 -65 10q-33 -17 -33 -44q0 -40 55 -40h80q72 0 104 -31t32 -92q0 -76 -46 -117t-127 -41q-74 0 -111.5 32t-37.5 90q0 67 42 104q-51 22 -51 80q0 53 55 83q-38 38 -38 134q0 90 33.5 130t106.5 40q54 0 85 -20q39 25 55 64l37 -15q-11 -55 -54 -92
q20 -42 20 -107q0 -89 -34 -128.5t-108 -39.5zM121 343q0 -66 15.5 -88.5t57.5 -22.5q43 0 58.5 22.5t15.5 88.5t-16.5 89.5t-57.5 23.5t-57 -23.5t-16 -89.5zM226 37h-85q-34 -24 -34 -85q0 -75 90 -75q58 0 81.5 23.5t23.5 68.5q0 38 -16 53t-60 15zM101 725h53
q2 -58 13 -78.5t33 -20.5t32.5 20.5t13.5 78.5h53q-7 -83 -28.5 -112.5t-70.5 -29.5t-70.5 29.5t-28.5 112.5z" />
    <glyph glyph-name="Gdotaccent" unicode="&#x120;" horiz-adv-x="469" 
d="M239 735q70 0 117.5 -40.5t62.5 -111.5l-60 -19q-30 101 -114 101q-120 0 -120 -161v-296q0 -147 117 -147q38 0 64 16.5t45 56.5v158h-81v58h151v-350h-65v57h-2q-45 -66 -130 -66q-84 0 -130.5 56t-46.5 160v297q0 107 48.5 169t143.5 62zM204 870h74v-97h-74v97z" />
    <glyph glyph-name="gdotaccent" unicode="&#x121;" horiz-adv-x="386" 
d="M194 176q-39 0 -65 10q-33 -17 -33 -44q0 -40 55 -40h80q72 0 104 -31t32 -92q0 -76 -46 -117t-127 -41q-74 0 -111.5 32t-37.5 90q0 67 42 104q-51 22 -51 80q0 53 55 83q-38 38 -38 134q0 90 33.5 130t106.5 40q54 0 85 -20q39 25 55 64l37 -15q-11 -55 -54 -92
q20 -42 20 -107q0 -89 -34 -128.5t-108 -39.5zM121 343q0 -66 15.5 -88.5t57.5 -22.5q43 0 58.5 22.5t15.5 88.5t-16.5 89.5t-57.5 23.5t-57 -23.5t-16 -89.5zM226 37h-85q-34 -24 -34 -85q0 -75 90 -75q58 0 81.5 23.5t23.5 68.5q0 38 -16 53t-60 15zM163 725h69v-105h-69
v105z" />
    <glyph glyph-name="Gcommaaccent" unicode="&#x122;" horiz-adv-x="469" 
d="M239 735q70 0 117.5 -40.5t62.5 -111.5l-60 -19q-30 101 -114 101q-120 0 -120 -161v-296q0 -147 117 -147q38 0 64 16.5t45 56.5v158h-81v58h151v-350h-65v57h-2q-45 -66 -130 -66q-84 0 -130.5 56t-46.5 160v297q0 107 48.5 169t143.5 62zM206 -93v61h79v-40
q0 -53 -18 -75.5t-63 -26.5l-4 30q23 4 31 13.5t8 33.5z" />
    <glyph glyph-name="gcommaaccent" unicode="&#x123;" horiz-adv-x="386" 
d="M194 176q-39 0 -65 10q-33 -17 -33 -44q0 -40 55 -40h80q72 0 104 -31t32 -92q0 -76 -46 -117t-127 -41q-74 0 -111.5 32t-37.5 90q0 67 42 104q-51 22 -51 80q0 53 55 83q-38 38 -38 134q0 90 33.5 130t106.5 40q54 0 85 -20q39 25 55 64l37 -15q-11 -55 -54 -92
q20 -42 20 -107q0 -89 -34 -128.5t-108 -39.5zM121 343q0 -66 15.5 -88.5t57.5 -22.5q43 0 58.5 22.5t15.5 88.5t-16.5 89.5t-57.5 23.5t-57 -23.5t-16 -89.5zM226 37h-85q-34 -24 -34 -85q0 -75 90 -75q58 0 81.5 23.5t23.5 68.5q0 38 -16 53t-60 15zM235 647v-61h-79v40
q0 53 18 76t63 27l4 -31q-23 -3 -31 -13t-8 -34z" />
    <glyph glyph-name="Hcircumflex" unicode="&#x124;" horiz-adv-x="494" 
d="M65 725h78v-315h208v315h79v-725h-79v338h-208v-338h-78v725zM210 761h-63l72 109h59l72 -109h-62l-39 64z" />
    <glyph glyph-name="hcircumflex" unicode="&#x125;" horiz-adv-x="409" 
d="M127 404v-404h-71v749h71v-284h2q37 49 106 49q62 0 95 -43.5t33 -123.5v-347h-71v346q0 105 -78 105q-56 0 -87 -47zM51 775h-60l74 135h50l74 -135h-60l-38 83h-2z" />
    <glyph glyph-name="Hbar" unicode="&#x126;" horiz-adv-x="494" 
d="M65 725h78v-103h208v103h79v-103h51v-50h-51v-572h-79v338h-208v-338h-78v572h-53v50h53v103zM143 410h208v162h-208v-162z" />
    <glyph glyph-name="hbar" unicode="&#x127;" horiz-adv-x="409" 
d="M127 404v-404h-71v597h-68v50h68v102h71v-102h93v-50h-93v-132h2q37 49 106 49q62 0 95 -43.5t33 -123.5v-347h-71v346q0 105 -78 105q-56 0 -87 -47z" />
    <glyph glyph-name="Itilde" unicode="&#x128;" horiz-adv-x="236" 
d="M79 725h78v-725h-78v725zM193 871l39 -6q-7 -57 -22.5 -84t-46.5 -27q-19 0 -36.5 17t-30.5 34.5t-22 17.5q-12 0 -18.5 -14t-11.5 -50l-38 6q6 58 21.5 84.5t46.5 26.5q20 0 37.5 -17t30.5 -34.5t22 -17.5q21 0 29 64z" />
    <glyph glyph-name="itilde" unicode="&#x129;" horiz-adv-x="191" 
d="M60 505h71v-505h-71v505zM173 726l38 -8q-6 -68 -21.5 -100t-47.5 -32q-21 0 -38.5 22.5t-30 45t-21.5 22.5q-20 0 -28 -83l-39 7q6 69 21.5 100.5t46.5 31.5q22 0 39 -22.5t29.5 -45t22.5 -22.5q20 0 29 84z" />
    <glyph glyph-name="Imacron" unicode="&#x12a;" horiz-adv-x="236" 
d="M79 725h78v-725h-78v725zM224 846v-50h-212v50h212z" />
    <glyph glyph-name="imacron" unicode="&#x12b;" horiz-adv-x="191" 
d="M60 505h71v-505h-71v505zM193 681v-53h-196v53h196z" />
    <glyph glyph-name="Ibreve" unicode="&#x12c;" horiz-adv-x="236" 
d="M79 725h78v-725h-78v725zM17 870h54q2 -42 13 -57t34 -15q22 0 33 15t14 57h53q-7 -65 -29.5 -89.5t-70.5 -24.5q-49 0 -71.5 24.5t-29.5 89.5z" />
    <glyph glyph-name="ibreve" unicode="&#x12d;" horiz-adv-x="191" 
d="M60 505h71v-505h-71v505zM-5 725h53q2 -58 13 -78.5t33 -20.5t32.5 20.5t13.5 78.5h53q-7 -83 -28.5 -112.5t-70.5 -29.5t-70.5 29.5t-28.5 112.5z" />
    <glyph glyph-name="Iogonek" unicode="&#x12e;" horiz-adv-x="236" 
d="M79 725h78v-725h-11q-24 -1 -38.5 -22.5t-14.5 -46.5q0 -45 41 -45q26 0 51 18l15 -41q-30 -27 -80 -27q-42 0 -63.5 19.5t-21.5 55.5q0 60 50 87v2h-6v725z" />
    <glyph glyph-name="iogonek" unicode="&#x12f;" horiz-adv-x="191" 
d="M60 505h71v-505h-5q-24 -1 -38.5 -22.5t-14.5 -46.5q0 -45 41 -45q26 0 51 18l15 -41q-30 -27 -80 -27q-42 0 -63.5 19.5t-21.5 55.5q0 61 45 89v505zM61 725h69v-105h-69v105z" />
    <glyph glyph-name="Idotaccent" unicode="&#x130;" horiz-adv-x="236" 
d="M79 725h78v-725h-78v725zM81 870h74v-97h-74v97z" />
    <glyph glyph-name="dotlessi" unicode="&#x131;" horiz-adv-x="191" 
d="M60 505h71v-505h-71v505z" />
    <glyph glyph-name="IJ" unicode="&#x132;" horiz-adv-x="460" 
d="M79 725h78v-725h-78v725zM317 725h79v-621q0 -235 -207 -238l-6 66q69 0 101.5 40.5t32.5 129.5v623z" />
    <glyph glyph-name="ij" unicode="&#x133;" horiz-adv-x="393" 
d="M60 505h71v-505h-71v505zM61 725h69v-105h-69v105zM262 725h69v-105h-69v105zM186 -165l-6 59q41 7 61 36.5t20 89.5v485h71v-485q0 -171 -146 -185z" />
    <glyph glyph-name="Jcircumflex" unicode="&#x134;" horiz-adv-x="224" 
d="M81 725h79v-621q0 -235 -207 -238l-6 66q69 0 101.5 40.5t32.5 129.5v623zM81 761h-63l72 109h59l72 -109h-62l-39 64z" />
    <glyph glyph-name="jcircumflex" unicode="&#x135;" horiz-adv-x="202" 
d="M64 590h-60l74 135h50l74 -135h-60l-38 83h-2zM-5 -165l-6 59q41 7 61 36.5t20 89.5v485h71v-485q0 -171 -146 -185z" />
    <glyph glyph-name="Kcommaaccent" unicode="&#x136;" horiz-adv-x="464" 
d="M453 0h-89l-162 342h-2l-58 -95v-247h-77v725h77v-381h2l205 381h88l-184 -324zM207 -93v61h79v-40q0 -53 -18 -75.5t-63 -26.5l-4 30q23 4 31 13.5t8 33.5z" />
    <glyph glyph-name="kcommaaccent" unicode="&#x137;" horiz-adv-x="397" 
d="M56 749h71v-503h2l166 259h77l-142 -217l159 -288h-81l-125 237l-56 -73v-164h-71v749zM164 -93v61h79v-40q0 -53 -18 -75.5t-63 -26.5l-4 30q23 4 31 13.5t8 33.5z" />
    <glyph glyph-name="kgreenlandic" unicode="&#x138;" horiz-adv-x="397" 
d="M56 505h71v-259h2l166 259h77l-142 -217l159 -288h-81l-125 237l-56 -73v-164h-71v505z" />
    <glyph glyph-name="Lacute" unicode="&#x139;" horiz-adv-x="384" 
d="M65 725h76v-652h224v-73h-300v725zM120 870h90l-80 -109h-61z" />
    <glyph glyph-name="lacute" unicode="&#x13a;" horiz-adv-x="196" 
d="M62 749h71v-749h-71v749zM115 911h82l-75 -135h-52z" />
    <glyph glyph-name="Lcommaaccent" unicode="&#x13b;" horiz-adv-x="384" 
d="M65 725h76v-652h224v-73h-300v725zM180 -93v61h79v-40q0 -53 -18 -75.5t-63 -26.5l-4 30q23 4 31 13.5t8 33.5z" />
    <glyph glyph-name="lcommaaccent" unicode="&#x13c;" horiz-adv-x="196" 
d="M62 749h71v-749h-71v749zM61 -93v61h79v-40q0 -53 -18 -75.5t-63 -26.5l-4 30q23 4 31 13.5t8 33.5z" />
    <glyph glyph-name="Lcaron" unicode="&#x13d;" horiz-adv-x="384" 
d="M65 725h76v-652h224v-73h-300v725zM238 725h64l-42 -136h-40z" />
    <glyph glyph-name="lcaron" unicode="&#x13e;" horiz-adv-x="196" 
d="M62 749h71v-749h-71v749zM178 749h64l-42 -136h-40z" />
    <glyph glyph-name="Ldot" unicode="&#x13f;" horiz-adv-x="384" 
d="M269 454h62v-96h-62v96zM65 725h76v-652h224v-73h-300v725z" />
    <glyph glyph-name="ldot" unicode="&#x140;" horiz-adv-x="215" 
d="M181 436h46v-113h-46v113zM62 749h71v-749h-71v749z" />
    <glyph glyph-name="Lslash" unicode="&#x141;" horiz-adv-x="393" 
d="M75 725h76v-314h2l138 84v-70l-140 -85v-267h224v-73h-300v306h-2l-52 -32v69l54 32v350z" />
    <glyph glyph-name="lslash" unicode="&#x142;" horiz-adv-x="254" 
d="M86 749h71v-295h2l71 52v-66l-73 -52v-388h-71v344h-2l-61 -43v65l63 44v339z" />
    <glyph glyph-name="Nacute" unicode="&#x143;" horiz-adv-x="494" 
d="M65 725h60l233 -521h2v521h70v-725h-55l-239 535h-2v-535h-69v725zM256 870h90l-80 -109h-61z" />
    <glyph glyph-name="nacute" unicode="&#x144;" horiz-adv-x="405" 
d="M124 404v-404h-71v505h62l2 -44h2q41 53 112 53q62 0 95.5 -43.5t33.5 -123.5v-347h-71v346q0 105 -78 105q-54 0 -87 -47zM211 725h82l-75 -135h-52z" />
    <glyph glyph-name="Ncommaaccent" unicode="&#x145;" horiz-adv-x="494" 
d="M65 725h60l233 -521h2v521h70v-725h-55l-239 535h-2v-535h-69v725zM217 -93v61h79v-40q0 -53 -18 -75.5t-63 -26.5l-4 30q23 4 31 13.5t8 33.5z" />
    <glyph glyph-name="ncommaaccent" unicode="&#x146;" horiz-adv-x="405" 
d="M124 404v-404h-71v505h62l2 -44h2q41 53 112 53q62 0 95.5 -43.5t33.5 -123.5v-347h-71v346q0 105 -78 105q-54 0 -87 -47zM169 -93v61h79v-40q0 -53 -18 -75.5t-63 -26.5l-4 30q23 4 31 13.5t8 33.5z" />
    <glyph glyph-name="Ncaron" unicode="&#x147;" horiz-adv-x="494" 
d="M65 725h60l233 -521h2v521h70v-725h-55l-239 535h-2v-535h-69v725zM151 870h60l38 -65l39 65h60l-74 -109h-50z" />
    <glyph glyph-name="ncaron" unicode="&#x148;" horiz-adv-x="405" 
d="M124 404v-404h-71v505h62l2 -44h2q41 53 112 53q62 0 95.5 -43.5t33.5 -123.5v-347h-71v346q0 105 -78 105q-54 0 -87 -47zM104 725h60l38 -83h2l38 83h59l-73 -135h-50z" />
    <glyph glyph-name="napostrophe" unicode="&#x149;" horiz-adv-x="405" 
d="M124 404v-404h-71v505h62l2 -44h2q41 53 112 53q62 0 95.5 -43.5t33.5 -123.5v-347h-71v346q0 105 -78 105q-54 0 -87 -47zM21 663v61h79v-40q0 -53 -18 -75.5t-63 -26.5l-4 30q23 4 31 13.5t8 33.5z" />
    <glyph glyph-name="Eng" unicode="&#x14a;" horiz-adv-x="494" 
d="M134 0h-69v725h60l233 -524h2v524h70v-671q0 -179 -152 -182l-6 62q39 0 60.5 23t27.5 76l-224 503h-2v-536z" />
    <glyph glyph-name="eng" unicode="&#x14b;" horiz-adv-x="405" 
d="M214 -165l-5 56q42 7 61 37.5t19 92.5v325q0 105 -78 105q-54 0 -87 -47v-404h-71v505h62l2 -44h2q41 53 112 53q62 0 95.5 -43.5t33.5 -123.5v-325q0 -173 -146 -187z" />
    <glyph glyph-name="Omacron" unicode="&#x14c;" horiz-adv-x="473" 
d="M236 735q93 0 141.5 -55.5t48.5 -157.5v-319q0 -102 -48.5 -157.5t-141.5 -55.5q-92 0 -140.5 55.5t-48.5 157.5v319q0 102 48.5 157.5t140.5 55.5zM347 203v319q0 143 -111 143t-111 -143v-319q0 -144 111 -144t111 144zM342 846v-50h-212v50h212z" />
    <glyph glyph-name="omacron" unicode="&#x14d;" horiz-adv-x="386" 
d="M347 351v-198q0 -73 -40.5 -117t-114.5 -44q-73 0 -113 43.5t-40 117.5v198q0 73 40 118t113 45q75 0 115 -44.5t40 -118.5zM110 349v-194q0 -104 82 -104q84 0 84 104v194q0 105 -84 105q-82 0 -82 -105zM290 681v-53h-196v53h196z" />
    <glyph glyph-name="Obreve" unicode="&#x14e;" horiz-adv-x="473" 
d="M236 735q93 0 141.5 -55.5t48.5 -157.5v-319q0 -102 -48.5 -157.5t-141.5 -55.5q-92 0 -140.5 55.5t-48.5 157.5v319q0 102 48.5 157.5t140.5 55.5zM347 203v319q0 143 -111 143t-111 -143v-319q0 -144 111 -144t111 144zM136 870h54q2 -42 13 -57t34 -15q22 0 33 15
t14 57h53q-7 -65 -29.5 -89.5t-70.5 -24.5q-49 0 -71.5 24.5t-29.5 89.5z" />
    <glyph glyph-name="obreve" unicode="&#x14f;" horiz-adv-x="386" 
d="M347 351v-198q0 -73 -40.5 -117t-114.5 -44q-73 0 -113 43.5t-40 117.5v198q0 73 40 118t113 45q75 0 115 -44.5t40 -118.5zM110 349v-194q0 -104 82 -104q84 0 84 104v194q0 105 -84 105q-82 0 -82 -105zM93 725h53q2 -58 13 -78.5t33 -20.5t32.5 20.5t13.5 78.5h53
q-7 -83 -28.5 -112.5t-70.5 -29.5t-70.5 29.5t-28.5 112.5z" />
    <glyph glyph-name="Ohungarumlaut" unicode="&#x150;" horiz-adv-x="473" 
d="M236 735q93 0 141.5 -55.5t48.5 -157.5v-319q0 -102 -48.5 -157.5t-141.5 -55.5q-92 0 -140.5 55.5t-48.5 157.5v319q0 102 48.5 157.5t140.5 55.5zM347 203v319q0 143 -111 143t-111 -143v-319q0 -144 111 -144t111 144zM193 870h74l-60 -109h-46zM308 870h74l-75 -109
h-47z" />
    <glyph glyph-name="ohungarumlaut" unicode="&#x151;" horiz-adv-x="386" 
d="M347 351v-198q0 -73 -40.5 -117t-114.5 -44q-73 0 -113 43.5t-40 117.5v198q0 73 40 118t113 45q75 0 115 -44.5t40 -118.5zM110 349v-194q0 -104 82 -104q84 0 84 104v194q0 105 -84 105q-82 0 -82 -105zM151 725h73l-65 -135h-44zM266 725h73l-80 -135h-45z" />
    <glyph glyph-name="OE" unicode="&#x152;" horiz-adv-x="698" 
d="M347 725h311v-72h-232v-244h187v-65h-187v-272h246v-72h-325v55h-2q-37 -65 -125 -65q-81 0 -127 56.5t-46 156.5v319q0 100 46 156.5t127 56.5q88 0 125 -65h2v55zM347 203v319q0 74 -27 108.5t-84 34.5t-84 -34.5t-27 -108.5v-319q0 -74 27 -109t84 -35t84 35t27 109z
" />
    <glyph glyph-name="oe" unicode="&#x153;" horiz-adv-x="599" 
d="M566 244h-220v-92q0 -103 81 -103q69 0 92 90l51 -19q-36 -130 -147 -130q-80 0 -113 64h-2q-35 -64 -121 -64q-70 0 -109 46t-39 115v203q0 69 39 115t109 46q86 0 121 -65h2q35 65 118 65q64 0 101 -47t37 -117v-107zM274 350q0 105 -82 105q-81 0 -81 -105v-195
q0 -107 80 -107q83 0 83 107v195zM346 354v-61h155v63q0 99 -77 99q-78 0 -78 -101z" />
    <glyph glyph-name="Racute" unicode="&#x154;" horiz-adv-x="453" 
d="M352 0l-130 321h-79v-321h-78v725h173q165 0 165 -195q0 -165 -108 -193l142 -337h-85zM143 655v-268h88q51 0 72.5 32.5t21.5 105.5q0 71 -21 100.5t-70 29.5h-91zM214 870h90l-80 -109h-61z" />
    <glyph glyph-name="racute" unicode="&#x155;" horiz-adv-x="283" 
d="M271 501l-9 -70q-16 11 -40 11q-87 0 -98 -140v-302h-71v505h61l3 -83h2q32 91 104 91q29 0 48 -12zM171 725h82l-75 -135h-52z" />
    <glyph glyph-name="Rcommaaccent" unicode="&#x156;" horiz-adv-x="453" 
d="M352 0l-130 321h-79v-321h-78v725h173q165 0 165 -195q0 -165 -108 -193l142 -337h-85zM143 655v-268h88q51 0 72.5 32.5t21.5 105.5q0 71 -21 100.5t-70 29.5h-91zM197 -93v61h79v-40q0 -53 -18 -75.5t-63 -26.5l-4 30q23 4 31 13.5t8 33.5z" />
    <glyph glyph-name="rcommaaccent" unicode="&#x157;" horiz-adv-x="283" 
d="M271 501l-9 -70q-16 11 -40 11q-87 0 -98 -140v-302h-71v505h61l3 -83h2q32 91 104 91q29 0 48 -12zM51 -93v61h79v-40q0 -53 -18 -75.5t-63 -26.5l-4 30q23 4 31 13.5t8 33.5z" />
    <glyph glyph-name="Rcaron" unicode="&#x158;" horiz-adv-x="453" 
d="M352 0l-130 321h-79v-321h-78v725h173q165 0 165 -195q0 -165 -108 -193l142 -337h-85zM143 655v-268h88q51 0 72.5 32.5t21.5 105.5q0 71 -21 100.5t-70 29.5h-91zM113 870h60l38 -65l39 65h60l-74 -109h-50z" />
    <glyph glyph-name="rcaron" unicode="&#x159;" horiz-adv-x="283" 
d="M271 501l-9 -70q-16 11 -40 11q-87 0 -98 -140v-302h-71v505h61l3 -83h2q32 91 104 91q29 0 48 -12zM62 725h60l38 -83h2l38 83h59l-73 -135h-50z" />
    <glyph glyph-name="Sacute" unicode="&#x15a;" horiz-adv-x="391" 
d="M193 735q66 0 109 -38t61 -106l-58 -22q-23 98 -107 98q-92 0 -92 -103q0 -45 27 -81t65 -62.5l76.5 -55t65.5 -75t27 -106.5q0 -93 -46 -143.5t-125 -50.5q-66 0 -113 42t-61 119l62 21q24 -114 112 -114q96 0 96 117q0 36 -14.5 65t-37.5 50t-51.5 40.5l-56.5 40.5
t-51 45.5t-37.5 61t-14.5 81.5q0 78 44 127t120 49zM215 870h90l-80 -109h-61z" />
    <glyph glyph-name="sacute" unicode="&#x15b;" horiz-adv-x="331" 
d="M172 -8q-107 0 -140 113l55 22q23 -80 83 -80q68 0 68 80q0 33 -21 57t-51 40t-59.5 34t-50.5 49t-21 75q0 57 35 94.5t99 37.5q49 0 83 -29t48 -82l-53 -19q-20 73 -76 73q-34 0 -51 -18.5t-17 -51.5q0 -31 21 -53t50.5 -38t59 -34.5t50.5 -51t21 -78.5q0 -62 -37 -101
t-96 -39zM185 725h82l-75 -135h-52z" />
    <glyph glyph-name="Scircumflex" unicode="&#x15c;" horiz-adv-x="391" 
d="M193 735q66 0 109 -38t61 -106l-58 -22q-23 98 -107 98q-92 0 -92 -103q0 -45 27 -81t65 -62.5l76.5 -55t65.5 -75t27 -106.5q0 -93 -46 -143.5t-125 -50.5q-66 0 -113 42t-61 119l62 21q24 -114 112 -114q96 0 96 117q0 36 -14.5 65t-37.5 50t-51.5 40.5l-56.5 40.5
t-51 45.5t-37.5 61t-14.5 81.5q0 78 44 127t120 49zM167 761h-63l72 109h59l72 -109h-62l-39 64z" />
    <glyph glyph-name="scircumflex" unicode="&#x15d;" horiz-adv-x="331" 
d="M172 -8q-107 0 -140 113l55 22q23 -80 83 -80q68 0 68 80q0 33 -21 57t-51 40t-59.5 34t-50.5 49t-21 75q0 57 35 94.5t99 37.5q49 0 83 -29t48 -82l-53 -19q-20 73 -76 73q-34 0 -51 -18.5t-17 -51.5q0 -31 21 -53t50.5 -38t59 -34.5t50.5 -51t21 -78.5q0 -62 -37 -101
t-96 -39zM133 590h-60l74 135h50l74 -135h-60l-38 83h-2z" />
    <glyph glyph-name="Scedilla" unicode="&#x15e;" horiz-adv-x="391" 
d="M193 735q66 0 109 -38t61 -106l-58 -22q-23 98 -107 98q-92 0 -92 -103q0 -45 27 -81t65 -62.5l76.5 -55t65.5 -75t27 -106.5q0 -87 -40 -136.5t-111 -56.5l-4 -24q66 -11 66 -58q0 -31 -26.5 -52t-72.5 -25l-12 38q53 11 53 35q0 25 -59 29l12 58q-58 6 -98.5 47.5
t-52.5 111.5l62 21q24 -114 112 -114q96 0 96 117q0 36 -14.5 65t-37.5 50t-51.5 40.5l-56.5 40.5t-51 45.5t-37.5 61t-14.5 81.5q0 78 44 127t120 49z" />
    <glyph glyph-name="scedilla" unicode="&#x15f;" horiz-adv-x="331" 
d="M185 -7l-4 -26q66 -11 66 -58q0 -31 -26.5 -52t-72.5 -25l-12 38q53 11 53 35q0 25 -59 29l12 61q-82 13 -110 110l55 22q23 -80 83 -80q68 0 68 80q0 33 -21 57t-51 40t-59.5 34t-50.5 49t-21 75q0 57 35 94.5t99 37.5q49 0 83 -29t48 -82l-53 -19q-20 73 -76 73
q-34 0 -51 -18.5t-17 -51.5q0 -31 21 -53t50.5 -38t59 -34.5t50.5 -51t21 -78.5q0 -58 -33 -96t-87 -43z" />
    <glyph glyph-name="Scaron" unicode="&#x160;" horiz-adv-x="391" 
d="M193 735q66 0 109 -38t61 -106l-58 -22q-23 98 -107 98q-92 0 -92 -103q0 -45 27 -81t65 -62.5l76.5 -55t65.5 -75t27 -106.5q0 -93 -46 -143.5t-125 -50.5q-66 0 -113 42t-61 119l62 21q24 -114 112 -114q96 0 96 117q0 36 -14.5 65t-37.5 50t-51.5 40.5l-56.5 40.5
t-51 45.5t-37.5 61t-14.5 81.5q0 78 44 127t120 49zM105 870h60l38 -65l39 65h60l-74 -109h-50z" />
    <glyph glyph-name="scaron" unicode="&#x161;" horiz-adv-x="331" 
d="M172 -8q-107 0 -140 113l55 22q23 -80 83 -80q68 0 68 80q0 33 -21 57t-51 40t-59.5 34t-50.5 49t-21 75q0 57 35 94.5t99 37.5q49 0 83 -29t48 -82l-53 -19q-20 73 -76 73q-34 0 -51 -18.5t-17 -51.5q0 -31 21 -53t50.5 -38t59 -34.5t50.5 -51t21 -78.5q0 -62 -37 -101
t-96 -39zM72 725h60l38 -83h2l38 83h59l-73 -135h-50z" />
    <glyph glyph-name="Tcommaaccent" unicode="&#x162;" horiz-adv-x="378" 
d="M11 725h356v-73h-139v-652h-18l-5 -33q66 -11 66 -58q0 -31 -26.5 -52t-72.5 -25l-12 38q53 11 53 35q0 25 -59 29l13 66h-17v652h-139v73z" />
    <glyph glyph-name="tcommaaccent" unicode="&#x163;" horiz-adv-x="270" 
d="M244 505v-59h-102v-329q0 -67 54 -67q20 0 40 10l9 -46q-32 -22 -73 -22h-6l-4 -25q66 -11 66 -58q0 -31 -26.5 -52t-72.5 -25l-12 38q53 11 53 35q0 25 -59 29l14 67q-55 25 -55 117v325l-55 12v49l58 4l18 140h51v-143h102z" />
    <glyph glyph-name="Tcaron" unicode="&#x164;" horiz-adv-x="378" 
d="M11 725h356v-73h-139v-652h-78v652h-139v73zM91 870h60l38 -65l39 65h60l-74 -109h-50z" />
    <glyph glyph-name="tcaron" unicode="&#x165;" horiz-adv-x="270" 
d="M244 505v-59h-102v-329q0 -67 54 -67q20 0 40 10l9 -46q-32 -22 -73 -22q-102 0 -102 126v325l-55 12v49l58 4l18 140h51v-143h102zM215 725h64l-42 -136h-40z" />
    <glyph glyph-name="Tbar" unicode="&#x166;" horiz-adv-x="378" 
d="M11 725h356v-73h-139v-224h90v-52h-90v-376h-78v376h-90v52h90v224h-139v73z" />
    <glyph glyph-name="tbar" unicode="&#x167;" horiz-adv-x="270" 
d="M244 505v-59h-102v-64h103v-51h-103v-214q0 -67 54 -67q20 0 40 10l9 -46q-32 -22 -73 -22q-102 0 -102 126v213h-52v51h52v61l-55 12v49l58 4l18 140h51v-143h102z" />
    <glyph glyph-name="Utilde" unicode="&#x168;" horiz-adv-x="493" 
d="M358 725h78v-529q0 -99 -49 -152.5t-140 -53.5q-92 0 -141 53t-49 151v531h78v-532q0 -130 112 -130q111 0 111 130v532zM323 871l39 -6q-7 -57 -22.5 -84t-46.5 -27q-19 0 -36.5 17t-30.5 34.5t-22 17.5q-12 0 -18.5 -14t-11.5 -50l-38 6q6 58 21.5 84.5t46.5 26.5
q20 0 37.5 -17t30.5 -34.5t22 -17.5q21 0 29 64z" />
    <glyph glyph-name="utilde" unicode="&#x169;" horiz-adv-x="405" 
d="M282 100v405h70v-505h-62l-3 43h-2q-39 -51 -112 -51q-61 0 -94.5 43.5t-33.5 122.5v347h71v-347q0 -104 78 -104q55 0 88 46zM279 726l38 -8q-6 -68 -21.5 -100t-47.5 -32q-21 0 -38.5 22.5t-30 45t-21.5 22.5q-20 0 -28 -83l-39 7q6 69 21.5 100.5t46.5 31.5
q22 0 39 -22.5t29.5 -45t22.5 -22.5q20 0 29 84z" />
    <glyph glyph-name="Umacron" unicode="&#x16a;" horiz-adv-x="493" 
d="M358 725h78v-529q0 -99 -49 -152.5t-140 -53.5q-92 0 -141 53t-49 151v531h78v-532q0 -130 112 -130q111 0 111 130v532zM353 846v-50h-212v50h212z" />
    <glyph glyph-name="umacron" unicode="&#x16b;" horiz-adv-x="405" 
d="M282 100v405h70v-505h-62l-3 43h-2q-39 -51 -112 -51q-61 0 -94.5 43.5t-33.5 122.5v347h71v-347q0 -104 78 -104q55 0 88 46zM301 681v-53h-196v53h196z" />
    <glyph glyph-name="Ubreve" unicode="&#x16c;" horiz-adv-x="493" 
d="M358 725h78v-529q0 -99 -49 -152.5t-140 -53.5q-92 0 -141 53t-49 151v531h78v-532q0 -130 112 -130q111 0 111 130v532zM146 870h54q2 -42 13 -57t34 -15q22 0 33 15t14 57h53q-7 -65 -29.5 -89.5t-70.5 -24.5q-49 0 -71.5 24.5t-29.5 89.5z" />
    <glyph glyph-name="ubreve" unicode="&#x16d;" horiz-adv-x="405" 
d="M282 100v405h70v-505h-62l-3 43h-2q-39 -51 -112 -51q-61 0 -94.5 43.5t-33.5 122.5v347h71v-347q0 -104 78 -104q55 0 88 46zM104 725h53q2 -58 13 -78.5t33 -20.5t32.5 20.5t13.5 78.5h53q-7 -83 -28.5 -112.5t-70.5 -29.5t-70.5 29.5t-28.5 112.5z" />
    <glyph glyph-name="Uring" unicode="&#x16e;" horiz-adv-x="493" 
d="M358 725h78v-529q0 -99 -49 -152.5t-140 -53.5q-92 0 -141 53t-49 151v531h78v-532q0 -130 112 -130q111 0 111 130v532zM173 819q0 31 21 50.5t54 19.5t54 -19.5t21 -50.5t-21 -50t-54 -19t-54 19t-21 50zM217 819q0 -15 8 -24.5t23 -9.5t23.5 9.5t8.5 24.5t-8.5 25
t-23.5 10t-23 -10t-8 -25z" />
    <glyph glyph-name="uring" unicode="&#x16f;" horiz-adv-x="405" 
d="M282 100v405h70v-505h-62l-3 43h-2q-39 -51 -112 -51q-61 0 -94.5 43.5t-33.5 122.5v347h71v-347q0 -104 78 -104q55 0 88 46zM127 661q0 34 21 55t54 21t54 -21t21 -55q0 -33 -21 -54t-54 -21t-54 21t-21 54zM170 661q0 -37 32 -37t32 37q0 38 -32 38t-32 -38z" />
    <glyph glyph-name="Uhungarumlaut" unicode="&#x170;" horiz-adv-x="493" 
d="M358 725h78v-529q0 -99 -49 -152.5t-140 -53.5q-92 0 -141 53t-49 151v531h78v-532q0 -130 112 -130q111 0 111 130v532zM195 870h74l-60 -109h-46zM310 870h74l-75 -109h-47z" />
    <glyph glyph-name="uhungarumlaut" unicode="&#x171;" horiz-adv-x="405" 
d="M282 100v405h70v-505h-62l-3 43h-2q-39 -51 -112 -51q-61 0 -94.5 43.5t-33.5 122.5v347h71v-347q0 -104 78 -104q55 0 88 46zM160 725h73l-65 -135h-44zM275 725h73l-80 -135h-45z" />
    <glyph glyph-name="Uogonek" unicode="&#x172;" horiz-adv-x="493" 
d="M358 725h78v-529q0 -85 -36.5 -137t-104.5 -65q-24 -5 -40 -22.5t-16 -40.5q0 -45 41 -45q26 0 51 18l15 -41q-30 -27 -79 -27q-85 0 -85 71q0 51 48 83v2q-84 4 -128.5 56t-44.5 146v531h78v-532q0 -130 112 -130q111 0 111 130v532z" />
    <glyph glyph-name="uogonek" unicode="&#x173;" horiz-adv-x="405" 
d="M282 100v405h70v-505h-3q-25 0 -40.5 -21.5t-15.5 -47.5q0 -45 41 -45q26 0 51 18l15 -41q-30 -27 -80 -27q-42 0 -63.5 19.5t-21.5 55.5q0 61 55 91l-3 41h-2q-39 -51 -112 -51q-61 0 -94.5 43.5t-33.5 122.5v347h71v-347q0 -104 78 -104q55 0 88 46z" />
    <glyph glyph-name="Wcircumflex" unicode="&#x174;" horiz-adv-x="716" 
d="M690 725l-136 -725h-87l-108 574h-2l-109 -574h-87l-135 725h78l103 -614h2l113 614h73l111 -616h2l105 616h77zM319 761h-63l72 109h59l72 -109h-62l-39 64z" />
    <glyph glyph-name="wcircumflex" unicode="&#x175;" horiz-adv-x="580" 
d="M373 0l-82 409h-2l-82 -409h-79l-111 505h74l78 -423h2l86 423h67l86 -426h2l78 426h74l-113 -505h-78zM251 590h-60l74 135h50l74 -135h-60l-38 83h-2z" />
    <glyph glyph-name="Ycircumflex" unicode="&#x176;" horiz-adv-x="439" 
d="M433 725l-174 -480v-245h-79v248l-174 477h86l127 -396h2l127 396h85zM181 761h-63l72 109h59l72 -109h-62l-39 64z" />
    <glyph glyph-name="ycircumflex" unicode="&#x177;" horiz-adv-x="398" 
d="M382 505l-152 -532q-20 -69 -53.5 -101t-91.5 -36l-6 55q37 5 57 24.5t32 62.5l8 29l-160 498h77l116 -407h2l98 407h73zM170 590h-60l74 135h50l74 -135h-60l-38 83h-2z" />
    <glyph glyph-name="Ydieresis" unicode="&#x178;" horiz-adv-x="439" 
d="M433 725l-174 -480v-245h-79v248l-174 477h86l127 -396h2l127 396h85zM125 870h58v-97h-58v97zM258 870h57v-97h-57v97z" />
    <glyph glyph-name="Zacute" unicode="&#x179;" horiz-adv-x="413" 
d="M379 72v-72h-351v50l264 603h-248v72h335v-48l-263 -605h263zM223 870h90l-80 -109h-61z" />
    <glyph glyph-name="zacute" unicode="&#x17a;" horiz-adv-x="335" 
d="M303 62v-62h-274v46l194 397h-184v62h266v-44l-195 -399h193zM185 725h82l-75 -135h-52z" />
    <glyph glyph-name="Zdotaccent" unicode="&#x17b;" horiz-adv-x="413" 
d="M379 72v-72h-351v50l264 603h-248v72h335v-48l-263 -605h263zM177 870h74v-97h-74v97z" />
    <glyph glyph-name="zdotaccent" unicode="&#x17c;" horiz-adv-x="335" 
d="M303 62v-62h-274v46l194 397h-184v62h266v-44l-195 -399h193zM139 725h69v-105h-69v105z" />
    <glyph glyph-name="Zcaron" unicode="&#x17d;" horiz-adv-x="413" 
d="M379 72v-72h-351v50l264 603h-248v72h335v-48l-263 -605h263zM115 870h60l38 -65l39 65h60l-74 -109h-50z" />
    <glyph glyph-name="zcaron" unicode="&#x17e;" horiz-adv-x="335" 
d="M303 62v-62h-274v46l194 397h-184v62h266v-44l-195 -399h193zM76 725h60l38 -83h2l38 83h59l-73 -135h-50z" />
    <glyph glyph-name="longs" unicode="&#x17f;" horiz-adv-x="230" 
d="M254 729l4 -55q-99 -5 -99 -118v-556h-71v448h-74v57h74v53q0 76 40.5 121.5t125.5 49.5z" />
    <glyph glyph-name="uni018F" unicode="&#x18f;" horiz-adv-x="453" 
d="M39 202v168h289v156q0 66 -28.5 103.5t-85.5 37.5q-90 0 -112 -108l-60 18q28 158 175 158q91 0 140 -57.5t49 -153.5v-316q0 -218 -188 -218q-90 0 -134.5 57t-44.5 155zM217 58q58 0 84.5 37t26.5 110v108h-218v-114q0 -141 107 -141z" />
    <glyph glyph-name="florin" unicode="&#x192;" horiz-adv-x="272" 
d="M268 505l-9 -55h-103l-84 -519h-70l83 519h-53l9 55h52l9 53q13 76 61.5 121.5t133.5 49.5l-6 -55q-102 -6 -121 -118l-8 -51h106z" />
    <glyph glyph-name="uni01B5" unicode="&#x1b5;" horiz-adv-x="413" 
d="M53 346v61h131l108 246h-248v72h335v-48l-118 -270h106v-61h-132l-119 -274h263v-72h-351v50l129 296h-104z" />
    <glyph glyph-name="uni01B6" unicode="&#x1b6;" horiz-adv-x="335" 
d="M45 240v52h104l74 151h-184v62h266v-44l-83 -169h79v-52h-104l-87 -178h193v-62h-274v46l95 194h-79z" />
    <glyph glyph-name="Aringacute" unicode="&#x1fa;" horiz-adv-x="475" 
d="M256 919h90l-67 -91q33 -20 33 -58q0 -35 -28 -55l178 -715h-80l-44 192h-204l-43 -192h-79l177 715q-27 19 -27 55q0 26 15 44.5t41 23.5zM235 645l-87 -390h176l-87 390h-2zM206 770q0 -15 8 -24.5t23 -9.5t23.5 9.5t8.5 24.5t-8.5 25t-23.5 10t-23 -10t-8 -25z" />
    <glyph glyph-name="aringacute" unicode="&#x1fb;" horiz-adv-x="369" 
d="M93 378l-48 24q45 113 140 113q65 0 96.5 -41.5t31.5 -114.5v-274q0 -39 33 -39h12v-46q-20 -6 -36 -6q-51 0 -70 43q-41 -45 -104 -45q-53 0 -84.5 36t-31.5 99q0 162 180 162h30v70q0 96 -65 96q-55 0 -84 -77zM163 47q49 0 79 45v143h-30q-61 0 -86.5 -26t-25.5 -77
q0 -85 63 -85zM109 628q0 34 21 55t54 21t54 -21t21 -55q0 -33 -21 -54t-54 -21t-54 21t-21 54zM152 628q0 -37 32 -37t32 37q0 38 -32 38t-32 -38zM200 880h82l-75 -135h-52z" />
    <glyph glyph-name="AEacute" unicode="&#x1fc;" horiz-adv-x="669" 
d="M163 194l-69 -194h-79l265 725h354v-72h-237l19 -244h190v-65h-185l21 -272h201v-72h-275l-14 194h-191zM321 642l-136 -385h164l-26 385h-2zM433 870h90l-80 -109h-61z" />
    <glyph glyph-name="aeacute" unicode="&#x1fd;" horiz-adv-x="573" 
d="M540 242h-215v-90q0 -103 79 -103q66 0 89 90l51 -19q-35 -129 -145 -129q-83 0 -115 68h-2q-37 -68 -130 -68q-55 0 -87.5 37t-32.5 99q0 76 45.5 120.5t141.5 44.5h35v77q0 84 -70 84q-62 0 -82 -79l-53 21q15 54 52 87t86 33q74 0 105 -57q35 57 109 57q65 0 102 -47
t37 -117v-109zM166 48q30 0 55.5 17.5t32.5 48.5v123h-35q-118 0 -118 -106q0 -83 65 -83zM325 354v-62h150v64q0 99 -75 99q-39 0 -57 -24.5t-18 -76.5zM316 725h82l-75 -135h-52z" />
    <glyph glyph-name="Oslashacute" unicode="&#x1fe;" horiz-adv-x="473" 
d="M236 735q98 0 148 -64l29 52l31 -22l-38 -68q20 -48 20 -111v-319q0 -102 -48.5 -157.5t-141.5 -55.5q-101 0 -149 66l-27 -48l-30 22l36 65q-19 44 -19 108v319q0 102 48.5 157.5t140.5 55.5zM347 203v323h-2l-213 -388q20 -79 104 -79q111 0 111 144zM125 522v-320h2
l212 387q-20 76 -103 76q-111 0 -111 -143zM250 870h90l-80 -109h-61z" />
    <glyph glyph-name="oslashacute" unicode="&#x1ff;" horiz-adv-x="386" 
d="M347 351v-198q0 -73 -40.5 -117t-114.5 -44q-75 0 -116 47l-20 -31l-30 22l28 43q-15 35 -15 80v198q0 73 40 118t113 45q75 0 116 -46l22 34l31 -22l-30 -47q16 -33 16 -82zM192 51q84 0 84 104v193h-2l-157 -245q18 -52 75 -52zM110 349v-189h2l155 245q-18 49 -75 49
q-82 0 -82 -105zM207 725h82l-75 -135h-52z" />
    <glyph glyph-name="Scommaaccent" unicode="&#x218;" horiz-adv-x="391" 
d="M193 735q66 0 109 -38t61 -106l-58 -22q-23 98 -107 98q-92 0 -92 -103q0 -45 27 -81t65 -62.5l76.5 -55t65.5 -75t27 -106.5q0 -93 -46 -143.5t-125 -50.5q-66 0 -113 42t-61 119l62 21q24 -114 112 -114q96 0 96 117q0 36 -14.5 65t-37.5 50t-51.5 40.5l-56.5 40.5
t-51 45.5t-37.5 61t-14.5 81.5q0 78 44 127t120 49zM160 -93v61h79v-40q0 -53 -18 -75.5t-63 -26.5l-4 30q23 4 31 13.5t8 33.5z" />
    <glyph glyph-name="scommaaccent" unicode="&#x219;" horiz-adv-x="331" 
d="M172 -8q-107 0 -140 113l55 22q23 -80 83 -80q68 0 68 80q0 33 -21 57t-51 40t-59.5 34t-50.5 49t-21 75q0 57 35 94.5t99 37.5q49 0 83 -29t48 -82l-53 -19q-20 73 -76 73q-34 0 -51 -18.5t-17 -51.5q0 -31 21 -53t50.5 -38t59 -34.5t50.5 -51t21 -78.5q0 -62 -37 -101
t-96 -39zM131 -93v61h79v-40q0 -53 -18 -75.5t-63 -26.5l-4 30q23 4 31 13.5t8 33.5z" />
    <glyph glyph-name="uni021A" unicode="&#x21a;" horiz-adv-x="378" 
d="M11 725h356v-73h-139v-652h-78v652h-139v73zM150 -93v61h79v-40q0 -53 -18 -75.5t-63 -26.5l-4 30q23 4 31 13.5t8 33.5z" />
    <glyph glyph-name="uni021B" unicode="&#x21b;" horiz-adv-x="270" 
d="M244 505v-59h-102v-329q0 -67 54 -67q20 0 40 10l9 -46q-32 -22 -73 -22q-102 0 -102 126v325l-55 12v49l58 4l18 140h51v-143h102zM124 -93v61h79v-40q0 -53 -18 -75.5t-63 -26.5l-4 30q23 4 31 13.5t8 33.5z" />
    <glyph glyph-name="uni0237" unicode="&#x237;" horiz-adv-x="179" 
d="M-14 -165l-6 59q41 7 61 36.5t20 89.5v485h71v-485q0 -171 -146 -185z" />
    <glyph glyph-name="uni0259" unicode="&#x259;" horiz-adv-x="367" 
d="M32 254h224v95q0 105 -85 105q-33 0 -53.5 -20t-33.5 -67l-54 18q31 129 147 129q72 0 111 -45t39 -118v-197q0 -72 -39.5 -117t-109.5 -45q-69 0 -107.5 45.5t-38.5 119.5v97zM176 51q80 0 80 100v54h-160v-54q0 -100 80 -100z" />
    <glyph glyph-name="uni02BB" unicode="&#x2bb;" horiz-adv-x="157" 
d="M119 695v-90h-81v70q0 82 44 147l28 -14q-23 -50 -23 -108z" />
    <glyph glyph-name="afii57929" unicode="&#x2bc;" horiz-adv-x="157" 
d="M39 651v89h81v-69q0 -83 -45 -147l-28 14q24 52 24 107z" />
    <glyph glyph-name="circumflex" unicode="&#x2c6;" horiz-adv-x="214" 
d="M68 590h-60l74 135h50l74 -135h-60l-38 83h-2z" />
    <glyph glyph-name="caron" unicode="&#x2c7;" horiz-adv-x="214" 
d="M8 725h60l38 -83h2l38 83h59l-73 -135h-50z" />
    <glyph glyph-name="uni02C9" unicode="&#x2c9;" horiz-adv-x="214" 
d="M205 681v-53h-196v53h196z" />
    <glyph glyph-name="breve" unicode="&#x2d8;" horiz-adv-x="214" 
d="M8 725h53q2 -58 13 -78.5t33 -20.5t32.5 20.5t13.5 78.5h53q-7 -83 -28.5 -112.5t-70.5 -29.5t-70.5 29.5t-28.5 112.5z" />
    <glyph glyph-name="dotaccent" unicode="&#x2d9;" horiz-adv-x="214" 
d="M44 725h69v-105h-69v105z" />
    <glyph glyph-name="ring" unicode="&#x2da;" horiz-adv-x="214" 
d="M32 661q0 34 21 55t54 21t54 -21t21 -55q0 -33 -21 -54t-54 -21t-54 21t-21 54zM75 661q0 -37 32 -37t32 37q0 38 -32 38t-32 -38z" />
    <glyph glyph-name="ogonek" unicode="&#x2db;" horiz-adv-x="214" 
d="M119 10l33 -6q-30 -11 -46.5 -32t-16.5 -41q0 -45 41 -45q26 0 51 18l15 -41q-30 -27 -79 -27q-85 0 -85 71q0 72 87 103z" />
    <glyph glyph-name="tilde" unicode="&#x2dc;" horiz-adv-x="214" 
d="M182 726l38 -8q-6 -68 -21.5 -100t-47.5 -32q-21 0 -38.5 22.5t-30 45t-21.5 22.5q-20 0 -28 -83l-39 7q6 69 21.5 100.5t46.5 31.5q22 0 39 -22.5t29.5 -45t22.5 -22.5q20 0 29 84z" />
    <glyph glyph-name="hungarumlaut" unicode="&#x2dd;" horiz-adv-x="214" 
d="M69 725h73l-65 -135h-44zM184 725h73l-80 -135h-45z" />
    <glyph glyph-name="gravecomb" unicode="&#x300;" horiz-adv-x="0" 
d="M-203 725h81l58 -135h-54z" />
    <glyph glyph-name="acutecomb" unicode="&#x301;" horiz-adv-x="0" 
d="M-117 725h82l-75 -135h-52z" />
    <glyph glyph-name="uni0302" unicode="&#x302;" horiz-adv-x="0" 
d="M-130 590h-60l74 135h50l74 -135h-60l-38 83h-2z" />
    <glyph glyph-name="tildecomb" unicode="&#x303;" horiz-adv-x="0" 
d="M-36 726l38 -8q-6 -68 -21.5 -100t-47.5 -32q-21 0 -38.5 22.5t-30 45t-21.5 22.5q-20 0 -28 -83l-39 7q6 69 21.5 100.5t46.5 31.5q22 0 39 -22.5t29.5 -45t22.5 -22.5q20 0 29 84z" />
    <glyph glyph-name="uni0304" unicode="&#x304;" horiz-adv-x="0" 
d="M-8 681v-53h-196v53h196z" />
    <glyph glyph-name="uni0306" unicode="&#x306;" horiz-adv-x="0" 
d="M-207 725h53q2 -58 13 -78.5t33 -20.5t32.5 20.5t13.5 78.5h53q-7 -83 -28.5 -112.5t-70.5 -29.5t-70.5 29.5t-28.5 112.5z" />
    <glyph glyph-name="uni0307" unicode="&#x307;" horiz-adv-x="0" 
d="M-117 725h69v-105h-69v105z" />
    <glyph glyph-name="uni0308" unicode="&#x308;" horiz-adv-x="0" 
d="M-191 725h56v-105h-56v105zM-76 725h55v-105h-55v105z" />
    <glyph glyph-name="uni030A" unicode="&#x30a;" horiz-adv-x="0" 
d="M-185 661q0 34 21 55t54 21t54 -21t21 -55q0 -33 -21 -54t-54 -21t-54 21t-21 54zM-142 661q0 -37 32 -37t32 37q0 38 -32 38t-32 -38z" />
    <glyph glyph-name="uni030B" unicode="&#x30b;" horiz-adv-x="0" 
d="M-145 725h73l-65 -135h-44zM-30 725h73l-80 -135h-45z" />
    <glyph glyph-name="uni030C" unicode="&#x30c;" horiz-adv-x="0" 
d="M-207 725h60l38 -83h2l38 83h59l-73 -135h-50z" />
    <glyph glyph-name="uni0312" unicode="&#x312;" horiz-adv-x="0" 
d="M-143 575h-81l55 150h52z" />
    <glyph glyph-name="uni0315" unicode="&#x315;" horiz-adv-x="0" 
d="M91 725h80l-58 -146h-51z" />
    <glyph glyph-name="uni0326" unicode="&#x326;" horiz-adv-x="0" 
d="M-227 -94v62h79v-40q0 -52 -18.5 -75t-63.5 -27l-3 30q22 4 30 14t8 33z" />
    <glyph glyph-name="uni0327" unicode="&#x327;" horiz-adv-x="0" 
d="M-106 16l42 -2l-8 -47q66 -11 66 -58q0 -31 -26.5 -52t-72.5 -25l-12 38q53 11 53 35q0 25 -59 29z" />
    <glyph glyph-name="uni0328" unicode="&#x328;" horiz-adv-x="0" 
d="M-86 10l33 -6q-30 -11 -46.5 -32t-16.5 -41q0 -45 41 -45q26 0 51 18l15 -41q-30 -27 -79 -27q-85 0 -85 71q0 72 87 103z" />
    <glyph glyph-name="uni0335" unicode="&#x335;" horiz-adv-x="1" 
d="M-8 280v-53h-196v53h196z" />
    <glyph glyph-name="uni0336" unicode="&#x336;" horiz-adv-x="1" 
d="M-459 224v59h441v-59h-441z" />
    <glyph glyph-name="uni0394" unicode="&#x394;" horiz-adv-x="475" 
d="M12 0l191 725h69l190 -725h-450zM237 619l-131 -550h261l-128 550h-2z" />
    <glyph glyph-name="uni03A9" unicode="&#x3a9;" horiz-adv-x="473" 
d="M236 735q93 0 141.5 -51t48.5 -148v-182q0 -133 -104 -172v-112h103v-70h-161v228q45 11 64 39t19 86v182q0 130 -111 130t-111 -130v-182q0 -58 19.5 -86t63.5 -39v-228h-160v70h103v112q-104 39 -104 172v182q0 97 48 148t141 51z" />
    <glyph glyph-name="uni03BC" unicode="&#x3bc;" horiz-adv-x="413" 
d="M53 164v341h71v-340q0 -104 80 -104q54 0 85 46v398h71v-505h-62l-4 45h-2q-33 -44 -87 -44q-59 0 -85 49h-2q6 -133 15 -206l-72 -6q-8 170 -8 326z" />
    <glyph glyph-name="pi" unicode="&#x3c0;" horiz-adv-x="407" 
d="M344 0h-71v445h-140v-360q0 -42 -23 -66t-62 -24q-15 0 -35 6v46h11q38 0 38 45v351h-45v62h371v-62h-44v-443z" />
    <glyph glyph-name="uni0400" unicode="&#x400;" horiz-adv-x="415" 
d="M65 725h310v-72h-232v-244h188v-65h-188v-272h246v-72h-324v725zM115 870h90l59 -109h-61z" />
    <glyph glyph-name="afii10023" unicode="&#x401;" horiz-adv-x="415" 
d="M65 725h310v-72h-232v-244h188v-65h-188v-272h246v-72h-324v725zM128 870h58v-97h-58v97zM261 870h57v-97h-57v97z" />
    <glyph glyph-name="afii10051" unicode="&#x402;" horiz-adv-x="479" 
d="M198 378v-378h-71v658h-117v67h313v-67h-125v-202h2q37 55 106 55q62 0 95 -43.5t33 -124.5v-323q0 -171 -146 -185l-5 56q42 7 61 37t19 92v321q0 105 -78 105q-63 0 -87 -68z" />
    <glyph glyph-name="afii10052" unicode="&#x403;" horiz-adv-x="354" 
d="M65 725h278v-72h-202v-653h-76v725zM208 870h90l-80 -109h-61z" />
    <glyph glyph-name="afii10053" unicode="&#x404;" horiz-adv-x="424" 
d="M393 582l-58 -20q-25 105 -108 105q-101 0 -101 -144v-114h175v-69h-175v-144q0 -66 25.5 -103t74.5 -37q86 0 110 115l59 -19q-32 -162 -176 -162q-79 0 -125.5 57.5t-46.5 151.5v323q0 100 46 156.5t129 56.5q65 0 109 -41t62 -112z" />
    <glyph glyph-name="afii10054" unicode="&#x405;" horiz-adv-x="391" 
d="M193 735q66 0 109 -38t61 -106l-58 -22q-23 98 -107 98q-92 0 -92 -103q0 -45 27 -81t65 -62.5l76.5 -55t65.5 -75t27 -106.5q0 -93 -46 -143.5t-125 -50.5q-66 0 -113 42t-61 119l62 21q24 -114 112 -114q96 0 96 117q0 36 -14.5 65t-37.5 50t-51.5 40.5l-56.5 40.5
t-51 45.5t-37.5 61t-14.5 81.5q0 78 44 127t120 49z" />
    <glyph glyph-name="afii10055" unicode="&#x406;" horiz-adv-x="236" 
d="M79 725h78v-725h-78v725z" />
    <glyph glyph-name="afii10056" unicode="&#x407;" horiz-adv-x="236" 
d="M79 725h78v-725h-78v725zM24 870h58v-97h-58v97zM157 870h57v-97h-57v97z" />
    <glyph glyph-name="afii10057" unicode="&#x408;" horiz-adv-x="224" 
d="M81 725h79v-621q0 -235 -207 -238l-6 66q69 0 101.5 40.5t32.5 129.5v623z" />
    <glyph glyph-name="afii10058" unicode="&#x409;" horiz-adv-x="720" 
d="M424 725v-301h94q92 0 131.5 -51t39.5 -155q0 -114 -40 -166t-136 -52h-168v655h-152l-10 -289q-5 -153 -24 -236t-46 -109t-72 -26q-23 0 -37 6v54h14q30 0 46.5 21t27.5 90t16 204l13 355h303zM424 70h87q55 0 78 31.5t23 116.5q0 76 -23.5 107t-79.5 31h-85v-286z" />
    <glyph glyph-name="afii10059" unicode="&#x40a;" horiz-adv-x="727" 
d="M65 725h78v-297h208v297h79v-301h94q92 0 131.5 -51t39.5 -155q0 -114 -40 -166t-136 -52h-168v355h-208v-355h-78v725zM430 70h87q55 0 78 31.5t23 116.5q0 76 -23.5 107t-79.5 31h-85v-286z" />
    <glyph glyph-name="afii10060" unicode="&#x40b;" horiz-adv-x="479" 
d="M198 378v-378h-71v658h-117v67h313v-67h-125v-202h2q37 55 106 55q62 0 95 -43.5t33 -124.5v-343h-71v341q0 105 -78 105q-63 0 -87 -68z" />
    <glyph glyph-name="afii10061" unicode="&#x40c;" horiz-adv-x="475" 
d="M442 725v-57h-18q-42 0 -61 -55l-62 -170q-16 -45 -53 -64v-2q43 -15 60 -62l74 -207q20 -53 63 -53h17v-55q-17 -5 -42 -5q-79 0 -112 92l-77 214q-16 43 -62 43h-28v-344h-76v725h76v-317h27q43 0 60 47l68 186q32 88 110 88q18 0 36 -4zM250 870h90l-80 -109h-61z" />
    <glyph glyph-name="uni040D" unicode="&#x40d;" horiz-adv-x="502" 
d="M363 725h74v-725h-74v564h-2l-223 -564h-73v725h73v-564h2zM145 870h90l59 -109h-61z" />
    <glyph glyph-name="afii10062" unicode="&#x40e;" horiz-adv-x="439" 
d="M6 725h88l141 -408h2l113 408h83l-183 -599q-40 -129 -164 -129l-4 65q77 7 96 81l21 80zM124 870h54q2 -42 13 -57t34 -15q22 0 33 15t14 57h53q-7 -65 -29.5 -89.5t-70.5 -24.5q-49 0 -71.5 24.5t-29.5 89.5z" />
    <glyph glyph-name="afii10145" unicode="&#x40f;" horiz-adv-x="486" 
d="M422 0h-138v-156h-74v156h-145v725h78v-654h201v654h78v-725z" />
    <glyph glyph-name="afii10017" unicode="&#x410;" horiz-adv-x="475" 
d="M134 192l-43 -192h-79l180 725h90l180 -725h-80l-44 192h-204zM235 645l-87 -390h176l-87 390h-2z" />
    <glyph glyph-name="afii10018" unicode="&#x411;" horiz-adv-x="443" 
d="M65 725h317v-71h-239v-229h93q92 0 132 -51.5t40 -155.5q0 -113 -40.5 -165.5t-135.5 -52.5h-167v725zM143 70h87q54 0 77.5 32t23.5 116q0 75 -24 106t-78 31h-86v-285z" />
    <glyph glyph-name="afii10019" unicode="&#x412;" horiz-adv-x="458" 
d="M396 543q0 -69 -20.5 -107t-65.5 -54v-2q112 -27 112 -173q0 -107 -40.5 -157t-136.5 -50h-180v725h160q171 0 171 -182zM141 343v-273h102q54 0 77.5 30.5t23.5 110.5q0 72 -24 102t-76 30h-103zM141 654v-246h87q52 0 73 31t21 97q0 64 -22 91t-73 27h-86z" />
    <glyph glyph-name="afii10020" unicode="&#x413;" horiz-adv-x="354" 
d="M65 725h278v-72h-202v-653h-76v725z" />
    <glyph glyph-name="afii10021" unicode="&#x414;" horiz-adv-x="492" 
d="M126 725h290v-660h65v-215h-78v150h-324v-150h-77v215h55q46 160 56 376zM338 655h-143l-10 -219q-9 -220 -54 -371h207v590z" />
    <glyph glyph-name="afii10022" unicode="&#x415;" horiz-adv-x="415" 
d="M65 725h310v-72h-232v-244h188v-65h-188v-272h246v-72h-324v725z" />
    <glyph glyph-name="afii10024" unicode="&#x416;" horiz-adv-x="678" 
d="M30 668v56q15 5 39 5q32 0 57 -22.5t38 -64.5l59 -187q15 -47 52 -47h26v317h76v-317h25q39 0 53 47l59 187q27 87 95 87q24 0 39 -5v-56h-16q-21 0 -32.5 -13t-21.5 -42l-54 -171q-14 -45 -48 -64v-2q42 -17 55 -61l65 -207q17 -53 56 -53h14v-55q-13 -5 -36 -5
q-77 0 -106 90l-68 216q-13 43 -54 43h-25v-344h-76v344h-25q-42 0 -55 -43l-67 -216q-27 -90 -106 -90q-22 0 -37 5v55h15q40 0 56 53l64 207q14 45 55 62v2q-34 19 -47 63l-54 171q-9 28 -21.5 41.5t-32.5 13.5h-16z" />
    <glyph glyph-name="afii10025" unicode="&#x417;" horiz-adv-x="416" 
d="M142 340v68h47q104 0 104 98v64q0 48 -25 73.5t-68 25.5q-82 0 -111 -107l-59 20q18 73 64.5 113t112.5 40q76 0 119 -45t43 -116v-64q0 -102 -80 -131v-2q91 -23 91 -133v-87q0 -76 -46.5 -121.5t-126.5 -45.5q-140 0 -179 162l59 18q28 -116 115 -116q100 0 100 106v84
q0 54 -27.5 75t-82.5 21h-50z" />
    <glyph glyph-name="afii10026" unicode="&#x418;" horiz-adv-x="502" 
d="M363 725h74v-725h-74v564h-2l-223 -564h-73v725h73v-564h2z" />
    <glyph glyph-name="afii10027" unicode="&#x419;" horiz-adv-x="502" 
d="M363 725h74v-725h-74v564h-2l-223 -564h-73v725h73v-564h2zM150 870h54q2 -42 13 -57t34 -15q22 0 33 15t14 57h53q-7 -65 -29.5 -89.5t-70.5 -24.5q-49 0 -71.5 24.5t-29.5 89.5z" />
    <glyph glyph-name="afii10028" unicode="&#x41a;" horiz-adv-x="475" 
d="M442 725v-57h-18q-42 0 -61 -55l-62 -170q-16 -45 -53 -64v-2q43 -15 60 -62l74 -207q20 -53 63 -53h17v-55q-17 -5 -42 -5q-79 0 -112 92l-77 214q-16 43 -62 43h-28v-344h-76v725h76v-317h27q43 0 60 47l68 186q32 88 110 88q18 0 36 -4z" />
    <glyph glyph-name="afii10029" unicode="&#x41b;" horiz-adv-x="488" 
d="M424 725v-725h-79v655h-152l-10 -289q-5 -153 -24 -236t-46 -109t-72 -26q-23 0 -37 6v54h14q30 0 46.5 21t27.5 90t16 204l13 355h303z" />
    <glyph glyph-name="afii10030" unicode="&#x41c;" horiz-adv-x="629" 
d="M494 725h70v-725h-70v532h-2l-160 -397h-36l-159 396h-2v-531h-70v725h70l178 -470h2z" />
    <glyph glyph-name="afii10031" unicode="&#x41d;" horiz-adv-x="494" 
d="M65 725h78v-315h208v315h79v-725h-79v338h-208v-338h-78v725z" />
    <glyph glyph-name="afii10032" unicode="&#x41e;" horiz-adv-x="473" 
d="M236 735q93 0 141.5 -55.5t48.5 -157.5v-319q0 -102 -48.5 -157.5t-141.5 -55.5q-92 0 -140.5 55.5t-48.5 157.5v319q0 102 48.5 157.5t140.5 55.5zM347 203v319q0 143 -111 143t-111 -143v-319q0 -144 111 -144t111 144z" />
    <glyph glyph-name="afii10033" unicode="&#x41f;" horiz-adv-x="486" 
d="M65 725h357v-725h-78v655h-201v-655h-78v725z" />
    <glyph glyph-name="afii10034" unicode="&#x420;" horiz-adv-x="443" 
d="M247 725q82 0 124.5 -55.5t42.5 -161.5q0 -103 -42 -159.5t-122 -56.5h-107v-292h-78v725h182zM143 655v-297h102q48 0 69.5 35.5t21.5 114.5t-21.5 113t-69.5 34h-102z" />
    <glyph glyph-name="afii10035" unicode="&#x421;" horiz-adv-x="421" 
d="M226 735q64 0 108 -41.5t57 -108.5l-60 -20q-22 100 -101 100q-104 0 -104 -147v-318q0 -66 26.5 -104t76.5 -38q45 0 68.5 24t34.5 84l60 -18q-14 -84 -55 -121t-113 -37q-82 0 -129.5 57.5t-47.5 151.5v319q0 102 47.5 159.5t131.5 57.5z" />
    <glyph glyph-name="afii10036" unicode="&#x422;" horiz-adv-x="378" 
d="M11 725h356v-73h-139v-652h-78v652h-139v73z" />
    <glyph glyph-name="afii10037" unicode="&#x423;" horiz-adv-x="439" 
d="M6 725h88l141 -408h2l113 408h83l-183 -599q-40 -129 -164 -129l-4 65q77 7 96 81l21 80z" />
    <glyph glyph-name="afii10038" unicode="&#x424;" horiz-adv-x="562" 
d="M242 725h78v-92h18q93 0 139.5 -53.5t46.5 -143.5v-143q0 -93 -47 -145.5t-139 -52.5h-18v-95h-78v95h-18q-92 0 -139.5 52.5t-47.5 145.5v142q0 92 47 145t140 53h18v92zM339 565h-22v-403h22q110 0 110 130v145q0 128 -110 128zM223 162h21v403h-21q-110 0 -110 -128
v-145q0 -130 110 -130z" />
    <glyph glyph-name="afii10039" unicode="&#x425;" horiz-adv-x="453" 
d="M19 0l158 367l-153 358h84l119 -309h2l117 309h84l-153 -361l157 -364h-84l-124 312h-2l-122 -312h-83z" />
    <glyph glyph-name="afii10040" unicode="&#x426;" horiz-adv-x="486" 
d="M410 74h65v-230h-73v156h-337v725h78v-654h189v654h78v-651z" />
    <glyph glyph-name="afii10041" unicode="&#x427;" horiz-adv-x="447" 
d="M382 0h-78v318q-43 -10 -89 -10q-93 0 -136 44.5t-43 144.5v228h79v-227q0 -69 28 -95t91 -26q35 0 70 7v341h78v-725z" />
    <glyph glyph-name="afii10042" unicode="&#x428;" horiz-adv-x="688" 
d="M624 0h-559v725h78v-654h162v654h78v-654h163v654h78v-725z" />
    <glyph glyph-name="afii10043" unicode="&#x429;" horiz-adv-x="700" 
d="M624 74h65v-230h-78v156h-546v725h78v-654h162v654h78v-654h163v654h78v-651z" />
    <glyph glyph-name="afii10044" unicode="&#x42a;" horiz-adv-x="523" 
d="M149 654h-138v71h216v-301h94q92 0 131.5 -51t39.5 -155q0 -114 -40 -166t-136 -52h-167v654zM227 70h87q55 0 78 31.5t23 116.5q0 76 -23.5 107t-79.5 31h-85v-286z" />
    <glyph glyph-name="afii10045" unicode="&#x42b;" horiz-adv-x="643" 
d="M65 725h78v-301h94q92 0 131.5 -51t39.5 -155q0 -114 -40 -166t-136 -52h-167v725zM143 70h87q55 0 78 31.5t23 116.5q0 76 -23.5 107t-79.5 31h-85v-286zM500 725h78v-725h-78v725z" />
    <glyph glyph-name="afii10046" unicode="&#x42c;" horiz-adv-x="439" 
d="M65 725h78v-301h94q92 0 131.5 -51t39.5 -155q0 -114 -40 -166t-136 -52h-167v725zM143 70h87q55 0 78 31.5t23 116.5q0 76 -23.5 107t-79.5 31h-85v-286z" />
    <glyph glyph-name="afii10047" unicode="&#x42d;" horiz-adv-x="424" 
d="M124 340v69h175v114q0 144 -102 144q-81 0 -108 -105l-58 20q18 71 62.5 112t109.5 41q83 0 129 -56.5t46 -156.5v-323q0 -95 -46.5 -152t-126.5 -57q-144 0 -175 162l59 19q23 -115 109 -115q49 0 75 37t26 103v144h-175z" />
    <glyph glyph-name="afii10048" unicode="&#x42e;" horiz-adv-x="664" 
d="M65 725h76v-316h111v113q0 102 46 157.5t136 55.5t136.5 -55.5t46.5 -157.5v-319q0 -102 -46.5 -157.5t-136.5 -55.5t-136 55.5t-46 157.5v141h-111v-344h-76v725zM539 203v319q0 141 -105 141q-104 0 -104 -141v-319q0 -73 25.5 -107.5t78.5 -34.5q105 0 105 142z" />
    <glyph glyph-name="afii10049" unicode="&#x42f;" horiz-adv-x="464" 
d="M242 725h157v-725h-78v326h-60q-37 -3 -50 -46l-60 -195q-28 -90 -106 -90q-22 0 -37 5v55h15q41 0 56 52l54 179q12 42 44 59v2q-58 12 -85 55.5t-27 126.5q0 98 42.5 147t134.5 49zM321 388v267h-77q-52 0 -75.5 -29t-23.5 -103q0 -73 23 -104t79 -31h74z" />
    <glyph glyph-name="afii10065" unicode="&#x430;" horiz-adv-x="369" 
d="M93 378l-48 24q45 113 140 113q65 0 96.5 -41.5t31.5 -114.5v-274q0 -39 33 -39h12v-46q-20 -6 -36 -6q-51 0 -70 43q-41 -45 -104 -45q-53 0 -84.5 36t-31.5 99q0 162 180 162h30v70q0 96 -65 96q-55 0 -84 -77zM163 47q49 0 79 45v143h-30q-61 0 -86.5 -26t-25.5 -77
q0 -85 63 -85z" />
    <glyph glyph-name="afii10066" unicode="&#x431;" horiz-adv-x="387" 
d="M325 719l12 -62q-23 -14 -63 -23l-79 -16q-101 -20 -101 -133v-29h2q35 57 111 57q67 0 103.5 -44t36.5 -118v-198q0 -73 -40.5 -117t-114.5 -44q-73 0 -113 44t-40 117v331q0 79 35.5 131t102.5 68zM110 346v-191q0 -104 82 -104q84 0 84 104v191q0 108 -83 108
t-83 -108z" />
    <glyph glyph-name="afii10067" unicode="&#x432;" horiz-adv-x="375" 
d="M328 382q0 -93 -71 -114v-2q93 -18 93 -120q0 -75 -33.5 -110.5t-111.5 -35.5h-152v505h139q136 0 136 -123zM120 236v-179h84q43 0 61.5 20t18.5 72q0 47 -19.5 67t-60.5 20h-84zM120 447v-159h68q43 0 60.5 21t17.5 65q0 40 -17 56.5t-56 16.5h-73z" />
    <glyph glyph-name="afii10068" unicode="&#x433;" horiz-adv-x="301" 
d="M287 505v-64h-163v-441h-71v505h234z" />
    <glyph glyph-name="afii10069" unicode="&#x434;" horiz-adv-x="419" 
d="M106 505h248v-444h56v-209h-66v148h-272v-148h-67v209h50q28 100 36 216zM283 444h-117l-11 -169q-8 -113 -35 -217h163v386z" />
    <glyph glyph-name="afii10070" unicode="&#x435;" horiz-adv-x="367" 
d="M334 251h-224v-94q0 -105 85 -105q33 0 53.5 20t33.5 67l54 -18q-31 -129 -147 -129q-72 0 -111 45t-39 118v196q0 73 39 118t110 45q69 0 107.5 -46t38.5 -120v-97zM110 354v-53h160v54q0 100 -80 100t-80 -101z" />
    <glyph glyph-name="afii10072" unicode="&#x436;" horiz-adv-x="572" 
d="M26 454v51q16 4 29 4q76 0 96 -72l24 -91q15 -59 54 -59h22v218h70v-218h22q39 0 54 59l24 91q20 72 96 72q13 0 29 -4v-51h-15q-39 0 -51 -46l-22 -84q-10 -40 -37 -60q29 -14 42 -56l34 -109q17 -51 50 -51h11v-46q-18 -6 -32 -6q-36 0 -57 17.5t-36 61.5l-41 124
q-12 34 -43 34h-28v-233h-70v233h-28q-31 0 -43 -34l-41 -124q-14 -44 -35 -61.5t-57 -17.5q-15 0 -33 6v46h11q33 0 50 51l34 109q13 42 42 56q-27 20 -37 60l-22 84q-12 46 -50 46h-16z" />
    <glyph glyph-name="afii10073" unicode="&#x437;" horiz-adv-x="347" 
d="M113 231v56h42q44 0 64.5 19.5t20.5 67.5q0 81 -73 81q-67 0 -87 -70l-55 12q14 54 52 85t96 31q66 0 101.5 -36.5t35.5 -99.5q0 -87 -62 -112v-2q75 -19 75 -115q0 -158 -153 -158q-56 0 -95 25.5t-53 76.5l54 15q21 -62 91 -62q46 0 66.5 25t20.5 77q0 49 -23.5 66.5
t-72.5 17.5h-45z" />
    <glyph glyph-name="afii10074" unicode="&#x438;" horiz-adv-x="420" 
d="M301 505h66v-505h-66v396h-2l-180 -396h-66v505h66v-399h2z" />
    <glyph glyph-name="afii10075" unicode="&#x439;" horiz-adv-x="420" 
d="M301 505h66v-505h-66v396h-2l-180 -396h-66v505h66v-399h2zM113 725h53q2 -58 13 -78.5t33 -20.5t32.5 20.5t13.5 78.5h53q-7 -83 -28.5 -112.5t-70.5 -29.5t-70.5 29.5t-28.5 112.5z" />
    <glyph glyph-name="afii10076" unicode="&#x43a;" horiz-adv-x="388" 
d="M363 48h12v-46q-20 -6 -33 -6q-35 0 -55.5 18t-37.5 61l-47 124q-12 34 -44 34h-34v-233h-71v505h71v-218h28q33 0 54 59l31 91q25 72 96 72q13 0 29 -4v-51h-15q-36 0 -51 -46l-29 -84q-14 -41 -38 -59q29 -14 44 -54l41 -113q10 -28 21 -39t28 -11z" />
    <glyph glyph-name="afii10077" unicode="&#x43b;" horiz-adv-x="414" 
d="M361 505v-505h-71v445h-116l-16 -300q-8 -149 -112 -149q-19 0 -37 6v46h17q32 0 48 24.5t19 85.5l17 347h251z" />
    <glyph glyph-name="afii10078" unicode="&#x43c;" horiz-adv-x="504" 
d="M385 505h66v-505h-66v352h-2l-114 -256h-34l-114 258h-2v-354h-66v505h66l132 -305h2z" />
    <glyph glyph-name="afii10079" unicode="&#x43d;" horiz-adv-x="414" 
d="M124 0h-71v505h71v-213h166v213h71v-505h-71v232h-166v-232z" />
    <glyph glyph-name="afii10080" unicode="&#x43e;" horiz-adv-x="386" 
d="M347 351v-198q0 -73 -40.5 -117t-114.5 -44q-73 0 -113 43.5t-40 117.5v198q0 73 40 118t113 45q75 0 115 -44.5t40 -118.5zM110 349v-194q0 -104 82 -104q84 0 84 104v194q0 105 -84 105q-82 0 -82 -105z" />
    <glyph glyph-name="afii10081" unicode="&#x43f;" horiz-adv-x="405" 
d="M124 0h-71v505h299v-505h-71v444h-157v-444z" />
    <glyph glyph-name="afii10082" unicode="&#x440;" horiz-adv-x="399" 
d="M229 -8q-67 0 -103 45h-2v-238h-71v706h62l3 -43h2q39 52 112 52q62 0 95 -44t33 -125v-184q0 -81 -34 -125t-97 -44zM124 402v-302q30 -44 86 -44q79 0 79 106v181q0 106 -78 106q-55 0 -87 -47z" />
    <glyph glyph-name="afii10083" unicode="&#x441;" horiz-adv-x="342" 
d="M323 399l-52 -20q-20 74 -81 74q-80 0 -80 -104v-192q0 -105 80 -105q61 0 82 77l53 -18q-31 -119 -139 -119q-71 0 -109 45.5t-38 116.5v197q0 72 38 117.5t108 45.5q51 0 87 -30t51 -85z" />
    <glyph glyph-name="afii10084" unicode="&#x442;" horiz-adv-x="338" 
d="M205 0h-71v442h-120v63h310v-63h-119v-442z" />
    <glyph glyph-name="afii10085" unicode="&#x443;" horiz-adv-x="398" 
d="M382 505l-163 -577q-20 -69 -53.5 -101t-91.5 -36l-6 59q38 5 58 23.5t31 62.5l18 72l-159 497h78l114 -405h2l98 405h74z" />
    <glyph glyph-name="afii10086" unicode="&#x444;" horiz-adv-x="572" 
d="M250 711h71v-233h2q30 35 83 35q61 0 94 -44t33 -123v-188q0 -78 -33 -121.5t-93 -43.5q-54 0 -84 36h-2v-232h-71v232h-2q-32 -36 -84 -36q-60 0 -92.5 43t-32.5 122v188q0 79 33 123t94 44q52 0 82 -35h2v233zM183 52q42 0 69 37v327q-27 36 -67 36q-75 0 -75 -106
v-190q0 -104 73 -104zM386 452q-39 0 -66 -36v-327q27 -37 68 -37q74 0 74 104v190q0 106 -76 106z" />
    <glyph glyph-name="afii10087" unicode="&#x445;" horiz-adv-x="388" 
d="M18 0l127 261l-121 244h80l91 -203h2l89 203h78l-121 -248l127 -257h-79l-98 216h-2l-94 -216h-79z" />
    <glyph glyph-name="afii10088" unicode="&#x446;" horiz-adv-x="410" 
d="M53 505h71v-444h150v444h71v-444h56v-209h-67v148h-281v505z" />
    <glyph glyph-name="afii10089" unicode="&#x447;" horiz-adv-x="389" 
d="M118 505v-159q0 -45 18.5 -64t64.5 -19q38 0 64 6v236h71v-505h-71v211q-33 -8 -80 -8q-72 0 -105 35.5t-33 105.5v161h71z" />
    <glyph glyph-name="afii10090" unicode="&#x448;" horiz-adv-x="600" 
d="M53 505h71v-444h141v444h71v-444h140v444h71v-505h-494v505z" />
    <glyph glyph-name="afii10091" unicode="&#x449;" horiz-adv-x="612" 
d="M53 505h71v-444h141v444h71v-444h140v444h71v-444h56v-209h-66v148h-484v505z" />
    <glyph glyph-name="afii10092" unicode="&#x44a;" horiz-adv-x="447" 
d="M199 505v-208h77q77 0 112 -36t35 -108q0 -79 -34 -116t-114 -37h-147v445h-114v60h185zM199 239v-182h76q44 0 62.5 20.5t18.5 74.5q0 47 -20 67t-62 20h-75z" />
    <glyph glyph-name="afii10093" unicode="&#x44b;" horiz-adv-x="524" 
d="M400 505h71v-505h-71v505zM124 505v-208h77q77 0 112 -36t35 -108q0 -79 -34 -116t-114 -37h-147v505h71zM124 239v-182h76q44 0 62.5 20.5t18.5 74.5q0 47 -20 67t-62 20h-75z" />
    <glyph glyph-name="afii10094" unicode="&#x44c;" horiz-adv-x="372" 
d="M124 505v-208h77q77 0 112 -36t35 -108q0 -79 -34 -116t-114 -37h-147v505h71zM124 239v-182h76q44 0 62.5 20.5t18.5 74.5q0 47 -20 67t-62 20h-75z" />
    <glyph glyph-name="afii10095" unicode="&#x44d;" horiz-adv-x="364" 
d="M255 150v83h-145v57h145v63q0 102 -79 102q-63 0 -85 -75l-51 19q15 54 51.5 84.5t88.5 30.5q70 0 107.5 -45t37.5 -118v-197q0 -71 -38 -116.5t-109 -45.5q-107 0 -140 119l52 17q22 -79 84 -79q81 0 81 101z" />
    <glyph glyph-name="afii10096" unicode="&#x44e;" horiz-adv-x="539" 
d="M55 505h71v-213h79v59q0 73 38.5 118t108.5 45q71 0 109.5 -44.5t38.5 -118.5v-198q0 -73 -39 -117t-109 -44t-108.5 44t-38.5 117v79h-79v-232h-71v505zM276 349v-194q0 -104 76 -104q77 0 77 104v194q0 105 -77 105q-76 0 -76 -105z" />
    <glyph glyph-name="afii10097" unicode="&#x44f;" horiz-adv-x="389" 
d="M12 48h12q32 0 52 47l40 98q11 28 25 37v2q-90 19 -90 136q0 137 146 137h139v-505h-69v217h-39q-33 0 -47 -36l-42 -110q-16 -42 -37 -58.5t-56 -16.5q-16 0 -34 6v46zM267 270v176h-63q-44 0 -62 -19.5t-18 -62.5q0 -48 17 -71t64 -23h62z" />
    <glyph glyph-name="uni0450" unicode="&#x450;" horiz-adv-x="367" 
d="M96 725h81l58 -135h-54zM334 251h-224v-94q0 -105 85 -105q33 0 53.5 20t33.5 67l54 -18q-31 -129 -147 -129q-72 0 -111 45t-39 118v196q0 73 39 118t110 45q69 0 107.5 -46t38.5 -120v-97zM110 354v-53h160v54q0 100 -80 100t-80 -101z" />
    <glyph glyph-name="afii10071" unicode="&#x451;" horiz-adv-x="367" 
d="M334 251h-224v-94q0 -105 85 -105q33 0 53.5 20t33.5 67l54 -18q-31 -129 -147 -129q-72 0 -111 45t-39 118v196q0 73 39 118t110 45q69 0 107.5 -46t38.5 -120v-97zM110 354v-53h160v54q0 100 -80 100t-80 -101zM105 725h56v-105h-56v105zM220 725h55v-105h-55v105z" />
    <glyph glyph-name="afii10099" unicode="&#x452;" horiz-adv-x="409" 
d="M220 647v-49h-93v-133h2q37 49 106 49q62 0 95 -43.5t33 -123.5v-327q0 -171 -146 -185l-5 56q42 7 61 37t19 92v326q0 105 -78 105q-56 0 -87 -47v-404h-71v598h-68v49h68v102h71v-102h93z" />
    <glyph glyph-name="afii10100" unicode="&#x453;" horiz-adv-x="301" 
d="M287 505v-64h-163v-441h-71v505h234zM151 725h82l-75 -135h-52z" />
    <glyph glyph-name="afii10101" unicode="&#x454;" horiz-adv-x="342" 
d="M109 150q0 -100 81 -100q62 0 84 78l52 -17q-33 -119 -141 -119q-70 0 -108 45.5t-38 116.5v197q0 72 38 117.5t108 45.5q51 0 87.5 -30.5t51.5 -84.5l-51 -19q-22 75 -83 75q-81 0 -81 -102v-63h145v-57h-145v-83z" />
    <glyph glyph-name="afii10102" unicode="&#x455;" horiz-adv-x="331" 
d="M172 -8q-107 0 -140 113l55 22q23 -80 83 -80q68 0 68 80q0 33 -21 57t-51 40t-59.5 34t-50.5 49t-21 75q0 57 35 94.5t99 37.5q49 0 83 -29t48 -82l-53 -19q-20 73 -76 73q-34 0 -51 -18.5t-17 -51.5q0 -31 21 -53t50.5 -38t59 -34.5t50.5 -51t21 -78.5q0 -62 -37 -101
t-96 -39z" />
    <glyph glyph-name="afii10103" unicode="&#x456;" horiz-adv-x="191" 
d="M60 505h71v-505h-71v505zM62 725h69v-105h-69v105z" />
    <glyph glyph-name="afii10104" unicode="&#x457;" horiz-adv-x="191" 
d="M60 505h71v-505h-71v505zM11 725h56v-105h-56v105zM126 725h55v-105h-55v105z" />
    <glyph glyph-name="afii10105" unicode="&#x458;" horiz-adv-x="197" 
d="M71 725h69v-105h-69v105zM-5 -209l-6 59q42 7 61 36t19 90v529h72v-529q0 -171 -146 -185z" />
    <glyph glyph-name="afii10106" unicode="&#x459;" horiz-adv-x="610" 
d="M361 505v-208h77q77 0 112 -36t35 -108q0 -79 -34 -116t-114 -37h-147v445h-116l-16 -300q-8 -149 -112 -149q-19 0 -37 6v46h17q32 0 48 24.5t19 85.5l17 347h251zM361 239v-182h76q44 0 62.5 20.5t18.5 74.5q0 47 -20 67t-62 20h-75z" />
    <glyph glyph-name="afii10107" unicode="&#x45a;" horiz-adv-x="610" 
d="M124 0h-71v505h71v-213h166v213h71v-208h77q77 0 112 -36t35 -108q0 -79 -34 -116t-114 -37h-147v232h-166v-232zM361 239v-182h76q44 0 62.5 20.5t18.5 74.5q0 47 -20 67t-62 20h-75z" />
    <glyph glyph-name="afii10108" unicode="&#x45b;" horiz-adv-x="409" 
d="M127 404v-404h-71v597h-68v50h68v102h71v-102h93v-50h-93v-132h2q37 49 106 49q62 0 95 -43.5t33 -123.5v-347h-71v346q0 105 -78 105q-56 0 -87 -47z" />
    <glyph glyph-name="afii10109" unicode="&#x45c;" horiz-adv-x="388" 
d="M363 48h12v-46q-20 -6 -33 -6q-35 0 -55.5 18t-37.5 61l-47 124q-12 34 -44 34h-34v-233h-71v505h71v-218h28q33 0 54 59l31 91q25 72 96 72q13 0 29 -4v-51h-15q-36 0 -51 -46l-29 -84q-14 -41 -38 -59q29 -14 44 -54l41 -113q10 -28 21 -39t28 -11zM205 725h82
l-75 -135h-52z" />
    <glyph glyph-name="uni045D" unicode="&#x45d;" horiz-adv-x="420" 
d="M301 505h66v-505h-66v396h-2l-180 -396h-66v505h66v-399h2zM109 725h81l58 -135h-54z" />
    <glyph glyph-name="afii10110" unicode="&#x45e;" horiz-adv-x="398" 
d="M382 505l-163 -577q-20 -69 -53.5 -101t-91.5 -36l-6 59q38 5 58 23.5t31 62.5l18 72l-159 497h78l114 -405h2l98 405h74zM101 725h53q2 -58 13 -78.5t33 -20.5t32.5 20.5t13.5 78.5h53q-7 -83 -28.5 -112.5t-70.5 -29.5t-70.5 29.5t-28.5 112.5z" />
    <glyph glyph-name="afii10193" unicode="&#x45f;" horiz-adv-x="409" 
d="M352 0h-114v-148h-63v148h-122v505h71v-443h157v443h71v-505z" />
    <glyph glyph-name="afii10146" unicode="&#x462;" horiz-adv-x="439" 
d="M65 725h78v-85h166v-58h-166v-158h94q92 0 131.5 -51t39.5 -155q0 -114 -40 -166t-136 -52h-167v582h-80v58h80v85zM143 70h87q55 0 78 31.5t23 116.5q0 76 -23.5 107t-79.5 31h-85v-286z" />
    <glyph glyph-name="afii10194" unicode="&#x463;" horiz-adv-x="372" 
d="M124 505v-72h111v-50h-111v-86h77q77 0 112 -36t35 -108q0 -79 -34 -116t-114 -37h-147v383h-50v50h50v72h71zM124 239v-182h76q44 0 62.5 20.5t18.5 74.5q0 47 -20 67t-62 20h-75z" />
    <glyph glyph-name="afii10147" unicode="&#x472;" horiz-adv-x="473" 
d="M426 522v-319q0 -102 -48.5 -157.5t-141.5 -55.5q-92 0 -140.5 55.5t-48.5 157.5v319q0 102 48.5 157.5t140.5 55.5q93 0 141.5 -55.5t48.5 -157.5zM347 202v140h-222v-140q0 -143 111 -143t111 143zM125 523v-117h222v117q0 141 -111 141q-57 0 -84 -34.5t-27 -106.5z
" />
    <glyph glyph-name="afii10195" unicode="&#x473;" horiz-adv-x="386" 
d="M347 351v-198q0 -73 -40.5 -117t-114.5 -44q-73 0 -113 43.5t-40 117.5v198q0 73 40 118t113 45q75 0 115 -44.5t40 -118.5zM192 49q84 0 84 104v86h-166v-86q0 -104 82 -104zM110 351v-61h166v61q0 105 -84 105q-82 0 -82 -105z" />
    <glyph glyph-name="afii10148" unicode="&#x474;" horiz-adv-x="486" 
d="M10 725h84l137 -619h2l107 509q11 54 42.5 84t77.5 30q20 0 40 -4v-57h-18q-51 0 -66 -64l-143 -604h-83z" />
    <glyph glyph-name="afii10196" unicode="&#x475;" horiz-adv-x="406" 
d="M14 505h78l106 -434h2l81 354q20 84 100 84q17 0 33 -4v-51h-16q-38 0 -50 -47l-108 -407h-81z" />
    <glyph glyph-name="afii10050" unicode="&#x490;" horiz-adv-x="354" 
d="M269 814h74v-161h-202v-653h-76v725h204v89z" />
    <glyph glyph-name="afii10098" unicode="&#x491;" horiz-adv-x="301" 
d="M287 578v-137h-163v-441h-71v505h175v73h59z" />
    <glyph glyph-name="uni0492" unicode="&#x492;" horiz-adv-x="368" 
d="M10 338v65h69v322h278v-72h-201v-250h109v-65h-109v-338h-77v338h-69z" />
    <glyph glyph-name="uni0493" unicode="&#x493;" horiz-adv-x="308" 
d="M4 235v53h56v217h234v-64h-163v-153h107v-53h-107v-235h-71v235h-56z" />
    <glyph glyph-name="uni0496" unicode="&#x496;" horiz-adv-x="694" 
d="M30 668v56q15 5 39 5q32 0 57 -22.5t38 -64.5l59 -187q15 -47 52 -47h26v317h76v-317h25q39 0 53 47l59 187q27 87 95 87q24 0 39 -5v-56h-16q-21 0 -32.5 -13t-21.5 -42l-54 -171q-14 -45 -48 -64v-2q42 -17 55 -61l65 -207q17 -53 56 -53h40v-211h-75v152q-67 6 -93 89
l-68 216q-13 43 -54 43h-25v-344h-76v344h-25q-42 0 -55 -43l-67 -216q-27 -90 -106 -90q-22 0 -37 5v55h15q40 0 56 53l64 207q14 45 55 62v2q-34 19 -47 63l-54 171q-9 28 -21.5 41.5t-32.5 13.5h-16z" />
    <glyph glyph-name="uni0497" unicode="&#x497;" horiz-adv-x="586" 
d="M26 454v51q16 4 29 4q76 0 96 -72l24 -91q15 -59 54 -59h22v218h70v-218h22q39 0 54 59l24 91q20 72 96 72q13 0 29 -4v-51h-15q-39 0 -51 -46l-22 -84q-10 -40 -37 -60q29 -14 42 -56l34 -109q17 -51 50 -51h29v-196h-63v145q-30 2 -48.5 20t-31.5 58l-41 124
q-12 34 -43 34h-28v-233h-70v233h-28q-31 0 -43 -34l-41 -124q-14 -44 -35 -61.5t-57 -17.5q-15 0 -33 6v46h11q33 0 50 51l34 109q13 42 42 56q-27 20 -37 60l-22 84q-12 46 -50 46h-16z" />
    <glyph glyph-name="uni049A" unicode="&#x49a;" horiz-adv-x="489" 
d="M442 725v-57h-18q-42 0 -61 -55l-62 -170q-16 -45 -53 -64v-2q43 -15 60 -62l74 -207q20 -53 63 -53h42v-211h-74v151q-74 4 -105 92l-77 214q-16 43 -62 43h-28v-344h-76v725h76v-317h27q43 0 60 47l68 186q32 88 110 88q18 0 36 -4z" />
    <glyph glyph-name="uni049B" unicode="&#x49b;" horiz-adv-x="402" 
d="M363 48h29v-196h-63v145q-29 2 -47 20t-33 58l-47 124q-12 34 -44 34h-34v-233h-71v505h71v-218h28q33 0 54 59l31 91q25 72 96 72q13 0 29 -4v-51h-15q-36 0 -51 -46l-29 -84q-14 -41 -38 -59q29 -14 44 -54l41 -113q10 -28 21 -39t28 -11z" />
    <glyph glyph-name="uni049C" unicode="&#x49c;" horiz-adv-x="503" 
d="M471 725v-57h-22q-42 0 -57 -55l-43 -169q-11 -46 -46 -67q41 -18 53 -66l54 -203q15 -53 64 -53h16v-55q-17 -5 -40 -5q-91 0 -115 95l-56 211q-7 25 -18 33.5t-33 9.5v-138h-42v138h-45v-344h-76v725h76v-317h45v110h42v-110q37 0 49 47l46 182q23 92 111 92
q19 0 37 -4z" />
    <glyph glyph-name="uni049D" unicode="&#x49d;" horiz-adv-x="402" 
d="M53 505h71v-218h34v106h40v-106q14 0 23.5 11t18.5 45l27 91q22 75 95 75q16 0 30 -4v-51h-15q-37 0 -50 -46l-26 -85q-13 -41 -34 -58q27 -14 40 -55l37 -112q9 -28 20.5 -39t29.5 -11h11v-46q-18 -6 -33 -6q-36 0 -56.5 17.5t-35.5 60.5l-42 125q-10 34 -36 34h-4v-117
h-40v117h-34v-233h-71v505z" />
    <glyph glyph-name="uni04A2" unicode="&#x4a2;" horiz-adv-x="501" 
d="M65 725h78v-315h208v315h79v-669h45v-212h-74v156h-50v338h-208v-338h-78v725z" />
    <glyph glyph-name="uni04A3" unicode="&#x4a3;" horiz-adv-x="431" 
d="M124 0h-71v505h71v-213h166v213h71v-457h41v-196h-63v148h-49v232h-166v-232z" />
    <glyph glyph-name="uni04AE" unicode="&#x4ae;" horiz-adv-x="439" 
d="M433 725l-174 -480v-245h-79v248l-174 477h86l127 -396h2l127 396h85z" />
    <glyph glyph-name="uni04AF" unicode="&#x4af;" horiz-adv-x="391" 
d="M230 -205h-71v215l-145 495h78l103 -408l104 408h79l-148 -495v-215z" />
    <glyph glyph-name="uni04B0" unicode="&#x4b0;" horiz-adv-x="439" 
d="M433 725l-174 -456v-27h118v-61h-118v-181h-79v181h-117v61h117v30l-174 453h86l128 -373l128 373h85z" />
    <glyph glyph-name="uni04B1" unicode="&#x4b1;" horiz-adv-x="391" 
d="M378 505l-135 -452h78v-53h-91v-205h-71v205h-94v53h81l-132 452h78l103 -409l104 409h79z" />
    <glyph glyph-name="uni04B2" unicode="&#x4b2;" horiz-adv-x="462" 
d="M19 0l158 367l-153 358h84l119 -309h2l117 309h84l-153 -361l133 -309h50v-211h-75v156h-35l-124 312h-2l-122 -312h-83z" />
    <glyph glyph-name="uni04B3" unicode="&#x4b3;" horiz-adv-x="402" 
d="M19 1l126 260l-121 244h80l91 -203h2l89 203h78l-121 -248l103 -209h46v-196h-64v149h-38l-97 215h-2l-93 -215h-79z" />
    <glyph glyph-name="uni04B6" unicode="&#x4b6;" horiz-adv-x="454" 
d="M382 56h46v-212h-74v156h-50v318q-43 -10 -89 -10q-93 0 -136 44.5t-43 144.5v228h79v-227q0 -69 28 -95t91 -26q35 0 70 7v341h78v-669z" />
    <glyph glyph-name="uni04B7" unicode="&#x4b7;" horiz-adv-x="406" 
d="M118 505v-159q0 -45 18.5 -64t64.5 -19q38 0 64 6v236h71v-457h41v-196h-63v148h-49v211q-33 -8 -80 -8q-72 0 -105 35.5t-33 105.5v161h71z" />
    <glyph glyph-name="uni04B8" unicode="&#x4b8;" horiz-adv-x="461" 
d="M201 507h42v-132q39 0 75 7v343h78v-725h-78v318q-35 -8 -75 -10v-113h-42v114q-86 5 -125.5 49.5t-39.5 138.5v228h79v-229q0 -59 20 -86t66 -33v130z" />
    <glyph glyph-name="uni04B9" unicode="&#x4b9;" horiz-adv-x="418" 
d="M190 371h41v-108q23 0 63 6v236h71v-505h-71v212q-31 -6 -63 -8v-109h-41v108q-143 4 -143 143v159h71v-157q0 -77 72 -84v107z" />
    <glyph glyph-name="uni04BA" unicode="&#x4ba;" horiz-adv-x="453" 
d="M143 725v-251q47 11 89 11q93 0 136 -44.5t43 -144.5v-296h-79v295q0 69 -28 95t-91 26q-36 0 -70 -7v-409h-78v725h78z" />
    <glyph glyph-name="uni04BB" unicode="&#x4bb;" horiz-adv-x="391" 
d="M127 0h-71v749h71v-248q36 9 80 9q73 0 106 -35.5t33 -105.5v-369h-72v367q0 45 -18.5 64t-64.5 19q-33 0 -64 -6v-444z" />
    <glyph glyph-name="uni04C0" unicode="&#x4c0;" horiz-adv-x="236" 
d="M79 725h78v-725h-78v725z" />
    <glyph glyph-name="uni04CF" unicode="&#x4cf;" horiz-adv-x="196" 
d="M62 749h71v-749h-71v749z" />
    <glyph glyph-name="uni04D8" unicode="&#x4d8;" horiz-adv-x="453" 
d="M39 202v168h289v156q0 66 -28.5 103.5t-85.5 37.5q-90 0 -112 -108l-60 18q28 158 175 158q91 0 140 -57.5t49 -153.5v-316q0 -218 -188 -218q-90 0 -134.5 57t-44.5 155zM217 58q58 0 84.5 37t26.5 110v108h-218v-114q0 -141 107 -141z" />
    <glyph glyph-name="afii10846" unicode="&#x4d9;" horiz-adv-x="367" 
d="M32 254h224v95q0 105 -85 105q-33 0 -53.5 -20t-33.5 -67l-54 18q31 129 147 129q72 0 111 -45t39 -118v-197q0 -72 -39.5 -117t-109.5 -45q-69 0 -107.5 45.5t-38.5 119.5v97zM176 51q80 0 80 100v54h-160v-54q0 -100 80 -100z" />
    <glyph glyph-name="uni04E2" unicode="&#x4e2;" horiz-adv-x="502" 
d="M363 725h74v-725h-74v564h-2l-223 -564h-73v725h73v-564h2zM357 846v-50h-212v50h212z" />
    <glyph glyph-name="uni04E3" unicode="&#x4e3;" horiz-adv-x="420" 
d="M301 505h66v-505h-66v396h-2l-180 -396h-66v505h66v-399h2zM308 681v-53h-196v53h196z" />
    <glyph glyph-name="uni04E8" unicode="&#x4e8;" horiz-adv-x="473" 
d="M426 522v-319q0 -102 -48.5 -157.5t-141.5 -55.5q-92 0 -140.5 55.5t-48.5 157.5v319q0 102 48.5 157.5t140.5 55.5q93 0 141.5 -55.5t48.5 -157.5zM347 202v140h-222v-140q0 -143 111 -143t111 143zM125 523v-117h222v117q0 141 -111 141q-57 0 -84 -34.5t-27 -106.5z
" />
    <glyph glyph-name="uni04E9" unicode="&#x4e9;" horiz-adv-x="386" 
d="M347 351v-198q0 -73 -40.5 -117t-114.5 -44q-73 0 -113 43.5t-40 117.5v198q0 73 40 118t113 45q75 0 115 -44.5t40 -118.5zM192 49q84 0 84 104v86h-166v-86q0 -104 82 -104zM110 351v-61h166v61q0 105 -84 105q-82 0 -82 -105z" />
    <glyph glyph-name="uni04EE" unicode="&#x4ee;" horiz-adv-x="439" 
d="M6 725h88l141 -408h2l113 408h83l-183 -599q-40 -129 -164 -129l-4 65q77 7 96 81l21 80zM326 846v-50h-212v50h212z" />
    <glyph glyph-name="uni04EF" unicode="&#x4ef;" horiz-adv-x="398" 
d="M382 505l-163 -577q-20 -69 -53.5 -101t-91.5 -36l-6 59q38 5 58 23.5t31 62.5l18 72l-159 497h78l114 -405h2l98 405h74zM297 681v-53h-196v53h196z" />
    <glyph glyph-name="Wgrave" unicode="&#x1e80;" horiz-adv-x="716" 
d="M690 725l-136 -725h-87l-108 574h-2l-109 -574h-87l-135 725h78l103 -614h2l113 614h73l111 -616h2l105 616h77zM242 870h90l59 -109h-61z" />
    <glyph glyph-name="wgrave" unicode="&#x1e81;" horiz-adv-x="580" 
d="M373 0l-82 409h-2l-82 -409h-79l-111 505h74l78 -423h2l86 423h67l86 -426h2l78 426h74l-113 -505h-78zM173 725h81l58 -135h-54z" />
    <glyph glyph-name="Wacute" unicode="&#x1e82;" horiz-adv-x="716" 
d="M690 725l-136 -725h-87l-108 574h-2l-109 -574h-87l-135 725h78l103 -614h2l113 614h73l111 -616h2l105 616h77zM375 870h90l-80 -109h-61z" />
    <glyph glyph-name="wacute" unicode="&#x1e83;" horiz-adv-x="580" 
d="M373 0l-82 409h-2l-82 -409h-79l-111 505h74l78 -423h2l86 423h67l86 -426h2l78 426h74l-113 -505h-78zM310 725h82l-75 -135h-52z" />
    <glyph glyph-name="Wdieresis" unicode="&#x1e84;" horiz-adv-x="716" 
d="M690 725l-136 -725h-87l-108 574h-2l-109 -574h-87l-135 725h78l103 -614h2l113 614h73l111 -616h2l105 616h77zM263 870h58v-97h-58v97zM396 870h57v-97h-57v97z" />
    <glyph glyph-name="wdieresis" unicode="&#x1e85;" horiz-adv-x="580" 
d="M373 0l-82 409h-2l-82 -409h-79l-111 505h74l78 -423h2l86 423h67l86 -426h2l78 426h74l-113 -505h-78zM206 725h56v-105h-56v105zM321 725h55v-105h-55v105z" />
    <glyph glyph-name="uni1E8A" unicode="&#x1e8a;" horiz-adv-x="453" 
d="M19 0l158 367l-153 358h84l119 -309h2l117 309h84l-153 -361l157 -364h-84l-124 312h-2l-122 -312h-83zM189 870h74v-97h-74v97z" />
    <glyph glyph-name="uni1E8B" unicode="&#x1e8b;" horiz-adv-x="388" 
d="M18 0l127 261l-121 244h80l91 -203h2l89 203h78l-121 -248l127 -257h-79l-98 216h-2l-94 -216h-79zM159 725h69v-105h-69v105z" />
    <glyph glyph-name="Ygrave" unicode="&#x1ef2;" horiz-adv-x="439" 
d="M433 725l-174 -480v-245h-79v248l-174 477h86l127 -396h2l127 396h85zM122 870h90l59 -109h-61z" />
    <glyph glyph-name="ygrave" unicode="&#x1ef3;" horiz-adv-x="398" 
d="M382 505l-152 -532q-20 -69 -53.5 -101t-91.5 -36l-6 55q37 5 57 24.5t32 62.5l8 29l-160 498h77l116 -407h2l98 407h73zM108 725h81l58 -135h-54z" />
    <glyph glyph-name="uni2007" unicode="&#x2007;" 
 />
    <glyph glyph-name="uni2008" unicode="&#x2008;" horiz-adv-x="177" 
 />
    <glyph glyph-name="uni200B" unicode="&#x200b;" horiz-adv-x="0" 
 />
    <glyph glyph-name="uni2010" unicode="&#x2010;" horiz-adv-x="221" 
d="M20 261v66h181v-66h-181z" />
    <glyph glyph-name="endash" unicode="&#x2013;" horiz-adv-x="334" 
d="M20 268v58h295v-58h-295z" />
    <glyph glyph-name="emdash" unicode="&#x2014;" horiz-adv-x="480" 
d="M20 267v59h441v-59h-441z" />
    <glyph glyph-name="afii00208" unicode="&#x2015;" horiz-adv-x="480" 
d="M20 267v59h441v-59h-441z" />
    <glyph glyph-name="quoteleft" unicode="&#x2018;" horiz-adv-x="157" 
d="M119 695v-90h-81v70q0 82 44 147l28 -14q-23 -50 -23 -108z" />
    <glyph glyph-name="quoteright" unicode="&#x2019;" horiz-adv-x="157" 
d="M39 651v89h81v-69q0 -83 -45 -147l-28 14q24 52 24 107z" />
    <glyph glyph-name="quotesinglbase" unicode="&#x201a;" horiz-adv-x="157" 
d="M39 6v89h81v-69q0 -82 -45 -147l-28 14q24 52 24 107z" />
    <glyph glyph-name="quotedblleft" unicode="&#x201c;" horiz-adv-x="284" 
d="M244 695v-90h-81v70q0 82 44 147l28 -14q-23 -50 -23 -108zM119 695v-90h-81v70q0 82 44 147l28 -14q-23 -50 -23 -108z" />
    <glyph glyph-name="quotedblright" unicode="&#x201d;" horiz-adv-x="284" 
d="M164 651v89h81v-69q0 -83 -45 -147l-28 14q24 52 24 107zM39 651v89h81v-69q0 -83 -45 -147l-28 14q24 52 24 107z" />
    <glyph glyph-name="quotedblbase" unicode="&#x201e;" horiz-adv-x="282" 
d="M157 6v89h81v-69q0 -82 -45 -147l-28 14q24 52 24 107zM34 6v89h81v-69q0 -82 -45 -147l-28 14q24 52 24 107z" />
    <glyph glyph-name="dagger" unicode="&#x2020;" horiz-adv-x="354" 
d="M17 554l128 -5l-5 200h71l-4 -200l129 5v-73l-129 4l4 -634h-71l5 634l-128 -4v73z" />
    <glyph glyph-name="daggerdbl" unicode="&#x2021;" horiz-adv-x="354" 
d="M145 115v370l-128 -4v73l128 -5l-5 200h71l-4 -200l129 5v-73l-129 4v-370l129 4v-72l-129 4l4 -200h-71l5 200l-128 -4v72z" />
    <glyph glyph-name="bullet" unicode="&#x2022;" horiz-adv-x="216" 
d="M17 311q0 45 26.5 75.5t65.5 30.5t65.5 -30.5t26.5 -75.5q0 -44 -26.5 -74t-65.5 -30t-65.5 30t-26.5 74z" />
    <glyph glyph-name="ellipsis" unicode="&#x2026;" horiz-adv-x="530" 
d="M44 0v97h89v-97h-89zM220 0v97h89v-97h-89zM397 0v97h89v-97h-89z" />
    <glyph glyph-name="perthousand" unicode="&#x2030;" horiz-adv-x="715" 
d="M235 609v-68q0 -60 -25.5 -92t-74.5 -32q-101 0 -101 124v68q0 126 101 126q49 0 74.5 -32.5t25.5 -93.5zM87 610v-69q0 -40 11 -57t37 -17q47 0 47 74v69q0 73 -47 73q-26 0 -37 -17t-11 -56zM39 1l350 724h58l-351 -724h-57zM460 179v-68q0 -60 -26 -91.5t-75 -31.5
q-101 0 -101 123v68q0 61 25.5 93.5t75.5 32.5q49 0 75 -33t26 -93zM311 180v-69q0 -39 11.5 -56.5t36.5 -17.5q48 0 48 74v69q0 73 -48 73t-48 -73zM693 179v-68q0 -123 -101 -123t-101 123v68q0 61 25.5 93.5t75.5 32.5t75.5 -32.5t25.5 -93.5zM544 180v-69
q0 -39 11.5 -56.5t36.5 -17.5t36.5 17.5t11.5 56.5v69q0 73 -48 73t-48 -73z" />
    <glyph glyph-name="guilsinglleft" unicode="&#x2039;" horiz-adv-x="203" 
d="M185 437l-105 -177l105 -178h-64l-103 178l103 177h64z" />
    <glyph glyph-name="guilsinglright" unicode="&#x203a;" horiz-adv-x="203" 
d="M18 82l104 178l-104 177h64l102 -177l-102 -178h-64z" />
    <glyph glyph-name="uni203D" unicode="&#x203d;" horiz-adv-x="417" 
d="M18 576q17 72 67.5 116.5t123.5 44.5q86 0 129 -48t43 -124q0 -75 -39 -137t-109 -104l-4 -120h-53l-6 180v287q-67 -20 -92 -112zM310 562q0 100 -79 112v-285h2q77 67 77 173zM157 0v97h89v-97h-89z" />
    <glyph glyph-name="fraction" unicode="&#x2044;" horiz-adv-x="228" 
d="M-2 0h-51l315 725h51z" />
    <glyph glyph-name="uni2070" unicode="&#x2070;" horiz-adv-x="227" 
d="M204 698v-125q0 -48 -23.5 -74.5t-67.5 -26.5t-67 26.5t-23 74.5v124q0 48 23 75t67 27t67.5 -27t23.5 -74zM71 697v-124q0 -60 42 -60q43 0 43 60v124q0 58 -43 58q-42 0 -42 -58z" />
    <glyph glyph-name="uni2074" unicode="&#x2074;" horiz-adv-x="227" 
d="M185 476h-44v59h-127v33l123 227h48v-221h33l-3 -39h-30v-59zM63 574h78l4 163h-2z" />
    <glyph glyph-name="uni2075" unicode="&#x2075;" horiz-adv-x="227" 
d="M62 620l-32 16l12 159h151l-3 -43h-110l-7 -87h2q23 13 49 13q79 0 79 -99q0 -107 -93 -107q-70 0 -86 68l37 13q11 -41 47 -41q24 0 34.5 15.5t10.5 51.5q0 32 -11 45t-36 13q-27 0 -44 -17z" />
    <glyph glyph-name="uni2076" unicode="&#x2076;" horiz-adv-x="227" 
d="M118 799q64 0 81 -67l-34 -14q-12 40 -44 40q-48 0 -48 -64v-35h2q20 18 52 18q78 0 78 -95q0 -110 -91 -110q-42 0 -65 27.5t-23 78.5v111q0 49 25 79.5t67 30.5zM116 637q-16 0 -29 -8.5t-14 -20.5v-36q0 -58 42 -58q23 0 33 15.5t10 51.5q0 56 -42 56z" />
    <glyph glyph-name="uni2077" unicode="&#x2077;" horiz-adv-x="210" 
d="M97 476h-54l102 276h-130v43h180v-38z" />
    <glyph glyph-name="uni2078" unicode="&#x2078;" horiz-adv-x="227" 
d="M114 472q-47 0 -70 23t-23 75q0 60 42 73v2q-35 15 -35 70q0 84 86 84q85 0 85 -84q0 -55 -35 -70v-2q42 -14 42 -73q0 -52 -23 -75t-69 -23zM158 571q0 30 -11 41t-33 11q-23 0 -34 -11t-11 -41q0 -34 10.5 -46.5t34.5 -12.5t34 12.5t10 46.5zM114 760q-23 0 -32 -10.5
t-9 -38.5q0 -29 9.5 -40t31.5 -11t31 11t9 40q0 28 -9 38.5t-31 10.5z" />
    <glyph glyph-name="uni2079" unicode="&#x2079;" horiz-adv-x="227" 
d="M26 535l33 17q14 -39 49 -39q47 0 47 54v55h-2q-18 -18 -52 -18q-78 0 -78 94q0 102 92 102q42 0 64.5 -26t22.5 -71v-135q0 -45 -24.5 -70.5t-66.5 -25.5q-65 0 -85 63zM110 643q16 0 30 8t15 21v36q0 51 -40 51q-24 0 -34.5 -13t-10.5 -45t9.5 -45t30.5 -13z" />
    <glyph glyph-name="uni207A" unicode="&#x207a;" horiz-adv-x="199" 
d="M82 535v77h-57v35h57v76h34v-76h58v-35h-58v-77h-34z" />
    <glyph glyph-name="uni207B" unicode="&#x207b;" horiz-adv-x="199" 
d="M174 612h-149v35h149v-35z" />
    <glyph glyph-name="uni207C" unicode="&#x207c;" horiz-adv-x="199" 
d="M167 641h-138v35h138v-35zM167 576h-138v35h138v-35z" />
    <glyph glyph-name="uni207D" unicode="&#x207d;" horiz-adv-x="122" 
d="M29 560v142q0 75 21 108t67 33h11v-32h-11q-49 0 -49 -109v-142q0 -109 49 -109h11v-32h-11q-46 0 -67 33t-21 108z" />
    <glyph glyph-name="uni207E" unicode="&#x207e;" horiz-adv-x="122" 
d="M93 702v-142q0 -75 -21 -108t-67 -33h-11v32h11q49 0 49 109v142q0 109 -49 109h-11v32h11q46 0 67 -33t21 -108z" />
    <glyph glyph-name="uni207F" unicode="&#x207f;" horiz-adv-x="232" 
d="M34 476v250h41l2 -23h2q23 28 57 28q66 0 66 -79v-176h-46v174q0 41 -33 41q-28 0 -42 -26v-189h-47z" />
    <glyph glyph-name="uni2080" unicode="&#x2080;" horiz-adv-x="227" 
d="M204 104v-125q0 -48 -23.5 -74.5t-67.5 -26.5t-67 26.5t-23 74.5v124q0 48 23 75t67 27t67.5 -27t23.5 -74zM71 103v-124q0 -60 42 -60q43 0 43 60v124q0 58 -43 58q-42 0 -42 -58z" />
    <glyph glyph-name="uni2081" unicode="&#x2081;" horiz-adv-x="180" 
d="M92 202h40v-320h-51v231h-54v34h22q24 0 32 10t11 45z" />
    <glyph glyph-name="uni2082" unicode="&#x2082;" horiz-adv-x="227" 
d="M116 205q41 0 62 -22.5t21 -58.5q0 -33 -17.5 -62.5t-38.5 -47.5t-41 -42.5t-24 -48.5h123v-41h-173l-1 23q1 34 20.5 66t42.5 52.5t42 47t19 51.5q0 42 -39 42q-37 0 -48 -51l-38 11q18 81 90 81z" />
    <glyph glyph-name="uni2083" unicode="&#x2083;" horiz-adv-x="227" 
d="M82 27v38h21q43 0 43 51q0 48 -37 48q-36 0 -48 -45l-37 12q8 34 31.5 54t57.5 20q42 0 62.5 -22.5t20.5 -61.5q0 -57 -39 -72v-2q44 -11 44 -72q0 -97 -90 -97q-70 0 -89 68l36 13q13 -41 51 -41q42 0 42 60q0 28 -11.5 38.5t-35.5 10.5h-22z" />
    <glyph glyph-name="uni2084" unicode="&#x2084;" horiz-adv-x="227" 
d="M185 -118h-44v59h-127v33l123 227h48v-221h33l-3 -39h-30v-59zM63 -20h78l4 163h-2z" />
    <glyph glyph-name="uni2085" unicode="&#x2085;" horiz-adv-x="227" 
d="M62 26l-32 16l12 159h151l-3 -43h-110l-7 -87h2q23 13 49 13q79 0 79 -99q0 -107 -93 -107q-70 0 -86 68l37 13q11 -41 47 -41q24 0 34.5 15.5t10.5 51.5q0 32 -11 45t-36 13q-27 0 -44 -17z" />
    <glyph glyph-name="uni2086" unicode="&#x2086;" horiz-adv-x="227" 
d="M118 205q64 0 81 -67l-34 -14q-12 40 -44 40q-48 0 -48 -64v-35h2q20 18 52 18q78 0 78 -95q0 -110 -91 -110q-42 0 -65 27.5t-23 78.5v111q0 49 25 79.5t67 30.5zM116 43q-16 0 -29 -8.5t-14 -20.5v-36q0 -58 42 -58q23 0 33 15.5t10 51.5q0 56 -42 56z" />
    <glyph glyph-name="uni2087" unicode="&#x2087;" horiz-adv-x="210" 
d="M97 -118h-54l102 276h-130v43h180v-38z" />
    <glyph glyph-name="uni2088" unicode="&#x2088;" horiz-adv-x="227" 
d="M114 -122q-47 0 -70 23t-23 75q0 60 42 73v2q-35 15 -35 70q0 84 86 84q85 0 85 -84q0 -55 -35 -70v-2q42 -13 42 -73q0 -52 -23 -75t-69 -23zM158 -23q0 30 -11 41t-33 11q-23 0 -34 -11t-11 -41q0 -34 10.5 -46.5t34.5 -12.5t34 12.5t10 46.5zM114 166q-23 0 -32 -10.5
t-9 -38.5q0 -29 9.5 -40t31.5 -11t31 11t9 40q0 28 -9 38.5t-31 10.5z" />
    <glyph glyph-name="uni2089" unicode="&#x2089;" horiz-adv-x="227" 
d="M26 -59l33 17q14 -39 49 -39q47 0 47 54v55h-2q-18 -18 -52 -18q-78 0 -78 94q0 102 92 102q42 0 64.5 -26t22.5 -71v-135q0 -45 -24.5 -70.5t-66.5 -25.5q-65 0 -85 63zM110 49q16 0 30 8t15 21v36q0 51 -40 51q-24 0 -34.5 -13t-10.5 -45t9.5 -45t30.5 -13z" />
    <glyph glyph-name="uni208A" unicode="&#x208a;" horiz-adv-x="199" 
d="M82 -59v77h-57v35h57v76h34v-76h58v-35h-58v-77h-34z" />
    <glyph glyph-name="uni208B" unicode="&#x208b;" horiz-adv-x="199" 
d="M174 18h-149v35h149v-35z" />
    <glyph glyph-name="uni208C" unicode="&#x208c;" horiz-adv-x="199" 
d="M167 47h-138v35h138v-35zM167 -18h-138v35h138v-35z" />
    <glyph glyph-name="uni208D" unicode="&#x208d;" horiz-adv-x="122" 
d="M29 -34v142q0 75 21 108t67 33h11v-32h-11q-49 0 -49 -109v-142q0 -109 49 -109h11v-32h-11q-46 0 -67 33t-21 108z" />
    <glyph glyph-name="uni208E" unicode="&#x208e;" horiz-adv-x="122" 
d="M93 108v-142q0 -75 -21 -108t-67 -33h-11v32h11q49 0 49 109v142q0 109 -49 109h-11v32h11q46 0 67 -33t21 -108z" />
    <glyph glyph-name="franc" unicode="&#x20a3;" horiz-adv-x="405" 
d="M5 109v56h60v560h311v-72h-233v-248h202v-68h-202v-172h87v-56h-87v-109h-78v109h-60z" />
    <glyph glyph-name="lira" unicode="&#x20a4;" horiz-adv-x="452" 
d="M41 361l-6 49h51q-8 69 -8 110q0 104 42 160t121 56q63 0 104 -38t54 -105l-57 -19q-22 93 -98 93q-94 0 -94 -153q0 -40 6 -104h194l-7 -49h-182l4 -34h171l-5 -47h-162q6 -57 8 -89q30 -11 56 -44l48 -59.5t45 -26.5q25 0 39.5 27t21.5 93l57 -13q-10 -95 -38.5 -136.5
t-75.5 -41.5q-37 0 -64.5 24.5t-52 65.5t-36.5 53h-2q-8 -143 -94 -143q-33 0 -52.5 22.5t-19.5 61.5q0 51 29 83.5t78 38.5q-1 10 -5.5 40l-6.5 44h-50l-6 47h49l-4 34h-52zM85 43q34 0 35 108q-56 -9 -56 -73q0 -35 21 -35z" />
    <glyph glyph-name="peseta" unicode="&#x20a7;" horiz-adv-x="787" 
d="M167 725q136 0 136 -214q0 -103 -35 -157.5t-99 -54.5h-55v-299h-66v725h119zM764 402l-46 -14q-11 70 -55 70q-45 0 -45 -72q0 -27 15.5 -49.5t37.5 -41t44 -39.5t37.5 -55t15.5 -77q0 -62 -27.5 -98t-75.5 -36q-92 0 -108 128l48 12q10 -86 58 -86q23 0 35.5 20
t12.5 57q0 33 -16 59.5t-38.5 45t-44.5 38.5t-38 50.5t-16 69.5q0 59 27.5 95.5t74.5 36.5q87 0 104 -114zM523 506v-58h-80v-352q0 -49 41 -49q15 0 33 11l10 -45q-27 -22 -63 -22q-82 0 -82 104v352l-44 11v46l46 4l16 138h43v-140h80zM114 663v-307h52q71 0 71 155
q0 83 -17.5 117.5t-53.5 34.5h-52z" />
    <glyph glyph-name="Euro" unicode="&#x20ac;" horiz-adv-x="445" 
d="M242 735q63 0 107 -41.5t58 -108.5l-60 -20q-22 97 -101 97q-52 0 -78.5 -37.5t-26.5 -106.5v-68h193l-9 -48h-184v-48h174l-9 -48h-165v-106q0 -65 27 -103t77 -38q44 0 67.5 24t34.5 83l61 -18q-14 -83 -55.5 -120.5t-112.5 -37.5q-82 0 -129.5 57.5t-47.5 151.5v107
h-48v48h48v48h-48v48h48v68q0 102 47.5 159.5t131.5 57.5z" />
    <glyph glyph-name="uni20B4" unicode="&#x20b4;" horiz-adv-x="417" 
d="M32 403v50h228q44 52 44 112q0 53 -19.5 80.5t-69.5 27.5q-84 0 -118 -98l-56 22q48 138 180 138q74 0 112 -45t38 -120q0 -63 -39 -117h52v-50h-99l-72 -63h170v-50h-219q-46 -56 -46 -127q0 -54 26.5 -82t73.5 -28q86 0 119 109l52 -21q-42 -151 -175 -151
q-82 0 -122.5 45.5t-40.5 122.5q0 72 43 132h-63v50h107l72 63h-178z" />
    <glyph glyph-name="afii61248" unicode="&#x2105;" horiz-adv-x="700" 
d="M164 735q42 0 73 -26t41 -67l-48 -17q-14 54 -63 54q-63 0 -63 -83v-176q0 -36 16 -58t47 -22q27 0 41.5 13.5t21.5 46.5l49 -15q-20 -97 -116 -97q-57 0 -90.5 36t-33.5 96v176q0 65 33 102t92 37zM661 303v-171q0 -65 -34 -101.5t-98 -36.5t-98.5 36.5t-34.5 101.5v171
q0 65 34.5 101.5t98.5 36.5t98 -36.5t34 -101.5zM597 132v171q0 83 -68 83q-69 0 -69 -83v-171q0 -84 69 -84q68 0 68 84zM209 0h-47l314 725h48z" />
    <glyph glyph-name="afii61289" unicode="&#x2113;" horiz-adv-x="569" 
d="M140 259l-11 54q25 8 49 22q12 184 59.5 292t117.5 108q77 0 77 -111q0 -79 -56 -165.5t-139 -146.5q-1 -28 -1 -87q0 -101 10.5 -136.5t35.5 -35.5q22 0 43.5 33.5t35.5 80.5l48 -16q-16 -70 -54.5 -116t-83.5 -46q-51 0 -74 51.5t-23 177.5v56q-29 -13 -34 -15z
M349 675q-35 0 -65.5 -76.5t-42.5 -217.5h2q57 50 95 115t38 121q0 58 -27 58z" />
    <glyph glyph-name="afii61352" unicode="&#x2116;" horiz-adv-x="726" 
d="M65 725h60l234 -523h2v523h69v-725h-55l-239 535h-2v-535h-69v725zM684 633v-118q0 -47 -26 -74.5t-73 -27.5t-73 27t-26 74v119q0 46 26 74t72 28q48 0 74 -27.5t26 -74.5zM536 630v-115q0 -56 48 -56q49 0 49 57v116q0 57 -49 57q-48 0 -48 -59zM489 334v46h200v-46
h-200z" />
    <glyph glyph-name="uni2117" unicode="&#x2117;" horiz-adv-x="589" 
d="M545 443v-164q0 -129 -66 -210t-184 -81q-119 0 -184.5 81t-65.5 210v164q0 130 65.5 211t184.5 81q118 0 184 -81.5t66 -210.5zM496 280v162q0 111 -53 177.5t-148 66.5q-96 0 -148.5 -66t-52.5 -178v-162q0 -111 52.5 -177t148.5 -66q95 0 148 66t53 177zM305 614
q132 0 132 -151q0 -73 -33.5 -112t-96.5 -39h-64v-198h-60v500h122zM243 563v-203h61q39 0 56.5 24.5t17.5 78.5q0 53 -17.5 76.5t-56.5 23.5h-61z" />
    <glyph glyph-name="uni2120" unicode="&#x2120;" horiz-adv-x="497" 
d="M425 725h45v-317h-44v210h-2l-63 -158h-22l-63 158h-2v-210h-43v317h44l74 -194h2zM193 659l-37 -11q-11 44 -45 44q-18 0 -28.5 -10.5t-10.5 -28.5q0 -22 19 -39t41.5 -27.5t41.5 -35t19 -58.5q0 -40 -23.5 -64.5t-60.5 -24.5q-69 0 -88 74l35 14q14 -49 51 -49
q38 0 38 45q0 24 -19 41.5t-41.5 27.5t-41.5 33.5t-19 57.5q0 36 23 60t63 24q31 0 53 -19t30 -54z" />
    <glyph glyph-name="trademark" unicode="&#x2122;" horiz-adv-x="478" 
d="M406 725h44v-317h-43v210h-2l-64 -158h-21l-63 158h-2v-210h-44v317h44l75 -194h2zM12 725h169v-43h-61v-274h-48v274h-60v43z" />
    <glyph glyph-name="Omega" unicode="&#x2126;" horiz-adv-x="473" 
d="M236 735q93 0 141.5 -51t48.5 -148v-182q0 -133 -104 -172v-112h103v-70h-161v228q45 11 64 39t19 86v182q0 130 -111 130t-111 -130v-182q0 -58 19.5 -86t63.5 -39v-228h-160v70h103v112q-104 39 -104 172v182q0 97 48 148t141 51z" />
    <glyph glyph-name="estimated" unicode="&#x212e;" horiz-adv-x="747" 
d="M708 342h-580v-98q0 -84 73 -150.5t185 -66.5q161 0 257 124l35 -26q-102 -137 -295 -137q-149 0 -246.5 98t-97.5 240q0 145 94 242.5t241 97.5q146 0 233.5 -89t100.5 -235zM128 422v-36h490v36q0 85 -66 145t-178 60q-108 0 -177 -63t-69 -142z" />
    <glyph glyph-name="uni2150" unicode="&#x2150;" horiz-adv-x="430" 
d="M92 726h40v-320h-51v231h-54v34h22q24 0 32 10t11 45zM62 0h-51l315 725h51zM317 0h-54l102 276h-130v43h180v-38z" />
    <glyph glyph-name="uni2151" unicode="&#x2151;" horiz-adv-x="447" 
d="M92 726h40v-320h-51v231h-54v34h22q24 0 32 10t11 45zM62 0h-51l315 725h51zM246 59l33 17q14 -39 49 -39q47 0 47 54v55h-2q-18 -18 -52 -18q-78 0 -78 94q0 102 92 102q42 0 64.5 -26t22.5 -71v-135q0 -45 -24.5 -70.5t-66.5 -25.5q-65 0 -85 63zM330 167q16 0 30 8
t15 21v36q0 51 -40 51q-24 0 -34.5 -13t-10.5 -45t9.5 -45t30.5 -13z" />
    <glyph glyph-name="uni2152" unicode="&#x2152;" horiz-adv-x="627" 
d="M92 726h40v-320h-51v231h-54v34h22q24 0 32 10t11 45zM62 0h-51l315 725h51zM312 320h40v-320h-51v231h-54v34h22q24 0 32 10t11 45zM604 222v-125q0 -48 -23.5 -74.5t-67.5 -26.5t-67 26.5t-23 74.5v124q0 48 23 75t67 27t67.5 -27t23.5 -74zM471 221v-124q0 -60 42 -60
q43 0 43 60v124q0 58 -43 58q-42 0 -42 -58z" />
    <glyph glyph-name="onethird" unicode="&#x2153;" horiz-adv-x="475" 
d="M122 726h40v-320h-51v231h-54v34h22q24 0 32 10t11 45zM103 0h-51l315 725h51zM331 145v38h21q43 0 43 51q0 48 -37 48q-36 0 -48 -45l-37 12q8 34 31.5 54t57.5 20q42 0 62.5 -22.5t20.5 -61.5q0 -57 -39 -72v-2q44 -11 44 -72q0 -97 -90 -97q-70 0 -89 68l36 13
q13 -41 51 -41q42 0 42 60q0 28 -11.5 38.5t-35.5 10.5h-22z" />
    <glyph glyph-name="twothirds" unicode="&#x2154;" horiz-adv-x="475" 
d="M115 729q41 0 62 -22.5t21 -58.5q0 -33 -17.5 -62.5t-38.5 -47.5t-41 -42.5t-24 -48.5h123v-41h-173l-1 23q1 34 20.5 66t42.5 52.5t42 47t19 51.5q0 42 -39 42q-37 0 -48 -51l-38 11q18 81 90 81zM103 0h-51l315 725h51zM331 145v38h21q43 0 43 51q0 48 -37 48
q-36 0 -48 -45l-37 12q8 34 31.5 54t57.5 20q42 0 62.5 -22.5t20.5 -61.5q0 -57 -39 -72v-2q44 -11 44 -72q0 -97 -90 -97q-70 0 -89 68l36 13q13 -41 51 -41q42 0 42 60q0 28 -11.5 38.5t-35.5 10.5h-22z" />
    <glyph glyph-name="uni2155" unicode="&#x2155;" horiz-adv-x="475" 
d="M122 726h40v-320h-51v231h-54v34h22q24 0 32 10t11 45zM103 0h-51l315 725h51zM311 144l-32 16l12 159h151l-3 -43h-110l-7 -87h2q23 13 49 13q79 0 79 -99q0 -107 -93 -107q-70 0 -86 68l37 13q11 -41 47 -41q24 0 34.5 15.5t10.5 51.5q0 32 -11 45t-36 13
q-27 0 -44 -17z" />
    <glyph glyph-name="uni2156" unicode="&#x2156;" horiz-adv-x="475" 
d="M115 729q41 0 62 -22.5t21 -58.5q0 -33 -17.5 -62.5t-38.5 -47.5t-41 -42.5t-24 -48.5h123v-41h-173l-1 23q1 34 20.5 66t42.5 52.5t42 47t19 51.5q0 42 -39 42q-37 0 -48 -51l-38 11q18 81 90 81zM103 0h-51l315 725h51zM311 144l-32 16l12 159h151l-3 -43h-110l-7 -87
h2q23 13 49 13q79 0 79 -99q0 -107 -93 -107q-70 0 -86 68l37 13q11 -41 47 -41q24 0 34.5 15.5t10.5 51.5q0 32 -11 45t-36 13q-27 0 -44 -17z" />
    <glyph glyph-name="uni2157" unicode="&#x2157;" horiz-adv-x="475" 
d="M81 551v38h21q43 0 43 51q0 48 -37 48q-36 0 -48 -45l-37 12q8 34 31.5 54t57.5 20q42 0 62.5 -22.5t20.5 -61.5q0 -57 -39 -72v-2q44 -11 44 -72q0 -97 -90 -97q-70 0 -89 68l36 13q13 -41 51 -41q42 0 42 60q0 28 -11.5 38.5t-35.5 10.5h-22zM103 0h-51l315 725h51z
M311 144l-32 16l12 159h151l-3 -43h-110l-7 -87h2q23 13 49 13q79 0 79 -99q0 -107 -93 -107q-70 0 -86 68l37 13q11 -41 47 -41q24 0 34.5 15.5t10.5 51.5q0 32 -11 45t-36 13q-27 0 -44 -17z" />
    <glyph glyph-name="uni2158" unicode="&#x2158;" horiz-adv-x="475" 
d="M173 406h-44v59h-127v33l123 227h48v-221h33l-3 -39h-30v-59zM51 504h78l4 163h-2zM103 0h-51l315 725h51zM311 144l-32 16l12 159h151l-3 -43h-110l-7 -87h2q23 13 49 13q79 0 79 -99q0 -107 -93 -107q-70 0 -86 68l37 13q11 -41 47 -41q24 0 34.5 15.5t10.5 51.5
q0 32 -11 45t-36 13q-27 0 -44 -17z" />
    <glyph glyph-name="uni2159" unicode="&#x2159;" horiz-adv-x="475" 
d="M122 726h40v-320h-51v231h-54v34h22q24 0 32 10t11 45zM103 0h-51l315 725h51zM367 323q64 0 81 -67l-34 -14q-12 40 -44 40q-48 0 -48 -64v-35h2q20 18 52 18q78 0 78 -95q0 -110 -91 -110q-42 0 -65 27.5t-23 78.5v111q0 49 25 79.5t67 30.5zM365 161q-16 0 -29 -8.5
t-14 -20.5v-36q0 -58 42 -58q23 0 33 15.5t10 51.5q0 56 -42 56z" />
    <glyph glyph-name="uni215A" unicode="&#x215a;" horiz-adv-x="475" 
d="M61 550l-32 16l12 159h151l-3 -43h-110l-7 -87h2q23 13 49 13q79 0 79 -99q0 -107 -93 -107q-70 0 -86 68l37 13q11 -41 47 -41q24 0 34.5 15.5t10.5 51.5q0 32 -11 45t-36 13q-27 0 -44 -17zM103 0h-51l315 725h51zM367 323q64 0 81 -67l-34 -14q-12 40 -44 40
q-48 0 -48 -64v-35h2q20 18 52 18q78 0 78 -95q0 -110 -91 -110q-42 0 -65 27.5t-23 78.5v111q0 49 25 79.5t67 30.5zM365 161q-16 0 -29 -8.5t-14 -20.5v-36q0 -58 42 -58q23 0 33 15.5t10 51.5q0 56 -42 56z" />
    <glyph glyph-name="oneeighth" unicode="&#x215b;" horiz-adv-x="475" 
d="M122 726h40v-320h-51v231h-54v34h22q24 0 32 10t11 45zM103 0h-51l315 725h51zM363 -4q-47 0 -70 23t-23 75q0 60 42 73v2q-35 15 -35 70q0 84 86 84q85 0 85 -84q0 -55 -35 -70v-2q42 -13 42 -73q0 -52 -23 -75t-69 -23zM407 95q0 30 -11 41t-33 11q-23 0 -34 -11
t-11 -41q0 -34 10.5 -46.5t34.5 -12.5t34 12.5t10 46.5zM363 284q-23 0 -32 -10.5t-9 -38.5q0 -29 9.5 -40t31.5 -11t31 11t9 40q0 28 -9 38.5t-31 10.5z" />
    <glyph glyph-name="threeeighths" unicode="&#x215c;" horiz-adv-x="475" 
d="M81 551v38h21q43 0 43 51q0 48 -37 48q-36 0 -48 -45l-37 12q8 34 31.5 54t57.5 20q42 0 62.5 -22.5t20.5 -61.5q0 -57 -39 -72v-2q44 -11 44 -72q0 -97 -90 -97q-70 0 -89 68l36 13q13 -41 51 -41q42 0 42 60q0 28 -11.5 38.5t-35.5 10.5h-22zM103 0h-51l315 725h51z
M363 -4q-47 0 -70 23t-23 75q0 60 42 73v2q-35 15 -35 70q0 84 86 84q85 0 85 -84q0 -55 -35 -70v-2q42 -13 42 -73q0 -52 -23 -75t-69 -23zM407 95q0 30 -11 41t-33 11q-23 0 -34 -11t-11 -41q0 -34 10.5 -46.5t34.5 -12.5t34 12.5t10 46.5zM363 284q-23 0 -32 -10.5
t-9 -38.5q0 -29 9.5 -40t31.5 -11t31 11t9 40q0 28 -9 38.5t-31 10.5z" />
    <glyph glyph-name="fiveeighths" unicode="&#x215d;" horiz-adv-x="475" 
d="M61 550l-32 16l12 159h151l-3 -43h-110l-7 -87h2q23 13 49 13q79 0 79 -99q0 -107 -93 -107q-70 0 -86 68l37 13q11 -41 47 -41q24 0 34.5 15.5t10.5 51.5q0 32 -11 45t-36 13q-27 0 -44 -17zM103 0h-51l315 725h51zM363 -4q-47 0 -70 23t-23 75q0 60 42 73v2
q-35 15 -35 70q0 84 86 84q85 0 85 -84q0 -55 -35 -70v-2q42 -13 42 -73q0 -52 -23 -75t-69 -23zM407 95q0 30 -11 41t-33 11q-23 0 -34 -11t-11 -41q0 -34 10.5 -46.5t34.5 -12.5t34 12.5t10 46.5zM363 284q-23 0 -32 -10.5t-9 -38.5q0 -29 9.5 -40t31.5 -11t31 11t9 40
q0 28 -9 38.5t-31 10.5z" />
    <glyph glyph-name="seveneighths" unicode="&#x215e;" horiz-adv-x="475" 
d="M145 406h-54l102 276h-130v43h180v-38zM103 0h-51l315 725h51zM363 -4q-47 0 -70 23t-23 75q0 60 42 73v2q-35 15 -35 70q0 84 86 84q85 0 85 -84q0 -55 -35 -70v-2q42 -13 42 -73q0 -52 -23 -75t-69 -23zM407 95q0 30 -11 41t-33 11q-23 0 -34 -11t-11 -41
q0 -34 10.5 -46.5t34.5 -12.5t34 12.5t10 46.5zM363 284q-23 0 -32 -10.5t-9 -38.5q0 -29 9.5 -40t31.5 -11t31 11t9 40q0 28 -9 38.5t-31 10.5z" />
    <glyph glyph-name="uni215F" unicode="&#x215f;" horiz-adv-x="475" 
d="M122 726h40v-320h-51v231h-54v34h22q24 0 32 10t11 45zM103 0h-51l315 725h51z" />
    <glyph glyph-name="uni2189" unicode="&#x2189;" horiz-adv-x="494" 
d="M204 628v-125q0 -48 -23.5 -74.5t-67.5 -26.5t-67 26.5t-23 74.5v124q0 48 23 75t67 27t67.5 -27t23.5 -74zM71 627v-124q0 -60 42 -60q43 0 43 60v124q0 58 -43 58q-42 0 -42 -58zM109 0h-51l315 725h51zM349 145v38h21q43 0 43 51q0 48 -37 48q-36 0 -48 -45l-37 12
q8 34 31.5 54t57.5 20q42 0 62.5 -22.5t20.5 -61.5q0 -57 -39 -72v-2q44 -11 44 -72q0 -97 -90 -97q-70 0 -89 68l36 13q13 -41 51 -41q42 0 42 60q0 28 -11.5 38.5t-35.5 10.5h-22z" />
    <glyph glyph-name="partialdiff" unicode="&#x2202;" horiz-adv-x="390" 
d="M215 514q64 0 92 -41h2q2 30 2 37q0 70 -32 113t-106 60l20 51q96 -17 137 -74.5t41 -152.5q0 -43 -8 -101l-36 -242q-12 -80 -60 -126t-123 -46q-63 0 -95.5 33.5t-32.5 94.5q0 18 3 39l28 188q11 77 55.5 122t112.5 45zM255 159l29 186q3 18 3 34q0 74 -69 74
q-84 0 -101 -108l-28 -186q-3 -18 -3 -34q0 -74 68 -74q84 0 101 108z" />
    <glyph glyph-name="Delta" unicode="&#x2206;" horiz-adv-x="475" 
d="M12 0l191 725h69l190 -725h-450zM237 619l-131 -550h261l-128 550h-2z" />
    <glyph glyph-name="product" unicode="&#x220f;" horiz-adv-x="486" 
d="M23 725h440v-72h-54v-722h-73v723h-186v-723h-72v722h-55v72z" />
    <glyph glyph-name="summation" unicode="&#x2211;" horiz-adv-x="432" 
d="M28 725h376v-72h-274l161 -309l-162 -341h283v-72h-384v38l183 375l-183 341v40z" />
    <glyph glyph-name="minus" unicode="&#x2212;" horiz-adv-x="382" 
d="M338 282h-295v59h295v-59z" />
    <glyph glyph-name="uni2215" unicode="&#x2215;" horiz-adv-x="228" 
d="M-2 0h-51l315 725h51z" />
    <glyph glyph-name="uni2219" unicode="&#x2219;" 
d="M121 311q0 45 26.5 75.5t65.5 30.5t65.5 -30.5t26.5 -75.5q0 -44 -26.5 -74t-65.5 -30t-65.5 30t-26.5 74z" />
    <glyph glyph-name="radical" unicode="&#x221a;" horiz-adv-x="458" 
d="M453 749l-185 -749h-82l-113 436l-68 12v57h134l87 -400h2l141 644h84z" />
    <glyph glyph-name="infinity" unicode="&#x221e;" horiz-adv-x="481" 
d="M448 286q0 -70 -25.5 -105.5t-66.5 -35.5q-33 0 -58 21.5t-58 70.5q-34 -50 -58 -71t-57 -21q-41 0 -66 35.5t-25 105.5t25 105.5t66 35.5q33 0 57 -21t58 -71q33 49 58 70.5t58 21.5q41 0 66.5 -35.5t25.5 -105.5zM212 286q-35 54 -49 69t-32 15q-45 0 -45 -84t45 -84
q17 0 31 14.5t50 69.5zM269 286q22 -34 32 -47.5t23.5 -24.5t26.5 -11q44 0 44 83q0 84 -44 84q-19 0 -34.5 -17.5t-47.5 -66.5z" />
    <glyph glyph-name="integral" unicode="&#x222b;" horiz-adv-x="179" 
d="M207 831l6 -59q-42 -7 -61.5 -36t-19.5 -89v-627q0 -171 -146 -185l-6 59q41 7 61 36.5t20 89.5v626q0 173 146 185z" />
    <glyph glyph-name="approxequal" unicode="&#x2248;" horiz-adv-x="382" 
d="M333 406v-58q-38 -22 -76 -22q-27 0 -72 15.5t-68 15.5q-34 0 -68 -22v59q38 22 76 22q27 0 73 -16t69 -16q35 0 66 22zM333 277v-59q-39 -22 -75 -22q-27 0 -72 16t-69 16q-34 0 -68 -22v59q37 21 75 21q28 0 74 -16t69 -16q34 0 66 23z" />
    <glyph glyph-name="notequal" unicode="&#x2260;" horiz-adv-x="382" 
d="M295 483l-38 -85h76v-59h-102l-30 -69h132v-60h-159l-46 -105l-39 19l38 86h-78v60h104l31 69h-135v59h161l46 104z" />
    <glyph glyph-name="lessequal" unicode="&#x2264;" horiz-adv-x="382" 
d="M318 449l-174 -122l175 -121v-78l-272 195v9l271 198v-81zM51 41v57h268v-57h-268z" />
    <glyph glyph-name="greaterequal" unicode="&#x2265;" horiz-adv-x="382" 
d="M63 206l175 121l-174 122v81l271 -198v-9l-272 -195v78zM331 98v-57h-268v57h268z" />
    <glyph glyph-name="dotmath" unicode="&#x22c5;" 
d="M161 321q0 23 15 40t36 17t36.5 -17t15.5 -40t-15.5 -39.5t-36.5 -16.5t-36 16.5t-15 39.5z" />
    <glyph glyph-name="lozenge" unicode="&#x25ca;" horiz-adv-x="349" 
d="M35 296l140 242l140 -242l-140 -242zM95 296l79 -137l79 137l-79 136z" />
    <glyph glyph-name="uni2E18" unicode="&#x2e18;" horiz-adv-x="417" 
d="M399 55q-17 -72 -67.5 -116.5t-123.5 -44.5q-86 0 -129 48t-43 124q0 75 39 137t109 104l4 120h53l6 -180v-287q67 20 92 112zM107 69q0 -100 79 -112v285h-2q-77 -67 -77 -173zM260 631v-97h-89v97h89z" />
    <glyph glyph-name="uniFB00" unicode="&#xfb00;" horiz-adv-x="479" 
d="M466 505v-57h-103v-448h-70v448h-155v-448h-70v448h-54v57h54v53q0 76 40.5 121.5t124.5 49.5l4 -55q-101 -6 -101 -118v-51h157v53q0 76 40.5 121.5t124.5 49.5l4 -55q-101 -6 -101 -118v-51h105z" />
    <glyph glyph-name="fi" unicode="&#xfb01;" horiz-adv-x="420" 
d="M233 729l4 -55q-101 -6 -101 -118v-51h226v-505h-71v448h-153v-448h-70v448h-54v57h54v53q0 76 40.5 121.5t124.5 49.5zM293 725h66v-105h-66v105z" />
    <glyph glyph-name="fl" unicode="&#xfb02;" horiz-adv-x="427" 
d="M234 505v-58h-96v-447h-70v447h-54v58h54v53q0 80 43.5 125t135.5 45h47v21h71v-749h-71v674h-45q-59 -1 -86 -29.5t-27 -88.5v-51h98z" />
    <glyph glyph-name="uniFB03" unicode="&#xfb03;" horiz-adv-x="643" 
d="M456 729l4 -55q-101 -6 -101 -118v-51h226v-505h-71v448h-153v-448h-70v448h-153v-448h-70v448h-54v57h54v53q0 76 40.5 121.5t124.5 49.5l4 -55q-101 -6 -101 -118v-51h155v53q0 76 40.5 121.5t124.5 49.5zM516 725h66v-105h-66v105z" />
    <glyph glyph-name="uniFB04" unicode="&#xfb04;" horiz-adv-x="650" 
d="M290 505v53q0 80 44 125t136 45h46v21h71v-749h-71v674h-44q-59 -1 -86.5 -29.5t-27.5 -88.5v-51h99v-57h-96v-448h-71v448h-152v-448h-70v448h-54v57h54v53q0 76 40.5 121.5t124.5 49.5l4 -55q-101 -6 -101 -118v-51h154z" />
    <glyph glyph-name="caron.alt001" horiz-adv-x="214" 
d="M94 725h64l-42 -136h-40z" />
    <glyph glyph-name="ogonek.alt001" horiz-adv-x="214" 
d="M114 13l34 -13q-25 0 -40.5 -21.5t-15.5 -47.5q0 -45 41 -45q26 0 51 18l15 -41q-30 -27 -80 -27q-42 0 -63.5 19.5t-21.5 55.5q0 34 21 62t59 40z" />
    <glyph glyph-name="i.latn_TRK" horiz-adv-x="191" 
d="M60 505h71v-505h-71v505zM61 725h69v-105h-69v105z" />
    <glyph glyph-name="Ldot.latn_CAT" horiz-adv-x="384" 
d="M269 454h62v-96h-62v96zM65 725h76v-652h224v-73h-300v725z" />
    <glyph glyph-name="ldot.latn_CAT" horiz-adv-x="215" 
d="M181 436h46v-113h-46v113zM62 749h71v-749h-71v749z" />
    <glyph glyph-name="afii10066.cyrl_SRB" horiz-adv-x="387" 
d="M347 353v-198q0 -77 -40.5 -120t-114.5 -43q-73 0 -113 43.5t-40 117.5v192q0 118 95 150v2q-68 32 -68 101q0 105 140 114l106 7l6 -60q-17 -4 -86 -6q-57 -2 -77.5 -15.5t-20.5 -39.5q0 -24 22 -40.5t53 -30t62.5 -31t53.5 -54t22 -89.5zM276 350q0 48 -22 74.5
t-62 45.5q-82 -23 -82 -120v-195q0 -104 82 -104q84 0 84 104v195z" />
    <glyph glyph-name="numbersign.subs" horiz-adv-x="234" 
d="M17 79v31h46l7 94h33l-7 -94h51l8 94h33l-7 -94h37v-31h-38l-5 -72h43v-31h-44l-7 -94h-34l7 94h-51l-7 -94h-34l8 94h-39v31h40l5 72h-45zM96 79l-5 -72h51l5 72h-51z" />
    <glyph glyph-name="dollar.subs" horiz-adv-x="214" 
d="M101 252h29l1 -50q48 -14 64 -66l-32 -11q-10 31 -35 39l-7 -101q24 -12 37.5 -21.5t26.5 -29t13 -45.5q0 -39 -21.5 -62t-58.5 -26l-5 -46h-28l-1 47q-56 9 -71 72l34 13q9 -36 39 -46l6 107q-23 11 -37 20.5t-26.5 29t-12.5 45.5q0 35 21.5 58t58.5 25zM158 -40
q0 29 -39 52l-1 -96q40 5 40 44zM58 125q0 -27 36 -48l2 89q-38 -4 -38 -41z" />
    <glyph glyph-name="comma.subs" horiz-adv-x="121" 
d="M31 -117v65h58v-51q0 -47 -13 -70.5t-43 -27.5l-3 26q29 7 29 58h-28z" />
    <glyph glyph-name="period.subs" horiz-adv-x="121" 
d="M31 -118v66h58v-66h-58z" />
    <glyph glyph-name="n.subs" horiz-adv-x="232" 
d="M34 -118v250h41l2 -23h2q23 28 57 28q66 0 66 -79v-176h-46v174q0 41 -33 41q-28 0 -42 -26v-189h-47z" />
    <glyph glyph-name="cent.subs" horiz-adv-x="209" 
d="M199 134l-34 -11q-12 42 -47 42q-47 0 -47 -63v-122q0 -66 46 -66q36 0 48 48l35 -12q-17 -61 -68 -70l-5 -47h-30l-1 47q-36 5 -54.5 32t-18.5 68v124q0 41 19 68t56 32l7 48h30l1 -50q46 -12 63 -68z" />
    <glyph glyph-name="sterling.subs" horiz-adv-x="242" 
d="M22 27l-5 33h29q-5 32 -5 50q0 47 23 73.5t66 26.5q34 0 57 -18.5t31 -49.5l-36 -14q-11 40 -49 40q-46 0 -46 -63q0 -11 4 -45h94l-4 -33h-86q4 -27 6 -52q15 -6 36.5 -30t35.5 -24q23 0 30 49l36 -10q-11 -82 -63 -82q-13 0 -25.5 7t-19 13t-18 20.5t-13.5 17.5h-2
q-7 -58 -53 -58q-40 0 -40 43q0 24 14.5 39t41.5 18q-1 3 -2.5 12t-3.5 18.5t-3 18.5h-30zM49 -90q16 0 16 42q-25 -2 -25 -29q0 -13 9 -13z" />
    <glyph glyph-name="currency.subs" horiz-adv-x="170" 
d="M32 50q0 16 8 30l-19 20l17 19l19 -21q13 8 28 8q16 0 28 -9l21 23l17 -19l-20 -22q8 -13 8 -29q0 -17 -8 -31l19 -20l-17 -19l-20 21q-13 -8 -28 -8t-28 8l-20 -22l-17 19l19 21q-7 13 -7 31zM60 49q0 -12 7.5 -19.5t18.5 -7.5t18 7.5t7 19.5q0 13 -7 20.5t-18 7.5
t-18.5 -7.5t-7.5 -20.5z" />
    <glyph glyph-name="yen.subs" horiz-adv-x="255" 
d="M208 -52h-53v-66h-51v66h-56v32h56v19h-56v32h46l-83 173h58l59 -153h2l60 153h58l-84 -173h44v-32h-53v-19h53v-32z" />
    <glyph glyph-name="franc.subs" horiz-adv-x="221" 
d="M2 -72v32h30v244h175v-44h-124v-95h106v-41h-106v-64h43v-32h-43v-46h-51v46h-30z" />
    <glyph glyph-name="lira.subs" horiz-adv-x="242" 
d="M22 44l-4 27h26q-3 21 -3 39q0 47 23 73.5t66 26.5q34 0 57 -18.5t31 -49.5l-36 -14q-11 40 -49 40q-46 0 -46 -63q0 -12 2 -34h99l-4 -27h-92l2 -14h87l-4 -25h-79q0 -5 1.5 -17.5t1.5 -17.5q14 -6 36 -27.5t36 -21.5q23 0 30 49l36 -10q-11 -82 -63 -82
q-14 0 -26.5 6.5t-18.5 13t-17 20t-14 16.5h-2q-7 -56 -53 -56q-18 0 -29 10.5t-11 29.5q0 50 57 55l-6 32h-27l-4 25h26l-3 14h-26zM49 -92q15 0 16 42q-26 -2 -26 -29q0 -13 10 -13z" />
    <glyph glyph-name="peseta.subs" horiz-adv-x="407" 
d="M89 204q71 0 71 -98q0 -47 -18 -72.5t-51 -25.5h-27v-126h-42v322h67zM398 60l-27 -9q-6 28 -26 28q-19 0 -19 -27q0 -13 11 -24.5t25 -20t25 -26t11 -41.5q0 -29 -14.5 -45.5t-39.5 -16.5q-48 0 -58 57l27 9q8 -36 29 -36t21 30q0 20 -18.5 34.5t-37 32.5t-18.5 46
t14.5 45t39.5 17q44 0 55 -53zM271 108v-33h-37v-143q0 -21 19 -21q7 0 15 3l5 -26q-13 -10 -33 -10q-44 0 -44 55v140l-21 7v28l23 1l9 61h27v-62h37zM64 168v-126h25q29 0 29 64q0 62 -29 62h-25z" />
    <glyph glyph-name="Euro.subs" horiz-adv-x="239" 
d="M129 209q34 0 58.5 -19.5t33.5 -49.5l-38 -15q-11 40 -50 40q-51 0 -51 -63v-18h102l-6 -26h-96v-19h92l-6 -26h-86v-32q0 -29 13 -45.5t38 -16.5q39 0 50 43l38 -13q-16 -71 -92 -71q-45 0 -72 28t-27 75v32h-23v26h23v19h-23v26h23v18q0 50 26.5 78.5t72.5 28.5z" />
    <glyph glyph-name="numbersign.sups" horiz-adv-x="234" 
d="M17 673v31h46l7 94h33l-7 -94h51l8 94h33l-7 -94h37v-31h-38l-5 -72h43v-31h-44l-7 -94h-34l7 94h-51l-7 -94h-34l8 94h-39v31h40l5 72h-45zM96 673l-5 -72h51l5 72h-51z" />
    <glyph glyph-name="dollar.sups" horiz-adv-x="214" 
d="M101 846h29l1 -50q48 -14 64 -66l-32 -11q-10 31 -35 39l-7 -101q24 -12 37.5 -21.5t26.5 -29t13 -45.5q0 -39 -21.5 -62t-58.5 -27l-5 -45h-28l-1 46q-56 11 -71 73l34 13q9 -36 39 -46l6 107q-23 11 -37 20.5t-26.5 29t-12.5 45.5q0 35 21.5 58t58.5 25zM158 554
q0 29 -39 52l-1 -96q40 5 40 44zM58 719q0 -27 36 -48l2 89q-38 -4 -38 -41z" />
    <glyph glyph-name="comma.sups" horiz-adv-x="121" 
d="M31 477v65h58v-51q0 -47 -13 -70.5t-43 -27.5l-3 26q29 7 29 58h-28z" />
    <glyph glyph-name="period.sups" horiz-adv-x="121" 
d="M31 476v66h58v-66h-58z" />
    <glyph glyph-name="cent.sups" horiz-adv-x="209" 
d="M199 728l-34 -11q-12 42 -47 42q-47 0 -47 -63v-122q0 -66 46 -66q36 0 48 48l35 -12q-17 -61 -68 -71l-5 -46h-30l-1 46q-73 12 -73 101v124q0 41 19 68t56 32l7 48h30l1 -50q46 -12 63 -68z" />
    <glyph glyph-name="sterling.sups" horiz-adv-x="242" 
d="M22 621l-5 33h29q-5 32 -5 50q0 47 23 73.5t66 26.5q34 0 57 -18.5t31 -49.5l-36 -14q-11 40 -49 40q-46 0 -46 -63q0 -11 4 -45h94l-4 -33h-86q4 -27 6 -52q15 -6 36.5 -30t35.5 -24q23 0 30 49l36 -10q-11 -82 -63 -82q-13 0 -25.5 7t-19 13t-18 20.5t-13.5 17.5h-2
q-7 -58 -53 -58q-40 0 -40 43q0 24 14.5 39t41.5 18q-1 3 -2.5 12t-3.5 18.5t-3 18.5h-30zM49 504q16 0 16 42q-25 -2 -25 -29q0 -13 9 -13z" />
    <glyph glyph-name="currency.sups" horiz-adv-x="170" 
d="M32 644q0 16 8 30l-19 20l17 19l19 -21q13 8 28 8q16 0 28 -9l21 23l17 -19l-20 -22q8 -13 8 -29q0 -17 -8 -31l19 -20l-17 -19l-20 21q-13 -8 -28 -8t-28 8l-20 -22l-17 19l19 21q-7 13 -7 31zM60 643q0 -12 7.5 -19.5t18.5 -7.5t18 7.5t7 19.5q0 13 -7 20.5t-18 7.5
t-18.5 -7.5t-7.5 -20.5z" />
    <glyph glyph-name="yen.sups" horiz-adv-x="255" 
d="M208 542h-53v-66h-51v66h-56v32h56v19h-56v32h46l-83 173h58l59 -153h2l60 153h58l-84 -173h44v-32h-53v-19h53v-32z" />
    <glyph glyph-name="franc.sups" horiz-adv-x="221" 
d="M2 522v32h30v244h175v-44h-124v-95h106v-41h-106v-64h43v-32h-43v-46h-51v46h-30z" />
    <glyph glyph-name="lira.sups" horiz-adv-x="242" 
d="M22 638l-4 27h26q-3 21 -3 39q0 47 23 73.5t66 26.5q34 0 57 -18.5t31 -49.5l-36 -14q-11 40 -49 40q-46 0 -46 -63q0 -16 2 -34h99l-4 -27h-92l2 -14h87l-4 -25h-79q0 -5 1.5 -17.5t1.5 -17.5q14 -6 36 -27.5t36 -21.5q23 0 30 49l36 -10q-11 -82 -63 -82
q-14 0 -26.5 6.5t-18.5 13t-17 20t-14 16.5h-2q-7 -56 -53 -56q-18 0 -29 10.5t-11 29.5q0 50 57 55l-6 32h-27l-4 25h26l-3 14h-26zM49 502q15 0 16 42q-26 -2 -26 -29q0 -13 10 -13z" />
    <glyph glyph-name="peseta.sups" horiz-adv-x="407" 
d="M89 798q71 0 71 -98q0 -47 -18 -72.5t-51 -25.5h-27v-126h-42v322h67zM398 654l-27 -9q-6 28 -26 28q-19 0 -19 -27q0 -13 11 -24.5t25 -20t25 -26t11 -41.5q0 -29 -14.5 -45.5t-39.5 -16.5q-48 0 -58 57l27 9q8 -36 29 -36t21 30q0 20 -18.5 34.5t-37 32.5t-18.5 46
t14.5 45t39.5 17q44 0 55 -53zM271 702v-33h-37v-143q0 -21 19 -21q7 0 15 3l5 -26q-13 -10 -33 -10q-44 0 -44 55v140l-21 7v28l23 1l9 61h27v-62h37zM64 762v-126h25q29 0 29 64q0 62 -29 62h-25z" />
    <glyph glyph-name="Euro.sups" horiz-adv-x="239" 
d="M129 803q34 0 58.5 -19.5t33.5 -49.5l-38 -15q-11 40 -50 40q-51 0 -51 -63v-18h102l-6 -26h-96v-19h92l-6 -26h-86v-32q0 -29 13 -45.5t38 -16.5q39 0 50 43l38 -13q-16 -71 -92 -71q-45 0 -72 28t-27 75v32h-23v26h23v19h-23v26h23v18q0 50 26.5 78.5t72.5 28.5z" />
    <glyph glyph-name="numbersign.numr" horiz-adv-x="234" 
d="M17 603v31h46l7 94h33l-7 -94h51l8 94h33l-7 -94h37v-31h-38l-5 -72h43v-31h-44l-7 -94h-34l7 94h-51l-7 -94h-34l8 94h-39v31h40l5 72h-45zM96 603l-5 -72h51l5 72h-51z" />
    <glyph glyph-name="dollar.numr" horiz-adv-x="214" 
d="M101 776h29l1 -50q48 -14 64 -66l-32 -11q-10 31 -35 39l-7 -101q24 -12 37.5 -21.5t26.5 -29t13 -45.5q0 -39 -21.5 -62t-58.5 -27l-5 -45h-28l-1 46q-56 11 -71 73l34 13q9 -36 39 -46l6 107q-23 11 -37 20.5t-26.5 29t-12.5 45.5q0 35 21.5 58t58.5 25zM158 484
q0 29 -39 52l-1 -96q40 5 40 44zM58 649q0 -27 36 -48l2 89q-38 -4 -38 -41z" />
    <glyph glyph-name="parenleft.numr" horiz-adv-x="122" 
d="M29 490v142q0 75 21 108t67 33h11v-32h-11q-49 0 -49 -109v-142q0 -109 49 -109h11v-32h-11q-46 0 -67 33t-21 108z" />
    <glyph glyph-name="parenright.numr" horiz-adv-x="122" 
d="M93 632v-142q0 -75 -21 -108t-67 -33h-11v32h11q49 0 49 109v142q0 109 -49 109h-11v32h11q46 0 67 -33t21 -108z" />
    <glyph glyph-name="plus.numr" horiz-adv-x="199" 
d="M82 465v77h-57v35h57v76h34v-76h58v-35h-58v-77h-34z" />
    <glyph glyph-name="comma.numr" horiz-adv-x="121" 
d="M31 407v65h58v-51q0 -47 -13 -70.5t-43 -27.5l-3 26q29 7 29 58h-28z" />
    <glyph glyph-name="period.numr" horiz-adv-x="121" 
d="M31 406v66h58v-66h-58z" />
    <glyph glyph-name="zero.numr" horiz-adv-x="227" 
d="M204 628v-125q0 -48 -23.5 -74.5t-67.5 -26.5t-67 26.5t-23 74.5v124q0 48 23 75t67 27t67.5 -27t23.5 -74zM71 627v-124q0 -60 42 -60q43 0 43 60v124q0 58 -43 58q-42 0 -42 -58z" />
    <glyph glyph-name="one.numr" horiz-adv-x="180" 
d="M92 726h40v-320h-51v231h-54v34h22q24 0 32 10t11 45z" />
    <glyph glyph-name="two.numr" horiz-adv-x="227" 
d="M116 729q41 0 62 -22.5t21 -58.5q0 -33 -17.5 -62.5t-38.5 -47.5t-41 -42.5t-24 -48.5h123v-41h-173l-1 23q1 34 20.5 66t42.5 52.5t42 47t19 51.5q0 42 -39 42q-37 0 -48 -51l-38 11q18 81 90 81z" />
    <glyph glyph-name="three.numr" horiz-adv-x="227" 
d="M82 551v38h21q43 0 43 51q0 48 -37 48q-36 0 -48 -45l-37 12q8 34 31.5 54t57.5 20q42 0 62.5 -22.5t20.5 -61.5q0 -57 -39 -72v-2q44 -11 44 -72q0 -97 -90 -97q-70 0 -89 68l36 13q13 -41 51 -41q42 0 42 60q0 28 -11.5 38.5t-35.5 10.5h-22z" />
    <glyph glyph-name="four.numr" horiz-adv-x="227" 
d="M185 406h-44v59h-127v33l123 227h48v-221h33l-3 -39h-30v-59zM63 504h78l4 163h-2z" />
    <glyph glyph-name="five.numr" horiz-adv-x="227" 
d="M62 550l-32 16l12 159h151l-3 -43h-110l-7 -87h2q23 13 49 13q79 0 79 -99q0 -107 -93 -107q-70 0 -86 68l37 13q11 -41 47 -41q24 0 34.5 15.5t10.5 51.5q0 32 -11 45t-36 13q-27 0 -44 -17z" />
    <glyph glyph-name="six.numr" horiz-adv-x="227" 
d="M118 729q64 0 81 -67l-34 -14q-12 40 -44 40q-48 0 -48 -64v-35h2q20 18 52 18q78 0 78 -95q0 -110 -91 -110q-42 0 -65 27.5t-23 78.5v111q0 49 25 79.5t67 30.5zM116 567q-16 0 -29 -8.5t-14 -20.5v-36q0 -58 42 -58q23 0 33 15.5t10 51.5q0 56 -42 56z" />
    <glyph glyph-name="seven.numr" horiz-adv-x="210" 
d="M97 406h-54l102 276h-130v43h180v-38z" />
    <glyph glyph-name="eight.numr" horiz-adv-x="227" 
d="M114 402q-47 0 -70 23t-23 75q0 60 42 73v2q-35 15 -35 70q0 84 86 84q85 0 85 -84q0 -55 -35 -70v-2q42 -13 42 -73q0 -52 -23 -75t-69 -23zM158 501q0 30 -11 41t-33 11q-23 0 -34 -11t-11 -41q0 -34 10.5 -46.5t34.5 -12.5t34 12.5t10 46.5zM114 690q-23 0 -32 -10.5
t-9 -38.5q0 -29 9.5 -40t31.5 -11t31 11t9 40q0 28 -9 38.5t-31 10.5z" />
    <glyph glyph-name="nine.numr" horiz-adv-x="227" 
d="M26 465l33 17q14 -39 49 -39q47 0 47 54v55h-2q-18 -18 -52 -18q-78 0 -78 94q0 102 92 102q42 0 64.5 -26t22.5 -71v-135q0 -45 -24.5 -70.5t-66.5 -25.5q-65 0 -85 63zM110 573q16 0 30 8t15 21v36q0 51 -40 51q-24 0 -34.5 -13t-10.5 -45t9.5 -45t30.5 -13z" />
    <glyph glyph-name="equal.numr" horiz-adv-x="199" 
d="M167 571h-138v35h138v-35zM167 506h-138v35h138v-35z" />
    <glyph glyph-name="n.numr" horiz-adv-x="232" 
d="M34 406v250h41l2 -23h2q23 28 57 28q66 0 66 -79v-176h-46v174q0 41 -33 41q-28 0 -42 -26v-189h-47z" />
    <glyph glyph-name="cent.numr" horiz-adv-x="209" 
d="M199 658l-34 -11q-12 42 -47 42q-47 0 -47 -63v-122q0 -66 46 -66q36 0 48 48l35 -12q-17 -61 -68 -71l-5 -46h-30l-1 46q-73 12 -73 101v124q0 41 19 68t56 32l7 48h30l1 -50q46 -12 63 -68z" />
    <glyph glyph-name="sterling.numr" horiz-adv-x="242" 
d="M22 551l-5 33h29q-5 32 -5 50q0 47 23 73.5t66 26.5q34 0 57 -18.5t31 -49.5l-36 -14q-11 40 -49 40q-46 0 -46 -63q0 -11 4 -45h94l-4 -33h-86q4 -27 6 -52q15 -6 36.5 -30t35.5 -24q23 0 30 49l36 -10q-11 -82 -63 -82q-13 0 -25.5 7t-19 13t-18 20.5t-13.5 17.5h-2
q-7 -58 -53 -58q-40 0 -40 43q0 24 14.5 39t41.5 18q-1 3 -2.5 12t-3.5 18.5t-3 18.5h-30zM49 434q16 0 16 42q-25 -2 -25 -29q0 -13 9 -13z" />
    <glyph glyph-name="currency.numr" horiz-adv-x="170" 
d="M32 574q0 16 8 30l-19 20l17 19l19 -21q13 8 28 8q16 0 28 -9l21 23l17 -19l-20 -22q8 -13 8 -29q0 -17 -8 -31l19 -20l-17 -19l-20 21q-13 -8 -28 -8t-28 8l-20 -22l-17 19l19 21q-7 13 -7 31zM60 573q0 -12 7.5 -19.5t18.5 -7.5t18 7.5t7 19.5q0 13 -7 20.5t-18 7.5
t-18.5 -7.5t-7.5 -20.5z" />
    <glyph glyph-name="yen.numr" horiz-adv-x="255" 
d="M208 472h-53v-66h-51v66h-56v32h56v19h-56v32h46l-83 173h58l59 -153h2l60 153h58l-84 -173h44v-32h-53v-19h53v-32z" />
    <glyph glyph-name="franc.numr" horiz-adv-x="221" 
d="M2 452v32h30v244h175v-44h-124v-95h106v-41h-106v-64h43v-32h-43v-46h-51v46h-30z" />
    <glyph glyph-name="lira.numr" horiz-adv-x="242" 
d="M22 568l-4 27h26q-3 21 -3 39q0 47 23 73.5t66 26.5q34 0 57 -18.5t31 -49.5l-36 -14q-11 40 -49 40q-46 0 -46 -63q0 -12 2 -34h99l-4 -27h-92l2 -14h87l-4 -25h-79q0 -5 1.5 -17.5t1.5 -17.5q14 -6 36 -27.5t36 -21.5q23 0 30 49l36 -10q-11 -82 -63 -82
q-14 0 -26.5 6.5t-18.5 13t-17 20t-14 16.5h-2q-7 -56 -53 -56q-18 0 -29 10.5t-11 29.5q0 50 57 55l-6 32h-27l-4 25h26l-3 14h-26zM49 432q15 0 16 42q-26 -2 -26 -29q0 -13 10 -13z" />
    <glyph glyph-name="peseta.numr" horiz-adv-x="407" 
d="M89 728q71 0 71 -98q0 -47 -18 -72.5t-51 -25.5h-27v-126h-42v322h67zM398 584l-27 -9q-6 28 -26 28q-19 0 -19 -27q0 -13 11 -24.5t25 -20t25 -26t11 -41.5q0 -29 -14.5 -45.5t-39.5 -16.5q-48 0 -58 57l27 9q8 -36 29 -36t21 30q0 16 -11.5 29t-25.5 21t-25.5 24.5
t-11.5 38.5q0 28 14.5 45t39.5 17q44 0 55 -53zM271 632v-33h-37v-143q0 -21 19 -21q7 0 15 3l5 -26q-13 -10 -33 -10q-44 0 -44 55v140l-21 7v28l23 1l9 61h27v-62h37zM64 692v-126h25q29 0 29 64q0 62 -29 62h-25z" />
    <glyph glyph-name="Euro.numr" horiz-adv-x="239" 
d="M129 733q34 0 58.5 -19.5t33.5 -49.5l-38 -15q-11 40 -50 40q-51 0 -51 -63v-18h102l-6 -26h-96v-19h92l-6 -26h-86v-32q0 -29 13 -45.5t38 -16.5q39 0 50 43l38 -13q-16 -71 -92 -71q-45 0 -72 28t-27 75v32h-23v26h23v19h-23v26h23v18q0 50 26.5 78.5t72.5 28.5z" />
    <glyph glyph-name="minus.numr" horiz-adv-x="199" 
d="M174 542h-149v35h149v-35z" />
    <glyph glyph-name="numbersign.dnom" horiz-adv-x="234" 
d="M17 197v31h46l7 94h33l-7 -94h51l8 94h33l-7 -94h37v-31h-38l-5 -72h43v-31h-44l-7 -94h-34l7 94h-51l-7 -94h-34l8 94h-39v31h40l5 72h-45zM96 197l-5 -72h51l5 72h-51z" />
    <glyph glyph-name="dollar.dnom" horiz-adv-x="214" 
d="M101 370h29l1 -50q48 -14 64 -66l-32 -11q-10 31 -35 39l-7 -101q24 -12 37.5 -21.5t26.5 -29t13 -45.5q0 -39 -21.5 -62t-58.5 -26l-5 -46h-28l-1 47q-56 9 -71 72l34 13q9 -36 39 -46l6 107q-23 11 -37 20.5t-26.5 29t-12.5 45.5q0 35 21.5 58t58.5 25zM158 78
q0 29 -39 52l-1 -96q40 5 40 44zM58 243q0 -27 36 -48l2 89q-38 -4 -38 -41z" />
    <glyph glyph-name="parenleft.dnom" horiz-adv-x="122" 
d="M29 84v142q0 75 21 108t67 33h11v-32h-11q-49 0 -49 -109v-142q0 -109 49 -109h11v-32h-11q-46 0 -67 33t-21 108z" />
    <glyph glyph-name="parenright.dnom" horiz-adv-x="122" 
d="M93 226v-142q0 -75 -21 -108t-67 -33h-11v32h11q49 0 49 109v142q0 109 -49 109h-11v32h11q46 0 67 -33t21 -108z" />
    <glyph glyph-name="plus.dnom" horiz-adv-x="199" 
d="M82 59v77h-57v35h57v76h34v-76h58v-35h-58v-77h-34z" />
    <glyph glyph-name="comma.dnom" horiz-adv-x="121" 
d="M31 1v65h58v-51q0 -47 -13 -70.5t-43 -27.5l-3 26q29 7 29 58h-28z" />
    <glyph glyph-name="period.dnom" horiz-adv-x="121" 
d="M31 0v66h58v-66h-58z" />
    <glyph glyph-name="zero.dnom" horiz-adv-x="227" 
d="M204 222v-125q0 -48 -23.5 -74.5t-67.5 -26.5t-67 26.5t-23 74.5v124q0 48 23 75t67 27t67.5 -27t23.5 -74zM71 221v-124q0 -60 42 -60q43 0 43 60v124q0 58 -43 58q-42 0 -42 -58z" />
    <glyph glyph-name="one.dnom" horiz-adv-x="180" 
d="M92 320h40v-320h-51v231h-54v34h22q24 0 32 10t11 45z" />
    <glyph glyph-name="two.dnom" horiz-adv-x="227" 
d="M116 323q41 0 62 -22.5t21 -58.5q0 -33 -17.5 -62.5t-38.5 -47.5t-41 -42.5t-24 -48.5h123v-41h-173l-1 23q1 34 20.5 66t42.5 52.5t42 47t19 51.5q0 42 -39 42q-37 0 -48 -51l-38 11q18 81 90 81z" />
    <glyph glyph-name="three.dnom" horiz-adv-x="227" 
d="M82 145v38h21q43 0 43 51q0 48 -37 48q-36 0 -48 -45l-37 12q8 34 31.5 54t57.5 20q42 0 62.5 -22.5t20.5 -61.5q0 -57 -39 -72v-2q44 -11 44 -72q0 -97 -90 -97q-70 0 -89 68l36 13q13 -41 51 -41q42 0 42 60q0 28 -11.5 38.5t-35.5 10.5h-22z" />
    <glyph glyph-name="four.dnom" horiz-adv-x="227" 
d="M185 0h-44v59h-127v33l123 227h48v-221h33l-3 -39h-30v-59zM63 98h78l4 163h-2z" />
    <glyph glyph-name="five.dnom" horiz-adv-x="227" 
d="M62 144l-32 16l12 159h151l-3 -43h-110l-7 -87h2q23 13 49 13q79 0 79 -99q0 -107 -93 -107q-70 0 -86 68l37 13q11 -41 47 -41q24 0 34.5 15.5t10.5 51.5q0 32 -11 45t-36 13q-27 0 -44 -17z" />
    <glyph glyph-name="six.dnom" horiz-adv-x="227" 
d="M118 323q64 0 81 -67l-34 -14q-12 40 -44 40q-48 0 -48 -64v-35h2q20 18 52 18q78 0 78 -95q0 -110 -91 -110q-42 0 -65 27.5t-23 78.5v111q0 49 25 79.5t67 30.5zM116 161q-16 0 -29 -8.5t-14 -20.5v-36q0 -58 42 -58q23 0 33 15.5t10 51.5q0 56 -42 56z" />
    <glyph glyph-name="seven.dnom" horiz-adv-x="210" 
d="M97 0h-54l102 276h-130v43h180v-38z" />
    <glyph glyph-name="eight.dnom" horiz-adv-x="227" 
d="M114 -4q-47 0 -70 23t-23 75q0 60 42 73v2q-35 15 -35 70q0 84 86 84q85 0 85 -84q0 -55 -35 -70v-2q42 -13 42 -73q0 -52 -23 -75t-69 -23zM158 95q0 30 -11 41t-33 11q-23 0 -34 -11t-11 -41q0 -34 10.5 -46.5t34.5 -12.5t34 12.5t10 46.5zM114 284q-23 0 -32 -10.5
t-9 -38.5q0 -29 9.5 -40t31.5 -11t31 11t9 40q0 28 -9 38.5t-31 10.5z" />
    <glyph glyph-name="nine.dnom" horiz-adv-x="227" 
d="M26 59l33 17q14 -39 49 -39q47 0 47 54v55h-2q-18 -18 -52 -18q-78 0 -78 94q0 102 92 102q42 0 64.5 -26t22.5 -71v-135q0 -45 -24.5 -70.5t-66.5 -25.5q-65 0 -85 63zM110 167q16 0 30 8t15 21v36q0 51 -40 51q-24 0 -34.5 -13t-10.5 -45t9.5 -45t30.5 -13z" />
    <glyph glyph-name="equal.dnom" horiz-adv-x="199" 
d="M167 165h-138v35h138v-35zM167 100h-138v35h138v-35z" />
    <glyph glyph-name="n.dnom" horiz-adv-x="232" 
d="M34 0v250h41l2 -23h2q23 28 57 28q66 0 66 -79v-176h-46v174q0 41 -33 41q-28 0 -42 -26v-189h-47z" />
    <glyph glyph-name="cent.dnom" horiz-adv-x="209" 
d="M199 252l-34 -11q-12 42 -47 42q-47 0 -47 -63v-122q0 -66 46 -66q36 0 48 48l35 -12q-17 -61 -68 -70l-5 -47h-30l-1 47q-36 5 -54.5 32t-18.5 68v124q0 41 19 68t56 32l7 48h30l1 -50q46 -12 63 -68z" />
    <glyph glyph-name="sterling.dnom" horiz-adv-x="242" 
d="M22 145l-5 33h29q-5 32 -5 50q0 47 23 73.5t66 26.5q34 0 57 -18.5t31 -49.5l-36 -14q-11 40 -49 40q-46 0 -46 -63q0 -11 4 -45h94l-4 -33h-86q4 -27 6 -52q15 -6 36.5 -30t35.5 -24q23 0 30 49l36 -10q-11 -82 -63 -82q-13 0 -25.5 7t-19 13t-18 20.5t-13.5 17.5h-2
q-7 -58 -53 -58q-40 0 -40 43q0 24 14.5 39t41.5 18q-1 3 -2.5 12t-3.5 18.5t-3 18.5h-30zM49 28q16 0 16 42q-25 -2 -25 -29q0 -13 9 -13z" />
    <glyph glyph-name="currency.dnom" horiz-adv-x="170" 
d="M32 168q0 16 8 30l-19 20l17 19l19 -21q13 8 28 8q16 0 28 -9l21 23l17 -19l-20 -22q8 -13 8 -29q0 -17 -8 -31l19 -20l-17 -19l-20 21q-13 -8 -28 -8t-28 8l-20 -22l-17 19l19 21q-7 13 -7 31zM60 167q0 -12 7.5 -19.5t18.5 -7.5t18 7.5t7 19.5q0 13 -7 20.5t-18 7.5
t-18.5 -7.5t-7.5 -20.5z" />
    <glyph glyph-name="yen.dnom" horiz-adv-x="255" 
d="M208 66h-53v-66h-51v66h-56v32h56v19h-56v32h46l-83 173h58l59 -153h2l60 153h58l-84 -173h44v-32h-53v-19h53v-32z" />
    <glyph glyph-name="franc.dnom" horiz-adv-x="221" 
d="M2 46v32h30v244h175v-44h-124v-95h106v-41h-106v-64h43v-32h-43v-46h-51v46h-30z" />
    <glyph glyph-name="lira.dnom" horiz-adv-x="242" 
d="M22 162l-4 27h26q-3 21 -3 39q0 47 23 73.5t66 26.5q34 0 57 -18.5t31 -49.5l-36 -14q-11 40 -49 40q-46 0 -46 -63q0 -12 2 -34h99l-4 -27h-92l2 -14h87l-4 -25h-79q0 -5 1.5 -17.5t1.5 -17.5q14 -6 36 -27.5t36 -21.5q23 0 30 49l36 -10q-11 -82 -63 -82
q-14 0 -26.5 6.5t-18.5 13t-17 20t-14 16.5h-2q-7 -56 -53 -56q-18 0 -29 10.5t-11 29.5q0 50 57 55l-6 32h-27l-4 25h26l-3 14h-26zM49 26q15 0 16 42q-26 -2 -26 -29q0 -13 10 -13z" />
    <glyph glyph-name="peseta.dnom" horiz-adv-x="407" 
d="M89 322q71 0 71 -98q0 -47 -18 -72.5t-51 -25.5h-27v-126h-42v322h67zM398 178l-27 -9q-6 28 -26 28q-19 0 -19 -27q0 -13 11 -24.5t25 -20t25 -26t11 -41.5q0 -29 -14.5 -45.5t-39.5 -16.5q-48 0 -58 57l27 9q8 -36 29 -36t21 30q0 20 -18.5 34.5t-37 32.5t-18.5 46
t14.5 45t39.5 17q44 0 55 -53zM271 226v-33h-37v-143q0 -21 19 -21q7 0 15 3l5 -26q-13 -10 -33 -10q-44 0 -44 55v140l-21 7v28l23 1l9 61h27v-62h37zM64 286v-126h25q29 0 29 64q0 62 -29 62h-25z" />
    <glyph glyph-name="Euro.dnom" horiz-adv-x="239" 
d="M129 327q34 0 58.5 -19.5t33.5 -49.5l-38 -15q-11 40 -50 40q-51 0 -51 -63v-18h102l-6 -26h-96v-19h92l-6 -26h-86v-32q0 -29 13 -45.5t38 -16.5q39 0 50 43l38 -13q-16 -71 -92 -71q-45 0 -72 28t-27 75v32h-23v26h23v19h-23v26h23v18q0 50 26.5 78.5t72.5 28.5z" />
    <glyph glyph-name="minus.dnom" horiz-adv-x="199" 
d="M174 136h-149v35h149v-35z" />
    <glyph glyph-name="space.frac" horiz-adv-x="35" 
 />
    <glyph glyph-name="numbersign.osf" horiz-adv-x="374" 
d="M22 375v52h76l13 181h53l-13 -181h85l13 181h53l-13 -181h59v-52h-60l-10 -141h70v-51h-71l-14 -183h-53l14 183h-85l-14 -183h-53l14 183h-64v51h65l9 141h-74zM149 375l-8 -141h84l9 141h-85z" />
    <glyph glyph-name="dollar.osf" horiz-adv-x="374" 
d="M37 465q0 61 32.5 101t90.5 47l14 117h46l2 -119q84 -21 108 -120l-53 -17q-22 79 -90 79q-76 0 -76 -83q0 -36 23 -65t55.5 -51.5l65 -47t55.5 -63.5t23 -89q0 -65 -31.5 -107.5t-85.5 -52.5l-11 -121h-46l-3 120q-49 6 -79.5 38t-43.5 96l55 17q21 -94 95 -94
q37 0 59 25t22 69q0 33 -17 60.5t-42 45.5l-54.5 39.5t-54.5 42.5t-42 55.5t-17 77.5z" />
    <glyph glyph-name="plus.osf" horiz-adv-x="374" 
d="M158 86v175h-116v59h116v175h56v-175h119v-59h-119v-175h-56z" />
    <glyph glyph-name="zero.osf" horiz-adv-x="395" 
d="M358 404v-232q0 -87 -41.5 -134t-119.5 -47t-118.5 47.5t-40.5 135.5v227q0 89 40.5 137.5t118.5 48.5t119.5 -47.5t41.5 -135.5zM108 401v-230q0 -120 89 -120q46 0 67.5 28.5t21.5 90.5v235q0 63 -21.5 92t-67.5 29q-89 0 -89 -125z" />
    <glyph glyph-name="one.osf" horiz-adv-x="274" 
d="M146 418h-117v55h54q46 0 62 22.5t20 95.5h56v-591h-75v418z" />
    <glyph glyph-name="two.osf" horiz-adv-x="369" 
d="M193 589q71 0 106 -37.5t35 -103.5q0 -125 -211 -383v-2h218v-63h-309l-2 47q105 119 169 225.5t64 172.5q0 81 -76 81q-66 0 -102 -80l-53 22q51 121 161 121z" />
    <glyph glyph-name="three.osf" horiz-adv-x="370" 
d="M323 443q0 -120 -71 -147v-2q47 -10 67.5 -43t20.5 -96q0 -241 -288 -241l-7 63q121 0 172 44t51 135q0 62 -25.5 84t-89.5 22h-21v59h19q55 0 78 26t23 91q0 46 -16.5 66.5t-55.5 20.5q-67 0 -104 -80l-53 22q51 122 163 122q69 0 103 -39t34 -107z" />
    <glyph glyph-name="four.osf" horiz-adv-x="369" 
d="M296 -84h-68v232h-225v53l222 380h71v-374h71l-6 -59h-65v-232zM78 207h150l8 287h-2z" />
    <glyph glyph-name="five.osf" horiz-adv-x="358" 
d="M308 514h-202l-12 -193q42 21 88 21q74 0 111.5 -40t37.5 -131q0 -121 -74 -189t-208 -68l-6 62q217 0 217 189q0 66 -23.5 91t-75.5 25q-53 0 -87 -28l-47 22l21 306h265z" />
    <glyph glyph-name="six.osf" horiz-adv-x="379" 
d="M307 616q-81 0 -131 -62t-60 -187h2q36 33 89 33q144 0 144 -191q0 -218 -157 -218q-76 0 -113 54.5t-37 153.5v109q0 176 69.5 273t189.5 97zM198 335q-51 0 -83 -38v-96q0 -146 82 -146q41 0 62.5 34.5t21.5 116.5q0 71 -20 100t-63 29z" />
    <glyph glyph-name="seven.osf" horiz-adv-x="337" 
d="M132 -80h-76l200 594h-250v67h323v-57z" />
    <glyph glyph-name="eight.osf" horiz-adv-x="378" 
d="M189 -9q-78 0 -117 41t-39 134q0 111 77 137v2q-67 30 -67 134q0 150 146 150t146 -149q0 -104 -67 -135v-2q77 -26 77 -137q0 -93 -39 -134t-117 -41zM274 171q0 56 -21.5 79t-63.5 23t-63 -23t-21 -79q0 -65 19.5 -92t64.5 -27t65 27.5t20 91.5zM189 528
q-41 0 -59.5 -22.5t-18.5 -75.5q0 -54 18.5 -78t59.5 -24t59.5 24t18.5 78q0 53 -18.5 75.5t-59.5 22.5z" />
    <glyph glyph-name="nine.osf" horiz-adv-x="379" 
d="M67 -23q188 0 198 270h-2q-36 -30 -89 -30q-146 0 -146 179q0 192 158 192q74 0 111.5 -54.5t37.5 -151.5v-105q0 -177 -69.5 -270t-192.5 -93zM183 278q48 0 82 40v63q0 75 -19.5 109.5t-62.5 34.5q-85 0 -85 -126q0 -65 21 -93t64 -28z" />
    <glyph glyph-name="less.osf" horiz-adv-x="374" 
d="M324 426l-189 -136l190 -137v-79l-283 211v9l282 212v-80z" />
    <glyph glyph-name="equal.osf" horiz-adv-x="374" 
d="M327 325h-280v60h280v-60zM327 197h-280v59h280v-59z" />
    <glyph glyph-name="greater.osf" horiz-adv-x="374" 
d="M240 290l-191 137v79h2l282 -211v-9l-281 -212h-2v79z" />
    <glyph glyph-name="cent.osf" horiz-adv-x="374" 
d="M335 493l-57 -20q-22 82 -89 82q-85 0 -85 -125v-259q0 -122 86 -122q68 0 89 87l57 -18q-27 -111 -119 -126l-12 -119h-45l-3 119q-124 16 -124 183v253q0 79 32 128.5t97 57.5l13 116h46l2 -118q84 -20 112 -119z" />
    <glyph glyph-name="sterling.osf" horiz-adv-x="374" 
d="M321 496l-53 -17q-16 75 -72 75q-35 0 -51.5 -29t-16.5 -92q0 -36 7 -108h143l-5 -48h-133q10 -93 11 -118q21 -10 40.5 -36.5l34.5 -46.5t31 -20q19 0 30 21t16 74l52 -12q-7 -81 -30 -115t-62 -34q-29 0 -49 17.5t-40 53t-25 42.5h-2q-8 -113 -76 -113q-27 0 -43 18.5
t-16 53.5q0 42 22 70t60 34l-18 111h-38l-6 48h37q-9 76 -9 110q0 87 34 134.5t98 47.5q51 0 84.5 -32.5t44.5 -88.5zM74 38q25 0 26 85q-42 -8 -42 -59q0 -26 16 -26z" />
    <glyph glyph-name="currency.osf" horiz-adv-x="308" 
d="M53 313q0 33 15 57l-37 41l29 33l38 -41q25 17 55 17t55 -17l40 43l30 -32l-39 -43q16 -27 16 -58q0 -33 -16 -60l38 -41l-30 -32l-39 41q-25 -17 -55 -17q-28 0 -54 16l-39 -43l-30 33l39 43q-16 27 -16 60zM98 312q0 -26 16 -43t40 -17t40 17t16 43t-16 43t-40 17
t-40 -17t-16 -43z" />
    <glyph glyph-name="yen.osf" horiz-adv-x="374" 
d="M320 141h-97v-141h-71v141h-97v49h97v41h-97v48h83l-136 328h77l109 -298h2l105 298h79l-138 -328h84v-48h-97v-41h97v-49z" />
    <glyph glyph-name="logicalnot.osf" horiz-adv-x="374" 
d="M278 128v133h-236v59h291v-192h-55z" />
    <glyph glyph-name="plusminus.osf" horiz-adv-x="374" 
d="M158 126v154h-116v58h116v157h56v-157h119v-58h-119v-154h-56zM333 31h-291v60h291v-60z" />
    <glyph glyph-name="multiply.osf" horiz-adv-x="374" 
d="M280 141l-101 109l-100 -109l-39 42l100 109l-100 109l39 43l100 -110l101 110l39 -43l-101 -109l101 -109z" />
    <glyph glyph-name="divide.osf" horiz-adv-x="374" 
d="M333 261h-291v59h291v-59zM139 448q0 21 13.5 35.5t32.5 14.5q20 0 33.5 -14.5t13.5 -35.5q0 -20 -14 -34.5t-33 -14.5t-32.5 14.5t-13.5 34.5zM139 138q0 20 13.5 35t32.5 15t33 -15t14 -35q0 -21 -13.5 -35t-33.5 -14q-19 0 -32.5 14t-13.5 35z" />
    <glyph glyph-name="franc.osf" horiz-adv-x="374" 
d="M16 90v51h49v466h272v-65h-200v-203h173v-61h-173v-137h75v-51h-75v-90h-72v90h-49z" />
    <glyph glyph-name="lira.osf" horiz-adv-x="374" 
d="M321 496l-53 -17q-16 75 -72 75q-35 0 -51.5 -29t-16.5 -92q0 -37 4 -74h159l-6 -41h-149l3 -32h141l-6 -39h-130q6 -71 7 -88q21 -10 40.5 -36.5l34.5 -46.5t31 -20q19 0 30 21t16 74l52 -12q-7 -81 -30 -115t-62 -34q-29 0 -49 17.5t-40 53t-25 42.5h-2
q-8 -113 -76 -113q-27 0 -43 18.5t-16 53.5q0 42 22 70t60 34l-13 81h-38l-6 39h38l-5 32h-39l-6 41h40q-5 48 -5 76q0 87 34 134.5t98 47.5q51 0 84.5 -32.5t44.5 -88.5zM74 38q25 0 26 85q-42 -8 -42 -59q0 -26 16 -26z" />
    <glyph glyph-name="peseta.osf" horiz-adv-x="374" 
d="M10 401v47h41v159h143q125 0 133 -159h35v-47h-35q-5 -77 -38 -118.5t-92 -41.5h-76v-241h-70v401h-41zM193 298q31 0 46.5 24.5t17.5 80.5h-136v-105h72zM121 545v-100h136q-2 54 -17.5 77t-46.5 23h-72z" />
    <glyph glyph-name="Euro.osf" horiz-adv-x="374" 
d="M339 492l-58 -18q-20 81 -84 81q-80 0 -80 -121v-56h142l-7 -43h-135v-40h128l-8 -42h-120v-84q0 -63 19.5 -91t60.5 -28q34 0 54.5 20t30.5 65l58 -17q-29 -128 -145 -128q-149 0 -149 183v80h-29v42h29v40h-29v43h29v54q0 84 37.5 134t111.5 50q54 0 92 -32.5t52 -91.5
z" />
    <glyph glyph-name="uni20B4.osf" horiz-adv-x="377" 
d="M37 334v46h195q35 42 35 90q0 42 -16 63.5t-56 21.5q-69 0 -96 -79l-54 20q40 118 155 118q66 0 99.5 -38t33.5 -101q0 -51 -32 -95h43v-46h-85q-11 -10 -33.5 -29t-25.5 -21h143v-47h-189q-35 -47 -35 -101q0 -42 21.5 -64.5t59.5 -22.5q70 0 97 89l50 -19
q-34 -129 -152 -129q-71 0 -106 38.5t-35 102.5q0 58 33 106h-51v47h92l30 26l28 24h-149z" />
    <glyph glyph-name="minus.osf" horiz-adv-x="374" 
d="M333 261h-291v59h291v-59z" />
    <glyph glyph-name="approxequal.osf" horiz-adv-x="374" 
d="M327 390v-59q-39 -22 -74 -22q-27 0 -71 16t-67 16q-32 0 -68 -22v59q37 21 75 21q27 0 72 -16t68 -16q33 0 65 23zM327 260v-58q-39 -22 -75 -22q-26 0 -70 16t-67 16q-34 0 -68 -22v59q37 21 75 21q27 0 72 -16t68 -16q34 0 65 22z" />
    <glyph glyph-name="notequal.osf" horiz-adv-x="374" 
d="M327 197h-153l-47 -106l-39 19l38 87h-79v59h105l31 69h-136v60h162l46 104l39 -20l-37 -84h70v-60h-97l-30 -69h127v-59z" />
    <glyph glyph-name="lessequal.osf" horiz-adv-x="374" 
d="M324 430l-184 -118l185 -117v-77l-283 190v9l282 192v-79zM47 33v55h278v-55h-278z" />
    <glyph glyph-name="greaterequal.osf" horiz-adv-x="374" 
d="M49 195l183 117l-183 118v79l283 -192v-9l-283 -190v77zM327 88v-55h-278v55h278z" />
    <glyph glyph-name="numbersign.tf" 
d="M28 452v53h92l15 220h53l-16 -220h104l15 220h53l-15 -220h71v-53h-73l-12 -177h85v-53h-86l-16 -222h-53l16 222h-103l-17 -222h-52l16 222h-77v53h78l12 177h-90zM171 452l-12 -177h103l12 177h-103z" />
    <glyph glyph-name="dollar.tf" 
d="M201 822h48l1 -92q50 -11 85 -48t50 -93l-54 -20q-22 80 -87 95l-12 -260q38 -23 58.5 -38.5t47.5 -43t39.5 -62t12.5 -78.5q0 -83 -44 -133.5t-118 -57.5l-9 -88h-48l-2 91q-55 10 -92.5 50.5t-51.5 108.5l57 22q22 -95 93 -112l13 278q-38 23 -58 37.5t-47 41t-39 60
t-12 76.5q0 76 43 124.5t116 53.5zM324 173q0 48 -24.5 80.5t-69.5 62.5h-2l-2 -257q47 5 72.5 34t25.5 80zM100 563q0 -43 23 -73.5t66 -59.5h2l2 237q-93 -8 -93 -104z" />
    <glyph glyph-name="plus.tf" 
d="M184 104v178h-119v59h119v178h55v-178h122v-59h-122v-178h-55z" />
    <glyph glyph-name="zero.tf" 
d="M387 524v-325q0 -100 -44.5 -154.5t-129.5 -54.5t-129.5 54.5t-44.5 154.5v325q0 100 44.5 155.5t129.5 55.5t129.5 -55.5t44.5 -155.5zM112 524v-325q0 -73 25 -107t76 -34t76 34t25 107v325q0 142 -101 142t-101 -142z" />
    <glyph glyph-name="one.tf" 
d="M123 0v51h102v500h-133v57h70q45 0 61.5 21.5t20.5 98.5h57v-677h92v-51h-270z" />
    <glyph glyph-name="two.tf" 
d="M221 735q80 0 120.5 -47t40.5 -127q0 -64 -24 -120t-59.5 -98.5l-72 -83t-65 -90t-34.5 -102.5h261v-67h-334l-2 42q2 64 29 123.5t64 106l74 90.5t63 95t26 102q0 108 -91 108q-40 0 -68 -31t-38 -90l-59 17q13 77 56.5 124.5t112.5 47.5z" />
    <glyph glyph-name="three.tf" 
d="M161 345v63h38q51 0 76.5 30.5t25.5 101.5q0 69 -22 98t-66 29q-81 0 -105 -111l-59 17q17 77 60.5 119.5t108.5 42.5q79 0 118.5 -49t39.5 -138q0 -134 -84 -167v-2q95 -25 95 -167q0 -222 -172 -222q-135 0 -169 145l56 19q26 -98 110 -98q53 0 76 38t23 121
q0 75 -27.5 102.5t-81.5 27.5h-41z" />
    <glyph glyph-name="four.tf" 
d="M345 0h-68v138h-260v51l256 536h72v-523h75l-7 -64h-68v-138zM95 202h182l5 417h-2z" />
    <glyph glyph-name="five.tf" 
d="M102 343l-50 23l25 359h289l-5 -70h-225l-16 -234h2q50 33 107 33q80 0 119.5 -53.5t39.5 -169.5q0 -241 -179 -241q-62 0 -105.5 37t-58.5 109l58 19q24 -99 103 -99q56 0 81.5 41t25.5 134q0 86 -26 121t-83 35q-66 0 -102 -44z" />
    <glyph glyph-name="six.tf" 
d="M220 735q122 0 154 -147l-55 -21q-23 100 -96 100q-105 0 -105 -159v-102h2q39 45 112 45q81 0 118 -52.5t37 -161.5q0 -247 -172 -247q-80 0 -125 54.5t-45 159.5v298q0 107 46.5 170t128.5 63zM218 385q-40 0 -70 -21t-30 -55v-111q0 -72 27 -106t71 -34q50 0 74.5 42
t24.5 136q0 77 -23.5 113t-73.5 36z" />
    <glyph glyph-name="seven.tf" 
d="M176 0h-81l228 656h-298v69h376v-59z" />
    <glyph glyph-name="eight.tf" 
d="M213 -10q-91 0 -134 49.5t-43 171.5q0 142 85 173v2q-74 34 -74 162q0 92 39.5 139.5t126.5 47.5t126.5 -47.5t39.5 -139.5q0 -128 -74 -162v-2q85 -31 85 -173q0 -122 -43 -171.5t-134 -49.5zM317 214q0 76 -26.5 106t-77.5 30t-77.5 -30t-26.5 -106q0 -90 24 -124
t80 -34q55 0 79.5 33.5t24.5 124.5zM213 670q-51 0 -73.5 -28t-22.5 -100t22.5 -101t73.5 -29t73.5 29t22.5 101t-22.5 100t-73.5 28z" />
    <glyph glyph-name="nine.tf" 
d="M100 151q16 -50 41 -71.5t66 -21.5q48 0 74.5 31.5t26.5 94.5v161h-2q-39 -44 -108 -44q-158 0 -158 212q0 222 177 222q78 0 121.5 -52.5t43.5 -144.5v-351q0 -91 -47 -143.5t-125 -52.5q-130 0 -163 136zM210 365q37 0 67.5 21.5t30.5 54.5v100q0 126 -93 126
q-51 0 -76.5 -36.5t-25.5 -115.5q0 -83 24.5 -116.5t72.5 -33.5z" />
    <glyph glyph-name="less.tf" 
d="M340 450l-179 -136l180 -135v-81l-272 211v10l271 211v-80z" />
    <glyph glyph-name="equal.tf" 
d="M355 339h-284v59h284v-59zM355 210h-284v60h284v-60z" />
    <glyph glyph-name="greater.tf" 
d="M85 179l179 135l-178 136v80l271 -211v-10l-272 -211v81z" />
    <glyph glyph-name="cent.tf" 
d="M45 518q0 94 41.5 151t114.5 64l10 85h46l1 -87q51 -10 85.5 -49t45.5 -97l-60 -20q-20 97 -100 97q-52 0 -78.5 -37.5t-26.5 -106.5v-318q0 -65 27 -103t77 -38q44 0 67.5 24t34.5 83l61 -18q-13 -76 -48.5 -113.5t-95.5 -42.5l-10 -87h-46l-2 88q-68 11 -106 66.5
t-38 139.5v319z" />
    <glyph glyph-name="sterling.tf" 
d="M44 331l-8 57h49q-10 88 -10 134q0 104 39.5 159t113.5 55q59 0 98.5 -37t50.5 -105l-58 -18q-11 50 -33 70t-56 20q-86 0 -86 -150q0 -46 8 -128h176l-7 -57h-163l12 -138q27 -10 51 -42.5l44 -58.5t41 -26q23 0 36 25t20 89l53 -12q-9 -96 -35 -137t-70 -41
q-35 0 -60 25t-47 65.5t-33 52.5h-2q-8 -143 -87 -143q-32 0 -49.5 22t-17.5 63q0 50 25.5 82.5t69.5 39.5l-17 134h-48zM85 46q16 0 23.5 22.5t8.5 81.5q-51 -8 -51 -72q0 -32 19 -32z" />
    <glyph glyph-name="currency.tf" 
d="M112 380q0 32 15 58l-37 41l30 32l38 -40q23 17 54 17q30 0 56 -18l40 44l29 -33l-39 -43q16 -27 16 -58q0 -32 -16 -59l38 -41l-29 -33l-40 42q-25 -17 -55 -17q-28 0 -54 16l-39 -43l-30 32l39 43q-16 27 -16 60zM158 380q0 -26 16 -43.5t39 -17.5t39.5 17.5t16.5 43.5
t-16 43t-40 17q-23 0 -39 -17t-16 -43z" />
    <glyph glyph-name="yen.tf" 
d="M356 168h-105v-168h-76v168h-112v56h112v48h-112v56h97l-153 397h83l123 -362h2l122 362h82l-154 -397h91v-56h-105v-48h105v-56z" />
    <glyph glyph-name="logicalnot.tf" 
d="M305 149v133h-240v59h295v-192h-55z" />
    <glyph glyph-name="plusminus.tf" 
d="M184 141v157h-119v60h119v161h55v-161h122v-60h-122v-157h-55zM361 46h-296v59h296v-59z" />
    <glyph glyph-name="multiply.tf" 
d="M313 161l-101 109l-100 -109l-39 42l100 109l-100 109l39 42l100 -109l101 109l39 -42l-101 -109l101 -109z" />
    <glyph glyph-name="divide.tf" 
d="M361 282h-296v59h296v-59zM165 469q0 21 13.5 35.5t32.5 14.5t32.5 -14.5t13.5 -35.5q0 -20 -13.5 -34.5t-32.5 -14.5t-32.5 14.5t-13.5 34.5zM165 158q0 20 13.5 35t32.5 15t32.5 -15t13.5 -35t-13.5 -34.5t-32.5 -14.5t-32.5 14.5t-13.5 34.5z" />
    <glyph glyph-name="uni2007.tf" 
 />
    <glyph glyph-name="franc.tf" 
d="M13 109v57h60v559h317v-74h-236v-246h204v-69h-204v-170h87v-57h-87v-109h-81v109h-60z" />
    <glyph glyph-name="lira.tf" 
d="M40 364l-7 46h50q-8 70 -8 112q0 104 39.5 159t113.5 55q59 0 98.5 -37t50.5 -105l-58 -18q-11 50 -33 70t-56 20q-86 0 -86 -150q0 -40 6 -106h189l-7 -46h-177l3 -34h167l-6 -43h-157l4 -46.5t4 -47.5q27 -10 51 -42.5l44 -58.5t41 -26q23 0 36 25t20 89l53 -12
q-9 -96 -35 -137t-70 -41q-35 0 -60 25t-47 65.5t-33 52.5h-2q-8 -143 -87 -143q-32 0 -49.5 22t-17.5 63q0 50 25.5 82.5t69.5 39.5l-11 90h-45l-7 43h46q-2 22 -4 34h-48zM85 46q16 0 23.5 22.5t8.5 81.5q-51 -8 -51 -72q0 -32 19 -32z" />
    <glyph glyph-name="peseta.tf" 
d="M9 483v48h48v194h162q145 0 153 -194h46v-48h-46q-5 -92 -43 -141t-107 -49h-90v-293h-75v483h-48zM132 656v-126h165q-2 68 -21 97t-58 29h-86zM218 358q38 0 57.5 30t21.5 96h-165v-126h86z" />
    <glyph glyph-name="Euro.tf" 
d="M242 735q64 0 108 -41.5t57 -108.5l-60 -20q-22 97 -100 97q-52 0 -78.5 -37.5t-26.5 -106.5v-68h188l-9 -48h-179v-48h170l-9 -48h-161v-106q0 -65 27 -103t77 -38q44 0 67.5 24t34.5 83l60 -18q-13 -83 -54.5 -120.5t-112.5 -37.5q-82 0 -130 57.5t-48 151.5v107h-56
v48h56v48h-56v48h56v68q0 101 47.5 159t131.5 58z" />
    <glyph glyph-name="uni20B4.tf" 
d="M39 403v50h229q45 52 45 113q0 53 -20 80t-70 27q-85 0 -119 -97l-55 21q47 138 179 138q75 0 113 -44.5t38 -119.5q0 -63 -41 -118h54v-50h-100q-13 -13 -40 -35.5l-33 -27.5h173v-50h-222q-46 -60 -46 -127q0 -55 27 -83t75 -28q86 0 120 109l51 -20
q-41 -151 -176 -151q-82 0 -122.5 45.5t-40.5 121.5q0 73 43 133h-63v50h108q10 10 22 20.5l27 23l23 19.5h-179z" />
    <glyph glyph-name="minus.tf" 
d="M360 282h-295v59h295v-59z" />
    <glyph glyph-name="approxequal.tf" 
d="M355 406v-58q-38 -22 -76 -22q-27 0 -72 15.5t-68 15.5q-34 0 -68 -22v59q39 22 76 22q27 0 73 -16t69 -16q35 0 66 22zM355 277v-59q-39 -22 -75 -22q-27 0 -72 16t-69 16q-34 0 -68 -22v59q37 21 75 21q28 0 74 -16t69 -16q34 0 66 23z" />
    <glyph glyph-name="notequal.tf" 
d="M317 483l-38 -85h76v-59h-102l-30 -69h132v-60h-159l-46 -105l-39 19l38 86h-78v60h104l31 69h-135v59h161l46 104z" />
    <glyph glyph-name="lessequal.tf" 
d="M340 449l-174 -122l175 -121v-78l-272 195v9l271 198v-81zM73 41v57h268v-57h-268z" />
    <glyph glyph-name="greaterequal.tf" 
d="M85 206l175 121l-174 122v81l271 -198v-9l-272 -195v78zM353 98v-57h-268v57h268z" />
    <glyph glyph-name="numbersign.tosf" horiz-adv-x="390" 
d="M30 375v52h76l13 181h53l-13 -181h85l13 181h53l-13 -181h59v-52h-60l-10 -141h70v-51h-71l-14 -183h-53l14 183h-85l-14 -183h-53l14 183h-64v51h65l9 141h-74zM157 375l-8 -141h84l9 141h-85z" />
    <glyph glyph-name="dollar.tosf" horiz-adv-x="390" 
d="M45 465q0 61 32.5 101t90.5 47l14 117h46l2 -119q84 -21 108 -120l-53 -17q-22 79 -90 79q-76 0 -76 -83q0 -36 23 -65t55.5 -51.5l65 -47t55.5 -63.5t23 -89q0 -65 -31.5 -107.5t-85.5 -52.5l-11 -121h-46l-3 120q-49 6 -79.5 38t-43.5 96l55 17q21 -94 95 -94
q39 0 60 24.5t21 69.5q0 33 -17 60.5t-42 45.5l-54.5 39.5t-54.5 42.5t-42 55.5t-17 77.5z" />
    <glyph glyph-name="plus.tosf" horiz-adv-x="390" 
d="M166 86v175h-116v59h116v175h56v-175h119v-59h-119v-175h-56z" />
    <glyph glyph-name="zero.tosf" horiz-adv-x="390" 
d="M355 404v-232q0 -87 -41.5 -134t-119.5 -47t-118.5 47.5t-40.5 135.5v227q0 89 40.5 137.5t118.5 48.5t119.5 -47.5t41.5 -135.5zM105 401v-230q0 -120 89 -120q46 0 67.5 28.5t21.5 90.5v235q0 63 -21.5 92t-67.5 29q-89 0 -89 -125z" />
    <glyph glyph-name="one.tosf" horiz-adv-x="390" 
d="M188 418h-117v55h54q46 0 62 22.5t20 95.5h56v-540h91v-51h-270v51h104v367z" />
    <glyph glyph-name="two.tosf" horiz-adv-x="390" 
d="M201 589q71 0 106 -37.5t35 -103.5q0 -125 -211 -383v-2h218v-63h-309l-2 47q105 119 169 225.5t64 172.5q0 81 -76 81q-66 0 -102 -80l-53 22q51 121 161 121z" />
    <glyph glyph-name="three.tosf" horiz-adv-x="390" 
d="M333 443q0 -120 -71 -147v-2q47 -10 67.5 -43t20.5 -96q0 -241 -288 -241l-7 63q121 0 172 44t51 135q0 62 -25.5 84t-89.5 22h-21v59h19q55 0 78 26t23 91q0 46 -16.5 66.5t-55.5 20.5q-67 0 -104 -80l-53 22q51 122 163 122q69 0 103 -39t34 -107z" />
    <glyph glyph-name="four.tosf" horiz-adv-x="390" 
d="M306 -84h-68v232h-225v53l222 380h71v-374h71l-6 -59h-65v-232zM88 207h150l8 287h-2z" />
    <glyph glyph-name="five.tosf" horiz-adv-x="390" 
d="M324 514h-202l-12 -193q42 21 88 21q74 0 111.5 -40t37.5 -131q0 -121 -74 -189t-208 -68l-6 62q217 0 217 189q0 66 -23.5 91t-75.5 25q-53 0 -87 -28l-47 22l21 306h265z" />
    <glyph glyph-name="six.tosf" horiz-adv-x="390" 
d="M309 616q-81 0 -131 -62t-60 -187h2q36 33 89 33q144 0 144 -191q0 -218 -157 -218q-76 0 -113 54.5t-37 153.5v109q0 176 69.5 273t189.5 97zM200 335q-51 0 -83 -38v-96q0 -146 82 -146q41 0 62.5 34.5t21.5 116.5q0 71 -20 100t-63 29z" />
    <glyph glyph-name="seven.tosf" horiz-adv-x="390" 
d="M161 -80h-76l200 594h-250v67h323v-57z" />
    <glyph glyph-name="eight.tosf" horiz-adv-x="390" 
d="M195 -9q-78 0 -117 41t-39 134q0 111 77 137v2q-67 30 -67 134q0 150 146 150t146 -149q0 -104 -67 -135v-2q77 -26 77 -137q0 -93 -39 -134t-117 -41zM280 171q0 56 -21.5 79t-63.5 23t-63 -23t-21 -79q0 -65 19.5 -92t64.5 -27t65 27.5t20 91.5zM195 528
q-41 0 -59.5 -22.5t-18.5 -75.5q0 -54 18.5 -78t59.5 -24t59.5 24t18.5 78q0 53 -18.5 75.5t-59.5 22.5z" />
    <glyph glyph-name="nine.tosf" horiz-adv-x="390" 
d="M75 -23q188 0 198 270h-2q-36 -30 -89 -30q-146 0 -146 179q0 192 158 192q74 0 111.5 -54.5t37.5 -151.5v-105q0 -177 -69.5 -270t-192.5 -93zM191 278q48 0 82 40v63q0 75 -19.5 109.5t-62.5 34.5q-85 0 -85 -126q0 -65 21 -93t64 -28z" />
    <glyph glyph-name="less.tosf" horiz-adv-x="390" 
d="M332 426l-189 -136l190 -137v-79l-283 211v9l282 212v-80z" />
    <glyph glyph-name="equal.tosf" horiz-adv-x="390" 
d="M335 325h-280v60h280v-60zM335 197h-280v59h280v-59z" />
    <glyph glyph-name="greater.tosf" horiz-adv-x="390" 
d="M57 506l284 -211v-9l-283 -212v79l190 137l-191 137v79z" />
    <glyph glyph-name="cent.tosf" horiz-adv-x="390" 
d="M343 493l-57 -20q-22 82 -89 82q-85 0 -85 -125v-259q0 -122 86 -122q68 0 89 87l57 -18q-27 -111 -119 -126l-12 -119h-45l-3 119q-124 16 -124 183v253q0 79 32 128.5t97 57.5l13 116h46l2 -118q84 -20 112 -119z" />
    <glyph glyph-name="sterling.tosf" horiz-adv-x="390" 
d="M329 496l-53 -17q-16 75 -72 75q-35 0 -51.5 -29t-16.5 -92q0 -36 7 -108h143l-5 -48h-133q10 -93 11 -118q21 -10 40.5 -36.5l34.5 -46.5t31 -20q19 0 30 21t16 74l52 -12q-7 -81 -30 -115t-62 -34q-29 0 -49 17.5t-40 53t-25 42.5h-2q-8 -113 -76 -113q-27 0 -43 18.5
t-16 53.5q0 42 22 70t60 34l-18 111h-38l-6 48h37q-9 76 -9 110q0 87 34 134.5t98 47.5q51 0 84.5 -32.5t44.5 -88.5zM82 38q25 0 26 85q-42 -8 -42 -59q0 -26 16 -26z" />
    <glyph glyph-name="currency.tosf" horiz-adv-x="390" 
d="M93 313q0 33 15 58l-37 40l30 33l38 -41q27 17 55 17q30 0 55 -17l40 43l30 -32l-40 -44q16 -26 16 -57q0 -32 -16 -59l39 -42l-30 -32l-39 41q-25 -17 -55 -17q-29 0 -55 16l-39 -43l-30 33l39 43q-16 25 -16 60zM139 312q0 -26 16 -43t40 -17t40 17t16 43t-16 43
t-40 17t-40 -17t-16 -43z" />
    <glyph glyph-name="yen.tosf" horiz-adv-x="390" 
d="M328 141h-97v-141h-71v141h-97v49h97v41h-97v48h83l-136 329h77l109 -299h2l105 299h79l-138 -329h84v-48h-97v-41h97v-49z" />
    <glyph glyph-name="logicalnot.tosf" horiz-adv-x="390" 
d="M286 128v133h-236v59h291v-192h-55z" />
    <glyph glyph-name="plusminus.tosf" horiz-adv-x="390" 
d="M166 126v154h-116v58h116v157h56v-157h119v-58h-119v-154h-56zM341 31h-291v60h291v-60z" />
    <glyph glyph-name="multiply.tosf" horiz-adv-x="390" 
d="M288 141l-101 109l-100 -109l-39 42l100 109l-100 109l39 43l100 -110l101 110l39 -43l-101 -109l101 -109z" />
    <glyph glyph-name="divide.tosf" horiz-adv-x="390" 
d="M341 261h-291v59h291v-59zM147 448q0 21 13.5 35.5t32.5 14.5q20 0 33.5 -14.5t13.5 -35.5q0 -20 -14 -34.5t-33 -14.5t-32.5 14.5t-13.5 34.5zM147 138q0 20 13.5 35t32.5 15t33 -15t14 -35q0 -21 -13.5 -35t-33.5 -14q-19 0 -32.5 14t-13.5 35z" />
    <glyph glyph-name="uni2007.tosf" horiz-adv-x="390" 
 />
    <glyph glyph-name="franc.tosf" horiz-adv-x="390" 
d="M24 90v51h49v466h272v-66h-200v-202h173v-61h-173v-137h75v-51h-75v-90h-72v90h-49z" />
    <glyph glyph-name="lira.tosf" horiz-adv-x="390" 
d="M329 496l-53 -17q-16 75 -72 75q-35 0 -51.5 -29t-16.5 -92q0 -37 4 -74h159l-6 -41h-149l3 -32h141l-6 -39h-130q6 -71 7 -88q21 -10 40.5 -36.5l34.5 -46.5t31 -20q19 0 30 21t16 74l52 -12q-7 -81 -30 -115t-62 -34q-29 0 -49 17.5t-40 53t-25 42.5h-2
q-8 -113 -76 -113q-27 0 -43 18.5t-16 53.5q0 42 22 70t60 34l-13 81h-38l-6 39h38l-5 32h-39l-6 41h40q-5 48 -5 76q0 87 34 134.5t98 47.5q51 0 84.5 -32.5t44.5 -88.5zM82 38q25 0 26 85q-42 -8 -42 -59q0 -26 16 -26z" />
    <glyph glyph-name="peseta.tosf" horiz-adv-x="390" 
d="M18 401v47h41v159h143q125 0 133 -159h35v-47h-35q-5 -77 -38 -118.5t-92 -41.5h-76v-241h-70v401h-41zM201 298q31 0 46.5 24.5t17.5 80.5h-136v-105h72zM129 545v-100h136q-2 54 -17.5 77t-46.5 23h-72z" />
    <glyph glyph-name="Euro.tosf" horiz-adv-x="390" 
d="M347 492l-58 -18q-20 81 -84 81q-80 0 -80 -121v-56h142l-7 -43h-135v-40h128l-8 -42h-120v-84q0 -63 19.5 -91t60.5 -28q34 0 54.5 20t30.5 65l58 -17q-29 -128 -145 -128q-149 0 -149 183v80h-29v42h29v40h-29v43h29v54q0 84 37.5 134t111.5 50q54 0 92 -32.5t52 -91.5
z" />
    <glyph glyph-name="uni20B4.tosf" horiz-adv-x="390" 
d="M41 334v46h203q35 42 35 90q0 42 -16.5 64t-58.5 22q-73 0 -102 -80l-53 19q42 119 160 119q66 0 100 -38.5t34 -101.5q0 -52 -32 -94h44v-46h-88q-11 -10 -32.5 -27.5t-29.5 -23.5h149v-47h-197q-35 -45 -35 -100q0 -42 22.5 -65t62.5 -23q73 0 102 89l49 -18
q-37 -129 -156 -129q-72 0 -108 38.5t-36 102.5q0 57 33 105h-51v47h95l33.5 28l27.5 23h-155z" />
    <glyph glyph-name="minus.tosf" horiz-adv-x="390" 
d="M341 261h-291v59h291v-59z" />
    <glyph glyph-name="approxequal.tosf" horiz-adv-x="390" 
d="M335 390v-59q-39 -22 -74 -22q-27 0 -71 16t-67 16q-32 0 -68 -22v59q37 21 75 21q27 0 72 -16t68 -16q33 0 65 23zM335 260v-58q-39 -22 -75 -22q-26 0 -70 16t-67 16q-34 0 -68 -22v59q37 21 75 21q27 0 72 -16t68 -16q34 0 65 22z" />
    <glyph glyph-name="notequal.tosf" horiz-adv-x="390" 
d="M335 197h-153l-47 -106l-39 19l38 87h-79v59h105l31 69h-136v60h162l46 104l39 -20l-37 -84h70v-60h-97l-30 -69h127v-59z" />
    <glyph glyph-name="lessequal.tosf" horiz-adv-x="390" 
d="M332 430l-184 -118l185 -117v-77l-283 190v9l282 192v-79zM55 33v55h278v-55h-278z" />
    <glyph glyph-name="greaterequal.tosf" horiz-adv-x="390" 
d="M57 195l183 117l-183 118v79l283 -192v-9l-283 -190v77zM335 88v-55h-278v55h278z" />
    <glyph glyph-name="exclam.sc" horiz-adv-x="164" 
d="M47 581h68v-254l-8 -160h-52l-8 160v254zM39 0v91h85v-91h-85z" />
    <glyph glyph-name="ampersand.sc" 
d="M319 485l-52 -24q-25 71 -75 71q-53 0 -53 -63q0 -39 20 -72l126 -206q16 70 16 151v11h106v-53h-54q-5 -100 -30 -170q42 -60 101 -76l-11 -60q-69 11 -121 72q-49 -74 -131 -74q-62 0 -100 41t-38 126q0 123 91 190v1q-40 59 -40 118q0 52 30.5 86t86.5 34
q93 0 128 -103zM169 49q54 0 89 68l-113 183q-53 -52 -53 -139q0 -112 77 -112z" />
    <glyph glyph-name="question.sc" horiz-adv-x="337" 
d="M309 450q0 -62 -31.5 -114.5t-87.5 -84.5l-5 -86h-52l-5 119q112 61 112 161q0 82 -73 82q-72 0 -97 -86l-56 16q16 59 56.5 95t99.5 36q70 0 104.5 -39t34.5 -99zM117 0v91h85v-91h-85z" />
    <glyph glyph-name="grave.sc" horiz-adv-x="210" 
d="M18 728h77l43 -106h-53z" />
    <glyph glyph-name="a.sc" horiz-adv-x="406" 
d="M117 149l-35 -149h-74l154 581h82l153 -581h-74l-36 149h-170zM201 506l-70 -300h143l-71 300h-2z" />
    <glyph glyph-name="b.sc" horiz-adv-x="391" 
d="M340 435q0 -54 -16.5 -85t-54.5 -44v-2q94 -22 94 -138q0 -84 -35.5 -125t-115.5 -41h-160v581h141q74 0 110.5 -38.5t36.5 -107.5zM123 273v-212h86q43 0 62 24t19 85q0 55 -19.5 79t-61.5 24h-86zM123 518v-190h72q43 0 61 23.5t18 75.5q0 49 -18.5 70t-59.5 21h-73z
" />
    <glyph glyph-name="c.sc" horiz-adv-x="357" 
d="M192 589q54 0 92.5 -33.5t50.5 -88.5l-54 -19q-19 78 -83 78q-88 0 -88 -117v-242q0 -53 22.5 -83.5t64.5 -30.5q36 0 55.5 19t28.5 66l55 -18q-13 -67 -48.5 -98t-96.5 -31q-71 0 -112 48t-41 127v243q0 84 41 132t113 48z" />
    <glyph glyph-name="d.sc" horiz-adv-x="419" 
d="M381 407v-233q0 -82 -43 -128t-121 -46h-165v581h165q78 0 121 -46t43 -128zM309 175v229q0 114 -92 114h-92v-456h92q92 0 92 113z" />
    <glyph glyph-name="e.sc" horiz-adv-x="354" 
d="M52 581h273v-64h-200v-188h157v-57h-157v-209h208v-63h-281v581z" />
    <glyph glyph-name="f.sc" horiz-adv-x="347" 
d="M52 581h272v-65h-199v-193h172v-60h-172v-263h-73v581z" />
    <glyph glyph-name="g.sc" horiz-adv-x="401" 
d="M207 589q58 0 99 -33.5t53 -90.5l-54 -20q-26 77 -96 77q-99 0 -99 -126v-222q0 -117 95 -117q62 0 92 53v123h-67v51h131v-284h-59v44h-2q-38 -52 -109 -52q-72 0 -112.5 47t-40.5 135v222q0 88 42.5 140.5t126.5 52.5z" />
    <glyph glyph-name="h.sc" horiz-adv-x="421" 
d="M52 581h73v-250h172v250h73v-581h-73v266h-172v-266h-73v581z" />
    <glyph glyph-name="i.sc" horiz-adv-x="201" 
d="M64 581h73v-581h-73v581z" />
    <glyph glyph-name="j.sc" horiz-adv-x="192" 
d="M68 581h72v-493q0 -194 -177 -196l-6 58q57 0 84 32.5t27 104.5v494z" />
    <glyph glyph-name="k.sc" horiz-adv-x="398" 
d="M389 0h-81l-135 268l-49 -73v-195h-72v581h72v-302h2l169 302h83l-157 -259z" />
    <glyph glyph-name="l.sc" horiz-adv-x="326" 
d="M52 581h71v-516h188v-65h-259v581z" />
    <glyph glyph-name="m.sc" horiz-adv-x="535" 
d="M417 581h66v-581h-66v412h-2l-131 -307h-33l-131 311h-2v-416h-66v581h67l147 -368h2z" />
    <glyph glyph-name="n.sc" horiz-adv-x="421" 
d="M52 581h56l196 -409h2v409h64v-581h-52l-200 420h-2v-420h-64v581z" />
    <glyph glyph-name="o.sc" horiz-adv-x="403" 
d="M366 410v-240q0 -84 -42.5 -131.5t-121.5 -47.5q-80 0 -122 47t-42 132v240q0 85 41.5 132t122.5 47q79 0 121.5 -47t42.5 -132zM294 170v240q0 115 -92 115t-92 -115v-240q0 -116 92 -116t92 116z" />
    <glyph glyph-name="p.sc" horiz-adv-x="378" 
d="M212 581q70 0 107 -45.5t37 -130.5q0 -84 -36 -130t-104 -46h-91v-229h-73v581h160zM125 518v-230h85q39 0 56 27.5t17 88.5t-17 87.5t-56 26.5h-85z" />
    <glyph glyph-name="q.sc" horiz-adv-x="403" 
d="M366 410v-240q0 -69 -29 -113.5t-83 -58.5l76 -95l-63 -25l-76 113q-75 4 -114 50.5t-39 128.5v240q0 85 41.5 132t122.5 47q79 0 121.5 -47t42.5 -132zM294 170v240q0 115 -92 115t-92 -115v-240q0 -116 92 -116t92 116z" />
    <glyph glyph-name="r.sc" horiz-adv-x="387" 
d="M297 0l-108 253h-64v-253h-73v581h151q143 0 143 -159q0 -132 -90 -155l120 -267h-79zM125 518v-207h73q42 0 60 25.5t18 81.5q0 55 -17.5 77.5t-58.5 22.5h-75z" />
    <glyph glyph-name="s.sc" horiz-adv-x="340" 
d="M172 -10q-56 0 -96.5 34t-52.5 96l60 19q20 -89 90 -89q76 0 76 89q0 38 -23 67.5t-55.5 50.5t-64.5 44t-55 60.5t-23 86.5q0 63 38 102.5t103 39.5q112 0 145 -117l-56 -21q-18 77 -85 77q-72 0 -72 -78q0 -36 22.5 -64t54.5 -49t64 -44.5t54.5 -60.5t22.5 -86
q0 -75 -39 -116t-108 -41z" />
    <glyph glyph-name="t.sc" horiz-adv-x="326" 
d="M9 581h308v-66h-118v-515h-72v515h-118v66z" />
    <glyph glyph-name="u.sc" horiz-adv-x="420" 
d="M302 581h72v-416q0 -83 -42.5 -128.5t-120.5 -45.5q-79 0 -122 45t-43 127v418h73v-418q0 -107 92 -107q91 0 91 107v418z" />
    </font>
</defs>
</svg>
