<svg id="Layer_1" data-name="Layer 1" xmlns="http://www.w3.org/2000/svg" viewBox="0 0 400 50"><defs><style>.cls-1{fill:#fff;}</style></defs><title>logo</title><path class="cls-1" d="M31.1,0.6h9.4L34.6,29.5H23.1l-3-14.4L16.7,29.5H5.7L0,0.6H10.6l2.3,16.1L16.7,0.6H25l3.6,16.1ZM71.4,15.1A15.05,15.05,0,1,1,56.4,0,15,15,0,0,1,71.4,15.1Zm-9.4,0a5.65,5.65,0,1,0-5.6,5.6A5.61,5.61,0,0,0,62,15.1ZM95,19l4.8,10.5h-12l-3.3-9.3v9.3H74.7V0.6h15a10,10,0,0,1,10,10A9.7,9.7,0,0,1,95,19Zm-4.6-7.5A2.42,2.42,0,0,0,88,9.2H84.5v4.7H88A2.58,2.58,0,0,0,90.4,11.5ZM129.2,0.6H118.4l-5.6,12.1V0.6H103V29.5h9.8V16.6l5.8,12.9H130l-7.9-15.2Zm3.6,28.9h9.9V0.6h-9.9V29.5Zm30.9-16.3L155.4,0.6h-9.1V29.5h9.5v-13l8.3,13h9V0.6h-9.4V13.2Zm27.6,0.1V18h4.9a5.72,5.72,0,0,1-4.8,2.7,5.65,5.65,0,1,1,0-11.3,5.49,5.49,0,0,1,3.7,1.4h10.7a15.09,15.09,0,1,0,.6,4.3,10.87,10.87,0,0,0-.1-1.8h-15Zm47.2-2.6h-5.7V0.6h-9.9V29.5h9.9V19.1h5.7V29.5h9.9V0.6h-9.9V10.7ZM294.8,0.6H285V29.5h17.8V20.3h-8V0.6Zm11.3,28.9H316V0.6h-9.9V29.5Zm40.1-14.4a14.43,14.43,0,0,1-14.5,14.4h-12V0.6h12A14.45,14.45,0,0,1,346.2,15.1Zm-9.2,0a5.27,5.27,0,0,0-5.3-5.3h-2.2V20.3h2.2A5.25,5.25,0,0,0,337,15.1ZM367.6,0.6l9.3,28.9H365.5l-1.1-4.6h-7l-1.1,4.6H345.6l9.3-28.9h12.7Zm-4.7,16.7L361,10.2l-1.9,7.1h3.8ZM389.3,0.6l-3.5,7.9-3.3-7.9H371.1l9.5,19.2v9.7h9.8V19.8L400,0.6H389.3ZM281.7,15.1A15.05,15.05,0,1,1,266.7,0,15,15,0,0,1,281.7,15.1ZM275,8a2.85,2.85,0,0,0-2.5.7c-1.1.9-2.7,2.5-2.9,2.6a5,5,0,0,1-2.1-.5,10,10,0,0,0,1-.9,1.89,1.89,0,0,0-.8-1,6.68,6.68,0,0,0-1.6,1.4c-0.1,0-5.9-2.4-6.4-2.3a1,1,0,0,0-1.1.6c0.2,0.1,4.5,2.5,5.3,3.1A10.05,10.05,0,0,1,266,14c0,0.2-4.4,4.4-4.7,4.6s-1.9-.8-2.6-0.8a1.43,1.43,0,0,0-1.2.7c0,0.2,2.5,1.6,2.4,1.8a8,8,0,0,0-.9,1.4,5.85,5.85,0,0,0,1.5-.6c0.3-.1,1.2,2.6,1.4,2.7a1.26,1.26,0,0,0,.8-1.1c0.1-.7-0.6-2.5-0.4-2.7s5.1-3.9,5.3-3.9a9.71,9.71,0,0,1,2,2.5c0.5,0.8,2.2,5.5,2.3,5.7s0.6-.4.8-0.9-1.4-6.5-1.3-6.7a7.62,7.62,0,0,0,1.6-1.4,2,2,0,0,0-.8-1c-0.1.1-.8,0.7-1,0.9A5.34,5.34,0,0,1,271,13c0.1-.1,1.9-1.5,3-2.5A2.82,2.82,0,0,0,275,8ZM125.9,45.4h-4a2.28,2.28,0,0,1-1.9,1,2.33,2.33,0,0,1-2.3-2.3,2.3,2.3,0,0,1,4.2-1.3h4A6,6,0,1,0,120,50a6.1,6.1,0,0,0,5.9-4.8v0.2Zm15.2-1.5a6,6,0,1,0,6-6A6,6,0,0,0,141.1,43.9Zm3.7,0a2.3,2.3,0,1,1,4.6,0,2.33,2.33,0,0,1-2.3,2.3A2.39,2.39,0,0,1,144.8,43.9Zm23.7-5.7V49.7h3.4V43.4l1.6,6.3h3.3l1.6-6.3v6.3h3.5V38.2h-5.2l-1.4,5.9-1.4-5.9h-5.4Zm29,0V49.8h3.9v-2H202a4.8,4.8,0,1,0,0-9.6h-4.5Zm4.5,6h-0.6V41.7H202a1.3,1.3,0,1,1,0,2.6V44.2Zm27.4-6h-5.2l-3.7,11.5h4.3l0.4-1.8H228l0.5,1.8H233ZM226.6,42l0.7,2.8h-1.5Zm21.8,7.7h3.8V44.5l3.3,5.2h3.6V38.2h-3.8v5l-3.3-5h-3.6V49.7Zm30-3.9v3.9h3.9V45.8l3.8-7.7h-4.3l-1.4,3.2L279,38.1h-4.5l3.8,7.7h0.1Z"/></svg>