<?xml version="1.0" encoding="utf-8"?>
<!-- Generator: Adobe Illustrator 19.2.0, SVG Export Plug-In . SVG Version: 6.00 Build 0)  -->
<svg version="1.1" id="Layer_1" xmlns="http://www.w3.org/2000/svg" xmlns:xlink="http://www.w3.org/1999/xlink" x="0px" y="0px"
	 viewBox="0 0 1370.3 28.8" style="enable-background:new 0 0 1370.3 28.8;" xml:space="preserve" preserveAspectRatio="none">
<style type="text/css">
	.st0{fill:#ffffff;}
</style>
<path class="st0" d="M1159.4,0.1c0.9,0,1.8-0.1,2.5-0.1c1.5,0,3,0,4.2,0.1H1159.4z M1179.2,0.1h-13c1.6,0.1,2.8,0.3,2.9,0.4
	C1169.3,0.6,1176.6,0.1,1179.2,0.1z M1324,5.8c-0.1,0-0.4,0-0.8,0c-0.3,0-0.6,0.1-0.7,0.2C1323.3,5.9,1323.8,5.9,1324,5.8z
	 M1370.8,6.1v8.3c-1,0-0.7,0-0.8,0.1c-0.2,0.2-3.1,0.7-5.9,0.7c0,0,0,0-2.6,0c-0.3,0-0.3,0-0.3,0c-0.3-0.1,0.1-0.2,1-0.1
	c0.9,0.1,1.8-0.9,1.8-0.9s0.5,0.1,1.1,0.1s2.2-0.1,2.2-0.2c0-0.1-1.7-0.2-2.3-0.1c-0.6,0-1.6,0.2-2.3,0.3c0,0,0,0-0.5-0.1
	c-6.7-1.1-13.9-0.7-20.9-0.8c-4.9-0.1-9.7-0.3-14.5-0.4c-4.9,0-9.9,0.1-14.9,0c-2-0.1-4.1-0.6-5.8-0.4c-6.9,0.8-9.3,0.7-9.3,0.7
	c-6.3-0.2-16.6-0.3-22.9-0.3h-33.3c-6.3,0-15.6,0.3-20.6,0.7c0,0,0,0-4.7-0.2c-0.5,0-0.5,0-0.5,0c-0.6,0.2-2.1,0.3-3.4,0.1
	s-6.4,0.2-8.4,0.5c0,0,0,0-1.9,0.1c-1.3,0.1-1.3,0.1-1.3,0.1c-1.5-0.1-3.5-0.2-4.7-0.2s-4.1,0.1-4.4,0c-0.2-0.1-2.9-0.2-5.5,0
	c0,0,0,0-2.3,0.1c-2.5,0.1-5,0-7.5,0c-2.4,0-2.4,0-2.4,0c-2.5-0.3-5-0.4-5.6-0.2s-4,0.2-6.6-0.3c0,0,0,0-2.3,0.7
	c-2.2,0.6-4.8-0.1-7,0.4c-0.3,0.1-0.9,0.1-1.2,0.1c-2.2-0.3-4.1-0.3-6.3,0.1c-1.8,0.3-1.8,0.3-1.8,0.3c-2.8,0-7.3-0.2-9.9-0.5
	c0,0,0,0-2.9,0.5c-1.7,0.3-1.7,0.3-1.7,0.3c-1.8-0.3-4.6-0.4-6.1-0.2c0,0,0,0-1.4,0c-3.1,0-6.2-0.1-9.2,0c-4.3,0.2-8.6,0.3-12.9,0.7
	c-2.6,0.3-2.6,0.3-2.6,0.3c-3.3-0.1-5.9-0.3-5.7-0.4c0.2-0.2-1.7-0.6-4.8-0.6c-3,0-13,0-15.3,0s-8.9,0.6-9.9,0.5
	c-1-0.2-6.2,0.3-8.6,0.3c0,0,0,0-2.3,0.1c-1.4,0-1.4,0-1.4,0c-1.9,0.2-3.5,0.3-3.7,0.2c-0.2-0.1-2.7-0.1-4.5,0.3c0,0,0,0-1.9,0.1
	c-3.2,0.2-3.2,0.2-3.2,0.2c-3.5-0.2-7-0.2-7.6,0c-0.6,0.2-3.8,0.8-5.8,0.8c-2,0.1-9.5-0.4-12.2-0.4c0,0,0,0-2,0.4
	c-2.9,0.6-2.9,0.6-2.9,0.6c-3.2-0.1-5.9-0.3-6-0.4c-0.1-0.2-3-0.2-6.2,0.2c0,0,0,0-3.2,0c-3.3,0-3.3,0-3.3,0c-3.7,0-6.8-0.1-6.9-0.2
	c-0.2-0.2-4.9-0.8-10.1-0.9c0,0,0,0-4.6,0.3c-3.7,0.3-3.7,0.3-3.7,0.3c-4.1,0-8,0.1-8.8,0.3c-0.7,0.2-5.6,0.3-9-0.1c0,0,0,0-3.2,0.7
	c-2.3,0.5-2.3,0.5-2.3,0.5c-2.7-0.2-5.5-0.4-6.3-0.4s-2.9,0.1-2.5,0.2c0.4,0.1,6.4,0.5,12.3,0.5c0,0,0,0,5.5,0c2.3,0,2.3,0,2.3,0
	c2.5,0.2,6.7,0.2,9.3,0.1c0,0,0,0.1,2.4,0c2.3,0,4.6,0.1,6.9,0.1c2.5,0,5,0,7.5,0s5-0.1,7.5-0.1c5.4,0.1,10.7-0.6,16.2-0.5
	c5.3,0.2,10.8,0.4,16,0c8-0.5,12.2-0.5,12.2-0.5c6.3,0.1,15.3,0.1,20.1,0c4.8-0.1,18.4-0.5,19.7-0.7c1.4-0.2,5.5,0.2,6.6,0.3
	c1.1,0.1,6.3,0,9.3,0s14-0.5,18.1-0.6c0,0,0,0,3.7-0.1c2.6-0.1,2.6-0.1,2.6-0.1c2.9-0.3,6.6-0.4,8.1-0.3c0,0,0,0,1.6,0
	c1.9,0,1.9,0,1.9,0c2.1-0.1,5.2,0.1,7.1,0.4c0,0,0,0,2-0.7c1-0.4,3.6-0.3,5.4-0.2c6.1,0.2,11.9-0.5,17.9-0.5c2.5,0,4.8-0.7,7.8-0.1
	c2.1,0.4,5.1,0.3,7.6,0.3c3.3-0.1,3.3-0.1,3.3-0.1c3.7-0.3,6.8-0.5,7-0.4c0.1,0.1,2.2,0.1,4.5,0c2.4-0.1,9.9-0.5,12-0.6
	c2.1-0.1,8.1,0.4,8,0.4c0,0,0,0,0.1,0c1.1-0.5,2.6-0.4,4.1-0.4c8.6,0,17.2,0,25.8,0c0.2,0,0.5,0.2,0.8,0.3c0.1,0,0.1,0,0.1,0
	c0.2,0.1,1.5-0.1,3-0.3c0,0,0,0,1.4,0c3.7,0.1,3.7,0.1,3.7,0.1c4.3,0.2,8.6,0.2,9.5,0c0.9-0.1,5.4,0.2,7.7,0.2
	c2.3-0.1,8.7-0.2,9.2-0.1c0.6,0.1,1.2,0.3,0.2,0.3c-1,0.1-3,0.7-3.6,0.6c-0.6-0.2-7.1-0.1-13.4,0c0,0-1.3,0-7.6,0.2
	c-2.5,0.1-5,0-7.5,0c-4.3,0-8.3,0.6-12.7,0.5c-4.2-0.1-8.4-0.1-12.6,0c-1.4,0-2.7,0-4.2,0c-2.3,0-2.3,0-2.3,0
	c-2.7,0.2-6,0.5-7.4,0.6c-1.5,0-5.6,0-6.2,0c0,0,0,0-0.5,0c-2.8,0-5.5,0.2-8.2,0.3c-8.4,0.3-13.9,0.2-13.9,0.2
	c-6.3,0.1-14.9,0.3-19.1,0.5c-4.2,0.2-16.7,0.3-18.3,0.3c0,0,0,0.1-1.5,0.4c-1.4,0.2-3.4,0.3-5.1,0.3c-1.9,0-3.8,0-5.7,0
	c-1.7,0-1.7,0-1.7,0c-1.9,0-8.4-0.1-14.4,0.1c-6,0.2-23.7-0.1-25.9,0c0,0,0,0-1.9,0.2c-5.3,0.7-10.8,0.3-16.2,0.4
	c-3.8,0.1-7.8-0.3-11.6,0.4c-0.7,0.1-0.7,0.1-0.7,0.1c-1.2-0.2-3.4-0.3-5-0.1c0,0,0,0-1.4,0c-7.5,0.2-15.2,0-22.5,0.5
	c-8,0.5-12.2,0.5-12.2,0.5c-6.3-0.1-16.7-0.1-23-0.1c0,0-9.3,0-19.6,0.5c-7.2,0.4-14.3,0.3-21.4,0.4c-7,0.1-14.1,0.1-21.2,0.1
	c-0.7,0-0.7,0-0.7,0c-0.7,0-1.4-0.2-1.6-0.4c-0.1-0.2-0.9-0.6-1.4-0.4s-2.6,0.4-3.7,0.2s-5.9,0.4-7.3,0.5c-1.4,0.1-5.5-0.6-6-0.4
	s-2.9,0.7-4.2,0.7s-4.9-0.1-5.8-0.3s-3.7-0.5-4-0.3c-0.3,0.2-5.7,0.7-11.5,0.7c0,0,0,0-5-0.1c-3.1,0-6.1-0.6-9.3-0.4
	c-1.9,0.1-3.8,0.3-5.8,0.4c-1.9,0.1-3.9,0.1-5.7,0c-10.5-0.8-20.2-0.6-20.2-0.6c-6.3,0.1-16.7,0.2-23,0.2c0,0-10,0-20.7,0
	c-2.1,0-4.2-0.3-6.4-0.4c-2.3,0-4.6,0.1-6.9,0c-2.2-0.1-4.2,0.4-6.6,0.1c-2-0.3-4.5-0.1-6.8-0.1c-2.4,0-5,0.2-7.4,0
	c-9.1-0.7-18.5,0-27.6-0.5c-10.4-0.6-20.7-0.2-31.1-0.4c-3.3-0.1-6.6-0.3-9.9-0.4c-3.6-0.1-7.3,0-10.9,0c-3.4,0-6.9,0.1-10.3,0
	c-2.6,0-4.9-0.4-7.6-0.4c-2.5,0-2.5,0-2.5,0c-2.8-0.1-7-0.1-9.4,0.2c0,0,0,0-2-0.2c-6.7-0.5-13.4-0.4-20.2-0.4
	c-1.9,0-3.3-0.6-5.3-0.4c-2.5,0.2-5.5,0.6-7.4,0.3c-2.5-0.4-2.5-0.4-2.5-0.4c-2.5,0-9.8,0.1-16.1,0.1c0,0-21.8,0-38.5,0
	c-1.8,0-1.8,0-1.8,0c-2.5-0.1-4.9-0.2-5.3-0.1c-0.4,0.1,1.2,0.6,6.4,0.6c0,0,0,0,4.1-0.1c4-0.1,4-0.1,4-0.1c3.8,0.5,7,1,7,1.1
	c0,0,0.3,0.1,0.6-0.1c0.3-0.2,1.5-0.5,2.4-0.5c0.9,0,3.3,0.2,3.1,0.4c-0.3,0.2,0.1,0.8,1.3,0.8s4.4,0,4.4,0.1c0,0-0.9,0.2-1.9,0.3
	c0,0,0,0-1,0c-4.4,0-8.8,0-13.2,0c-1,0-1,0-1,0c-1.3,0.1-4,0.3-6,0.2c-2,0-7.5-0.5-7.9-0.7c-0.4-0.3-1.9-0.9-2-0.6s-1.7,0.9-3.3,0.8
	c0,0,0,0-1.5,0c-1.3,0-1.3,0-1.3,0c-1.5,0-3.6-0.1-4.6-0.1s-4.1-0.1-4.6-0.3c-0.4-0.2-2.1-0.6-2.6-0.6s-2.6,0.1-3.2,0.3
	c-0.5,0.1-2.6,0.6-2.8,0.4s-2-0.5-3.8-0.4c-1.7,0.1-6.9,0.4-7,0.3c-0.1-0.1-2.4-0.1-4.5,0.1c-2.1,0.2-9.2-0.1-10.5,0
	c0,0,0,0-1.4,0.1c-1.2,0.1-1.2,0.1-1.2,0.1c-1.7,0-3.3,0.1-3.6,0c-0.3-0.1-3.7,0-5.7-0.3c0,0,0,0-1.3,0.2c-6.2,0.7-7.1,0.7-7.1,0.7
	c-6.3-0.1-13-0.2-15-0.1c0,0,0,0-2-0.5c-1.5-0.4-4.4-0.1-6.7-0.1s-4.6-0.1-6.9,0c-2.4,0-4.8,0.1-7,0.4c-2,0.2-3.7-0.5-6-0.1
	c-2.1,0.4-4.9,0.1-7.4,0.1c-2.3,0-4.6-0.1-6.9,0c-4.9,0.1-9.7,0.3-14.5,0.4c-1,0-1,0-1,0c-1.3-0.2-2.7-0.3-3.1-0.2
	c-0.4,0-4-0.1-5.7,0.1s-8.7,0-12.6,0.3c-3.8,0.3-17.8,0-21.7,0.2c0,0,0,0-3.8-0.2c-1.6-0.1-2.7-0.5-4.4,0c-0.7,0.2-2.2,0.1-3.3,0.1
	c-3.1,0.1-6.3-0.1-9.2,0.1c-2.9,0.2-5.6-0.3-8.3-0.1c-2,0.1-4.2-0.3-5.9,0.4c-0.1,0.1-0.7,0-1.1,0c-1.8-0.1-3.5-0.8-5.2-0.4
	c-1.8,0.4-3.5,0.4-5.3,0.4c-2.5,0.1-5,0.8-7.5,0.4c-2.8-0.5-5.8-0.4-8.7-0.4c-1.8,0-3.5,0-5.4,0.3c-1.7,0.3-4.3,0.2-6.5-0.2
	c-2-0.4-2-0.4-2-0.4c-2.1,0.3-6.3,0.4-9.3,0.2c0,0,0,0-2.5,0c-2.3,0-4.7,0.3-7,0.4c-2.5,0.1-2.5,0.1-2.5,0.1c-2.5,0.1-6.6,0-9.1-0.3
	c0,0,0,0-1.1,0.3c-2.1,0.5-4,0.3-6,0.3c-26.6,0-53.2,0-79.8,0c-1.8,0-1.8,0-1.8,0c-1.9,0.1-5.1,0.1-7.3-0.2c0,0,0,0-1.4,0.2
	c-3.9,0.5-7.5,0.4-11.4,0.2c-2-0.1-4.1,0.2-6.2,0.2c-26.8,0.1-53.6,0.1-80.4,0.1c-3.6,0-3.6,0-3.6,0c-3.9,0-7.2,0.1-7.3,0.2
	c-0.1,0.2-0.9,0.4-1.6,0.3c-0.7-0.1-2.9-0.5-3.1-0.4c-0.2,0-1.4,0.2-1.8,0.1c-0.4-0.1-2.2-0.3-3-0.1c-0.8,0.1-8.2,0.6-14.5,0.6
	c0,0-6.8,0-14.8,0V0h1159.1c-3.4,0.2-7.4,0.5-5.5,0.5c0,0,0,0,2.1,0.5c1.6,0.4,4.4,0.2,6.6,0.1c1.9-0.1,3.6-0.1,5.4,0
	c2.2,0.1,2.2,0.1,2.2,0.1c2.7-0.1,4.5,0.1,4.1,0.4s-0.9,1.1-0.3,1.1c0.7,0,2.2,0.2,2.2,0.3c0,0.1-0.4,0.4-0.9,0.4
	c-0.6,0-2.5-0.1-2.8,0c-0.3,0-1.7,0.2-1.8,0c-0.2-0.1-1.3-0.6-2.2-0.7c-0.9-0.1-3.5-0.3-3.6-0.2c-0.1,0.1,0.1,0.5,0.8,0.6
	c0.7,0.1,2.4,0.3,2.4,0.3c0,0.1-0.6,0.2-1.4,0.2c-0.7,0.1-2.9,0-3-0.1c0-0.1-2.1-0.7-4.4-1.1c0,0,0,0-2.5,0c-5.3,0-5.3,0-5.3,0
	c-6,0.1-10.2,0.3-9.5,0.4s2.9,0.4,3.1,0.3c0.2-0.1,1.6-0.2,2.6,0s5.4-0.2,6.8-0.2s5.4,0.1,5.4,0.2c0,0.1-1.7,0.6-4,0.6
	s-7.6,0.2-7,0.4s5.8,1.1,11.2,1.3c0,0,0,0,4.8-0.6c1.3-0.2,2.9-0.1,4.4-0.1c1.2,0,2.3,0.4,3.5,0.4s1.2,0,1.2,0
	c1.2,0,3.2-0.4,4.4-0.4c0,0,0,0,1,0c1.2,0,1.2,0,1.2,0c1.7,0.3,3.1,0.3,3.3,0.1c0.1-0.2,2.8-0.3,5.6,0c0,0,0,0,1-0.2
	c1.6-0.4,1.6-0.4,1.6-0.4c1.6,0,3.6,0.3,4.5,0.5c0.9,0.3,6-0.1,8.3-0.1c0,0,0,0,2.2,0c1.8,0,1.8,0,1.8,0c2.1-0.2,3.8-0.4,3.8-0.5
	c0-0.1-0.4-0.5-0.9-0.5s-2.4-0.1-2.1-0.3s0.6-0.9-0.1-1.1c-0.6-0.2-3.3-0.8-3.9-0.7c-0.6,0.1-2.7,0.3-2.9,0.2
	c-0.3-0.1-1.9-0.2-3.2-0.2s-4.8,0.2-4.9,0.1c-0.1-0.2,0.2-0.6,1-0.7c0,0,0,0,0.7,0c2.5,0,2.5,0,2.5,0c2.7,0,5.9,0.1,7.2,0.3
	c1.2,0.2,4.8-0.8,5.9-1c1.1-0.1,4.6,0.4,5.7,0.4s4.1,0.5,4.1,0.6c0,0.1-0.2,0.5-0.5,0.4c-0.3-0.1-1.2-0.1-1.4,0
	c-0.2,0.1-1.3,0.5-1.9,0.4c-0.6-0.1-2.5-0.3-2.6-0.2c-0.1,0.2,0.7,0.7,2.2,0.7c1.6,0.1,5.6,0.3,5.2,0.4c-0.3,0.1-2.2,0.5-3.3,0.5
	s-4.2,0.1-4.2,0.2c0,0.1,4.4,0.5,10.1,0.5c5.6,0,20.5-0.2,20.5-0.5s-0.2-1.1-0.5-0.9c-0.3,0.2-1.1,0.7-1.3,0.7
	c-0.3,0-1.1-0.1-1.2-0.2c-0.1-0.1-0.8-0.6-1-0.4c-0.2,0.2-1.4,0.6-2.3,0.6s-3.5-0.1-3.6-0.2c0-0.1-0.5-0.6-0.8-0.5
	c-0.3,0.1-2,0.2-2.8,0.1c-0.8-0.2-3.1-0.5-3.2-0.5c-0.1,0-1.1,0.2-1.3,0s-0.6-0.7-0.6-0.7c0.1,0,0.3-0.2,0.1-0.3
	c-0.2-0.1-0.3-0.4,0.1-0.5c0,0,0,0,0.3,0c3.7,0.2,3.7,0.2,3.7,0.2c4,0.1,9.4,0.1,12-0.1c0,0,0,0,2.3-0.1c0.8,0,0.8,0,0.8,0
	c1,0.3,4.1,0.3,7,0.1c0,0,0,0,3-0.1c6.6-0.1,13,0.6,19.6,0.5c3.1-0.1,3.1-0.1,3.1-0.1c3.4-0.2,7.4-0.2,8.9-0.1c0,0,0,0,1.4,0.1
	c1.2,0.1,2.7,0.1,3.7,0.3c1.9,0.5,1.9,0.5,1.9,0.5c1.4-0.4,3.5-0.5,4.6-0.3c0,0,0,0,1,0c12.1-0.1,24.2,0.8,36.3,0.5
	c2.5-0.1,2.5-0.1,2.5-0.1c2.7,0,6.3-0.2,8-0.3s8.1,0.1,11.1,0.3c0,0,0,0,2.7,0c1,0,1,0,1,0c1.3-0.2,2.7-0.4,2.9-0.3
	c0.2,0,1.7,0.3,2,0.2c0.1-0.1,0.9-0.2,2.9-0.3v1.8c-2,0.2-4.8,0.2-7.4-0.3c-2.7-0.5-2.8-0.5-2.8-0.5c-3.9,0.6-6.2,1.4-5,1.6
	c1.2,0.3,1.8,0.6-0.7,0.4c-2.5-0.2-9.1,0.4-8.4,0.5c0.7,0.1,0.6,0.3-2.7,0.3c-3.3,0-11.6-0.5-11.2-0.7c0.3-0.2,0.4-0.7-1.1-0.7
	c-1.4,0-5.1,0.1-4.1,0.3c1,0.2,0.9,0.8-2.7,0.9c-3.7,0.1-10,0-10,0.1c-0.1,0.1,1.3,0.9,3.2,0.9c0,0,0,0,1.7,0s1.7,0,1.7,0
	c0.7,0,1.3-0.1,1.8-0.1c-0.1,0,0,0.1,0.5,0.2c1,0.1,3.5,0.7,3.2,0.8c-0.4,0.1-3.8,0.5-6.5,0.4c-2.7-0.1-10.2-0.2-10.2-0.1
	c0,0.1,0.1,0.6,0.3,0.6c0,0,0,0,0.1,0c6.3,0,7.5-0.1,7.5-0.1c6.3,0,11.2-0.2,11-0.4c-0.2-0.1-0.4-0.7,0.3-0.8
	c0.7-0.1,2.4-0.4,1.9-0.4S1329,6.1,1329,6c0,0,0.3-0.3,0.6-0.4c0,0,0,0,0.2,0c0.5,0.1,1,0.3,1.4,0.3c8.1-0.2,12.8,0,12.8,0
	c6.2,0.2,11.8,0.4,12.4,0.3c0.6,0,4.1-0.1,6.3,0c0,0,0.1,0,2.2,0.1c1.8,0.1,3.5-0.3,5.5-0.2H1370.8z M1347.4,3.6c0,0,1,0.1,1.5,0.1
	s0.8-0.1,0.8-0.1s-0.4-0.1-0.8-0.1S1347.4,3.6,1347.4,3.6z M1343.1,3c0,0.1,0,0.3,0.1,0.3c0.1,0,0.3-0.2,0.3-0.3c0,0,0-0.1-0.1-0.1
	C1343.4,2.9,1343.2,3,1343.1,3z M1338.2,4.4c0,0,2.3,0.1,3.1,0.1s1.5-0.1,1.5-0.1s-0.7-0.1-1.5-0.1
	C1340.4,4.3,1338.2,4.4,1338.2,4.4z M1316.4,3.8C1316.4,3.8,1316.4,3.9,1316.4,3.8c0.3,0.2,0.7,0.3,0.8,0.3c0,0,0.1-0.1-0.1-0.2
	C1317,3.9,1316.5,3.8,1316.4,3.8z M1315.5,3.4c-0.1,0,0.3,0.2,0.5,0.2c0.1,0.1,0.2,0.1,0.3,0.1c0,0,0-0.1-0.1-0.1
	S1315.6,3.4,1315.5,3.4z M1171.6,1.8c0,0,0.2,0.1,0.4,0.1c0.2,0,0.8,0,0.8,0s-0.6-0.1-0.8-0.1S1171.6,1.8,1171.6,1.8z M177.9,21.4
	c-0.1,0-1.8-0.1-3.6,0c-1.9,0.1-5.8,0.6-3.6,1c0,0,0,0,1.4-0.1c2-0.1,2-0.1,2-0.1C176.3,21.8,177.9,21.4,177.9,21.4z M208.5,21.4
	c-0.4-0.1-5.3-0.4-9.9-0.5c-4.6-0.1-17.4,0.3-17.8,0.3c-0.4-0.1-1.8-0.1-1.7,0.1c0,0.2,2.3,0.3,4.9,0.1c2.6-0.1,10,0.3,10.3,0.2
	c0.3-0.1,2.6-0.1,5.2,0C202.1,21.7,208.8,21.5,208.5,21.4z M210.9,21.2c0,0,0-0.1-0.1-0.1c-0.1,0-0.3,0-0.3,0.1c0,0.1,0,0.3,0.1,0.3
	C210.7,21.5,210.8,21.3,210.9,21.2z M217,21.3c0,0-0.4-0.1-0.8-0.1c-0.4,0-1.5,0.1-1.5,0.1s1.1,0.1,1.5,0.1S217,21.3,217,21.3z
	 M225.1,21.6c0-0.1-3-0.6-4.1-0.8c-1.2-0.2-2.2-0.3-2.4-0.2c-0.2,0.1-0.3,0.4,0,0.6c0.3,0.2,2,0.7,3.2,0.7c0,0,0,0,0.9,0
	c0.7,0,0.7,0,0.7,0C224.2,21.8,224.9,21.7,225.1,21.6z M235.6,20.7c-2.9,0-10.9,0.1-10.4,0.3c0.5,0.1,2.3,0.2,3.2,0
	c0.9-0.2,2.9,0.5,2.6,0.6c-0.2,0.1,1.1,0.1,3.1,0C236.1,21.4,238.5,20.7,235.6,20.7z M246.7,21.7c0,0-1-0.1-1.3-0.1
	c-0.4,0-0.6,0-0.6,0.1c0,0.1,0.4,0.2,0.7,0.2C245.8,21.8,246.7,21.7,246.7,21.7z M262.7,21.3c0-0.1-1-0.3-2.2-0.4
	c-1.2-0.1-1.1,0.5,0.1,0.5C261.8,21.4,262.7,21.3,262.7,21.3z M602,4.9c0,0.1,0.6,0.2,1.4,0.2c0.8-0.1,2.8-0.2,2.8-0.2
	c0-0.1-2-0.2-2.8-0.2C602.7,4.7,602,4.7,602,4.9z M597.2,4.7c0,0,0.2,0.1,0.4,0.1s0.8,0,0.8,0s-0.6-0.1-0.8-0.1
	C597.4,4.7,597.2,4.7,597.2,4.7z M565.5,4.9c0.3,0.1,2.8,0.5,4.4,0.4c1.6-0.1,8.8-0.4,11.7-0.5s8.1-0.5,4.9-1.1c0,0,0,0-3.4,0.7
	c-0.7,0.2-2.1,0.3-2.6,0.1c-2.4-0.8-5.5-0.6-7.5-0.3c-2.6,0.4-2.6,0.4-2.6,0.4C567.3,4.7,565.1,4.8,565.5,4.9z M563.1,5.3
	C563.1,5.3,563.1,5.4,563.1,5.3c0.2,0.1,0.4,0.1,0.4,0s0-0.3-0.1-0.3C563.3,5,563.1,5.2,563.1,5.3z M468.2,18.3c0,0,0,0-1.3,0
	c-1.4,0-2.7,0.4-4.1,0.4c-1.3,0-1.3,0-1.3,0c-1.3-0.2-2.9-0.3-3.4-0.1c-0.6,0.2-2.4,0.6-2.8,0.4s-1.7-0.6-2.2-0.5
	c-0.5,0.1-1.7,0.3-1.9,0.2c-0.2-0.1-1.4,0-2.4,0.2c-0.9,0.2-4.8,0.7-5.9,0.5c-1-0.2-4.8-0.9-5.6-0.9s-3.1,0.1-2.9,0.2
	c0.1,0.2-0.1,0.5-0.9,0.5c-0.9,0-2.9-0.1-3-0.2c0-0.1-3-0.5-6.4-0.5c0,0,0,0-3,0c-0.3,0-0.3,0-0.3,0c-0.4,0.3-1,0.5-1.4,0.6
	c-0.5,0.1-2.2,0.2-2.7,0s-4.9-0.8-8.5-0.9c0,0,0,0-3.1,0.7c-0.7,0.2-2,0.2-2.7,0c-3.5-0.8-3.5-0.8-3.5-0.8c-3.6,0.5-6.9,0.8-7.3,0.7
	c-0.4-0.1-2.6,0.1-2.9,0.3c-0.4,0.2-1.7,0.1-3-0.1c0,0,0,0-1.2,0c-8.4,0-13.9,0-13.9,0c-6.3,0-11.2,0.2-11,0.3
	c0.3,0.1,0.7,0.5,0.6,0.5c-0.1,0.1-0.9,0.1-1.5-0.1c-0.6-0.2-3.8-0.7-4.9-0.6c-1.1,0.1-4.5,0.3-4.8,0.2s-3.2-0.2-5.9-0.2
	c-2.8,0.1-10.3,0.7-10.7,1c-0.4,0.3-2.8,0-2.6-0.1c0.2-0.1-1.3-0.6-4.3-0.8c0,0,0,0-1.7,0.4c-2.6,0.5-2.6,0.5-2.6,0.5
	c-2.2-0.4-4.7-0.6-5.5-0.4c-0.8,0.1-4.4,0.6-5.3,0.6c-0.9-0.1-4.4-0.1-4.6,0s-1.9,0.1-3.5,0c0,0,0,0.1-1.2,0.1
	c-3.3,0.1-6.6,0.4-9.9,0.5c-3.4,0.1-6.9,0.3-10.3,0.3c-4.4,0-4.4,0-4.4,0c-4.9,0-9.3-0.2-9.8-0.1c-0.5,0.1,1.7,0.5,3.9,0.6
	c2.2,0.1,7.9-0.5,8.2-0.3c0,0,0,0,0.3,0c3.6,0.1,3.6,0.1,3.6,0.1c3.9,0.1,8.8,0,10.7-0.1c0,0,0,0,1.7,0.1c2.7,0.1,5.3,0.3,8.1-0.1
	c2.7-0.4,2.7-0.4,2.7-0.4c2.9,0.4,7.3,0.3,9.7,0c0,0,0,0,2.4,0.4c2.7,0.4,5.4,0.3,8.1,0c0.8-0.1,1.7-0.2,2.6-0.2
	c6.9-0.1,13.8-0.1,20.7,0c1.9,0,3.7,0.1,5.4-0.1c4.6-0.6,9.3-0.4,13.9-0.4c1.4,0,3.1,0.2,4,0c3.4-0.8,7-0.3,10.5-0.3
	c3.5-0.1,7.1-0.4,10.5,0.3c0.8,0.2,0.8,0.2,0.8,0.2c1.7-0.3,3-0.6,3-0.7c0-0.1-0.8-0.3-1.6-0.3s-3-0.2-3-0.2c0-0.1,0.8-0.2,1.8-0.2
	s3.6,0.2,4,0.4c0.4,0.2,5.6,0.8,10.8,0.8c0,0,0,0,4.6-0.1c2.3,0,2.3,0,2.3,0c2.5-0.2,5.5-0.5,6.6-0.6c0,0,0,0,1.2,0.1
	c1.1,0.2,1.1,0.2,1.1,0.2c1,0.1,3,0,4.4-0.2c0,0,0,0,1,0c5.5,0,11.1,0,16.6,0c1.3,0,2.9,0,3.8-0.2c2-0.5,2-0.5,2-0.5
	c2,0.2,3.8,0.4,3.9,0.6c0.1,0.2,1,0.7,1.5,0.4c0.5-0.2,2.7-0.7,4.2-0.5c1.5,0.2,6,0.4,6.5,0.2S470.2,18.8,468.2,18.3z M475.4,18.7
	c0,0-1.1-0.1-1.5-0.1c-0.5,0-0.8,0.1-0.8,0.1s0.4,0.1,0.8,0.1C474.3,18.8,475.5,18.8,475.4,18.7z M534.7,19.1c0,0,0,0-0.2-0.1
	c-2.5-0.6-5.4-0.3-8.1-0.4c-4-0.1-8.1,0.2-12.2-0.3c-2.5-0.3-2.5-0.3-2.5-0.3c-3.5,0.4-8.5,0.4-11.2,0.1c0,0,0,0-3.4,0.4
	c-0.9,0.1-2.3,0.2-3,0c-2.2-0.5-5-0.5-6.5-0.2c-2.2,0.4-4,0.2-6,0.3c-1.3,0.1-1.3,0.1-1.3,0.1c-1.7-0.1-2.8,0-2.4,0.2
	c0.4,0.1,2.7,0.6,4.1,0.5c1.4-0.1,5.8-0.3,6-0.2c0.2,0,1.4,0.2,1.7,0.1c0.4-0.1,1.4-0.3,1.6-0.2c0.2,0.1,1,0.2,1.3,0c0,0,0,0,0.3,0
	c3.9,0,7.7-0.4,11.6,0.2c1.5,0.2,3.8,0.3,4.9,0c1.9-0.5,3.9-0.5,5.4-0.3c3.6,0.4,7.3,0.3,11,0.4c1,0,1,0,1,0c1,0.3,2.9,0.4,4.1,0.4
	C532.1,19.7,534.9,19.1,534.7,19.1z M675.5,16.9c-0.2-0.1-5.6,0-11.9,0.2c0,0-3.1,0.1-10.1-0.8c-0.6-0.1-0.6-0.1-0.6-0.1
	c-0.8,0.2-3.9,0.5-6.9,0.7c0,0,0,0-2.2-0.3c-1.7-0.2-3.2-0.3-4.8-0.3c-12.1-0.2-24.2,0.4-36.3-0.4c-3.9-0.2-8,0-12,0
	c-4.2,0-8.5-0.2-12.6,0c-3.8,0.2-3.8,0.2-3.8,0.2c-4-0.1-8.1-0.4-9.1-0.6s-5.4,0.1-7.5-0.1c0,0,0,0-1.9,0c-4.7,0-9.5,0-14.3,0
	c-1.2,0-2.8,0-3.7-0.2c-2.1-0.6-2.1-0.6-2.1-0.6c-1.5,0.5-4.7,0.6-7.2,0.2c0,0,0,0-2,0.4c-2.3,0.4-5,0.5-6.5,0.2
	c-2.1-0.4-4-0.3-6-0.3c-3.1-0.1-6.1-0.1-9.2,0c-3.7,0.1-7.5-0.3-11.1,0.4c-1,0.1-3,0.1-3.8-0.1c-2-0.6-4-0.2-6-0.3
	c-1.9-0.2-3.9-0.4-5.8-0.4c-3.9,0.1-7.9-0.4-11.6,0.4c-0.5,0.1-0.5,0.1-0.5,0.1c-0.9-0.1-2.7-0.3-4.1-0.4c0,0,0,0-1.2-0.1
	c-2.8-0.2-5,0.5-7.6,0.5c-1.9,0-3.6-0.3-5.3-0.4c-1.6-0.1-3.4,0.3-5.2,0.3c-1.4,0-1.4,0-1.4,0c-1.6-0.2-3.4,0-4,0c0,0,0,0-0.6,0
	c-6.3,0-12.6,0.6-19,0.5c-7.3-0.1-10.5,0-10.5,0c-6.3,0.2-12,0.5-12.7,0.6c0,0,0,0-0.7,0c-3.9,0.1-3.9,0.1-3.9,0.1
	c-4.2-0.2-8.7-0.3-10-0.2c-1.2,0.1-5.1-0.1-6.6,0.1c0,0,0,0-1,0c-1.9,0.1-4.1-0.1-5.7,0.1c-1.2,0.2-1.2,0.2-1.2,0.2
	c-1.2,0.6,0.9,1,4.8,1c3.9,0,14.5-0.1,15.2-0.2s2.6-0.3,2.7-0.2c0.1,0.1,0.8,0.3,1.2,0.1c0.5-0.1,2.4-0.5,2.8-0.3
	c0.3,0.2,2.7,0.6,4.6,0.3c0,0,0,0,1.6,0c19.7,0,39.4,0,59.1,0c9.3,0,16.6,0,16.6,0c6.3,0,16.7,0.1,23,0.1c0,0,7.3,0,16.8-0.4
	c11-0.5,22.3,0.2,33.4-0.5c2.4-0.1,4.9,0.1,7.4,0c6.1-0.2,11.9,0.5,17.9,0.5c0.4,0,0.4,0,0.4,0c0.5,0.2,1.9,0.1,3.3-0.2
	c0,0,0,0,1.4,0.4c1.8,0.5,4,0.5,5.4,0.2c4.6-0.9,4.6-0.9,4.6-0.9c4.5,0.7,8.4,1.2,8.7,1c0,0,0,0,0.4,0c3.5-0.1,7,0.2,10.4-0.4
	c0.3-0.1,1.1,0,1.5,0.1c3.1,0.7,6.6,0.7,10.1,0.7c3.1,0,6.1,0,9.2,0c1.4-0.1,2.8-0.2,4.2-0.3c3-0.3,3-0.3,3-0.3
	c3.6,0.1,6.8,0.3,7.2,0.4c0.4,0.1,4.4,0.3,7.9,0c0,0,0,0,3.3,0.1c0.2,0,0.2,0,0.2,0c0.2,0,2.1,0,4.2,0.1c2.1,0,10.6-0.4,14.4-0.3
	c0,0,0,0,3.5,0.2c0.2,0,0.2,0,0.2,0C676.2,17.6,675.8,17.2,675.5,16.9z M687.2,17.4c-4.5,0-8.2,0-8.2,0.1c0,0,2.6,0.2,5.7,0.2
	s12,0,12.9,0.1c0.8,0.1,3.9,0.2,4.4,0.1C702.5,17.8,691.7,17.3,687.2,17.4z M778.7,6.1c0.5,0.3,1.7,0.4,2.8,0.1c1-0.3,1-1.5-0.1-1.5
	C780.4,4.7,778.2,5.7,778.7,6.1z M764.4,17.6c0,0-0.5,0-6.3,0c-4.6,0-9.2,0.1-13.8,0c-2.5,0-5.2,0.3-7.6-0.4c-0.4-0.1-1.8,0-2.1,0.1
	c-1.3,0.5-2.9,0.3-4.3,0.3c-3.1,0-3.1,0-3.1,0c-3.4-0.3-6.4-0.4-6.6-0.3c-0.2,0.1-3,0.3-5.6,0.2c-2.6,0-9.6-0.2-9.6,0
	s3.6,0.6,7.9,0.8c0,0,0,0,3.8,0.2c3.9,0.2,3.9,0.2,3.9,0.2c4.4,0.3,8.3,0.2,8.5,0c0.2-0.2,2.3-0.2,4.7-0.1c2.4,0.1,10.9,0.3,13.5,0
	c2.6-0.3,10.3,0.1,11.7-0.1c0,0,0,0,1,0c4.2,0,8.4,0,12.6,0c0.7,0,0.7,0,0.7,0C774.7,18.4,770.4,18.1,764.4,17.6z M772.7,4.4
	c0,0,0,0-1.1,0.3c-2.4,0.6-4.8,0.4-7.1,0.4c-4.5,0-9.1,0-13.7,0c-1,0-1,0-1,0c-1.2,0,0.1,0.4,2.8,0.7c0,0,0,0,2.5,0.1
	c2.5,0.1,2.5,0.1,2.5,0.1c2.8,0.2,6.5,0.3,8.3,0.2c1.9-0.1,8.7-0.9,9.7-1.1S775.3,4.5,772.7,4.4z M782,18.2c-2.7,0-4.8,0.5-4.5,0.6
	c0.4,0.1,2,0.2,3.6,0.2C782.7,19,784.8,18.2,782,18.2z M798.1,18.3c0,0-2,0-8.6,0c-0.1,0-0.3,0-0.4,0.1c0.1,0,1.8,0.1,3.7,0.2
	c1.9,0.1,7.8,0.2,8,0.2c0.2-0.1,2.1,0,2.4,0.1c0.3,0.1,1.5,0,2.7-0.2c0,0,0,0,1-0.1c0.9-0.1,0.9-0.1,0.9-0.1
	C808.8,18.4,804.5,18.3,798.1,18.3z M808.9,5.5c0.3-0.1,0.8-0.1,1.2-0.1c-0.7-0.1-1.8-0.1-3-0.1c0,0,0,0-1.8,0
	c-2.6,0-5.6,0.2-7.9-0.1c-3.9-0.6-3.9-0.6-3.9-0.6c-4.1,0.1-7.7,0.2-8.1,0.4c-0.3,0.2,0.8,1.3,1.6,1.5s2.3,0.3,3.3,0.1
	c1.1-0.2,4.7,0,7.1,0.1c0,0,0,0,2.1,0.1c0.3,0,0.3,0,0.3,0c0.4-0.1,0.7-0.3,0.8-0.4c0.1-0.1,1.1-0.2,2.3-0.2
	c1.1,0.1,4.2,0.1,4.4-0.1C807.5,5.9,808.3,5.5,808.9,5.5z M824.6,5.8c0-0.1-1.6-0.6-2-0.5s-1.2,0.2-1.7,0.2c0,0,0,0-0.2,0
	c-3.1-0.6-3.1-0.6-3.1-0.6c-1.6,0.3-2.2,0.6-1.5,0.6s2.7,0.1,2.8,0.3c0.2,0.1,0.8,0.4,1.2,0.3c0.4-0.1,1.6-0.7,2.5-0.4
	C823.5,6,824.5,6,824.6,5.8z M911.5,3.9C912.3,3.9,912.2,3.9,911.5,3.9L911.5,3.9z M886.9,4.3c0,0.1,1.8,0.3,4.1,0.3c0,0,0,0,2.1,0
	c1.7,0,3.4-0.2,5.1-0.2c2,0,4,0.2,6,0.2c1.8,0,3.5-0.1,5.3-0.4c1.5-0.3,1.6-0.3,1.6-0.3c-1,0-2.7-0.1-5.1-0.2c0,0,0,0-4.7,0.1
	c-4.8,0.1-4.8,0.1-4.8,0.1C891.2,4.1,886.9,4.3,886.9,4.3z M860.2,5.2c-0.1,0-5.6,0.1-7.7,0.2c-2.1,0.1-5.2,0-6.9-0.2
	c-1.7-0.1-6.6,0.2-6.5,0.3c0.2,0.1,0,0.4-0.9,0.4c-0.9,0-1.5,0.5,0.4,0.9c1.9,0.4,7.3-0.5,7.6-0.4c0.3,0.1,1.1,0.3,1.3,0.1
	s1-0.5,1.2-0.3c0.2,0.2,1.7,0.4,2.8,0.2c1-0.2,4.2-0.8,4.6-0.6c0.4,0.1,1.5,0.3,2.1,0.1C858.8,5.7,860.2,5.2,860.2,5.2z M915.1,6.1
	c0-0.1-0.5-0.3-1.1-0.4c-0.6-0.1-2.6-0.3-3-0.2c-0.5,0.1-1.8,0.2-2.3,0.1c-0.5-0.1-2.4-0.1-2.6,0c-0.2,0.1-2,0-4.1-0.2
	c0,0,0,0-1.6,0c-9,0-17.9,0-26.9,0c-0.9,0-0.9,0-0.9,0c-1-0.1-0.6-0.3,0.8-0.4c0,0,0,0,1.3-0.1c1.4-0.1,2.9,0.2,4.3-0.3
	c0.7-0.2,0.7-0.2,0.7-0.2c1.2-0.1,2.2-0.1,2.2-0.2c0-0.1-2.1-0.1-4.6,0c-2.4,0.1-8.8,0.5-8.6,0.6s0.6,0.5-0.1,0.5
	c-0.6,0-2.2-0.1-2.4-0.3c-0.2-0.1-1.2-0.5-2-0.5c-0.8,0.1-3.1,0.4-2.6,0.6s2.4,0.7,3.5,0.7s4.1,0.2,4.5,0.3c0.4,0.1,3.1,0.5,5.3,0.6
	c2.3,0.1,7.9,0.1,8.7-0.1c0.7-0.2,4.4-0.8,6.6-0.8c2.1,0,7.2,0.5,6.4,0.5s1.7,0.3,7.4,0.4c0,0,0,0,5.1,0.1c2.1,0,4-0.2,5.8-0.5
	C915.1,6.2,915.1,6.2,915.1,6.1z M921.2,6.1c0,0-1.7-0.1-2.3-0.1s-1.1,0.1-1.1,0.1s0.5,0.1,1.1,0.1S921.2,6.2,921.2,6.1z M928.3,6
	c0,0,0,0-1-0.1c-0.9-0.1-0.9-0.1-0.9-0.1c-0.8-0.1-2.4,0.1-2.7,0.2c-0.3,0.1,0.6,0.2,1.9,0.2C927,6.2,929.4,6.1,928.3,6z M937.1,4
	c0,0-5.2-0.2-11.5-0.2c0,0-1,0-7.2,0c-0.1,0-0.3,0-0.4,0.1c-0.1,0-0.1,0-0.1,0c0,0.1,9.3,0.2,12.8,0.2S937.1,4.1,937.1,4z M1100.2,9
	c-0.1-0.1-0.5-0.1-0.9,0c-0.4,0.1-1.5,0.8-0.8,0.7C1099.2,9.6,1100.3,9.1,1100.2,9z M1113,8.8c-0.2-0.2-4.8-0.1-6.5,0
	s-1.5,0.4,0.4,0.8c0,0,0,0,1.5,0c1.6,0,1.6,0,1.6,0C1111.9,9.3,1113.2,9,1113,8.8z M1121.7,8.7c-2-0.2-5.7,0.1-4.9,0.3
	c0.7,0.2,5.2,0.3,6.4,0.2C1124.4,9.1,1123.7,8.9,1121.7,8.7z M1128.8,8.5c0,0,0-0.1-0.1-0.1c-0.1,0-0.3,0-0.3,0.1
	c0,0.1,0,0.3,0.1,0.3S1128.7,8.6,1128.8,8.5z M1132.2,8.7c0-0.1,0-0.3-0.1-0.3s-0.3,0.2-0.3,0.3c0,0,0,0.1,0.1,0.1
	S1132.2,8.8,1132.2,8.7z M1141.8,4.1c0-0.1-2.5-0.4-5.5-0.5c-3-0.1-11.2,0.6-11.5,0.5c-0.3-0.1-1.9-0.1-2.8,0.1c0,0,0,0-0.8,0.1
	c-1.1,0.1-1.1,0.1-1.1,0.1c-1.2,0-2.2,0-2.2,0.1c0,0.1,1.8,0.3,4.1,0.3c0,0,0,0,2-0.1c2-0.1,2-0.1,2-0.1c2.2-0.2,5.6-0.2,7.6,0
	c0,0,0,0,2.2-0.3c1.7-0.3,1.7-0.3,1.7-0.3C1139.9,4.1,1141.8,4.1,1141.8,4.1z M1144.8,1.1c1.1-0.2,1.4-0.8-1.8-0.8
	c-3.1,0-11.4,0.1-11.4,0.2c0,0.2,0.5,0.5,0.9,0.4c0.4,0,1.9-0.1,2.5,0c0.6,0.1,0.5,0.5-2.1,0.4s-9.1,0.5-9.9,0.4
	c-0.8-0.1-1.9-0.3-0.6-0.3s-0.2-0.7-6.5-0.7c0,0-9,0-18.9,0c-4.1,0-4.1,0-4.1,0c-3.9,0.5-7.2,1.1-7.3,1.2c-0.1,0.2-6.2-0.1-8.4,0
	c-2.2,0.1-2.1,0.5,0.2,0.9c0,0,0,0,2.4,0.1c5.5,0.2,5.5,0.2,5.5,0.2c5.8-0.3,14.8-0.6,20-0.6s19.3,0,20.1-0.1c0.8-0.1,4-0.2,5.3-0.1
	c1.3,0.1,5,0.1,5.6,0s1.9-0.5,2.1-0.6c0.1-0.2,1.3-0.5,2.1-0.4S1143.7,1.4,1144.8,1.1z M1144.9,8.7c0-0.1,0-0.3-0.1-0.3
	c-0.1,0-0.3,0.2-0.3,0.3c0,0,0,0.1,0.1,0.1C1144.6,8.8,1144.8,8.8,1144.9,8.7z M1146,4.3C1146,4.3,1146,4.2,1146,4.3
	c-0.2-0.1-0.4-0.1-0.4,0s0,0.3,0.1,0.3C1145.8,4.6,1146,4.4,1146,4.3z M1156.7,8.6c0,0-1.2-0.1-2.7-0.1s-5.4,0.1-5.4,0.1
	s3.9,0.1,5.4,0.1S1156.7,8.7,1156.7,8.6z M1159.8,8.5c0,0,0-0.1-0.1-0.1s-0.3,0-0.3,0.1c0,0.1,0,0.3,0.1,0.3S1159.8,8.6,1159.8,8.5z
	 M1163.6,8.7c0,0-0.6-0.1-0.8-0.1c-0.2,0-0.4,0-0.4,0s0.2,0.1,0.4,0.1S1163.6,8.7,1163.6,8.7z M1169.1,8.6c0-0.1-0.6-0.2-1.4-0.2
	c-0.8,0.1-2.8,0.2-2.8,0.2c0,0.1,2,0.2,2.8,0.2S1169.1,8.7,1169.1,8.6z M1172.6,8.6c0,0-1-0.1-1.3-0.1c-0.3,0-0.6,0-0.6,0.1
	c0,0.1,0.3,0.2,0.7,0.2C1171.7,8.8,1172.7,8.7,1172.6,8.6z M1208.7,8.1c-3.6,0-6.9,0-11.1,0C1201.5,9.1,1204.9,9.1,1208.7,8.1z
	 M1221,6.1c0,0,0.4,0.1,0.8,0.1s1.5-0.1,1.5-0.1s-1.1-0.1-1.5-0.1S1221,6.1,1221,6.1z M1224.3,8.2c0,0-2.2-0.2-4.9-0.2
	c0,0,0,0.1-2.4,0.1c-0.1,0-0.1,0-0.1,0c-0.2,0,3.5,0.3,4.9,0.3C1223.2,8.4,1224.3,8.3,1224.3,8.2z M1228.9,8.2c0,0-1-0.1-1.3-0.1
	c-0.4,0-0.6,0-0.6,0.1c0,0.1,0.4,0.2,0.7,0.2C1228,8.3,1228.9,8.2,1228.9,8.2z M1240.4,8.1c0,0-3.8-1.1-5.2-0.8
	c-1.4,0.4-2.5,0.7-2.5,0.8c0,0.1,1.2,0.3,2.6,0.3C1236.7,8.4,1240.4,8.2,1240.4,8.1z M1244.8,7.9c0-0.1,0-0.3-0.1-0.3
	c-0.1,0-0.3,0.2-0.3,0.3c0,0,0,0.1,0.1,0.1S1244.8,7.9,1244.8,7.9z M1247.1,8.1C1247.1,8.1,1247.1,8,1247.1,8.1
	c-0.2-0.1-0.4-0.1-0.4,0c0,0.1,0,0.3,0.1,0.3S1247.1,8.2,1247.1,8.1z M1249.4,8.1C1249.4,8.1,1249.4,8,1249.4,8.1
	c-0.2-0.1-0.4-0.1-0.4,0c0,0.1,0,0.3,0.1,0.3S1249.4,8.2,1249.4,8.1z M1271.2,7.9c0-0.1,0-0.3-0.1-0.3c-0.1,0-0.3,0.2-0.3,0.3
	c0,0,0,0.1,0.1,0.1S1271.2,7.9,1271.2,7.9z M1277.3,5.8c-0.5-0.2-2.2-0.4-2.7-0.2c0,0,0,0.2-0.4,0.2c-1.7,0-3.4,0.3-5.1,0.3
	s-3.4,0-5.1,0c-1.9,0-3.8,0-5.7,0c-1.7,0-3.5-0.3-5.1-0.4c-1.5-0.1-1.5-0.4-1.5-0.4c-1.5,0.1-4.5,0-6.7-0.1c0,0,0,0-1.3,0.3
	c-2.3,0.6-4.7,0.4-7,0.4c-2.8,0.1-2.8,0.1-2.8,0.1c-3.1,0-5.7,0-5.7,0.1c0,0.1,1.4,0.2,3.2,0.2c0,0,0,0,1.6,0.1
	c1.8,0.1,3.5,0.3,5.3,0.4c1.4,0,3.2,0.1,4.3-0.2c1.9-0.5,4-0.4,5.4-0.2c1.5,0.2,1.5,0.2,1.5,0.2c1.6,0.1,4.5,0.1,6.4,0
	c0,0,0,0,1.6-0.1c1.6,0,3.2-0.2,4.7,0c1.8,0.2,3.2-0.5,4.9-0.2c0.8,0.1,0.8,0.1,0.8,0.1c0.9,0.2,3.8,0.2,6.6,0c0,0,0,0,2.5-0.1
	c0.5,0,0.5,0,0.5,0C1278.1,6.2,1278.1,6,1277.3,5.8z M1282.7,6c0-0.3-0.3-0.8-0.7-0.7s-0.3,0.8,0.1,0.9
	C1282.5,6.3,1282.8,6.2,1282.7,6z M1299.3,4.4c-0.3,0-1.4,0.1-1.3,0.2c0,0.1,1.2,0.1,1.4,0C1299.6,4.4,1299.5,4.3,1299.3,4.4z
	 M1308,7.5c0-0.1,0-0.3-0.1-0.3s-0.3,0.2-0.3,0.3c0,0,0,0.1,0.1,0.1C1307.8,7.6,1308,7.5,1308,7.5z M1308.7,4.7c0,0,0,0-0.8-0.1
	c-0.8-0.1-0.8-0.1-0.8-0.1c-0.6-0.2-1.5-0.3-1.9-0.2s-1.6,0.3-2,0.2c-0.5,0-1.6,0.2-1.6,0.3s1.4,0.3,3,0.3
	C1306.2,5.2,1309.7,4.7,1308.7,4.7z M1332.4,6.5c0,0,0.4,0.1,0.8,0.1s1.5-0.1,1.5-0.1s-1.1-0.1-1.5-0.1
	C1332.8,6.4,1332.4,6.5,1332.4,6.5z M1363.5,7.4c-1-0.1-4.4-0.3-6-0.2c-1.6,0.1-6.9,0.3-8.1,0.2c-1.2-0.2-7.2,0.2-10.7,0
	c-3.5-0.2-7.3,0.1-7.3,0.2c0,0.1,2.1,0.3,2.9,0.3c0.8,0,2.9-0.1,4.7-0.2c1.8-0.1,7.3,0.8,8.5,0.8c0,0,0,0,1.1-0.1
	c0.8-0.1,0.8-0.1,0.8-0.1c0.9-0.2,1.9-0.3,2.2-0.2c0.3,0.1,2.6,0,4.3-0.4c0,0,0,0,2.4,0.6c2,0.5,2,0.5,2,0.5
	C1363,8.1,1364.4,7.4,1363.5,7.4z M1369.2,7.8c0,0-1.1-0.1-1.5-0.1c-0.5,0-0.8,0.1-0.8,0.1s0.4,0.1,0.8,0.1S1369.2,7.9,1369.2,7.8z"
	/>
</svg>
