<?xml version="1.0" encoding="utf-8"?>
<!-- Generator: Adobe Illustrator 19.2.0, SVG Export Plug-In . SVG Version: 6.00 Build 0)  -->
<svg version="1.1" id="Layer_1" xmlns="http://www.w3.org/2000/svg" xmlns:xlink="http://www.w3.org/1999/xlink" x="0px" y="0px"
	 viewBox="0 0 1370.3 28.8" style="enable-background:new 0 0 1370.3 28.8;" xml:space="preserve">
<style type="text/css">
	.st0{fill:#FFFFFF;}
</style>
<g>
	<path class="st0" d="M1179.2,26.8c0.6,0,1.1,0.3,1.6,0.3h-14.6c1.6,0,2.8-0.4,2.9-0.5C1169.3,26.5,1176.6,26.9,1179.2,26.8z"/>
	<path class="st0" d="M1161.9,27.2c-0.7,0-1.6-0.1-2.5-0.1h6.7C1164.9,27.1,1163.4,27.2,1161.9,27.2z"/>
	<path class="st0" d="M1323.2,20.9c-0.3,0-0.6-0.1-0.7-0.2c0.8,0.1,1.3,0.1,1.5,0.2C1323.9,20.8,1323.6,20.9,1323.2,20.9z"/>
	<path class="st0" d="M1324.2,20.8C1324.2,20.8,1324.1,20.8,1324.2,20.8C1324.1,20.8,1324.2,20.8,1324.2,20.8z"/>
	<path class="st0" d="M1370.4,13.1c-1,0-0.7,0-0.8-0.1c-0.2-0.2-3.1-0.7-5.9-0.7c0,0,0,0-2.6,0c-0.3,0-0.3,0-0.3,0
		c-0.3,0.1,0.1,0.1,1,0.1c0.9-0.1,1.8,0.9,1.8,0.9c0,0,0.5-0.1,1.1-0.1c0.6,0,2.2,0.2,2.2,0.2c0,0.1-1.7,0.1-2.3,0.1
		c-0.6-0.1-1.7-0.2-2.3-0.3c0,0,0,0-0.5,0.1c-6.7,1.2-13.9,0.7-20.9,0.8c-4.8,0.1-9.6,0.3-14.5,0.4c-5,0.1-10,0-14.9,0
		c-2,0-4.1,0.5-5.8,0.4c-6.9-0.7-9.3-0.7-9.3-0.7c-6.3,0.2-16.6,0.3-22.9,0.3l-33.3,0c-6.3,0-15.6-0.3-20.6-0.7c0,0,0,0-4.7,0.2
		c-0.5,0-0.5,0-0.5,0c-0.6-0.3-2.1-0.3-3.4-0.1c-1.3,0.2-6.4-0.3-8.4-0.5c0,0,0,0-1.9-0.1c-1.3-0.1-1.3-0.1-1.3-0.1
		c-1.4,0.1-3.5,0.1-4.7,0.2s-4.1-0.1-4.4,0c-0.3,0.1-3,0.2-5.5,0c0,0,0,0-2.3-0.1c-2.5-0.1-5,0-7.5,0c-2.4,0-2.4,0-2.4,0
		c-2.5,0.3-5,0.4-5.6,0.2c-0.6-0.2-3.9-0.2-6.6,0.3c0,0,0,0-2.3-0.7c-2.2-0.6-4.9,0.1-7-0.4c-0.3-0.1-0.9-0.1-1.2-0.1
		c-2.1,0.3-4,0.3-6.3-0.1c-1.8-0.3-1.8-0.3-1.8-0.3c-2.9,0-7.3,0.2-9.9,0.5c0,0,0,0-2.9-0.5c-1.7-0.3-1.7-0.3-1.7-0.3
		c-1.8,0.3-4.5,0.4-6.1,0.2c0,0,0,0-1.4,0c-3.1-0.1-6.2,0.1-9.2,0c-4.3-0.2-8.6-0.3-12.9-0.7c-2.6-0.3-2.6-0.3-2.6-0.3
		c-3.3,0.1-5.9,0.3-5.7,0.4c0.2,0.1-1.7,0.6-4.8,0.6c-3.1,0-13,0-15.3,0c-2.3,0-8.9-0.7-9.9-0.5c-1,0.1-6.2-0.3-8.6-0.3
		c0,0,0,0-2.3-0.1c-1.4,0-1.4,0-1.4,0c-1.8-0.2-3.5-0.3-3.7-0.2c-0.2,0.1-2.6,0-4.5-0.3c0,0,0,0-1.9-0.1c-3.2-0.2-3.2-0.2-3.2-0.2
		c-3.5,0.2-6.9,0.2-7.6,0c-0.6-0.2-3.8-0.8-5.8-0.8c-2,0-9.6,0.5-12.2,0.4c0,0,0,0-2-0.4c-2.9-0.6-2.9-0.6-2.9-0.6
		c-3.2,0.1-5.9,0.3-6,0.4c-0.1,0.1-2.9,0.2-6.2-0.2c0,0,0,0-3.2,0c-3.3,0-3.3,0-3.3,0c-3.7,0-6.7,0.1-6.9,0.2
		c-0.1,0.1-4.8,0.7-10.1,0.9c0,0,0,0-4.6-0.3c-3.7-0.3-3.7-0.3-3.7-0.3c-4.1,0-8-0.2-8.8-0.3c-0.8-0.2-5.6-0.3-9,0.1
		c0,0,0,0-3.2-0.7c-2.3-0.5-2.3-0.5-2.3-0.5c-2.7,0.2-5.6,0.3-6.3,0.4s-2.9-0.1-2.5-0.2c0.4-0.1,6.4-0.5,12.3-0.5c0,0,0,0,5.5,0
		c2.3,0,2.3,0,2.3,0c2.5-0.2,6.7-0.2,9.3-0.1c0,0,0,0.2,2.4,0.3c2.3,0.1,4.6,0.2,6.9,0.2c2.5,0,5,0,7.5,0c2.5,0,5-0.2,7.5-0.2
		c5.4,0,10.7,0.5,16.2,0.4c5.3-0.1,10.9-0.4,16,0c7.9,0.6,12.2,0.5,12.2,0.5c6.3-0.1,15.4-0.1,20.1,0c4.8,0.1,18.4,0.4,19.7,0.6
		c1.3,0.2,5.4-0.2,6.6-0.3c1.1-0.1,6.3-0.1,9.3,0c3,0,14,0.5,18.1,0.6c0,0,0,0,3.7,0.1c2.6,0.1,2.6,0.1,2.6,0.1
		c3,0.3,6.6,0.5,8.1,0.3c0,0,0,0,1.6,0c1.9,0,1.9,0,1.9,0c2,0.1,5.2-0.1,7.1-0.4c0,0,0,0,2,0.7c1.1,0.4,3.6,0.3,5.4,0.2
		c6.1-0.2,11.9,0.5,17.9,0.5c2.6,0,4.9,0.6,7.8,0.1c2.1-0.4,5.1-0.4,7.6-0.3c3.3,0.1,3.3,0.1,3.3,0.1c3.7,0.3,6.8,0.4,7,0.4
		c0.2-0.1,2.2-0.1,4.5,0c2.3,0.1,9.9,0.5,12,0.6c2.1,0.1,8.2-0.4,8-0.4c0,0,0,0,0.1,0c1.1,0.5,2.7,0.4,4.1,0.4c8.6,0,17.2,0,25.8,0
		c0.3,0,0.6-0.2,0.8-0.3c0.1,0,0.1,0,0.1,0c0.1-0.1,1.5,0.1,3,0.3c0,0,0,0,1.4,0c3.7-0.1,3.7-0.1,3.7-0.1c4.4-0.2,8.6-0.1,9.5,0
		c0.9,0.2,5.5-0.2,7.7-0.2c2.3,0,8.6,0.2,9.2,0.1c0.5-0.1,1.2-0.3,0.2-0.3c-1,0-3-0.7-3.6-0.6c-0.6,0.1-7.1,0.1-13.4,0
		c0,0-1.3,0-7.6-0.2c-2.5-0.1-5,0-7.5,0c-4.3,0.1-8.4-0.6-12.7-0.5c-4.2,0.1-8.4,0.1-12.6,0c-1.4,0-2.8-0.1-4.2,0
		c-2.3,0.1-2.3,0-2.3,0c-2.7-0.2-6-0.2-7.4-0.3c-1.4-0.1-5.6,0.2-6.2,0.2c0,0,0,0-0.5,0c-2.8,0-5.5-0.5-8.2-0.5
		c-8.4-0.3-13.9-0.4-13.9-0.4c-6.3-0.1-14.9-0.4-19.1-0.5c-4.2-0.2-16.7-0.3-18.3-0.3c0,0,0,0.1-1.5-0.2c-1.4-0.3-3.4-0.1-5.1-0.1
		c-1.9,0-3.8,0-5.7,0c-1.7,0-1.7,0-1.7,0c-1.9,0-8.4-0.1-14.4-0.3c-6-0.2-23.7,0-25.9-0.1c0,0,0-0.1-1.9-0.3
		c-5.3-0.7-10.8-0.3-16.2-0.4c-3.9-0.1-7.8,0.3-11.6-0.4c-0.7-0.1-0.7-0.1-0.7-0.1c-1.2,0.2-3.4,0.3-5,0.1c0,0,0,0-1.4,0
		c-7.5-0.2-15.1,0-22.5-0.5c-7.9-0.5-12.2-0.5-12.2-0.5c-6.3,0.1-16.7,0.1-23,0.1c0,0-9.4,0-19.6-0.5c-7.2-0.3-14.3,0-21.4-0.1
		c-7.1-0.1-14.2,0.2-21.2,0.2c-0.7,0-0.7,0-0.7,0c-0.7,0-1.5,0-1.6,0.1c-0.2,0.2-0.9,0.4-1.4,0.2c-0.5-0.2-2.6-0.5-3.7-0.3
		c-1.1,0.2-5.9-0.4-7.3-0.5c-1.4-0.1-5.4,0.5-6,0.3c-0.5-0.2-3-0.7-4.2-0.7c-1.3,0-4.9,0.1-5.8,0.3c-0.9,0.2-3.6,0.5-4,0.3
		c-0.3-0.2-5.8-0.6-11.5-0.7c0,0,0,0-5,0.1c-3.1,0-6.1,0.6-9.3,0.4c-2-0.1-3.9-0.3-5.8-0.4c-1.9-0.1-3.9-0.1-5.7,0
		c-10.5,0.7-20.2,0.6-20.2,0.6c-6.3-0.1-16.6-0.2-23-0.2c0,0-10,0-20.7,0c-2.1,0-4.3,0.3-6.4,0.4c-2.3,0.1-4.6-0.1-6.9,0
		c-2.2,0.1-4.2-0.4-6.6-0.1c-2.1,0.3-4.5,0.1-6.8,0.1c-2.5,0-5.1-0.2-7.4,0c-9.2,0.7-18.6,0-27.6,0.5C708.7,6.2,698.3,5.8,688,6
		c-3.3,0.1-6.6,0.3-9.9,0.4c-3.6,0.1-7.3,0-10.9,0c-3.4,0-6.9-0.1-10.3,0c-2.5,0.1-4.9,0.4-7.6,0.4c-2.5,0-2.5,0-2.5,0
		c-2.8,0.2-7.1,0.1-9.4-0.2c0,0,0,0-2,0.2c-6.7,0.5-13.5,0.4-20.2,0.4c-1.9,0-3.3,0.6-5.3,0.4c-2.5-0.2-5.5-0.7-7.4-0.3
		c-2.5,0.4-2.5,0.4-2.5,0.4c-2.5-0.1-9.8-0.1-16.1-0.1c0,0-21.8,0-38.5,0c-1.8,0-1.8,0-1.8,0c-2.5,0.1-4.9,0.2-5.3,0.1
		c-0.4-0.1,1.2-0.6,6.4-0.6c0,0,0,0,4.1,0.1c4,0.1,4,0.1,4,0.1c3.8-0.5,7-1,7-1.1c0-0.1,0.3-0.1,0.6,0.1c0.3,0.2,1.5,0.5,2.4,0.5
		c0.9,0,3.4-0.2,3.1-0.4c-0.2-0.2,0.1-0.8,1.3-0.8c1.2,0,4.4,0,4.4-0.1c0-0.1-0.8-0.3-1.9-0.3c0,0,0,0-1,0c-4.4,0-8.8,0-13.2,0
		c-1,0-1,0-1,0c-1.3-0.2-4-0.3-6-0.2c-2,0.1-7.5,0.5-7.9,0.7c-0.4,0.2-1.9,0.8-2,0.6c-0.1-0.3-1.7-0.9-3.3-0.8c0,0,0,0-1.5,0
		c-1.3,0-1.3,0-1.3,0c-1.5,0.1-3.6,0.1-4.6,0.1c-1,0-4.2,0.1-4.6,0.3c-0.5,0.2-2.1,0.6-2.6,0.6s-2.7-0.1-3.2-0.3
		c-0.6-0.2-2.6-0.6-2.8-0.4c-0.2,0.2-2,0.5-3.8,0.4c-1.8-0.1-7-0.3-7-0.3s-2.3,0-4.5-0.1c-2.1-0.2-9.2,0.1-10.5,0c0,0,0,0-1.4-0.1
		c-1.2-0.1-1.2-0.1-1.2-0.1c-1.7-0.1-3.3-0.1-3.6,0c-0.3,0.1-3.8,0-5.7,0.3c0,0,0,0-1.3-0.2c-6.1-0.7-7.1-0.7-7.1-0.7
		c-6.3,0.2-13.1,0.2-15,0.1c0,0,0,0-2,0.5c-1.5,0.4-4.4,0.1-6.7,0.1c-2.3,0-4.6,0.1-6.9,0c-2.3-0.1-4.7-0.2-7-0.4
		c-2.1-0.2-3.7,0.5-6,0.1c-2.1-0.3-4.9-0.1-7.4-0.1c-2.3,0-4.6,0-6.9,0c-4.8-0.1-9.6-0.3-14.5-0.4c-1,0-1,0-1,0
		c-1.3,0.2-2.7,0.3-3.1,0.2c-0.4-0.1-4,0.1-5.7-0.1c-1.7-0.2-8.7,0-12.6-0.3c-3.9-0.3-17.9,0-21.7-0.2c0,0,0,0-3.8,0.2
		c-1.6,0.1-2.7,0.5-4.4,0c-0.7-0.2-2.2-0.1-3.3-0.1c-3.1,0-6.2,0.2-9.2-0.1c-2.9-0.2-5.5,0.2-8.3,0.1c-2-0.1-4.2,0.3-5.9-0.4
		c-0.2-0.1-0.7,0-1.1,0c-1.8,0.1-3.5,0.7-5.2,0.4c-1.8-0.4-3.5-0.4-5.3-0.4c-2.6-0.1-5-0.8-7.5-0.4c-2.9,0.4-5.8,0.4-8.7,0.4
		c-1.8,0-3.5,0-5.4-0.3c-1.6-0.3-4.2-0.3-6.5,0.2c-2,0.4-2,0.4-2,0.4c-2.1-0.3-6.3-0.3-9.3-0.2c0,0,0,0-2.5,0c-2.3,0-4.7-0.3-7-0.4
		c-2.5-0.1-2.5-0.1-2.5-0.1c-2.5-0.1-6.6,0-9.1,0.3c0,0,0,0-1.1-0.3c-2-0.5-4-0.3-6-0.3c-26.6,0-53.2,0-79.8,0c-1.8,0-1.8,0-1.8,0
		c-1.8-0.2-5.1-0.1-7.3,0.2c0,0,0,0-1.4-0.2c-3.9-0.5-7.5-0.4-11.4-0.2c-2,0.1-4.1,0.1-6.2,0.1c-26.8,0-53.6,0.2-80.4,0.2
		c-3.6,0-3.6,0-3.6,0c-3.9,0-7.2-0.3-7.3-0.5c-0.1-0.1-0.9-0.5-1.6-0.4c-0.7,0.1-2.8,0.4-3.1,0.3c-0.2-0.1-1.4-0.2-1.8-0.1
		c-0.4,0.1-2.2,0.2-3,0.1c-0.8-0.2-8.1-0.6-14.5-0.6c0,0-6.8,0-14.8,0v25.3h1159.1c-3.4-1-7.4-0.7-5.5-0.7c0,0,0-0.1,2.1-0.6
		c1.6-0.4,4.4-0.3,6.6-0.2c1.9,0.1,3.5,0.1,5.4,0c2.2-0.1,2.2-0.1,2.2-0.1c2.7,0.1,4.5-0.2,4.1-0.5c-0.4-0.3-1-1.1-0.3-1.1
		c0.6,0,2.1-0.2,2.2-0.3c0-0.1-0.3-0.5-0.9-0.4c-0.5,0-2.5,0.1-2.8,0c-0.3-0.1-1.6-0.2-1.8,0c-0.1,0.2-1.2,0.6-2.2,0.7
		c-0.9,0.1-3.5,0.3-3.6,0.2c-0.1-0.1,0.1-0.5,0.8-0.6c0.7-0.1,2.4-0.2,2.4-0.3c0,0-0.6-0.2-1.4-0.2c-0.8,0-3,0-3,0.1
		c-0.1,0.1-2.1,0.7-4.4,1.1c0,0,0,0-2.5,0c-5.3,0-5.3,0-5.3,0c-5.9-0.1-10.2-0.3-9.5-0.4c0.7-0.1,2.9-0.3,3.1-0.3
		c0.2,0.1,1.7,0.2,2.6,0c1-0.2,5.4,0.2,6.8,0.2c1.4,0,5.4-0.1,5.4-0.2c0-0.1-1.7-0.6-4-0.6c-2.3,0-7.6-0.2-7-0.4
		c0.6-0.2,5.8-1.1,11.2-1.3c0,0,0,0,4.8,0.6c1.4,0.2,3,0.4,4.4,0.4c1.2,0,2.4-0.2,3.5-0.2c1.2,0,1.2,0,1.2,0c1.2,0,3.2,0.1,4.4,0.2
		c0,0,0-0.1,1-0.1c1.2,0,1.2-0.1,1.2-0.1c1.6-0.2,3.1-0.3,3.3-0.1c0.2,0.2,2.8,0.3,5.6,0c0,0,0,0,1,0.2c1.6,0.4,1.6,0.4,1.6,0.4
		c1.6-0.1,3.6-0.3,4.5-0.5c0.9-0.2,6,0.2,8.3,0.1c0,0,0,0,2.2,0c1.8,0,1.8,0,1.8,0c2.1,0.2,3.8,0.4,3.8,0.5c0,0.1-0.4,0.5-0.9,0.5
		c-0.5,0-2.3,0.1-2.1,0.3c0.3,0.2,0.5,0.9-0.1,1.1c-0.7,0.2-3.3,0.7-3.9,0.7c-0.6-0.1-2.7-0.2-2.9-0.2c-0.2,0.1-1.9,0.2-3.2,0.2
		s-4.8-0.3-4.9-0.1c-0.1,0.1,0.2,0.6,1,0.7c0,0,0,0,0.7,0c2.5,0,2.5,0,2.5,0c2.7,0,5.9-0.1,7.2-0.3c1.3-0.2,4.8,0.8,5.9,1
		c1.1,0.2,4.6-0.4,5.7-0.4c1.1,0,4.1-0.5,4.1-0.6c0-0.1-0.2-0.5-0.5-0.4c-0.3,0.1-1.2,0.2-1.4,0c-0.2-0.1-1.3-0.5-1.9-0.4
		c-0.6,0.1-2.5,0.3-2.6,0.2c-0.1-0.1,0.7-0.6,2.2-0.7c1.5,0,5.5-0.2,5.2-0.4c-0.4-0.1-2.2-0.5-3.3-0.5s-4.2-0.1-4.2-0.2
		c0-0.1,4.4-0.5,10.1-0.5c5.7,0,20.5,0.2,20.5,0.5c0,0.3-0.2,1.1-0.5,0.9c-0.3-0.2-1.1-0.7-1.3-0.7c-0.2,0-1,0.1-1.2,0.2
		c-0.1,0.1-0.8,0.6-1,0.4c-0.2-0.2-1.4-0.6-2.3-0.6c-0.9,0-3.5,0.1-3.6,0.2c-0.1,0.1-0.6,0.5-0.8,0.5c-0.3-0.1-2-0.2-2.8-0.1
		c-0.8,0.1-3.1,0.5-3.2,0.5c-0.1,0-1.1-0.2-1.3,0c-0.2,0.2-0.6,0.6-0.6,0.7c0,0,0.3,0.2,0.1,0.3c-0.2,0.1-0.3,0.4,0.1,0.5
		c0,0,0,0,0.3,0c3.7-0.2,3.7-0.2,3.7-0.2c4-0.1,9.4-0.1,12,0.1c0,0,0,0,2.3,0.1c0.8,0,0.8,0,0.8,0c1-0.2,4.1-0.3,7-0.1
		c0,0,0,0,3,0.1c6.6,0.2,13-0.6,19.6-0.5c3.1,0.1,3.1,0.1,3.1,0.1c3.4,0.2,7.4,0.2,8.9,0.1c0,0,0,0,1.4-0.1c1.2-0.1,2.8,0,3.7-0.3
		c1.9-0.5,1.9-0.5,1.9-0.5c1.4,0.4,3.5,0.5,4.6,0.3c0,0,0,0,1,0c12.1,0.1,24.1-0.8,36.3-0.5c2.5,0.1,2.5,0.1,2.5,0.1
		c2.7,0,6.3,0.1,8,0.3c1.7,0.1,8.1-0.1,11.1-0.3c0,0,0,0,2.7,0c1,0,1,0,1,0c1.4,0.2,2.7,0.3,2.9,0.3c0.2-0.1,1.7-0.3,2-0.2
		c0.2,0,0.9,0.1,2.9,0.3v-1.6c-2-0.2-4.8-0.2-7.4,0.3c-2.7,0.5-2.8,0.5-2.8,0.5c-3.9-0.7-6.2-1.4-5-1.6c1.2-0.2,1.8-0.6-0.7-0.4
		s-9.1-0.4-8.4-0.5c0.7-0.1,0.7-0.3-2.7-0.3c-3.3,0-11.6,0.5-11.2,0.7c0.4,0.2,0.4,0.7-1.1,0.7c-1.5,0-5.1-0.2-4.1-0.3
		c1-0.2,0.9-0.8-2.7-0.9c-3.6-0.1-9.9,0.3-10,0.2c0-0.1,1.3-0.6,3.2-0.6c0,0,0,0,1.7,0c1.7,0,1.7,0,1.7,0c0.6,0,1.2-0.2,1.8-0.2
		c-0.1-0.1,0.1-0.3,0.5-0.4c1-0.1,3.5-0.8,3.2-0.9c-0.3-0.1-3.7-0.6-6.5-0.5c-2.7,0.1-10.2,0.5-10.2,0.3c0-0.1,0.1-0.4,0.3-0.4
		c0,0,0,0,0.1,0c6.3,0,7.5-0.2,7.5-0.2c6.3,0,11.3,0.1,11,0.3c-0.2,0.2-0.4,0.7,0.3,0.8c0.7,0.1,2.4,0.3,1.9,0.4s-1.7,0.3-1.7,0.4
		c0,0.1,0.3,0.3,0.6,0.4c0,0,0,0,0.2,0c0.5-0.1,0.9-0.3,1.4-0.3c8.1,0.2,12.8,0,12.8,0c6.3-0.2,11.9-0.4,12.4-0.3
		c0.6,0.1,4,0.1,6.3,0c0,0,0.1,0,2.2-0.1c1.8-0.1,3.5,0.3,5.5,0.2V13.1z M1347.4,23.2c0,0,1.1-0.1,1.5-0.1s0.8,0,0.8,0.1
		s-0.3,0.1-0.8,0.1S1347.4,23.2,1347.4,23.2z M1343.2,23.6c0-0.1,0.1-0.3,0.1-0.3c0.1,0,0.3,0.2,0.3,0.3c0,0.1-0.1,0.1-0.1,0.1
		S1343.2,23.7,1343.2,23.6z M1338.2,22.3c0,0,2.2-0.1,3.1-0.1c0.8,0,1.5,0,1.5,0.1c0,0-0.7,0.1-1.5,0.1
		C1340.4,22.4,1338.2,22.3,1338.2,22.3z M1316.4,22.9c0,0,0-0.1,0.1-0.1c0.1-0.1,0.6-0.2,0.7-0.2c0.1,0,0.1,0.1-0.1,0.2
		C1317,22.8,1316.5,22.9,1316.4,22.9z M1315.6,23.2c-0.1,0,0.3-0.2,0.5-0.2c0.1,0,0.2,0,0.3-0.1c0,0,0,0.1-0.1,0.1
		C1316.1,23.1,1315.6,23.3,1315.6,23.2z M1171.6,24.8c0,0,0.2-0.1,0.4-0.1c0.2,0,0.8,0,0.8,0c0,0-0.6,0.1-0.8,0.1
		C1171.8,24.9,1171.6,24.9,1171.6,24.8z M177.9,5.3c-0.1,0-1.8,0.1-3.6,0c-1.8-0.1-5.8-0.6-3.6-1c0,0,0,0,1.4,0.1c2,0.1,2,0.1,2,0.1
		C176.3,4.9,177.9,5.3,177.9,5.3z M208.4,5.2c-0.4,0.1-5.3,0.5-9.9,0.5c-4.6,0.1-17.4-0.3-17.8-0.3c-0.4,0-1.8,0-1.7-0.1
		c0.1-0.2,2.3-0.3,4.9-0.1c2.6,0.2,10-0.3,10.3-0.2c0.3,0.1,2.6,0.1,5.2,0C202.1,5,208.8,5.1,208.4,5.2z M210.8,5.5
		c0,0.1-0.1,0.1-0.1,0.1c-0.1,0-0.3-0.1-0.3-0.1c0-0.1,0.1-0.3,0.1-0.3C210.7,5.2,210.8,5.4,210.8,5.5z M217,5.4
		c0,0-0.3,0.1-0.8,0.1c-0.4,0-1.5,0-1.5-0.1c0,0,1.1-0.1,1.5-0.1C216.6,5.3,217,5.3,217,5.4z M224.9,5c0,0.1-2.9,0.6-4.1,0.8
		c-1.1,0.2-2.2,0.3-2.4,0.2c-0.2-0.1-0.3-0.4,0-0.6c0.3-0.2,2-0.7,3.2-0.7c0,0,0,0,0.9,0c0.7,0,0.7,0,0.7,0
		C224.2,4.9,224.9,5,224.9,5z M235.6,6c-2.9,0-11-0.1-10.4-0.3c0.5-0.2,2.4-0.3,3.2,0c0.9,0.2,2.9-0.4,2.6-0.6
		c-0.3-0.1,1.1-0.1,3.1,0C236.1,5.2,238.5,6,235.6,6z M246.7,5c0,0-1,0.1-1.3,0.1c-0.3,0-0.6-0.1-0.6-0.1s0.4-0.2,0.7-0.2
		C245.8,4.8,246.7,5,246.7,5z M262.7,5.4c0,0.1-1,0.3-2.2,0.4c-1.2,0.1-1.1-0.5,0.1-0.5C261.8,5.3,262.7,5.3,262.7,5.4z M602,21.9
		c0-0.1,0.6-0.2,1.4-0.2c0.8,0,2.8,0.1,2.8,0.2c0,0-2.1,0.2-2.8,0.2C602.7,22,602,22,602,21.9z M597.2,21.9c0,0,0.2-0.1,0.4-0.1
		c0.2,0,0.8,0,0.8,0c0,0-0.6,0.1-0.8,0.1C597.4,21.9,597.2,21.9,597.2,21.9z M565.5,21.7c0.4-0.1,2.8-0.5,4.4-0.4
		c1.6,0.1,8.8,0.4,11.7,0.5c2.9,0.1,8.2,0.5,4.9,1.1c0,0,0,0-3.4-0.7c-0.7-0.1-2.1-0.2-2.6-0.1c-2.4,0.7-5.5,0.5-7.5,0.3
		c-2.6-0.4-2.6-0.4-2.6-0.4C567.3,22,565.1,21.9,565.5,21.7z M563.1,21.4c0-0.1,0.1-0.1,0.1-0.1s0.3,0.1,0.3,0.1
		c0,0.1-0.1,0.3-0.1,0.3C563.3,21.7,563.1,21.5,563.1,21.4z M468.4,8.1c0,0,0,0-1.3,0c-1.4,0-2.8-0.4-4.1-0.4c-1.3,0-1.3,0-1.3,0
		c-1.4,0.3-2.9,0.3-3.4,0.1c-0.5-0.2-2.4-0.6-2.8-0.4s-1.7,0.6-2.2,0.5c-0.5-0.1-1.7-0.2-1.9-0.2s-1.4,0-2.4-0.2
		c-1-0.2-4.9-0.8-5.9-0.5c-1.1,0.2-4.8,0.9-5.6,0.9c-0.8,0-3.1-0.1-2.9-0.2c0.2-0.1,0-0.5-0.9-0.5c-0.8,0-2.9,0.1-3,0.2
		c-0.1,0.1-3.1,0.5-6.4,0.5c0,0,0,0-3,0c-0.3,0-0.3,0-0.3,0c-0.3-0.2-0.9-0.5-1.4-0.6c-0.4-0.1-2.1-0.2-2.7,0
		c-0.5,0.2-4.9,0.7-8.5,0.9c0,0,0,0-3.1-0.7c-0.7-0.1-2-0.1-2.7,0c-3.5,0.8-3.5,0.8-3.5,0.8c-3.7-0.5-6.9-0.8-7.3-0.7
		s-2.5-0.1-2.9-0.3c-0.3-0.2-1.7-0.1-3,0.1c0,0,0,0-1.2,0c-8.4,0-13.9,0-13.9,0c-6.3,0-11.3-0.1-11-0.3c0.2-0.1,0.7-0.5,0.6-0.5
		c-0.1,0-0.9,0-1.5,0.1c-0.6,0.2-3.8,0.6-4.9,0.6s-4.5-0.2-4.8-0.2c-0.3,0.1-3.1,0.2-5.9,0.2c-2.7,0-10.2-0.7-10.7-1
		c-0.4-0.3-2.8,0-2.6,0.1c0.2,0.1-1.3,0.6-4.3,0.8c0,0,0,0-1.7-0.4c-2.6-0.5-2.6-0.5-2.6-0.5c-2.2,0.4-4.7,0.6-5.5,0.4
		c-0.8-0.2-4.4-0.7-5.3-0.6c-0.9,0-4.4,0.1-4.6,0c-0.2-0.1-1.9-0.2-3.5,0c0,0,0-0.1-1.2-0.1c-3.3-0.1-6.6-0.2-9.9-0.2
		c-3.4-0.1-6.9,0-10.3,0c-4.4,0-4.4,0-4.4,0c-5,0-9.4-0.1-9.8-0.2s1.8-0.7,3.9-0.7c2.2-0.1,7.8,0.4,8.2,0.3c0,0,0,0,0.3,0
		c3.6-0.1,3.6-0.1,3.6-0.1c3.9,0,8.8,0,10.7,0.1c0,0,0,0,1.7-0.1c2.8-0.1,5.4-0.3,8.1,0.1c2.7,0.4,2.7,0.4,2.7,0.4
		c2.9-0.3,7.2-0.3,9.7,0c0,0,0,0,2.4-0.4c2.7-0.4,5.4-0.3,8.1,0c0.9,0.1,1.7,0.2,2.6,0.2c6.9,0,13.8,0.1,20.7,0
		c1.8,0,3.6-0.1,5.4,0.1C359.3,6.2,364,6,368.6,6c1.3,0,3-0.2,4,0c3.4,0.8,7,0.3,10.5,0.3c3.5,0,7.1,0.4,10.5-0.3
		c0.8-0.2,0.8-0.2,0.8-0.2c1.7,0.3,3.1,0.6,3,0.7c0,0.1-0.8,0.2-1.6,0.3c-0.8,0-3,0.2-3,0.2c0,0,0.8,0.2,1.8,0.2c1,0,3.6-0.2,4-0.4
		c0.4-0.2,5.6-0.8,10.8-0.8c0,0,0,0,4.6,0.1c2.3,0,2.3,0,2.3,0c2.5,0.2,5.5,0.4,6.6,0.6c0,0,0,0,1.1-0.2c1.1-0.2,1.1-0.2,1.1-0.2
		c1-0.1,3,0,4.4,0.2c0,0,0,0,1,0c5.5,0,11.1,0,16.6,0c1.3,0,2.9-0.1,3.8,0.2c2,0.5,2,0.5,2,0.5c2-0.1,3.8-0.4,3.9-0.6s1-0.7,1.5-0.4
		c0.5,0.3,2.7,0.7,4.2,0.5c1.5-0.2,6-0.4,6.5-0.2C469.7,6.7,470.2,7.8,468.4,8.1z M475.5,7.9c0,0-1.1,0.1-1.5,0.1
		c-0.4,0-0.8,0-0.8-0.1c0,0,0.3-0.1,0.8-0.1C474.3,7.8,475.5,7.9,475.5,7.9z M534.8,7.7c0,0,0,0-0.2,0.1c-2.5,0.6-5.4,0.4-8.1,0.4
		c-4.1,0.1-8.1-0.2-12.2,0.3c-2.5,0.3-2.5,0.3-2.5,0.3c-3.5-0.4-8.5-0.4-11.2-0.1c0,0,0,0-3.4-0.4c-1-0.1-2.3-0.2-3,0
		c-2.2,0.5-4.9,0.5-6.5,0.2c-2.1-0.4-4-0.2-6-0.3c-1.3-0.1-1.3-0.1-1.3-0.1c-1.7,0-2.8-0.1-2.4-0.2c0.4-0.2,2.7-0.6,4.1-0.5
		c1.4,0.1,5.8,0.2,6,0.2c0.2-0.1,1.4-0.2,1.7-0.1c0.3,0.1,1.4,0.3,1.6,0.2s1-0.1,1.3,0c0,0,0,0,0.3,0c3.9,0.1,7.7,0.4,11.6-0.2
		c1.4-0.2,3.7-0.3,4.9,0c1.9,0.5,3.9,0.4,5.4,0.3c3.7-0.4,7.3-0.3,11-0.4c1,0,1,0,1,0c1-0.2,2.9-0.4,4.1-0.4
		C532.1,7,534.9,7.5,534.8,7.7z M675.5,9.6c-0.3,0.1-5.6,0-11.9-0.2c0,0-3.1-0.1-10.1,0.8c-0.6,0.1-0.6,0.1-0.6,0.1
		c-0.8-0.1-3.9-0.4-6.9-0.7c0,0,0,0-2.2,0.3c-1.7,0.2-3.2,0.3-4.8,0.3c-12.1,0.2-24.2-0.4-36.3,0.4c-3.9,0.3-8,0-12,0
		c-4.2,0-8.5,0.2-12.6,0c-3.8-0.2-3.8-0.2-3.8-0.2c-4,0.1-8.1,0.4-9.1,0.6c-1,0.2-5.4-0.1-7.5,0.1c0,0,0,0-1.9,0
		c-4.8,0-9.6,0-14.3,0c-1.3,0-2.8,0-3.7,0.2c-2.1,0.6-2.1,0.6-2.1,0.6c-1.5-0.4-4.7-0.5-7.2-0.2c0,0,0,0-2-0.4
		c-2.2-0.4-4.9-0.5-6.5-0.2c-2.1,0.4-4,0.3-6,0.3c-3.1,0.1-6.1,0.1-9.2,0c-3.7-0.1-7.4,0.3-11.1-0.4c-1-0.2-3-0.2-3.8,0.1
		c-1.9,0.6-4,0.2-6,0.3c-1.9,0.1-3.9,0.4-5.8,0.4c-3.9-0.1-7.9,0.4-11.6-0.4c-0.5-0.1-0.5-0.1-0.5-0.1c-0.9,0.1-2.7,0.3-4.1,0.4
		c0,0,0,0-1.2,0.1c-2.7,0.3-5-0.4-7.6-0.5c-1.9,0-3.5,0.3-5.3,0.4c-1.6,0.1-3.5-0.3-5.2-0.3c-1.4,0-1.4,0.3-1.4,0.3
		c-1.6,0.2-3.4,0.3-4,0.3c0,0,0,0-0.6,0c-6.4,0-12.6-0.8-19-0.8c-7.3,0.1-10.5-0.2-10.5-0.2c-6.3-0.2-12-0.5-12.7-0.7
		c0,0,0,0-0.7-0.1c-3.9-0.1-3.9-0.2-3.9-0.2c-4.2,0.2-8.7,0.3-10,0.2c-1.3-0.1-5.2,0-6.6-0.1c0,0,0,0-1,0c-1.9,0-4,0.2-5.7-0.1
		c-1.2-0.2-1.2-0.2-1.2-0.2c-1.3-0.5,0.9-1,4.8-1c3.9,0,14.5,0.1,15.2,0.2c0.7,0.1,2.6,0.4,2.7,0.2c0.1-0.1,0.8-0.3,1.2-0.1
		c0.4,0.2,2.4,0.6,2.8,0.3c0.4-0.2,2.8-0.6,4.6-0.3c0,0,0,0,1.6,0c19.7,0,39.4,0,59.1,0c9.4,0,16.6,0,16.6,0c6.3,0,16.7,0,23-0.1
		c0,0,7.3,0,16.8,0.4c11,0.5,22.3-0.3,33.4,0.5c2.4,0.2,5-0.1,7.4,0c6.1,0.2,11.9-0.4,17.9-0.5c0.4,0,0.4,0,0.4,0
		c0.5-0.2,2-0.1,3.3,0.2c0,0,0,0,1.4-0.4c1.7-0.5,4-0.4,5.4-0.2c4.6,0.9,4.6,0.9,4.6,0.9c4.5-0.7,8.4-1.1,8.7-1c0,0,0,0,0.4,0
		c3.5,0.1,7.1-0.2,10.4,0.4c0.4,0.1,1.1-0.1,1.5-0.1C611.7,9,615.2,9,618.7,9c3.1,0,6.1,0,9.2,0c1.4,0,2.8,0.1,4.2,0.3
		c3,0.3,3,0.3,3,0.3c3.6-0.1,6.8-0.3,7.2-0.4c0.4-0.1,4.4-0.3,7.9,0c0,0,0,0,3.3-0.1c0.2,0,0.2,0,0.2,0c0.2,0,2.1,0,4.2-0.1
		c2.1-0.1,10.5,0.4,14.4,0.3c0,0,0,0,3.5-0.2c0.2,0,0.2,0,0.2,0C676.2,9.1,675.8,9.5,675.5,9.6z M687.2,9.3c-4.5,0-8.2-0.1-8.2-0.1
		c0-0.1,2.6-0.2,5.7-0.2s12-0.1,12.9-0.1c0.9-0.1,4-0.2,4.4-0.1C702.5,8.9,691.7,9.3,687.2,9.3z M778.7,20.6
		c0.5-0.4,1.7-0.4,2.8-0.1c1.1,0.3,1,1.5-0.1,1.5C780.4,22,778.2,21,778.7,20.6z M764.2,8.9c0,0-0.6,0-6.3,0c-4.6,0-9.2,0-13.8,0
		c-2.5,0-5.3-0.3-7.6,0.4c-0.4,0.1-1.8,0.1-2.1-0.1c-1.3-0.5-2.8-0.3-4.3-0.3C727,9,727,9,727,9c-3.4,0.2-6.3,0.4-6.6,0.3
		c-0.2-0.1-3-0.2-5.6-0.2c-2.6,0.1-9.6,0.2-9.6,0c0-0.2,3.6-0.6,7.9-0.8c0,0,0,0,3.8-0.2c3.9-0.2,3.9-0.2,3.9-0.2
		c4.4-0.3,8.3-0.2,8.5,0c0.2,0.2,2.3,0.3,4.7,0.1c2.4-0.1,11-0.3,13.5,0c2.6,0.3,10.3-0.1,11.7,0.1c0,0,0,0,1,0c4.2,0,8.4,0,12.6,0
		c0.7,0,0.7,0,0.7,0C774.7,8.2,770.4,8.6,764.2,8.9z M772.7,22.3c0,0,0,0-1.1-0.3c-2.4-0.6-4.7-0.3-7.1-0.4c-4.6-0.1-9.2,0-13.7,0
		c-1,0-1,0-1,0c-1.1,0,0.1-0.4,2.8-0.7c0,0,0,0,2.5-0.1c2.5-0.1,2.5-0.1,2.5-0.1c2.8-0.2,6.5-0.3,8.3-0.2c1.8,0.1,8.7,0.8,9.7,1.1
		C776.6,21.8,775.3,22.1,772.7,22.3z M782,8.5c-2.7,0.1-4.9-0.4-4.5-0.6c0.3-0.1,1.9-0.2,3.6-0.2C782.7,7.7,784.8,8.4,782,8.5z
		 M798.1,8.5c0,0-1.9,0-8.6,0c-0.1,0-0.3-0.1-0.4-0.1c0,0,0,0,0,0c0.1-0.1,1.8-0.2,3.7-0.2c1.9-0.1,7.8-0.2,8-0.2
		c0.2,0,2.1-0.1,2.4-0.1c0.3-0.1,1.5,0,2.7,0.2c0,0,0,0,1,0.1c0.9,0.1,0.9,0.1,0.9,0.1C808.8,8.3,804.5,8.4,798.1,8.5z M810.9,21.7
		c0,0.1-1.7,0.4-3.7,0.4c0,0,0,0-1.8,0c-2.7,0-5.6-0.5-7.9-0.2c-3.9,0.5-3.9,0.4-3.9,0.4c-4.1-0.1-7.7-0.3-8.1-0.5
		c-0.4-0.2,0.8-1.3,1.6-1.5c0.8-0.2,2.3-0.3,3.3-0.1c1,0.2,4.6,0,7.1-0.1c0,0,0,0,2.1-0.1c0.3,0,0.3,0,0.3,0
		c0.4,0.1,0.7,0.3,0.8,0.4c0.1,0.1,1.1,0.2,2.3,0.2c1.2,0,4.3,0,4.4,0.1c0.2,0.2,1,0.7,1.6,0.7C809.4,21.4,810.9,21.6,810.9,21.7z
		 M824.5,20.9c0,0.2-1.6,0.7-2,0.5c-0.4-0.1-1.2-0.2-1.7-0.2c0,0,0,0-0.2,0c-3.1,0.6-3.1,0.6-3.1,0.6c-1.6-0.3-2.2-0.6-1.5-0.6
		c0.7,0,2.7-0.1,2.8-0.3c0.1-0.2,0.8-0.5,1.2-0.3c0.4,0.1,1.6,0.7,2.5,0.4C823.5,20.7,824.5,20.7,824.5,20.9z M886.9,22.3
		c0-0.1,1.8-0.2,4.1-0.3c0,0,0,0,2.1,0c1.7,0,3.4,0.2,5.1,0.2c2,0,4-0.2,6-0.2c1.8,0,3.5,0,5.3,0.4c1.6,0.3,1.6,0.3,1.6,0.3
		c2.4-0.1,0.1,0-5.1,0.2c0,0,0,0-4.7-0.1c-4.8-0.1-4.8-0.1-4.8-0.1C891.2,22.6,886.9,22.4,886.9,22.3z M860.1,21.5
		c-0.1,0-5.6-0.1-7.7-0.2c-2.1-0.1-5.2,0-6.9,0.2c-1.7,0.2-6.7-0.2-6.5-0.3c0.1-0.1,0-0.4-0.9-0.4c-0.9,0-1.5-0.4,0.4-0.9
		c1.9-0.4,7.3,0.5,7.6,0.4c0.3-0.1,1.1-0.2,1.3-0.1c0.2,0.2,0.9,0.5,1.2,0.3c0.2-0.2,1.8-0.5,2.8-0.2c1.1,0.2,4.3,0.8,4.6,0.6
		c0.4-0.2,1.5-0.3,2.1-0.1C858.8,21,860.2,21.5,860.1,21.5z M915.1,20.4c0.1,0.1-0.4,0.3-1.1,0.4c-0.6,0.1-2.6,0.3-3,0.2
		c-0.4-0.1-1.8-0.2-2.3-0.1c-0.5,0.1-2.4,0.1-2.6,0c-0.2-0.1-2,0-4.1,0.2c0,0,0,0-1.6,0c-9,0-17.9,0-26.9,0c-0.9,0-0.9,0-0.9,0
		c-1,0.1-0.7,0.2,0.8,0.4c0,0,0,0,1.3,0.1c1.4,0.1,2.9-0.2,4.3,0.3c0.7,0.2,0.7,0.2,0.7,0.2c1.3,0,2.3,0.1,2.2,0.2
		c0,0.1-2.1,0.1-4.6,0c-2.5-0.1-8.9-0.5-8.6-0.6c0.2-0.1,0.6-0.5-0.1-0.5c-0.7,0-2.3,0.1-2.4,0.3c-0.2,0.2-1.2,0.6-2,0.5
		c-0.8,0-3.1-0.3-2.6-0.6c0.5-0.2,2.4-0.7,3.5-0.7c1.1,0,4.2-0.1,4.5-0.3c0.4-0.1,3-0.5,5.3-0.6c2.2-0.1,7.9-0.1,8.7,0.1
		c0.8,0.2,4.5,0.8,6.6,0.8c2.2,0,7.2-0.4,6.4-0.5c-0.8,0,1.7-0.3,7.4-0.4c0,0,0,0,5.1-0.1c2.1,0,4,0.1,5.8,0.5
		C915.1,20.4,915.1,20.4,915.1,20.4z M921.2,20.6c0,0-1.7,0.1-2.3,0.1c-0.6,0-1.1,0-1.1-0.1c0,0,0.5-0.1,1.1-0.1
		C919.5,20.5,921.2,20.5,921.2,20.6z M928.3,20.7c0,0,0,0-1,0.1c-0.9,0.1-0.9,0.1-0.9,0.1c-0.9,0.1-2.4-0.1-2.7-0.2
		c-0.3-0.1,0.5-0.2,1.9-0.2C927,20.5,929.4,20.6,928.3,20.7z M937.1,22.7c0,0.1-5.2,0.2-11.5,0.2c0,0-1,0-7.2,0
		c-0.1,0-0.3-0.1-0.4-0.1c-0.1,0-0.1,0-0.1,0c0.1-0.1,9.3-0.2,12.8-0.2C934.2,22.6,937.1,22.6,937.1,22.7z M1100.2,17.7
		c-0.1,0.1-0.5,0.1-0.9,0c-0.4-0.1-1.5-0.8-0.8-0.7C1099.2,17,1100.3,17.5,1100.2,17.7z M1113,17.9c-0.2,0.1-4.8,0.1-6.5,0
		c-1.7-0.1-1.5-0.4,0.4-0.8c0,0,0,0,1.5,0c1.6,0,1.6,0,1.6,0C1111.9,17.4,1113.2,17.7,1113,17.9z M1121.6,17.9
		c-2,0.2-5.7-0.1-4.9-0.3c0.8-0.2,5.3-0.3,6.4-0.2C1124.4,17.5,1123.7,17.7,1121.6,17.9z M1128.7,18.1c0,0.1-0.1,0.1-0.1,0.1
		c-0.1,0-0.3-0.1-0.3-0.1s0.1-0.3,0.1-0.3S1128.7,18,1128.7,18.1z M1132.2,18c0,0.1-0.1,0.3-0.1,0.3s-0.3-0.2-0.3-0.3
		c0-0.1,0.1-0.1,0.1-0.1C1132,17.8,1132.2,17.9,1132.2,18z M1141.8,22.6c0,0.1-2.5,0.4-5.5,0.5c-3,0.1-11.2-0.6-11.5-0.5
		c-0.3,0.1-1.9,0.1-2.8-0.1c0,0,0,0-0.8-0.1c-1.1-0.1-1.1-0.1-1.1-0.1c-1.2,0-2.2,0-2.2-0.1c0-0.1,1.8-0.3,4.1-0.3c0,0,0,0,2,0.1
		c2,0.1,2,0.1,2,0.1c2.2,0.2,5.6,0.2,7.6,0c0,0,0,0,2.2,0.3c1.7,0.3,1.7,0.3,1.7,0.3C1139.9,22.6,1141.8,22.6,1141.8,22.6z
		 M1144.8,25.4c1.1,0.2,1.3,0.8-1.8,0.8c-3.2,0-11.5-0.1-11.4-0.2c0-0.1,0.4-0.4,0.9-0.4c0.4,0.1,1.9,0.2,2.5,0s0.4-0.5-2.1-0.4
		c-2.6,0.1-9-0.5-9.9-0.4c-0.8,0.1-2,0.4-0.6,0.3s-0.2,0.7-6.5,0.7c0,0-9,0-18.9,0c-4.1,0-4.1,0-4.1,0c-4-0.5-7.3-1.1-7.3-1.2
		c-0.1-0.1-6.1,0.1-8.4,0c-2.2-0.1-2.1-0.5,0.2-0.9c0,0,0,0,2.4-0.1c5.5-0.2,5.5-0.2,5.5-0.2c5.9,0.4,14.9,0.6,20,0.6
		s19.3,0.1,20.1,0.1c0.8,0.1,4,0.2,5.3,0.1c1.3-0.1,4.9-0.1,5.6,0c0.6,0.1,2,0.5,2.1,0.6c0.2,0.1,1.3,0.5,2.1,0.4
		C1141.3,25.3,1143.7,25.2,1144.8,25.4z M1144.8,18c0,0.1-0.1,0.3-0.1,0.3c-0.1,0-0.3-0.2-0.3-0.3c0-0.1,0.1-0.1,0.1-0.1
		C1144.6,17.8,1144.8,17.9,1144.8,18z M1146,22.3c0,0.1-0.1,0.1-0.1,0.1c-0.1,0-0.3-0.1-0.3-0.1c0-0.1,0.1-0.3,0.1-0.3
		C1145.8,22.1,1146,22.3,1146,22.3z M1156.7,18c0,0-1.2,0.1-2.7,0.1c-1.5,0-5.4,0-5.4-0.1c0,0,3.9-0.1,5.4-0.1
		C1155.5,17.9,1156.7,18,1156.7,18z M1159.8,18.1c0,0.1-0.1,0.1-0.1,0.1s-0.3-0.1-0.3-0.1c0-0.1,0.1-0.3,0.1-0.3
		C1159.6,17.8,1159.8,18,1159.8,18.1z M1163.6,18c0,0-0.6,0.1-0.8,0.1c-0.2,0-0.4,0-0.4,0c0,0,0.2-0.1,0.4-0.1
		C1163,18,1163.6,18,1163.6,18z M1169.1,18c0,0.1-0.6,0.2-1.4,0.2c-0.8,0-2.8-0.1-2.8-0.2c0,0,2.1-0.2,2.8-0.2
		C1168.5,17.9,1169.1,18,1169.1,18z M1172.6,18.1c0,0-1,0.1-1.3,0.1c-0.3,0-0.6-0.1-0.6-0.1c0-0.1,0.3-0.2,0.7-0.2
		C1171.7,17.9,1172.7,18,1172.6,18.1z M1208.7,19.1c-3.6,0-6.9,0-11.1,0C1201.5,18.1,1204.9,18.1,1208.7,19.1z M1221,20.6
		c0,0,0.3-0.1,0.8-0.1s1.5,0,1.5,0.1c0,0-1.1,0.1-1.5,0.1S1221,20.7,1221,20.6z M1224.3,18.4c0,0.1-2.2,0.5-4.9,0.5
		c0,0,0,0.2-2.4,0.2c-0.1,0-0.1,0-0.1,0c-0.2,0,3.5-0.6,4.9-0.6C1223.2,18.6,1224.3,18.3,1224.3,18.4z M1228.9,18.5
		c0,0-1,0.1-1.3,0.1c-0.3,0-0.6-0.1-0.6-0.1s0.4-0.2,0.7-0.2C1228,18.3,1228.9,18.4,1228.9,18.5z M1240.4,18.5c0,0-3.8,1.2-5.2,0.8
		c-1.4-0.3-2.5-0.7-2.5-0.8c0-0.1,1.3-0.3,2.6-0.3C1236.7,18.3,1240.4,18.4,1240.4,18.5z M1244.8,18.8c0,0.1-0.1,0.3-0.1,0.3
		c-0.1,0-0.3-0.2-0.3-0.3c0-0.1,0.1-0.1,0.1-0.1C1244.6,18.7,1244.8,18.7,1244.8,18.8z M1247.1,18.5c0,0.1-0.1,0.1-0.1,0.1
		c-0.1,0-0.3-0.1-0.3-0.1c0-0.1,0.1-0.3,0.1-0.3C1246.9,18.3,1247.1,18.5,1247.1,18.5z M1249.4,18.5c0,0.1-0.1,0.1-0.1,0.1
		c-0.1,0-0.3-0.1-0.3-0.1c0-0.1,0.1-0.3,0.1-0.3C1249.2,18.3,1249.4,18.5,1249.4,18.5z M1271.2,18.8c0,0.1-0.1,0.3-0.1,0.3
		c-0.1,0-0.3-0.2-0.3-0.3c0-0.1,0.1-0.1,0.1-0.1C1271,18.7,1271.2,18.7,1271.2,18.8z M1277.5,20.8c-0.5,0.2-2.3,0.5-2.7,0.2
		c0,0,0,0.1-0.4,0.1c-1.7,0-3.4-0.1-5.1-0.1c-1.7,0-3.4,0-5.1,0c-1.9,0-3.8,0-5.7,0c-1.7,0-3.5,0-5.1,0.1c-1.5,0.1-1.5,0.3-1.5,0.3
		c-1.5-0.1-4.5-0.1-6.7,0.1c0,0,0,0-1.3-0.4c-2.4-0.6-4.7-0.3-7-0.4c-2.8-0.1-2.8-0.1-2.8-0.1c-3.1,0-5.7,0-5.7-0.1
		c0-0.1,1.4-0.3,3.2-0.2c0,0,0,0,1.6-0.1c1.8-0.1,3.5-0.3,5.3-0.4c1.4,0,3.2-0.1,4.3,0.2c1.9,0.4,4,0.4,5.4,0.2
		c1.5-0.2,1.5-0.2,1.5-0.2c1.6-0.1,4.5,0,6.4,0c0,0,0,0,1.6,0.1c1.6,0.1,3.2,0.3,4.7,0c1.8-0.3,3.2,0.4,4.9,0.2
		c0.8-0.1,0.8-0.1,0.8-0.1c0.9-0.2,3.9-0.2,6.6,0c0,0,0,0,2.5,0.1c0.5,0,0.5,0,0.5,0C1278.1,20.5,1278.1,20.6,1277.5,20.8z
		 M1282.8,20.7c0,0.3-0.3,0.8-0.7,0.7c-0.4-0.1-0.3-0.8,0.1-0.9C1282.5,20.4,1282.8,20.5,1282.8,20.7z M1299.3,22.4
		c-0.3,0-1.3-0.1-1.3-0.2c0.1-0.1,1.3-0.2,1.4,0S1299.5,22.4,1299.3,22.4z M1308,19.2c0,0.1-0.1,0.3-0.1,0.3s-0.3-0.2-0.3-0.3
		c0-0.1,0.1-0.1,0.1-0.1C1307.8,19.1,1308,19.2,1308,19.2z M1308.7,22c0,0,0,0-0.8,0.1c-0.8,0.1-0.8,0.1-0.8,0.1
		c-0.7,0.2-1.6,0.3-1.9,0.2c-0.4-0.1-1.5-0.3-2-0.2c-0.4,0.1-1.6-0.1-1.6-0.3c0-0.1,1.4-0.3,3-0.3C1306.2,21.5,1309.7,22,1308.7,22z
		 M1332.5,20.2c0,0,0.3-0.1,0.8-0.1c0.4,0,1.5,0,1.5,0.1s-1.1,0.1-1.5,0.1C1332.8,20.3,1332.5,20.2,1332.5,20.2z M1363.4,19.5
		c-1,0.1-4.4,0.3-6,0.2c-1.6-0.1-6.8-0.4-8.1-0.2c-1.2,0.1-7.2-0.2-10.7,0c-3.5,0.2-7.4-0.2-7.3-0.2c0-0.1,2.1-0.4,2.9-0.3
		c0.8,0,2.9,0.1,4.7,0.2s7.3-0.8,8.5-0.8c0,0,0,0,1.1,0.1c0.8,0.1,0.8,0.1,0.8,0.1c0.9,0.2,1.9,0.3,2.2,0.2c0.3-0.1,2.6,0,4.3,0.4
		c0,0,0,0,2.4-0.6c2-0.5,2-0.5,2-0.5C1363,18.6,1364.4,19.3,1363.4,19.5z M1369.2,18.9c0,0-1.1,0.1-1.5,0.1c-0.4,0-0.8,0-0.8-0.1
		c0,0,0.3-0.1,0.8-0.1C1368.1,18.8,1369.2,18.8,1369.2,18.9z"/>
</g>
</svg>
