<svg xmlns="http://www.w3.org/2000/svg">
	<defs>
		
		<!-- ICONS -->
		
		<symbol id="icon-mail" viewBox="0 0 20 20">
			<path d="M1.574,5.286c0.488,0.262,7.248,3.894,7.5,4.029C9.326,9.45,9.652,9.514,9.98,9.514c0.328,0,0.654-0.064,0.906-0.199
			s7.012-3.767,7.5-4.029C18.875,5.023,19.337,4,18.44,4H1.521C0.624,4,1.086,5.023,1.574,5.286z M18.613,7.489
			c-0.555,0.289-7.387,3.849-7.727,4.027s-0.578,0.199-0.906,0.199s-0.566-0.021-0.906-0.199S1.941,7.777,1.386,7.488
			C0.996,7.284,1,7.523,1,7.707S1,15,1,15c0,0.42,0.566,1,1,1h16c0.434,0,1-0.58,1-1c0,0,0-7.108,0-7.292S19.004,7.285,18.613,7.489z" />
		</symbol>
		
		<symbol id="icon-phone" viewBox="0 0 20 20">
			<path d="M11.229,11.229c-1.583,1.582-3.417,3.096-4.142,2.371c-1.037-1.037-1.677-1.941-3.965-0.102
			c-2.287,1.838-0.53,3.064,0.475,4.068c1.16,1.16,5.484,0.062,9.758-4.211c4.273-4.274,5.368-8.598,4.207-9.758
			c-1.005-1.006-2.225-2.762-4.063-0.475c-1.839,2.287-0.936,2.927,0.103,3.965C14.324,7.812,12.811,9.646,11.229,11.229z" />
		</symbol>
				
		<symbol id="icon-location" viewBox="0 0 20 20">
			<path d="M10,2.009c-2.762,0-5,2.229-5,4.99c0,4.774,5,11,5,11s5-6.227,5-11C15,4.239,12.762,2.009,10,2.009z M10,9.76
			c-1.492,0-2.7-1.209-2.7-2.7s1.208-2.7,2.7-2.7c1.49,0,2.699,1.209,2.699,2.7S11.49,9.76,10,9.76z" />
		</symbol>
		
		<symbol id="icon-search" viewBox="0 0 20 20">
			<path d="M17.545,15.467l-3.779-3.779c0.57-0.935,0.898-2.035,0.898-3.21c0-3.417-2.961-6.377-6.378-6.377
			C4.869,2.1,2.1,4.87,2.1,8.287c0,3.416,2.961,6.377,6.377,6.377c1.137,0,2.2-0.309,3.115-0.844l3.799,3.801
			c0.372,0.371,0.975,0.371,1.346,0l0.943-0.943C18.051,16.307,17.916,15.838,17.545,15.467z M4.004,8.287
			c0-2.366,1.917-4.283,4.282-4.283c2.366,0,4.474,2.107,4.474,4.474c0,2.365-1.918,4.283-4.283,4.283
			C6.111,12.76,4.004,10.652,4.004,8.287z" />
		</symbol>
		
		<symbol id="icon-user" viewBox="0 0 20 20">
			<path d="M7.725,2.146c-1.016,0.756-1.289,1.953-1.239,2.59C6.55,5.515,6.708,6.529,6.708,6.529s-0.313,0.17-0.313,0.854
			C6.504,9.1,7.078,8.359,7.196,9.112c0.284,1.814,0.933,1.491,0.933,2.481c0,1.649-0.68,2.42-2.803,3.334C3.196,15.845,1,17,1,19v1
			h18v-1c0-2-2.197-3.155-4.328-4.072c-2.123-0.914-2.801-1.684-2.801-3.334c0-0.99,0.647-0.667,0.932-2.481
			c0.119-0.753,0.692-0.012,0.803-1.729c0-0.684-0.314-0.854-0.314-0.854s0.158-1.014,0.221-1.793c0.065-0.817-0.398-2.561-2.3-3.096
			c-0.333-0.34-0.558-0.881,0.466-1.424C9.439,0.112,8.918,1.284,7.725,2.146z" />
		</symbol>
		
		<symbol id="icon-basket" viewBox="0 0 20 20">
			<path d="M18.399,7h-5.007l-1.812,1.812c-0.453,0.453-1.056,0.702-1.696,0.702c-0.642,0-1.244-0.25-1.698-0.703
			C7.734,8.359,7.484,7.757,7.483,7.116c0-0.039,0.01-0.077,0.011-0.116H1.6C1.268,7,1,7.268,1,7.6V10h18V7.6
			C19,7.268,18.73,7,18.399,7z M10.768,7.999l5.055-5.055c0.235-0.234,0.237-0.613,0.002-0.849l-0.92-0.92
			c-0.234-0.234-0.614-0.233-0.85,0L9,6.231c-0.488,0.488-0.488,1.28,0,1.768C9.488,8.486,10.279,8.487,10.768,7.999z M3.823,17.271
			C3.92,17.672,4.338,18,4.75,18h10.5c0.412,0,0.83-0.328,0.927-0.729L17.7,11H2.3L3.823,17.271z" />
		</symbol>
		
		<symbol id="icon-help" viewBox="0 0 20 20">
			<path d="M10,0.4c-5.302,0-9.6,4.298-9.6,9.6s4.298,9.6,9.6,9.6c5.301,0,9.6-4.298,9.6-9.601C19.6,4.698,15.301,0.4,10,0.4z
			M9.849,15.599H9.798c-0.782-0.023-1.334-0.6-1.311-1.371c0.022-0.758,0.587-1.309,1.343-1.309l0.046,0.002
			c0.804,0.023,1.35,0.594,1.327,1.387C11.18,15.068,10.625,15.599,9.849,15.599z M13.14,9.068c-0.184,0.26-0.588,0.586-1.098,0.983
			l-0.562,0.387c-0.308,0.24-0.494,0.467-0.563,0.688c-0.056,0.174-0.082,0.221-0.087,0.576v0.09H8.685l0.006-0.182
			c0.027-0.744,0.045-1.184,0.354-1.547c0.485-0.568,1.555-1.258,1.6-1.287c0.154-0.115,0.283-0.246,0.379-0.387
			c0.225-0.311,0.324-0.555,0.324-0.793c0-0.334-0.098-0.643-0.293-0.916c-0.188-0.266-0.545-0.398-1.061-0.398
			c-0.512,0-0.863,0.162-1.072,0.496c-0.216,0.341-0.325,0.7-0.325,1.067v0.092H6.386L6.39,7.841c0.057-1.353,0.541-2.328,1.435-2.897
			C8.388,4.583,9.089,4.4,9.906,4.4c1.068,0,1.972,0.26,2.682,0.772c0.721,0.519,1.086,1.297,1.086,2.311
			C13.673,8.05,13.494,8.583,13.14,9.068z" />
		</symbol>
		
		<symbol id="icon-info" viewBox="0 0 20 20">
			<path d="M10,0.4c-5.303,0-9.601,4.298-9.601,9.6c0,5.303,4.298,9.601,9.601,9.601c5.301,0,9.6-4.298,9.6-9.601
			C19.6,4.698,15.301,0.4,10,0.4z M10.896,3.866c0.936,0,1.211,0.543,1.211,1.164c0,0.775-0.62,1.492-1.679,1.492
			c-0.886,0-1.308-0.445-1.282-1.182C9.146,4.719,9.665,3.866,10.896,3.866z M8.498,15.75c-0.64,0-1.107-0.389-0.66-2.094l0.733-3.025
			c0.127-0.484,0.148-0.678,0-0.678c-0.191,0-1.022,0.334-1.512,0.664L6.74,10.094c1.555-1.299,3.343-2.061,4.108-2.061
			c0.64,0,0.746,0.756,0.427,1.92l-0.84,3.18c-0.149,0.562-0.085,0.756,0.064,0.756c0.192,0,0.82-0.232,1.438-0.719l0.362,0.486
			C10.786,15.168,9.137,15.75,8.498,15.75z" />
		</symbol>
		
		<symbol id="icon-buoy" viewBox="0 0 20 20">
			<path d="M16.788,3.212c-3.749-3.749-9.827-3.749-13.575,0c-3.75,3.75-3.75,9.828-0.002,13.576c3.75,3.75,9.828,3.75,13.578,0
			C20.537,13.039,20.537,6.961,16.788,3.212z M6.748,13.252c-1.797-1.797-1.797-4.709,0-6.505c1.795-1.796,4.709-1.796,6.506,0
			c1.797,1.797,1.795,4.709,0,6.505C11.457,15.049,8.545,15.049,6.748,13.252z M15.347,12.879c0.968-1.799,0.969-3.959,0-5.759
			l1.783-0.96c1.289,2.391,1.289,5.29,0.002,7.678L15.347,12.879z M13.839,2.869l-0.961,1.784c-1.799-0.967-3.959-0.967-5.756,0
			L6.161,2.87C8.551,1.582,11.448,1.582,13.839,2.869z M2.87,6.16l1.784,0.961c-0.968,1.798-0.968,3.957-0.001,5.756l-1.784,0.961
			C1.581,11.449,1.582,8.551,2.87,6.16z M6.159,17.129l0.961-1.783c1.799,0.969,3.96,0.969,5.759,0l0.961,1.785
			C11.448,18.418,8.55,18.418,6.159,17.129z" />
		</symbol>
		
		<symbol id="icon-bell" viewBox="0 0 20 20">
			<path d="M14.65,8.512c-2.28-4.907-3.466-6.771-7.191-6.693C6.132,1.846,6.45,0.857,5.438,1.232C4.428,1.607,5.295,2.156,4.261,3.005
			c-2.902,2.383-2.635,4.587-1.289,9.84c0.567,2.213-1.367,2.321-0.602,4.465c0.559,1.564,4.679,2.219,9.025,0.607
			c4.347-1.613,7.086-4.814,6.527-6.378C17.157,9.394,15.611,10.578,14.65,8.512z M10.924,16.595c-3.882,1.44-7.072,0.594-7.207,0.217
			c-0.232-0.65,1.253-2.816,5.691-4.463c4.438-1.647,6.915-1.036,7.174-0.311C16.735,12.467,14.807,15.154,10.924,16.595z
			M9.676,13.101c-2.029,0.753-3.439,1.614-4.353,2.389c0.643,0.584,1.847,0.726,3.046,0.281c1.527-0.565,2.466-1.866,2.095-2.904
			c-0.005-0.013-0.011-0.023-0.016-0.036C10.197,12.913,9.94,13.002,9.676,13.101z" />
		</symbol>
		
		<symbol id="icon-warning" viewBox="0 0 20 20">
			<path d="M19.511,17.98L10.604,1.348C10.48,1.133,10.25,1,10,1C9.749,1,9.519,1.133,9.396,1.348L0.49,17.98
			c-0.121,0.211-0.119,0.471,0.005,0.68C0.62,18.871,0.847,19,1.093,19h17.814c0.245,0,0.474-0.129,0.598-0.34
			C19.629,18.451,19.631,18.191,19.511,17.98z M11,17H9v-2h2V17z M11,13.5H9V7h2V13.5z" />
		</symbol>
		
		<symbol id="icon-cross" viewBox="0 0 20 20">
			<path d="M10,1.6c-4.639,0-8.4,3.761-8.4,8.4c0,4.639,3.761,8.4,8.4,8.4s8.4-3.761,8.4-8.4C18.4,5.361,14.639,1.6,10,1.6z
			 M14.789,13.061l-1.729,1.729L10,11.729l-3.061,3.06l-1.729-1.729L8.272,10L5.211,6.939L6.94,5.211L10,8.271l3.061-3.061
			l1.729,1.729L11.728,10L14.789,13.061z" />
		</symbol>
		
		<symbol id="icon-check" viewBox="0 0 20 20">
			<path d="M10,1.6c-4.6,0-8.4,3.8-8.4,8.4s3.8,8.4,8.4,8.4s8.4-3.8,8.4-8.4S14.6,1.6,10,1.6z M14.8,6.5l-5.2,8C9.4,14.8,9.1,15,8.8,15
			c0,0,0,0,0,0c-0.3,0-0.6-0.1-0.8-0.4l-2.7-3.4C4.9,10.8,5,10.2,5.4,9.8C5.9,9.5,6.5,9.6,6.9,10l1.8,2.2l4.4-6.8
			C13.4,5,14,4.9,14.5,5.2C15,5.4,15.1,6.1,14.8,6.5z" />
		</symbol>
		
		<symbol id="icon-trash" viewBox="0 0 20 20">
			<path d="M3.389,7.113L4.49,18.021C4.551,18.482,6.777,19.998,10,20c3.225-0.002,5.451-1.518,5.511-1.979l1.102-10.908
			C14.929,8.055,12.412,8.5,10,8.5C7.59,8.5,5.072,8.055,3.389,7.113z M13.168,1.51l-0.859-0.951C11.977,0.086,11.617,0,10.916,0
			H9.085c-0.7,0-1.061,0.086-1.392,0.559L6.834,1.51C4.264,1.959,2.4,3.15,2.4,4.029v0.17C2.4,5.746,5.803,7,10,7
			c4.198,0,7.601-1.254,7.601-2.801v-0.17C17.601,3.15,15.738,1.959,13.168,1.51z M12.07,4.34L11,3H9L7.932,4.34h-1.7
			c0,0,1.862-2.221,2.111-2.522C8.533,1.588,8.727,1.5,8.979,1.5h2.043c0.253,0,0.447,0.088,0.637,0.318
			c0.248,0.301,2.111,2.522,2.111,2.522H12.07z" />
		</symbol>
		
		<symbol id="icon-stopwatch" viewBox="0 0 20 20">
			<path d="M7.376,6.745c-0.447,0.275,1.197,4.242,1.598,4.888c0.35,0.569,1.093,0.742,1.658,0.394c0.568-0.352,0.745-1.094,0.395-1.66
			C10.63,9.719,7.822,6.469,7.376,6.745z M7.041,2.402C7.969,2.079,8.963,1.9,10,1.9s2.031,0.179,2.959,0.502
			c0.329,0.114,0.765-0.115,0.572-0.611c-0.141-0.36-0.277-0.712-0.332-0.855c-0.131-0.339-0.6-0.619-0.804-0.665
			C11.623,0.097,10.823,0,10,0S8.377,0.097,7.604,0.271C7.4,0.317,6.932,0.597,6.801,0.936C6.746,1.079,6.609,1.431,6.469,1.791
			C6.276,2.287,6.712,2.517,7.041,2.402z M19.098,3.186c-0.192-0.23-0.396-0.455-0.613-0.672c-0.216-0.217-0.441-0.42-0.67-0.613
			c-0.153-0.129-0.603-0.234-0.888,0.051c-0.284,0.285-1.648,1.647-1.648,1.647c0.402,0.288,0.793,0.605,1.155,0.966
			c0.362,0.361,0.677,0.752,0.966,1.155c0,0,1.363-1.362,1.647-1.647C19.333,3.787,19.228,3.338,19.098,3.186z M10,2.9
			c-4.475,0-8.101,3.626-8.101,8.1c0,4.475,3.626,8.101,8.101,8.101c4.473,0,8.1-3.626,8.1-8.101C18.1,6.527,14.473,2.9,10,2.9z
			 M10,17.101c-3.368,0-6.1-2.731-6.1-6.1c0-3.369,2.731-6.1,6.1-6.1c3.369,0,6.101,2.731,6.101,6.1
			C16.101,14.369,13.369,17.101,10,17.101z" />
		</symbol>
		
		<symbol id="icon-star" viewBox="0 0 20 20">
			<path d="M10,1.3l2.388,6.722H18.8l-5.232,3.948l1.871,6.928L10,14.744l-5.438,4.154l1.87-6.928L1.199,8.022h6.412L10,1.3z" />
		</symbol>
		
		<symbol id="icon-settings" viewBox="0 0 20 20">
			<path d="M5,1.6C5,1.047,4.552,1,4,1C3.447,1,3,1.047,3,1.6V10h2V1.6z M3,18.4C3,18.951,3.447,19,4,19c0.552,0,1-0.049,1-0.6V15H3
			V18.4z M6.399,11H1.599C1.046,11,1,11.448,1,12v1c0,0.553,0.046,1,0.599,1h4.801C6.95,14,7,13.553,7,13v-1
			C7,11.448,6.95,11,6.399,11z M18.399,12h-4.801C13.046,12,13,12.448,13,13v1c0,0.553,0.046,1,0.599,1h4.801
			C18.95,15,19,14.553,19,14v-1C19,12.448,18.95,12,18.399,12z M13,7c0-0.552-0.05-1-0.601-1H7.599C7.046,6,7,6.448,7,7v1
			c0,0.553,0.046,1,0.599,1h4.801C12.95,9,13,8.553,13,8V7z M11,1.6C11,1.047,10.552,1,10,1C9.447,1,9,1.047,9,1.6V5h2V1.6z M9,18.4
			c0,0.551,0.447,0.6,1,0.6c0.552,0,1-0.049,1-0.6V10H9V18.4z M17,1.6C17,1.047,16.552,1,16,1c-0.553,0-1,0.047-1,0.6V11h2V1.6z
			M15,18.4c0,0.551,0.447,0.6,1,0.6c0.552,0,1-0.049,1-0.6V16h-2V18.4z" />
		</symbol>
		
		<symbol id="icon-list" viewBox="0 0 20 20">
			<path d="M14.4,9H8.6C8.048,9,8,9.447,8,10s0.048,1,0.6,1H14.4c0.552,0,0.6-0.447,0.6-1S14.952,9,14.4,9z M16.4,14H8.6
			C8.048,14,8,14.447,8,15s0.048,1,0.6,1H16.4c0.552,0,0.6-0.447,0.6-1S16.952,14,16.4,14z M8.6,6H16.4C16.952,6,17,5.553,17,5
			s-0.048-1-0.6-1H8.6C8.048,4,8,4.447,8,5S8.048,6,8.6,6z M5.4,9H3.6C3.048,9,3,9.447,3,10s0.048,1,0.6,1H5.4C5.952,11,6,10.553,6,10
			S5.952,9,5.4,9z M5.4,14H3.6C3.048,14,3,14.447,3,15s0.048,1,0.6,1H5.4C5.952,16,6,15.553,6,15S5.952,14,5.4,14z M5.4,4H3.6
			C3.048,4,3,4.447,3,5s0.048,1,0.6,1H5.4C5.952,6,6,5.553,6,5S5.952,4,5.4,4z" />
		</symbol>
		
		<symbol id="icon-plus" viewBox="0 0 20 20">
			<path d="M16,10c0,0.553-0.048,1-0.601,1H11v4.399C11,15.951,10.553,16,10,16c-0.553,0-1-0.049-1-0.601V11H4.601
			C4.049,11,4,10.553,4,10c0-0.553,0.049-1,0.601-1H9V4.601C9,4.048,9.447,4,10,4c0.553,0,1,0.048,1,0.601V9h4.399
			C15.952,9,16,9.447,16,10z" />
		</symbol>

		<symbol id="icon-minus" viewBox="0 0 20 20">
			<path d="M16,10c0,0.553-0.048,1-0.601,1H4.601C4.049,11,4,10.553,4,10c0-0.553,0.049-1,0.601-1h10.799C15.952,9,16,9.447,16,10z" />
		</symbol>
		
		<symbol id="icon-snowflake" viewBox="0 0 20 20">
			<path d="M18.4,14.2l-2.2-1.2l1.8-1.1c0.3-0.1,0.4-0.5,0.2-0.8c-0.2-0.3-0.5-0.4-0.8-0.2l-2.4,1.4L11.2,10l3.9-2.2l2.4,1.4
			c0.1,0.1,0.2,0.1,0.3,0.1c0.2,0,0.4-0.1,0.5-0.3c0.2-0.3,0.1-0.7-0.2-0.8l-1.8-1.1l2.2-1.2c0.3-0.2,0.4-0.5,0.2-0.8
			c-0.2-0.3-0.5-0.4-0.8-0.2L15.7,6l0-2.2c0-0.3-0.3-0.6-0.6-0.6c-0.3,0-0.6,0.3-0.6,0.6l0,2.9L10.6,9V4.4L13,3.1
			c0.3-0.2,0.4-0.5,0.2-0.8c-0.2-0.3-0.5-0.4-0.8-0.2l-1.8,1V0.6C10.6,0.3,10.3,0,10,0C9.7,0,9.4,0.3,9.4,0.6v2.5L7.5,2
			C7.2,1.9,6.9,2,6.7,2.2C6.5,2.5,6.6,2.9,6.9,3.1l2.5,1.4v4.5L5.5,6.7l0-2.8c0-0.3-0.2-0.6-0.6-0.6h0c-0.3,0-0.6,0.3-0.6,0.6l0,2.1
			L2.2,4.8C1.9,4.6,1.5,4.7,1.3,5C1.2,5.3,1.3,5.6,1.6,5.8L3.7,7L1.8,8.2C1.5,8.3,1.4,8.7,1.6,9c0.1,0.2,0.3,0.3,0.5,0.3
			c0.1,0,0.2,0,0.3-0.1l2.4-1.4L8.8,10l-3.9,2.3l-2.4-1.4c-0.3-0.2-0.7-0.1-0.8,0.2c-0.2,0.3-0.1,0.7,0.2,0.8l1.9,1.1l-2.1,1.2
			c-0.3,0.2-0.4,0.5-0.2,0.8c0.1,0.2,0.3,0.3,0.5,0.3c0.1,0,0.2,0,0.3-0.1L4.3,14l0,2.1c0,0.3,0.3,0.6,0.6,0.6h0
			c0.3,0,0.6-0.3,0.6-0.6l0-2.8L9.4,11v4.4l-2.5,1.4c-0.3,0.2-0.4,0.5-0.2,0.8C6.8,17.9,7,18,7.2,18c0.1,0,0.2,0,0.3-0.1l1.9-1.1v2.5
			c0,0.3,0.3,0.6,0.6,0.6c0.3,0,0.6-0.3,0.6-0.6v-2.5l1.8,1c0.1,0,0.2,0.1,0.3,0.1c0.2,0,0.4-0.1,0.5-0.3c0.2-0.3,0.1-0.7-0.2-0.8
			l-2.4-1.4V11l3.8,2.2l0,2.8c0,0.3,0.3,0.6,0.6,0.6c0.3,0,0.6-0.3,0.6-0.6l0-2.2l2.2,1.3c0.1,0,0.2,0.1,0.3,0.1
			c0.2,0,0.4-0.1,0.5-0.3C18.8,14.7,18.7,14.3,18.4,14.2z" />
		</symbol>
		
		
		<!-- SOCIAL ICONS -->
				
		<symbol id="icon-facebook" viewBox="0 0 20 20">
			<path d="M10,0.4c-5.302,0-9.6,4.298-9.6,9.6s4.298,9.6,9.6,9.6s9.6-4.298,9.6-9.6S15.302,0.4,10,0.4z M12.274,7.034h-1.443
			c-0.171,0-0.361,0.225-0.361,0.524V8.6h1.805l-0.273,1.486H10.47v4.461H8.767v-4.461H7.222V8.6h1.545V7.726
			c0-1.254,0.87-2.273,2.064-2.273h1.443V7.034z" />
		</symbol>
		
		<symbol id="icon-twitter" viewBox="0 0 20 20">
			<path d="M10,0.4c-5.302,0-9.6,4.298-9.6,9.6s4.298,9.6,9.6,9.6s9.6-4.298,9.6-9.6S15.302,0.4,10,0.4z M13.905,8.264
			c0.004,0.082,0.005,0.164,0.005,0.244c0,2.5-1.901,5.381-5.379,5.381c-1.068,0-2.062-0.312-2.898-0.85
			c0.147,0.018,0.298,0.025,0.451,0.025c0.886,0,1.701-0.301,2.348-0.809c-0.827-0.016-1.525-0.562-1.766-1.312
			c0.115,0.021,0.233,0.033,0.355,0.033c0.172,0,0.34-0.023,0.498-0.066c-0.865-0.174-1.517-0.938-1.517-1.854V9.033
			C6.257,9.174,6.549,9.26,6.859,9.27C6.351,8.93,6.018,8.352,6.018,7.695c0-0.346,0.093-0.672,0.256-0.951
			c0.933,1.144,2.325,1.896,3.897,1.977c-0.033-0.139-0.049-0.283-0.049-0.432c0-1.043,0.846-1.891,1.891-1.891
			c0.543,0,1.035,0.23,1.38,0.598c0.431-0.086,0.835-0.242,1.2-0.459c-0.141,0.441-0.44,0.812-0.831,1.047
			c0.383-0.047,0.747-0.148,1.086-0.299C14.595,7.664,14.274,7.998,13.905,8.264z" />
		</symbol>
		
		<symbol id="icon-instagram" viewBox="0 0 20 20">
			<path d="M13,10c0,1.657-1.343,3-3,3c-1.657,0-3-1.343-3-3c0-0.171,0.018-0.338,0.049-0.5H6v3.997C6,13.775,6.225,14,6.503,14h6.995
			C13.775,14,14,13.775,14,13.497V9.5h-1.049C12.982,9.662,13,9.829,13,10z M10,12c1.104,0,2-0.896,2-2s-0.896-2-2-2s-2,0.896-2,2
			S8.896,12,10,12z M12.4,7.9h1.199c0.166,0,0.301-0.135,0.301-0.3V6.401c0-0.166-0.135-0.301-0.301-0.301H12.4
			c-0.166,0-0.301,0.135-0.301,0.301V7.6C12.1,7.765,12.235,7.9,12.4,7.9z M10,0.4c-5.302,0-9.6,4.298-9.6,9.6
			c0,5.302,4.298,9.6,9.6,9.6c5.302,0,9.6-4.298,9.6-9.6C19.6,4.698,15.302,0.4,10,0.4z M15,13.889C15,14.5,14.5,15,13.889,15H6.111
			C5.5,15,5,14.5,5,13.889V6.111C5,5.5,5.5,5,6.111,5h7.778C14.5,5,15,5.5,15,6.111V13.889z" />
		</symbol>
		
		<symbol id="icon-google" viewBox="0 0 20 20">
			<path d="M10,0.4c-5.302,0-9.6,4.298-9.6,9.6s4.298,9.6,9.6,9.6s9.6-4.298,9.6-9.6S15.302,0.4,10,0.4z M9.447,14.121
			c-0.603,0.293-1.252,0.324-1.503,0.324c-0.048,0-0.075,0-0.075,0s-0.023,0-0.054,0c-0.392,0-2.343-0.09-2.343-1.867
			c0-1.746,2.125-1.883,2.776-1.883h0.017c-0.376-0.502-0.298-1.008-0.298-1.008C7.934,9.689,7.886,9.691,7.827,9.691
			c-0.245,0-0.718-0.039-1.124-0.301c-0.498-0.32-0.75-0.865-0.75-1.619c0-2.131,2.327-2.217,2.35-2.219h2.324v0.051
			c0,0.26-0.467,0.311-0.785,0.354C9.734,5.973,9.517,5.994,9.456,6.025c0.589,0.315,0.684,0.809,0.684,1.545
			c0,0.838-0.328,1.281-0.676,1.592C9.248,9.355,9.079,9.506,9.079,9.709c0,0.199,0.232,0.402,0.502,0.639
			c0.441,0.389,1.046,0.918,1.046,1.811C10.627,13.082,10.23,13.742,9.447,14.121z M14.5,10H13v1.5h-1V10h-1.5V9H12V7.5h1V9h1.5V10z
			 M8.223,11.15c-0.052,0-0.104,0.002-0.157,0.006c-0.444,0.033-0.854,0.199-1.15,0.469c-0.294,0.266-0.444,0.602-0.423,0.941
			c0.045,0.711,0.808,1.127,1.735,1.061c0.912-0.066,1.52-0.592,1.476-1.303C9.662,11.656,9.081,11.15,8.223,11.15z M9.097,7.285
			c-0.242-0.85-0.632-1.102-1.238-1.102c-0.065,0-0.131,0.01-0.194,0.027C7.402,6.285,7.193,6.504,7.077,6.83
			C6.958,7.16,6.951,7.504,7.053,7.896c0.185,0.701,0.683,1.209,1.185,1.209c0.066,0,0.132-0.008,0.194-0.027
			C8.981,8.924,9.325,8.086,9.097,7.285z" />
		</symbol>
		
		<symbol id="icon-youtube" viewBox="0 0 20 20">
			<path d="M11.603,9.833L9.357,8.785C9.161,8.694,9,8.796,9,9.013v1.974c0,0.217,0.161,0.319,0.357,0.228l2.245-1.048
			C11.799,10.075,11.799,9.925,11.603,9.833z M10,0.4c-5.302,0-9.6,4.298-9.6,9.6s4.298,9.6,9.6,9.6s9.6-4.298,9.6-9.6
			S15.302,0.4,10,0.4z M10,13.9c-4.914,0-5-0.443-5-3.9s0.086-3.9,5-3.9s5,0.443,5,3.9S14.914,13.9,10,13.9z" />
		</symbol>
		
	</defs>
</svg>