<svg xmlns="http://www.w3.org/2000/svg">
	<defs>
		
		<!-- ICONS -->
				
		<symbol id="icon-location" viewBox="0 0 20 20">
			<path d="M10,2.009c-2.762,0-5,2.229-5,4.99c0,4.774,5,11,5,11s5-6.227,5-11C15,4.239,12.762,2.009,10,2.009z M10,9.76
			c-1.492,0-2.7-1.209-2.7-2.7s1.208-2.7,2.7-2.7c1.49,0,2.699,1.209,2.699,2.7S11.49,9.76,10,9.76z" />
		</symbol>
		
		<symbol id="icon-envelope" viewBox="0 0 20 20">
			<path d="M1.574,5.286c0.488,0.262,7.248,3.894,7.5,4.029C9.326,9.45,9.652,9.514,9.98,9.514c0.328,0,0.654-0.064,0.906-0.199
			s7.012-3.767,7.5-4.029C18.875,5.023,19.337,4,18.44,4H1.521C0.624,4,1.086,5.023,1.574,5.286z M18.613,7.489
			c-0.555,0.289-7.387,3.849-7.727,4.027s-0.578,0.199-0.906,0.199s-0.566-0.021-0.906-0.199S1.941,7.777,1.386,7.488
			C0.996,7.284,1,7.523,1,7.707S1,15,1,15c0,0.42,0.566,1,1,1h16c0.434,0,1-0.58,1-1c0,0,0-7.108,0-7.292S19.004,7.285,18.613,7.489z" />
		</symbol>
		
		<symbol id="icon-phone" viewBox="0 0 20 20">
			<path d="M17.256,12.253c-0.096-0.667-0.611-1.187-1.274-1.342c-2.577-0.604-3.223-2.088-3.332-3.734C12.193,7.092,11.38,7,10,7
			S7.807,7.092,7.35,7.177c-0.109,1.646-0.755,3.13-3.332,3.734c-0.663,0.156-1.178,0.675-1.274,1.342l-0.497,3.442
			C2.072,16.907,2.962,18,4.2,18h11.6c1.237,0,2.128-1.093,1.953-2.305L17.256,12.253z M10,15.492c-1.395,0-2.526-1.12-2.526-2.5
			s1.131-2.5,2.526-2.5s2.526,1.12,2.526,2.5S11.394,15.492,10,15.492z M19.95,6C19.926,4.5,16.108,2.001,10,2
			C3.891,2.001,0.073,4.5,0.05,6s0.021,3.452,2.535,3.127c2.941-0.381,2.76-1.408,2.76-2.876C5.345,5.227,7.737,4.98,10,4.98
			s4.654,0.247,4.655,1.271c0,1.468-0.181,2.495,2.76,2.876C19.928,9.452,19.973,7.5,19.95,6z" />
		</symbol>
		
		<symbol id="icon-fax" viewBox="0 0 20 20">
			<path d="M1.501,6h17c0.57,0,0.477-0.608,0.193-0.707C18.409,5.194,15.251,4,14.7,4H14V1H6v3H5.301c-0.55,0-3.709,1.194-3.993,1.293
			C1.024,5.392,0.931,6,1.501,6z M19,7H1C0.45,7,0,7.45,0,8v5c0,0.551,0.45,1,1,1h2.283l-0.882,5h15.199l-0.883-5H19
			c0.551,0,1-0.449,1-1V8C20,7.45,19.551,7,19,7z M4.603,17l1.198-7.003H14.2L15.399,17H4.603z" />
		</symbol>
		
		<symbol id="icon-plane" viewBox="0 0 20 20">
			<path d="M18.64,2.634C18.296,2.755,1.319,8.738,0.984,8.856c-0.284,0.1-0.347,0.345-0.01,0.479c0.401,0.161,3.796,1.521,3.796,1.521
			l0,0l2.25,0.901c0,0,10.838-7.958,10.984-8.066c0.148-0.108,0.318,0.095,0.211,0.211c-0.107,0.117-7.871,8.513-7.871,8.513v0.002
			L9.892,12.92l0.599,0.322l0,0c0,0,4.65,2.504,4.982,2.682c0.291,0.156,0.668,0.027,0.752-0.334
			c0.099-0.426,2.845-12.261,2.906-12.525C19.21,2.722,18.983,2.513,18.64,2.634z M7,17.162c0,0.246,0.139,0.315,0.331,0.141
			c0.251-0.229,2.85-2.561,2.85-2.561L7,13.098V17.162z"/>
		</symbol>
		
		<symbol id="icon-arrow" viewBox="0 0 20 20">
			<path d="M6.3,15V5l8,5L6.3,15z" />
		</symbol>
		
		<symbol id="icon-forward" viewBox="0 0 20 20">
			<path d="M10.5,15V5l8,5L10.5,15z M2.5,15V5l8,5L2.5,15z" />
		</symbol>
		
		<symbol id="icon-select" viewBox="0 0 20 20">
			<path  d="M15,8.7H5l5-8L15,8.7z M10,19.3l5-8H5L10,19.3z" />
		</symbol>
		
		<symbol id="icon-cross" viewBox="0 0 20 20">
			<path d="M12.4,10l3.6,3.6L13.6,16L10,12.4L6.4,16L4,13.6L7.6,10L4,6.4L6.4,4L10,7.6L13.6,4L16,6.4L12.4,10z" />
		</symbol>
		
		<symbol id="icon-tick" viewBox="0 0 20 20">
			<path d="M17.4,5.5l-5.9,8.2l-2,2.7l-2.7-2l-4.1-3l2-2.7l4.1,3l5.9-8.2L17.4,5.5z" />
		</symbol>
		
		<symbol id="icon-info" viewBox="0 0 20 20">
			<path d="M10,2.5c-4.1,0-7.5,3.4-7.5,7.5c0,4.1,3.4,7.5,7.5,7.5c4.1,0,7.5-3.4,7.5-7.5C17.5,5.9,14.1,2.5,10,2.5z M10.7,5.2
			c0.7,0,0.9,0.4,0.9,0.9c0,0.6-0.5,1.2-1.3,1.2c-0.7,0-1-0.3-1-0.9C9.3,5.9,9.7,5.2,10.7,5.2z M8.8,14.5c-0.5,0-0.9-0.3-0.5-1.6
			l0.6-2.4C9,10.1,9,10,8.9,10c-0.1,0-0.8,0.3-1.2,0.5l-0.2-0.4c1.2-1,2.6-1.6,3.2-1.6c0.5,0,0.6,0.6,0.3,1.5l-0.7,2.5
			c-0.1,0.4-0.1,0.6,0,0.6c0.1,0,0.6-0.2,1.1-0.6l0.3,0.4C10.6,14,9.3,14.5,8.8,14.5z" />
		</symbol>

		<symbol id="icon-link" viewBox="0 0 20 20">
			<path d="M7.859,14.691l-0.81,0.805c-0.701,0.695-1.843,0.695-2.545,0c-0.336-0.334-0.521-0.779-0.521-1.252
			c0-0.473,0.186-0.916,0.521-1.252l2.98-2.955c0.617-0.613,1.779-1.515,2.626-0.675c0.389,0.386,1.016,0.384,1.403-0.005
			c0.385-0.389,0.383-1.017-0.006-1.402C10.069,6.527,7.941,6.791,6.088,8.63l-2.98,2.956C2.393,12.295,2,13.24,2,14.244
			c0,1.006,0.394,1.949,1.108,2.658c0.736,0.73,1.702,1.096,2.669,1.096c0.967,0,1.934-0.365,2.669-1.096l0.811-0.805
			c0.389-0.385,0.391-1.012,0.005-1.4C8.875,14.309,8.248,14.307,7.859,14.691z M16.891,3.207c-1.547-1.534-3.709-1.617-5.139-0.197
			l-1.009,1.002c-0.389,0.386-0.392,1.013-0.006,1.401c0.386,0.389,1.013,0.391,1.402,0.005l1.01-1.001
			c0.74-0.736,1.711-0.431,2.346,0.197c0.336,0.335,0.522,0.779,0.522,1.252s-0.186,0.917-0.522,1.251l-3.18,3.154
			c-1.454,1.441-2.136,0.766-2.427,0.477c-0.389-0.386-1.016-0.383-1.401,0.005c-0.386,0.389-0.384,1.017,0.005,1.401
			c0.668,0.662,1.43,0.99,2.228,0.99c0.977,0,2.01-0.492,2.993-1.467l3.18-3.153C17.605,7.814,18,6.87,18,5.866
			C18,4.861,17.605,3.917,16.891,3.207z" />
		</symbol>
		
		<!-- SOCIAL ICONS -->
		
		<symbol id="icon-facebook" viewBox="0 0 20 20">
			<path d="M7.9,19v-8.3H5.5V7.8h2.4V5.4C7.9,2.8,9.3,1,12.3,1l2.1,0v3.1h-1.4c-1.2,0-1.6,0.9-1.6,1.7v2h3l-0.7,2.9h-2.4V19H7.9z" />
		</symbol>
		
		<symbol id="icon-twitter" viewBox="0 0 20 20">
			<path d="M17.316,6.246c0.008,0.162,0.011,0.326,0.011,0.488c0,4.99-3.797,10.742-10.74,10.742c-2.133,0-4.116-0.625-5.787-1.697
			c0.296,0.035,0.596,0.053,0.9,0.053c1.77,0,3.397-0.604,4.688-1.615c-1.651-0.031-3.046-1.121-3.526-2.621
			c0.23,0.043,0.467,0.066,0.71,0.066c0.345,0,0.679-0.045,0.995-0.131c-1.727-0.348-3.028-1.873-3.028-3.703c0-0.016,0-0.031,0-0.047
			c0.509,0.283,1.092,0.453,1.71,0.473c-1.013-0.678-1.68-1.832-1.68-3.143c0-0.691,0.186-1.34,0.512-1.898
			C3.942,5.498,6.725,7,9.862,7.158C9.798,6.881,9.765,6.594,9.765,6.297c0-2.084,1.689-3.773,3.774-3.773
			c1.086,0,2.067,0.457,2.756,1.191c0.859-0.17,1.667-0.484,2.397-0.916c-0.282,0.881-0.881,1.621-1.66,2.088
			c0.764-0.092,1.49-0.293,2.168-0.594C18.694,5.051,18.054,5.715,17.316,6.246z" />
		</symbol>
		
		<symbol id="icon-google" viewBox="0 0 20 20">
			<path d="M1.989,5.589c0,1.494,0.499,2.572,1.482,3.205c0.806,0.52,1.74,0.598,2.226,0.598c0.118,0,0.213-0.006,0.279-0.01
			c0,0-0.154,1.004,0.59,1.996H6.532c-1.289,0-5.493,0.269-5.493,3.727c0,3.516,3.861,3.695,4.636,3.695
			c0.061,0,0.097-0.002,0.097-0.002c0.008,0,0.063,0.002,0.158,0.002c0.497,0,1.782-0.062,2.975-0.643
			c1.548-0.75,2.333-2.059,2.333-3.885c0-1.764-1.196-2.814-2.069-3.582c-0.533-0.469-0.994-0.873-0.994-1.266
			c0-0.4,0.337-0.701,0.762-1.082c0.689-0.615,1.339-1.492,1.339-3.15c0-1.457-0.189-2.436-1.354-3.057
			c0.121-0.062,0.551-0.107,0.763-0.137c0.631-0.086,1.554-0.184,1.554-0.699V1.2H6.64C6.594,1.202,1.989,1.372,1.989,5.589z 
			M9.413,14.602c0.088,1.406-1.115,2.443-2.922,2.574c-1.835,0.135-3.345-0.691-3.433-2.096c-0.043-0.676,0.254-1.336,0.835-1.863
			c0.589-0.533,1.398-0.863,2.278-0.928c0.104-0.006,0.207-0.012,0.31-0.012C8.18,12.278,9.33,13.276,9.413,14.602z M8.212,4.626
			c0.451,1.588-0.23,3.246-1.316,3.553C6.771,8.214,6.643,8.231,6.512,8.231c-0.994,0-1.979-1.006-2.345-2.393
			C3.963,5.062,3.98,4.38,4.214,3.726c0.229-0.645,0.643-1.078,1.163-1.225c0.125-0.035,0.254-0.053,0.385-0.053
			C6.962,2.448,7.734,2.946,8.212,4.626z M16,8V5h-2v3h-3v2h3v3h2v-3h3V8H16z" />
		</symbol>
		
		<symbol id="icon-linkedin" viewBox="0 0 20 20">
			<path d="M5,3c0,1.1-0.7,2-2,2C1.8,5,1,4.1,1,3.1C1,2,1.8,1,3,1S5,1.9,5,3z M1,19h4V6H1V19z M14.6,6.2c-2.1,0-3.3,1.2-3.8,2h-0.1
			l-0.2-1.7H6.9C6.9,7.6,7,8.9,7,10.4V19h4v-7.1c0-0.4,0-0.7,0.1-1c0.3-0.7,0.8-1.6,1.9-1.6c1.4,0,2,1.2,2,2.8V19h4v-7.4
			C19,7.9,17.1,6.2,14.6,6.2z" />
		</symbol>
		
		<symbol id="icon-vimeo" viewBox="0 0 20 20">
			<path d="M18.91,5.84c-1.006,5.773-6.625,10.66-8.315,11.777c-1.69,1.115-3.233-0.447-3.792-1.631
			C6.162,14.639,4.244,7.33,3.741,6.725C3.238,6.119,1.731,7.33,1.731,7.33L1,6.354c0,0,3.061-3.725,5.391-4.191
			C8.861,1.67,8.857,6.027,9.451,8.445c0.574,2.342,0.961,3.68,1.463,3.68c0.502,0,1.462-1.305,2.512-3.305
			c1.053-2.004-0.045-3.772-2.101-2.514C12.148,1.279,19.916,0.07,18.91,5.84z" />
		</symbol>
		
		<symbol id="icon-youtube" viewBox="0 0 20 20">
			<path d="M10,2.3C0.172,2.3,0,3.174,0,10s0.172,7.7,10,7.7s10-0.874,10-7.7S19.828,2.3,10,2.3z M13.205,10.334l-4.49,2.096
			C8.322,12.612,8,12.408,8,11.974V8.026C8,7.593,8.322,7.388,8.715,7.57l4.49,2.096C13.598,9.85,13.598,10.15,13.205,10.334z" />
		</symbol>
		
	</defs>
</svg>