<?xml version="1.0" encoding="utf-8"?>
<!-- Generator: Adobe Illustrator 19.2.0, SVG Export Plug-In . SVG Version: 6.00 Build 0)  -->
<svg version="1.1" id="Layer_1" xmlns="http://www.w3.org/2000/svg" xmlns:xlink="http://www.w3.org/1999/xlink" x="0px" y="0px"
	 viewBox="0 0 100 100" style="enable-background:new 0 0 100 100;" xml:space="preserve">
<g>
	<path d="M100,50c0,27.6-22.4,50-50,50S0,77.6,0,50S22.4,0,50,0S100,22.4,100,50z M95,50C95,25.2,74.8,5,50,5C25.2,5,5,25.2,5,50
		c0,24.8,20.2,45,45,45C74.8,95,95,74.8,95,50z M91,50c0,22.6-18.4,41-41,41C27.4,91,9,72.6,9,50C9,27.4,27.4,9,50,9
		C72.6,9,91,27.4,91,50z M53.5,29h-7h-14v42h7V36h7v35h7V36h7v35h7V29H53.5z"/>
</g>
</svg>
