<?xml version="1.0" encoding="utf-8"?>
<!-- Generator: Adobe Illustrator 19.2.0, SVG Export Plug-In . SVG Version: 6.00 Build 0)  -->
<svg version="1.1" id="Layer_1" xmlns="http://www.w3.org/2000/svg" xmlns:xlink="http://www.w3.org/1999/xlink" x="0px" y="0px"
	 viewBox="0 0 100 100" style="enable-background:new 0 0 100 100;" xml:space="preserve">
<style type="text/css">
	.st0{fill:#FFFFFF;}
</style>
<g>
	<circle cx="50" cy="50" r="50"/>
</g>
<g>
	<path class="st0" d="M68,49h-4v2h4c2.2,0,4,1.8,4,4v1c0,2.2-1.8,4-4,4h-6h-2h-7v2h7h2h6c3.3,0,6-2.7,6-6v-1C74,51.7,71.3,49,68,49z
		"/>
	<polygon class="st0" points="62,38 60,38 53,38 53,40 60,40 62,40 72,40 72,42 74,42 74,40 74,38 	"/>
	<path class="st0" d="M32,51h4v-2h-4c-2.2,0-4-1.8-4-4v-1c0-2.2,1.8-4,4-4h6h2h7v-2h-7h-2h-6c-3.3,0-6,2.7-6,6v1
		C26,48.3,28.7,51,32,51z"/>
	<polygon class="st0" points="51,62 51,60 51,53 49,53 49,60 49,62 49,72 47,72 47,74 49,74 51,74 53,74 53,72 51,72 	"/>
	<polygon class="st0" points="40,64 38,64 38,72 36,72 36,74 38,74 40,74 42,74 42,72 40,72 	"/>
	<polygon class="st0" points="38,49 38,51 38,58 40,58 40,51 40,49 40,42 38,42 	"/>
	<polygon class="st0" points="40,62 47,62 47,60 40,60 38,60 28,60 28,58 26,58 26,60 26,62 38,62 	"/>
	<polygon class="st0" points="62,64 60,64 60,72 58,72 58,74 60,74 62,74 64,74 64,72 62,72 	"/>
	<polygon class="st0" points="62,51 62,49 62,42 60,42 60,49 60,51 60,58 62,58 	"/>
	<path class="st0" d="M40,32c0-2.2,1.8-4,4-4h1c2.2,0,4,1.8,4,4v6v2v7h2v-7v-2v-6c0-2.2,1.8-4,4-4h1c2.2,0,4,1.8,4,4v4h2v-4
		c0-3.3-2.7-6-6-6h-1c-2.1,0-3.9,1.1-5,2.7c-1.1-1.6-2.9-2.7-5-2.7h-1c-3.3,0-6,2.7-6,6v4h2V32z"/>
	<polygon class="st0" points="49,49 42,49 42,51 49,51 51,51 58,51 58,49 51,49 	"/>
</g>
<path class="st0" d="M50,95C25.2,95,5,74.8,5,50S25.2,5,50,5s45,20.2,45,45S74.8,95,50,95z M50,7C26.3,7,7,26.3,7,50s19.3,43,43,43
	s43-19.3,43-43S73.7,7,50,7z"/>
</svg>
