<?xml version="1.0" encoding="utf-8"?>
<!-- Generator: Adobe Illustrator 19.2.0, SVG Export Plug-In . SVG Version: 6.00 Build 0)  -->
<svg version="1.1" id="Layer_1" xmlns="http://www.w3.org/2000/svg" xmlns:xlink="http://www.w3.org/1999/xlink" x="0px" y="0px"
	 viewBox="0 0 100 100" style="enable-background:new 0 0 100 100;" xml:space="preserve">
<style type="text/css">
	.st0{fill:#FFFFFF;}
</style>
<g>
	<g>
		<circle cx="50" cy="50" r="50"/>
	</g>
	<path class="st0" d="M50,95C25.2,95,5,74.8,5,50C5,25.2,25.2,5,50,5c24.8,0,45,20.2,45,45C95,74.8,74.8,95,50,95z M50,9
		C27.4,9,9,27.4,9,50c0,22.6,18.4,41,41,41c22.6,0,41-18.4,41-41C91,27.4,72.6,9,50,9z"/>
</g>
<polygon class="st0" points="53.5,29 46.5,29 32.5,29 32.5,71 39.5,71 39.5,36 46.5,36 46.5,71 53.5,71 53.5,36 60.5,36 60.5,71 
	67.5,71 67.5,29 "/>
</svg>
