<?xml version="1.0" encoding="utf-8"?>
<!-- Generator: Adobe Illustrator 19.2.0, SVG Export Plug-In . SVG Version: 6.00 Build 0)  -->
<svg version="1.1" id="Check" xmlns="http://www.w3.org/2000/svg" xmlns:xlink="http://www.w3.org/1999/xlink" x="0px" y="0px"
	 viewBox="0 0 33.2 20" style="enable-background:new 0 0 33.2 20;" xml:space="preserve">
<style type="text/css">
	.st0{fill-rule:evenodd;clip-rule:evenodd;fill:#aaaaaa;}
	.st1{fill-rule:evenodd;clip-rule:evenodd;fill:#b3bcbc;}
</style>
<g>
	<g>
		<path class="st0" d="M16.1,9.7c0-0.3-0.2-0.5-0.6-0.5c-0.4,0-0.7,0.3-0.8,0.7l1.4,0C16.1,9.9,16.1,9.8,16.1,9.7z"/>
		<path class="st0" d="M18.9,9.6c0,0.2,0.1,0.2,0.6,0.4c0.1,0.1,0.3,0.1,0.4,0.2c0-0.1,0-0.1,0-0.2c0-0.2,0-0.5,0-0.7
			c-0.1,0-0.2,0-0.3,0C19.1,9.2,18.9,9.4,18.9,9.6z"/>
		<path class="st0" d="M10.5,11.3c0,0.3,0.2,0.4,0.4,0.4c0.5,0,0.9-0.4,0.9-1c-0.1,0-0.2,0-0.3,0C10.8,10.6,10.5,10.8,10.5,11.3z"/>
		<path class="st0" d="M18.4,12.6c-0.2,0-0.4,0-0.7,0c-0.1,0-0.3,0-0.3,0l-0.2,0l-0.1,0l0.2-1c0.4,0.1,0.7,0.2,1.1,0.2
			c0.5,0,0.7-0.1,0.7-0.4c0-0.2-0.1-0.2-0.6-0.5c-0.7-0.3-1-0.6-1-1.1c0-0.8,0.5-1.4,1.9-1.4c0.1,0,0.1,0,0.2,0
			c-0.4-2.2-1.5-4.2-3.1-5.7C14.8,1,12.5,0,9.9,0C4.4,0,0,4.5,0,10c0,5.5,4.4,10,9.9,10c2.6,0,4.9-1,6.7-2.6c1.4-1.3,2.5-3.1,3-5
			C19.3,12.5,18.9,12.6,18.4,12.6z M7.5,12.5l0.7-3.9l-1.7,3.9H5.4L5.2,8.6l-0.7,3.9H3.3l1-5.1h1.9l0.1,3.1l1.4-3.1h2l-1,5.1H7.5z
			 M13.1,10.3l-0.3,1.5l0,0.3l0,0.2l0,0.1l0,0.1h-1l0-0.4c-0.3,0.3-0.7,0.5-1.3,0.5c-0.7,0-1.1-0.5-1.1-1.1c0-1,0.8-1.6,2.2-1.6
			c0.1,0,0.3,0,0.5,0c0-0.1,0-0.2,0-0.3c0-0.3-0.2-0.4-0.8-0.4c-0.4,0-0.8,0-1,0.1l-0.2,0l-0.1,0l0.2-0.9c0.6-0.2,1-0.2,1.5-0.2
			c1.1,0,1.6,0.4,1.6,1.2C13.2,9.7,13.2,9.8,13.1,10.3z M15.7,11.6c0.4,0,0.8-0.1,1.3-0.3l-0.2,1c-0.4,0.1-0.8,0.2-1.3,0.2
			c-1.4,0-2.1-0.6-2.1-1.8c0-1.4,0.9-2.5,2.2-2.5c1,0,1.7,0.6,1.7,1.5c0,0.3,0,0.6-0.2,1h-2.5c0,0.1,0,0.1,0,0.1
			C14.6,11.4,15,11.6,15.7,11.6z"/>
	</g>
	<path class="st1" d="M28,9.3c-0.6,0-1,0.8-1,1.4c0,0.6,0.3,0.9,0.7,0.9c0.3,0,0.8-0.4,1-1c0-0.1,0-0.3,0-0.5
		C28.7,9.7,28.5,9.3,28,9.3z"/>
	<path class="st1" d="M23.3,0c-2.6,0-4.9,1-6.7,2.6c-0.4,0.3-0.7,0.7-1,1.1h2c0.3,0.3,0.5,0.7,0.8,1.1h-3.5
		c-0.2,0.3-0.4,0.7-0.6,1.1h4.7c0.2,0.3,0.3,0.7,0.4,1.1h-5.5c-0.1,0.3-0.2,0.7-0.3,1.1h6.1c0,0.1,0.1,0.3,0.1,0.4
		c0.3,0,0.6,0,0.9,0.1l-0.2,1c-0.2,0-0.4,0-0.6-0.1c0,0.2,0,0.5,0,0.7c0,0.1,0,0.1,0,0.2c0.4,0.2,0.5,0.5,0.5,1c0,0.6-0.3,1-0.8,1.2
		c-0.1,0.3-0.1,0.5-0.2,0.8h-5.5c0.1,0.4,0.3,0.7,0.4,1.1h4.7c-0.2,0.4-0.4,0.7-0.6,1.1h-3.5c0.2,0.4,0.5,0.7,0.8,1.1h2
		c-0.3,0.4-0.6,0.7-1,1.1c1.8,1.6,4.1,2.6,6.7,2.6c5.5,0,9.9-4.5,9.9-10C33.2,4.5,28.7,0,23.3,0z M22.3,11.6c0.1,0,0.2,0,0.3,0
		l-0.2,0.9c-0.3,0.1-0.6,0.1-0.9,0.1c-0.6,0-1-0.3-1-0.9c0-0.1,0-0.2,0-0.4l0.1-0.4l0.1-0.3l0.6-3.1h1.2l-0.2,0.9h0.6l-0.2,1h-0.6
		l-0.3,1.7c0,0.1,0,0.1,0,0.2C21.9,11.5,22,11.6,22.3,11.6z M25.4,9.5c-0.6,0-0.8,0.4-1.2,3h-1.2l0.8-4.1h1.1L24.7,9
		c0.4-0.5,0.7-0.7,1.1-0.7c0,0,0.1,0,0.1,0c0,0,0,0,0.1,0c0,0,0,0,0.1,0l-0.4,1.2l-0.1,0C25.4,9.5,25.4,9.5,25.4,9.5z M29.9,10.6
		c-0.2,1.4-1.1,2-2.4,2c-1.4,0-2-0.9-2-1.9c0-1.5,1-2.5,2.4-2.5c1.3,0,2,0.8,2,1.9C30,10.4,30,10.4,29.9,10.6z"/>
</g>
</svg>
