<?xml version="1.0" encoding="utf-8"?>
<!-- Generator: Adobe Illustrator 19.2.0, SVG Export Plug-In . SVG Version: 6.00 Build 0)  -->
<svg version="1.1" id="Check" xmlns="http://www.w3.org/2000/svg" xmlns:xlink="http://www.w3.org/1999/xlink" x="0px" y="0px"
	 viewBox="0 0 33.3 20" style="enable-background:new 0 0 33.3 20;" xml:space="preserve">
<style type="text/css">
	.st0{fill:#b3bcbc;}
	.st1{fill:#b3bcbc;}
	.st2{fill:#aaaaaa;}
</style>
<g>
	<path class="st0" d="M6.8,11.4c0,0.1,0.1,0.4,0.4,0.4c0.6,0,0.8-0.8,0.8-1c0,0,0,0-0.2,0C7,10.8,6.8,11.1,6.8,11.4z"/>
	<path class="st0" d="M15.8,9.3c-0.6,0-0.7,0.6-0.7,0.7h1.2C16.3,10,16.4,9.3,15.8,9.3z"/>
	<g>
		<g>
			<path class="st1" d="M15.8,9.3c-0.6,0-0.7,0.6-0.7,0.7h1.2C16.3,10,16.4,9.3,15.8,9.3z"/>
			<path class="st1" d="M23.3,0c-4.8,0-8.7,3.4-9.7,7.8h0l-0.1,0.6H14l-0.1,1h-0.6c0,0.2,0,0.4,0,0.5c0,0.6,0.1,1.1,0.2,1.7
				c0.1,0,0.1,0,0.2,0l-0.1,0.6c1,4.4,5,7.8,9.7,7.8c5.5,0,10-4.5,10-10C33.3,4.5,28.8,0,23.3,0z M15.9,11.7c0.5,0,1.1-0.3,1.1-0.3
				l-0.2,1c0,0-0.3,0.2-1.1,0.2c-0.8,0-1.8-0.4-1.8-1.9c0-1.3,0.8-2.4,1.8-2.4c1.2,0,1.5,0.8,1.5,1.6c0,0.3-0.1,1-0.1,1H15
				C15,10.9,14.8,11.7,15.9,11.7z M18.3,12.6L18.3,12.6l-1.1,0l0.7-4.1h1l-0.1,0.6c0,0,0.4-0.7,0.8-0.7c0.2,0,0.2,0,0.2,0
				c-0.1,0.3-0.3,0.6-0.4,1.2C18.7,9.4,18.6,10.8,18.3,12.6z M22.5,12.5c0,0-0.6,0.2-0.9,0.2c-1.2,0-1.9-0.9-1.9-2.2
				c0-2,1.2-3.1,2.4-3.1c0.6,0,1.2,0.3,1.2,0.3l-0.2,1.1c0,0-0.4-0.3-1-0.3c-0.7,0-1.4,0.7-1.4,2c0,0.6,0.3,1.2,1.1,1.2
				c0.4,0,0.9-0.3,0.9-0.3L22.5,12.5z M25.1,12.6l0-0.4c0,0-0.4,0.5-1.1,0.5c-0.4,0-1-0.2-1-1.2c0-1.2,0.9-1.6,1.9-1.6
				c0.1,0,0.4,0,0.4,0s0-0.1,0-0.3c0-0.3-0.3-0.4-0.7-0.4c-0.7,0-1.2,0.2-1.2,0.2l0.1-0.9c0,0,0.6-0.2,1.3-0.2c0.4,0,1.5,0,1.5,1.3
				L26,12.6H25.1z M27.2,12.6l-1.1,0l0.7-4.1h1l-0.1,0.6c0,0,0.4-0.7,0.8-0.7c0.1,0,0.2,0,0.2,0c-0.1,0.3-0.3,0.6-0.4,1.2
				C27.6,9.4,27.6,10.8,27.2,12.6z M30.5,12.7l0-0.4c0,0-0.4,0.4-1,0.4c-0.9,0-1.3-0.8-1.3-1.7c0-1.4,0.8-2.5,1.8-2.5
				c0.6,0,1,0.5,1,0.5l0.2-1.4h1.1l-0.8,5.1H30.5z"/>
		</g>
		<path class="st1" d="M30.2,9.4c-0.5,0-0.8,0.5-0.8,1.4c0,0.5,0.2,0.8,0.6,0.8c0.6,0,0.8-0.8,0.8-1.3C30.8,9.7,30.6,9.4,30.2,9.4z"/>
		<path class="st1" d="M24,11.4c0,0.1,0.1,0.4,0.4,0.4c0.6,0,0.8-0.8,0.8-1c0,0,0,0-0.2,0C24.2,10.8,24,11.1,24,11.4z"/>
	</g>
	<path class="st2" d="M19.8,11.6c-0.1-0.3-0.2-0.7-0.2-1.1c0-0.6,0.1-1.1,0.3-1.5c0-0.4-0.1-0.8-0.2-1.1h-6.1
		c0.1-0.4,0.2-0.7,0.3-1.1h5.5c-0.1-0.4-0.3-0.7-0.4-1.1h-4.6c0.2-0.4,0.4-0.7,0.6-1.1h3.5c-0.2-0.4-0.5-0.7-0.8-1.1h-2
		c0.3-0.4,0.6-0.7,1-1C14.9,1,12.5,0,10,0h0C4.4,0,0,4.5,0,10c0,5.5,4.4,10,10,10c2.6,0,4.9-1,6.7-2.6c0.4-0.3,0.7-0.7,1-1.1h-2
		c-0.3-0.3-0.5-0.7-0.8-1h3.6c0.2-0.4,0.4-0.7,0.6-1.1h-4.7c-0.2-0.4-0.3-0.7-0.4-1.1h5.5C19.6,12.6,19.7,12.1,19.8,11.6z M4.2,12.6
		l0.6-3.8l-1.4,3.8H2.7L2.6,8.8L2,12.6h-1l0.8-5.1h1.6l0,3.1l1.1-3.1h1.7l-0.9,5.1H4.2z M7.9,12.6l0-0.4c0,0-0.4,0.5-1.1,0.5
		c-0.4,0-1-0.2-1-1.2c0-1.2,0.9-1.6,1.9-1.6c0.1,0,0.4,0,0.4,0s0-0.1,0-0.3c0-0.3-0.3-0.4-0.7-0.4c-0.7,0-1.2,0.2-1.2,0.2l0.1-0.9
		c0,0,0.6-0.2,1.3-0.2c0.4,0,1.4,0,1.5,1.3l-0.4,2.9H7.9z M11.8,11.3c0,1.4-1.4,1.3-1.6,1.3c-0.9,0-1.2-0.1-1.2-0.2l0.1-0.9
		c0,0,0.4,0.2,0.9,0.2c0.3,0,0.7,0,0.7-0.4c0-0.5-1.3-0.4-1.3-1.6c0-1.1,0.8-1.4,1.6-1.4c0.6,0,1,0.1,1,0.1l-0.1,0.9
		c0,0-0.6,0-0.7,0c-0.4,0-0.6,0.1-0.6,0.4C10.5,10.3,11.8,10,11.8,11.3z M13.4,11.7c0.1,0,0.2,0,0.3,0l-0.1,0.9
		c-0.1,0-0.4,0.1-0.8,0.1c-0.5,0-0.8-0.3-0.8-0.9c0-0.4,0.6-3.9,0.6-3.9h1.1l-0.1,0.6H14l-0.1,1h-0.6L13,11.3
		C13,11.5,13.1,11.7,13.4,11.7z M15.9,11.7c0.5,0,1.1-0.3,1.1-0.3l-0.2,1c0,0-0.3,0.2-1.1,0.2c-0.8,0-1.8-0.4-1.8-1.9
		c0-1.3,0.8-2.4,1.8-2.4c1.2,0,1.5,0.8,1.5,1.6c0,0.3-0.1,1-0.1,1H15C15,10.9,14.8,11.7,15.9,11.7z M18.3,12.6L18.3,12.6l-1.1,0
		l0.7-4.1h1l-0.1,0.6c0,0,0.4-0.7,0.8-0.7c0.2,0,0.2,0,0.2,0c-0.1,0.3-0.3,0.6-0.4,1.2C18.7,9.4,18.6,10.8,18.3,12.6z"/>
</g>
</svg>
