<?xml version="1.0" encoding="utf-8"?>
<!-- Generator: Adobe Illustrator 19.2.0, SVG Export Plug-In . SVG Version: 6.00 Build 0)  -->
<svg version="1.1" id="Check" xmlns="http://www.w3.org/2000/svg" xmlns:xlink="http://www.w3.org/1999/xlink" x="0px" y="0px"
	 viewBox="0 0 52.4 20" style="enable-background:new 0 0 52.4 20;" xml:space="preserve">
<style type="text/css">
	.st0{fill:#b3bcbc;}
</style>
<g>
	<path class="st0" d="M35.8,6.9c-0.2,1.5-1.3,1.5-2.4,1.5h-0.6l0.4-2.8c0-0.2,0.2-0.3,0.3-0.3h0.3c0.7,0,1.4,0,1.8,0.4
		C35.8,6,35.9,6.4,35.8,6.9 M35.3,3.1h-4.1c-0.3,0-0.5,0.2-0.6,0.5L29,14c-0.1,0.2,0.1,0.3,0.3,0.4h0.1h2.1c0.2,0,0.3-0.2,0.4-0.3
		l0.4-3c0.1-0.3,0.3-0.5,0.6-0.5h1.3c2.7,0,4.2-1.3,4.7-3.9c0.2-1.1,0-2-0.5-2.6C37.7,3.4,36.7,3.1,35.3,3.1"/>
	<path class="st0" d="M6.8,6.9C6.5,8.3,5.4,8.3,4.3,8.3H3.7l0.4-2.8c0-0.2,0.2-0.3,0.3-0.3h0.3c0.7,0,1.4,0,1.8,0.4
		C6.8,6,6.8,6.4,6.8,6.9 M6.3,3.1H2.2c-0.3,0-0.5,0.2-0.6,0.5L0,14c-0.1,0.2,0.1,0.3,0.3,0.4h0.1h2c0.3,0,0.5-0.2,0.6-0.5l0.4-2.8
		c0.1-0.3,0.3-0.5,0.6-0.5h1.3c2.7,0,4.2-1.3,4.7-3.9c0.2-1.1,0-2-0.5-2.6C8.7,3.4,7.6,3.1,6.3,3.1 M15.7,10.6
		c-0.2,1.1-1.1,1.9-2.2,1.9c-0.6,0-1-0.2-1.3-0.5c-0.2-0.4-0.3-0.9-0.2-1.4c0.2-1.1,1.1-1.9,2.2-1.9c0.6,0,1,0.2,1.3,0.5
		C15.7,9.6,15.8,10.1,15.7,10.6 M18.4,6.8h-2c-0.2,0-0.3,0.1-0.3,0.3L16,7.7l-0.1-0.2c-0.4-0.6-1.3-0.8-2.3-0.8
		c-2.1,0-4,1.6-4.4,3.9c-0.2,1.1,0.1,2.2,0.7,3c0.6,0.7,1.5,1,2.5,1c1.7,0,2.7-1.1,2.7-1.1L15,14c-0.1,0.2,0.1,0.3,0.3,0.4h0.1h1.9
		c0.3,0,0.5-0.2,0.6-0.5L19,7.2C18.8,7,18.7,6.8,18.4,6.8C18.5,6.8,18.5,6.8,18.4,6.8"/>
	<path class="st0" d="M44.8,10.6c-0.2,1.1-1.1,1.9-2.2,1.9c-0.6,0-1-0.2-1.3-0.5s-0.4-0.9-0.3-1.4c0.2-1.1,1.1-1.9,2.2-1.9
		c0.6,0,1,0.2,1.3,0.5C44.8,9.6,44.9,10.1,44.8,10.6 M47.5,6.8h-2c-0.2,0-0.3,0.1-0.3,0.3l-0.1,0.6L45,7.4c-0.4-0.6-1.3-0.8-2.3-0.8
		c-2.1,0-4,1.6-4.4,3.9c-0.2,1.1,0.1,2.2,0.7,3c0.6,0.7,1.5,1,2.5,1c1.7,0,2.7-1.1,2.7-1.1L44.1,14c-0.1,0.2,0.1,0.3,0.3,0.4h0.1
		h1.7c0.3,0,0.5-0.2,0.6-0.5l1.1-6.7C47.9,7,47.8,6.8,47.5,6.8L47.5,6.8"/>
	<path class="st0" d="M28.8,6.8h-2c-0.2,0-0.3,0.1-0.4,0.2l-2.7,4l-1.1-3.8C22.5,7,22.3,6.8,22,6.8h-1.9c-0.2,0-0.3,0.2-0.3,0.3
		s0,0.1,0,0.1l2.1,6.4l-2,2.9c-0.1,0.2-0.1,0.4,0.1,0.4c0,0.1,0.1,0.1,0.1,0.1h2c0.2,0,0.3-0.1,0.4-0.2L29,7.3
		c0.1-0.2,0.1-0.4-0.1-0.4C29,6.8,28.9,6.8,28.8,6.8"/>
	<path class="st0" d="M49.8,3.3L48.1,14c-0.1,0.2,0.1,0.3,0.3,0.4h0.1h1.7c0.3,0,0.5-0.2,0.6-0.5l1.6-10.5c0.1-0.2-0.1-0.3-0.3-0.4
		H52h-1.9C50,3.1,49.8,3.2,49.8,3.3"/>
</g>
</svg>
