<?xml version="1.0" encoding="utf-8"?>
<!-- Generator: Adobe Illustrator 19.2.0, SVG Export Plug-In . SVG Version: 6.00 Build 0)  -->
<svg version="1.1" id="Check" xmlns="http://www.w3.org/2000/svg" xmlns:xlink="http://www.w3.org/1999/xlink" x="0px" y="0px"
	 viewBox="0 0 16.1 20" style="enable-background:new 0 0 16.1 20;" xml:space="preserve">
<style type="text/css">
	.st0{fill-rule:evenodd;clip-rule:evenodd;fill:#b3bcbc;}
</style>
<g>
	<path class="st0" d="M8.1,2.1C4.6,2.1,1.7,5,1.7,8.5c0,3.5,2.8,6.3,6.3,6.3c3.5,0,6.3-2.8,6.3-6.3C14.4,5,11.5,2.1,8.1,2.1z
		 M8.9,12.4c-1.7,1.1-3.9,0.6-4.9-1l1-0.7c0.7,1.1,2.1,1.4,3.2,0.7c1.1-0.7,1.4-2.1,0.7-3.2l1.1-0.7C11,9.1,10.5,11.3,8.9,12.4z
		 M11.3,6.6C10.6,5.5,9.1,5.2,8,5.9C7,6.6,6.7,8.1,7.4,9.1l-1,0.7c-1.1-1.7-0.6-3.9,1-4.9c1.7-1.1,3.9-0.6,4.9,1L11.3,6.6z"/>
	<g>
		<path class="st0" d="M15,0H1.1C0.6,0.1,0,0.7,0,1.1V19c0,0.5,0.5,1,1,1h14.1c0.4,0,1-0.6,1-1V1C16.1,0.6,15.4,0.1,15,0z M4.5,17.4
			l0.6,0.1c0.3,0,0.5,0.3,0.5,0.5c0,0.3-0.3,0.7-1,0.7c-0.5,0-0.9-0.2-1-0.5l0.3-0.2c0.1,0.2,0.4,0.4,0.8,0.4c0.4,0,0.5-0.1,0.5-0.3
			c0-0.1,0-0.2-0.3-0.3l-0.5-0.1c-0.5-0.1-0.6-0.3-0.6-0.5c0-0.4,0.5-0.6,1-0.6c0.4,0,0.8,0.1,1,0.3l-0.3,0.2
			c-0.2-0.2-0.5-0.2-0.7-0.2c-0.2,0-0.4,0.1-0.5,0.3C4.3,17.3,4.3,17.4,4.5,17.4z M8.2,17.7c-0.1,0.6-0.6,1.1-1.2,1.1
			c-0.6,0-1-0.5-0.9-1.1c0.1-0.6,0.6-1.1,1.2-1.1C7.9,16.6,8.3,17.1,8.2,17.7z M10,18.7H8.4l0.4-2h0.4l-0.4,1.6h1.2L10,18.7z
			 M12.5,17.7c-0.1,0.6-0.6,1.1-1.2,1.1c-0.6,0-1-0.5-0.9-1.1c0.1-0.6,0.6-1.1,1.2-1.1C12.2,16.6,12.6,17.1,12.5,17.7z M8.1,15.2
			c-3.7,0-6.8-3-6.8-6.8c0-3.7,3-6.8,6.8-6.8s6.8,3,6.8,6.8C14.8,12.2,11.8,15.2,8.1,15.2z"/>
		<path class="st0" d="M7.2,17c-0.4,0-0.7,0.3-0.8,0.7C6.4,18,6.6,18.4,7,18.4c0.4,0,0.7-0.3,0.8-0.7C7.9,17.3,7.6,17,7.2,17z"/>
		<path class="st0" d="M11.5,17c-0.4,0-0.7,0.3-0.8,0.7c-0.1,0.4,0.2,0.7,0.6,0.7s0.7-0.3,0.8-0.7C12.2,17.3,11.9,17,11.5,17z"/>
	</g>
</g>
</svg>
