<?xml version="1.0" encoding="utf-8"?>
<!-- Generator: Adobe Illustrator 19.2.0, SVG Export Plug-In . SVG Version: 6.00 Build 0)  -->
<svg version="1.1" id="Check" xmlns="http://www.w3.org/2000/svg" xmlns:xlink="http://www.w3.org/1999/xlink" x="0px" y="0px"
	 viewBox="0 0 38.5 20" style="enable-background:new 0 0 38.5 20;" xml:space="preserve">
<style type="text/css">
	.st0{fill:#b3bcbc;}
</style>
<g id="Stripe">
	<path class="st0" d="M38.5,10.3c0-2.7-1.3-4.9-3.9-4.9c-2.5,0-4.1,2.2-4.1,4.9c0,3.2,1.8,4.8,4.4,4.8c1.3,0,2.2-0.3,3-0.7v-2.1
		c-0.7,0.4-1.6,0.6-2.6,0.6s-2-0.4-2.1-1.6h5.2C38.4,11.1,38.5,10.5,38.5,10.3z M33.2,9.3c0-1.2,0.7-1.7,1.4-1.7s1.3,0.5,1.3,1.7
		H33.2z"/>
	<path class="st0" d="M26.4,5.4c-1,0-1.7,0.5-2.1,0.8l-0.1-0.7h-2.3V18l2.7-0.6v-3c0.4,0.3,1,0.7,1.9,0.7c1.9,0,3.7-1.5,3.7-4.9
		C30,7.1,28.3,5.4,26.4,5.4z M25.8,12.7c-0.6,0-1-0.2-1.3-0.5v-4c0.3-0.3,0.7-0.5,1.3-0.5c1,0,1.6,1.1,1.6,2.5
		C27.4,11.7,26.7,12.7,25.8,12.7z"/>
	<polygon class="st0" points="18.1,4.7 20.8,4.2 20.8,2 18.1,2.6 	"/>
	<rect x="18.1" y="5.6" class="st0" width="2.7" height="9.3"/>
	<path class="st0" d="M15.3,6.3l-0.2-0.8h-2.3v9.3h2.7V8.6c0.6-0.8,1.7-0.7,2-0.6V5.6C17.1,5.4,15.9,5.2,15.3,6.3z"/>
	<path class="st0" d="M9.9,3.2L7.3,3.8v8.6c0,1.6,1.2,2.7,2.8,2.7c0.9,0,1.5-0.2,1.9-0.4v-2.2c-0.3,0.1-2,0.6-2-1V7.8h2V5.6h-2
		L9.9,3.2z"/>
	<path class="st0" d="M2.7,8.3c0-0.4,0.3-0.6,0.9-0.6c0.8,0,1.8,0.2,2.6,0.7V5.9C5.4,5.5,4.5,5.4,3.6,5.4C1.4,5.4,0,6.5,0,8.4
		c0,2.9,4.1,2.5,4.1,3.7c0,0.5-0.4,0.7-1,0.7c-0.9,0-2-0.4-2.9-0.9v2.5c1,0.4,2,0.6,2.9,0.6c2.2,0,3.7-1.1,3.7-3
		C6.8,8.9,2.7,9.5,2.7,8.3z"/>
</g>
</svg>
