<?xml version="1.0" encoding="utf-8"?>
<!-- Generator: Adobe Illustrator 19.2.0, SVG Export Plug-In . SVG Version: 6.00 Build 0)  -->
<svg version="1.1" id="Check" xmlns="http://www.w3.org/2000/svg" xmlns:xlink="http://www.w3.org/1999/xlink" x="0px" y="0px"
	 viewBox="0 0 39.8 20" style="enable-background:new 0 0 39.8 20;" xml:space="preserve">
<style type="text/css">
	.st0{fill:#b3bcbc;}
</style>
<g>
	<polygon class="st0" points="16.6,4.4 14.5,15.7 17.8,15.7 19.7,4.4 	"/>
	<path class="st0" d="M26,8.9c-1.1-0.6-1.8-0.9-1.8-1.5c0-0.5,0.6-1,1.8-1c1.1,0,1.8,0.2,2.4,0.4L28.7,7l0.5-2.5
		C28.5,4.3,27.5,4,26.3,4c-3.2,0-5.4,1.6-5.4,3.8c0,1.7,1.6,2.6,2.8,3.2c1.3,0.6,1.6,0.9,1.6,1.5c0,0.8-1,1.1-1.9,1.1
		c-1.3,0-1.9-0.2-3-0.6L20,12.8l-0.4,2.6c0.8,0.3,2.2,0.6,3.6,0.6c3.3,0,5.6-1.6,5.6-4C28.7,10.7,27.9,9.7,26,8.9z"/>
	<path class="st0" d="M37.1,4.4h-2.5c-0.8,0-1.3,0-1.6,0.8l-4.7,10.5h3.4l0.6-1.9h4.1l0.4,1.9h3L37.1,4.4z M33.2,12L33.2,12
		c0.2-0.6,1.3-3.4,1.3-3.4s0.3-0.7,0.4-1.1L35,8.6c0,0,0.6,2.8,0.8,3.5h-2.6V12z"/>
	<path class="st0" d="M12,4.4l-3.2,7.9l-0.3-1.6L7.3,5.3C7.2,4.6,6.6,4.4,5.9,4.4H0l0.6,0.1c1.3,0.3,2.5,0.8,3.5,1.4l2.8,10h3.4
		l5.1-11.4L12,4.4L12,4.4z"/>
</g>
</svg>
