<svg version="1.1" id="Layer_1" xmlns="http://www.w3.org/2000/svg" xmlns:xlink="http://www.w3.org/1999/xlink" x="0px" y="0px" viewBox="0 0 20 20" style="enable-background:new 0 0 20 20;" xml:space="preserve">
	<path fill="#ffffff" d="M0,12.9l1.8,1.8c1-1,2.6-1,3.5,0c1,1,1,2.6,0,3.5l1.8,1.8l8.5-8.5l-1.3-1.3l0.6-0.6l1.3,1.3L20,7.1l-1.8-1.8
	c-1,1-2.6,1-3.5,0c-1-1-1-2.6,0-3.5l-1.8-1.8L9.2,3.8l1.3,1.3L9.8,5.6L8.5,4.3L0,12.9L0,12.9z M6.5,9l2.1,0.9l1.8-1.6l-0.2,2.3
	l2,1.1l-2.3,0.5l-0.7,2.4l-1.1-2l-2.3,0.2L7.4,11L6.5,9z M10.5,6.3l0.6-0.6L12.4,7l-0.6,0.6L10.5,6.3z M12.4,8.1L13,7.6l1.3,1.3
	l-0.6,0.6L12.4,8.1z" />
</svg>