<svg version="1.1" id="Layer_1" xmlns="http://www.w3.org/2000/svg" xmlns:xlink="http://www.w3.org/1999/xlink" x="0px" y="0px" viewBox="0 0 20 20" style="enable-background:new 0 0 20 20;" xml:space="preserve">
	<path fill="#ffffff" d="M5,7.1v1.4h2.9v1.4H5v4.3h4.3v-1.4H6.4v-1.4h2.9V7.1H5z M14.3,10V7.1h-1.4V10h-0.7V7.1h-1.4v4.3h1.4h0.7v2.9h1.4v-2.9h1.4
	V10H14.3z M18.5,7l-1.3,0.6c0.4,1,0.7,2,0.7,3.1c0,4.3-3.5,7.9-7.9,7.9s-7.9-3.5-7.9-7.9c0-4.3,3.5-7.9,7.9-7.9v1.4l3.6-2.1L10,0
	v1.4c-5.1,0-9.3,4.2-9.3,9.3S4.9,20,10,20c5.1,0,9.3-4.2,9.3-9.3C19.3,9.4,19,8.2,18.5,7z" />
</svg>