<svg version="1.1" id="Layer_1" xmlns="http://www.w3.org/2000/svg" xmlns:xlink="http://www.w3.org/1999/xlink" x="0px" y="0px" viewBox="0 0 20 20" style="enable-background:new 0 0 20 20;" xml:space="preserve">
	<path fill="#ffffff" d="M9.1,6.8c0-1.1,1.6-1.1,1.6,0C10.7,8,9.1,8,9.1,6.8z M2.1,18.6c0.3-0.4,0.8-0.4,1,0c0.1,0.1,0.1,0.2,0.3,0.3
	c0.3,0.1,0.5,0.1,0.7,0c0.1-0.1,0.2-0.1,0.3-0.3c0.3-0.4,0.8-0.4,1,0c0.1,0.1,0.2,0.2,0.3,0.3C6,19,6.2,19,6.4,18.9
	c0.1-0.1,0.3-0.1,0.3-0.3c0.2-0.4,0.7-0.4,1,0c0.1,0.1,0.2,0.2,0.3,0.3c0.2,0.1,0.5,0.1,0.7,0c0.1-0.1,0.2-0.1,0.3-0.3
	c0.2-0.4,0.7-0.4,1,0c0.1,0.1,0.1,0.2,0.3,0.3c0.3,0.1,0.5,0.1,0.7,0c0.1-0.1,0.2-0.1,0.3-0.3c0.1,0,0.1-0.1,0.1-0.1
	c-0.4-1.1-1.2-1.8-2-2.3c1.7-3.1,2.1-7,2.6-10.4c1.1-1.1,3.6,0.9,4.3,3.2c0.2-2.1-0.7-4.3-2.6-4.2c2-1,3.3,0.1,6,2.6
	c-1.2-4.6-3.9-5.6-6.5-3.8c1.1-1.6,1.5-2,4.7-1.7c-2.2-2.2-4.5-1.2-5.6,1.1c-0.1-1.3,0.7-2.5,1.5-3.1c-1,0.5-2,1.1-2.2,2.7
	c-0.3-1.7-0.7-2-2.2-2.7c0.8,0.6,1.6,1.8,1.5,3.1C9.8,0.8,7.4-0.1,5.3,2c3.2-0.4,3.6,0.1,4.6,1.7C7.4,1.9,4.6,3,3.4,7.5
	C6,5,7.4,3.9,9.4,4.9C7.5,4.8,6.5,7,6.8,9.1c0.7-2.3,3.3-4.2,4.3-3.2c-0.3,3.2-1.5,7-3.3,9.7c-2.6-0.5-5.6,0.6-6.4,3.5
	c0.2,0,0.4,0,0.5-0.1C1.9,18.8,2,18.7,2.1,18.6z M19.3,11.9l0.7-0.6l-0.8-0.2l0.5-0.7h-0.8L19,9.7l-0.7,0.3l-0.1-0.8l-0.6,0.6
	L17.2,9l-0.4,0.7l-0.6-0.6l-0.1,0.8l-0.7-0.3l0.2,0.8h-0.8l0.4,0.7l-0.7,0.2l0.6,0.6l-0.6,0.5l0.7,0.2l-0.4,0.8l0.8-0.1l-0.2,0.8
	l0.7-0.4l0.1,0.8l0.6-0.6l0.4,0.7l0.3-0.7l0.6,0.6l0.1-0.8l0.7,0.4l-0.2-0.8l0.8,0.1l-0.5-0.8l0.8-0.2L19.3,11.9z M18.6,18.7
	c-0.1,0.1-0.3,0.3-0.4,0.4c-0.3,0.2-0.7,0.2-1,0c-0.2-0.1-0.3-0.3-0.4-0.4c-0.1-0.2-0.4-0.2-0.5,0c-0.1,0.1-0.3,0.3-0.4,0.4
	c-0.3,0.2-0.7,0.2-1.1,0c-0.1-0.1-0.3-0.3-0.3-0.4c-0.1-0.2-0.4-0.2-0.5,0c-0.1,0.1-0.2,0.3-0.3,0.4c-0.3,0.2-0.7,0.2-1.1,0
	c-0.1-0.1-0.3-0.3-0.4-0.4c-0.1-0.2-0.3-0.2-0.5,0c-0.1,0.1-0.2,0.3-0.4,0.4c-0.3,0.2-0.7,0.2-1,0c-0.1-0.1-0.3-0.3-0.4-0.4
	c-0.1-0.2-0.4-0.2-0.5,0c-0.1,0.1-0.3,0.3-0.4,0.4c-0.3,0.2-0.7,0.2-1.1,0c-0.1-0.1-0.3-0.3-0.3-0.4c-0.1-0.2-0.4-0.2-0.5,0
	c-0.1,0.1-0.2,0.3-0.3,0.4c-0.3,0.2-0.7,0.2-1.1,0c-0.1-0.1-0.3-0.3-0.3-0.4c-0.1-0.2-0.4-0.2-0.5,0c-0.1,0.1-0.2,0.3-0.4,0.4
	c-0.3,0.2-0.7,0.2-1,0C3.1,19,3,18.9,2.8,18.7c-0.1-0.2-0.3-0.2-0.5,0c-0.1,0.1-0.3,0.3-0.4,0.4c-0.3,0.2-0.7,0.2-1,0
	c-0.2-0.1-0.3-0.3-0.4-0.4c-0.2-0.4-0.7,0-0.5,0.4c0.1,0.3,0.3,0.5,0.6,0.6c0.5,0.4,1.1,0.4,1.6,0c0.1-0.1,0.3-0.1,0.4-0.3
	c0.1,0.1,0.2,0.2,0.3,0.3c0.5,0.4,1.1,0.4,1.6,0c0.1-0.1,0.2-0.1,0.3-0.3c0.1,0.1,0.2,0.2,0.3,0.3c0.5,0.4,1.1,0.4,1.6,0
	c0.1-0.1,0.2-0.1,0.3-0.3c0.1,0.1,0.2,0.2,0.3,0.3c0.5,0.4,1.2,0.4,1.6,0c0.1-0.1,0.3-0.1,0.3-0.3c0.1,0.1,0.3,0.2,0.4,0.3
	c0.5,0.4,1.1,0.4,1.6,0c0.1-0.1,0.3-0.1,0.4-0.3c0.1,0.1,0.2,0.2,0.3,0.3c0.5,0.4,1.1,0.4,1.6,0c0.1-0.1,0.2-0.1,0.3-0.3
	c0.1,0.1,0.2,0.2,0.3,0.3c0.5,0.4,1.2,0.4,1.6,0c0.1-0.1,0.3-0.1,0.3-0.3c0.1,0.1,0.3,0.2,0.3,0.3c0.5,0.4,1.2,0.4,1.6,0
	c0.3-0.1,0.5-0.4,0.6-0.6C19.3,18.7,18.8,18.3,18.6,18.7z M12.1,6.8c0,1.1,1.6,1.1,1.6,0C13.7,5.7,12.1,5.7,12.1,6.8z" />
</svg>