<svg xmlns="http://www.w3.org/2000/svg">
	<defs>
		
		<!-- GENERAL -->
		
		<symbol id="icon-envelope" viewBox="0 0 20 20">
			<path d="M1.574,5.286c0.488,0.262,7.248,3.894,7.5,4.029C9.326,9.45,9.652,9.514,9.98,9.514c0.328,0,0.654-0.064,0.906-0.199
			s7.012-3.767,7.5-4.029C18.875,5.023,19.337,4,18.44,4H1.521C0.624,4,1.086,5.023,1.574,5.286z M18.613,7.489
			c-0.555,0.289-7.387,3.849-7.727,4.027s-0.578,0.199-0.906,0.199s-0.566-0.021-0.906-0.199S1.941,7.777,1.386,7.488
			C0.996,7.284,1,7.523,1,7.707S1,15,1,15c0,0.42,0.566,1,1,1h16c0.434,0,1-0.58,1-1c0,0,0-7.108,0-7.292S19.004,7.285,18.613,7.489z" />
		</symbol>
		
		<symbol id="icon-phone" viewBox="0 0 20 20">
			<path d="M11.229,11.229c-1.583,1.582-3.417,3.096-4.142,2.371c-1.037-1.037-1.677-1.941-3.965-0.102
			c-2.287,1.838-0.53,3.064,0.475,4.068c1.16,1.16,5.484,0.062,9.758-4.211c4.273-4.274,5.368-8.598,4.207-9.758
			c-1.005-1.006-2.225-2.762-4.063-0.475c-1.839,2.287-0.936,2.927,0.103,3.965C14.324,7.812,12.811,9.646,11.229,11.229z" />
		</symbol>
		
		<symbol id="icon-info" viewBox="0 0 20 20">
			<path d="M10,0.4c-5.303,0-9.601,4.298-9.601,9.6c0,5.303,4.298,9.601,9.601,9.601c5.301,0,9.6-4.298,9.6-9.601
			C19.6,4.698,15.301,0.4,10,0.4z M10.896,3.866c0.936,0,1.211,0.543,1.211,1.164c0,0.775-0.62,1.492-1.679,1.492
			c-0.886,0-1.308-0.445-1.282-1.182C9.146,4.719,9.665,3.866,10.896,3.866z M8.498,15.75c-0.64,0-1.107-0.389-0.66-2.094l0.733-3.025
			c0.127-0.484,0.148-0.678,0-0.678c-0.191,0-1.022,0.334-1.512,0.664L6.74,10.094c1.555-1.299,3.343-2.061,4.108-2.061
			c0.64,0,0.746,0.756,0.427,1.92l-0.84,3.18c-0.149,0.562-0.085,0.756,0.064,0.756c0.192,0,0.82-0.232,1.438-0.719l0.362,0.486
			C10.786,15.168,9.137,15.75,8.498,15.75z" />
		</symbol>
		
		<symbol id="icon-cross" viewBox="0 0 20 20">
			<path d="M10,1.6c-4.639,0-8.4,3.761-8.4,8.4c0,4.639,3.761,8.4,8.4,8.4s8.4-3.761,8.4-8.4C18.4,5.361,14.639,1.6,10,1.6z
			 M14.789,13.061l-1.729,1.729L10,11.729l-3.061,3.06l-1.729-1.729L8.272,10L5.211,6.939L6.94,5.211L10,8.271l3.061-3.061
			l1.729,1.729L11.728,10L14.789,13.061z" />
		</symbol>
		
		<symbol id="icon-emoji-happy" viewBox="0 0 20 20">
			<path d="M10,0.4c-5.3,0-9.6,4.3-9.6,9.6s4.3,9.6,9.6,9.6c5.3,0,9.6-4.3,9.6-9.6C19.6,4.7,15.3,0.4,10,0.4z M12.5,6.2
			C13.3,6.2,14,7,14,8s-0.7,1.8-1.5,1.8C11.7,9.8,11,9,11,8S11.7,6.2,12.5,6.2z M7.5,6.2C8.3,6.2,9,7,9,8S8.3,9.8,7.5,9.8
			C6.7,9.8,6,9,6,8S6.7,6.2,7.5,6.2z M14.7,12.3c0,0.1-1.2,2.4-4.7,2.4c-3.4,0-4.6-2.3-4.7-2.4c-0.2-0.4,0-0.8,0.3-1
			c0.4-0.2,0.8,0,1,0.3c0,0.1,0.9,1.6,3.3,1.6c2.5,0,3.3-1.5,3.3-1.6c0.2-0.4,0.6-0.5,1-0.3C14.7,11.5,14.9,12,14.7,12.3z" />
		</symbol>
		
		<symbol id="icon-emoji-neutral" viewBox="0 0 20 20">
			<path d="M10,0.4c-5.3,0-9.6,4.3-9.6,9.6s4.3,9.6,9.6,9.6c5.3,0,9.6-4.3,9.6-9.6C19.6,4.7,15.3,0.4,10,0.4z M7.5,6.2C8.3,6.2,9,7,9,8
			S8.3,9.8,7.5,9.8C6.7,9.8,6,9,6,8S6.7,6.2,7.5,6.2z M13,13.8H7c-0.4,0-0.8-0.3-0.8-0.8s0.3-0.8,0.8-0.8h6c0.4,0,0.8,0.3,0.8,0.8
			C13.8,13.4,13.4,13.8,13,13.8z M12.5,9.8C11.7,9.8,11,9,11,8s0.7-1.7,1.5-1.7C13.3,6.3,14,7,14,8S13.3,9.8,12.5,9.8z" />
		</symbol>
		
		<symbol id="icon-emoji-sad" viewBox="0 0 20 20">
			<path d="M10,0.4c-5.3,0-9.6,4.3-9.6,9.6c0,5.3,4.3,9.6,9.6,9.6c5.3,0,9.6-4.3,9.6-9.6C19.6,4.7,15.3,0.4,10,0.4z M12.5,6.2
			C13.3,6.2,14,7,14,8s-0.7,1.8-1.5,1.8C11.7,9.7,11,9,11,8S11.7,6.2,12.5,6.2z M7.5,6.2C8.3,6.2,9,7,9,8S8.3,9.7,7.5,9.7
			C6.7,9.7,6,9,6,8S6.7,6.2,7.5,6.2z M14.3,14.7c-0.4,0.2-0.8,0-1-0.3c0-0.1-0.9-1.6-3.3-1.6c-2.5,0-3.3,1.6-3.3,1.6
			c-0.1,0.3-0.4,0.4-0.7,0.4c-0.1,0-0.2,0-0.3-0.1c-0.4-0.2-0.5-0.6-0.3-1c0-0.1,1.2-2.4,4.7-2.4s4.6,2.3,4.7,2.4
			C14.9,14,14.7,14.5,14.3,14.7z" />
		</symbol>
		
		<symbol id="icon-chevron-left" viewBox="0 0 20 20">
			<path d="M12.452,4.516c0.446,0.436,0.481,1.043,0,1.576L8.705,10l3.747,3.908c0.481,0.533,0.446,1.141,0,1.574
			c-0.445,0.436-1.197,0.408-1.615,0c-0.418-0.406-4.502-4.695-4.502-4.695C6.112,10.57,6,10.285,6,10s0.112-0.57,0.335-0.789
			c0,0,4.084-4.287,4.502-4.695C11.255,4.107,12.007,4.08,12.452,4.516z" />
		</symbol>
		
		<symbol id="icon-chevron-right" viewBox="0 0 20 20">
			<path d="M9.163,4.516c0.418,0.408,4.502,4.695,4.502,4.695C13.888,9.43,14,9.715,14,10s-0.112,0.57-0.335,0.787
			c0,0-4.084,4.289-4.502,4.695c-0.418,0.408-1.17,0.436-1.615,0c-0.446-0.434-0.481-1.041,0-1.574L11.295,10L7.548,6.092
			c-0.481-0.533-0.446-1.141,0-1.576C7.993,4.08,8.745,4.107,9.163,4.516z" />
		</symbol>
		
		<!-- FEATURES -->
		
		<symbol id="icon-24hour" viewBox="0 0 20 20">
			<path d="M5,7.1v1.4h2.9v1.4H5v4.3h4.3v-1.4H6.4v-1.4h2.9V7.1H5z M14.3,10V7.1h-1.4V10h-0.7V7.1h-1.4v4.3h1.4h0.7v2.9h1.4v-2.9h1.4
			V10H14.3z M18.5,7l-1.3,0.6c0.4,1,0.7,2,0.7,3.1c0,4.3-3.5,7.9-7.9,7.9s-7.9-3.5-7.9-7.9c0-4.3,3.5-7.9,7.9-7.9v1.4l3.6-2.1L10,0
			v1.4c-5.1,0-9.3,4.2-9.3,9.3S4.9,20,10,20c5.1,0,9.3-4.2,9.3-9.3C19.3,9.4,19,8.2,18.5,7z" />
		</symbol>
		
		<symbol id="icon-room" viewBox="0 0 20 20">
			<path d="M18.6,11v3.1c0,0.1-0.1,0.2-0.2,0.2H1.7c-0.1,0-0.2-0.1-0.2-0.2V8.5c0-0.1-0.1-0.2-0.2-0.2H0.6c-0.1,0-0.2,0.1-0.2,0.2v10.2
			c0,0.1,0.1,0.2,0.2,0.2h0.6c0.1,0,0.2-0.1,0.2-0.2v-1.1c0-0.1,0.1-0.2,0.2-0.2h16.7c0.1,0,0.2,0.1,0.2,0.2v1.1
			c0,0.1,0.1,0.2,0.2,0.2h0.6c0.1,0,0.2-0.1,0.2-0.2V11c0-0.1-0.1-0.2-0.2-0.2h-0.6C18.7,10.8,18.6,10.9,18.6,11z M7,10.8H15
			c1.7,0,3,1.4,3,3l0,0H7c-0.1,0-0.3-0.1-0.3-0.3V11C6.8,10.9,6.9,10.8,7,10.8z M5.2,11.4v1.2H2.6c-0.3,0-0.6,0.3-0.6,0.6l0,0
			c0,0.3,0.3,0.6,0.6,0.6h2.6h0.2h0.8c0.2,0,0.3-0.1,0.3-0.3v-2.1c0-0.3-0.3-0.6-0.6-0.6l0,0C5.5,10.8,5.2,11.1,5.2,11.4z M3.7,9.8
			c0.7,0,1.3,0.6,1.3,1.3s-0.6,1.3-1.3,1.3s-1.3-0.6-1.3-1.3S3,9.8,3.7,9.8z M20,6.3c0.1-0.1,0-0.3-0.1-0.4L10,1l0,0l0,0L0.1,5.9
			C0,5.9,0,6.1,0,6.3l0.3,0.6C0.4,7,0.6,7.1,0.7,7L10,2.4L19.3,7c0.1,0.1,0.3,0,0.3-0.1L20,6.3z" />
		</symbol>
		
		<symbol id="icon-rosette" viewBox="0 0 20 20">
			<path d="M10,3C8.4,3,7,4.3,7,6s1.3,3,3,3s3-1.3,3-3S11.7,3,10,3z M16.1,5.5l-0.6-0.8c-0.2-0.2-0.3-0.7-0.3-1l0-1
				c0-0.3-0.2-0.6-0.5-0.7l-1-0.3c-0.3-0.1-0.7-0.4-0.9-0.6l-0.5-0.8c-0.2-0.3-0.6-0.4-0.9-0.3l-0.9,0.3c-0.3,0.1-0.8,0.1-1.1,0L8.6,0
				c-0.3-0.1-0.7,0-0.9,0.3L7.2,1.1C7,1.4,6.6,1.7,6.3,1.8L5.3,2C5,2.1,4.8,2.4,4.8,2.8l0,1c0,0.3-0.1,0.8-0.3,1L3.9,5.5
				c-0.2,0.2-0.2,0.7,0,0.9l0.6,0.8c0.2,0.2,0.3,0.7,0.3,1l0,1c0,0.3,0.2,0.6,0.5,0.7l1,0.3c0.3,0.1,0.7,0.4,0.9,0.6l0.5,0.8
				c0.2,0.3,0.6,0.4,0.9,0.3l0.9-0.4c0.3-0.1,0.8-0.1,1.1,0l0.9,0.4c0.3,0.1,0.7,0,0.9-0.3l0.5-0.8c0.2-0.3,0.6-0.6,0.9-0.6l1-0.3
				c0.3-0.1,0.5-0.4,0.5-0.7l0-1c0-0.3,0.1-0.8,0.3-1l0.6-0.8C16.3,6.2,16.3,5.8,16.1,5.5z M10,9.9C7.9,9.9,6.1,8.1,6.1,6
				S7.9,2.1,10,2.1s3.9,1.8,3.9,3.9S12.2,9.9,10,9.9z M13.2,11.4l-0.6,0.9l-0.1,5.4c0.1,0,0.2,0,0.4,0.1l1.3,0.6c0.4,0.2,0.6,0,0.5-0.4
				L13.2,11.4z M10.6,12.2c-0.3-0.1-0.9-0.1-1.2,0l-1,0.4c-0.3,0.1-0.8,0-1-0.3L7.2,12l-1.2,7.6l2-1.2c0.2-0.1,0.5-0.2,0.7-0.2
				c0.4,0,0.7,0.1,1,0.3l1.8,1.5l0.1-7.4h0L10.6,12.2z" />
		</symbol>
		
		<symbol id="icon-taxi" viewBox="0 0 20 20">
			<path d="M14.4,16.2v0.5c0,0.5,0.4,1,1,1h1.9c0.5,0,1-0.4,1-1v-1h-3.8V16.2z M19.2,7.8h-0.9c-0.1,0-0.3,0-0.4,0.1l-1.2-3.2
			c-0.2-0.5-0.7-0.8-1.2-0.8h-2.4L13,2.8c0-0.2-0.2-0.4-0.5-0.4l0,0h-5l0,0C7.3,2.4,7.1,2.5,7,2.8L6.9,3.8l0,0.1H4.7
			c-0.6,0-1,0.3-1.2,0.8L2.2,8.1C2,7.9,1.8,7.8,1.6,7.8H0.8C0.3,7.8,0,8.2,0,8.6V9c0,0.4,0.3,0.8,0.8,0.8h0.8
			c-0.1,0.2-0.2,0.4-0.2,0.6v3.8c0,0.4,0.2,0.8,0.6,1.1h16.2c0.3-0.2,0.6-0.6,0.6-1.1v-3.8c0-0.2-0.1-0.5-0.2-0.6h0.6
			C19.7,9.8,20,9.4,20,9V8.6C20,8.2,19.7,7.8,19.2,7.8z M7.3,3.3H8V2.7h0.7v0.6h0.7V2.7H10v0.6h0.7V2.7h0.7v0.6H12V2.7h0.5
			c0,0,0.1,0,0.1,0.1l0,0.2v0.3H12v0.6h-0.7V3.3h-0.7v0.6H10V3.3H9.3v0.6H8.7V3.3H8v0.6H7.3L7.3,3.3L7.3,3.3z M3.2,7.9l1-2.5
			C4.3,5,4.6,4.8,4.9,4.8h10.4c0.3,0,0.6,0.2,0.7,0.5l1,2.5c0.1,0.3-0.1,0.5-0.3,0.5h-13C3.3,8.4,3.1,8.1,3.2,7.9z M4.4,12.7
			c-0.7,0-1.2-0.6-1.2-1.2s0.6-1.2,1.2-1.2s1.2,0.6,1.2,1.2C5.6,12.2,5.1,12.7,4.4,12.7z M15.8,12.7c-0.7,0-1.2-0.6-1.2-1.2
			s0.6-1.2,1.2-1.2s1.2,0.6,1.2,1.2C17,12.2,16.5,12.7,15.8,12.7z M2,16.7c0,0.5,0.4,1,1,1h1.9c0.5,0,1-0.4,1-1v-0.5v-0.5H2V16.7z" />
		</symbol>
		
		<symbol id="icon-ticket" viewBox="0 0 20 20">
			<path d="M0,12.9l1.8,1.8c1-1,2.6-1,3.5,0c1,1,1,2.6,0,3.5l1.8,1.8l8.5-8.5l-1.3-1.3l0.6-0.6l1.3,1.3L20,7.1l-1.8-1.8
			c-1,1-2.6,1-3.5,0c-1-1-1-2.6,0-3.5l-1.8-1.8L9.2,3.8l1.3,1.3L9.8,5.6L8.5,4.3L0,12.9L0,12.9z M6.5,9l2.1,0.9l1.8-1.6l-0.2,2.3
			l2,1.1l-2.3,0.5l-0.7,2.4l-1.1-2l-2.3,0.2L7.4,11L6.5,9z M10.5,6.3l0.6-0.6L12.4,7l-0.6,0.6L10.5,6.3z M12.4,8.1L13,7.6l1.3,1.3
			l-0.6,0.6L12.4,8.1z" />
		</symbol>
				
		<!-- SOCIAL -->
		
		<symbol id="icon-facebook" viewBox="0 0 20 20">
			<path d="M17,1H3C1.9,1,1,1.9,1,3v14c0,1.101,0.9,2,2,2h7v-7H8V9.525h2V7.475c0-2.164,1.212-3.684,3.766-3.684l1.803,0.002v2.605
			h-1.197C13.378,6.398,13,7.144,13,7.836v1.69h2.568L15,12h-2v7h4c1.1,0,2-0.899,2-2V3C19,1.9,18.1,1,17,1z" />
		</symbol>
		
		<symbol id="icon-twitter" viewBox="0 0 20 20">
			<path d="M17.316,6.246c0.008,0.162,0.011,0.326,0.011,0.488c0,4.99-3.797,10.742-10.74,10.742c-2.133,0-4.116-0.625-5.787-1.697
			c0.296,0.035,0.596,0.053,0.9,0.053c1.77,0,3.397-0.604,4.688-1.615c-1.651-0.031-3.046-1.121-3.526-2.621
			c0.23,0.043,0.467,0.066,0.71,0.066c0.345,0,0.679-0.045,0.995-0.131c-1.727-0.348-3.028-1.873-3.028-3.703c0-0.016,0-0.031,0-0.047
			c0.509,0.283,1.092,0.453,1.71,0.473c-1.013-0.678-1.68-1.832-1.68-3.143c0-0.691,0.186-1.34,0.512-1.898
			C3.942,5.498,6.725,7,9.862,7.158C9.798,6.881,9.765,6.594,9.765,6.297c0-2.084,1.689-3.773,3.774-3.773
			c1.086,0,2.067,0.457,2.756,1.191c0.859-0.17,1.667-0.484,2.397-0.916c-0.282,0.881-0.881,1.621-1.66,2.088
			c0.764-0.092,1.49-0.293,2.168-0.594C18.694,5.051,18.054,5.715,17.316,6.246z" />
		</symbol>
		
		<symbol id="icon-instagram" viewBox="0 0 20 20">
			<path d="M17,1H3C1.9,1,1,1.9,1,3v14c0,1.101,0.9,2,2,2h14c1.1,0,2-0.899,2-2V3C19,1.9,18.1,1,17,1z M9.984,15.523
			c3.059,0,5.538-2.481,5.538-5.539c0-0.338-0.043-0.664-0.103-0.984H17v7.216c0,0.382-0.31,0.69-0.693,0.69H3.693
			C3.31,16.906,3,16.598,3,16.216V9h1.549C4.488,9.32,4.445,9.646,4.445,9.984C4.445,13.043,6.926,15.523,9.984,15.523z M6.523,9.984
			c0-1.912,1.55-3.461,3.462-3.461c1.911,0,3.462,1.549,3.462,3.461s-1.551,3.462-3.462,3.462C8.072,13.446,6.523,11.896,6.523,9.984z
			 M16.307,6h-1.615C14.31,6,14,5.688,14,5.308V3.691C14,3.309,14.31,3,14.691,3h1.615C16.69,3,17,3.309,17,3.691v1.616
			C17,5.688,16.69,6,16.307,6z" />
		</symbol>
		
	</defs>
</svg>