<?xml version="1.0" encoding="utf-8"?>
<!-- Generator: Adobe Illustrator 19.2.0, SVG Export Plug-In . SVG Version: 6.00 Build 0)  -->
<svg version="1.1" id="Layer_1" xmlns="http://www.w3.org/2000/svg" xmlns:xlink="http://www.w3.org/1999/xlink" x="0px" y="0px"
	 viewBox="0 0 400 209.3" style="enable-background:new 0 0 400 209.3;" xml:space="preserve">
<style type="text/css">
	.st0{fill-rule:evenodd;clip-rule:evenodd;}
</style>
<path d="M272,179.7C272,179.7,272,179.7,272,179.7C272,179.7,272,179.7,272,179.7C272,179.7,272,179.7,272,179.7z"/>
<path d="M204.3,80.6h0.4c-0.1-0.1-0.1-0.1-0.2-0.2C204.4,80.5,204.3,80.5,204.3,80.6z"/>
<path d="M280.3,167.1c0.1,0.3,0.1,0.6,0.2,0.9c0,0.3,0.1,0.6,0.1,0.8c-0.2,0-0.3,0-0.5,0c-0.1-0.3-0.1-0.6-0.2-0.9
	c-0.2,0.5-0.3,1.1-0.5,1.6c-0.1-0.1-0.2-0.2-0.3-0.3c0,0-1.5,0.8-1.8,0.9c-0.2,0.1,0.5-0.6,0.5-0.6c0.1-0.3,0.2-0.6,0.3-0.9
	c0.2-0.3,0.5-0.5,0.7-0.8c0.1-0.4,0.1-0.7,0.2-1.1c-0.2-0.1-0.4-0.1-0.7-0.2c0-0.2,0.1-0.4,0.1-0.5c-0.2-0.1-0.4-0.2-0.6-0.4
	c0-0.6,0.1-1.2,0.1-1.8c-0.1-0.2-0.2-0.4-0.4-0.7c0.1-0.4,0.1-0.8,0.2-1.2c-0.3-0.1-0.6-0.2-0.9-0.3c0.1-0.4,0.3-0.8,0.4-1.2
	c-0.2-0.2-0.4-0.3-0.6-0.5c-0.2,0.3-0.4,0.5-0.7,0.8c-0.8,1.2-1.5,2.4-2.3,3.7c-0.4,0.5-0.8,1-1.3,1.4c0,0.5,0,1,0.1,1.5
	c0,0.5-0.1,0.9-0.1,1.4c0.2,0.5,0.4,1,0.7,1.5c0.2,0.7,0.3,1.4,0.5,2.1c0,0,0.1,2,0,2.2c0,0.2-1.4,2.6-1.4,2.6
	c-0.1,0.8-0.1,1.6-0.2,2.4c3.7-3.6,7.2-7.5,10.3-11.7c-0.5,0-0.9,0-1.4,0.1C280.8,167.7,280.5,167.4,280.3,167.1z"/>
<g>
	<polygon class="st0" points="28.6,103.2 25,87.1 16.7,87.1 12.9,103.2 10.6,87.1 0,87.1 5.7,116 16.7,116 20.1,101.6 23.1,116 
		34.6,116 40.5,87.1 31.1,87.1 	"/>
	<path class="st0" d="M56.4,86.5c-8.3,0-15.1,6.8-15.1,15.1c0,8.3,6.8,15,15.1,15c8.3,0,15-6.8,15-15C71.4,93.3,64.7,86.5,56.4,86.5
		z M56.4,107.2c-3.2,0-5.7-2.5-5.7-5.6c0-3.2,2.5-5.7,5.7-5.7c3.1,0,5.6,2.5,5.6,5.7C62,104.7,59.5,107.2,56.4,107.2z"/>
	<path class="st0" d="M99.7,97.1c0-5.6-4.5-10-10-10h-15V116h9.8v-9.3l3.3,9.3h12l-4.8-10.5C97.9,103.7,99.7,100.7,99.7,97.1z
		 M88,100.4h-3.5v-4.7H88c1.3,0,2.4,1.1,2.4,2.3C90.3,99.3,89.2,100.4,88,100.4z"/>
	<polygon class="st0" points="129.2,87.1 118.4,87.1 112.8,99.2 112.8,87.1 103,87.1 103,116 112.8,116 112.8,103.1 118.6,116 
		130,116 122.1,100.8 	"/>
	<rect x="132.8" y="87.1" class="st0" width="9.9" height="28.9"/>
	<polygon class="st0" points="163.7,99.7 155.4,87.1 146.3,87.1 146.3,116 155.8,116 155.8,103 164.1,116 173.1,116 173.1,87.1 
		163.7,87.1 	"/>
	<path class="st0" d="M191.3,99.8v4.7h4.9c-1,1.6-2.8,2.7-4.8,2.7c-3.2,0-5.7-2.5-5.7-5.6c0-3.2,2.5-5.7,5.7-5.7
		c1.4,0,2.7,0.5,3.7,1.4h10.7c-1.9-6.2-7.6-10.8-14.4-10.8c-8.3,0-15.1,6.8-15.1,15.1c0,8.3,6.8,15,15.1,15c8.3,0,15-6.8,15-15
		c0-0.6,0-1.2-0.1-1.8H191.3z"/>
	<polygon class="st0" points="238.5,97.2 232.8,97.2 232.8,87.1 222.9,87.1 222.9,116 232.8,116 232.8,105.6 238.5,105.6 238.5,116 
		248.4,116 248.4,87.1 238.5,87.1 	"/>
	<polygon class="st0" points="294.8,87.1 285,87.1 285,116 302.8,116 302.8,106.8 294.8,106.8 	"/>
	<rect x="306.1" y="87.1" class="st0" width="9.9" height="28.9"/>
	<path class="st0" d="M331.7,87.1h-12V116h12c8,0,14.5-6.4,14.5-14.4C346.2,93.5,339.7,87.1,331.7,87.1z M331.7,106.8h-2.2V96.3h2.2
		c2.9,0,5.3,2.3,5.3,5.3C337,104.5,334.6,106.8,331.7,106.8z"/>
	<path class="st0" d="M354.9,87.1l-9.3,28.9h10.7l1.1-4.6h7l1.1,4.6h11.4l-9.3-28.9H354.9z M359.1,103.8l1.9-7.1l1.9,7.1H359.1z"/>
	<polygon class="st0" points="389.3,87.1 385.8,95 382.5,87.1 371.1,87.1 380.6,106.3 380.6,116 390.4,116 390.4,106.3 400,87.1 	
		"/>
	<path class="st0" d="M266.7,86.5c-8.3,0-15.1,6.8-15.1,15.1c0,8.3,6.8,15,15.1,15c8.3,0,15-6.8,15-15
		C281.8,93.3,275,86.5,266.7,86.5z M274,97c-1.1,1-2.9,2.4-3,2.5c-0.2,0.1,0.1,2.2,0.2,2.2c0.2-0.2,0.9-0.8,1-0.9
		c0.1,0,0.9,0.8,0.8,1c0,0.2-1.3,1.2-1.6,1.4c-0.1,0.2,1.4,6.2,1.3,6.7c-0.2,0.5-0.7,1.1-0.8,0.9c-0.1-0.2-1.8-4.9-2.3-5.7
		c-0.4-0.8-1.8-2.5-2-2.5c-0.2,0-5.1,3.7-5.3,3.9c-0.2,0.2,0.5,2,0.4,2.7c-0.1,0.7-0.7,1.2-0.8,1.1c-0.2-0.1-1.1-2.8-1.4-2.7
		c-0.2,0.1-1.4,0.7-1.5,0.6c-0.1-0.1,0.8-1.2,0.9-1.4c0.1-0.2-2.4-1.6-2.4-1.8c0-0.2,0.5-0.6,1.2-0.7c0.7,0,2.4,0.9,2.6,0.8
		c0.3-0.2,4.7-4.4,4.7-4.6c0-0.2-1.4-1.8-2.1-2.3c-0.8-0.6-5.1-3-5.3-3.1c-0.1-0.2,0.5-0.6,1.1-0.6c0.5-0.1,6.3,2.3,6.4,2.3
		c0.2-0.3,1.4-1.4,1.6-1.4c0.2,0,0.9,0.9,0.8,1c0,0.1-0.8,0.7-1,0.9c0,0.1,2,0.7,2.1,0.5c0.2-0.1,1.8-1.7,2.9-2.6
		c0.9-0.8,2.3-0.9,2.5-0.7C275.2,94.9,274.9,96.2,274,97z"/>
</g>
<g>
	<path d="M126.7,80.6c0-0.1,0-0.1,0-0.2c0.3-0.5,0.6-1,0.9-1.5c0.8-0.6,1.6-1.2,2.4-1.9c1.4-1.3,2.7-2.6,4.1-3.9
		c0.9-0.4,1.9-0.9,2.9-1.3c1.4-0.5,2.8-0.9,4.2-1.4c0.8-0.6,1.5-1.1,2.3-1.7c0.1-0.5,0.2-0.9,0.2-1.4c0.3-0.6,0.6-1.1,0.8-1.7
		c0.5-0.5,1-1.1,1.5-1.6c0.5-0.1,1.1-0.2,1.6-0.4c1-0.2,2-0.4,3-0.6c0.7-0.7,1.3-1.3,2-2c0.4-0.2,0.7-0.4,1.1-0.6
		c0.2,0,0.3,0.1,0.5,0.1c0,0.3,0,0.5,0,0.8c0.2,0.3,0.3,0.6,0.5,0.8c0.2,0,0.4,0.1,0.7,0.1c0.3,0.2,0.6,0.4,0.8,0.6
		c0.4,0,0.7-0.1,1.1-0.1c0.1,0.3,0.2,0.5,0.3,0.8c0.4,0,0.8,0,1.2,0c0.4-0.2,0.7-0.4,1.1-0.6c0.5,0.1,1,0.3,1.5,0.4
		c1-0.2,2-0.4,3-0.6c0.6,0.4,1.1,0.7,1.7,1.1c0.4-0.1,0.7-0.2,1.1-0.3c1.2,0.5,2.3,1.1,3.5,1.6c0.3-0.1,0.6-0.2,0.9-0.3
		c0.1,0.3,0.1,0.7,0.2,1c0.2-0.1,0.5-0.3,0.7-0.4c0.6,0.4,1.3,0.9,1.9,1.3c0.5-0.1,1.1-0.1,1.6-0.2c0.2,0.4,0.5,0.8,0.7,1.2
		c0.3,0.2,0.7,0.3,1,0.5c-0.5,0.4-1.1,0.8-1.6,1.2c0,0.3,0,0.7,0.1,1c-0.3,0.5-0.6,1-1,1.4c-0.5,0.4-1,0.8-1.5,1.2
		c0.5,0.9,1,1.7,1.4,2.6c0.4,0.3,0.9,0.6,1.3,0.9c0.8,0.8,1.6,1.6,2.4,2.4c0.1,0.5,0.3,0.9,0.4,1.4h15.6c-0.2-0.2-0.4-0.4-0.6-0.5
		c-0.1,0-0.1-0.1-0.1-0.1c-0.1-0.1-0.1-0.1-0.1-0.1c-0.4-0.5-0.9-1-1.3-1.5c0.4,0.1,0.8,0.2,1.2,0.3c0.4,0.3,0.7,0.6,1.1,0.9
		c0.4,0.2,0.8,0.4,1.2,0.5c0.2,0.2,0.4,0.3,0.5,0.5h5.9c0-0.3-0.1-0.6-0.1-1c-0.4-0.2-0.8-0.5-1.2-0.7c-0.3-0.6-0.5-1.1-0.8-1.7
		c-0.1-0.5-0.3-1-0.4-1.5c0-0.5,0-0.9,0-1.4c0.4,0,0.8,0,1.2-0.1c0.1-0.5,0.1-0.9,0.2-1.4c-0.3-0.2-0.5-0.4-0.8-0.6
		c0.3-0.3,0.6-0.6,1-0.9c0.5-0.1,1.1-0.1,1.6-0.2c0.6,0.1,1.3,0.2,1.9,0.3c0.5,0.1,0.9,0.2,1.4,0.4c0-0.3-0.1-0.6-0.1-0.8
		c0.8,0.2,1.5,0.4,2.3,0.7c1-0.1,1.9-0.2,2.9-0.3c0.5,0.2,1,0.5,1.6,0.7c0.6,0.1,1.3,0.2,1.9,0.3c0.1,0.5,0.2,1,0.4,1.4
		c0.8,0.8,1.5,1.6,2.3,2.4c0.8,0.2,1.6,0.5,2.4,0.7c0.3,0.3,0.6,0.5,0.9,0.8c0.8-0.3,1.6-0.6,2.5-0.9c0.1-0.6,0.1-1.2,0.2-1.8
		c-0.4-0.5-0.9-1-1.3-1.5c-0.4-0.9-0.8-1.7-1.2-2.6c-0.4-0.8-0.8-1.6-1.2-2.3c-0.1-0.2-0.1-0.4-0.2-0.6c0.8-0.3,1.6-0.5,2.4-0.8
		c-0.1-0.4-0.1-0.8-0.2-1.2c0,0,2.7-0.3,2.9-0.3c0.3,0-2.7-0.7-2.7-0.7c-1.2,0.2-2.4,0.3-3.7,0.5c0,0-1.6-1.2-1.7-1.4
		c-0.1-0.2,0.8,1.8,0.8,1.8c-0.1,0.3-0.1,0.5-0.2,0.8c0.7,0.3,1.3,0.5,2,0.8c-0.1,0.2-0.3,0.4-0.4,0.7c-0.6-0.2-1.2-0.3-1.8-0.5
		c-1,0-2,0-3,0c0.2-0.4,0.5-0.7,0.7-1.1c-0.4-0.4-0.7-0.9-1.1-1.3c0.7,0,1.5,0,2.2-0.1c-0.1-0.3-0.3-0.6-0.4-0.9c-0.4,0-0.8,0-1.2,0
		c-0.2-0.5-0.4-1.1-0.6-1.6c0,0-1.7-0.4-1.7-0.6c0-0.2-2,1.3-2,1.3c-0.7,0.6-1.3,1.3-2,1.9c-0.5,0.5-1.1,1-1.6,1.5
		c-0.5,0.4-1.1,0.8-1.6,1.2c0,0.5,0,0.9,0,1.4c0.3,0.5,0.5,1.1,0.8,1.6c-0.8,0-1.6,0-2.5,0.1c-0.7,0.1-1.4,0.2-2.1,0.3
		c0,0,0.8-0.3,0.9-0.5c0.1-0.2-0.4-0.9-0.4-0.9c-1-0.4-1.9-0.9-2.9-1.3c0,0.4,0.1,0.8,0.1,1.2c-0.5,0.1-1.1,0.2-1.6,0.3
		c-0.1-0.6-0.2-1.1-0.3-1.7c-0.2,0.5-0.3,1-0.5,1.5c0,0,0,0,0.4,2.6c0.3,1.9,0.6,2.3,0.7,2.4c-0.3-0.1-0.7-0.2-1-0.3
		c-0.4-0.2-0.7-0.4-1.1-0.5c-0.2,0.3-0.3,0.6-0.5,0.9c-0.4,0.1-0.8,0.3-1.2,0.4c-0.5-0.3-1-0.6-1.6-0.9c0.1-0.7,0.2-1.4,0.3-2.1
		c0.3,0,0.7,0,1,0c0.3,0.4,0.6,0.8,0.9,1.3c-0.1-0.4-0.3-0.8-0.4-1.2c-0.5-0.3-0.9-0.6-1.4-0.9c0.1-0.4,0.2-0.8,0.3-1.2
		c-0.2-0.8-0.3-1.6-0.5-2.4c-0.2-0.6-0.3-1.3-0.5-1.9c0.3-0.3,0.5-0.5,0.8-0.8c0.2-0.4,0.4-0.7,0.6-1.1c-1.5-2.1-3-4.2-4.5-6.2
		c0.2-0.7,0.3-1.5,0.5-2.2c0-0.4,0-0.8,0-1.2c-0.4,0.3-0.7,0.6-1.1,1c-0.3,0.1-0.7,0.1-1,0.2c0.1-0.5,0.2-0.9,0.3-1.4
		c0.2-0.3,0.5-0.5,0.7-0.8c-0.7-0.2-1.4-0.3-2-0.5c0,0.4-0.1,0.7-0.1,1.1c-0.4,0.4-0.7,0.8-1.1,1.2c0.4,0.5,0.7,1,1.1,1.5
		c0.2,1.3,0.4,2.6,0.7,4c0.6,0.5,1.3,0.9,1.9,1.4c-0.2,0.2-0.4,0.4-0.6,0.6c0.4,0.5,0.8,1,1.2,1.5c0.4,0.6,0.8,1.3,1.2,1.9
		c-0.3,0.1-0.6,0.3-0.9,0.4c-0.3-0.5-0.6-1.1-0.9-1.6c-0.3,0.2-0.6,0.5-1,0.7c0,0.7,0.1,1.3,0.1,2c-0.9,0.6-1.8,1.2-2.8,1.9
		c-0.2-0.2-0.4-0.4-0.6-0.6c0.5-0.6,0.9-1.1,1.4-1.7c0.1-0.7,0.2-1.3,0.3-1.9c-0.5-1.1-1-2.2-1.5-3.3c-0.5-0.5-1.1-1-1.6-1.5
		c-0.3-0.6-0.6-1.2-0.8-1.8c0.1-1.4,0.1-2.7,0.2-4.1c-0.6-0.6-1.2-1.3-1.7-1.9c-0.8,0.2-1.6,0.5-2.3,0.7c-0.8,0-1.7-0.1-2.5-0.1
		c-0.6-0.5-1.3-0.9-1.9-1.4c-0.5,0.1-1.1,0.1-1.6,0.2c-0.3,0.6-0.6,1.3-1,1.9c-1.3,0.3-2.6,0.6-3.9,1c-0.9,0.5-1.7,0.9-2.6,1.4
		c0.1,0.4,0.2,0.8,0.3,1.2c-0.6,0.2-1.2,0.5-1.8,0.7c-0.2,0.3-0.5,0.7-0.7,1c-0.6,0-1.2,0-1.8,0c-0.6,0.3-1.2,0.7-1.7,1
		c-0.7-0.3-1.5-0.7-2.2-1c-0.8,0-1.7,0.1-2.5,0.1c-0.1-0.3-0.2-0.7-0.2-1c-0.1-0.5-0.3-1-0.4-1.4c-0.5,0-1.1,0-1.6,0
		c-0.1-0.2-0.1-0.5-0.2-0.7c-0.2-0.1-0.3-0.2-0.5-0.3c-0.3-0.1-0.5-0.2-0.8-0.3c0.3-0.3,0.6-0.7,0.9-1c0.1-0.3,0.2-0.7,0.3-1
		c-0.1-0.2-0.1-0.4-0.2-0.6c0.2,0,0.4,0,0.6,0c0.1-0.1,0.1-0.3,0.2-0.4c-0.3,0-0.5,0-0.8-0.1c0.2-0.3,0.4-0.7,0.6-1
		c0.5-0.5,1-1,1.6-1.5c0.3-0.4,0.6-0.8,0.9-1.2c0-0.5,0.1-1.1,0.1-1.6c0.2-0.1,0.4-0.3,0.7-0.4c0,0-0.2-1.9-0.4-2
		c0.5-0.1,1-0.2,1.5-0.3c0.2,0.1,0.5,0.2,0.7,0.4c0.1-0.1,0.1-0.3,0.2-0.4c0.5,0.1,0.9,0.1,1.4,0.2c0.1,0.2,0.3,0.4,0.4,0.5
		c0.8,0.4,1.6,0.8,2.5,1.1c0.8,0.3,1.5,0.6,2.3,0.9c0.3,0.3,0.6,0.5,0.9,0.8c0.7,0,1.4,0,2,0.1c0.4-0.4,0.7-0.9,1.1-1.3
		c0.3-0.8,0.6-1.7,0.8-2.5c0,0-1.1-1.8-1.3-1.9c-0.2-0.1,0.8-1,0.8-1c-0.1-0.5-0.2-1-0.3-1.5c-0.2,0.1-0.5,0.2-0.7,0.2
		c-0.1-0.4-0.2-0.9-0.3-1.3c-0.4-0.3-0.7-0.6-1.1-0.9c0.1-0.3,0.3-0.6,0.4-0.9c0.8,0.2,1.5,0.4,2.3,0.5c0.1,0.2,0.2,0.3,0.2,0.5
		c0.6,0.1,1.3,0.2,1.9,0.3c0.2-0.7,0.4-1.3,0.6-2c0.3,0,0.5,0,0.8,0.1c0,0.3,0,0.6,0,0.9c0.5,0.2,0.9,0.4,1.4,0.6
		c0.3-0.2,0.6-0.4,0.9-0.5c0.6-0.1,1.3-0.1,1.9-0.2c0.1-0.4,0.1-0.8,0.2-1.3c0.9,0,1.7,0,2.6,0.1c0.5,0.2,0.9,0.4,1.4,0.6
		c0.3-0.2,0.6-0.3,0.9-0.5c0.2-0.3,0.5-0.7,0.7-1c0.5-0.2,1-0.4,1.5-0.6c0.5-0.1,1-0.2,1.5-0.3c0.2,0.1,0.4,0.2,0.6,0.3
		c0.3,0.1,0.6,0.2,1,0.3c0,0.3,0,0.5,0,0.8c0.1,0,0.3,0,0.4-0.1c0.1-0.2,0.1-0.4,0.2-0.6c0.3-0.1,0.6-0.1,0.9-0.2
		c0.2,0.2,0.4,0.5,0.6,0.7c0-0.3,0.1-0.6,0.1-0.9c0,0,0.6,0.3,0.8,0.3c-0.1-0.3-0.2-0.5-0.3-0.8c0.3-0.1,0.5-0.3,0.8-0.4
		c0-0.1,0-0.2,0-0.4c-0.1-0.2-0.2-0.5-0.3-0.7c0.1,0,0.3-0.1,0.4-0.1c0.1-0.2,0.1-0.4,0.2-0.6c-0.2-0.1-0.3-0.2-0.5-0.3
		c0.1-0.3,0.1-0.6,0.2-0.9c0.3-0.2,0.5-0.3,0.8-0.5c-0.2-0.2-0.4-0.3-0.6-0.5c0.2-0.4,0.4-0.8,0.6-1.2c0.2,0.2,0.4,0.4,0.6,0.6
		c0.2-0.1,0.5-0.1,0.7-0.2c0.3,0,0.6,0,1,0c0-0.2,0.1-0.5,0.1-0.7c-0.2-0.1-0.4-0.2-0.6-0.3c0,0-1.1,0.4-1.3,0.3
		c0.4-0.2,0.7-0.4,1.1-0.6c0.4,0.2,0.9,0.3,1.3,0.5c0.2-0.2,0.4-0.4,0.5-0.6c0.4,0,0.8-0.1,1.2-0.1c-0.1,0.2-0.2,0.4-0.3,0.7
		c-0.1,0.1-0.2,0.2-0.3,0.3c-0.2,0-0.5,0-0.7,0c0.2,0.2,0.3,0.3,0.5,0.5c-0.2,0.3-0.4,0.6-0.6,0.9c0.2,0.3,0.5,0.5,0.7,0.8
		c-0.2,0.2-0.4,0.4-0.6,0.6c-0.2-0.2-0.3-0.4-0.5-0.5c-0.4,0.3-0.8,0.7-1.2,1c-0.3,0.4-0.6,0.7-1,1.1c0.2,0.1,0.3,0.2,0.5,0.3
		c-0.2,0.1-0.5,0.2-0.7,0.3c0,0.5,0.1,1.1,0.1,1.6c0.2,0.2,0.5,0.4,0.7,0.7c0.1,0.3,0.2,0.5,0.3,0.8c0.2-0.1,0.4-0.2,0.6-0.4
		c0.3,0,0.6,0.1,0.9,0.1c0.2-0.1,0.5-0.2,0.7-0.3c0.7,0.6,1.4,1.1,2.2,1.7c1.3,0.3,2.6,0.5,3.9,0.8c0.4-0.1,0.7-0.2,1.1-0.4
		c0.4,0.1,0.7,0.1,1.1,0.2c0,0.2,0,0.4,0,0.6c-0.2-0.2-0.5-0.3-0.8-0.5c0.1,0.3,0.1,0.6,0.2,0.9c0.4,0,0.8,0,1.3,0
		c0.1,0.2,0.1,0.3,0.2,0.5c0.4-0.3,0.8-0.5,1.2-0.8c0.1-0.2,0.1-0.5,0.2-0.7c0.4-0.2,0.8-0.3,1.2-0.5c-0.1,0.3-0.2,0.6-0.2,0.9
		c0.3-0.1,0.6-0.2,0.9-0.3c0-0.3,0.1-0.5,0.1-0.8c0.4-0.5,0.8-1,1.1-1.5c0.4-0.5,0.8-1,1.2-1.5c0.6,0,1.2-0.1,1.8-0.1
		c0,0.3-0.1,0.5-0.1,0.8c0,0.3,0.1,0.7,0.1,1c0.6-0.1,1.2-0.1,1.7-0.2c0-0.3-0.1-0.6-0.1-0.9c0.2-0.2,0.4-0.4,0.6-0.6
		c0.2-0.2,0.4-0.5,0.6-0.7c-0.2,0-0.4-0.1-0.7-0.1c0.2-0.5,0.4-1,0.6-1.6c0.4,0,0.7,0,1.1,0c0.6,0,1.2,0.1,1.7,0.1
		c0.5,0.3,1.1,0.6,1.6,1c0-0.2,0.1-0.3,0.1-0.5c0.3,0.1,0.6,0.1,0.9,0.2c0.3,0.2,0.6,0.4,0.9,0.7c0.3,0,0.5-0.1,0.8-0.1
		c0.4-0.1,0.8-0.1,1.2-0.2c0.7,0.2,1.3,0.5,2,0.7c-0.3-0.3-0.6-0.6-0.9-0.9c-0.3-0.1-0.6-0.3-0.9-0.4c-0.3-0.4-0.6-0.8-0.9-1.2
		c0.1-0.2,0.2-0.4,0.2-0.5c-0.5,0-1,0-1.5,0c-0.6-0.2-1.1-0.5-1.7-0.7c-0.5,0.2-0.9,0.3-1.4,0.5c-0.7,0-1.3,0-2,0c0,0-0.2-0.8-0.2-1
		c0-0.2-0.6,0.5-0.6,0.5c-0.2-0.2-0.4-0.3-0.7-0.5c0.1-0.2,0.1-0.5,0.2-0.7c0.4,0,0.7,0,1.1,0c-0.2-0.4-0.4-0.7-0.6-1.1
		c-0.3-0.2-0.7-0.4-1-0.6c0.1-0.4,0.2-0.8,0.2-1.2c0.2-0.3,0.5-0.6,0.7-1c0.1-0.5,0.1-0.9,0.2-1.4c0.1-0.2,0.2-0.5,0.3-0.7
		c0,0,0.2-0.2,0.5-0.3c0.3-0.1,2.3-0.4,2.3-0.4c0.5-0.3,1-0.5,1.5-0.8c0.3-0.4,0.5-0.7,0.8-1.1c0.2,0,0.4,0,0.6,0
		c0.3,0,0.6-0.1,0.8-0.1c0-0.2,0-0.4-0.1-0.6c0.1-0.2,0.3-0.3,0.4-0.5c-0.2-0.3-0.5-0.6-0.7-0.8c-0.4-0.2-0.9-0.3-1.3-0.5
		c-0.3-0.2-0.7-0.3-1-0.5c-0.4,0.1-0.8,0.2-1.2,0.3c-0.4,0.2-0.9,0.3-1.3,0.5c-0.1,0.3-0.2,0.6-0.3,0.9c-0.1,0.3-0.3,0.6-0.4,0.8
		c-0.6,0.2-1.2,0.4-1.8,0.6c-0.6-0.2-1.1-0.3-1.7-0.5c-0.2,0.2-0.3,0.4-0.5,0.6c-0.4,0-0.7-0.1-1.1-0.1c-0.1,0.3-0.3,0.6-0.4,0.9
		c0,0,0,0-0.6-0.2c-0.6-0.2-0.6,0.2-0.6,0.2c-0.1,0.4-0.2,0.8-0.4,1.2c-0.2,0.2-0.5,0.4-0.7,0.6c-0.3,0.8-0.6,1.5-0.9,2.3
		c0.3,0,0.6,0.1,0.9,0.1c0.2,0.1,0.4,0.3,0.6,0.4c0,0.2,0,0.5,0,0.7c0.1,0.2,0.2,0.4,0.3,0.6c-0.1,0.3-0.2,0.7-0.2,1
		c-0.4,0.1-0.8,0.1-1.2,0.2c0.2,0.2,0.3,0.4,0.5,0.6c-0.5,0.2-1,0.4-1.5,0.5c-0.2-0.2-0.4-0.4-0.6-0.6c-0.4,0-0.8,0.1-1.2,0.1
		c-0.2,0.5-0.4,1-0.6,1.5c-0.4,0.5-0.8,0.9-1.2,1.4c-0.2,0.2-0.3,0.5-0.5,0.7c0.3-0.1,0.7-0.2,1-0.3c-0.4,0.4-0.7,0.7-1.1,1.1
		c-0.3-0.1-0.6-0.2-0.9-0.2c-0.5-0.2-1-0.4-1.5-0.6c-0.4,0.1-0.8,0.2-1.3,0.4c0.1,0.2,0.1,0.5,0.2,0.7c-0.4,0-0.8,0.1-1.2,0.1
		c-0.4-0.2-0.8-0.4-1.2-0.6c0.2-0.6,0.4-1.2,0.6-1.8c0.2-0.2,0.3-0.4,0.5-0.6c-0.2-0.9-0.4-1.8-0.7-2.7c0.2-0.3,0.4-0.6,0.6-0.9
		c-0.2-0.4-0.4-0.7-0.5-1.1c0.2-0.4,0.4-0.8,0.6-1.2c-0.6,0.2-1.2,0.4-1.8,0.6c0,0-0.6-0.5-0.8-0.6c-0.2-0.1-3.7,0.4-3.7,0.4
		c-0.1-0.2-0.2-0.4-0.3-0.6c-0.4-0.2-0.7-0.3-1.1-0.5c0,0,0-0.8-0.1-1c-0.1-0.3,1-0.3,1-0.3c0.2-0.3,0.3-0.6,0.5-0.9
		c-0.5,0-1,0-1.4-0.1c-0.1-0.2-0.2-0.4-0.2-0.6c0.2,0,0.4-0.1,0.7-0.1c0.4,0.1,0.8,0.1,1.2,0.2c0.2-0.2,0.5-0.5,0.7-0.7
		c0.3-0.2,0.7-0.4,1-0.6c0,0-1.9,0.4-2.2,0.5c-0.3,0,0.4-0.7,0.4-0.7c-0.3-0.2-0.6-0.4-0.9-0.6c0.2-0.3,0.3-0.7,0.5-1
		c0.3,0.1,0.6,0.2,0.9,0.3c0.6,0.1,1.2,0.2,1.8,0.4c-0.1-0.1-0.2-0.3-0.3-0.4c-0.3,0-0.6,0-0.8,0c0,0-0.9-0.5-1.1-0.5
		c-0.2-0.1,0.1-0.7,0.1-0.7c0.4,0,0.8-0.1,1.2-0.1c-0.3-0.1-0.6-0.3-1-0.4c0.2-0.2,0.3-0.3,0.5-0.5c0.3,0.2,0.6,0.5,1,0.7
		c0.5,0,1-0.1,1.5-0.1c-0.3-0.1-0.5-0.3-0.8-0.4c0.2-0.2,0.4-0.3,0.5-0.5c0.2,0.1,0.4,0.3,0.6,0.4c0.4-0.1,0.7-0.2,1.1-0.3
		c0-0.2-0.1-0.5-0.1-0.7c0.4,0.1,0.7,0.2,1.1,0.3c0.4-0.1,0.9-0.2,1.3-0.2c-0.1-0.1-0.2-0.3-0.3-0.4c0-0.2,0.1-0.3,0.1-0.5
		c0.3,0.1,0.6,0.2,0.8,0.3c0.3,0.1,0.6,0.2,0.9,0.3c-0.1,0.3-0.1,0.6-0.2,0.9c0.5,0.1,1,0.1,1.5,0.2c0.4-0.3,0.8-0.6,1.1-1
		c-0.5,0.1-1.1,0.3-1.6,0.4c0-0.2,0-0.3-0.1-0.5c1.2-0.5,2.3-1,3.5-1.5c0.3,0.2,0.7,0.3,1,0.5c0-0.2,0-0.4,0.1-0.6
		c1-0.1,1.9-0.2,2.9-0.3c-0.1-0.2-0.2-0.4-0.3-0.6c0.3-0.2,0.5-0.3,0.8-0.5c0.9-0.2,1.9-0.3,2.8-0.5c0.1-0.3,0.2-0.6,0.3-0.8
		c0.2-0.2,0.3-0.5,0.5-0.7c0.2,0.4,0.4,0.8,0.6,1.3c0.1-0.2,0.3-0.4,0.4-0.6c0.4-0.2,0.7-0.4,1.1-0.5c-0.3,0-0.6,0-1-0.1
		c-0.1-0.1-0.2-0.3-0.3-0.4c0.6-0.1,1.3-0.2,1.9-0.3c0.4-0.4,0.7-0.8,1.1-1.2c-0.5-0.1-0.9-0.3-1.4-0.4c0.4-0.2,1.3-0.6,1.3-0.6
		c0.2,0.2,0.4,0.3,0.5,0.5c-0.2,0.2-0.3,0.4-0.5,0.6c0.3,0,0.6,0.1,0.9,0.1c0.3,0,0.6,0.1,0.9,0.1c-0.2-0.3-0.3-0.5-0.5-0.8
		c0.2-0.1,0.3-0.3,0.5-0.4c0.1,0.3,0.1,0.7,0.2,1c0.5-0.2,1-0.4,1.4-0.6c0,0.2,0.1,0.3,0.1,0.5c0.2-0.1,0.5-0.2,0.7-0.4
		c-0.1,0.3-0.2,0.5-0.3,0.8c0.2,0,0.4,0.1,0.6,0.1c0.1-0.2,0.2-0.5,0.2-0.7c0.4,0.3,0.8,0.6,1.2,1c-0.1-0.3-0.3-0.6-0.4-0.9
		c-0.1-0.2-0.2-0.5-0.3-0.7c0.4,0.2,0.8,0.4,1.2,0.6c0.3,0.3,0.6,0.5,0.9,0.8c0.4-0.1,0.9-0.3,1.3-0.4c0.2,0.1,0.5,0.1,0.7,0.2
		c0.2,0.2,0.3,0.3,0.5,0.5c0.2-0.3,0.5-0.6,0.7-0.9c0.3,0.4,0.6,0.7,0.9,1.1c-0.3,0.1-0.7,0.1-1,0.2c-0.1,0.4-0.2,0.8-0.4,1.2
		c0.6-0.2,1.1-0.4,1.7-0.7c0.1-0.2,0.1-0.3,0.2-0.5c0.5-0.2,1-0.4,1.5-0.6c0,0-0.7,0.8-0.9,1c-0.1,0.1,0.2,0.5,0.2,0.5
		c0.4-0.1,0.7-0.3,1.1-0.4c0.2-0.4,0.3-0.8,0.5-1.2c0.3,0.1,0.5,0.1,0.8,0.2c0,0.4,0,0.7,0,1.1c0.3,0.1,0.5,0.1,0.8,0.2
		c0.3,0.4,0.7,0.8,1,1.3c0.3,0.3,0.5,0.7,0.8,1c-0.8-0.1-1.6-0.2-2.4-0.3c0,0.4,0,0.8,0,1.2c0.3,0,0.7,0,1,0
		c0.4,0.2,0.9,0.3,1.3,0.5c0.4,0.1,0.8,0.1,1.1,0.2c0.3,0.3,0.6,0.6,0.8,0.9c-0.3,0.1-0.6,0.2-0.9,0.3c1,0.6,2,1.3,3,1.9
		c1.3,1.2,2.5,2.5,3.8,3.7c0.8,1,1.6,1.9,2.4,2.9c-0.1,0.5-0.2,1-0.3,1.4c-0.7,0.3-1.5,0.6-2.2,0.9c-0.6-0.1-1.1-0.2-1.7-0.3
		c-0.7-0.3-1.3-0.6-2-0.9c-0.3-0.4-0.7-0.8-1-1.2c-0.4-0.2-0.8-0.4-1.2-0.6c-0.1-0.3-0.1-0.6-0.2-1c-0.2,0.2-0.3,0.4-0.5,0.6
		c0,0-0.5-1.1-0.7-1.2c-0.2-0.1-1.5-1.8-1.5-1.8c0.3,0.6,0.5,1.2,0.8,1.9c-0.2,0.2-0.3,0.3-0.5,0.5c0.2,0.1,0.4,0.3,0.7,0.4
		c-0.1,0.2-0.1,0.4-0.2,0.7c0.4,0.3,0.8,0.5,1.2,0.8c0.2,0.3,0.3,0.6,0.5,0.9c-0.1,0.3-0.3,0.7-0.4,1c-0.1,0.8-0.2,1.6-0.3,2.3
		c0.2-0.1,0.4-0.2,0.6-0.2c0.1,0.2,0.3,0.4,0.4,0.7c0,0.2-0.1,0.5-0.1,0.7c0.6,0.4,1.3,0.8,1.9,1.2c0.3,0,0.5,0,0.8,0
		c0.1-0.4,0.2-0.8,0.3-1.2c-0.3-0.2-0.6-0.5-0.9-0.7c-0.1-0.3-0.1-0.6-0.2-0.8c0.2-0.1,0.4-0.3,0.5-0.4c0.1-0.2,0.3-0.5,0.4-0.7
		c0.5,0.6,1,1.2,1.5,1.8c0.2,0.3,0.4,0.5,0.6,0.8c0.5,0.3,1,0.5,1.5,0.8c0-0.2,0-0.5,0-0.7c-0.2-0.2-0.4-0.5-0.6-0.7
		c0-0.3-0.1-0.6-0.1-0.9c0.5-0.1,1.1-0.2,1.6-0.3c0.1-0.2,0.2-0.4,0.3-0.6c0.3,0.1,0.5,0.2,0.8,0.3c0.4,0,0.7-0.1,1.1-0.1
		c0.3,0.4,0.7,0.7,1,1.1c-0.1,0.3-0.2,0.5-0.3,0.8c0.2,0.1,0.3,0.1,0.5,0.2c0.3-0.4,0.6-0.8,0.9-1.3c0.2,0,0.4-0.1,0.7-0.1
		c0.1-0.2,0.2-0.4,0.3-0.6c-0.1-0.3-0.2-0.6-0.3-0.9c0.3-0.2,0.6-0.4,0.9-0.7c0.2-0.3,0.4-0.6,0.6-0.9c-0.1-0.4-0.2-0.8-0.3-1.2
		c0.5,0.4,1,0.9,1.5,1.3c0.3,0.1,0.6,0.3,1,0.4c0.1,0.5,0.3,0.9,0.4,1.4c0.2,0.4,0.3,0.9,0.5,1.3c-0.6-0.2-1.1-0.3-1.7-0.5
		c-0.3,0.1-0.6,0.2-0.9,0.3c0,0.2,0,0.5,0,0.7c0.1,0.5,0.1,0.9,0.2,1.4c0.8,0,1.7,0.1,2.5,0.1c0-0.3,0.1-0.6,0.1-0.9
		c0.2-0.2,0.4-0.4,0.6-0.6c0.5,0.1,1,0.2,1.5,0.2c-0.1-0.1-0.1-0.3-0.2-0.4c0.3,0.1,0.6,0.3,0.9,0.4c0.8,0,1.6,0,2.4,0.1
		c0.4,0,0.8-0.1,1.1-0.1c0.3,0.1,0.7,0.2,1,0.3c0.3-0.1,0.5-0.3,0.8-0.4c0.3,0,0.7-0.1,1-0.1c-0.1,0.2-0.3,0.3-0.4,0.5
		c0.2,0.1,0.3,0.2,0.5,0.3c0,0.3,0,0.6,0,0.9c-0.3-0.1-0.6-0.2-0.9-0.3c-0.1,0.1-0.2,0.2-0.3,0.3c0.4,0.2,0.8,0.5,1.1,0.7
		c0.2-0.1,0.5-0.1,0.7-0.2c0,0.3,0.1,0.5,0.1,0.8c0.2,0,0.4,0,0.6,0c-0.1-0.2-0.2-0.5-0.3-0.7c0.6,0.1,1.1,0.1,1.7,0.2
		c0.4,0.2,0.8,0.4,1.2,0.5c0,0.2-0.1,0.4-0.1,0.6c0.2,0.2,0.4,0.3,0.5,0.5c0.2-0.1,0.3-0.3,0.5-0.4c0.7,0.1,1.4,0.1,2.1,0.2
		c-0.3,0.3-0.6,0.5-0.9,0.8c0.2,0.4,0.4,0.8,0.7,1.3c0.1-0.3,0.2-0.6,0.3-0.9c0.2,0,0.3,0,0.5-0.1c0.1,0.2,0.1,0.3,0.2,0.5
		c0.3,0,0.7,0.1,1,0.1c0.1-0.4,0.2-0.9,0.3-1.3c-0.1-0.4-0.1-0.7-0.2-1.1c0.3,0.1,0.6,0.2,0.9,0.3c0.1-0.1,0.2-0.3,0.4-0.4
		c0.5,0.4,1,0.8,1.6,1.1c0.1-0.2,0.1-0.5,0.2-0.7c0.3,0.1,0.5,0.3,0.8,0.4c0.2,0.4,0.4,0.7,0.6,1.1c0.4,0.3,0.8,0.5,1.2,0.8
		c0,0-0.5,1.1-0.5,1.3c-0.1,0.2,0.7-0.4,0.7-0.4c0.5,0.7,1.1,1.4,1.6,2c0.3,0.8,0.6,1.6,0.9,2.4c0.5-0.4,1-0.8,1.5-1.2
		c-0.2-0.1-0.4-0.3-0.7-0.4c0-0.2,0-0.4,0.1-0.6c-3.8-4.6-8.1-8.8-12.7-12.7c0,0.1,0,0.2,0,0.3c0.5,0.7,0.9,1.5,1.4,2.2
		c-0.9-0.1-1.9-0.2-2.8-0.2c-0.5-0.2-1-0.4-1.6-0.6c-0.5-0.7-1-1.3-1.5-2c0.3-0.1,0.6-0.3,0.9-0.4c-0.1-0.5-0.2-1-0.3-1.6
		c-0.4,0-0.8,0.1-1.2,0.1c-0.3-0.4-0.7-0.9-1-1.3c0.2-0.1,0.4-0.2,0.5-0.3c0.1-0.2,0.2-0.3,0.3-0.5c-6.3-4.6-13.2-8.6-20.7-11.9
		c-53.1-22.8-114.6,1.7-137.5,54.8c-2.4,5.7-4.3,11.4-5.7,17.2H126.7z M182,68c0.5,0.2,1,0.4,1.5,0.6c-0.1,0.4-0.2,0.8-0.3,1.1
		c-0.3,0.5-0.7,1-1,1.5c-0.6-0.7-1.2-1.4-1.9-2.1c-0.2-0.6-0.3-1.2-0.5-1.8l0,0c0,0,0,0,0,0c0,0,0,0,0.1-0.1c0,0,0.1-0.1,0.2-0.1
		c0.1-0.1,0.2-0.1,0.4-0.2C181,67.4,181.5,67.7,182,68z M177.9,57.6c0.1-0.4,0.3-0.8,0.4-1.2c0.4-0.1,0.7-0.2,1.1-0.3
		c0.3-0.2,0.6-0.4,0.9-0.6c-0.2,0.6-0.5,1.3-0.7,1.9c-0.4,0.4-0.8,0.8-1.2,1.2c-0.3-0.2-0.5-0.3-0.8-0.5
		C177.7,57.9,177.8,57.8,177.9,57.6z M176.1,61.7c0-0.5,0-1,0.1-1.6c0,0,0.1,0,1-0.7c1-0.8-1,0.7,1.5,0.2c0.2,0,0.3-0.1,0.4-0.1
		c1-0.1,0.7,0.3,0.3,0.7c-0.3,0.3-0.8,0.6-0.8,0.6c-0.3,0.5-0.6,0.9-0.9,1.4c-0.4,0.3-0.7,0.6-1.1,1c-0.4,0-0.7-0.1-1.1-0.1
		C175.7,62.6,175.9,62.2,176.1,61.7z M172.2,59c-0.1,0.2-0.2,0.4-0.3,0.7c-0.3-0.2-0.6-0.4-0.8-0.7C171.4,59,171.8,59,172.2,59z
		 M168.6,58.6c0.2-0.3,0.5-0.5,0.7-0.8c0.1-0.2,0.2-0.4,0.2-0.5c0,0,0.6,1.2,0.1,1.6c-0.5,0.1-1,0.2-1.4,0.3
		C168.3,59,168.5,58.8,168.6,58.6z M165.6,58.6c0.2-0.2,0.4-0.4,0.6-0.6c0.2,0,0.5,0.1,0.7,0.1c-0.1,0.1-0.3,0.2-0.4,0.2
		C166,58.6,165.6,58.6,165.6,58.6C165.6,58.6,165.6,58.6,165.6,58.6L165.6,58.6z M210.4,32.6c0.4,0.1,0.7,0.2,1.1,0.3
		c0.2,0,0.5-0.1,0.7-0.1c-0.2,0.3-0.4,0.7-0.6,1c-0.4-0.1-0.9-0.2-1.3-0.2C210.3,33.3,210.4,33,210.4,32.6z M204.4,32.9
		c0.5-0.2,1-0.4,1.5-0.5c0.2,0.1,0.4,0.2,0.7,0.3c-0.4,0.4-0.8,0.7-1.3,1.1c-0.3,0.1-0.7,0.1-1,0.2
		C204.4,33.6,204.4,33.3,204.4,32.9z M195.3,32.3c-0.2,0.5-0.3,0.9-0.5,1.4c-0.2,0.2-0.4,0.4-0.6,0.6c-0.3-0.3-0.6-0.5-0.9-0.8
		c0,0-0.2-1-0.3-1.4c0,0,0,0,0.1,0c0.1,0,0.3,0,0.5,0c0.1,0,0.2,0,0.3,0C194.4,32.1,194.9,32.1,195.3,32.3z M268.5,28.4
		c0.2,0.2,0.4,0.5,0.6,0.7c0.3,0.4,0.7,0.8,1,1.2c0,0.2,0,0.5,0.1,0.7c-0.4-0.1-0.8-0.3-1.2-0.4c-0.3-0.4-0.6-0.7-0.9-1.1
		C268.3,29.1,268.4,28.7,268.5,28.4z M255.8,24.5c0.4,0.3,0.8,0.6,1.1,0.9c-0.1,0.3-0.2,0.6-0.3,0.9c-0.3,0.1-0.6,0.2-0.9,0.3
		c-0.2-0.4-0.4-0.7-0.6-1.1C255.4,25.2,255.6,24.8,255.8,24.5z M222,6.8c0.5,0.1,1,0.1,1.4,0.2c-0.1,0.3-0.1,0.5-0.2,0.8
		c-0.4,0-0.9-0.1-1.3-0.1c-0.2-0.2-0.5-0.3-0.7-0.5C221.5,7,221.7,6.9,222,6.8z M218.1,6.9c0.3,0.2,0.5,0.4,0.8,0.6
		c-0.1,0-0.1,0-0.2,0c-0.1,0-0.2,0-0.3,0c-0.3,0-0.5,0-0.8-0.1c-0.1,0-0.2,0-0.2,0c-0.1,0-0.1,0-0.1,0l0,0
		C217.6,7.2,217.9,7.1,218.1,6.9z M212,8.5c0.4,0.2,0.8,0.4,1.2,0.6c-0.2,0.2-0.4,0.4-0.6,0.7c-0.5,0-0.9,0.1-1.4,0.1
		c-0.1-0.2-0.2-0.4-0.3-0.6C211.2,8.9,211.6,8.7,212,8.5z M181.2,16.7c0.2-0.2,0.4-0.3,0.5-0.5c0.1,0.5,0.3,0.9,0.4,1.4
		c-0.3,0.1-0.6,0.1-0.9,0.2C181.2,17.8,180.9,17,181.2,16.7z M172.6,16.9c0.2,0.3,0.4,0.7,0.6,1c-0.3,0.2-0.6,0.3-0.9,0.5
		c-0.2-0.2-0.4-0.4-0.6-0.6C172,17.5,172.3,17.2,172.6,16.9z M172.7,26.9c0.2-0.2,0.5-0.3,0.7-0.5c-0.3-0.3-0.5-0.6-0.8-0.9
		c-0.5,0-0.9,0-1.4,0c0.2-0.6,0.3-1.1,0.5-1.7c0.2-0.3,0.4-0.5,0.5-0.8c-0.4-0.2-0.7-0.5-1.1-0.7c0.3,0,0.6,0,1-0.1
		c-0.1-0.3-0.2-0.6-0.3-1c0-0.1,0-0.2-0.1-0.4c-0.1-0.8,0-1.6,0-1.6c0.2,0.3,0.5,0.6,0.7,1c0.1,0,0.1,0,0.2,0c0.1,0,0.2-0.1,0.3-0.2
		c0,0,0,0,0-0.1c0,0,0,0,0-0.1c0.1-0.2,0.1-0.4,0.1-0.4c0,0,0,0,0,0l0,0c0.5-0.4,1.1-0.9,1.6-1.3c0.7,0,1.3,0,2,0.1
		c0,0.4,0,0.8,0,1.2c-0.4,0.2-0.9,0.3-1.3,0.5c0.3,0.3,0.7,0.5,1,0.8c0.4,0.2,0.8,0.5,1.2,0.7c-0.3,0.3-0.5,0.6-0.8,1
		c-0.3,0.4-0.6,0.7-0.8,1.1c-0.3,0.2-0.7,0.3-1,0.5c0.3,0.4,0.5,0.8,0.8,1.2c0.1,0.5,0.2,1,0.3,1.6c0.2,0.6,0.5,1.1,0.7,1.7
		c0,0.5-0.1,1-0.1,1.5c0.3,0.3,0.5,0.6,0.8,0.9c-0.3,0.1-0.5,0.3-0.8,0.4c0.3,0.3,0.6,0.5,0.9,0.8c0.3,0.2,0.5,0.5,0.8,0.7
		c-0.1,0.5-0.3,1.1-0.4,1.6c-0.6,0-1.1-0.1-1.7-0.1c0,0.2,0,0.5,0,0.7c-0.5-0.1-1-0.1-1.5-0.2c-0.4-0.2-0.9-0.3-1.3-0.5
		c-0.6,0.2-1.1,0.4-1.7,0.5c-0.4-0.2-0.8-0.4-1.3-0.6c-0.4,0.1-0.8,0.2-1.2,0.3c-0.6-0.2-1.1-0.4-1.7-0.7c-0.6,0.2-1.2,0.4-1.9,0.6
		c0-0.3,0-0.7,0-1c1-0.4,2-0.9,3-1.3c0.6,0.4,1.3,0.8,1.9,1.2c0.3-0.3,0.6-0.6,0.9-0.8c-0.3-0.1-0.5-0.2-0.8-0.3
		c-0.4-0.1-0.7-0.2-1.1-0.3c-0.4-0.2-0.8-0.4-1.3-0.6c0.1-0.2,0.1-0.4,0.2-0.7c0.5,0,0.9,0.1,1.4,0.1c0.1-0.2,0.2-0.5,0.4-0.7
		c-0.3-0.2-0.6-0.3-0.9-0.5c0.4-0.1,0.9-0.1,1.3-0.2c-0.2-0.4-0.4-0.7-0.6-1.1c0.4,0.1,0.7,0.2,1.1,0.3c0.2,0.3,0.4,0.5,0.5,0.8
		c0.4-0.2,0.9-0.3,1.3-0.5c0.1-0.4,0.2-0.8,0.3-1.2C173.2,27.4,173,27.2,172.7,26.9z M162.9,25.5c0.5-0.2,1.1-0.3,1.6-0.5
		c0.2-0.3,0.3-0.6,0.5-1c0.5,0.3,1,0.6,1.4,0.8c0.5-0.4,1-0.8,1.5-1.1c0-0.2,0.1-0.4,0.1-0.5c0.5,0.3,0.9,0.6,1.4,0.9
		c0,0.2-0.1,0.4-0.1,0.5c0.2,0.4,0.4,0.7,0.6,1.1c-0.7,0.5-2.2,1-2.2,1c0.1,0.2,0.2,0.5,0.3,0.7c-0.2,0.5-0.5,1-0.7,1.5
		c-0.7,0.2-1.4,0.3-2.1,0.5c-0.7,0.1-1.4,0.2-2.2,0.3c-0.3-0.3-0.6-0.5-0.9-0.8c-0.2-0.3-0.4-0.6-0.6-1c0.7-0.1,1.4-0.3,2-0.4
		c0.2-0.4,0.4-0.8,0.6-1.2C163.7,26.1,163.3,25.8,162.9,25.5z"/>
	<g>
		<path d="M275.6,153.9c0,0-0.7-1.4-0.7-1.6c0-0.2-0.6,0.7-0.6,0.7c-0.5,0.2-1,0.5-1.5,0.7c-0.3-0.1-0.7-0.1-1-0.2
			c-0.1-0.3-0.3-0.6-0.4-0.9c0.1-0.2,0.2-0.5,0.3-0.7c0.3-0.4,0.6-0.7,0.9-1.1c0.2-0.4,0.3-0.8,0.5-1.2c0-0.2-0.1-0.3-0.1-0.5
			c0.1-0.3,0.3-0.6,0.4-0.9c0.2-0.8,0.3-1.6,0.5-2.3c-0.4-0.1-0.8-0.1-1.2-0.2c0-0.7,0.1-1.5,0.1-2.2c0-0.3,0.1-0.5,0.1-0.8h-7.6
			c-0.3,0.1-0.5,0.3-0.8,0.4c-0.3-0.1-0.5-0.3-0.8-0.4h-0.2c-0.3,0.2-0.5,0.4-0.8,0.6c-1,0.5-2.1,1-3.1,1.6c-0.5,0-1-0.1-1.5-0.1
			c-0.2,0.3-0.4,0.5-0.7,0.8c-0.4,0.1-0.8,0.2-1.2,0.3c-0.5,0.1-1.1,0.2-1.6,0.3c-0.4,0.1-0.7,0.2-1.1,0.3c-0.1,0.4-0.2,0.8-0.4,1.3
			c-0.4,0.6-0.7,1.1-1.1,1.7c-0.3,0.8-0.6,1.6-0.9,2.3c-0.6,0.7-1.2,1.4-1.8,2.1c-0.1,0.5-0.3,0.9-0.4,1.4c-0.3-0.1-0.5-0.1-0.8-0.2
			c-0.6,0.5-1.3,1-1.9,1.5c-0.3,0.3-0.6,0.5-0.8,0.8c-0.4-0.1-0.7-0.2-1.1-0.3c-0.1-1-0.2-1.9-0.4-2.9c0.2-0.2,0.4-0.3,0.5-0.5
			c0-1.6,0-3.2,0-4.8c0.2-0.5,0.3-1,0.5-1.5c0.2-1.5,0.4-3.1,0.5-4.6h-22.1c-2.9,2-5.9,4-8.8,5.9c-6,4-11.7,7.5-17.4,10.8
			c-5.6,3.3-10.6,6-15.4,8.5c-0.5,1-0.9,2-1.4,2.9c-0.7,0.5-1.3,1-2,1.5c-1.4,0.1-2.9,0.2-4.3,0.3c-0.4-0.1-0.8-0.2-1.2-0.3
			c-0.3,0.2-0.6,0.3-0.9,0.5c-0.1,0.1-0.2,0.2-0.3,0.2c-0.1,0-0.2,0.1-0.3,0.1c-0.7,0.3-1.3,0.6-2,1c-0.1,1-0.1,2-0.2,3
			c-0.4,1.1-0.8,2.1-1.2,3.2c-0.9,0-1.8,0-2.7,0c-0.7,0.1-1.3,0.2-2,0.3c0.1,0.2,0.1,0.3,0.2,0.5c-0.8,1.1-1.6,2.2-2.4,3.2
			c-0.4,0.1-0.7,0.1-1.1,0.2c-2.2,1-4.5,1.9-6.7,2.8c-1.4,0-2.9,0-4.3,0c-0.7-0.4-1.3-0.7-2-1.1c-1-0.3-2.1-0.6-3.1-0.9
			c-0.1,0-0.2,0-0.3,0c-2.7,1-5.3,2-7.8,2.8c6.6,5,14,9.3,21.9,12.8c37.1,16,78.3,8.8,107.6-15.1c0-0.3,0.1-0.6,0.1-0.8
			c-0.2-1-0.4-2-0.5-3c0.2-0.9,0.4-1.9,0.5-2.8c-0.3-0.3-0.6-0.7-0.8-1c0.2-0.6,0.4-1.2,0.5-1.8c-0.2-0.6-0.3-1.3-0.5-1.9
			c-0.2-0.5-0.5-1.1-0.7-1.6c-0.1-0.6-0.2-1.1-0.2-1.7c0.3-0.6,0.6-1.2,0.9-1.8c0.3,0.2,0.7,0.4,1,0.5c0.3,0.2,0.6,0.4,0.9,0.7
			c0.4,0.4,0.7,0.8,1.1,1.2c0.3,1.3,0.5,2.6,0.7,3.9c0,0.9,0,1.7,0,2.6c0.3,0.7,0.6,1.5,0.9,2.2c0.3,0.3,0.6,0.6,0.9,0.9
			c-0.1,0.2-0.1,0.5-0.2,0.7c0.7-0.7,1.4-1.4,2.1-2.1c0,0-0.4-0.4-0.6-0.4c-0.2-0.1-0.9,0.3-0.9,0.3c-0.3-0.9-0.7-1.7-1.1-2.6
			c0.1-0.3,0.2-0.6,0.3-0.9c0-0.3,0-0.6,0-0.9c0.1-0.5,0.2-1,0.3-1.5c0.2-0.5,0.3-0.9,0.5-1.4c0.3-0.8,0.5-1.6,0.8-2.4
			c-0.2-0.6-0.3-1.2-0.5-1.7c-0.1-0.6-0.2-1.1-0.2-1.7c0.4-0.4,0.7-0.7,1.1-1.1c0.2-0.2,0.4-0.4,0.6-0.6c0-0.2,0-0.3,0-0.5
			c0.1-0.1,0.3-0.3,0.4-0.4c0.2-0.3,0.4-0.5,0.6-0.8c0.1-0.6,0.2-1.2,0.2-1.8c0.1-0.2,0.3-0.3,0.4-0.5c0.2-0.6,0.4-1.2,0.6-1.7
			c0-0.3-0.1-0.6-0.1-0.9c0.2-1,0.5-1.9,0.7-2.9C275.3,154.7,275.5,154.3,275.6,153.9z M193.9,172.2c0,0-0.2,1.2-0.2,1.9
			c0,0.1,0,0.2,0,0.2c0.1,0.5-0.1,2.3-0.1,2.3c-0.4,0.2-0.7,0.5-1.1,0.7c0,0-0.1-1.5-0.3-1.1c-0.2,0.4-0.6,1.9-0.6,1.9
			c-0.3,0.4-0.7,0.8-1,1.2c-0.7,0.8-1.5,1.5-2.2,2.3c-0.6,0.3-1.2,0.7-1.7,1c-0.8,0.9-1.5,1.8-2.2,2.7c-0.7,0.5-1.5,0.9-2.2,1.3
			c-0.7,0-1.4,0-2.2,0c-0.4-0.5-0.7-0.9-1.1-1.4c0.1-0.7,0.1-1.3,0.2-2c-0.2-0.5-0.3-1.1-0.5-1.6c0.5-0.6,1.1-1.2,1.6-1.8
			c0.6-0.3,1.1-0.7,1.7-1c0.4-0.1,0.7-0.2,1.1-0.3c-0.3-0.6-0.5-1.1-0.8-1.7c0.2-0.5,0.4-1,0.5-1.5c0.3-0.1,0.6-0.2,0.9-0.3
			c0.6-0.2,1.2-0.4,1.8-0.6c0.5-0.1,0.9-0.2,1.4-0.3c0.5,0.2,1.1,0.4,1.6,0.6c0.2-0.1,0.4-0.2,0.6-0.3c0.4-0.2,0.7-0.4,1.1-0.6
			c0.5-0.2,0.9-0.4,1.4-0.6c0.4-0.6,0.8-1.1,1.3-1.7C193.3,171.8,193.6,172,193.9,172.2L193.9,172.2
			C193.9,172.2,193.9,172.2,193.9,172.2z M248.2,161.5c0,0-0.8,0.4-1.3,0.3c0,0,0,0,0,0c-0.1,0-0.1,0-0.2,0c0,0-0.1-0.1-0.1-0.1
			c-0.3-0.3-0.5-1.1-0.5-1.1c0,0,0,0,0,0v0c0.2-0.6,0.3-1.3,0.5-1.9c0.3-0.2,0.5-0.5,0.8-0.7c0.1-0.3,0.2-0.5,0.2-0.8
			c0,0,0.2-0.2,0.4-0.4c0,0,0.1-0.1,0.1-0.1c0,0,0,0,0.1,0c0,0,0.1,0,0.1,0c0,0,0.1,0,0.1,0c0.1,0,0.1,0,0.2,0
			c0.1,0,0.1,0.1,0.2,0.1c0.1,0.6,0.2,1.3,0.3,1.9c0,0.5,0.1,1.1,0.1,1.6C248.9,160.6,248.6,161.1,248.2,161.5z"/>
		<path d="M125.9,179.5c0.5-0.2,1.1-0.3,1.6-0.5c4.1-1.2,8.3-2.7,12.9-4.4c-0.2-0.3-0.4-0.5-0.7-0.8c0-0.8,0-1.6,0-2.4
			c0.6-2,1.1-3.9,1.7-5.9c-0.2-1.1-0.4-2.3-0.5-3.4c0-0.6,0.1-1.1,0.1-1.7c-0.3-0.7-0.7-1.3-1-2c0.3-0.9,0.6-1.8,0.9-2.7
			c0.9-0.9,1.9-1.9,2.8-2.8c0.7-0.4,1.4-0.8,2.1-1.2c0.3-0.4,0.5-0.8,0.8-1.2c0.1-0.8,0.1-1.6,0.2-2.4c0.2-0.4,0.3-0.8,0.5-1.2
			c0.2-0.2,0.5-0.4,0.7-0.6c0,0,0-2.1,0.1-3.7h-46.4C106.9,156.3,115.1,169,125.9,179.5z"/>
	</g>
</g>
<g>
	<path d="M125.9,131.7c-0.6,2.7-3,4.8-5.9,4.8c-3.3,0-6-2.7-6-6c0-3.3,2.7-6,6-6c2.9,0,5.3,2,5.9,4.8h-4c-0.4-0.6-1.1-1-1.9-1
		c-1.3,0-2.3,1-2.3,2.3c0,1.2,1,2.3,2.3,2.3c0.8,0,1.5-0.4,1.9-1H125.9z"/>
	<path d="M147.1,124.4c3.3,0,6,2.7,6,6c0,3.3-2.7,6-6,6c-3.3,0-6-2.7-6-6C141.1,127.1,143.8,124.4,147.1,124.4z M147.1,132.7
		c1.2,0,2.3-1,2.3-2.3c0-1.3-1-2.3-2.3-2.3c-1.3,0-2.3,1-2.3,2.3C144.9,131.7,145.9,132.7,147.1,132.7z"/>
	<path d="M168.5,124.7h5.4l1.4,5.9l1.4-5.9h5.2v11.5h-3.5v-6.3l-1.6,6.3h-3.3l-1.6-6.3v6.3h-3.4V124.7z"/>
	<path d="M197.4,124.7h4.6c2.7,0,4.9,2.1,4.9,4.8c0,2.7-2.2,4.8-4.9,4.8h-0.6v2h-3.9V124.7z M202,130.8c0.7,0,1.3-0.6,1.3-1.3
		c0-0.7-0.6-1.3-1.3-1.3h-0.6v2.5H202z"/>
	<path d="M233,136.2h-4.5l-0.5-1.8h-2.8l-0.4,1.8h-4.3l3.7-11.5h5.2L233,136.2z M225.8,131.3h1.5l-0.7-2.8L225.8,131.3z"/>
	<path d="M248.4,124.7h3.6l3.3,5v-5h3.8v11.5h-3.6l-3.3-5.2v5.2h-3.8V124.7z"/>
	<path d="M278.3,132.3l-3.8-7.7h4.5l1.4,3.2l1.4-3.2h4.3l-3.8,7.7v3.9h-3.9V132.3z"/>
</g>
<g>
	<path d="M237.6,128.3c-1,0.6-2.1,1.2-3.2,1.9l0.7,2.1c1.2-0.9,2.4-1.8,3.5-2.6c2.9-2.2,5.1-4.1,6.7-5.3c1.5-1.2,2.3-1.9,2.3-1.9
		S243.9,124.5,237.6,128.3z"/>
	<path d="M218.2,139.4c-2.2,1.2-4.5,2.5-7,3.9c-5.5,3-11.5,6.1-17.9,9.4c-6.4,3.2-13.2,6.5-20.2,9.8c-7.1,3.3-14.5,6.4-22.1,9.6
		c-7.5,3.1-15.3,6.1-23.1,8.4c-7.8,2.5-15.8,4.5-23.7,5.5c-2,0.3-4,0.5-5.9,0.6c-1,0.1-1.9,0.2-2.9,0.2c-1,0-2,0.1-3,0.1
		c-3.7,0.2-7.4-0.1-10.6-1.1c-3.2-1-5.4-2.8-6.5-5.2c-0.5-1.4-0.7-2.2-0.8-4.3l0-0.1l0,0l0-0.3l0.1-0.6l0.1-1.2l0.1-1.2
		c0-0.4,0.1-0.8,0.2-1.2c1.2-6.5,3.9-12.5,7.1-17.6c3.2-5.1,6.8-9.6,10-13.4c3.3-3.8,6.3-7.1,8.8-9.7c5-5.3,7.9-8.4,7.9-8.4
		s-0.8,0.7-2.3,1.9c-1.5,1.2-3.8,3-6.6,5.4c-2.8,2.4-6.2,5.2-9.9,8.8c-3.7,3.6-7.8,7.8-11.6,13c-3.8,5.1-7.5,11.4-9.2,19
		c-0.1,0.5-0.3,0.9-0.3,1.4l-0.2,1.5l-0.2,1.5l-0.1,0.7l0,0.4l0,0.1c0,0,0,0.4,0,0.3l0,0.2c-0.1,1.5,0.1,4.4,0.9,6.6
		c0.8,2.3,2.3,4.4,4.2,6c1.9,1.6,4,2.7,6.1,3.5c4.3,1.5,8.7,2,13.1,1.9c3.9,0,8.5-0.2,12.7-0.8c8.5-1,16.9-3.1,25.1-5.6
		c8.2-2.6,16.1-5.7,23.8-9c7.7-3.2,15-6.9,22.1-10.4c7.1-3.5,13.8-7.3,20.1-10.9c6.3-3.6,12.1-7.2,17.4-10.7c4.2-2.7,8-5.3,11.5-7.8
		H218.2z"/>
</g>
</svg>
