<?xml version="1.0" encoding="utf-8"?>
<!-- Generator: Adobe Illustrator 24.0.1, SVG Export Plug-In . SVG Version: 6.00 Build 0)  -->
<svg version="1.1" id="Layer_1" xmlns="http://www.w3.org/2000/svg" xmlns:xlink="http://www.w3.org/1999/xlink" x="0px" y="0px"
	 viewBox="0 0 360 117.8" style="enable-background:new 0 0 360 117.8;" xml:space="preserve">
<style type="text/css">
	.st0{fill:#FFFFFF;}
	.st1{fill:#1AACBB;}
</style>
<g>
	<path d="M356.5,96.5c-2.3-2.3-5.4-3.5-8.9-3.5s-6.5,1.2-8.8,3.5c-1.1,1.1-2,2.5-2.6,3.9l-2.1-3.5c1.5-1.5,2.8-3.3,3.8-5.3
		c1.7-3.4,2.6-7.4,2.6-11.8c0-7.2-2.5-13-7.4-17.1c-4.6-3.9-11.1-5.9-19.1-5.9h-15.4v-19h-3V22.7h2.4V0h-52.6v9.8
		c-1-1.4-2.2-2.8-3.6-3.9C237.1,2,230.7,0,222.7,0h-29.4v36.8L178.3,0h-23.8l-15.9,37.8h-2.1V22.7h2.4V0H95h-8.7H67.1l-3.5,15.6
		L60,0L35.8,0.1l-3.5,15.6L28.7,0H0l18.8,58.1c-0.2,0.1-0.5,0.2-0.7,0.3c-4.1,1.7-7.4,4.2-9.7,7.4C6,69.2,4.8,73,4.8,77.4
		c0,4.6,1.3,8.4,3.8,11.4c0,0,0,0.1,0.1,0.1L0.2,106l3.3,2.5c3.8,2.9,8.3,5.2,13.3,6.7s10,2.3,14.9,2.3c4.5,0,8.7-0.7,12.4-2.1
		c4.1-1.5,7.4-3.8,9.9-7c0.7-0.9,1.3-1.8,1.8-2.8c2.5,3.7,5.8,6.7,10.1,8.8c4.4,2.1,9.4,3.2,15,3.2s10.6-1.1,14.9-3.2
		c4.5-2.2,8-5.5,10.4-9.6c0-0.1,0.1-0.1,0.1-0.2V117h24.5v-5.4l0.2,0.5h17.8l0.2-0.5v5.4h21.7h2.8h21.7v-5.4l0.2,0.5h17.8l0.2-0.5
		v5.4h21.7h2.8h46.8h3.7h23v-8.9l4.1,8.9h28.3c1.2,0.4,2.5,0.6,3.9,0.6c3.5,0,6.6-1.2,8.9-3.5s3.5-5.4,3.5-8.9
		C360,101.8,358.8,98.7,356.5,96.5z M245.4,36.8v7.7l-2.7-4.4C243.7,39.2,244.6,38,245.4,36.8z M222.4,56.7H220v-5.2L222.4,56.7z
		 M50.4,59.9c-1.7-0.7-3.6-1.4-5.6-1.9l2.6-10.9L50.4,59.9z M83.2,90.8c0,1.8-0.6,2.4-0.7,2.6C82.1,93.8,81.8,94,81,94
		s-1.4-0.2-1.9-0.8c-0.4-0.4-0.8-1-0.8-2.4v-34h-1.7l9.8-30.1v30.1h-3.1v34H83.2z M133.8,60.4h5.8h6.5L140,75.1L133.8,60.4z
		 M158.5,56.7l1.3-3.5h11.9l1.2,3.5h-2.2H158.5z M198.2,60.4h4.7h7.6l-6.1,14.7L198.2,60.4z"/>
	<g>
		<path class="st0" d="M54.5,55.4l-7-30.1l-7.2,30.1H23.2L6.9,5h17.8l7.6,33.1l7.5-33L56,5l7.6,33.1L71.1,5h17L71.7,55.4H54.5z"/>
		<path class="st0" d="M108,17.7v6.2h23.5v12.6H108v6.3h26.6v12.6H91.3V5h42.6v12.7H108z"/>
		<path class="st0" d="M156.3,48.3l-2.6,7.1h-17.1L157.9,5H175l20.5,50.4h-17.8l-2.5-7.1C175.2,48.3,156.3,48.3,156.3,48.3z
			 M165.9,21.6l-5.3,14.7h10.5L165.9,21.6z"/>
		<path class="st0" d="M221.2,42.3H215v13.1h-16.7V5h24.4c6.9,0,12.1,1.6,15.9,4.7c3.7,3.1,5.6,7.6,5.6,13.3c0,3.6-0.7,6.8-2.1,9.5
			c-1.4,2.7-3.3,4.8-5.9,6.4l9.9,16.4h-18.8L221.2,42.3z M222.7,29.7c1.8,0,3.2-0.5,4.2-1.6s1.5-2.6,1.5-4.5s-0.5-3.3-1.5-4.4
			c-1-1-2.4-1.5-4.2-1.5H215v12H222.7z"/>
		<path class="st0" d="M267.1,17.7v6.2h23.5v12.6h-23.5v6.3h26.6v12.6h-43.3V5H293v12.7H267.1z"/>
		<path class="st1" d="M43.1,62.6c3.9,1.1,7.3,2.5,10.2,4.4l-6,12.6c-2.8-1.5-5.9-2.9-9.2-4.1s-6-1.8-8.1-1.8s-3.1,0.7-3.1,2.1
			c0,1.1,0.6,1.9,1.9,2.5s3.4,1.3,6.2,2c3.6,1,6.7,1.9,9,2.9c2.4,1,4.5,2.6,6.2,4.7c1.8,2.1,2.7,5,2.7,8.5c0,3.6-0.9,6.6-2.8,9
			c-1.9,2.4-4.4,4.2-7.6,5.4c-3.2,1.2-6.8,1.8-10.7,1.8c-4.4,0-8.9-0.7-13.5-2.1s-8.5-3.4-11.8-5.9l6.2-12.5
			c2.5,2.1,5.7,3.9,9.6,5.5c3.8,1.6,7,2.3,9.6,2.3c2.7,0,4-0.9,4-2.6c0-1.1-0.7-1.9-2-2.5s-3.4-1.3-6.4-2C24,91.9,21,91,18.6,90
			s-4.5-2.5-6.2-4.5s-2.6-4.7-2.6-8.1c0-3.3,0.9-6.2,2.6-8.6c1.8-2.5,4.3-4.4,7.5-5.7s7-2,11.4-2C35.3,61,39.2,61.5,43.1,62.6z"/>
		<path class="st1" d="M101.9,102.4c-2,3.3-4.8,5.9-8.4,7.7c-3.6,1.8-7.8,2.7-12.7,2.7c-4.8,0-9.1-0.9-12.8-2.7
			c-3.7-1.8-6.5-4.4-8.5-7.7c-2-3.3-3-7.2-3-11.6V61.7h16.7v29.1c0,2.4,0.8,4.3,2.3,5.9C77,98.2,78.8,99,81,99
			c2.1,0,3.8-0.7,5.2-2.2c1.4-1.5,2.1-3.5,2.1-5.9V61.7H105v29.1C104.8,95.2,103.9,99,101.9,102.4z"/>
		<path class="st1" d="M154,112.1V84.5l-8.6,22.7h-10.9l-8.6-22.7v27.6h-14.5V61.7H129L140,88l11-26.3h17.6v50.4
			C168.6,112.1,154,112.1,154,112.1z"/>
		<path class="st1" d="M218.4,112.1V84.5l-8.6,22.7h-10.9l-8.6-22.7v27.6h-14.5V61.7h17.6l11,26.3l11-26.3H233v50.4
			C233,112.1,218.4,112.1,218.4,112.1z"/>
		<path class="st1" d="M256.8,74.4v6.2h23.5v12.6h-23.5v6.3h26.6v12.6h-43.3V61.7h42.6v12.7H256.8z"/>
		<path class="st1" d="M312.6,99h-6.2v13.1h-16.7V61.7H314c6.9,0,12.1,1.6,15.9,4.7c3.7,3.1,5.6,7.6,5.6,13.3c0,3.6-0.7,6.8-2.1,9.5
			s-3.3,4.8-5.9,6.4l9.9,16.4h-18.8L312.6,99z M314,86.4c1.8,0,3.2-0.5,4.2-1.6s1.5-2.6,1.5-4.5s-0.5-3.3-1.5-4.4
			c-1-1-2.4-1.5-4.2-1.5h-7.7v12H314z"/>
		<path class="st0" d="M353,100c1.4,1.4,2,3.1,2,5.3c0,2.2-0.7,4-2,5.4c-1.4,1.4-3.1,2.1-5.4,2.1c-2.2,0-3.9-0.7-5.3-2
			c-1.4-1.4-2.1-3.1-2.1-5.4c0-2.2,0.7-3.9,2.1-5.3s3.1-2,5.3-2C349.8,97.9,351.6,98.6,353,100z"/>
	</g>
</g>
</svg>
