<?xml version="1.0" encoding="utf-8"?>
<!-- Generator: Adobe Illustrator 24.0.1, SVG Export Plug-In . SVG Version: 6.00 Build 0)  -->
<svg version="1.1" id="Layer_1" xmlns="http://www.w3.org/2000/svg" xmlns:xlink="http://www.w3.org/1999/xlink" x="0px" y="0px"
	 viewBox="0 0 400 38" style="enable-background:new 0 0 400 38;" xml:space="preserve">
<style type="text/css">
	.st0{fill:#FFFFFF;}
	.st1{fill:#00AEBD;}
</style>
<title>logo</title>
<g>
	<path d="M397.8,24.9c-1.4-1.4-3.3-2.2-5.5-2.2c-2.1,0-4,0.7-5.4,2.1c-0.7,0.7-1.2,1.5-1.6,2.4l-1.3-2.2c0.9-1,1.7-2,2.4-3.3
		c1.1-2.1,1.6-4.5,1.6-7.2c0-4.5-1.5-8-4.5-10.5c-2.9-2.4-6.8-3.6-11.7-3.6h-16.2h-1.9h-28.8h-1.7H309l-4.7,11.3l-4.7-11.3h-14.2
		h-1.7h-14.2l-4.7,11.3l-4.7-11.3h-13.8H244h-14.2v20.9c0,1.1-0.3,1.5-0.5,1.6c-0.2,0.2-0.4,0.4-0.9,0.4c-0.5,0-0.8-0.1-1.2-0.5
		c-0.3-0.3-0.5-0.6-0.5-1.5V0.4h-16.4v2.2c-1.3-0.6-2.8-1.1-4.3-1.6c-2.7-0.7-5.4-1.1-8-1.1c-3,0-5.8,0.5-8.1,1.5
		c-2.5,1-4.5,2.6-6,4.6c-0.2,0.3-0.4,0.5-0.5,0.8V0.4h-32.4v6.1c-0.6-0.9-1.4-1.7-2.2-2.4c-2.9-2.4-6.8-3.6-11.7-3.6h-18.1v22.7
		l-9.2-22.7H95.1l-9.8,23.2H84v-9.3h1.5V0.4h-27h-5.3H41.3L39.1,10l-2.2-9.6L22,0.5L19.8,10l-2.2-9.6H0l12,37.1h15.2l2-8.2l1.9,8.2
		h15.2l6.8-20.8v20.8h26.3h6.4h10.8l1.6-4.4h7.3l1.6,4.4h11.8h5.9h10.5v-5.5l2.5,5.5h13.1h5.9h26.9v-3.4c1.6,0.9,3.4,1.7,5.3,2.2
		c3.1,1,6.2,1.4,9.2,1.4c2.8,0,5.3-0.4,7.6-1.3c2.5-0.9,4.6-2.4,6.1-4.3c0.4-0.5,0.8-1.1,1.1-1.7c1.5,2.3,3.6,4.1,6.2,5.4
		c2.7,1.3,5.8,2,9.2,2c3.4,0,6.5-0.7,9.2-2c2.7-1.4,4.9-3.4,6.4-5.9c0,0,0-0.1,0.1-0.1v7.6h15.1v-3.3l0.1,0.3h10.9l0.1-0.3v3.3h13.3
		h1.7h13.3v-3.3l0.1,0.3h10.9l0.1-0.3v3.3h13.3h1.7h28.8h2.3h14.2v-5.5l2.5,5.5H390c0.7,0.2,1.5,0.3,2.4,0.3c2.2,0,4.1-0.8,5.5-2.2
		c1.4-1.4,2.1-3.3,2.1-5.5C400,28.1,399.3,26.3,397.8,24.9z M150.9,27.8l-1.6-2.7c0.6-0.6,1.2-1.3,1.6-2V27.8z M182.3,23.6h-0.5
		v-8.2c0.3,1.8,1,3.4,2.1,4.7c0,0,0,0,0,0.1L182.3,23.6z"/>
	<g>
		<path class="st0" d="M33.5,34.5L29.2,16l-4.4,18.5H14.3l-10-31h11l4.7,20.3l4.6-20.3l10,0l4.7,20.3l4.6-20.3h10.5l-10.1,31H33.5z"
			/>
		<path class="st0" d="M66.4,11.3v3.8h14.5v7.8H66.4v3.9h16.3v7.8H56.2v-31h26.2v7.8H66.4z"/>
		<path class="st0" d="M96.1,30.1l-1.6,4.4H84l13.1-31h10.5l12.6,31h-10.9l-1.6-4.4H96.1z M102,13.7l-3.3,9.1h6.5L102,13.7z"/>
		<path class="st0" d="M136.1,26.4h-3.8v8h-10.3v-31h15c4.2,0,7.5,1,9.8,2.9c2.3,1.9,3.4,4.7,3.4,8.2c0,2.2-0.4,4.2-1.3,5.9
			c-0.8,1.7-2.1,3-3.6,4l6.1,10.1h-11.6L136.1,26.4z M136.9,18.7c1.1,0,2-0.3,2.6-1c0.6-0.7,0.9-1.6,0.9-2.8c0-1.2-0.3-2-0.9-2.7
			s-1.5-0.9-2.6-0.9h-4.7v7.4H136.9z"/>
		<path class="st0" d="M164.2,11.3v3.8h14.5v7.8h-14.5v3.9h16.3v7.8H154v-31h26.2v7.8H164.2z"/>
		<path class="st1" d="M205.1,4.1c2.4,0.7,4.5,1.6,6.3,2.7l-3.7,7.8c-1.7-0.9-3.6-1.8-5.7-2.5s-3.7-1.1-5-1.1
			c-1.3,0-1.9,0.4-1.9,1.3c0,0.6,0.4,1.2,1.2,1.5c0.8,0.4,2.1,0.8,3.8,1.2c2.2,0.6,4.1,1.2,5.6,1.8c1.5,0.6,2.7,1.6,3.8,2.9
			c1.1,1.3,1.7,3.1,1.7,5.2c0,2.2-0.6,4.1-1.7,5.5c-1.2,1.5-2.7,2.6-4.7,3.3c-2,0.7-4.2,1.1-6.6,1.1c-2.7,0-5.5-0.4-8.3-1.3
			c-2.8-0.9-5.2-2.1-7.2-3.6l3.8-7.7c1.6,1.3,3.5,2.4,5.9,3.4c2.4,1,4.3,1.4,5.9,1.4c1.7,0,2.5-0.5,2.5-1.6c0-0.7-0.4-1.2-1.2-1.6
			c-0.8-0.4-2.1-0.8-3.9-1.2c-2.2-0.5-4-1.1-5.5-1.7s-2.7-1.5-3.8-2.8c-1.1-1.3-1.6-2.9-1.6-5c0-2,0.5-3.8,1.6-5.3
			c1.1-1.5,2.6-2.7,4.6-3.5s4.3-1.2,7-1.2C200.3,3.1,202.7,3.4,205.1,4.1z"/>
		<path class="st1" d="M241.3,28.5c-1.2,2-2.9,3.6-5.1,4.7s-4.8,1.7-7.8,1.7s-5.6-0.6-7.9-1.7c-2.3-1.1-4-2.7-5.3-4.7
			c-1.2-2-1.9-4.4-1.9-7.1V3.5h10.2v17.9c0,1.5,0.5,2.7,1.4,3.6s2.1,1.4,3.4,1.4c1.3,0,2.4-0.5,3.2-1.4c0.8-0.9,1.3-2.1,1.3-3.7V3.5
			h10.2v17.9C243.1,24.1,242.5,26.4,241.3,28.5z"/>
		<path class="st1" d="M273.3,34.5v-17l-5.3,14h-6.7l-5.3-14v17h-8.9v-31h10.8l6.8,16.2l6.8-16.2h10.8v31H273.3z"/>
		<path class="st1" d="M312.9,34.5v-17l-5.3,14h-6.7l-5.3-14v17h-8.9v-31h10.8l6.8,16.2L311,3.5h10.8v31H312.9z"/>
		<path class="st1" d="M336.5,11.3v3.8H351v7.8h-14.5v3.9h16.3v7.8h-26.6v-31h26.2v7.8H336.5z"/>
		<path class="st1" d="M370.8,26.4H367v8h-10.3v-31h15c4.2,0,7.5,1,9.8,2.9s3.4,4.7,3.4,8.2c0,2.2-0.4,4.2-1.3,5.9
			c-0.8,1.7-2.1,3-3.6,4l6.1,10.1h-11.6L370.8,26.4z M371.7,18.7c1.1,0,2-0.3,2.6-1c0.6-0.7,0.9-1.6,0.9-2.8c0-1.2-0.3-2-0.9-2.7
			c-0.6-0.6-1.5-0.9-2.6-0.9H367v7.4H371.7z"/>
		<path class="st0" d="M395.7,27c0.8,0.8,1.3,1.9,1.3,3.2c0,1.4-0.4,2.4-1.3,3.3s-1.9,1.3-3.3,1.3c-1.3,0-2.4-0.4-3.2-1.3
			s-1.3-1.9-1.3-3.3c0-1.3,0.4-2.4,1.3-3.2c0.8-0.8,1.9-1.3,3.2-1.3C393.7,25.8,394.8,26.2,395.7,27z"/>
	</g>
</g>
</svg>
