<?xml version="1.0" encoding="utf-8"?>
<!-- Generator: Adobe Illustrator 19.2.0, SVG Export Plug-In . SVG Version: 6.00 Build 0)  -->
<svg version="1.1" id="Layer_1" xmlns="http://www.w3.org/2000/svg" xmlns:xlink="http://www.w3.org/1999/xlink" x="0px" y="0px"
	 viewBox="0 0 1380 25" style="enable-background:new 0 0 1380 25;" xml:space="preserve" preserveAspectRatio="none">
<style type="text/css">
	.st0{fill:#FFFFFF;}
</style>
<g>
	<path class="st0" d="M192.9,25H206c-1.6,0-2.8-0.3-2.9-0.4C202.9,24.5,195.6,25,192.9,25z"/>
	<path class="st0" d="M48.5,18.9c-0.7,0.1-1.2,0.1-1.4,0.2c0.1,0,0.4,0,0.8,0C48.2,19.1,48.5,19,48.5,18.9
		C48.6,18.9,48.6,18.9,48.5,18.9C48.5,18.9,48.5,18.9,48.5,18.9z"/>
	<path class="st0" d="M1366.6,2.3c0.6,0.2,7.1,0.1,13.4,0V0c-8.1,0-14.9,0-14.9,0c-6.3,0-13.8,0.6-14.6,0.7c-0.8,0.2-2.6,0-3-0.1
		c-0.4-0.1-1.6,0.1-1.8,0.1c-0.2,0.1-2.4-0.3-3.1-0.4s-1.5,0.2-1.6,0.4c-0.1,0.1-3.4,0.3-7.4,0.3c0,0,0,0-3.6,0c-27,0-54-0.1-81,0
		c-2.1,0-4.2,0.3-6.2,0.2c-3.9-0.2-7.6-0.3-11.5,0.2c-1.4,0.2-1.4,0-1.4,0c-2.2-0.3-5.4-0.4-7.4-0.4c0,0,0,0-1.8,0
		c-26.8,0-53.6,0-80.4,0c-2,0-3.9,0-6,0.5c-1.1,0.3-1.1,0.4-1.1,0.4c-2.5-0.3-6.6-0.4-9.2-0.3c0,0,0,0-2.5,0.1
		c-2.3,0.1-4.7,0.3-7,0.3c-2.5,0-2.5,0-2.5,0c-3,0-7.3,0-9.4,0.3c0,0,0,0-2-0.4c-2.2-0.4-4.8-0.5-6.5-0.2c-1.9,0.3-3.6,0.3-5.4,0.3
		c-2.9,0-5.9,0.1-8.8-0.4c-2.5-0.4-5,0.3-7.6,0.4c-1.8,0-3.5,0-5.3,0.4c-1.7,0.4-3.4-0.3-5.2-0.4c-0.4,0-1-0.1-1.1,0
		c-1.7,0.7-3.9,0.3-5.9,0.4c-2.7,0.2-5.4-0.3-8.4-0.1c-2.9,0.2-6.1,0-9.3,0.1c-1.1,0-2.6-0.1-3.3,0.1c-1.7,0.5-2.8,0.1-4.4,0
		c-3.8-0.2-3.8-0.2-3.8-0.2c-3.9,0.2-18-0.1-21.9,0.2c-3.9,0.3-11,0.1-12.7,0.3c-1.7,0.2-5.3,0.2-5.7,0.2C984.8,3.2,983.3,3,982,3
		c0,0,0,0-1,0c-4.8,0-9.7,0.2-14.6,0.3c-2.3,0.1-4.6-0.1-6.9-0.1c-2.5,0-5.3-0.3-7.5,0.1c-2.3,0.4-4-0.3-6-0.1
		c-2.2,0.3-4.6,0.4-7,0.4c-2.3,0.1-4.6,0-6.9,0c-2.3,0-5.2,0.3-6.7-0.1c-2-0.5-2-0.5-2-0.5c-2,0.1-8.8,0-15.1-0.1c0,0-0.9,0-7.1,0.7
		c-1.3,0.2-1.3,0.2-1.3,0.2c-2-0.3-5.4-0.2-5.7-0.3c-0.3-0.1-1.9,0-3.6,0c0,0,0,0-1.2,0.1c-1.4,0.1-1.4,0.1-1.4,0.1
		c-1.3,0.1-8.5-0.2-10.6,0c-2.1,0.2-4.4,0.2-4.5,0.1c-0.1-0.1-5.3,0.2-7,0.3c-1.8,0.1-3.6-0.2-3.8-0.4c-0.2-0.2-2.3,0.3-2.8,0.4
		c-0.6,0.2-2.7,0.3-3.2,0.3c-0.5,0-2.2-0.4-2.6-0.6c-0.5-0.2-3.6-0.5-4.6-0.5c-1,0-3.1-0.3-4.6-0.3c0,0,0,0-1.3,0C841,3,841,3,841,3
		c-1.6,0-3.2,0.7-3.3,1c-0.1,0.3-1.6-0.2-2-0.5c-0.4-0.2-5.9-0.7-8-0.7c-2-0.1-4.7,0.2-6,0.2c0,0,0,0-1,0c-4.4,0-8.9,0-13.3,0
		c-1,0-1,0-1,0c-1,0-1.9,0.3-1.9,0.3c0,0.1,3.2,0.1,4.4,0.1s1.6,0.6,1.3,0.8c-0.2,0.2,2.2,0.4,3.1,0.4s2.1-0.3,2.4-0.5
		c0.3-0.2,0.6-0.1,0.6-0.1c0,0.1,3.1,1,6.7,1c-15.1,0-31,0-31,0c-6.3,0-13.7,0.3-16.2,0.3c0,0,0,0.1-2.5-0.3
		c-1.9-0.3-4.9,0.2-7.5,0.4c-2,0.2-3.4-0.4-5.3-0.4c-6.8,0-13.6,0.1-20.3-0.4c-2-0.2-2,0-2,0c-2.4,0.3-6.6,0.4-9.5,0.4
		c0,0,0,0-2.5,0c-2.7,0-5-0.6-7.7-0.6c-3.4-0.1-6.9-0.1-10.4-0.1c-3.6,0-7.4,0.1-11,0c-3.3-0.1-6.6-0.3-10-0.4
		c-10.5-0.2-20.8,0.2-31.3-0.4c-9.2-0.5-18.6,0.2-27.8-0.5c-2.4-0.2-5,0-7.5,0c-2.3,0-4.8,0.2-6.8-0.1c-2.4-0.3-4.4,0.2-6.6,0.1
		c-2.3-0.1-4.6-0.3-6.9-0.3C598,2.6,595.8,2,593.7,2c-10.8,0-20.8,0-20.8,0c-6.3,0-16.8,0.4-23.2,0.5c0,0-9.8,0.3-20.3-0.5
		c-1.8-0.1-3.8,0-5.7,0.1c-2,0.1-3.9,0.3-5.8,0.4c-3.2,0.2-6.2-0.4-9.4-0.4c-5-0.1-5-0.1-5-0.1c-5.8,0-11.3,0.5-11.6,0.7
		c-0.3,0.2-3.1-0.1-4-0.3c-0.9-0.2-4.5-0.3-5.8-0.3s-3.7,0.5-4.2,0.7c-0.5,0.2-4.6-0.5-6-0.4c-1.4,0.1-6.2,0.7-7.4,0.5
		c-1.1-0.2-3.2,0-3.7,0.2c-0.5,0.2-1.3-0.4-1.4-0.6C459,2.4,458.3,2,457.6,2c0,0,0,0-0.7,0c-7.1,0-14.3,0.2-21.3,0.3
		c-7.1,0.1-14.3,0.1-21.5,0.5c-10.4,0.5-19.7,0.5-19.7,0.5c-6.3,0-16.8,0-23.2-0.1c0,0-4.2-0.1-12.3,0.4C351.4,4.1,343.7,4,336.1,4
		c-1.4,0-1.4,0-1.4,0c-1.6,0-3.8,0.2-5,0c0,0,0,0.1-0.7,0.2c-3.8,0.7-7.9,0.3-11.7,0.4c-5.4,0.1-11-0.3-16.3,0.4
		c-1.9,0.2-1.9,0.2-1.9,0.2c-2.2,0.1-20-0.4-26.1-0.2C267,5.3,260.4,5,258.5,5c0,0,0,0-1.7,0c-1.9,0-3.8,0-5.7,0
		c-1.7,0-3.7,0.3-5.1,0.5c-1.5,0.3-1.5,0.5-1.5,0.5c-1.6,0-14.2,0.1-18.4,0.3c-4.2,0.2-12.9,0.4-19.2,0.5c0,0-5.5-0.2-14,0
		C190,7,187.3,7,184.5,7C184,7,184,7,184,7c-0.6,0-4.7,0-6.2,0c-1.4,0-4.7,1-7.5,1c0,0,0,0-2.3,0c-1.5,0-2.8,0-4.2,0
		c-4.2,0-8.5,0.1-12.7,0c-4.4-0.1-8.5,0.5-12.8,0.5c-2.5,0-5-0.1-7.6,0c-6.3,0.2-7.7,0.2-7.7,0.2c-6.3,0.1-12.9,0.2-13.5,0
		c-0.6-0.1-2.6,0.5-3.6,0.6c-1,0-0.4,0.2,0.2,0.3c0.5,0.1,6.9,0,9.3-0.1c2.3,0,6.8,0.3,7.8,0.2c0.9-0.2,5.2-0.1,9.6,0.1
		c0,0,0,0.2,3.7,0.2c1.4,0,1.4,0,1.4,0c1.5-1,2.8-1,3-1c0,0,0,0,0.1,0c0.3,0,0.6,1,0.8,1c8.7,0,17.3,0,26,0c1.5,0,3,0,4.1-1
		c0.1,0,0.1,0,0.1,0c-0.1,0,5.9,0.7,8.1,0.6c2.1-0.1,9.7-0.4,12.1-0.5c2.3-0.1,4.4-0.1,4.5,0c0.2,0.1,3.3-0.1,7-0.4c0,0,0,0,3.3-0.1
		c2.5,0,5.5-0.1,7.7,0.3c3,0.6,5.3-0.1,7.9-0.1c6,0,11.9-0.7,18-0.5c1.8,0.1,4.4,0.2,5.4-0.2c2-0.7,2-0.6,2-0.6
		c1.9,0.3,5,0.5,7.1,0.5c0,0,0,0,1.9,0c1.6,0,1.6,0,1.6,0c1.5,0,5.2-0.1,8.2-0.4c0,0,0,0,2.6-0.1c3.7-0.1,3.7-0.1,3.7-0.1
		c4.1-0.1,15.2-0.6,18.2-0.6c3,0,8.3-0.1,9.4,0c1.1,0.1,5.2,0.5,6.6,0.3c1.3-0.2,15-0.6,19.8-0.7c4.8-0.1,13.9-0.1,20.2,0
		c0,0,4.2,0,12.3-0.5c5.2-0.4,10.8-0.2,16.1,0c5.5,0.1,10.9-0.7,16.3-0.6c2.5,0,5-0.2,7.6-0.2s5,0,7.6,0c2.3,0,4.6,0.2,6.9,0.2
		c2.4-0.1,2.4-0.2,2.4-0.2c2.6-0.1,6.8-0.1,9.4-0.1c0,0,0,0,2.3,0c5.5,0,5.5,0,5.5,0c5.9,0,12,0.6,12.4,0.7c0.4,0.1-1.7,0.3-2.5,0.3
		s-3.6-0.1-6.3-0.3c0,0,0,0-2.3,0.5c-3.2,0.7-3.2,0.7-3.2,0.7c-3.4-0.4-8.4-0.3-9.1-0.1C422,7,418.1,7.1,414,7.1c0,0,0,0-3.7,0.3
		c-4.6,0.3-4.6,0.3-4.6,0.3c-5.2-0.1-10-0.5-10.2-0.7c-0.1-0.1-3.2,0-6.9,0c0,0,0,0-3.3,0C382,7,382,7,382,7c-3.2,0-6.1,0.2-6.2,0
		c-0.1-0.1-2.8-0.4-6-0.5c0,0,0,0-2.9,0.6c-2,0.4-2,0.4-2,0.4c-2.7,0-10.3-0.5-12.3-0.4c-2,0-5.2,0.6-5.8,0.8C346,8,342.5,8,339,7.8
		c0,0,0,0-3.2,0.2c-1.9,0.1-1.9,0.1-1.9,0.1c-1.8,0.4-4.3,0.6-4.5,0.5c-0.2-0.1-1.8-0.6-3.7,0.4c0,0,0,0-1.4,0
		c-2.3,0-2.3-0.1-2.3-0.1c-2.4,0-7.7,0.1-8.7-0.1c-1-0.1-7.7,0.1-10,0.1c-2.3,0-12.4,0-15.4,0c-3.1,0-5-0.1-4.8-0.3
		c0.2-0.1-2.4-0.2-5.7-0.3c0,0,0,0.1-2.6,0.4c-4.3,0.4-8.7,0.3-13,0.5c-3,0.1-6.1-0.2-9.3-0.2c-1.4,0-1.4,0-1.4,0
		c-1.5,1-4.3,0.4-6.1,0.1c0,0,0,0.1-1.7,0.4c-2.9,0.5-2.9,0.6-2.9,0.6c-2.6-0.3-7.1-0.5-10-0.5c0,0,0,0-1.8,0.3
		c-2.2,0.4-4.1,0.4-6.3,0.1c-0.3,0-0.9,0-1.2,0.1c-2.2,0.5-4.8-0.2-7,0.4c-2.3,0.7-2.3,0.7-2.3,0.7c-2.6-0.5-6-0.4-6.6-0.2
		c-0.6,0.2-3.1-0.1-5.6-0.1c0,0,0,0-2.4,0c-2.5,0-5-0.2-7.6-0.1c-2.3,0.1-2.3,0-2.3,0c-2.6,0.2-5.3,0.1-5.5,0c-0.3-0.1-3.2,0-4.4,0
		c-1.2,0-3.2-0.1-4.7-0.2c0,0,0,0-1.3,0.1c-1.9,0.1-1.9,0.1-1.9,0.1c-2,0.3-7.1,0.5-8.5,0.3s-2.8-0.1-3.4-0.1c0,0,0,0-0.5,0
		c-4.7,0-4.7,0.1-4.7,0.1c-5,0.4-14.4,0.9-20.7,0.9H97.6c-6.3,0-16.7-0.1-23.1-0.3c0,0-2.4-0.1-9.4,0.7c-1.7,0.2-3.8-0.3-5.8-0.4
		c-5-0.1-10.1,0-15,0c-4.8-0.1-9.7-0.3-14.6-0.4c-7-0.1-14.3,0.3-21-0.8c-0.5-0.1-0.5-0.1-0.5-0.1c-0.7,0.1-1.7,0.3-2.3,0.3
		c-0.6,0.1-2.3,0-2.3-0.1c0-0.1,1.6-0.2,2.2-0.2s1.1,0.1,1.1,0.1S7.4,10,8.1,10c-1.3,0-1.3,0-1.3,0c-2.8,0-5.7,0.4-5.9,0.6
		c-0.1,0.1,0.2,0-0.8,0V19h0.4c2,0,3.7-0.4,5.5-0.3c2.1,0.1,2.2,0,2.2,0c2.2,0.1,5.7,0,6.3,0c0.6-0.1,6.2,0.1,12.5,0.3
		c0,0,4.7,0.1,12.9-0.1c0.4,0,0.9,0.2,1.4,0.2c0.2,0,0.2,0,0.2,0c0.3,0,0.6-0.3,0.6-0.3c0-0.1-1.2-0.3-1.7-0.3
		c-0.5,0,1.2-0.3,1.9-0.4c0.7-0.1,0.5-0.7,0.3-0.8c-0.2-0.2,4.7-0.3,11.1-0.3c0,0,1.2,0,7.6,0c0.1,0,0.1,0,0.1,0
		c0.2,0,0.3,0.4,0.3,0.5c0,0.1-7.6-0.1-10.3-0.2s-6.1,0.3-6.5,0.4c-0.3,0.1,2.2,0.7,3.2,0.8c0.5,0.1,0.6,0.4,0.5,0.4
		c0,0,0.1,0,0.1,0c0,0,0,0,0,0c0.5,0,1.1,0.1,1.7,0.1c0,0,0,0,1.7,0c1.7,0,1.7,0,1.7,0c1.9,0,3.3,0.6,3.2,0.7c0,0.1-6.3-0.1-10.1,0
		c-3.6,0.1-3.7,0.6-2.7,0.8c1,0.2-2.7,0.3-4.1,0.3c-1.5,0-1.4-0.5-1.1-0.7c0.4-0.2-8-0.7-11.3-0.7c-3.3,0-3.4,0.2-2.7,0.3
		c0.7,0.1-5.9,0.7-8.5,0.5c-2.5-0.2-1.9,0.1-0.7,0.4c1.2,0.2-1.1,1-5,1.6c0,0,0,0-2.6-0.5C5.6,21.2,3,21.2,1,21.4v1.8
		c2-0.1,2.6-0.2,2.7-0.3c0.3-0.1,1.7,0.3,1.9,0.3C5.8,23.3,7.1,23,8.4,23c0,0,0,0,1,0c2.7,0,2.7,0,2.7,0c3,0,9.5,0.3,11.2,0.2
		c1.7-0.1,5.3-0.4,8.1-0.4c0,0,0-0.1,2.5-0.2C46,22.3,58.2,23,70.4,23c1,0,1,0,1,0c1.1,0,3.2,0.2,4.6-0.2c0,0,0,0,1.9,0.5
		c1,0.2,2.5,0.2,3.7,0.3c1.4,0.1,1.4,0.1,1.4,0.1c1.5,0.1,5.5,0.1,9-0.1c0,0,0,0,3.1-0.1c6.6-0.1,13.1,0.6,19.7,0.5
		c3-0.1,3-0.1,3-0.1c2.9-0.2,6,0.1,7,0.1c0,0,0,0,0.8,0c2.3,0,2.3-0.1,2.3-0.1c2.6-0.2,8.1-0.2,12.1-0.1c0,0,0,0.2,3.7,0.2
		c0.3,0,0.3,0,0.3,0c0.4,0,0.3-0.4,0.1-0.5c-0.2-0.1,0-0.3,0.1-0.3c0,0-0.4-0.5-0.6-0.7s-1.2,0-1.3,0c-0.1,0-2.4-0.3-3.2-0.5
		c-0.8-0.1-2.5,0-2.8,0.1c-0.3,0.1-0.8-0.4-0.8-0.5c-0.1-0.1-2.7-0.2-3.6-0.2s-2.1,0.4-2.3,0.6c-0.2,0.2-0.9-0.3-1-0.4
		c-0.1-0.1-0.9-0.2-1.2-0.2c-0.2,0-1,0.5-1.3,0.7c-0.3,0.2-0.5-0.6-0.5-0.9c0-0.3,15-0.5,20.6-0.5c5.7,0,10.2,0.4,10.2,0.5
		c0,0.1-3.1,0.2-4.2,0.2s-3,0.4-3.3,0.5c-0.4,0.1,3.6,0.3,5.2,0.4c1.5,0,2.3,0.5,2.2,0.7c-0.1,0.1-2-0.1-2.6-0.2
		c-0.6-0.1-1.7,0.3-1.9,0.4c-0.2,0.1-1.1,0.1-1.4,0c-0.3-0.1-0.5,0.3-0.5,0.4c0,0.1,3,0.6,4.1,0.6c1.1,0,4.6,0.5,5.7,0.4
		c1.1-0.2,4.7-1.2,5.9-1c1.3,0.2,4.5,0.3,7.3,0.3c0,0,0,0,2.5,0c0.7,0,0.7,0,0.7,0c0.8,0,1.1-0.5,1-0.7c-0.1-0.1-3.6,0.1-4.9,0.1
		s-2.9-0.1-3.2-0.2c-0.2-0.1-2.3,0.1-2.9,0.2c-0.6,0.1-3.3-0.5-3.9-0.7c-0.7-0.2-0.4-0.9-0.1-1.1c0.3-0.2-1.6-0.3-2.1-0.3
		c-0.5,0-0.9-0.5-0.9-0.6c0-0.1,1.7,0.4,3.8-0.6c0,0,0,0,1.8,0c2.2,0,2.2,0,2.2,0c2.3,0,7.5-0.3,8.4,0c0.9,0.2,2.9,0.6,4.5,0.6
		c0,0,0,0,1.6-0.4c1-0.2,1-0.2,1-0.2c2.8,0.3,5.5,0.1,5.6-0.1c0.2-0.2,1.6,0,3.3,0c0,0,0,0,1.2,0c1,0,1,0,1,0c1.2,0,3.2,0,4.4,0
		c0,0,0,0,1.2,0c1.2,0,2.3,0.3,3.5,0.3c1.5,0,3.1,0,4.4-0.2c4.8-0.6,4.8-0.6,4.8-0.6c5.4,0.2,10.7,1.1,11.3,1.3
		c0.6,0.2-4.7,0.4-7,0.4s-4,0.5-4,0.6c0,0.1,4,0.2,5.4,0.2c1.4,0,5.8-0.4,6.8-0.2c1,0.2,2.4,0.1,2.6,0c0.2-0.1,2.4,0.5,3.1,0.6
		c0.7,0.1-3.5-0.3-9.6,0.7c0,0,0,0-5.3,0c-2.5,0-2.5,0-2.5,0c-2.3-1-4.4-1.3-4.4-1.4c-0.1-0.1-2.3-0.3-3-0.2c-0.8,0-1.4,0-1.4,0.1
		c0,0,1.7,0.2,2.4,0.3c0.7,0.1,0.9,0.5,0.8,0.6c-0.1,0.1-2.7-0.1-3.6-0.2c-0.9-0.1-2-0.6-2.2-0.7c-0.1-0.2-1.5,0-1.8,0
		c-0.3,0.1-2.2,0-2.8,0c-0.5,0-0.9,0.3-0.9,0.4c0,0.1,1.5,0.3,2.2,0.3c0.6,0,0.1,0.8-0.3,1.1c-0.4,0.3,1.4,0.5,4.1,0.4
		c0,0,0,0,2.2,0.1c1.8,0.1,3.5,0.1,5.4,0c2.2-0.1,5-0.3,6.6,0.1c2.1,0.5,2.1,0.6,2.1,0.6c1.9,0-2.1,0.6-5.5,0.6h-6.6
		c1.2,0,2.7,0.1,4.2,0.1c0.7,0,1.6-0.1,2.5-0.1H1380V3.3c-1.2,0.1-5.4-0.2-7.6-0.2c-2.3,0.1-8.8,0.2-9.3,0.1
		c-0.6-0.1-1.2-0.3-0.2-0.3C1363.9,2.8,1366,2.2,1366.6,2.3z M3.1,17.2c-0.4,0-1.5-0.1-1.5-0.1C1.6,17,2.7,17,3.1,17
		s0.8,0.1,0.8,0.1S3.6,17.2,3.1,17.2z M37.9,18.5c-0.4,0-1.5-0.1-1.5-0.1s1.1-0.1,1.5-0.1s0.8,0.1,0.8,0.1S38.3,18.5,37.9,18.5z
		 M32.3,17.5c-3.5-0.2-9.6,0.2-10.8,0c-1.2-0.1-6.5,0.1-8.2,0.2c-1.6,0.1-5-0.1-6-0.2c-0.9,0,0.5-0.7,3.2-1.4c0,0,0,0,2,0.5
		c2.4,0.6,2.4,0.6,2.4,0.6c1.7-0.4,4-0.5,4.3-0.4c0.3,0.1,1.3,0,2.2-0.2c0,0,0,0,0.8-0.1c1.1-0.1,1.1-0.1,1.1-0.1
		c1.2,0,6.7,0.9,8.6,0.8c1.8-0.1,3.9-0.2,4.7-0.2s2.9,0.2,2.9,0.3C39.7,17.4,35.8,17.7,32.3,17.5z M22.1,21.4
		c-0.4,0-0.8-0.1-0.8-0.1s0.3-0.1,0.8-0.1c0.5,0,1.5,0.1,1.5,0.1S22.5,21.4,22.1,21.4z M27.6,22c-0.1,0-0.1-0.1-0.1-0.1
		c0-0.1,0.2-0.3,0.3-0.3c0.1,0,0.1,0.2,0.1,0.3C27.8,21.9,27.6,22,27.6,22z M29.7,20.6c-0.8,0-1.5-0.1-1.5-0.1s0.7-0.1,1.5-0.1
		c0.8,0,3.1,0.1,3.1,0.1S30.6,20.6,29.7,20.6z M54.1,21c-0.2-0.1-0.1-0.2-0.1-0.2c0.1,0,0.5,0.1,0.8,0.3C54.7,21.1,54.2,21,54.1,21z
		 M55,21.3c-0.1,0-0.1-0.1-0.1-0.1c0.1,0,0.2,0,0.3,0.1c0.2,0,0.6,0.2,0.5,0.2C55.6,21.5,55.1,21.3,55,21.3z M63.5,17.3
		c0.1,0,0.1,0.1,0.1,0.1c0,0.1-0.2,0.3-0.3,0.3c-0.1,0-0.1-0.2-0.1-0.3C63.2,17.4,63.4,17.3,63.5,17.3z M68.1,20.4
		c-0.4-0.1-1.6,0.1-2,0.2c-0.4,0.1-1.3,0-1.9-0.2c0,0,0,0-0.8-0.1s-0.8-0.1-0.8-0.1c-1,0,2.5-0.5,4.1-0.4c1.6,0,3,0.2,3,0.3
		C69.7,20.2,68.6,20.4,68.1,20.4z M72,20.5c-0.2,0.1-0.3,0-0.1-0.2c0.2-0.1,1.4-0.1,1.4,0C73.4,20.4,72.3,20.5,72,20.5z M89.4,19.6
		c-0.4,0.1-0.7-0.4-0.7-0.7c-0.1-0.2,0.2-0.3,0.6-0.2S89.8,19.5,89.4,19.6z M136.4,16.5c1.4,0,2.6,0.2,2.6,0.3
		c0,0.1-1.1,0.4-2.5,0.8c-1.4,0.3-5.2-0.8-5.2-0.8C131.3,16.7,135,16.5,136.4,16.5z M127.2,16.9c0.1,0,0.1,0.1,0.1,0.1
		c0,0.1-0.2,0.3-0.3,0.3c-0.1,0-0.1-0.2-0.1-0.3C126.9,17,127.1,16.9,127.2,16.9z M124.9,16.5c0.1,0,0.1,0.2,0.1,0.3
		c0,0.1-0.2,0.1-0.4,0C124.6,16.7,124.8,16.5,124.9,16.5z M122.6,16.5c0.1,0,0.1,0.2,0.1,0.3c0,0.1-0.2,0.1-0.4,0
		C122.3,16.7,122.5,16.5,122.6,16.5z M100.6,16.9c0.1,0,0.1,0.1,0.1,0.1c0,0.1-0.2,0.3-0.3,0.3c-0.1,0-0.1-0.2-0.1-0.3
		C100.3,17,100.5,16.9,100.6,16.9z M137.9,18.9c0,0,0,0-2.8,0.1c-2.3,0-4.7-0.2-7,0.4c-1.3,0.3-1.3,0.3-1.3,0.3
		c-2.2-0.1-5.2-0.2-6.7-0.1c0,0,0-0.2-1.5-0.3c-1.6-0.1-3.4-0.3-5.1-0.3c-1.9,0-3.8,0-5.7,0c-1.7,0-3.4,0-5.1,0s-3.4,0.2-5.1,0.2
		c-0.4,0-0.4,0.1-0.4,0.1c-0.5,0.2-2.2,0.2-2.7,0C93.3,19.1,93.3,19,94,19c0,0,0,0,0.5,0c2.5,0,2.5-0.3,2.5-0.3
		c2.8-0.2,5.7-0.3,6.6-0.1c0,0,0-0.1,0.8,0c1.7,0.3,3.1-0.4,4.9-0.2c1.5,0.2,3.1,0,4.7,0c1.6-0.1,1.6-0.1,1.6-0.1
		c1.9-0.1,4.8-0.1,6.4,0c0,0,0,0,1.5,0.2c1.4,0.2,3.5,0.3,5.4-0.2c1.1-0.3,2.9-0.2,4.3-0.2c1.8,0.1,3.5,0.3,5.3,0.4
		c1.6,0.1,1.6,0.1,1.6,0.1c1.8,0,3.2,0.1,3.2,0.2C143.6,18.9,141,18.9,137.9,18.9z M144.2,16.8c-0.3,0-1.3-0.1-1.3-0.1
		s0.9-0.1,1.2-0.2c0.3,0,0.7,0.1,0.7,0.2S144.6,16.8,144.2,16.8z M150,18.9c-0.4,0-1.5-0.1-1.5-0.1s1.1-0.1,1.5-0.1s0.8,0.1,0.8,0.1
		S150.4,18.9,150,18.9z M154.9,17c-2.4,0-2.4,0-2.4,0c-2.7,0-4.9-0.3-4.9-0.3c0-0.1,1.1-0.1,2.5-0.1c1.4,0,5.1,0.4,4.9,0.4
		C155,17,155,17,154.9,17z M163.2,17c3.8-1,7.3-1,11.2,0C170.2,17,166.9,17,163.2,17z M200.9,16.4c-0.3,0-1.3-0.1-1.3-0.1
		c-0.1-0.1,0.9-0.2,1.2-0.2c0.4,0,0.7,0.1,0.7,0.2C201.5,16.4,201.2,16.4,200.9,16.4z M204.5,16.5c-0.8,0-1.4-0.1-1.4-0.2
		c0-0.1,0.6-0.2,1.4-0.2s2.8,0.1,2.8,0.2C207.3,16.3,205.3,16.4,204.5,16.5z M209.5,16.3c-0.2,0-0.8-0.1-0.8-0.1
		S209.3,16.2,209.5,16.3c0.2-0.1,0.4,0,0.4,0S209.7,16.3,209.5,16.3z M212.6,16.5c-0.1,0-0.1-0.1-0.1-0.1c0-0.1,0.2-0.3,0.3-0.3
		c0.1,0,0.1,0.2,0.1,0.3C212.9,16.5,212.7,16.5,212.6,16.5z M218.3,16.4c-1.5,0-2.7-0.1-2.7-0.1c0-0.1,1.2-0.1,2.7-0.1
		c1.5,0,5.4,0.1,5.4,0.1S219.8,16.4,218.3,16.4z M226.4,20.6c0-0.1,0.2-0.3,0.3-0.3c0.1,0,0.1,0.2,0.1,0.3
		C226.8,20.7,226.6,20.7,226.4,20.6z M227.6,16.5c-0.1,0-0.1-0.2-0.1-0.3c0.1-0.1,0.3-0.1,0.3-0.1c0.1,0,0.1,0.1,0.1,0.1
		C227.9,16.3,227.7,16.5,227.6,16.5z M200.2,23.1c-0.2,0-0.8-0.1-0.8-0.1S200,23,200.2,23.1c0.2-0.1,0.4,0,0.4,0
		S200.4,23.1,200.2,23.1z M274.2,15.2c0.7-0.1-0.4,0.6-0.8,0.7s-0.8,0.1-0.9,0C272.4,15.8,273.5,15.3,274.2,15.2z M262.6,15
		c0,0,0,0,1.6,0c1.5,0,1.5,0,1.5,0c1.9,1,2.1,0.8,0.4,0.9s-6.3,0.1-6.5-0.1C259.4,15.7,260.7,16,262.6,15z M249.3,15.7
		c1.2-0.1,5.7,0,6.4,0.2c0.8,0.2-2.9,0.5-4.9,0.3C248.8,16,248.1,15.8,249.3,15.7z M244,16.1c0.1,0,0.1,0.2,0.1,0.3
		c0,0.1-0.2,0.1-0.3,0.1c-0.1,0-0.1-0.1-0.1-0.1C243.8,16.3,243.9,16.1,244,16.1z M240.6,16.1c0.1,0,0.1,0.1,0.1,0.1
		c0,0.1-0.2,0.3-0.3,0.3c-0.1,0-0.1-0.2-0.1-0.3C240.3,16.1,240.5,16.1,240.6,16.1z M234.9,20.9c0,0,0,0,1.7-0.3
		c2.2-0.3,2.2-0.3,2.2-0.3c2,0.2,5.4,0.2,7.7,0c0,0,0,0,2-0.1c2-0.1,2-0.1,2-0.1c2.3,0,4.1,0.2,4.1,0.3s-1,0.1-2.2,0.1
		c0,0,0,0-1.1,0.1c-0.8,0.1-0.8,0.1-0.8,0.1c-0.9,0.2-2.5,0.2-2.8,0.1c-0.3-0.1-8.6,0.6-11.6,0.5c-3-0.1-5.5-0.4-5.5-0.5
		C230.6,20.8,232.5,20.8,234.9,20.9z M295.7,23c-2.2,0.1-8.4-0.3-8.5-0.1c-0.1,0.1-3.4,1.1-7.4,1.1c0,0,0,0-4.1,0c-10,0-19,0-19,0
		c-6.3,0-7.9-0.6-6.5-0.6s0.2-0.2-0.6-0.3c-0.8-0.1-7.4,0.5-10,0.4c-2.6-0.1-2.7,0.3-2.1,0.4s2.1,0,2.5,0c0.4-0.1,0.9,0.2,0.9,0.4
		c0,0.1-8.4,0.2-11.5,0.2c-3.2,0-2.9-0.6-1.8-0.8c1.1-0.3,3.5-0.3,4.3-0.2s2-0.2,2.1-0.4c0.2-0.1,1.5-0.5,2.1-0.6s4.3-0.1,5.6,0
		c1.3,0.1,4.5,0,5.3-0.1c0.8-0.1,15-0.1,20.2-0.1s14.3-0.3,20.1-0.6c0,0,0,0,5.5,0.2c2.4,0.1,2.4,0.1,2.4,0.1
		C297.8,22.5,297.9,22.9,295.7,23z M448.3,18.7c1.3,0,2.2,0.1,1.9,0.2c-0.3,0.1-1.9,0.3-2.7,0.2c0,0,0,0-0.9-0.1c-1-0.1-1-0.1-1-0.1
		C444.5,18.8,446.9,18.7,448.3,18.7z M456,21c-0.1,0-0.3,0-0.4,0c-6.2,0-7.3,0-7.3,0c-6.3,0-11.6-0.2-11.6-0.2
		c0-0.1,2.9-0.1,6.4-0.1s12.9,0.2,12.9,0.2S456.1,21,456,21z M455.1,18.9c-0.6,0-2.3-0.1-2.3-0.1c0-0.1,1.7-0.1,2.3-0.1
		s1.1,0.1,1.1,0.1S455.7,18.9,455.1,18.9z M510.1,20.4c-0.8,0-1.8-0.4-2-0.5c-0.2-0.2-1.8-0.3-2.4-0.3c-0.7,0-0.3,0.4-0.1,0.5
		c0.2,0.1-6.2,0.5-8.7,0.6c-2.5,0.1-4.6,0.1-4.6,0c0-0.1,1-0.1,2.2-0.2c0,0,0,0,0.7-0.2c0.5-0.2,0.9-0.2,1.4-0.3c-4.5,0-9,0-13.5,0
		c2.3,0,4.1,0.3,4.1,0.4c0,0-4.3,0.4-9.7,0.6c0,0,0,0-4.8,0.1c-4.7,0.1-4.7,0.1-4.7,0.1c-2.4-0.1-4.1-0.2-5.1-0.2c0,0,0.1,0,1.6-0.3
		c1.8-0.3,3.5-0.4,5.3-0.4c2,0,4,0.1,6,0.1c1.7,0,3.4-0.3,5.1-0.3c-2.4,0-4.9,0-7.4,0c-1.6,0-1.6,0-1.6,0c-2.1-1-3.9-0.6-4.1-0.5
		c-0.2,0.1-2.1,0-2.6-0.1c-0.5-0.1-1.8-0.1-2.3,0c-0.4,0.1-2.4-0.1-3-0.2s-1.1-0.3-1.1-0.4s0-0.1,0.2-0.2c1.8-0.3,3.7-0.5,5.8-0.5
		c5.1,0.1,5.1,0.1,5.1,0.1c5.7,0.1,8.3,0.4,7.5,0.4c-0.8,0,4.3,0.5,6.4,0.5c2.2,0,5.9-0.6,6.6-0.8c0.8-0.2,6.4-0.2,8.8-0.1
		c2.2,0.1,4.9,0.5,5.3,0.6c0.4,0.1,3.4,0.3,4.5,0.3s3,0.5,3.5,0.7C513.3,20,511,20.3,510.1,20.4z M536.3,19c-0.9,0-1.1,0.3-0.9,0.4
		c0.1,0.1-4.8,0.4-6.5,0.3c-1.7-0.2-4.8-0.3-6.9-0.2c-2.1,0.1-7.7,0.2-7.8,0.2c0,0,1.4-0.5,2-0.7c0.6-0.2,1.7,0,2.1,0.1
		c0.4,0.2,3.6-0.4,4.6-0.6c1.1-0.2,2.6,0,2.8,0.2c0.2,0.2,1-0.1,1.2-0.3c0.2-0.2,1,0,1.3,0.1c0.3,0.1,5.7-0.8,7.7-0.4
		C537.8,18.5,537.2,19,536.3,19z M566.9,6.6c0,0,0-0.1,0.9-0.2c1-0.1,1-0.1,1-0.1c1.2-0.2,2.4-0.3,2.7-0.2c0.3,0.1,2.2,0.2,2.4,0.1
		c0.2,0,6.1,0.1,8.1,0.2c1.9,0.1,3.6,0.4,3.7,0.4c-0.1,0.1-0.3,0.3-0.4,0.3c-6.6,0-8.7,0-8.7,0C570.3,7,565.9,6.7,566.9,6.6z
		 M552,19.3c-0.4,0.1-2-0.3-2-0.4c0.1-0.2,1.1-0.1,2,0.2c0.2,0.1,0.3,0.1,0.5,0.1C552.4,19.3,552.2,19.3,552,19.3z M557.1,19.7
		c0,0,0,0.2-3.1-0.8c0.2-0.1,0.4-0.2,0.6-0.2c0.4-0.1,1,0.2,1.2,0.3c0.1,0.2,2.1,0.2,2.8,0.2C559.3,19.3,558.7,19.4,557.1,19.7z
		 M589.5,19.9c-0.4,0.2-4,0.3-8.2,0.4c0,0,0,0.2-3.9-0.4c-2.3-0.3-5.3,0.1-8,0.1c-1.8,0-1.8,0-1.8,0c-1.2,0-2.3-0.2-3-0.3
		c0.4,0,0.9-0.1,1.2-0.2c0.6,0,1.4-0.5,1.6-0.7c0.2-0.2,3.3-0.2,4.4-0.1c1.2,0,2.2-0.2,2.3-0.3c0.1-0.1,0.4-0.5,0.8-0.5
		c0,0,0,0,0.3,0c2.1,0,2.1,0.1,2.1,0.1c2.4,0.1,6,0.3,7.1,0.1c1-0.2,2.5-0.1,3.3,0.1C588.7,18.6,589.8,19.7,589.5,19.9z M593.5,20.2
		c-1.1,0-1.1-1.2-0.1-1.5c1.1-0.3,2.3-0.2,2.8,0.1C596.8,19.2,594.5,20.2,593.5,20.2z M592.9,6.7c-2.8,0-0.7-0.8,0.9-0.8
		s3.2,0.1,3.6,0.2C597.8,6.2,595.6,6.7,592.9,6.7z M625.3,20c0,0,0,0-1,0c-4.6,0-9.3,0-13.8,0c-2.3,0-4.7-0.3-7.1,0.3
		c-1.1,0.3-1.1,0.2-1.1,0.2c-2.6-0.1-3.9-0.5-2.9-0.7c1-0.2,7.9-1,9.8-1.1c1.8-0.1,5.5,0,8.4,0.2c0,0,0,0,2.5,0.1
		c2.5,0.1,2.5,0.2,2.5,0.2C625.2,19.5,626.6,20,625.3,20z M660.4,7c-2.6,0-5.4,0.1-5.6,0.2c-0.2,0.1-3.2,0.8-6.6-0.2c0,0,0,0-3.1,0
		c-1.4,0-3,0-4.3,0.5c-0.3,0.1-1.7,0.3-2.1,0.2c-2.4-0.7-5.1-0.5-7.7-0.5C626.3,7,621.6,7,617,7c-5.8,0-6.3,0-6.3,0
		c-6,0-10.4-1-9.4-1c0,0,0,0,0.7,0c4.2,0,8.5,0,12.7,0c1,0,1,0,1,0c1.4,0,9.2,0.4,11.8,0.1c2.6-0.3,11.2,0,13.6,0.1
		c2.4,0.1,4.5,0.2,4.7,0c0.2-0.2,4.1-0.3,8.6,0c0,0,0,0,3.9,0.2c3.8,0.2,3.8,0,3.8,0c4.3,0.2,8,0.6,8,0.6C670.1,8,663,7,660.4,7z
		 M688.4,7.5C683.9,7.6,673,7.1,673.5,7c0.5-0.1,3.6,0,4.4,0.1c0.9,0.1,9.9,0.1,13,0.1s5.7,0.2,5.7,0.2
		C696.6,7.5,692.9,7.5,688.4,7.5z M903.2,6.1c0.4,0,0.8,0.1,0.8,0.1s-0.3,0.1-0.8,0.1c-0.4,0-1.5-0.1-1.5-0.1
		C901.6,6.1,902.8,6.1,903.2,6.1z M845.8,4.9c1.2,0,3.1,0.1,4.1,0.1c0,0,0,0,1,0c3.7,1,7.5,0.3,11.1,0.7c1.5,0.2,3.5,0.3,5.4-0.2
		c1.1-0.3,3.4,0,4.9,0.2C876.3,6.2,880.1,6,884,6c0.3,0,0.3,0,0.3,0c0.3,0,1.1-0.2,1.3-0.1c0.2,0.1,1.2-0.1,1.6-0.2
		c0.3-0.1,1.5,0.1,1.7,0.1c0.2,0.1,4.6-0.1,6-0.2s3.7,0.4,4.1,0.5c0.4,0.2-0.7,0.3-2.4,0.2c0,0,0,0-1.3,0.1c-2,0.1-3.8-0.1-6,0.3
		c-1.5,0.3-4.3,0.3-6.5-0.2c-0.7-0.2-2.1-0.1-3,0c-3.4,0.4-3.4,0.4-3.4,0.4c-2.7-0.3-7.8-0.3-11.3,0.1c0,0,0,0-2.5-0.3
		c-4.1-0.5-8.3-0.2-12.3-0.3c-2.7-0.1-5.6,0.2-8.2-0.4C842,5.8,842,5.7,842,5.7C841.8,5.7,844.6,5,845.8,4.9z M827.4,5
		c4.1-0.1,4.1-0.1,4.1-0.1c5.2,0,6.8,0.3,6.4,0.4c-0.4,0.1-2.8-0.3-5.3-0.3c0,0,0,0-1.8,0c-1.4,0-2.9,0-4.4,0C826.7,5,827,5,827.4,5
		z M772.8,20.2c-0.8,0-2.8-0.1-2.8-0.2c0,0,2-0.1,2.8-0.2c0.8,0,1.4,0.1,1.4,0.2C774.2,20.2,773.5,20.2,772.8,20.2z M778.6,20.2
		c-0.2,0-0.8-0.1-0.8-0.1S778.4,20.1,778.6,20.2c0.2-0.1,0.4,0,0.4,0S778.8,20.2,778.6,20.2z M806,20.3c0,0,0,0-2.6,0.4
		c-2,0.3-5.1,0.5-7.6-0.3c-0.5-0.2-1.9-0.1-2.6,0.1c-3.4,0.7-3.4,0.7-3.4,0.7c-3.2-0.6,2-1,4.9-1.1c2.9-0.1,10.2-0.4,11.8-0.5
		c1.6-0.1,4.1,0.3,4.4,0.4C811.3,20.1,809.1,20.2,806,20.3z M813.1,19.9c-0.1,0-0.1-0.2-0.1-0.3s0.2-0.1,0.4,0
		C813.4,19.7,813.2,19.9,813.1,19.9z M1012.5,8.4c0,0,0,0.1-1.2,0.3c-1.6,0.2-3.8,0.2-5.7,0.2c-1,0-1,0-1,0c-1.5,0-5.4-0.1-6.6,0
		c-1.3,0.1-5.8,0.1-10.1-0.1c0,0,0,0.2-3.9,0.2c-0.7,0-0.7,0-0.7,0c-0.7,0-6.4,0.3-12.8,0.5c0,0-3.2,0.1-10.6,0
		c-6.4-0.1-12.8,0.5-19.1,0.5c-0.6,0-0.6,0-0.6,0c-0.6,0-2.4,0-4,0c0,0,0,0-1.4,0c-1.8,0-3.6,0.3-5.2,0.2c-1.7-0.1-3.4-0.4-5.3-0.4
		c-2.6,0-4.8,0.7-7.7,0.5c-1.2-0.1-1.2-0.1-1.2-0.1c-1.4-0.1-3.2-0.3-4.1-0.4c0,0,0,0-0.5,0.1c-3.7,0.8-7.8,0.3-11.7,0.4
		c-1.9,0-3.9-0.2-5.8-0.4c-2-0.1-4,0.3-6-0.3c-0.8-0.2-2.8-0.2-3.8-0.1c-3.6,0.7-7.5,0.3-11.2,0.4c-3.1,0.1-6.1,0.1-9.3,0
		c-2,0-3.9,0.1-6-0.3c-1.5-0.3-4.2-0.2-6.5,0.2c-2,0.4-2,0.4-2,0.4c-2.5-0.4-5.7-0.3-7.3,0.2c0,0,0-0.3-2.1-0.9
		c-0.9-0.2-2.5-0.5-3.7-0.5c-4.8,0-9.7,0-14.4,0c-1.9,0-1.9,0-1.9,0c-2.1,0-6.5,0.4-7.6,0.2c-1-0.2-5.1-0.4-9.2-0.5
		c0,0,0,0.1-3.8,0.3c-4.1,0.2-8.5,0-12.7,0c-4,0-8.2,0.2-12.1,0c-12.2-0.8-24.4-0.2-36.6-0.4c-1.6,0-3.1-0.1-4.8-0.3
		C729.9,8,729.9,8,729.9,8c-3,0.2-6.1,0.5-6.9,0.7c0,0,0,0-0.6-0.1c-7-0.9-10.2-0.8-10.2-0.8c-6.3,0.2-11.8,0.2-12,0.1
		c-0.3-0.3-0.7-0.9-0.4-0.9c0,0,0,0,0.2,0c3.5,0,3.5,0.3,3.5,0.3C707.3,7.4,715.9,7,718,7c2.1,0.1,4,0,4.2,0c0,0,0,0,0.2,0
		c3.3,0,3.3,0.2,3.3,0.2c3.5-0.3,7.6,0,8,0.1c0.4,0.1,3.6,0.3,7.3,0.4c0,0,0,0,3-0.3c1.4-0.1,2.8-0.3,4.2-0.3c3.1,0,6.1,0,9.3,0
		c3.5,0,7,0.1,10.2,0.8c0.4,0.1,1.2,0,1.5-0.1C772.6,7,776.1,8,779.6,7c0.4,0,0.4,0,0.4,0c0.3,0,4.2,0.6,8.8,1.3c0,0,0,0.1,4.6-0.8
		c1.4-0.3,3.6-0.2,5.4,0.3c1.4,0.4,1.4,0.4,1.4,0.4c1.4-0.3,2.8-0.2,3.3-0.2c0,0,0,0,0.4,0c6,0,11.9,0.7,18,0.5c2.5-0.1,5,0.1,7.5,0
		c11.2-0.7,22.6,0,33.6-0.5c9.6-0.4,16.9-0.3,16.9-0.3c6.3,0,16.8,0.2,23.2,0.2c0,0,7.4,0,16.7,0c19.8,0,39.7,0,59.5,0
		c1.6,0,1.6,0,1.6,0c1.9-1,4.3,0,4.6,0.2c0.4,0.2,2.3-0.3,2.8-0.4c0.4-0.2,1.1,0,1.2,0.1s2-0.1,2.7-0.2c0.7-0.1,11.4-0.2,15.3-0.2
		S1013.8,7.8,1012.5,8.4z M1111.8,4c-0.5,0.1-4.9,0-9.9,0c0,0,0,0-4.4,0c-3.4,0-6.9,0.1-10.4,0.2c-3.3,0.1-6.6,0.3-10,0.4
		c-1.2,0-1.2,0.1-1.2,0.1c-1.6-0.1-3.3-0.1-3.5,0c-0.2,0.1-3.7,0.1-4.6,0c-0.9,0-4.5,0.5-5.3,0.6c-0.8,0.2-3.3,0-5.5-0.4
		c0,0,0,0-2.6,0.5c-1.7,0.4-1.7,0.4-1.7,0.4c-3-0.2-4.5-0.7-4.3-0.8s-2.2-0.4-2.6-0.1c-0.4,0.3-8,0.9-10.8,1c-2.7,0-5.6-0.1-5.9-0.2
		c-0.3-0.1-3.7,0.1-4.8,0.2c-1.1,0.1-4.3-0.4-4.9-0.6c-0.6-0.2-1.4-0.2-1.5-0.1c-0.1,0,0.3,0.4,0.6,0.5c0.2,0.1-4.7,0.3-11.1,0.3
		c0,0-5.5,0-14,0C992,6,992,6,992,6c-1.3,0-2.6-0.3-3-0.1c-0.3,0.2-2.5,0.4-2.9,0.3c-0.4-0.1-3.7,0.2-7.4,0.7c0,0,0,0-3.5-0.8
		c-0.7-0.2-2-0.2-2.7,0c-3.1,0.7-3.1,0.7-3.1,0.7c-3.6-0.1-8.1-0.7-8.6-0.9c-0.5-0.2-2.2-0.3-2.7-0.2c-0.4,0.1-1,0.4-1.4,0.4
		c0,0,0,0-0.3,0c-3,0-3,0-3,0c-3.4,0-6.4-0.2-6.4-0.3c-0.1-0.1-2.1-0.1-3-0.1c-0.8,0-1,0.4-0.9,0.6c0.2,0.1-2.1,0.2-2.9,0.2
		c-0.8,0-4.6-0.7-5.6-0.9c-1.1-0.2-5,0.3-5.9,0.5c-1,0.2-2.2,0.3-2.4,0.2c-0.2-0.1-1.4,0.1-1.9,0.2c-0.5,0.1-1.8-0.3-2.2-0.5
		c-0.4-0.2-2.2,0.1-2.8,0.3C918.6,6.4,917,6,915.7,6c0,0,0,0-1.3,0c-1.4,0-2.7,1-4.1,1c-1.3,0-1.3,0-1.3,0c-2-1-1.5-1.8-1-2
		c0.5-0.2,5-0.1,6.5,0.1c1.5,0.2,3.7-0.3,4.2-0.5c0.5-0.3,1.4,0.2,1.5,0.4c0.1,0.2,1.9,0.4,3.9,0.6c0,0,0,0.1,2-0.4
		C927,4.9,928.7,5,930,5c5.5,0,11.2,0,16.7,0c1,0,1,0,1,0c1.4,0,3.4-0.4,4.4-0.3c0,0,0,0,1.1,0.2c1.2,0.1,1.2-0.1,1.2-0.1
		c1.1-0.1,4.1-0.8,6.6-0.8c0,0,0,0,2.3,0c4.6,0,4.6,0.1,4.6,0.1c5.2,0,10.5,0.7,10.9,0.9c0.4,0.2,3,0.4,4,0.4c1,0,1.8-0.1,1.8-0.2
		c0,0-2.2-0.2-3-0.2c-0.8,0-1.6-0.2-1.6-0.3s1.3-0.4,3-0.7c0,0,0,0,0.8,0.2c3.4,0.7,7,0.4,10.6,0.3c3.5,0,7.1,0.5,10.6-0.3
		c0.9-0.2,2.6,0,4,0c4.6,0,9.4,0.2,14-0.4c1.7-0.2,3.5-0.1,5.4-0.1c6.9,0.1,13.9,0.1,20.8,0c0.9,0,1.8-0.1,2.6-0.2
		c2.7-0.3,5.4-0.4,8.2,0c2.4,0.4,2.4,0.4,2.4,0.4c2.4-0.3,6.8-0.4,9.8,0c0,0,0,0,2.7-0.4c2.8-0.4,5.4-0.2,8.2-0.1
		c1.7,0.1,1.7,0.1,1.7,0.1c1.9-0.1,6.8-0.5,10.8-0.4c0,0,0-0.2,3.6-0.2c0.3,0,0.3,0,0.3,0c0.3,1,6-0.1,8.3,0
		C1110.1,3.1,1112.3,3.9,1111.8,4z M1118.1,4c-1.2-0.1-2.2-0.3-2.2-0.4c0,0,0.9-0.1,2.1-0.1C1119.2,3.5,1119.3,4.1,1118.1,4z
		 M1133.3,3.3c-0.3,0-1.3-0.1-1.3-0.1s0.9-0.1,1.2-0.2c0.3,0,0.7,0.1,0.7,0.2C1133.9,3.3,1133.7,3.3,1133.3,3.3z M1143.2,4.2
		c-2.9,0-0.5-0.7,1.5-0.9c2-0.1,3.3-0.1,3.1,0c-0.3,0.1,1.7,0.8,2.6,0.6c0.9-0.2,2.7-0.1,3.2,0C1154.1,4.1,1146.1,4.2,1143.2,4.2z
		 M1160.3,4.3c-0.2,0.1-1.2,0-2.4-0.2c-1.1-0.2-4.1-0.7-4.1-0.8c0.2-0.1,0.9-0.3,1.7-0.3c0,0,0,0,0.7,0c0.9,0,0.9,0,0.9,0
		c1.2,0,2.9,0.5,3.2,0.7C1160.6,3.9,1160.5,4.2,1160.3,4.3z M1162.7,3.7c-0.4,0-0.8-0.1-0.8-0.1s0.4-0.1,0.8-0.1
		c0.4,0,1.5,0.1,1.5,0.1S1163.1,3.7,1162.7,3.7z M1168.1,3.8c-0.1,0-0.1-0.1-0.1-0.1c0.1-0.1,0.2-0.3,0.3-0.3c0.1,0,0.1,0.2,0.1,0.3
		C1168.4,3.8,1168.2,3.8,1168.1,3.8z M1198.3,3.7c-0.4,0-13.3,0.4-17.9,0.3c-4.6-0.1-9.6-0.4-10-0.5c-0.3-0.1,6.4-0.3,9.1-0.2
		c2.6,0.1,4.9,0.1,5.2,0c0.3-0.1,7.8,0.3,10.4,0.2c2.6-0.2,4.9-0.1,4.9,0.1C1200.1,3.8,1198.7,3.8,1198.3,3.7z M1204.9,3.5
		c-1.8,0.1-3.5,0-3.6,0c0,0,1.6-0.4,3.8-0.8c0,0,0,0,2-0.1c1.4-0.1,1.4-0.1,1.4-0.1C1210.7,2.9,1206.8,3.4,1204.9,3.5z M1290.6,3.7
		c-0.4,0-1.6-0.1-1.6-0.1c-0.1-0.1,1.1-0.2,1.4-0.2c0.5,0,0.8,0.1,0.8,0.2C1291.3,3.7,1290.9,3.7,1290.6,3.7z M1294.9,3.8
		c-1,0-1.7-0.1-1.7-0.2c0-0.1,0.7-0.2,1.7-0.2s3.4,0.1,3.4,0.2C1298.3,3.5,1295.9,3.7,1294.9,3.8z M1300.8,3.5c-0.2,0-1-0.1-1-0.1
		s0.7,0,1,0s0.5,0.1,0.5,0.1S1301,3.5,1300.8,3.5z M1304.5,3.8c-0.1,0-0.1-0.1-0.1-0.1c0-0.1,0.2-0.4,0.4-0.4c0.1,0,0.1,0.2,0.1,0.4
		C1304.9,3.8,1304.6,3.8,1304.5,3.8z M1311.4,3.7c-1.8,0-3.2-0.1-3.2-0.1c0-0.1,1.4-0.1,3.2-0.1s6.5,0.1,6.5,0.1
		S1313.2,3.7,1311.4,3.7z M1322.5,3.8c-0.1,0-0.1-0.2-0.1-0.4c0.1-0.1,0.4-0.1,0.4-0.1c0.1,0,0.1,0.1,0.1,0.1
		C1322.8,3.5,1322.6,3.8,1322.5,3.8z"/>
	<path class="st0" d="M499.6,20c-1,0.1-1.9,0-2.9,0c1.3,0,2.7,0,4,0C500.5,20,500.2,19.9,499.6,20z"/>
	<path class="st0" d="M500.9,20.1c1.4-0.1,1.8-0.1,0.8-0.1c0,0,0,0-0.9,0c0,0-0.1,0-0.1,0C500.9,20.1,500.9,20.1,500.9,20.1z"/>
	<path class="st0" d="M9.4,10C9.4,10,9.4,10,9.4,10C9.2,10,9,10,8.7,10c-0.2,0-0.4,0-0.6,0.1C8.4,10,8.8,10,9.4,10z"/>
</g>
</svg>
