<?xml version="1.0" encoding="utf-8"?>
<!-- Generator: Adobe Illustrator 19.2.0, SVG Export Plug-In . SVG Version: 6.00 Build 0)  -->
<svg version="1.1" id="Check" xmlns="http://www.w3.org/2000/svg" xmlns:xlink="http://www.w3.org/1999/xlink" x="0px" y="0px"
	 viewBox="0 0 25.2 20" style="enable-background:new 0 0 25.2 20;" xml:space="preserve">
<style type="text/css">
	.st0{fill:#FFFFFF;}
</style>
<g>
	<path class="st0" d="M12.2,4.6v10.8c2.2-0.8,3.7-2.9,3.7-5.4C15.9,7.5,14.4,5.4,12.2,4.6z"/>
	<path class="st0" d="M4.3,10c0,2.5,1.5,4.6,3.7,5.4V4.6C5.9,5.4,4.3,7.5,4.3,10z"/>
	<path class="st0" d="M14.8,0h-4.7C4.6,0,0,4.1,0,10.1C0,15.5,4.6,20,10.1,20h4.7c5.5,0,10.5-4.5,10.5-9.9C25.2,4.1,20.3,0,14.8,0z
		 M10.1,19.1C5.1,19.1,1,15,1,10c0-5.1,4.1-9.2,9.2-9.2c5.1,0,9.2,4.1,9.2,9.2C19.3,15,15.2,19.1,10.1,19.1z"/>
</g>
</svg>
