<?xml version="1.0" encoding="utf-8"?>
<!-- Generator: Adobe Illustrator 19.2.0, SVG Export Plug-In . SVG Version: 6.00 Build 0)  -->
<svg version="1.1" id="Check" xmlns="http://www.w3.org/2000/svg" xmlns:xlink="http://www.w3.org/1999/xlink" x="0px" y="0px"
	 viewBox="0 0 26.7 20" style="enable-background:new 0 0 26.7 20;" xml:space="preserve">
<style type="text/css">
	.st0{fill:#FFFFFF;}
</style>
<g>
	<g>
		<path class="st0" d="M3.2,0C1.6,0,0,1.5,0,3.2c0,0.9,0,4.7,0,8.4c0.3,0.2,1.8,0.7,2.4,0.7c1.3,0.1,2.1-0.3,2.2-1.4l0-4.1h2.9v4
			c-0.2,2.3-2.1,2.7-5.2,2.6c-0.8,0-1.9-0.2-2.4-0.4c0,3.7,0,7,0,7s3.8,0,5,0c1.4,0,3.2-1.3,3.2-3.2c0-3.3,0-16.8,0-16.8
			S4.5,0,3.2,0z"/>
		<path class="st0" d="M0,11.6V13c0,0,0,0,0,0C0,12.5,0,12.1,0,11.6C0,11.6,0,11.6,0,11.6z"/>
	</g>
	<g>
		<path class="st0" d="M12.5,0c-1.7,0-3.2,1.5-3.2,3.2c0,0.6,0,2.3,0,4.4c1-0.8,2.6-1.2,4.7-1C15.2,6.7,16,6.9,16.5,7v1.4
			C16,8.2,15,7.8,14.1,7.7c-2-0.1-3,0.8-3,2.3c0,1.3,0.8,2.5,3,2.3c0.7-0.1,1.9-0.5,2.4-0.7l0,1.4c-0.4,0.1-1.8,0.4-3.1,0.4
			c-1.9,0-3.3-0.4-4.2-1.1c0,4,0,7.7,0,7.7s3.8,0,5,0c1.4,0,3.2-1.3,3.2-3.2c0-3.3,0-16.8,0-16.8S13.8,0,12.5,0z"/>
	</g>
	<path class="st0" d="M22.1,10.4c-0.6,0-1.8,0-2,0l0,1.8l2,0c0.4,0,0.9-0.3,0.9-0.9C22.9,10.8,22.5,10.4,22.1,10.4z"/>
	<path class="st0" d="M22.7,8.6c0-0.5-0.4-0.8-0.8-0.8c-0.6,0-1.6,0-1.8,0l0,1.6l1.9,0C22.3,9.4,22.7,9.1,22.7,8.6z"/>
	<path class="st0" d="M21.7,0c-1.7,0-3.2,1.5-3.2,3.2c0,0.5,0,1.8,0,3.6h4.8c1,0,2.1,0.4,2.1,1.6c0,0.6-0.3,1.3-1.5,1.6v0
		c0.7,0,1.9,0.4,1.9,1.6c0,1.3-1.3,1.6-2,1.6l-5.3,0c0,3.6,0,6.8,0,6.8s3.8,0,5,0c1.4,0,3.2-1.3,3.2-3.2c0-3.3,0-16.8,0-16.8
		S23,0,21.7,0z"/>
</g>
</svg>
