<?xml version="1.0" encoding="utf-8"?>
<!-- Generator: Adobe Illustrator 19.2.0, SVG Export Plug-In . SVG Version: 6.00 Build 0)  -->
<svg version="1.1" id="Check" xmlns="http://www.w3.org/2000/svg" xmlns:xlink="http://www.w3.org/1999/xlink" x="0px" y="0px"
	 viewBox="0 0 49.4 20" style="enable-background:new 0 0 49.4 20;" xml:space="preserve">
<style type="text/css">
	.st0{fill:#FFFFFF;}
</style>
<g>
	<path class="st0" d="M0.6,12c0.4,0.3,1.2,0.6,1.9,0.5c0.6,0,1-0.3,1-0.8c0-0.4-0.3-0.7-1-1.1C1.6,10.1,1,9.4,1,8.4
		c0-1.7,1.4-2.8,3.4-2.8c0.9,0,1.6,0.2,2,0.4L5.9,7.8C5.6,7.6,5,7.5,4.5,7.5c-0.6,0-1.1,0.3-1.1,0.8c0,0.4,0.3,0.6,0.9,1
		C5.2,9.9,6,10.6,6,11.5c0,1.9-1.5,2.9-3.6,2.9c-1,0-1.9-0.3-2.3-0.6L0.6,12z"/>
	<path class="st0" d="M6.4,13.9L8.7,2H11l-0.9,4.8v0.1c0.6-0.7,1.4-1.2,2.5-1.2c1.2,0,1.9,0.8,1.9,2.2c0,0.4-0.1,1-0.2,1.4L13.5,14
		h-2.3L12,9.4c0.1-0.3,0.1-0.6,0.1-1c0-0.5-0.3-0.9-0.7-0.9c-0.7,0-1.5,0.9-1.9,2.4l-0.8,4H6.4L6.4,13.9z"/>
	<path class="st0" d="M23,8.9c0,2.9-1.9,5.4-4.6,5.4c-2.1,0-3.2-1.4-3.2-3.3c0-2.9,1.9-5.4,4.7-5.4C22,5.7,23,7.2,23,8.9z M17.5,11
		c0,0.9,0.3,1.5,1.1,1.5c1.3,0,1.9-2.2,1.9-3.7c0-0.7-0.3-1.4-1.1-1.4C18.3,7.5,17.5,9.7,17.5,11z"/>
	<path class="st0" d="M22.4,17.1L24,8.8c0.2-1,0.4-2.1,0.5-2.9h2.1l-0.2,0.8l0,0C27,6,27.9,5.4,28.9,5.4c1.7,0,2.4,1.5,2.4,3
		c0,2.9-1.9,5.7-4.5,5.7c-0.4,0.1-1-0.3-1.2-0.3h-0.1L24.9,17L22.4,17.1L22.4,17.1z M25.8,12.2c0.3,0.3,0.6,0.3,1,0.3
		c1.3,0,2.2-2.2,2.2-3.7c0-0.6-0.3-1.3-1-1.3c-0.8,0-1.6,1-1.9,2.4L25.8,12.2z"/>
	<path class="st0" d="M31.5,13.9l1.6-8h2.4l-1.6,8H31.5z M34.5,5.2c-0.6,0-1.1-0.6-1.1-1.3c0-0.8,0.6-1.4,1.3-1.4s1.2,0.6,1.2,1.3
		C35.9,4.6,35.2,5.2,34.5,5.2L34.5,5.2z"/>
	<path class="st0" d="M35.9,13.9l1.3-6.4h-1.1L36.4,6h1.1l0.1-0.5c0.1-0.9,0.5-2,1.3-2.7C39.6,2.3,40.3,2,41.3,2
		c0.6,0,1,0.1,1.3,0.2L42.1,4c-0.3-0.1-0.5-0.2-0.7-0.2c-0.8,0-1.3,0.8-1.3,1.6L39.8,6h1.6l-0.3,1.6h-1.6l-1.3,6.3H35.9z"/>
	<path class="st0" d="M44.2,6l0.4,3.7c0.1,0.8,0.2,1.1,0.3,1.9l0,0c0.2-0.8,0.3-1,0.7-1.9L47.1,6h2.4l-2.9,6.1c-1,2.1-2,3.6-3.1,4.6
		c-0.8,0.8-1.9,1.1-2.3,1.3l-0.6-2c0.4-0.2,0.9-0.3,1.3-0.6c0.6-0.4,1-0.9,1.3-1.4c0.1-0.1,0.1-0.2,0.1-0.3l-1.4-7.6L44.2,6L44.2,6z
		"/>
</g>
</svg>
