<svg xmlns="http://www.w3.org/2000/svg">
	<defs>
		
		<!-- GENERAL -->
		
		<symbol id="icon-envelope" viewBox="0 0 20 20">
			<path d="M1.574,5.286c0.488,0.262,7.248,3.894,7.5,4.029C9.326,9.45,9.652,9.514,9.98,9.514c0.328,0,0.654-0.064,0.906-0.199
			s7.012-3.767,7.5-4.029C18.875,5.023,19.337,4,18.44,4H1.521C0.624,4,1.086,5.023,1.574,5.286z M18.613,7.489
			c-0.555,0.289-7.387,3.849-7.727,4.027s-0.578,0.199-0.906,0.199s-0.566-0.021-0.906-0.199S1.941,7.777,1.386,7.488
			C0.996,7.284,1,7.523,1,7.707S1,15,1,15c0,0.42,0.566,1,1,1h16c0.434,0,1-0.58,1-1c0,0,0-7.108,0-7.292S19.004,7.285,18.613,7.489z" />
		</symbol>
		
		<symbol id="icon-phone" viewBox="0 0 20 20">
			<path d="M11.229,11.229c-1.583,1.582-3.417,3.096-4.142,2.371c-1.037-1.037-1.677-1.941-3.965-0.102
			c-2.287,1.838-0.53,3.064,0.475,4.068c1.16,1.16,5.484,0.062,9.758-4.211c4.273-4.274,5.368-8.598,4.207-9.758
			c-1.005-1.006-2.225-2.762-4.063-0.475c-1.839,2.287-0.936,2.927,0.103,3.965C14.324,7.812,12.811,9.646,11.229,11.229z" />
		</symbol>
		
		<symbol id="icon-info" viewBox="0 0 20 20">
			<path d="M10,0.4c-5.303,0-9.601,4.298-9.601,9.6c0,5.303,4.298,9.601,9.601,9.601c5.301,0,9.6-4.298,9.6-9.601
			C19.6,4.698,15.301,0.4,10,0.4z M10.896,3.866c0.936,0,1.211,0.543,1.211,1.164c0,0.775-0.62,1.492-1.679,1.492
			c-0.886,0-1.308-0.445-1.282-1.182C9.146,4.719,9.665,3.866,10.896,3.866z M8.498,15.75c-0.64,0-1.107-0.389-0.66-2.094l0.733-3.025
			c0.127-0.484,0.148-0.678,0-0.678c-0.191,0-1.022,0.334-1.512,0.664L6.74,10.094c1.555-1.299,3.343-2.061,4.108-2.061
			c0.64,0,0.746,0.756,0.427,1.92l-0.84,3.18c-0.149,0.562-0.085,0.756,0.064,0.756c0.192,0,0.82-0.232,1.438-0.719l0.362,0.486
			C10.786,15.168,9.137,15.75,8.498,15.75z" />
		</symbol>
		
		<symbol id="icon-cross" viewBox="0 0 20 20">
			<path d="M10,1.6c-4.639,0-8.4,3.761-8.4,8.4c0,4.639,3.761,8.4,8.4,8.4s8.4-3.761,8.4-8.4C18.4,5.361,14.639,1.6,10,1.6z
			 M14.789,13.061l-1.729,1.729L10,11.729l-3.061,3.06l-1.729-1.729L8.272,10L5.211,6.939L6.94,5.211L10,8.271l3.061-3.061
			l1.729,1.729L11.728,10L14.789,13.061z" />
		</symbol>
		
		<symbol id="icon-emoji-happy" viewBox="0 0 20 20">
			<path d="M10,0.4c-5.3,0-9.6,4.3-9.6,9.6s4.3,9.6,9.6,9.6c5.3,0,9.6-4.3,9.6-9.6C19.6,4.7,15.3,0.4,10,0.4z M12.5,6.2
			C13.3,6.2,14,7,14,8s-0.7,1.8-1.5,1.8C11.7,9.8,11,9,11,8S11.7,6.2,12.5,6.2z M7.5,6.2C8.3,6.2,9,7,9,8S8.3,9.8,7.5,9.8
			C6.7,9.8,6,9,6,8S6.7,6.2,7.5,6.2z M14.7,12.3c0,0.1-1.2,2.4-4.7,2.4c-3.4,0-4.6-2.3-4.7-2.4c-0.2-0.4,0-0.8,0.3-1
			c0.4-0.2,0.8,0,1,0.3c0,0.1,0.9,1.6,3.3,1.6c2.5,0,3.3-1.5,3.3-1.6c0.2-0.4,0.6-0.5,1-0.3C14.7,11.5,14.9,12,14.7,12.3z" />
		</symbol>
		
		<symbol id="icon-emoji-neutral" viewBox="0 0 20 20">
			<path d="M10,0.4c-5.3,0-9.6,4.3-9.6,9.6s4.3,9.6,9.6,9.6c5.3,0,9.6-4.3,9.6-9.6C19.6,4.7,15.3,0.4,10,0.4z M7.5,6.2C8.3,6.2,9,7,9,8
			S8.3,9.8,7.5,9.8C6.7,9.8,6,9,6,8S6.7,6.2,7.5,6.2z M13,13.8H7c-0.4,0-0.8-0.3-0.8-0.8s0.3-0.8,0.8-0.8h6c0.4,0,0.8,0.3,0.8,0.8
			C13.8,13.4,13.4,13.8,13,13.8z M12.5,9.8C11.7,9.8,11,9,11,8s0.7-1.7,1.5-1.7C13.3,6.3,14,7,14,8S13.3,9.8,12.5,9.8z" />
		</symbol>
		
		<symbol id="icon-emoji-sad" viewBox="0 0 20 20">
			<path d="M10,0.4c-5.3,0-9.6,4.3-9.6,9.6c0,5.3,4.3,9.6,9.6,9.6c5.3,0,9.6-4.3,9.6-9.6C19.6,4.7,15.3,0.4,10,0.4z M12.5,6.2
			C13.3,6.2,14,7,14,8s-0.7,1.8-1.5,1.8C11.7,9.7,11,9,11,8S11.7,6.2,12.5,6.2z M7.5,6.2C8.3,6.2,9,7,9,8S8.3,9.7,7.5,9.7
			C6.7,9.7,6,9,6,8S6.7,6.2,7.5,6.2z M14.3,14.7c-0.4,0.2-0.8,0-1-0.3c0-0.1-0.9-1.6-3.3-1.6c-2.5,0-3.3,1.6-3.3,1.6
			c-0.1,0.3-0.4,0.4-0.7,0.4c-0.1,0-0.2,0-0.3-0.1c-0.4-0.2-0.5-0.6-0.3-1c0-0.1,1.2-2.4,4.7-2.4s4.6,2.3,4.7,2.4
			C14.9,14,14.7,14.5,14.3,14.7z" />
		</symbol>
		
		<symbol id="icon-chevron-left" viewBox="0 0 20 20">
			<path d="M12.452,4.516c0.446,0.436,0.481,1.043,0,1.576L8.705,10l3.747,3.908c0.481,0.533,0.446,1.141,0,1.574
			c-0.445,0.436-1.197,0.408-1.615,0c-0.418-0.406-4.502-4.695-4.502-4.695C6.112,10.57,6,10.285,6,10s0.112-0.57,0.335-0.789
			c0,0,4.084-4.287,4.502-4.695C11.255,4.107,12.007,4.08,12.452,4.516z" />
		</symbol>
		
		<symbol id="icon-chevron-right" viewBox="0 0 20 20">
			<path d="M9.163,4.516c0.418,0.408,4.502,4.695,4.502,4.695C13.888,9.43,14,9.715,14,10s-0.112,0.57-0.335,0.787
			c0,0-4.084,4.289-4.502,4.695c-0.418,0.408-1.17,0.436-1.615,0c-0.446-0.434-0.481-1.041,0-1.574L11.295,10L7.548,6.092
			c-0.481-0.533-0.446-1.141,0-1.576C7.993,4.08,8.745,4.107,9.163,4.516z" />
		</symbol>
		
		<!-- FEATURES -->
		
		<symbol id="icon-24hour" viewBox="0 0 20 20">
			<path d="M5,7.1v1.4h2.9v1.4H5v4.3h4.3v-1.4H6.4v-1.4h2.9V7.1H5z M14.3,10V7.1h-1.4V10h-0.7V7.1h-1.4v4.3h1.4h0.7v2.9h1.4v-2.9h1.4
			V10H14.3z M18.5,7l-1.3,0.6c0.4,1,0.7,2,0.7,3.1c0,4.3-3.5,7.9-7.9,7.9s-7.9-3.5-7.9-7.9c0-4.3,3.5-7.9,7.9-7.9v1.4l3.6-2.1L10,0
			v1.4c-5.1,0-9.3,4.2-9.3,9.3S4.9,20,10,20c5.1,0,9.3-4.2,9.3-9.3C19.3,9.4,19,8.2,18.5,7z" />
		</symbol>
		
		<symbol id="icon-room" viewBox="0 0 20 20">
			<path d="M18.6,11v3.1c0,0.1-0.1,0.2-0.2,0.2H1.7c-0.1,0-0.2-0.1-0.2-0.2V8.5c0-0.1-0.1-0.2-0.2-0.2H0.6c-0.1,0-0.2,0.1-0.2,0.2v10.2
			c0,0.1,0.1,0.2,0.2,0.2h0.6c0.1,0,0.2-0.1,0.2-0.2v-1.1c0-0.1,0.1-0.2,0.2-0.2h16.7c0.1,0,0.2,0.1,0.2,0.2v1.1
			c0,0.1,0.1,0.2,0.2,0.2h0.6c0.1,0,0.2-0.1,0.2-0.2V11c0-0.1-0.1-0.2-0.2-0.2h-0.6C18.7,10.8,18.6,10.9,18.6,11z M7,10.8H15
			c1.7,0,3,1.4,3,3l0,0H7c-0.1,0-0.3-0.1-0.3-0.3V11C6.8,10.9,6.9,10.8,7,10.8z M5.2,11.4v1.2H2.6c-0.3,0-0.6,0.3-0.6,0.6l0,0
			c0,0.3,0.3,0.6,0.6,0.6h2.6h0.2h0.8c0.2,0,0.3-0.1,0.3-0.3v-2.1c0-0.3-0.3-0.6-0.6-0.6l0,0C5.5,10.8,5.2,11.1,5.2,11.4z M3.7,9.8
			c0.7,0,1.3,0.6,1.3,1.3s-0.6,1.3-1.3,1.3s-1.3-0.6-1.3-1.3S3,9.8,3.7,9.8z M20,6.3c0.1-0.1,0-0.3-0.1-0.4L10,1l0,0l0,0L0.1,5.9
			C0,5.9,0,6.1,0,6.3l0.3,0.6C0.4,7,0.6,7.1,0.7,7L10,2.4L19.3,7c0.1,0.1,0.3,0,0.3-0.1L20,6.3z" />
		</symbol>
		
		<symbol id="icon-rosette" viewBox="0 0 20 20">
			<path d="M10,3C8.4,3,7,4.3,7,6s1.3,3,3,3s3-1.3,3-3S11.7,3,10,3z M16.1,5.5l-0.6-0.8c-0.2-0.2-0.3-0.7-0.3-1l0-1
				c0-0.3-0.2-0.6-0.5-0.7l-1-0.3c-0.3-0.1-0.7-0.4-0.9-0.6l-0.5-0.8c-0.2-0.3-0.6-0.4-0.9-0.3l-0.9,0.3c-0.3,0.1-0.8,0.1-1.1,0L8.6,0
				c-0.3-0.1-0.7,0-0.9,0.3L7.2,1.1C7,1.4,6.6,1.7,6.3,1.8L5.3,2C5,2.1,4.8,2.4,4.8,2.8l0,1c0,0.3-0.1,0.8-0.3,1L3.9,5.5
				c-0.2,0.2-0.2,0.7,0,0.9l0.6,0.8c0.2,0.2,0.3,0.7,0.3,1l0,1c0,0.3,0.2,0.6,0.5,0.7l1,0.3c0.3,0.1,0.7,0.4,0.9,0.6l0.5,0.8
				c0.2,0.3,0.6,0.4,0.9,0.3l0.9-0.4c0.3-0.1,0.8-0.1,1.1,0l0.9,0.4c0.3,0.1,0.7,0,0.9-0.3l0.5-0.8c0.2-0.3,0.6-0.6,0.9-0.6l1-0.3
				c0.3-0.1,0.5-0.4,0.5-0.7l0-1c0-0.3,0.1-0.8,0.3-1l0.6-0.8C16.3,6.2,16.3,5.8,16.1,5.5z M10,9.9C7.9,9.9,6.1,8.1,6.1,6
				S7.9,2.1,10,2.1s3.9,1.8,3.9,3.9S12.2,9.9,10,9.9z M13.2,11.4l-0.6,0.9l-0.1,5.4c0.1,0,0.2,0,0.4,0.1l1.3,0.6c0.4,0.2,0.6,0,0.5-0.4
				L13.2,11.4z M10.6,12.2c-0.3-0.1-0.9-0.1-1.2,0l-1,0.4c-0.3,0.1-0.8,0-1-0.3L7.2,12l-1.2,7.6l2-1.2c0.2-0.1,0.5-0.2,0.7-0.2
				c0.4,0,0.7,0.1,1,0.3l1.8,1.5l0.1-7.4h0L10.6,12.2z" />
		</symbol>
		
		<symbol id="icon-taxi" viewBox="0 0 20 20">
			<path d="M14.4,16.2v0.5c0,0.5,0.4,1,1,1h1.9c0.5,0,1-0.4,1-1v-1h-3.8V16.2z M19.2,7.8h-0.9c-0.1,0-0.3,0-0.4,0.1l-1.2-3.2
			c-0.2-0.5-0.7-0.8-1.2-0.8h-2.4L13,2.8c0-0.2-0.2-0.4-0.5-0.4l0,0h-5l0,0C7.3,2.4,7.1,2.5,7,2.8L6.9,3.8l0,0.1H4.7
			c-0.6,0-1,0.3-1.2,0.8L2.2,8.1C2,7.9,1.8,7.8,1.6,7.8H0.8C0.3,7.8,0,8.2,0,8.6V9c0,0.4,0.3,0.8,0.8,0.8h0.8
			c-0.1,0.2-0.2,0.4-0.2,0.6v3.8c0,0.4,0.2,0.8,0.6,1.1h16.2c0.3-0.2,0.6-0.6,0.6-1.1v-3.8c0-0.2-0.1-0.5-0.2-0.6h0.6
			C19.7,9.8,20,9.4,20,9V8.6C20,8.2,19.7,7.8,19.2,7.8z M7.3,3.3H8V2.7h0.7v0.6h0.7V2.7H10v0.6h0.7V2.7h0.7v0.6H12V2.7h0.5
			c0,0,0.1,0,0.1,0.1l0,0.2v0.3H12v0.6h-0.7V3.3h-0.7v0.6H10V3.3H9.3v0.6H8.7V3.3H8v0.6H7.3L7.3,3.3L7.3,3.3z M3.2,7.9l1-2.5
			C4.3,5,4.6,4.8,4.9,4.8h10.4c0.3,0,0.6,0.2,0.7,0.5l1,2.5c0.1,0.3-0.1,0.5-0.3,0.5h-13C3.3,8.4,3.1,8.1,3.2,7.9z M4.4,12.7
			c-0.7,0-1.2-0.6-1.2-1.2s0.6-1.2,1.2-1.2s1.2,0.6,1.2,1.2C5.6,12.2,5.1,12.7,4.4,12.7z M15.8,12.7c-0.7,0-1.2-0.6-1.2-1.2
			s0.6-1.2,1.2-1.2s1.2,0.6,1.2,1.2C17,12.2,16.5,12.7,15.8,12.7z M2,16.7c0,0.5,0.4,1,1,1h1.9c0.5,0,1-0.4,1-1v-0.5v-0.5H2V16.7z" />
		</symbol>
		
		<symbol id="icon-ticket" viewBox="0 0 20 20">
			<path d="M0,12.9l1.8,1.8c1-1,2.6-1,3.5,0c1,1,1,2.6,0,3.5l1.8,1.8l8.5-8.5l-1.3-1.3l0.6-0.6l1.3,1.3L20,7.1l-1.8-1.8
			c-1,1-2.6,1-3.5,0c-1-1-1-2.6,0-3.5l-1.8-1.8L9.2,3.8l1.3,1.3L9.8,5.6L8.5,4.3L0,12.9L0,12.9z M6.5,9l2.1,0.9l1.8-1.6l-0.2,2.3
			l2,1.1l-2.3,0.5l-0.7,2.4l-1.1-2l-2.3,0.2L7.4,11L6.5,9z M10.5,6.3l0.6-0.6L12.4,7l-0.6,0.6L10.5,6.3z M12.4,8.1L13,7.6l1.3,1.3
			l-0.6,0.6L12.4,8.1z" />
		</symbol>
		
		<!-- FEATURES/RESORTS -->

		<symbol id="icon-beach" viewBox="0 0 20 20">
			<path d="M9.1,6.8c0-1.1,1.6-1.1,1.6,0C10.7,8,9.1,8,9.1,6.8z M2.1,18.6c0.3-0.4,0.8-0.4,1,0c0.1,0.1,0.1,0.2,0.3,0.3
			c0.3,0.1,0.5,0.1,0.7,0c0.1-0.1,0.2-0.1,0.3-0.3c0.3-0.4,0.8-0.4,1,0c0.1,0.1,0.2,0.2,0.3,0.3C6,19,6.2,19,6.4,18.9
			c0.1-0.1,0.3-0.1,0.3-0.3c0.2-0.4,0.7-0.4,1,0c0.1,0.1,0.2,0.2,0.3,0.3c0.2,0.1,0.5,0.1,0.7,0c0.1-0.1,0.2-0.1,0.3-0.3
			c0.2-0.4,0.7-0.4,1,0c0.1,0.1,0.1,0.2,0.3,0.3c0.3,0.1,0.5,0.1,0.7,0c0.1-0.1,0.2-0.1,0.3-0.3c0.1,0,0.1-0.1,0.1-0.1
			c-0.4-1.1-1.2-1.8-2-2.3c1.7-3.1,2.1-7,2.6-10.4c1.1-1.1,3.6,0.9,4.3,3.2c0.2-2.1-0.7-4.3-2.6-4.2c2-1,3.3,0.1,6,2.6
			c-1.2-4.6-3.9-5.6-6.5-3.8c1.1-1.6,1.5-2,4.7-1.7c-2.2-2.2-4.5-1.2-5.6,1.1c-0.1-1.3,0.7-2.5,1.5-3.1c-1,0.5-2,1.1-2.2,2.7
			c-0.3-1.7-0.7-2-2.2-2.7c0.8,0.6,1.6,1.8,1.5,3.1C9.8,0.8,7.4-0.1,5.3,2c3.2-0.4,3.6,0.1,4.6,1.7C7.4,1.9,4.6,3,3.4,7.5
			C6,5,7.4,3.9,9.4,4.9C7.5,4.8,6.5,7,6.8,9.1c0.7-2.3,3.3-4.2,4.3-3.2c-0.3,3.2-1.5,7-3.3,9.7c-2.6-0.5-5.6,0.6-6.4,3.5
			c0.2,0,0.4,0,0.5-0.1C1.9,18.8,2,18.7,2.1,18.6z M19.3,11.9l0.7-0.6l-0.8-0.2l0.5-0.7h-0.8L19,9.7l-0.7,0.3l-0.1-0.8l-0.6,0.6
			L17.2,9l-0.4,0.7l-0.6-0.6l-0.1,0.8l-0.7-0.3l0.2,0.8h-0.8l0.4,0.7l-0.7,0.2l0.6,0.6l-0.6,0.5l0.7,0.2l-0.4,0.8l0.8-0.1l-0.2,0.8
			l0.7-0.4l0.1,0.8l0.6-0.6l0.4,0.7l0.3-0.7l0.6,0.6l0.1-0.8l0.7,0.4l-0.2-0.8l0.8,0.1l-0.5-0.8l0.8-0.2L19.3,11.9z M18.6,18.7
			c-0.1,0.1-0.3,0.3-0.4,0.4c-0.3,0.2-0.7,0.2-1,0c-0.2-0.1-0.3-0.3-0.4-0.4c-0.1-0.2-0.4-0.2-0.5,0c-0.1,0.1-0.3,0.3-0.4,0.4
			c-0.3,0.2-0.7,0.2-1.1,0c-0.1-0.1-0.3-0.3-0.3-0.4c-0.1-0.2-0.4-0.2-0.5,0c-0.1,0.1-0.2,0.3-0.3,0.4c-0.3,0.2-0.7,0.2-1.1,0
			c-0.1-0.1-0.3-0.3-0.4-0.4c-0.1-0.2-0.3-0.2-0.5,0c-0.1,0.1-0.2,0.3-0.4,0.4c-0.3,0.2-0.7,0.2-1,0c-0.1-0.1-0.3-0.3-0.4-0.4
			c-0.1-0.2-0.4-0.2-0.5,0c-0.1,0.1-0.3,0.3-0.4,0.4c-0.3,0.2-0.7,0.2-1.1,0c-0.1-0.1-0.3-0.3-0.3-0.4c-0.1-0.2-0.4-0.2-0.5,0
			c-0.1,0.1-0.2,0.3-0.3,0.4c-0.3,0.2-0.7,0.2-1.1,0c-0.1-0.1-0.3-0.3-0.3-0.4c-0.1-0.2-0.4-0.2-0.5,0c-0.1,0.1-0.2,0.3-0.4,0.4
			c-0.3,0.2-0.7,0.2-1,0C3.1,19,3,18.9,2.8,18.7c-0.1-0.2-0.3-0.2-0.5,0c-0.1,0.1-0.3,0.3-0.4,0.4c-0.3,0.2-0.7,0.2-1,0
			c-0.2-0.1-0.3-0.3-0.4-0.4c-0.2-0.4-0.7,0-0.5,0.4c0.1,0.3,0.3,0.5,0.6,0.6c0.5,0.4,1.1,0.4,1.6,0c0.1-0.1,0.3-0.1,0.4-0.3
			c0.1,0.1,0.2,0.2,0.3,0.3c0.5,0.4,1.1,0.4,1.6,0c0.1-0.1,0.2-0.1,0.3-0.3c0.1,0.1,0.2,0.2,0.3,0.3c0.5,0.4,1.1,0.4,1.6,0
			c0.1-0.1,0.2-0.1,0.3-0.3c0.1,0.1,0.2,0.2,0.3,0.3c0.5,0.4,1.2,0.4,1.6,0c0.1-0.1,0.3-0.1,0.3-0.3c0.1,0.1,0.3,0.2,0.4,0.3
			c0.5,0.4,1.1,0.4,1.6,0c0.1-0.1,0.3-0.1,0.4-0.3c0.1,0.1,0.2,0.2,0.3,0.3c0.5,0.4,1.1,0.4,1.6,0c0.1-0.1,0.2-0.1,0.3-0.3
			c0.1,0.1,0.2,0.2,0.3,0.3c0.5,0.4,1.2,0.4,1.6,0c0.1-0.1,0.3-0.1,0.3-0.3c0.1,0.1,0.3,0.2,0.3,0.3c0.5,0.4,1.2,0.4,1.6,0
			c0.3-0.1,0.5-0.4,0.6-0.6C19.3,18.7,18.8,18.3,18.6,18.7z M12.1,6.8c0,1.1,1.6,1.1,1.6,0C13.7,5.7,12.1,5.7,12.1,6.8z" />
		</symbol>
		
		<symbol id="icon-temperature" viewBox="0 0 20 20">
			<path class="st0" d="M8.8,2.8c0.4,0,0.8,0,1.2,0.1c0.1-0.3,0.2-0.6,0.2-1c0,0-0.6-2-1.3-2h0C8.1,0,7.5,2,7.5,2c0,0.4,0.1,0.7,0.2,1
			C8.1,2.9,8.4,2.8,8.8,2.8z M8.9,16.6c0.7,0,1.3-2,1.3-2c0-0.4-0.1-0.7-0.2-1c-0.4,0.1-0.8,0.1-1.2,0.1c-0.4,0-0.8,0-1.2-0.1
			c-0.1,0.3-0.2,0.6-0.2,1C7.5,14.6,8.1,16.6,8.9,16.6C8.8,16.6,8.9,16.6,8.9,16.6z M5.6,13.9C5.8,13.6,6,13.3,6.1,13
			c-0.7-0.4-1.3-0.9-1.7-1.6c-0.3,0.1-0.6,0.3-0.8,0.6c0,0-0.9,1.9-0.3,2.4l0,0C3.8,14.9,5.6,13.9,5.6,13.9z M4.4,5.2
			c0.5-0.6,1-1.2,1.7-1.6C6,3.3,5.8,3,5.6,2.7c0,0-1.8-1.1-2.3-0.6l0,0C2.7,2.7,3.6,4.5,3.6,4.5C3.8,4.8,4.1,5,4.4,5.2z M12.4,3.6
			c0-0.5,0.1-0.9,0.3-1.2c-0.4,0.2-0.6,0.3-0.6,0.3c-0.2,0.3-0.4,0.6-0.5,0.9c0.3,0.2,0.6,0.4,0.9,0.6L12.4,3.6L12.4,3.6z M2.5,9.7
			c0.4,0,0.7-0.1,1-0.2C3.4,9.1,3.4,8.7,3.4,8.3c0-0.4,0-0.8,0.1-1.2C3.2,7,2.9,6.9,2.5,6.9c0,0-2,0.6-2,1.3v0
			C0.5,9.1,2.5,9.7,2.5,9.7z M5.1,5.3C4.6,6,4.3,6.7,4.1,7.5c0,0.3-0.1,0.5-0.1,0.8c0,0.3,0,0.5,0.1,0.8c0.1,0.8,0.5,1.6,1,2.2
			c0.3,0.4,0.7,0.8,1.2,1.1c0.5,0.4,1.2,0.6,1.8,0.7c0.3,0,0.5,0.1,0.8,0.1c0.3,0,0.5,0,0.8-0.1c0.7-0.1,1.3-0.4,1.8-0.7
			c0.4-0.2,0.7-0.5,1-0.9v-0.2V5.3V5.2c-0.3-0.3-0.6-0.6-1-0.9c-0.5-0.4-1.2-0.6-1.8-0.7c-0.3,0-0.5-0.1-0.8-0.1c-0.3,0-0.5,0-0.8,0.1
			C7.4,3.7,6.8,3.9,6.2,4.3C5.8,4.6,5.4,4.9,5.1,5.3z M16,7.3V4.7c0-1-0.4-1-0.6-1c-0.2,0-0.6,0-0.6,1V7v2.1H16L16,7.3L16,7.3z
			 M12,13.7c-0.4,0.6-0.7,1.4-0.7,2.2c0,2.2,1.8,4.1,4.1,4.1c0.3,0,0.6,0,0.8-0.1c1.8-0.4,3.2-2,3.2-4c0-1.5-0.8-2.8-2-3.5V3.9
			c0-1-0.7-1.8-1.6-2.1c-0.2,0-0.3-0.1-0.5-0.1c-0.4,0-0.7,0.1-1,0.3c-0.7,0.4-1.1,1.1-1.1,1.9v1.1v0.1v0.5v0.7v1.7v0.4v1.7v0.7v0.5
			v0.1v1C12.7,12.8,12.3,13.2,12,13.7z M15.4,3.4c0.7,0,1,0.6,1,1.3v2.7v1.7v0.1v4.5c1,0.3,1.5,1.1,1.6,2c0,0.1,0,0.1,0,0.2
			c0,1.4-1.1,2.6-2.6,2.6s-2.6-1.1-2.6-2.6c0-0.1,0-0.1,0-0.2c0-0.5,0.2-0.9,0.5-1.2c0.3-0.3,0.6-0.6,1.1-0.7v-1V9.6V9.1V7.1V4.7
			C14.4,4,14.6,3.4,15.4,3.4z M16.7,17.5c0.5-0.6,0.8-1.3,0.7-2c0-0.5-1-0.5-0.9,0c0.1,0.6-0.1,1.1-0.6,1.6
			C15.5,17.5,16.3,17.9,16.7,17.5z" />
		</symbol>
		
		<symbol id="icon-party" viewBox="0 0 20 20">
			<path d="M4.3,3.2C5.2,3.2,6,3.8,6,4.7c0,0.9-0.6,1.6-1.5,1.7c-0.9,0-1.6-0.6-1.7-1.5S3.4,3.2,4.3,3.2z M15.4,3.2
			c0.9,0,1.6,0.6,1.7,1.5c0,0.9-0.6,1.6-1.5,1.7c-0.9,0-1.6-0.6-1.7-1.5S14.5,3.2,15.4,3.2z M19.3,3.7c-0.4,0-0.7,0.2-0.7,0.6
			c0,0.1-0.3,2.5-2.1,2.5h-2c-0.7,0-1.2,0.4-1.5,0.7c-0.1,0.1-0.2,0.2-0.3,0.3c-0.3,0-0.6-0.1-0.8-0.1L12,7.3c0-0.1,0-0.3,0-0.4
			l-0.1-0.1c0-0.1-0.1-0.2,0-0.3L12,6l0,0l0.1-0.2c0,0,0,0,0-0.1c0,0,0-0.1-0.1-0.1l-0.4-0.1c0,0-0.1,0-0.1,0.1l0,0l-0.1,0.2
			c0,0,0,0,0,0.1l-0.1,0.5c0,0.1-0.1,0.1-0.1,0.2H11c-0.1,0.1-0.2,0.2-0.3,0.3l-0.5,2c0,0.1,0,0.3,0.2,0.3l0.7,0.2
			c0.1,0,0.3,0,0.3-0.2l0.1-0.4C11.8,8.9,12.2,9,12.7,9h0.1c0.5,0,0.9-0.3,1.2-0.6c0,0,0-0.1,0.1-0.1v2.4l-1.2,2.5
			c-0.1,0.2-0.1,0.4,0,0.6c0.1,0.2,0.3,0.3,0.6,0.3h0.1c-0.1,0.5-0.1,1-0.1,1.5l0.2,2.3c0,0.4,0.4,0.7,0.8,0.7c0,0,0,0,0.1,0
			c0.4,0,0.7-0.4,0.7-0.8l-0.2-2.3c0-0.4,0-0.7,0.1-1.1l0.1-0.3h0.6l0.5,3.8c0,0.4,0.4,0.7,0.8,0.7h0.1c0.4-0.1,0.7-0.4,0.6-0.9
			L17.3,14h0.3c0.2,0,0.4-0.1,0.6-0.3c0.1-0.2,0.1-0.4,0-0.6L17,10.7V8.1l0,0c2-0.3,2.8-2.5,3-3.6C19.9,4.1,19.7,3.8,19.3,3.7z
			M9.1,6.9c0-0.1-0.1-0.3-0.3-0.3H8.7c-0.1,0-0.1-0.1-0.1-0.2L8.5,5.9c0,0,0,0,0-0.1L8.4,5.6c0,0,0,0-0.1,0L8.2,5.5L7.9,5.6L7.8,5.7
			v0.1L7.9,6l0,0L8,6.5c0,0.1,0,0.2,0,0.3v0.1C7.9,7,7.9,7.1,7.9,7.3L8,7.7c-0.2,0-0.5,0.1-0.8,0.1C7.1,7.7,7,7.6,6.9,7.5
			C6.6,7.2,6.1,6.8,5.4,6.8h-2c-1.7,0-2.1-2.4-2.1-2.5C1.2,3.9,0.9,3.7,0.6,3.7S0,4.1,0,4.4C0.1,5.6,0.9,7.8,3,8l0,0v3.8l-0.4,5.8
			c0,0.4,0.3,0.8,0.7,0.8c0,0,0,0,0.1,0c0.4,0,0.7-0.3,0.8-0.7l0.4-5.4l0.6,1.9c0.1,0.3,0.1,0.5,0.1,0.8l0.2,2.7
			c0,0.4,0.4,0.7,0.8,0.7c0,0,0,0,0.1,0c0.4,0,0.7-0.4,0.7-0.8l-0.2-2.7c0-0.4-0.1-0.8-0.2-1.1L6,11.7V8.4c-0.1,0,0,0.1,0,0.1
			c0.3,0.3,0.7,0.6,1.2,0.6c0,0,0,0,0.1,0c0.4,0,0.9-0.1,1.1-0.2l0.1,0.4c0,0.1,0.2,0.2,0.3,0.2l0.7-0.2c0.1,0,0.2-0.2,0.2-0.3
			L9.1,6.9z M9.9,10.2c-0.1,0-0.2,0.1-0.2,0.2V11c0,0.1,0.1,0.2,0.2,0.2c0.1,0,0.2-0.1,0.2-0.2v-0.6C10.1,10.3,10,10.2,9.9,10.2z
			M10.8,9.9c-0.1-0.1-0.2-0.1-0.3,0s-0.1,0.2,0,0.3l0.4,0.4l0.1,0.1c0,0,0.1,0,0.1-0.1c0.1-0.1,0.1-0.2,0-0.3L10.8,9.9z M9.1,9.9
			l-0.4,0.4c-0.1,0.1-0.1,0.2,0,0.3l0.1,0.1c0,0,0.1,0,0.1-0.1l0.4-0.4c0.1-0.1,0.1-0.2,0-0.3C9.3,9.9,9.2,9.9,9.1,9.9z M7.9,4.3
			c0.3,0,0.4-0.3,0.4-0.5V2.3l1.4-0.2v1.1c-0.1,0-0.2,0-0.3,0C9.1,3.2,9,3.4,9,3.7C9.1,3.9,9.3,4,9.6,4S10,3.7,10,3.5V1.7
			c0-0.1-0.1-0.2-0.2-0.2L8.2,1.7C8.1,1.7,8,1.8,8,1.9v1.5c-0.1,0-0.2,0-0.3,0c-0.2,0-0.4,0.3-0.4,0.5C7.3,4.2,7.6,4.3,7.9,4.3z
			M11.3,4.6c0.3,0,0.4-0.2,0.4-0.4l0,0V2.6c0.4,0,0.4,0.4,0.3,0.7v0.1h0.1h0.1c0.4-0.5,0.1-1.2-0.6-1.3c-0.1,0-0.1,0-0.1,0.1v1.5
			c-0.1,0-0.2,0-0.3,0c-0.3,0.1-0.5,0.3-0.4,0.5C10.8,4.5,11,4.6,11.3,4.6z" />
		</symbol>
		
		<symbol id="icon-money" viewBox="0 0 20 20">
			<path d="M5.4,9.3C6,9.1,6.7,9,7.5,9c0.4,0,0.7,0,1,0.1l0.1-1.2l4.8-4.9l-2.8-1.1l-5,4.7L5.4,9.3z M16.7,5c-0.5,0.5-0.1,1.2,0.9,1.7
			l-2.3,2.7c-1-0.5-2.2-0.3-2.8,0.3L9.1,8L9,8.1L8.9,8.9l4.7,2.3c0.6,0.3,1.4,0.2,1.7-0.2l4.1-4.9c0.3-0.3,0-0.7-0.6-1l-5-2l-0.5,0.5
			L16.7,5z M0.4,4.7l4.9,2.3l0.1-0.8l0,0L2.5,4.8C3,4.3,2.9,3.7,2.1,3.3l2.6-2C5.5,1.6,6.5,1.5,7,1.1l2.6,1l0.5-0.5L6.3,0.1
			C5.8-0.1,5.2,0,4.9,0.2L0.3,3.8C-0.1,4.1-0.1,4.5,0.4,4.7z M6.8,4.9l1.6-1.5C7.9,3.5,7.5,3.7,7.2,3.9C6.9,4.2,6.8,4.6,6.8,4.9z
			M12.3,4.8l-1.8,1.8c0.6-0.1,1.1-0.3,1.4-0.7C12.3,5.6,12.3,5.2,12.3,4.8z M15.5,7.5c0.4-0.5,0.1-1-0.6-1.4
			c-0.8-0.3-1.7-0.2-2.1,0.2c-0.4,0.4-0.2,1,0.6,1.4S15.1,7.9,15.5,7.5z M6.2,2.4C5.5,2.2,4.7,2.3,4.3,2.6C3.8,3,3.9,3.5,4.5,3.8
			S6,4,6.5,3.6C6.9,3.2,6.8,2.7,6.2,2.4z M11,11.5l2.8,1.3c0.6,0.3,1.4,0.2,1.8-0.2l4-4.9c0.2-0.2,0.1-0.6-0.3-0.8l-3.6,4.3
			c-0.4,0.5-1.1,0.6-1.8,0.4c-0.1,0-3.3-1.5-3.3-1.5c0.3,0.3,0.4,0.7,0.4,1L11,11.5L11,11.5z M5.2,7.5L0.6,5.3L0.3,5.5
			C0,5.8,0,6.1,0.5,6.4L5,8.6L5.2,7.5z M5,9.6l0-0.5L0.7,7L0.4,7.1C0,7.4,0.1,7.8,0.5,8.1l3.9,1.9C4.6,9.8,4.8,9.7,5,9.6z M19.5,8.6
			l-3.6,4.3c-0.4,0.5-1.1,0.6-1.9,0.4c-0.1,0-3-1.4-3-1.4v1.2l2.8,1.4c0.6,0.3,1.4,0.2,1.7-0.2l4.1-4.9C19.9,9.2,19.8,8.8,19.5,8.6z
			M19.6,10.3l-3.6,4.3c-0.4,0.5-1.1,0.6-1.9,0.4c-0.1,0-3-1.4-3-1.4v1.2l3,1.4c0.6,0.3,1.4,0.2,1.7-0.2l4.1-4.9
			C20,10.8,19.9,10.5,19.6,10.3z M3.9,11.1c0-0.3,0.1-0.6,0.3-0.9L0.8,8.6L0.5,8.8C0.2,9.1,0.2,9.5,0.7,9.7l3.2,1.5V11.1z M0.8,11.4
			l2.3,1.1c0.2,0,0.3,0,0.5,0c0.1,0,0.2,0,0.3,0v-0.7l-3-1.5l-0.3,0.2C0.3,10.8,0.3,11.2,0.8,11.4z M19.7,12l-3.6,4.3
			c-0.4,0.5-1.1,0.6-1.9,0.4c-0.1,0-3.1-1.5-3.1-1.5v1.2l3,1.5c0.6,0.3,1.4,0.2,1.7-0.2l4.1-4.9C20.1,12.5,20,12.2,19.7,12z M3.1,15.8
			c0,0.1,0,0.2,0.1,0.2s0.2,0.1,0.3,0.2v-0.7c-0.1,0-0.2,0-0.3,0.1C3.1,15.6,3.1,15.7,3.1,15.8z M3.7,16.7v0.7c0.1,0,0.2,0,0.3-0.1
			c0.1,0,0.1-0.1,0.1-0.2c0-0.1,0-0.2-0.1-0.2C4,16.8,3.9,16.7,3.7,16.7z M3.5,14c-1.3,0-2.5,1.1-2.5,2.5c0,1.3,1.1,2.5,2.5,2.5
			S6,17.8,6,16.5S4.9,14,3.5,14z M4.4,17.5c-0.2,0.1-0.4,0.2-0.6,0.2v0.3H3.5v-0.3c-0.4,0-0.7-0.2-1-0.4L2.8,17
			c0.2,0.2,0.5,0.3,0.7,0.3v-0.7c-0.3-0.1-0.5-0.2-0.7-0.3c-0.1-0.1-0.2-0.3-0.2-0.5c0-0.2,0.1-0.4,0.3-0.5C3,15.2,3.2,15.1,3.5,15
			v-0.2h0.3V15c0.3,0,0.5,0.1,0.8,0.3l-0.3,0.4c-0.2-0.1-0.4-0.2-0.5-0.2v0.7l0,0c0.3,0.1,0.5,0.2,0.7,0.3c0.1,0.1,0.2,0.3,0.2,0.5
			C4.6,17.2,4.5,17.4,4.4,17.5z M7.5,9.4c-1.8,0-3.2,0.8-3.2,1.7l0,0l0,0v1.4c0,0.2,0,0.3,0.1,0.5c-0.3-0.1-0.6-0.1-0.9-0.1
			c-2,0-3.5,1.6-3.5,3.5c0,2,1.6,3.6,3.5,3.6c0.6,0,1.3-0.2,1.8-0.5C5.8,19.8,6.6,20,7.4,20c1.8,0,3.2-0.8,3.2-1.7v-0.9
			c-0.5,0.7-1.7,1.2-3.2,1.2c-0.3,0-0.7,0-1-0.1c0.1-0.1,0.2-0.3,0.3-0.4c0.3,0,0.5,0,0.8,0c1.8,0,3.2-0.8,3.2-1.7v-1
			c-0.5,0.7-1.7,1.2-3.2,1.2c-0.1,0-0.3,0-0.4,0c0-0.1,0-0.1,0-0.2c0-0.1,0-0.2,0-0.2c0.1,0,0.3,0,0.4,0c1.8,0,3.2-0.8,3.2-1.7v-0.9
			c-0.5,0.7-1.7,1.2-3.2,1.2c-0.3,0-0.5,0-0.8,0c-0.1-0.2-0.2-0.4-0.4-0.5c0.4,0.1,0.8,0.1,1.2,0.1c1.8,0,3.2-0.8,3.2-1.7v-1.4
			C10.6,10.2,9.2,9.4,7.5,9.4z M6.5,16.5c0,1.6-1.3,2.9-2.9,2.9S0.7,18,0.7,16.5s1.3-2.9,2.9-2.9S6.5,14.8,6.5,16.5z M7.5,12.5
			c-1.4,0-2.6-0.6-2.6-1.3S6,9.8,7.5,9.8s2.6,0.6,2.6,1.3C10,11.9,8.9,12.5,7.5,12.5z M7.5,10.1c-1.2,0-2.2,0.5-2.2,1.1
			c0,0.6,1,1.1,2.2,1.1s2.2-0.5,2.2-1.1C9.6,10.5,8.7,10.1,7.5,10.1z M8.2,11.7c-0.1,0.1-0.3,0.1-0.6,0.1V12H7.4v-0.1
			c-0.3,0-0.6-0.1-0.9-0.2l0.3-0.2c0.2,0.1,0.4,0.2,0.6,0.2v-0.4c-0.3,0-0.5-0.1-0.6-0.1c-0.1,0-0.2-0.1-0.2-0.2
			c0-0.1,0.1-0.2,0.2-0.3s0.3-0.1,0.5-0.1v-0.1h0.2v0.1c0.3,0,0.5,0,0.7,0.1L8,10.8c-0.2,0-0.3-0.1-0.5-0.1V11l0,0
			c0.3,0,0.5,0.1,0.6,0.1c0.1,0,0.2,0.1,0.2,0.2C8.4,11.5,8.3,11.6,8.2,11.7z M7,10.8C7,10.8,7.1,10.9,7,10.8c0.1,0.1,0.2,0.1,0.3,0.2
			v-0.3c-0.1,0-0.2,0-0.3,0C7.1,10.7,7,10.8,7,10.8z M7.9,11.3c0,0-0.2,0-0.3-0.1v0.3c0.1,0,0.2,0,0.3,0C7.9,11.5,7.9,11.5,7.9,11.3
			C8,11.4,8,11.3,7.9,11.3z" />
		</symbol>
		
		<symbol id="icon-dj" viewBox="0 0 20 20">
			<path d="M9.9,1.3c1,0,1.8,0.8,1.8,1.7s-0.8,1.7-1.8,1.7S8.1,3.9,8.1,3S8.9,1.3,9.9,1.3z M0,12.2V20h20v-7.8H0z M3.7,18.3
			c-1.3,0-2.4-1-2.4-2.2s1.1-2.2,2.4-2.2s2.4,1,2.4,2.2C6.1,17.3,5,18.3,3.7,18.3z M10,18.3c-1.3,0-2.4-1-2.4-2.2s1.1-2.2,2.4-2.2
			s2.4,1,2.4,2.2S11.3,18.3,10,18.3z M16.3,18.3c-1.3,0-2.4-1-2.4-2.2s1.1-2.2,2.4-2.2s2.4,1,2.4,2.2C18.7,17.3,17.6,18.3,16.3,18.3z
			M16.3,15.1c0.6,0,1.1,0.4,1.1,1c0,0.6-0.5,1-1.1,1s-1.1-0.4-1.1-1C15.2,15.5,15.7,15.1,16.3,15.1z M10,15.1c0.6,0,1.1,0.4,1.1,1
			c0,0.6-0.5,1-1.1,1s-1.1-0.4-1.1-1C8.9,15.5,9.4,15.1,10,15.1z M3.7,15.1c0.6,0,1.1,0.4,1.1,1c0,0.6-0.5,1-1.1,1s-1.1-0.4-1.1-1
			C2.6,15.5,3.1,15.1,3.7,15.1z M5.6,9c1.7,0,3.1,0.5,3.1,1.1s-1.4,1.1-3.1,1.1s-3.1-0.5-3.1-1.1S3.9,9,5.6,9z M14.1,9
			c1.7,0,3.1,0.5,3.1,1.1s-1.4,1.1-3.1,1.1S11,10.7,11,10.1S12.4,9,14.1,9z M18.7,10.3h-1c-0.2,1-1.9,1.4-3.6,1.4
			c-1.2,0-2.4-0.2-3.1-0.7l-0.1-0.1c0,0,0,0-0.1-0.1l-0.1-0.1l-0.1-0.1v-0.1v-0.1c0-0.1,0-0.1,0-0.2c0-0.6,0.6-1,1.4-1.2V6.6h0.5
			c0.2,0,0.5-0.1,0.6-0.3l1.5-1.8c0.1-0.1,0.2-0.3,0.2-0.4V0.7C14.8,0.3,14.4,0,14,0s-0.8,0.3-0.8,0.7v3.1l-1.1,1.3H12H7.8H7.7
			c-0.1,0-0.3,0-0.4,0.1L6.1,5.8l0.5-1.6c0-0.4-0.2-0.8-0.6-0.9C5.5,3.2,5.1,3.4,5,3.8L4.1,7.1C4,7.4,4.1,7.7,4.4,7.9
			C4.5,8,4.7,8,4.8,8C5,8,5.1,8,5.2,7.9l2.6-1.3v2.3c0.8,0.2,1.3,0.6,1.3,1.2c0,0.1,0,0.1,0,0.2v0.1v0.1L9,10.6l-0.1,0.1
			c0,0,0,0-0.1,0.1l-0.1,0.1c-0.7,0.5-1.9,0.7-3.1,0.7c-1.6,0-3.4-0.4-3.6-1.4H1.2l-1,1.6h19.5L18.7,10.3z" />
		</symbol>
		
		<symbol id="icon-plane" viewBox="0 0 20 20">
			<path d="M7.1,15.7l0.4,3.4c0,0.1,0,0.3-0.1,0.4L6.8,20l-2.7-4.1L0,13.2l0.5-0.5c0.1-0.1,0.2-0.2,0.4-0.1l3.4,0.4l3.8-3.8L0.5,4.1
			C0.3,3.9,0.2,3.6,0.4,3.4c0,0,0-0.1,0.1-0.1l0.3-0.3c0.4-0.4,1-0.6,1.6-0.4l9.9,2.5l3.9-3.9c0.6-0.6,1.3-0.9,2-1.1L18.6,0
			C19.3-0.1,19.9,0.3,20,1c0,0.1,0,0.3,0,0.4l-0.1,0.5c-0.1,0.8-0.5,1.5-1.1,2l-3.9,3.9l2.5,9.9c0.1,0.6,0,1.2-0.4,1.6l-0.3,0.3
			c0,0,0,0-0.1,0.1c-0.2,0.1-0.5,0.1-0.7-0.1l-5.1-7.6L7.1,15.7z M6.1,3.1l1.4-1.4c0.4-0.4,1-0.4,1.4,0l0.7,0.7c0.4,0.4,0.4,1,0,1.4
			L6.1,3.1z M17.2,13.7l-0.7-3.4c0.4-0.4,1-0.4,1.4,0l0.7,0.7c0.4,0.4,0.4,1,0,1.4L17.2,13.7z" />
		</symbol>
				
		<!-- SOCIAL -->
		
		<symbol id="icon-facebook" viewBox="0 0 20 20">
			<path d="M17,1H3C1.9,1,1,1.9,1,3v14c0,1.101,0.9,2,2,2h7v-7H8V9.525h2V7.475c0-2.164,1.212-3.684,3.766-3.684l1.803,0.002v2.605
			h-1.197C13.378,6.398,13,7.144,13,7.836v1.69h2.568L15,12h-2v7h4c1.1,0,2-0.899,2-2V3C19,1.9,18.1,1,17,1z" />
		</symbol>
		
		<symbol id="icon-twitter" viewBox="0 0 20 20">
			<path d="M17.316,6.246c0.008,0.162,0.011,0.326,0.011,0.488c0,4.99-3.797,10.742-10.74,10.742c-2.133,0-4.116-0.625-5.787-1.697
			c0.296,0.035,0.596,0.053,0.9,0.053c1.77,0,3.397-0.604,4.688-1.615c-1.651-0.031-3.046-1.121-3.526-2.621
			c0.23,0.043,0.467,0.066,0.71,0.066c0.345,0,0.679-0.045,0.995-0.131c-1.727-0.348-3.028-1.873-3.028-3.703c0-0.016,0-0.031,0-0.047
			c0.509,0.283,1.092,0.453,1.71,0.473c-1.013-0.678-1.68-1.832-1.68-3.143c0-0.691,0.186-1.34,0.512-1.898
			C3.942,5.498,6.725,7,9.862,7.158C9.798,6.881,9.765,6.594,9.765,6.297c0-2.084,1.689-3.773,3.774-3.773
			c1.086,0,2.067,0.457,2.756,1.191c0.859-0.17,1.667-0.484,2.397-0.916c-0.282,0.881-0.881,1.621-1.66,2.088
			c0.764-0.092,1.49-0.293,2.168-0.594C18.694,5.051,18.054,5.715,17.316,6.246z" />
		</symbol>
		
		<symbol id="icon-instagram" viewBox="0 0 20 20">
			<path d="M17,1H3C1.9,1,1,1.9,1,3v14c0,1.101,0.9,2,2,2h14c1.1,0,2-0.899,2-2V3C19,1.9,18.1,1,17,1z M9.984,15.523
			c3.059,0,5.538-2.481,5.538-5.539c0-0.338-0.043-0.664-0.103-0.984H17v7.216c0,0.382-0.31,0.69-0.693,0.69H3.693
			C3.31,16.906,3,16.598,3,16.216V9h1.549C4.488,9.32,4.445,9.646,4.445,9.984C4.445,13.043,6.926,15.523,9.984,15.523z M6.523,9.984
			c0-1.912,1.55-3.461,3.462-3.461c1.911,0,3.462,1.549,3.462,3.461s-1.551,3.462-3.462,3.462C8.072,13.446,6.523,11.896,6.523,9.984z
			 M16.307,6h-1.615C14.31,6,14,5.688,14,5.308V3.691C14,3.309,14.31,3,14.691,3h1.615C16.69,3,17,3.309,17,3.691v1.616
			C17,5.688,16.69,6,16.307,6z" />
		</symbol>
		
	</defs>
</svg>